<svg width="16" height="16" viewBox="0 0 16 16" fill="none" xmlns="http://www.w3.org/2000/svg">
<path fill-rule="evenodd" clip-rule="evenodd" d="M8 15C9.85652 15 11.637 14.2625 12.9497 12.9497C14.2625 11.637 15 9.85652 15 8C15 6.14348 14.2625 4.36301 12.9497 3.05025C11.637 1.7375 9.85652 1 8 1C6.14348 1 4.36301 1.7375 3.05025 3.05025C1.7375 4.36301 1 6.14348 1 8C1 9.85652 1.7375 11.637 3.05025 12.9497C4.36301 14.2625 6.14348 15 8 15ZM11.244 6.869C11.4082 6.70483 11.5004 6.48217 11.5004 6.25C11.5004 6.01783 11.4082 5.79517 11.244 5.631C11.0798 5.46683 10.8572 5.3746 10.625 5.3746C10.3928 5.3746 10.1702 5.46683 10.006 5.631L7.125 8.513L5.994 7.38C5.82957 7.21583 5.60665 7.12371 5.37429 7.12389C5.14194 7.12408 4.91917 7.21657 4.755 7.381C4.59083 7.54543 4.49871 7.76835 4.49889 8.00071C4.49908 8.23306 4.59157 8.45583 4.756 8.62L6.506 10.37C6.58726 10.4513 6.68376 10.5159 6.78997 10.5599C6.89618 10.6039 7.01003 10.6266 7.125 10.6266C7.23997 10.6266 7.35382 10.6039 7.46003 10.5599C7.56624 10.5159 7.66274 10.4513 7.744 10.37L11.244 6.87V6.869Z" fill="white"/>
</svg>
