<?xml version="1.0" encoding="utf-8"?>
<!-- Generator: Adobe Illustrator 19.1.0, SVG Export Plug-In . SVG Version: 6.00 Build 0)  -->
<svg version="1.1" id="Layer_1" xmlns="http://www.w3.org/2000/svg" xmlns:xlink="http://www.w3.org/1999/xlink" x="0px" y="0px"
	 width="1000px" height="1000px" viewBox="0 0 1000 1000" style="enable-background:new 0 0 1000 1000;" xml:space="preserve">
<path d="M885.4,494.7c24.3-7.3,49.1-14.7,74.4-22c-1.8-19.3-3.7-34.4-5.5-51c-26.2-2.8-51-5.5-75.3-7.3
	c-3.7-17.4-7.3-32.6-11.9-48.2c21.6-14.7,41.8-28.5,62.4-42.7c-8.3-17.4-15.6-32.6-22.5-47.3c-26.2,6.4-49.1,11.9-71.6,17.4
	c-10.1-15.6-17.9-28.5-27.1-41.8c14.7-20.2,28.9-39,44.5-60.1c-12.9-13.8-25.3-25.7-37.2-38.1c-21.6,14.7-40.9,27.5-60.6,39.9
	c-13.8-10.1-26.2-21.1-39.9-30.8c8.3-23.9,14.7-46.4,21.6-70.2c-16.5-8.3-30.8-15.6-47.3-23.9c-15.6,20.2-28.9,38.1-43.6,56.5
	c-16.5-5.5-32.6-11-50-17.4V36.5c-19.7-2.8-36.3-4.6-52.8-6.4c-9.2,24.8-16.5,44.5-22.5,65.7h-51.9c-8.3-23-15.6-42.7-23.4-65.7
	c-17.9,2.8-33.5,6.4-52.8,9.2v70.2c-17.9,6.4-33.5,11.9-49.1,17.4c-14.7-19.3-28-35.4-42.7-54.6c-17.4,10.1-31.7,18.4-48.2,27.5
	c8.3,23.9,15.6,44.5,22.5,66.6c-13.8,11-26.2,21.1-39,30.8c-20.7-12.9-39-24.8-58.8-37.2c-12.9,13.8-24.3,27.5-36.3,40.9
	c15.6,19.3,28.9,37.2,42.7,55.6c-10.1,14.7-17.9,27.5-27.1,40.9c-22.5-5.5-43.6-10.1-67.9-15.6c-7.3,17.4-13.8,33.5-20.7,51
	c20.7,13.8,39,25.7,57.8,37.2c-3.7,17.4-7.3,32.6-11,48.2c-24.3,2.8-46.4,4.6-69.8,7.3c-1.8,20.2-2.8,37.2-4.6,54.6
	c25.3,6.4,47.3,12.9,69.8,19.3c0.9,16.5,1.8,31.7,2.8,47.3c-21.6,10.1-42.7,19.3-64.3,29.8c4.6,18.4,9.2,34.4,13.8,51.9
	c26.2-1.8,49.1-2.8,71.6-4.6c7.3,14.7,12.9,28.5,18.8,43.6c-17.4,16.5-34.4,32.6-52.8,50c11,16.5,20.7,29.8,30.8,44.5
	c23.4-10.1,45.5-19.3,67-28.5c11.9,12.9,21.6,23.9,31.7,34.4c-11,23-21.6,43.6-33.5,65.7c15.6,11.9,28.9,23,42.7,33.5
	c18.8-17.4,37.2-33.5,55.1-50c13.8,7.3,26.2,14.7,40.9,23c-3.7,24.8-7.3,49.1-11,74.8c17.9,5.5,34.4,11,51,16.5
	c12.9-23,25.3-44.5,37.2-66.6c16.5,3.7,30.8,5.5,45.5,8.3c5.5,26.6,10.1,50,14.7,74.8h52.8c5.5-26.6,10.1-51,14.7-75.8
	c16.5-2.8,31.7-4.6,46.4-6.4c12.9,23.9,24.3,43.6,37.2,66.6c17.9-6.4,33.5-11.9,50-18.4c-4.6-26.6-8.3-50-11.9-75.8
	c13.8-7.3,27.1-14.7,41.8-23c18.8,18.4,38.1,34.4,57.8,51.9c14.7-11.9,28-22,41.8-32.6C789.5,810.5,778,789,765.1,766
	c11.9-11.9,21.6-23,33.5-35.4c23.4,10.1,46.4,20.2,70.7,30.8c10.1-15.6,18.8-29.8,28.9-44.5c-19.7-19.3-38.1-35.4-56.9-53.7
	c7.3-15.6,14.7-28.9,20.7-43.6c25.3,1.8,49.1,2.8,76.2,4.6c4.6-16.5,8.3-33.5,12.9-51c-24.3-11-46.4-20.2-69.8-30.8
	C882.7,527.3,883.6,511.2,885.4,494.7L885.4,494.7z M534.7,229.8c70.7,9.2,124.9,41.8,172.2,98.2c-34.4,19.3-67.9,39-99.6,57.4
	c-24.3-13.8-47.3-26.6-72.5-40.9V229.8L534.7,229.8z M466.7,232.5v111.1c-23.4,14.7-47.3,27.5-72.5,41.8
	c-30.8-17.4-63.4-37.2-96.9-56.5C331.7,276.1,407,233.5,466.7,232.5z M260.1,384.5c35.4,20.2,67.9,39,98.7,56.5v88.1
	c-31.7,18.4-64.3,37.2-99.6,58.3C232.1,519.5,234,454.7,260.1,384.5z M466.7,749c-72.5-10.1-128.5-43.6-175.8-103.8
	c34.4-19.3,67-38.1,97.8-56.5c26.2,15.6,51,29.8,78,46.4V749z M500.2,564.9c-41.8,0-74.4-34.4-74.4-77.6c0.9-40.9,33.5-73.9,75.3-73
	c40.9,0,73.5,32.6,73.5,73.9C575.5,530,541.1,564.9,500.2,564.9L500.2,564.9z M534.7,749.9V635.2c25.3-15.6,50-29.8,78-46.4
	c28.9,17.4,62.4,36.3,97.8,56.5C665,704,608.1,738,534.7,749.9L534.7,749.9z M742.2,587.4c-34.4-20.2-67.9-39.9-99.6-58.3V441
	c28.9-17.4,61.5-35.4,96.9-56.5C768.3,452.9,768.3,518.6,742.2,587.4L742.2,587.4z"/>
</svg>
