<?xml version="1.0" encoding="utf-8"?>
<!-- Generator: Adobe Illustrator 19.1.0, SVG Export Plug-In . SVG Version: 6.00 Build 0)  -->
<svg version="1.1" id="Layer_1" xmlns="http://www.w3.org/2000/svg" xmlns:xlink="http://www.w3.org/1999/xlink" x="0px" y="0px"
	 width="1000px" height="1000px" viewBox="0 0 1000 1000" style="enable-background:new 0 0 1000 1000;" xml:space="preserve">
<path d="M836.8,488c24.6-7,47.8-12.7,71.1-19.7c-1.3-17.6-2.2-32.9-4.8-49.1c-24.6-2.2-47.8-4.8-71.1-5.7
	c-4.8-16.2-8.3-31.6-11.8-47.8c19.7-12.7,38.6-25.9,59.2-39.9c-7-15.4-14-29.4-21.1-45.6c-24.6,5.7-46.5,11.8-69.8,16.2
	c-8.3-14-16.2-26.8-25.4-39.9c14-18.9,28.1-37.3,44.3-58.8c-12.7-11.8-24.6-23.3-36-35.1c-21.1,14-39.5,25.9-59.2,38.6
	c-12.7-10.5-24.6-19.7-37.3-30.3c7-23.3,14-44.3,21.1-66.7c-16.2-8.3-30.3-15.4-45.6-22.4c-15.4,18.9-28.1,36.4-42.1,54
	c-16.2-5.7-31.6-11.8-47.8-16.2v-68c-17.6-2.2-33.8-4.8-50-7c-8.3,22.4-15.4,42.1-21.9,62.3h-49.1c-7-19.7-15.4-39.9-21.9-61
	c-17.6,2.2-33.8,5.7-51.3,8.3v66.7c-16.2,5.7-31.6,11.8-45.6,16.2c-15.4-17.6-29-35.1-42.1-52.7c-16.2,10.5-30.3,17.6-44.3,25.9
	c7,23.3,14,44.3,19.7,64.5c-14,10.5-25.4,19.7-37.3,29.4c-18.4-11.8-36-23.3-55.7-35.1c-11.8,12.7-21.9,25.9-35.1,38.6
	c15.4,18.9,28.1,36.4,40.8,52.7c-9.2,15.4-17.6,26.8-25.4,39.9c-21.9-4.8-42.1-9.2-65.4-14c-7,16.2-12.7,31.6-19.7,47.8
	c19.7,12.7,37.3,24.6,56.2,36.4c-3.5,15.4-7,29.4-10.5,45.6c-23.3,2.2-44.3,4.8-67.6,8.3c-1.3,17.6-2.2,33.8-3.5,51.3
	c23.3,5.7,44.3,11.8,66.3,17.6c0,16.2,1.3,31.6,2.2,45.6C77.7,549.5,58,557.8,36.9,567c4.8,18.9,9.2,35.1,14,51.3
	c24.6-2.2,45.6-3.5,67.6-5.7c7,14,12.7,28.1,19.7,42.1c-17.6,16.2-33.8,30.3-51.3,47.8c10.5,14,18.4,28.1,29,43.4
	c21.9-9.2,43-18.9,64.1-28.1c10.5,11.8,21.1,23.3,31.6,33.8c-11.8,21.1-21.9,40.8-33.8,62.3c15.4,11.8,28.1,22.4,42.1,32.9
	c18.4-17.6,36-32.9,52.7-47.8c14,7,26.8,14,39.5,21.1c-3.5,24.6-7,47-10.5,71.5c16.2,5.7,32.5,10.5,49.1,16.2
	c11.8-22.4,21.9-42.1,33.8-63.2c16.2,2.2,30.3,4.8,44.3,8.3c4.8,24.6,9.2,47,14,69.3h51.3c3.5-24.6,8.3-47,11.8-70.2
	c16.2-3.5,31.6-4.8,45.6-7c11.8,22.4,23.3,42.1,35.1,64.5c17.6-5.7,32.5-11.8,47.8-17.6c-3.5-25.9-7-49.1-10.5-72.8
	c14-7,25.4-14,39.5-21.1c17.6,16.2,36,31.6,54.8,49.1c12.7-10.5,25.4-19.7,40.8-31.6c-12.7-23.3-24.6-43.4-36-65.8
	c11.8-11.8,21.1-22.4,31.6-32.9c23.3,9.2,45.6,18.9,68.9,28.1c9.2-15.4,18.9-29.4,26.8-43.4c-18.4-17.6-36-32.9-53.5-49.1
	c7-15.4,12.7-29.4,19.7-42.1c24.6,1.3,47.8,2.2,72.4,3.5c4.8-16.2,8.3-31.6,12.7-47.8c-23.3-10.5-45.6-19.7-66.3-30.3
	C835.5,518.8,835.5,503.4,836.8,488L836.8,488z M312.5,631.1c-15.4,26.8-31.6,57.5-66.3,57.5c-35.1,1.3-46.5-30.3-60.6-56.2
	c-32.5-58.8-4.8-97.4,71.1-97.4C321.7,535,345,573.6,312.5,631.1L312.5,631.1z M327.4,395.5c-15.4,25.9-43,24.6-68.9,25.9
	c-29-2.2-60.6,0-78.1-29.4c-16.2-30.3,3.5-56.2,18.9-80.7c31.6-51.3,65.4-54,103.6-8.3c4.8,4.8,8.3,9.2,11.8,15.4
	C328.7,341.5,341.4,367.4,327.4,395.5z M462.5,805.7c-69.8,0-92.1-33.8-61.9-99.6c0-1.3,1.3-1.3,1.3-2.2c14-25.9,29-51.3,61.9-52.7
	c30.3,0,44.3,25.9,58.4,49.1c0,1.3,1.3,3.5,2.2,4.8C558.2,771.5,538.5,805.7,462.5,805.7L462.5,805.7z M468.7,560.9
	c-43,0-76.8-35.1-76.8-78.5c0-40.8,37.3-77.2,79.4-76.3c40.8,1.3,75.9,36.4,75.9,77.2C545.5,526.6,511.7,560.9,468.7,560.9
	L468.7,560.9z M508.2,302c-23.3,21.1-49.1,21.1-67.6-2.2c-16.2-21.1-30.3-45.6-39.5-71.5c-11.8-36.4,7-59.7,45.6-64.5
	c10.5-1.3,21.1-1.3,30.3-2.2c10.5,1.3,21.1,1.3,30.3,3.5c30.3,4.8,44.3,21.1,42.1,50.5C546.8,248.9,533.6,278.3,508.2,302z M739,657
	c-30.3,51.3-64.1,54-103.6,8.3c-4.8-5.7-9.2-11.8-12.7-17.6c-14-23.3-25.4-47.8-11.8-75c14-25.9,42.1-24.6,68.9-26.8
	c28.1,3.5,60.6,1.3,76.8,30.3C774.1,605.2,753.9,632.4,739,657L739,657z M681.9,431.9c-66.3,0-88.6-37.3-55.7-94.8
	c15.4-26.8,31.6-57.5,66.3-58.8c33.8,0,46.5,30.3,59.2,55.3C785.5,394.1,758.7,431.9,681.9,431.9z"/>
</svg>
