<svg version="1.1" xmlns="http://www.w3.org/2000/svg" viewBox="0 0 1033.3499755859375 422.3999328613281" width="1033.3499755859375" height="422.3999328613281" filter="invert(93%) hue-rotate(180deg)">
  <!-- svg-source:excalidraw -->
  
  <defs>
    <style class="style-fonts">
      @font-face {
        font-family: "Virgil";
        src: url("https://excalidraw.com/Virgil.woff2");
      }
      @font-face {
        font-family: "Cascadia";
        src: url("https://excalidraw.com/Cascadia.woff2");
      }
    </style>
    
  </defs>
  <rect x="0" y="0" width="1033.3499755859375" height="422.3999328613281" fill="#ffffff"></rect><g stroke-linecap="round" transform="translate(10 164.19992065429688) rotate(0 117.5 55.5)"><path d="M6.73 7.18 C6.73 7.18, 6.73 7.18, 6.73 7.18 M6.73 7.18 C6.73 7.18, 6.73 7.18, 6.73 7.18 M1.22 19.61 C3.51 19.57, 4.73 10.14, 16.31 2.25 M1.22 19.61 C6.52 15.02, 11.66 6.25, 16.31 2.25 M2.93 23.74 C9.86 22.62, 14.64 14.01, 22.61 1.1 M2.93 23.74 C5.96 19.38, 14.98 13.46, 22.61 1.1 M3.32 29.39 C12.92 21.43, 18.38 16.73, 28.25 0.71 M3.32 29.39 C11.4 20.74, 18.98 7.23, 28.25 0.71 M3.06 35.79 C7.07 24.85, 21.51 19.53, 33.9 0.31 M3.06 35.79 C13.97 23.63, 25.65 8.92, 33.9 0.31 M2.8 42.18 C8.38 33.72, 16.25 24.66, 38.88 0.67 M2.8 42.18 C14.92 27.46, 29.5 12.08, 38.88 0.67 M3.19 47.83 C13.88 34.58, 30.4 18.54, 44.53 0.28 M3.19 47.83 C14.79 34.85, 30.35 17.5, 44.53 0.28 M2.93 54.22 C18.36 34.32, 28.09 20.99, 49.51 0.64 M2.93 54.22 C12.98 41.12, 24.64 28.85, 49.51 0.64 M3.33 59.87 C23.63 33.5, 45.65 17, 55.16 0.25 M3.33 59.87 C13.46 46.13, 26.25 34.36, 55.16 0.25 M3.07 66.27 C20.7 42.16, 40.66 20.38, 60.14 0.61 M3.07 66.27 C24.03 42.52, 41.94 22.66, 60.14 0.61 M2.8 72.66 C22.99 55.14, 30.96 37.08, 65.79 0.21 M2.8 72.66 C16 55.17, 33.96 35.31, 65.79 0.21 M3.2 78.31 C29.11 45.78, 53.01 21.09, 70.77 0.57 M3.2 78.31 C17.55 59.05, 34.52 38.71, 70.77 0.57 M2.94 84.7 C23.86 64.7, 40.29 42.33, 75.76 0.93 M2.94 84.7 C30.59 50.95, 61.1 19.88, 75.76 0.93 M2.68 91.1 C18.84 63.28, 42.43 44.27, 81.4 0.54 M2.68 91.1 C35.46 56.69, 64.51 21.1, 81.4 0.54 M3.73 95.99 C41.6 55.89, 67.16 19.98, 86.39 0.9 M3.73 95.99 C28.73 70.21, 53.29 40.58, 86.39 0.9 M4.78 100.88 C36.07 61.16, 75.19 27.94, 92.03 0.5 M4.78 100.88 C31.43 73.65, 54.2 42.82, 92.03 0.5 M7.8 103.5 C41.62 70.53, 73.11 30.46, 97.02 0.86 M7.8 103.5 C28.57 77.88, 51.99 50.92, 97.02 0.86 M10.16 106.88 C37.35 83.84, 53.49 56.23, 102.66 0.47 M10.16 106.88 C44.57 72.82, 73.06 34.11, 102.66 0.47 M13.18 109.51 C37.88 85.62, 61.67 55.74, 107.65 0.83 M13.18 109.51 C48.17 71.31, 78.57 32.96, 107.65 0.83 M17.51 110.62 C40.88 75.77, 71.56 51.42, 113.29 0.43 M17.51 110.62 C47.2 79.6, 70.48 49.14, 113.29 0.43 M22.5 110.98 C62.26 72.39, 100.62 22.1, 118.28 0.79 M22.5 110.98 C58.75 69.58, 92.47 31.61, 118.28 0.79 M27.48 111.34 C54.18 80.55, 83.97 52.17, 123.92 0.4 M27.48 111.34 C48.94 83.89, 72.82 57.11, 123.92 0.4 M33.13 110.95 C60.16 83.18, 88.72 55.57, 128.91 0.76 M33.13 110.95 C58.5 84.29, 84.47 51.82, 128.91 0.76 M38.11 111.31 C72.24 67.4, 113.55 25.94, 134.55 0.36 M38.11 111.31 C74.66 74.59, 110.55 33.97, 134.55 0.36 M43.76 110.91 C76.16 67.21, 112.07 28.1, 139.54 0.72 M43.76 110.91 C75.05 75.93, 102.11 45.37, 139.54 0.72 M48.74 111.27 C84.24 70.13, 122.45 22.8, 145.18 0.33 M48.74 111.27 C82.43 70.93, 116.88 33.8, 145.18 0.33 M54.39 110.88 C80.57 77.16, 113.43 44.68, 150.17 0.69 M54.39 110.88 C86.98 72.86, 122.66 33.64, 150.17 0.69 M59.37 111.24 C88.58 73.73, 128.16 36.69, 155.81 0.29 M59.37 111.24 C86.03 76.62, 114.25 44.75, 155.81 0.29 M65.02 110.84 C101.52 76.09, 136.31 36.62, 160.8 0.66 M65.02 110.84 C94 76.04, 124.45 38.87, 160.8 0.66 M70 111.2 C98.54 77.02, 130.96 32.71, 166.44 0.26 M70 111.2 C99.16 74.33, 129.8 40.59, 166.44 0.26 M75.65 110.81 C109 75.4, 143.57 36.72, 171.43 0.62 M75.65 110.81 C111.8 73.15, 146.48 29.14, 171.43 0.62 M80.63 111.17 C110 82.34, 129.45 56.37, 177.07 0.23 M80.63 111.17 C108.05 82.57, 135.04 50.88, 177.07 0.23 M86.28 110.77 C112.9 72.3, 142.64 39.55, 182.06 0.59 M86.28 110.77 C109.64 80.58, 134.99 53.52, 182.06 0.59 M91.26 111.13 C120.12 75.96, 142.73 48.25, 187.7 0.19 M91.26 111.13 C117.71 84.49, 144.27 54.29, 187.7 0.19 M96.91 110.74 C119.25 88.74, 144.91 65.52, 192.69 0.55 M96.91 110.74 C120.76 79.54, 144 55.01, 192.69 0.55 M101.89 111.1 C141.3 71.9, 172.61 29.84, 197.68 0.91 M101.89 111.1 C129.18 77.16, 158.8 41.42, 197.68 0.91 M107.54 110.7 C133.22 80.64, 165.51 45.01, 203.32 0.52 M107.54 110.7 C143.52 69.43, 181.48 25.06, 203.32 0.52 M112.52 111.06 C149.36 72.03, 181.69 37.17, 208.31 0.88 M112.52 111.06 C146.02 73.62, 176.53 38.97, 208.31 0.88 M118.17 110.67 C143.07 80.89, 171.86 46.89, 212.64 1.99 M118.17 110.67 C154.72 67.87, 192.51 23.2, 212.64 1.99 M123.15 111.03 C148.11 86.31, 173.67 60.23, 216.97 3.11 M123.15 111.03 C147.27 83.81, 172.11 55.42, 216.97 3.11 M128.14 111.39 C158.69 74.4, 193.28 29.47, 221.3 4.22 M128.14 111.39 C147.03 89.19, 166.72 70.03, 221.3 4.22 M133.78 111 C157.61 85.8, 177.6 62.06, 225.63 5.34 M133.78 111 C155.77 86.93, 174.17 65.56, 225.63 5.34 M138.77 111.36 C162.2 84.39, 192.85 58.47, 228.65 7.96 M138.77 111.36 C156.59 89.72, 174.81 67.85, 228.65 7.96 M144.41 110.96 C173.1 80.79, 198.34 46.39, 231.01 11.34 M144.41 110.96 C176.88 73.8, 213.03 35.13, 231.01 11.34 M149.4 111.32 C177.15 73.65, 207.68 41.79, 232.72 15.47 M149.4 111.32 C165.74 88.51, 185.26 66.74, 232.72 15.47 M155.04 110.93 C168.72 93.16, 183.51 69.76, 234.43 19.61 M155.04 110.93 C184.26 77.3, 211.35 43.17, 234.43 19.61 M160.03 111.29 C184.98 86.57, 212.89 53.53, 236.79 22.99 M160.03 111.29 C184.61 80.31, 210.07 52.72, 236.79 22.99 M165.67 110.89 C188.31 79.29, 214.32 48.26, 236.53 29.38 M165.67 110.89 C189.02 82.55, 215.2 51.77, 236.53 29.38 M170.66 111.25 C187.67 84.53, 206.39 69.08, 236.92 35.03 M170.66 111.25 C197.57 80.83, 221.13 50.03, 236.92 35.03 M176.3 110.86 C197.45 88.12, 218.68 61.7, 236.66 41.42 M176.3 110.86 C196.6 86.3, 218.38 63.43, 236.66 41.42 M181.29 111.22 C201.89 89.02, 217.35 68.15, 237.06 47.07 M181.29 111.22 C201.67 86.89, 223.98 61.26, 237.06 47.07 M186.93 110.82 C201.41 92.02, 216.84 76.5, 236.79 53.47 M186.93 110.82 C200.87 95.01, 217.64 76.36, 236.79 53.47 M191.92 111.18 C203.03 92.76, 220.03 81.09, 237.19 59.11 M191.92 111.18 C202.63 95.86, 217.9 80.46, 237.19 59.11 M197.56 110.79 C207.6 103.54, 212.11 88.9, 236.93 65.51 M197.56 110.79 C211.59 94.05, 229.48 74.13, 236.93 65.51 M202.55 111.15 C210.52 95.28, 223.6 88.85, 237.32 71.15 M202.55 111.15 C213.89 97.44, 226.81 87.3, 237.32 71.15 M207.54 111.51 C220 100.01, 227.65 83.23, 237.06 77.55 M207.54 111.51 C218.31 98.62, 230.26 89.19, 237.06 77.55 M214.49 109.61 C216.48 104.92, 225.81 98.22, 236.14 84.7 M214.49 109.61 C219.42 101.94, 229.1 93.29, 236.14 84.7 M220.79 108.46 C224.51 102.72, 230.09 98.54, 234.57 92.61 M220.79 108.46 C227.09 100.78, 230.79 98.4, 234.57 92.61" stroke="#a5d8ff" stroke-width="0.5" fill="none"></path><path d="M27.75 0 M27.75 0 C95.74 2.52, 168.56 3.5, 207.25 0 M27.75 0 C98.94 -3.7, 172.28 -4.59, 207.25 0 M207.25 0 C229 -2.3, 238.8 7.58, 235 27.75 M207.25 0 C228.72 2.56, 231.93 9.4, 235 27.75 M235 27.75 C234 46.3, 235.61 68.41, 235 83.25 M235 27.75 C236.79 39.25, 234.68 49.73, 235 83.25 M235 83.25 C235.93 104.51, 225.63 109.11, 207.25 111 M235 83.25 C235.11 97.66, 223.95 112.93, 207.25 111 M207.25 111 C165.03 107.29, 127.85 107.89, 27.75 111 M207.25 111 C147.75 108.08, 92.77 109.26, 27.75 111 M27.75 111 C6.7 110.67, -2.7 98.32, 0 83.25 M27.75 111 C5.03 114.14, 3.01 103.07, 0 83.25 M0 83.25 C-0.27 70.24, -1.27 57.57, 0 27.75 M0 83.25 C-1.94 65.89, 1.67 45.9, 0 27.75 M0 27.75 C2.81 11.37, 5.77 -1.22, 27.75 0 M0 27.75 C-0.51 7.12, 8.52 -4.39, 27.75 0" stroke="#1e1e1e" stroke-width="1" fill="none"></path></g><g transform="translate(43.654029846191406 202.19992065429688) rotate(0 83.8459701538086 17.5)"><text x="83.8459701538086" y="0" font-family="Virgil, Segoe UI Emoji" font-size="28px" fill="#1e1e1e" text-anchor="middle" style="white-space: pre;" direction="ltr" dominant-baseline="text-before-edge">Storm Model</text></g><g stroke-linecap="round" transform="translate(353.2499694824219 68.699951171875) rotate(0 153.5999755859375 144)"><path d="M0 0 C0 0, 0 0, 0 0 M0 0 C0 0, 0 0, 0 0 M-1.37 6.71 C2.12 6.51, 2.49 2.99, 3.51 1.09 M-0.56 6.46 C0.99 5.04, 2.77 3.83, 5.14 0.63 M-2.72 10.71 C3.22 7.41, 2.92 7.92, 10.64 1.49 M0.06 10.86 C2.71 9.83, 3.62 7.55, 11.57 -1.15 M-3.02 17.82 C8.59 12.82, 6.2 6.68, 13.43 1.53 M0.58 17.4 C7.47 12.6, 13.5 5.66, 14.69 0.02 M3.35 20.88 C9.75 12.84, 14.69 5.15, 22.34 -1.45 M2.13 25.86 C6.91 15.52, 13.11 6.69, 22.86 -0.41 M-3.9 27.1 C4.8 24.76, 17.12 11.8, 30 3.83 M1.98 29.32 C8.3 20.85, 17.94 5.74, 25.6 0.39 M3.16 37.29 C13.96 26.85, 23.61 8.97, 29.81 -1.82 M-1.05 36.3 C12.36 23.67, 22.57 7.31, 33.08 0.2 M1.62 42.15 C6.23 31.48, 19.86 19.26, 38.34 0.7 M-1.36 44.5 C10.43 31.08, 18.67 22.86, 36.3 -0.66 M-0.62 46.95 C16.92 31.19, 34.29 14.64, 44.18 1.12 M0.63 48.93 C13.39 31.4, 29.78 14.69, 43.53 -1.54 M-0.6 52.58 C9.02 46.34, 18.35 28.07, 46.34 4.21 M2.26 56.41 C18.69 33.19, 36.8 11.54, 48.23 -1.64 M-1.98 59.95 C17.06 40.51, 37.57 22.8, 51.12 2.13 M-1.44 61.38 C14.36 44.53, 28.05 29.02, 53.49 1.76 M-2.78 67.14 C24.42 43.58, 39.46 20.78, 54.46 2.84 M-1.93 68.53 C12.44 49.96, 27.4 37.98, 60.01 1.19 M-1.73 70.01 C22.96 42.95, 45.65 18.38, 62.87 2.43 M2 72.78 C12.15 56.25, 26.98 41.59, 62.46 0.74 M-0.62 82.81 C23.47 52.72, 45.37 24.33, 67.73 -2.46 M1.51 77.4 C27.67 47.44, 55.69 17.04, 69.49 -0.1 M3.91 83.32 C16.88 69.7, 36.3 48.77, 74.23 -2.32 M-0.56 86.54 C25.99 57.91, 50.71 28.02, 76.15 -0.66 M-1.23 93.24 C25.51 65.08, 41.91 43.66, 75.71 -2.34 M0.27 91.07 C24.04 62.55, 49.99 33.48, 79.77 0.79 M2.61 99.27 C27.92 62.08, 67 23.01, 82.56 -2.05 M-0.09 97.12 C22.24 70.51, 41.58 44.79, 84.49 0.77 M-0.5 105.76 C23.12 69.79, 49.5 40.91, 88.57 1.03 M-1.09 104.14 C27.63 75.69, 55.25 45.32, 89.13 -1.52 M-3.42 111.38 C38.08 73.19, 71.54 25.7, 91.8 -0.22 M1.66 108.98 C26.64 79.13, 52.64 45.59, 95.65 1.53 M4.26 114.16 C38.32 71.99, 74.16 38.29, 101 -2.12 M0.2 116.46 C40.62 71.83, 77.87 31.6, 101.08 1.84 M2.63 123.93 C40.21 77.68, 79.15 26.19, 108.43 -1.87 M-1.85 123.15 C32.96 81.74, 66.6 43.49, 105.99 1.39 M1.63 127.4 C43.59 81.7, 79.7 33.82, 112.28 -1.11 M-1.51 127.95 C30.05 97.62, 59.19 64.13, 110.36 0.05 M2.77 136.83 C25.28 108.56, 46.1 80.88, 112.85 -0.84 M-1.24 132.15 C25.02 109.1, 47.48 83.09, 117.44 2.15 M-3.28 138.62 C35.64 95.47, 73.61 46.54, 122.24 -0.81 M0.31 141.52 C32.3 107.5, 58.89 77.14, 120.92 0.55 M3.58 142.46 C29.06 114.6, 53.12 81.56, 129.98 -2.81 M2.06 146.82 C53.63 86.25, 102.81 28.11, 126.14 -1.34 M2.9 149.95 C47.34 98.65, 91.92 42.87, 134.99 -1.5 M-1.4 153.53 C33.65 116.74, 67.49 77.59, 131.99 -0.84 M-0.41 161.96 C47.16 107.42, 90.83 55.1, 140.9 -0.62 M1.01 158.99 C33.19 118.86, 66.25 79.97, 136.58 1.18 M1.85 164.12 C37.05 118.98, 78.94 74.88, 140.71 -3.21 M0.47 165.23 C29.96 126.58, 58.81 90.18, 143.68 1.4 M3.18 168.68 C55.73 106.55, 111.53 40.87, 147.76 1.82 M0.36 172.36 C49.14 111.73, 99.41 54.92, 149.42 -0.88 M0.74 175.9 C37.72 130.32, 78.77 83.67, 154.78 -2.06 M-1.27 176.8 C48.54 125.16, 94.24 74.87, 152.32 -1.29 M-0.25 186.07 C34.34 135.74, 73.36 96.11, 156.73 -2.61 M1.2 182.17 C56.15 115.78, 114.99 48.11, 157.41 1.51 M-2.67 189.86 C53.25 122.21, 110.45 63.44, 165.08 -0.86 M1.27 190.28 C38.74 147.46, 76.29 105.03, 165.38 -1.45 M-2.94 195.56 C41.92 144.29, 92.02 86.17, 169.13 -2.36 M-0.29 195.15 C40.17 147.08, 77.59 102.59, 170.4 -0.54 M-0.09 200.27 C48.48 144.74, 95.59 88.92, 177.2 1.4 M1.31 201.56 C37.1 155.71, 75.23 114.18, 176.16 1.36 M-0.77 209.21 C42.15 155.93, 89.79 102.3, 178.75 2.17 M1.32 208.07 C66.02 132.61, 129.64 59.68, 180.07 -1.37 M0.56 212.18 C63.66 139.45, 129.5 65.93, 184.26 -0.15 M-1.12 213.15 C39.01 166.36, 79.57 122.47, 185.84 0.09 M-2.38 220.6 C58.59 154.13, 116.57 87.49, 188.12 -2.61 M-1.03 220.56 C67.37 138.16, 138.53 56.88, 191.32 0.43 M0.75 228.19 C62.69 157.56, 129.86 80.57, 195.43 -0.59 M0.68 226.06 C49.77 170.09, 99.6 114.24, 194.89 0.58 M1.43 231.02 C59.9 162.71, 124.04 92.43, 204.15 2.24 M-0.54 230.37 C45.97 182.62, 90.77 132.99, 201.37 1.19 M0.75 235.2 C63.43 161.85, 131.9 82.23, 207.69 -1 M-0.14 236.37 C69.42 155.54, 137.77 78.25, 207.43 1.04 M0.52 243.95 C54.48 180.97, 110.88 115.44, 212.3 -1.46 M-0.65 244.77 C57.29 178.5, 113.75 114.38, 210.71 0.04 M1.86 248.98 C75.62 164.22, 148.12 75.92, 216.08 0.7 M0.95 249.19 C63.5 176.41, 129.93 101.74, 218.24 0.08 M0.51 253.97 C44.52 202.22, 94.08 146.76, 220.56 -0.86 M1.07 256.14 C89.1 153.68, 174.66 52.48, 221.31 -0.23 M0.89 261.49 C71.37 178.65, 146.12 99.11, 227.23 1.32 M0.66 262.33 C85.38 161.18, 171.44 61.11, 228.92 0.65 M1.44 267.03 C69.54 190.51, 136.66 112.27, 232.31 -1.46 M-0.25 267.14 C64 194.36, 130.07 120.12, 232.37 -0.26 M0.02 271.94 C60.87 207.82, 116.52 143.33, 238.92 1.69 M-0.43 275.48 C62.32 204.77, 124.67 134.37, 237.16 1.17 M0.55 281.79 C63.89 211.99, 122.4 143.69, 244.54 -1.48 M0.03 281.01 C83.05 184.64, 163.7 91.4, 244.59 0.19 M0.77 285.34 C68.51 206.26, 135.26 127.65, 246.64 0.63 M0.1 286.11 C95.58 181.33, 190.88 71.59, 248.46 -0.51 M0.33 287.48 C86.53 192.45, 170.45 93.37, 256.25 -0.35 M1.54 289.52 C95.65 182.41, 192.57 72.66, 253.94 0.9 M8.52 292.13 C71.85 211.58, 140.39 131.34, 261.41 1.81 M6.98 290.32 C73.64 216.53, 138.28 143.81, 260.62 0.68 M11.24 289.7 C69.22 227.65, 127.77 164.92, 265.75 -0.77 M13.95 288.96 C96.67 193.67, 180.34 96.41, 265.12 0.13 M16.8 287.89 C121.26 178.79, 218.64 62.06, 271.04 -1.22 M17.66 290.42 C107.43 187.97, 198.58 82.21, 270.74 0.73 M22.09 289.45 C100.46 203.97, 168.79 121.23, 277.45 -1.52 M23.21 288.82 C114.26 185.74, 205.31 80.57, 275.63 0.4 M30.78 290.18 C107.73 199.4, 184.64 111.25, 280.48 2.04 M27.96 289.96 C87.59 219.21, 149.36 149.68, 280.13 0.63 M32.3 290.86 C116.95 196.34, 197.82 102.22, 285.46 0.02 M34.6 289.73 C113.22 202.89, 189.32 114.84, 286.74 0.28 M39.05 290.49 C137.02 176.16, 238.36 63.38, 290.22 -1.4 M38.31 289.51 C140.26 172.66, 241.22 57.5, 290.85 0.36 M45.71 289.55 C105.66 218.56, 167.86 150.74, 294.89 0.77 M43.94 289.66 C105.86 221.28, 165.89 148.57, 297.42 0.24 M50.74 288.87 C132 189.52, 219.01 86.5, 303.47 1.84 M49.27 289.19 C100.57 228.99, 150.53 170.96, 302.12 0.04 M56.6 291.01 C142.89 198.91, 223.21 101.98, 309.97 -0.88 M55.67 289.23 C151.49 184.74, 244.46 77.37, 308 -0.81 M59.85 291.6 C157.08 182.42, 250.13 71.02, 309.05 7.75 M60.31 289.89 C156.51 179.78, 251.14 70.23, 306.2 7.25 M67.18 288.98 C121.46 224.17, 175.86 157.87, 306.36 14.96 M65.91 290.34 C134.99 213.27, 205.33 133.9, 307.8 13.18 M71.49 289.65 C118.84 235.73, 165.38 178.16, 308.41 18.27 M71.09 289.68 C150.49 194.34, 230.94 104.01, 307.4 18.84 M78.16 288.64 C162.34 188.5, 253.31 86.39, 305.45 23.73 M75.58 289.43 C145.33 210.56, 214.84 128.89, 307.98 25.46 M80.06 289.92 C137.22 222.41, 196.68 158.8, 308.66 29.68 M82.63 289.82 C131.8 227, 183.29 167.89, 308.85 29.27 M85.43 290.98 C155.87 211.56, 227.77 132.4, 308.81 39.23 M86.61 289.25 C163.2 198.87, 242.39 111.11, 307.3 37.98 M91.78 288.49 C148.91 229.72, 200.48 165.35, 309.03 43.08 M93.52 288.52 C150.78 222.27, 211.75 155.44, 306.84 42.84 M98.63 289.01 C182.12 192.35, 258.91 103.54, 306.76 50.42 M97.89 290.4 C158.37 223.18, 216.82 155.19, 306.65 47.43 M101.47 288.2 C161.92 226.24, 216.28 159.83, 305.34 57.65 M103.7 290.35 C159.99 224.45, 216.64 159.07, 308.61 55.22 M106.08 292.38 C160.75 230.22, 215.18 167.47, 307.36 60.74 M109 289.4 C176.2 214.22, 245.71 134.23, 307.2 61.11 M110.91 291.21 C155.62 241.08, 201.53 185.75, 305.87 66.32 M113.26 291.13 C172.07 226.04, 226.85 160.86, 307.91 67.05 M115.79 291.47 C159.31 239.05, 207.57 187.29, 306.16 70.77 M118.86 291.51 C181.39 224.38, 239.93 155.53, 308.34 74.09 M127.22 289.55 C171.48 234.33, 217.45 181.76, 309.07 78.91 M124.03 290.12 C180.5 225.63, 235.76 164.76, 308.48 79.95 M131.26 288.04 C181.74 230.84, 229.23 169.31, 308.35 83.88 M130.33 288.92 C195.22 211.11, 263.26 134.04, 308.41 87.1 M135.13 291.91 C187.16 230.85, 238.41 172.38, 310.36 91.13 M135.11 289.09 C173.5 248.69, 210.83 204.46, 307.59 89.63 M140.65 287.75 C177.27 250.67, 216.86 202.27, 310.05 95.38 M139.57 289.09 C180.94 244.55, 220.33 196.61, 308.42 98.05 M148.89 290.52 C179.49 245.11, 219.23 203.6, 304.3 105.73 M147.28 291.1 C190.94 237.22, 235.84 186.51, 305.8 103.74 M151.01 290.71 C206.23 226.98, 255.12 164.88, 309.74 111.14 M149.91 289.09 C186.45 250.89, 219.65 212.56, 307.11 109.76 M159.08 289.53 C202.77 241.32, 246.58 190.86, 304.31 113.67 M154.13 289.61 C183.23 258.81, 215.36 221.37, 308.51 115.22 M160.53 287.05 C213.67 230.3, 270.64 167.7, 304.45 119.2 M161.03 289.26 C211.32 232.94, 260.93 177.46, 308.41 123.13 M162.85 293.46 C223.04 224.33, 282.28 159.62, 309.89 128.59 M166.46 289.96 C200.75 252.18, 235.26 211.82, 306.75 127.56 M174.76 287.36 C214.99 240.56, 259.15 190.17, 306.73 133.87 M173.61 288.45 C202.78 257.29, 231.5 221.46, 305.64 135.71 M179.01 286.37 C220.66 241.25, 265.14 190.23, 311.24 140.17 M176.42 289.07 C219.53 237.66, 267.01 184.16, 308.59 140.52 M182.08 293.27 C221.51 247.33, 251.15 209.04, 309.63 149.44 M184.19 289.26 C215.52 250.6, 245.67 217.46, 306.27 147.25 M190.36 290.55 C226.31 251.83, 253.67 211.23, 311.46 152 M189.43 291.81 C218.12 257.47, 245.2 225.66, 309.04 152.06 M192.79 290.77 C239.08 241.49, 283.61 191.09, 304.63 159.44 M193.24 289.39 C236.31 234.4, 281.06 185.73, 305.69 159.07 M195.62 288.66 C223.81 260.82, 253.74 222.91, 303.54 165.59 M199.51 290.29 C220.35 261.13, 247.5 232.04, 309.08 165.02 M207.25 293.47 C244.55 246.2, 282.84 199.86, 306.73 167.21 M205.32 290.18 C239.97 250.68, 271.32 213.8, 309.31 169.37 M208.6 289.35 C232.78 260.52, 260.13 228.22, 306.6 180.56 M206.89 289.95 C238.14 255.71, 266.53 222.54, 308.98 178.35 M218.04 291.74 C250.67 246.36, 279.8 210.11, 308.89 183.34 M214.01 291.47 C247.02 250.56, 279.18 212.7, 306.28 184.25 M221.67 291.72 C240.14 264.01, 270.44 230.57, 310.4 187.22 M219.99 291.49 C241.77 266.53, 256.99 244.39, 306.24 189.53 M222.3 288.39 C243.81 271, 267 247.44, 304.6 194.59 M224.1 289.35 C245.9 263.74, 268.28 234.85, 305.94 196.83 M233.75 289.28 C247.36 275.95, 258.66 258.14, 305.89 199.56 M229.48 288.9 C258.63 259.85, 284.11 228.37, 308.26 201.56 M233.76 286.67 C255.96 262.24, 281.1 229.92, 303.93 204.44 M237.61 290.22 C262.61 262.85, 285.69 232.21, 307.88 205.74 M238.34 290 C252.34 270.02, 272.04 257.44, 303.93 212.78 M242.22 291.48 C261.48 266.74, 283.07 243.23, 308.99 214.51 M246.67 286.25 C268.76 269.49, 289.8 243.29, 308.2 218.03 M247.76 288.73 C263.98 268.79, 281.34 248.85, 306.57 218.19 M251.47 288.29 C268.11 277.07, 279.51 258.93, 309.92 228.22 M251.31 289.77 C265.54 270.36, 280.8 253.22, 305.56 224.42 M255.87 287.26 C271.82 270.12, 292.98 246.64, 305.27 230.96 M257.01 289.85 C268.41 277.08, 281.54 261.83, 308.69 232.62 M259.77 292.97 C275.84 273.85, 290.86 259.47, 307.85 237.95 M262.05 289.6 C279.22 272.03, 291.76 252.68, 308.37 237.91 M268.75 286.25 C277.95 280.8, 290.93 263.09, 304.9 242.01 M267.03 290.78 C280.49 276.26, 289.59 259.99, 306.5 245.55 M272.42 291.34 C286.64 274.94, 298.89 261.39, 306.93 249.73 M273.97 290.11 C282.37 278.03, 292.74 267.47, 305.68 251.11 M276.63 288.98 C286.97 275.95, 297.73 268.82, 305.4 254.13 M276.05 291.81 C287.12 276.74, 300.56 265.73, 306.42 254.48 M285.15 293.09 C292.72 278.41, 297.2 272.37, 304.92 259.73 M282.82 289.69 C291.96 279.97, 301.76 269.84, 308.96 260.44 M285.32 287.37 C292.01 287.37, 296.34 277.17, 309.66 266.97 M287.48 291.21 C295.91 283.47, 305.04 272.27, 307.15 268.48 M292.26 286.39 C296.36 282.66, 299.16 279.74, 307.51 273.32 M294.58 288.02 C296.3 287.34, 300.56 280.61, 306.27 273.35 M299.12 291.42 C299.66 286.68, 301 284.72, 307.66 278.78 M299.61 291.28 C301.26 285.94, 305.83 282.76, 307.94 279.6 M304.94 289.87 C306.13 289.67, 306.11 287.36, 307.89 287.5 M304.29 289.52 C305.21 289.31, 306.13 288.22, 307.08 286.96" stroke="#38d9a9" stroke-width="0.5" fill="none"></path><path d="M-1.33 -0.22 C88.91 -2.32, 176.03 -2.21, 309.21 1.96 M0.23 -0.32 C62.37 -0.93, 125.1 -2.6, 306.91 0.88 M308.97 2.27 C311.19 87.42, 310.82 173.77, 307.24 290.75 M306.4 1.12 C311.08 79.78, 310.99 162.86, 306.52 287.57 M309.11 290.57 C241.09 284.01, 169.7 286.4, -1.75 285.26 M306.42 286.76 C191.78 292.81, 76.36 292.57, 0.49 288.91 M2.78 285.04 C-2.57 175.23, -0.92 68.5, -2.67 -1.33 M0.25 289.16 C-1.8 178.1, -1.45 65.93, -1.27 0.11" stroke="#1e1e1e" stroke-width="1" fill="none"></path></g><g transform="translate(391.2099914550781 177.699951171875) rotate(0 115.63995361328125 35)"><text x="115.63995361328125" y="0" font-family="Virgil, Segoe UI Emoji" font-size="28px" fill="#1e1e1e" text-anchor="middle" style="white-space: pre;" direction="ltr" dominant-baseline="text-before-edge">Storm-Generate </text><text x="115.63995361328125" y="35" font-family="Virgil, Segoe UI Emoji" font-size="28px" fill="#1e1e1e" text-anchor="middle" style="white-space: pre;" direction="ltr" dominant-baseline="text-before-edge">Executor</text></g><g stroke-linecap="round"><g transform="translate(246 221.11962324809758) rotate(0 54.51661260289603 0.844922047944209)"><path d="M0.41 -0.56 C18.52 -0.09, 91.74 2.05, 109.87 2.25 M-0.84 1.76 C17.02 1.96, 90.78 0.71, 108.94 0.69" stroke="#1e1e1e" stroke-width="1" fill="none"></path></g><g transform="translate(246 221.11962324809758) rotate(0 54.51661260289603 0.844922047944209)"><path d="M79.91 11.26 C93.83 5.85, 102.28 1.47, 109.61 2.26 M81.43 10.34 C86.89 8.83, 92.82 7.76, 108.85 0.24" stroke="#1e1e1e" stroke-width="1" fill="none"></path></g><g transform="translate(246 221.11962324809758) rotate(0 54.51661260289603 0.844922047944209)"><path d="M79.71 -9.26 C93.62 -6.53, 102.14 -2.76, 109.61 2.26 M81.23 -10.18 C86.78 -7.51, 92.75 -4.39, 108.85 0.24" stroke="#1e1e1e" stroke-width="1" fill="none"></path></g></g><mask></mask><g stroke-linecap="round" transform="translate(788.3499755859375 10) rotate(0 117.5 55.5)"><path d="M6.73 7.18 C6.73 7.18, 6.73 7.18, 6.73 7.18 M6.73 7.18 C6.73 7.18, 6.73 7.18, 6.73 7.18 M1.22 19.61 C2 17.48, 13.25 13.17, 16.31 2.25 M1.22 19.61 C4.63 12.27, 11.87 10.78, 16.31 2.25 M2.93 23.74 C10.26 18.36, 17.33 9, 22.61 1.1 M2.93 23.74 C9.55 15.35, 17.65 6.31, 22.61 1.1 M3.32 29.39 C13.05 19.05, 13.74 19.16, 28.25 0.71 M3.32 29.39 C12.95 19.43, 21.04 10.19, 28.25 0.71 M3.06 35.79 C13.04 24.06, 20.93 14.61, 33.9 0.31 M3.06 35.79 C11.5 22.88, 22.94 12.35, 33.9 0.31 M2.8 42.18 C20.28 24.81, 32.08 13.26, 38.88 0.67 M2.8 42.18 C10.99 29.32, 23.79 20.53, 38.88 0.67 M3.19 47.83 C16.16 37.63, 20.11 21.52, 44.53 0.28 M3.19 47.83 C19.87 30.6, 32.59 14.99, 44.53 0.28 M2.93 54.22 C17.69 38.19, 27.9 23.76, 49.51 0.64 M2.93 54.22 C20.97 34.53, 35.79 17.58, 49.51 0.64 M3.33 59.87 C22.13 39.57, 33.7 21.78, 55.16 0.25 M3.33 59.87 C20.92 42.66, 34.9 22.62, 55.16 0.25 M3.07 66.27 C21.32 50.06, 39.97 21.86, 60.14 0.61 M3.07 66.27 C21.39 45.29, 37.56 29, 60.14 0.61 M2.8 72.66 C21.06 55.16, 31.08 35.52, 65.79 0.21 M2.8 72.66 C28.55 43.76, 51.09 17.4, 65.79 0.21 M3.2 78.31 C20 58.53, 42.02 34.17, 70.77 0.57 M3.2 78.31 C27.47 47.07, 53.13 18.67, 70.77 0.57 M2.94 84.7 C23.02 55.87, 41.24 34.15, 75.76 0.93 M2.94 84.7 C29.73 57.08, 55.68 25.93, 75.76 0.93 M2.68 91.1 C23.56 66.57, 48.42 29.92, 81.4 0.54 M2.68 91.1 C21.82 66.86, 46.41 41.99, 81.4 0.54 M3.73 95.99 C29.96 60.17, 58.81 32.15, 86.39 0.9 M3.73 95.99 C35.76 60.26, 69.74 20.79, 86.39 0.9 M4.78 100.88 C22.85 77.64, 49.93 52.02, 92.03 0.5 M4.78 100.88 C32.61 70.56, 57.37 42.92, 92.03 0.5 M7.8 103.5 C27.86 82.75, 54.37 51.04, 97.02 0.86 M7.8 103.5 C32.82 75.03, 62.37 40.73, 97.02 0.86 M10.16 106.88 C38.84 77.35, 68.29 46.83, 102.66 0.47 M10.16 106.88 C39.9 73.35, 70.42 35.38, 102.66 0.47 M13.18 109.51 C42.79 75.38, 64.32 48.53, 107.65 0.83 M13.18 109.51 C47.48 72.98, 81.39 30.19, 107.65 0.83 M17.51 110.62 C38.18 82.54, 71.17 52.77, 113.29 0.43 M17.51 110.62 C40.58 86.23, 61.09 59.55, 113.29 0.43 M22.5 110.98 C44.91 83.55, 69.28 59.36, 118.28 0.79 M22.5 110.98 C59.92 66.06, 97.1 23.39, 118.28 0.79 M27.48 111.34 C56.88 77, 90.84 44.23, 123.92 0.4 M27.48 111.34 C62.24 70.67, 100.21 30.59, 123.92 0.4 M33.13 110.95 C54.83 86.18, 70.37 68.86, 128.91 0.76 M33.13 110.95 C51.18 88.92, 75 66.41, 128.91 0.76 M38.11 111.31 C74.04 70.82, 101.48 33.87, 134.55 0.36 M38.11 111.31 C59.27 88.44, 79.47 61.45, 134.55 0.36 M43.76 110.91 C72.21 70.18, 109.39 32.21, 139.54 0.72 M43.76 110.91 C66.71 85.4, 87.26 60.56, 139.54 0.72 M48.74 111.27 C80.72 69.65, 115.38 34.58, 145.18 0.33 M48.74 111.27 C67.82 83.66, 92.14 58.91, 145.18 0.33 M54.39 110.88 C81.04 71.74, 113.95 43.02, 150.17 0.69 M54.39 110.88 C81.07 80.93, 103.67 52.43, 150.17 0.69 M59.37 111.24 C88.75 76.55, 126.41 40.07, 155.81 0.29 M59.37 111.24 C95.64 66.43, 133.98 22.84, 155.81 0.29 M65.02 110.84 C88.68 76.75, 119.09 46.28, 160.8 0.66 M65.02 110.84 C88.76 83.29, 109.97 56.97, 160.8 0.66 M70 111.2 C104.28 71.68, 141.32 33.23, 166.44 0.26 M70 111.2 C102.57 70.89, 141.53 29.02, 166.44 0.26 M75.65 110.81 C101.04 89.17, 122.54 57.74, 171.43 0.62 M75.65 110.81 C110.41 70.97, 147.62 30.88, 171.43 0.62 M80.63 111.17 C111.33 75.18, 134.38 42.35, 177.07 0.23 M80.63 111.17 C105.56 81.43, 128.69 53.62, 177.07 0.23 M86.28 110.77 C120.7 75.11, 148.45 33.01, 182.06 0.59 M86.28 110.77 C120.72 71.12, 158.73 31.61, 182.06 0.59 M91.26 111.13 C122.64 78.06, 154.49 48.56, 187.7 0.19 M91.26 111.13 C131.08 67.65, 165.43 23.34, 187.7 0.19 M96.91 110.74 C129.59 72.44, 169.34 26.19, 192.69 0.55 M96.91 110.74 C116.11 85.44, 136.69 62.2, 192.69 0.55 M101.89 111.1 C136.62 71.89, 169.62 39.15, 197.68 0.91 M101.89 111.1 C130.33 74.6, 162.75 39.85, 197.68 0.91 M107.54 110.7 C131.14 81.18, 160.96 47.24, 203.32 0.52 M107.54 110.7 C143.65 73.41, 175.91 33.38, 203.32 0.52 M112.52 111.06 C135.41 86.06, 155.53 64.72, 208.31 0.88 M112.52 111.06 C136.98 79.54, 163.95 49.2, 208.31 0.88 M118.17 110.67 C140.46 83.69, 168.88 57.49, 212.64 1.99 M118.17 110.67 C156.27 67.05, 194.78 24.28, 212.64 1.99 M123.15 111.03 C158.09 67.61, 194.02 28.14, 216.97 3.11 M123.15 111.03 C149.37 81.93, 174.06 53.82, 216.97 3.11 M128.14 111.39 C162.39 78.52, 191.48 41.63, 221.3 4.22 M128.14 111.39 C161.64 75.12, 193.91 35.36, 221.3 4.22 M133.78 111 C159.87 76.54, 191.62 49.45, 225.63 5.34 M133.78 111 C172.97 68.06, 209.32 25.54, 225.63 5.34 M138.77 111.36 C162.45 78.32, 196.39 41.68, 228.65 7.96 M138.77 111.36 C170.33 74.99, 201.81 42.45, 228.65 7.96 M144.41 110.96 C174.76 74.05, 200.63 39.95, 231.01 11.34 M144.41 110.96 C177.63 74.56, 205.58 41.29, 231.01 11.34 M149.4 111.32 C169.53 85.25, 192.09 60.2, 232.72 15.47 M149.4 111.32 C167.28 90.64, 185.04 67.77, 232.72 15.47 M155.04 110.93 C173.17 87.34, 198.77 66.71, 234.43 19.61 M155.04 110.93 C179.35 84.55, 199.13 59.08, 234.43 19.61 M160.03 111.29 C180.84 82.46, 201.28 57, 236.79 22.99 M160.03 111.29 C179.24 88.17, 197.89 67.89, 236.79 22.99 M165.67 110.89 C185.39 89.68, 195.2 70.22, 236.53 29.38 M165.67 110.89 C191.77 81.11, 217.65 47.96, 236.53 29.38 M170.66 111.25 C190.55 92.82, 205.65 74.41, 236.92 35.03 M170.66 111.25 C186.39 92.71, 201.17 75.64, 236.92 35.03 M176.3 110.86 C197.64 90.04, 215.72 64.03, 236.66 41.42 M176.3 110.86 C189.2 91.21, 206.54 73.43, 236.66 41.42 M181.29 111.22 C197.25 91.47, 213.45 72.69, 237.06 47.07 M181.29 111.22 C193.25 94.79, 208.77 81.22, 237.06 47.07 M186.93 110.82 C194.96 93.92, 207.72 82.87, 236.79 53.47 M186.93 110.82 C203.01 87.7, 221.93 69.09, 236.79 53.47 M191.92 111.18 C205.4 100.41, 217.14 84.11, 237.19 59.11 M191.92 111.18 C203.38 96.91, 214.83 86.51, 237.19 59.11 M197.56 110.79 C208.65 95.2, 215.84 84.74, 236.93 65.51 M197.56 110.79 C211.62 92.99, 227.3 76.76, 236.93 65.51 M202.55 111.15 C217.97 97.61, 229.28 79.26, 237.32 71.15 M202.55 111.15 C209.52 100.53, 219.56 91.08, 237.32 71.15 M207.54 111.51 C216.02 96.16, 230.55 88.14, 237.06 77.55 M207.54 111.51 C214.2 100.34, 223.39 93.97, 237.06 77.55 M214.49 109.61 C222.84 103.35, 224.32 98.93, 236.14 84.7 M214.49 109.61 C221.34 104.38, 224.02 96.43, 236.14 84.7 M220.79 108.46 C224.9 100.51, 232.72 97.43, 234.57 92.61 M220.79 108.46 C227.24 102.36, 229.96 98.31, 234.57 92.61" stroke="#7950f2" stroke-width="0.5" fill="none"></path><path d="M27.75 0 M27.75 0 C71.29 0.39, 109.81 4.29, 207.25 0 M27.75 0 C71.05 -2.84, 110.6 -3.25, 207.25 0 M207.25 0 C225.56 0.03, 231.04 10.87, 235 27.75 M207.25 0 C224.43 3.08, 235.79 7.48, 235 27.75 M235 27.75 C235.14 41.57, 235.36 55.6, 235 83.25 M235 27.75 C235.2 40.29, 234.49 56.6, 235 83.25 M235 83.25 C236.15 102.12, 226.57 111.12, 207.25 111 M235 83.25 C233.1 97.2, 222.44 112.29, 207.25 111 M207.25 111 C152.99 107.27, 100.45 113.44, 27.75 111 M207.25 111 C142.72 108.32, 76.19 109.43, 27.75 111 M27.75 111 C8.58 112.7, 0.8 102.58, 0 83.25 M27.75 111 C6.05 107.06, 0.91 106.12, 0 83.25 M0 83.25 C-4.26 70.46, -1.23 58.26, 0 27.75 M0 83.25 C1.96 66.55, -0.06 50.88, 0 27.75 M0 27.75 C1.57 5.34, 11.55 -0.1, 27.75 0 M0 27.75 C-2.87 11.43, 11.68 -1.24, 27.75 0" stroke="#1e1e1e" stroke-width="1" fill="none"></path></g><g transform="translate(816.922004699707 48) rotate(0 88.92797088623047 17.5)"><text x="88.92797088623047" y="0" font-family="Virgil, Segoe UI Emoji" font-size="28px" fill="#1e1e1e" text-anchor="middle" style="white-space: pre;" direction="ltr" dominant-baseline="text-before-edge">Prisma Model</text></g><g stroke-linecap="round" transform="translate(785.1499938964844 156.19996643066406) rotate(0 117.5 55.5)"><path d="M6.73 7.18 C6.73 7.18, 6.73 7.18, 6.73 7.18 M6.73 7.18 C6.73 7.18, 6.73 7.18, 6.73 7.18 M1.22 19.61 C1.99 14.58, 11.81 9.28, 16.31 2.25 M1.22 19.61 C3.8 16.16, 11.47 11.65, 16.31 2.25 M2.93 23.74 C6.54 12.84, 17.86 13.49, 22.61 1.1 M2.93 23.74 C10.5 16.87, 17.81 7.84, 22.61 1.1 M3.32 29.39 C11.94 18.39, 23.32 5.86, 28.25 0.71 M3.32 29.39 C11.32 20.82, 14.63 17.47, 28.25 0.71 M3.06 35.79 C16.15 23.34, 25.9 12.27, 33.9 0.31 M3.06 35.79 C12.49 25.14, 20.58 15.64, 33.9 0.31 M2.8 42.18 C12.14 25.83, 26.97 14.04, 38.88 0.67 M2.8 42.18 C18.56 25.45, 31.44 11.64, 38.88 0.67 M3.19 47.83 C11.13 31.61, 28.21 23.84, 44.53 0.28 M3.19 47.83 C14.35 36.9, 21.09 23.37, 44.53 0.28 M2.93 54.22 C23.24 34.16, 36.21 17.28, 49.51 0.64 M2.93 54.22 C17.31 37.5, 29.81 21.78, 49.51 0.64 M3.33 59.87 C24.06 36.81, 39.18 19.61, 55.16 0.25 M3.33 59.87 C20.23 41.1, 33.8 23.25, 55.16 0.25 M3.07 66.27 C23.59 48.37, 36.59 25.51, 60.14 0.61 M3.07 66.27 C21.63 48.15, 40.02 23.62, 60.14 0.61 M2.8 72.66 C24.15 47.9, 41.82 32.18, 65.79 0.21 M2.8 72.66 C19.18 54.64, 32.01 35.83, 65.79 0.21 M3.2 78.31 C32.24 45.82, 55.66 18.02, 70.77 0.57 M3.2 78.31 C20.69 57.97, 40.62 35.53, 70.77 0.57 M2.94 84.7 C28.23 50.51, 55.05 21.91, 75.76 0.93 M2.94 84.7 C23.51 57.82, 42.93 35.1, 75.76 0.93 M2.68 91.1 C33.36 62.86, 61.13 28.33, 81.4 0.54 M2.68 91.1 C24.94 64.67, 50.08 31.72, 81.4 0.54 M3.73 95.99 C22.1 71.35, 51.27 44.62, 86.39 0.9 M3.73 95.99 C30.64 61.21, 59.67 30.4, 86.39 0.9 M4.78 100.88 C38.04 63.96, 75.43 20.18, 92.03 0.5 M4.78 100.88 C24.1 76.61, 48.52 51.28, 92.03 0.5 M7.8 103.5 C37.58 71.2, 62.29 44.46, 97.02 0.86 M7.8 103.5 C29.35 80.77, 53.57 52.31, 97.02 0.86 M10.16 106.88 C35.22 79.19, 68.45 40.37, 102.66 0.47 M10.16 106.88 C38.33 76.57, 66.36 46, 102.66 0.47 M13.18 109.51 C43.69 75.99, 74.74 34.58, 107.65 0.83 M13.18 109.51 C41.78 76.78, 66.07 47.79, 107.65 0.83 M17.51 110.62 C51.86 75.51, 85.9 28.81, 113.29 0.43 M17.51 110.62 C39.72 80.73, 69.18 50.93, 113.29 0.43 M22.5 110.98 C46.47 87.31, 64.21 60.75, 118.28 0.79 M22.5 110.98 C45.42 84.47, 69.14 59.09, 118.28 0.79 M27.48 111.34 C64.51 64.82, 102.17 21.71, 123.92 0.4 M27.48 111.34 C58.03 76.51, 90.5 42.3, 123.92 0.4 M33.13 110.95 C66.38 70.44, 106.8 31.14, 128.91 0.76 M33.13 110.95 C53.51 87.67, 71.5 67.25, 128.91 0.76 M38.11 111.31 C54.97 89.71, 82.08 68.32, 134.55 0.36 M38.11 111.31 C72.36 71.76, 102.97 33.85, 134.55 0.36 M43.76 110.91 C64.31 89.53, 82.87 60.68, 139.54 0.72 M43.76 110.91 C73.61 71.5, 108.85 33.36, 139.54 0.72 M48.74 111.27 C73.44 86.36, 92.3 62.27, 145.18 0.33 M48.74 111.27 C82.08 70.17, 116.69 32.75, 145.18 0.33 M54.39 110.88 C71.32 83.22, 97.39 59.7, 150.17 0.69 M54.39 110.88 C82.9 73.5, 114.95 41.2, 150.17 0.69 M59.37 111.24 C88.16 80.23, 108.9 51.35, 155.81 0.29 M59.37 111.24 C89.59 75.05, 124.57 38.23, 155.81 0.29 M65.02 110.84 C100.62 66.05, 139.79 22.02, 160.8 0.66 M65.02 110.84 C89.22 78.16, 117.3 48.12, 160.8 0.66 M70 111.2 C95.18 83.71, 114.9 57.19, 166.44 0.26 M70 111.2 C103.91 71.01, 139.71 31.89, 166.44 0.26 M75.65 110.81 C106.5 72.15, 148.55 29.66, 171.43 0.62 M75.65 110.81 C100.23 87.28, 122.38 58.46, 171.43 0.62 M80.63 111.17 C114.68 70.51, 154.14 30.54, 177.07 0.23 M80.63 111.17 C110.19 76.87, 136.02 43.99, 177.07 0.23 M86.28 110.77 C110.88 79.88, 132.69 52.37, 182.06 0.59 M86.28 110.77 C119.53 74, 149.35 34.61, 182.06 0.59 M91.26 111.13 C124.3 71.96, 165.25 33.28, 187.7 0.19 M91.26 111.13 C122.6 78.54, 153.29 46.8, 187.7 0.19 M96.91 110.74 C137.81 68.75, 168.79 23.51, 192.69 0.55 M96.91 110.74 C131.37 70.45, 170.02 25.73, 192.69 0.55 M101.89 111.1 C121.27 84.72, 142.98 60.59, 197.68 0.91 M101.89 111.1 C135.24 72.71, 167.68 38, 197.68 0.91 M107.54 110.7 C135.61 74.57, 169.7 40.46, 203.32 0.52 M107.54 110.7 C132.78 80.11, 161.72 47, 203.32 0.52 M112.52 111.06 C149.87 75.17, 179.2 35.59, 208.31 0.88 M112.52 111.06 C134.26 86.09, 154.44 63.79, 208.31 0.88 M118.17 110.67 C142.36 78.8, 169.39 49.09, 212.64 1.99 M118.17 110.67 C141.72 84.06, 167.89 57.2, 212.64 1.99 M123.15 111.03 C161.03 66.09, 200.5 23.73, 216.97 3.11 M123.15 111.03 C156.98 69.3, 192.09 29.85, 216.97 3.11 M128.14 111.39 C152.95 81.09, 176.87 54.16, 221.3 4.22 M128.14 111.39 C161.22 76.74, 191.04 40.72, 221.3 4.22 M133.78 111 C165.67 76.05, 196.81 34.96, 225.63 5.34 M133.78 111 C161.18 78.1, 191.19 48.28, 225.63 5.34 M138.77 111.36 C177.86 68.32, 213.26 26.19, 228.65 7.96 M138.77 111.36 C164.22 77.95, 195.23 43.48, 228.65 7.96 M144.41 110.96 C176.7 74.12, 207.18 46.41, 231.01 11.34 M144.41 110.96 C173.69 75.67, 201.4 41.63, 231.01 11.34 M149.4 111.32 C183.02 74.89, 207.79 44.16, 232.72 15.47 M149.4 111.32 C170.34 86.19, 191.64 62.14, 232.72 15.47 M155.04 110.93 C172.82 92.37, 189.09 68.77, 234.43 19.61 M155.04 110.93 C174.02 87.44, 196.98 65.43, 234.43 19.61 M160.03 111.29 C185.5 85.24, 201.52 61.4, 236.79 22.99 M160.03 111.29 C180.77 84.18, 201.95 58.85, 236.79 22.99 M165.67 110.89 C184.7 87.82, 201.67 70.63, 236.53 29.38 M165.67 110.89 C183.85 91.09, 197 71.89, 236.53 29.38 M170.66 111.25 C196.03 84.67, 219.35 51.07, 236.92 35.03 M170.66 111.25 C188.98 91.58, 205.12 72.5, 236.92 35.03 M176.3 110.86 C191.39 93.86, 203.83 79.4, 236.66 41.42 M176.3 110.86 C197.09 88.26, 216.39 63.46, 236.66 41.42 M181.29 111.22 C191.77 92.16, 209.68 75.91, 237.06 47.07 M181.29 111.22 C198.12 91.55, 214.95 72.11, 237.06 47.07 M186.93 110.82 C195.85 94.08, 211.92 84.17, 236.79 53.47 M186.93 110.82 C196.73 95.3, 209.01 83, 236.79 53.47 M191.92 111.18 C204.34 88.56, 222.56 73.92, 237.19 59.11 M191.92 111.18 C204.49 99.3, 215.74 84.96, 237.19 59.11 M197.56 110.79 C208.96 96.49, 219.22 90.21, 236.93 65.51 M197.56 110.79 C208.29 97.19, 217.19 85.86, 236.93 65.51 M202.55 111.15 C213.36 95.48, 227.23 83.15, 237.32 71.15 M202.55 111.15 C216.19 97.25, 228.13 80.85, 237.32 71.15 M207.54 111.51 C211.24 102.95, 220.52 96.48, 237.06 77.55 M207.54 111.51 C217.61 97.49, 230.41 87.11, 237.06 77.55 M214.49 109.61 C217.76 99.32, 225.98 98.28, 236.14 84.7 M214.49 109.61 C221.5 103.34, 224.98 97.97, 236.14 84.7 M220.79 108.46 C226.99 106.51, 224.45 99.7, 234.57 92.61 M220.79 108.46 C225.31 101.46, 231.84 96.92, 234.57 92.61" stroke="#7950f2" stroke-width="0.5" fill="none"></path><path d="M27.75 0 M27.75 0 C97.34 0.67, 158.84 4.28, 207.25 0 M27.75 0 C69.39 1.23, 108.52 3.18, 207.25 0 M207.25 0 C223.08 0.13, 237.64 12.11, 235 27.75 M207.25 0 C224.67 -2.06, 232.98 9.04, 235 27.75 M235 27.75 C232.76 47.12, 234.59 59.58, 235 83.25 M235 27.75 C235.2 42.51, 235.31 57.38, 235 83.25 M235 83.25 C233.44 103.43, 222.72 110.47, 207.25 111 M235 83.25 C230.54 99.51, 225.48 112.32, 207.25 111 M207.25 111 C150.09 107.15, 93.36 112.23, 27.75 111 M207.25 111 C154.34 108.99, 102.28 112.07, 27.75 111 M27.75 111 C11.87 112.15, -2.13 103.91, 0 83.25 M27.75 111 C7.5 111.38, 0.79 100.98, 0 83.25 M0 83.25 C-3.01 60.82, 0.57 49.03, 0 27.75 M0 83.25 C-2.52 71.07, -1 59.19, 0 27.75 M0 27.75 C-0.63 5.43, 10.64 1.8, 27.75 0 M0 27.75 C-2.13 6.68, 7.36 1.8, 27.75 0" stroke="#1e1e1e" stroke-width="1" fill="none"></path></g><g transform="translate(820.4560241699219 194.19996643066406) rotate(0 82.1939697265625 17.5)"><text x="82.1939697265625" y="0" font-family="Virgil, Segoe UI Emoji" font-size="28px" fill="#1e1e1e" text-anchor="middle" style="white-space: pre;" direction="ltr" dominant-baseline="text-before-edge">Zod Schema</text></g><g stroke-linecap="round" transform="translate(785.1499938964844 301.3999328613281) rotate(0 117.5 55.5)"><path d="M6.73 7.18 C6.73 7.18, 6.73 7.18, 6.73 7.18 M6.73 7.18 C6.73 7.18, 6.73 7.18, 6.73 7.18 M1.22 19.61 C3 17.91, 8.82 7.37, 16.31 2.25 M1.22 19.61 C4.59 13.33, 9.79 8.22, 16.31 2.25 M2.93 23.74 C9.71 13.94, 20.23 4.45, 22.61 1.1 M2.93 23.74 C8.31 17.66, 8.95 13.86, 22.61 1.1 M3.32 29.39 C14.17 20.89, 25.56 8.26, 28.25 0.71 M3.32 29.39 C8.42 20.84, 16.38 15.81, 28.25 0.71 M3.06 35.79 C11.43 30.3, 17.06 23.37, 33.9 0.31 M3.06 35.79 C11 23.67, 20.76 15.55, 33.9 0.31 M2.8 42.18 C12.13 35.79, 21.96 20.81, 38.88 0.67 M2.8 42.18 C12.19 32.98, 18.65 25.57, 38.88 0.67 M3.19 47.83 C13.03 34.87, 23.21 18.28, 44.53 0.28 M3.19 47.83 C10.09 37.66, 21.97 28.93, 44.53 0.28 M2.93 54.22 C20.95 34.37, 34.89 22.54, 49.51 0.64 M2.93 54.22 C15.41 41.63, 28.1 26.47, 49.51 0.64 M3.33 59.87 C23.82 35.35, 37.44 20.47, 55.16 0.25 M3.33 59.87 C16.04 46.45, 26.96 33.33, 55.16 0.25 M3.07 66.27 C16.73 53.61, 25.58 40.34, 60.14 0.61 M3.07 66.27 C24.8 41.41, 43.47 18.69, 60.14 0.61 M2.8 72.66 C27.21 42.92, 53.87 18.96, 65.79 0.21 M2.8 72.66 C14.19 58.6, 29.32 43.74, 65.79 0.21 M3.2 78.31 C28.82 50.89, 49.29 30.87, 70.77 0.57 M3.2 78.31 C16.8 61.49, 32.92 44.14, 70.77 0.57 M2.94 84.7 C29.37 61.8, 49.71 28.92, 75.76 0.93 M2.94 84.7 C23.87 60.34, 45.58 37.68, 75.76 0.93 M2.68 91.1 C22.56 76.76, 33.79 58.96, 81.4 0.54 M2.68 91.1 C32.31 57.23, 61.27 18.7, 81.4 0.54 M3.73 95.99 C36.67 60.09, 72.85 18.66, 86.39 0.9 M3.73 95.99 C31.49 64.93, 58.92 29.98, 86.39 0.9 M4.78 100.88 C30.94 73.92, 47.34 48.4, 92.03 0.5 M4.78 100.88 C32.59 68.94, 63.76 32.14, 92.03 0.5 M7.8 103.5 C37.35 64.56, 68.6 33.38, 97.02 0.86 M7.8 103.5 C26.78 78.24, 48.13 53.9, 97.02 0.86 M10.16 106.88 C46.26 67.38, 81.98 21.29, 102.66 0.47 M10.16 106.88 C44.59 65.22, 81.93 24.65, 102.66 0.47 M13.18 109.51 C44.39 73.86, 73.07 35.27, 107.65 0.83 M13.18 109.51 C44.79 74.15, 77.17 38.95, 107.65 0.83 M17.51 110.62 C43.97 83.71, 61.5 58.38, 113.29 0.43 M17.51 110.62 C55.87 70.17, 96.46 22.82, 113.29 0.43 M22.5 110.98 C55.41 68.26, 91.55 25.04, 118.28 0.79 M22.5 110.98 C55.56 72.85, 87.92 35.63, 118.28 0.79 M27.48 111.34 C55.3 80.83, 78.7 53.32, 123.92 0.4 M27.48 111.34 C51.06 86.03, 72.97 59.44, 123.92 0.4 M33.13 110.95 C66.49 71.94, 94.97 34.97, 128.91 0.76 M33.13 110.95 C58.04 79.38, 86.16 46.97, 128.91 0.76 M38.11 111.31 C57.72 87.12, 80.37 57.13, 134.55 0.36 M38.11 111.31 C68.88 74.04, 99.39 38.07, 134.55 0.36 M43.76 110.91 C66.65 83.14, 92.31 54.18, 139.54 0.72 M43.76 110.91 C81.91 73.12, 115.8 29.54, 139.54 0.72 M48.74 111.27 C68.07 88.31, 94.38 63.62, 145.18 0.33 M48.74 111.27 C82.87 71.92, 115.23 33.09, 145.18 0.33 M54.39 110.88 C79.37 81.4, 111.56 44.76, 150.17 0.69 M54.39 110.88 C82.62 79.06, 109.46 44.7, 150.17 0.69 M59.37 111.24 C79.22 85.72, 102.96 66.27, 155.81 0.29 M59.37 111.24 C84.93 84.89, 109.53 54.45, 155.81 0.29 M65.02 110.84 C102.37 68.77, 138.32 25.58, 160.8 0.66 M65.02 110.84 C91.01 81.25, 120.71 48.33, 160.8 0.66 M70 111.2 C87.67 88.27, 115.39 64.7, 166.44 0.26 M70 111.2 C101.73 77.24, 131.85 41.97, 166.44 0.26 M75.65 110.81 C108.62 75.62, 139.23 33.05, 171.43 0.62 M75.65 110.81 C107.64 68.88, 143.3 30, 171.43 0.62 M80.63 111.17 C121.17 67.15, 153.98 22.46, 177.07 0.23 M80.63 111.17 C105.68 81.27, 131.71 51.99, 177.07 0.23 M86.28 110.77 C106.8 87.13, 130.33 64.52, 182.06 0.59 M86.28 110.77 C110.62 86.19, 133.45 61.95, 182.06 0.59 M91.26 111.13 C129.26 71.83, 160.35 30.55, 187.7 0.19 M91.26 111.13 C122.79 70.3, 153.3 34.46, 187.7 0.19 M96.91 110.74 C125.57 76.85, 151.73 50.93, 192.69 0.55 M96.91 110.74 C135.12 72.32, 166.77 29.75, 192.69 0.55 M101.89 111.1 C137.03 67.37, 183.04 22.95, 197.68 0.91 M101.89 111.1 C124.64 85.83, 148.45 60.22, 197.68 0.91 M107.54 110.7 C131.08 84.62, 158.12 51.77, 203.32 0.52 M107.54 110.7 C136.43 75.78, 166.36 38.01, 203.32 0.52 M112.52 111.06 C149.89 72.46, 177.31 35.44, 208.31 0.88 M112.52 111.06 C148.05 68.23, 186.98 28.94, 208.31 0.88 M118.17 110.67 C144.23 81.29, 173.79 45.11, 212.64 1.99 M118.17 110.67 C141.43 81.91, 165.75 53.03, 212.64 1.99 M123.15 111.03 C152.29 78.91, 173.07 50.04, 216.97 3.11 M123.15 111.03 C143.71 90.16, 163.66 66.13, 216.97 3.11 M128.14 111.39 C144.91 85.94, 163.27 64.4, 221.3 4.22 M128.14 111.39 C152.11 85.8, 174.41 63.53, 221.3 4.22 M133.78 111 C171.18 65.9, 203.03 25.71, 225.63 5.34 M133.78 111 C167.09 75.62, 196.88 38.75, 225.63 5.34 M138.77 111.36 C162.2 83.67, 178.1 65.83, 228.65 7.96 M138.77 111.36 C160.9 87.7, 184.77 59.25, 228.65 7.96 M144.41 110.96 C172.79 83.85, 195.29 52.65, 231.01 11.34 M144.41 110.96 C161.74 89.56, 178.99 68.06, 231.01 11.34 M149.4 111.32 C170.22 88.52, 187.81 73.98, 232.72 15.47 M149.4 111.32 C167.96 87.43, 189.83 66.17, 232.72 15.47 M155.04 110.93 C171.55 91.87, 196.37 67.65, 234.43 19.61 M155.04 110.93 C182.26 79.56, 211.34 45.74, 234.43 19.61 M160.03 111.29 C180.58 85.13, 202.8 62.02, 236.79 22.99 M160.03 111.29 C181.74 88.34, 203.26 62.82, 236.79 22.99 M165.67 110.89 C179.22 96.73, 196 79.72, 236.53 29.38 M165.67 110.89 C179.07 92.94, 195.15 76.8, 236.53 29.38 M170.66 111.25 C190.28 98.59, 203.11 79.24, 236.92 35.03 M170.66 111.25 C193.6 85.27, 219.93 58.86, 236.92 35.03 M176.3 110.86 C195.25 86.36, 220.71 60.86, 236.66 41.42 M176.3 110.86 C195.08 90.23, 213.35 69.88, 236.66 41.42 M181.29 111.22 C201.73 89.85, 228.01 58.34, 237.06 47.07 M181.29 111.22 C195.68 94.7, 208.88 77.62, 237.06 47.07 M186.93 110.82 C200.26 93.41, 213.77 73.36, 236.79 53.47 M186.93 110.82 C195.78 99.26, 208.52 85.22, 236.79 53.47 M191.92 111.18 C205.45 98.89, 217.33 83.23, 237.19 59.11 M191.92 111.18 C201.42 97.47, 214.22 88.37, 237.19 59.11 M197.56 110.79 C208.79 98.73, 223.84 81.45, 236.93 65.51 M197.56 110.79 C204.78 101.2, 212.42 91.23, 236.93 65.51 M202.55 111.15 C213.99 104.3, 216.18 92.61, 237.32 71.15 M202.55 111.15 C214.88 100.22, 223.55 88.08, 237.32 71.15 M207.54 111.51 C215.32 103.54, 227.28 86.52, 237.06 77.55 M207.54 111.51 C218.92 98.38, 226.68 87.66, 237.06 77.55 M214.49 109.61 C218.39 104.16, 226.4 95.22, 236.14 84.7 M214.49 109.61 C218.3 103.26, 223.68 99.87, 236.14 84.7 M220.79 108.46 C223.75 106.02, 225.19 101.51, 234.57 92.61 M220.79 108.46 C227.48 104.72, 231.04 96.97, 234.57 92.61" stroke="#7950f2" stroke-width="0.5" fill="none"></path><path d="M27.75 0 M27.75 0 C75.84 3.02, 116.88 2.43, 207.25 0 M27.75 0 C76.84 -0.97, 127.92 -0.7, 207.25 0 M207.25 0 C224.08 2.58, 237.23 6.58, 235 27.75 M207.25 0 C225.9 3.04, 238.29 8.17, 235 27.75 M235 27.75 C234.54 37.96, 236.13 54.93, 235 83.25 M235 27.75 C234.85 48.58, 236.57 68.43, 235 83.25 M235 83.25 C233.11 101.85, 222.19 109.44, 207.25 111 M235 83.25 C236.93 98.27, 225.14 106.54, 207.25 111 M207.25 111 C162.5 112.85, 117.14 110.38, 27.75 111 M207.25 111 C170.91 110.73, 134.92 110.66, 27.75 111 M27.75 111 C5.82 107.33, 2.73 104.37, 0 83.25 M27.75 111 C10.57 108.55, 2.48 100, 0 83.25 M0 83.25 C1.51 66.94, 0.64 46.25, 0 27.75 M0 83.25 C-2.05 72.76, 0.84 57.71, 0 27.75 M0 27.75 C-1.22 8.8, 7.4 -0.63, 27.75 0 M0 27.75 C-4.39 10.85, 11.32 -2.13, 27.75 0" stroke="#1e1e1e" stroke-width="1" fill="none"></path></g><g transform="translate(819.4900283813477 339.3999328613281) rotate(0 83.15996551513672 17.5)"><text x="83.15996551513672" y="0" font-family="Virgil, Segoe UI Emoji" font-size="28px" fill="#1e1e1e" text-anchor="middle" style="white-space: pre;" direction="ltr" dominant-baseline="text-before-edge">Static Code</text></g><g stroke-linecap="round"><g transform="translate(661.4499816894534 217.49996948242176) rotate(0 62.11675639163229 -78.19575327488423)"><path d="M-0.36 0.29 C20.22 -25.43, 101.66 -128.9, 122.34 -154.73 M1.65 -0.6 C22.71 -26.66, 104.33 -130.65, 124.6 -156.69" stroke="#1e1e1e" stroke-width="1" fill="none"></path></g><g transform="translate(661.4499816894534 217.49996948242176) rotate(0 62.11675639163229 -78.19575327488423)"><path d="M115.79 -129.6 C117.8 -133.04, 119.81 -140.69, 125.86 -155.78 M114.95 -128.76 C117.32 -136.98, 120.71 -144.91, 125.02 -156.74" stroke="#1e1e1e" stroke-width="1" fill="none"></path></g><g transform="translate(661.4499816894534 217.49996948242176) rotate(0 62.11675639163229 -78.19575327488423)"><path d="M99.63 -142.24 C104.87 -143.08, 110.15 -148.16, 125.86 -155.78 M98.78 -141.41 C106.22 -145.62, 114.56 -149.66, 125.02 -156.74" stroke="#1e1e1e" stroke-width="1" fill="none"></path></g></g><mask></mask><g stroke-linecap="round"><g transform="translate(662.2500305175781 219.0999755859375) rotate(0 61.28218114997725 -1.727166435006069)"><path d="M1.12 0.56 C21.48 0.07, 102.28 -1.79, 122.32 -2.34 M0.24 -0.19 C20.5 -1.07, 101.72 -3.24, 121.75 -4.01" stroke="#1e1e1e" stroke-width="1" fill="none"></path></g><g transform="translate(662.2500305175781 219.0999755859375) rotate(0 61.28218114997725 -1.727166435006069)"><path d="M94.84 8.35 C103.9 3, 111.88 0.54, 121.34 -2.11 M93.11 7.9 C99.92 4.88, 107.71 1.24, 121.5 -4.61" stroke="#1e1e1e" stroke-width="1" fill="none"></path></g><g transform="translate(662.2500305175781 219.0999755859375) rotate(0 61.28218114997725 -1.727166435006069)"><path d="M94.18 -12.16 C103.55 -11.16, 111.74 -7.28, 121.34 -2.11 M92.46 -12.61 C99.35 -10.69, 107.3 -9.4, 121.5 -4.61" stroke="#1e1e1e" stroke-width="1" fill="none"></path></g></g><mask></mask><g stroke-linecap="round"><g transform="translate(662.2500305175781 220.699951171875) rotate(0 61.18341108275115 65.38435087283142)"><path d="M0.99 0.96 C21.31 22.45, 102 107.63, 122.31 129.09 M0.06 0.41 C20.16 22.06, 100.93 108.58, 121.31 130.36" stroke="#1e1e1e" stroke-width="1" fill="none"></path></g><g transform="translate(662.2500305175781 220.699951171875) rotate(0 61.18341108275115 65.38435087283142)"><path d="M96.16 116.61 C102.73 121.9, 112.74 127.08, 120.25 130.46 M93.75 116.57 C104.35 121.35, 112.05 125.36, 121.81 129.4" stroke="#1e1e1e" stroke-width="1" fill="none"></path></g><g transform="translate(662.2500305175781 220.699951171875) rotate(0 61.18341108275115 65.38435087283142)"><path d="M111.16 102.6 C112.69 112.74, 117.65 122.62, 120.25 130.46 M108.75 102.56 C114.26 112.14, 116.94 120.84, 121.81 129.4" stroke="#1e1e1e" stroke-width="1" fill="none"></path></g></g><mask></mask></svg>