<svg width="418" height="436" fill="none" xmlns="http://www.w3.org/2000/svg"><path d="M139.333 211.843a.74.74 0 110 1.478.74.74 0 010-1.478zm0 60.334a.738.738 0 01.524 1.263.752.752 0 01-.379.203.747.747 0 01-.76-.315.742.742 0 01.615-1.151zm0-30.167c.147 0 .29.043.411.125a.733.733 0 01.315.759.735.735 0 01-.581.582.743.743 0 01-.885-.726.744.744 0 01.74-.74zm0 20.111a.738.738 0 01.145 1.466.743.743 0 01-.885-.726.744.744 0 01.74-.74zm0-30.166a.738.738 0 01.524 1.263.743.743 0 01-1.139-.112.745.745 0 01.092-.935.743.743 0 01.523-.216zm0-10.056c.147 0 .29.043.411.125a.733.733 0 01.315.759.735.735 0 01-.581.582.743.743 0 01-.885-.726.744.744 0 01.74-.74zm0 30.166a.74.74 0 01.726.885.743.743 0 01-.581.581.745.745 0 01-.885-.725.744.744 0 01.74-.741zm0-140.777a.738.738 0 01.524 1.263.745.745 0 01-.807.161.743.743 0 01-.457-.684.742.742 0 01.74-.74zm-8.708 165.917a.738.738 0 01.144 1.465.735.735 0 01-.759-.314.737.737 0 01.092-.935.732.732 0 01.523-.216zm8.708-155.862a.74.74 0 110 1.478.74.74 0 010-1.478zm-8.708 135.75a.74.74 0 110 1.478.74.74 0 010-1.478zm8.708-125.694c.147 0 .29.043.411.125a.733.733 0 01.315.759.735.735 0 01-.581.582.743.743 0 01-.885-.726.744.744 0 01.74-.74zm-8.708 135.75a.738.738 0 01.144 1.466.743.743 0 01-.759-.315.736.736 0 01.092-.934.735.735 0 01.523-.217zm8.708-125.694a.738.738 0 01.524 1.263.743.743 0 01-1.139-.112.745.745 0 01.092-.935.743.743 0 01.523-.216zm0 40.222a.738.738 0 01.524 1.263.752.752 0 01-.379.203.747.747 0 01-.76-.315.742.742 0 01.615-1.151zm0 20.111a.738.738 0 01.524 1.263.745.745 0 01-.807.161.743.743 0 01-.457-.684.742.742 0 01.74-.74zm0-30.167a.738.738 0 01.145 1.466.743.743 0 01-.885-.726.744.744 0 01.74-.74zm0 20.111a.738.738 0 01.145 1.466.738.738 0 01-.885-.726.744.744 0 01.74-.74zm0-30.167a.74.74 0 01.726.885.743.743 0 01-.581.581.745.745 0 01-.885-.725.744.744 0 01.74-.741zm0-10.055c.147 0 .29.043.411.125a.733.733 0 01.315.759.735.735 0 01-.581.582.743.743 0 01-.885-.726.744.744 0 01.74-.74zm17.417-30.167a.744.744 0 01.684.457.743.743 0 01-.54 1.009.735.735 0 01-.759-.315.74.74 0 01.615-1.151zm-8.708 155.862c.146 0 .289.043.411.124a.745.745 0 01.314.76.735.735 0 01-.581.581.737.737 0 01-.76-.314.745.745 0 01.092-.935.742.742 0 01.524-.216zm0-20.112a.744.744 0 01.683.457.737.737 0 01-.16.807.743.743 0 01-1.139-.113.74.74 0 01.616-1.151zm0-30.166a.736.736 0 01.683.457.735.735 0 01-.16.806.745.745 0 01-.379.203.746.746 0 01-.76-.315.744.744 0 01.092-.935.749.749 0 01.524-.216zm0 10.055a.744.744 0 01.683.457.737.737 0 01-.16.807.737.737 0 01-1.139-.113.74.74 0 01.616-1.151zm0 10.056a.736.736 0 01.683.457.735.735 0 01-.16.806.738.738 0 01-1.139-.112.744.744 0 01.092-.935.749.749 0 01.524-.216zm0 20.111a.736.736 0 01.683.457.735.735 0 01-.16.806.745.745 0 01-.807.161.738.738 0 01-.4-.967.737.737 0 01.684-.457zm8.708-155.861a.743.743 0 01.684.456.747.747 0 01-.161.807.737.737 0 01-1.138-.112.736.736 0 01.092-.934.738.738 0 01.523-.217zm0 40.222a.736.736 0 01.684.457.743.743 0 01-.54 1.009.743.743 0 01-.759-.315.736.736 0 01.092-.934.738.738 0 01.523-.217zm0 10.055a.744.744 0 01.684.457.746.746 0 01-.161.807.736.736 0 01-.806.16.742.742 0 01-.457-.683.74.74 0 01.74-.741zm0-30.166a.736.736 0 01.684.457.743.743 0 01-.54 1.009.743.743 0 01-.759-.315.736.736 0 01.092-.934.738.738 0 01.523-.217zm0 10.056a.743.743 0 01.684.456.746.746 0 01-.161.807.735.735 0 01-.806.16.737.737 0 01-.457-.684.74.74 0 01.74-.739zm-8.708 45.25c.146 0 .289.043.411.124a.745.745 0 01.314.76.735.735 0 01-.581.581.737.737 0 01-.76-.314.745.745 0 01.092-.935.742.742 0 01.524-.216zm0-50.278a.736.736 0 01.683.457.735.735 0 01-.16.806.745.745 0 01-.379.203.746.746 0 01-.76-.315.744.744 0 01.092-.935.749.749 0 01.524-.216zm0 80.444a.744.744 0 01.683.457.737.737 0 01-.16.806.745.745 0 01-.807.161.738.738 0 01-.4-.967.737.737 0 01.684-.457zm0-90.5a.744.744 0 01.683.457.737.737 0 01-.16.806.745.745 0 01-.807.161.738.738 0 01-.4-.967.737.737 0 01.684-.457zm0 30.167a.736.736 0 01.683.457.735.735 0 01-.16.806.745.745 0 01-.807.161.745.745 0 01-.457-.684.741.741 0 01.741-.74zm0-40.223a.744.744 0 01.683.457.738.738 0 01-.539 1.009.738.738 0 01-.828-1.009.742.742 0 01.684-.457zm0 30.167a.744.744 0 01.683.457.737.737 0 01-.16.807.737.737 0 01-1.139-.113.74.74 0 01.616-1.151zm0 50.278a.744.744 0 01.683.457.737.737 0 01-.16.806.745.745 0 01-.807.161.738.738 0 01-.4-.967.745.745 0 01.684-.457zm0 10.055a.744.744 0 01.683.457.738.738 0 01-.539 1.009.738.738 0 01-.828-1.009.742.742 0 01.684-.457zm0-40.222a.744.744 0 01.683.457.737.737 0 01-.16.807.743.743 0 01-1.139-.113.74.74 0 01.616-1.151zm0 10.056a.736.736 0 01.683.457.735.735 0 01-.16.806.745.745 0 01-.807.161.738.738 0 01-.4-.967.737.737 0 01.684-.457zm-8.709 105.583a.738.738 0 01.145 1.466.738.738 0 01-.885-.726.744.744 0 01.74-.74zm-17.416-50.277c.146 0 .289.043.411.124a.745.745 0 01.314.76.735.735 0 01-.581.581.737.737 0 01-.76-.314.745.745 0 01.092-.935.742.742 0 01.524-.216zm-8.709 25.138a.74.74 0 110 1.478.74.74 0 010-1.478zm0-40.222a.738.738 0 01.145 1.466.743.743 0 01-.885-.726.744.744 0 01.74-.74zm0 30.167a.738.738 0 01.524 1.263.74.74 0 11-.524-1.263zm0-10.056a.738.738 0 01.145 1.466.738.738 0 01-.885-.726.744.744 0 01.74-.74zm0 40.223a.738.738 0 01.524 1.263.743.743 0 01-1.139-.112.745.745 0 01.092-.935.743.743 0 01.523-.216zm0-50.278a.738.738 0 01.524 1.263.748.748 0 01-.379.203.747.747 0 01-.76-.315.742.742 0 01.615-1.151zm0 40.222c.147 0 .29.043.411.125a.733.733 0 01.315.759.735.735 0 01-.581.582.743.743 0 01-.885-.726.744.744 0 01.74-.74zm8.709-155.861a.736.736 0 01.683.457.735.735 0 01-.16.806.745.745 0 01-.807.161.745.745 0 01-.457-.684.741.741 0 01.741-.74zm0 40.222a.744.744 0 01.683.457.737.737 0 01-.16.806.745.745 0 01-.807.161.738.738 0 01-.4-.967.737.737 0 01.684-.457zm0 10.055a.744.744 0 01.683.457.738.738 0 01-.539 1.009.738.738 0 01-.828-1.009.742.742 0 01.684-.457zm0-40.222a.744.744 0 01.683.457.737.737 0 01-.16.807.743.743 0 01-1.139-.113.74.74 0 01.616-1.151zm0 20.112c.146 0 .289.043.411.124a.745.745 0 01.314.76.735.735 0 01-.581.581.737.737 0 01-.76-.314.745.745 0 01.092-.935.742.742 0 01.524-.216zm-8.709-5.028a.738.738 0 01.524 1.263.748.748 0 01-.379.203.747.747 0 01-.76-.315.742.742 0 01.615-1.151zm0 70.388a.74.74 0 01.726.885.743.743 0 01-.581.581.745.745 0 01-.885-.725.744.744 0 01.74-.741zm0-80.444a.738.738 0 01.145 1.466.743.743 0 01-.885-.726.744.744 0 01.74-.74zm8.709 45.25a.744.744 0 01.683.457.737.737 0 01-.16.806.745.745 0 01-.807.161.738.738 0 01-.4-.967.737.737 0 01.684-.457zm8.708 75.417a.738.738 0 01.144 1.466.743.743 0 01-.759-.315.736.736 0 01.092-.934.735.735 0 01.523-.217zm26.125-75.417a.736.736 0 01.684.457.743.743 0 01-.54 1.009.743.743 0 01-.759-.315.734.734 0 01.092-.934.738.738 0 01.523-.217zm-43.542-25.139a.738.738 0 01.145 1.466.738.738 0 01-.885-.726.744.744 0 01.74-.74zm0 50.278c.147 0 .29.043.411.125a.733.733 0 01.315.759.735.735 0 01-.581.582.743.743 0 01-.885-.726.744.744 0 01.74-.74zm0-10.055a.738.738 0 01.524 1.263.743.743 0 01-1.139-.112.745.745 0 01.092-.935.743.743 0 01.523-.216zm0-20.112a.74.74 0 110 1.478.74.74 0 010-1.478zm0 10.056c.147 0 .29.043.411.125a.733.733 0 01.315.759.735.735 0 01-.581.582.743.743 0 01-.885-.726.744.744 0 01.74-.74zm0-20.111a.738.738 0 01.524 1.263.74.74 0 11-.524-1.263zm0-40.223a.74.74 0 01.726.885.743.743 0 01-.581.581.745.745 0 01-.885-.725.744.744 0 01.74-.741zm17.417 50.278a.74.74 0 110 1.478.74.74 0 010-1.478zm0 10.056a.738.738 0 01.144 1.466.743.743 0 01-.759-.315.736.736 0 01.092-.934.735.735 0 01.523-.217zm0-20.111a.738.738 0 01.144 1.466.743.743 0 01-.759-.315.736.736 0 01.092-.934.735.735 0 01.523-.217zm0-10.056a.74.74 0 110 1.478.74.74 0 010-1.478zm0-10.055a.738.738 0 11-.283 1.423.736.736 0 01-.457-.683.74.74 0 01.74-.74zm0 50.278a.738.738 0 01.144 1.465.735.735 0 01-.759-.314.737.737 0 01.092-.935.732.732 0 01.523-.216zm0 50.277a.74.74 0 110 1.478.74.74 0 010-1.478zm0-10.055a.738.738 0 11-.283 1.423.736.736 0 01-.457-.683.74.74 0 01.74-.74zm0-20.112a.74.74 0 110 1.478.74.74 0 010-1.478zm0-10.055a.74.74 0 110 1.478.74.74 0 010-1.478zm0 20.111a.74.74 0 110 1.478.74.74 0 010-1.478zm-8.708-25.139a.744.744 0 01.683.457.737.737 0 01-.16.807.737.737 0 01-1.263-.524.725.725 0 01.216-.523.749.749 0 01.524-.217zm0 50.278a.744.744 0 01.683.457.737.737 0 01-.16.806.745.745 0 01-.807.161.743.743 0 01-.4-.967.737.737 0 01.684-.457zm0-30.167a.744.744 0 01.683.457.737.737 0 01-.16.807.743.743 0 01-1.139-.113.738.738 0 01.092-.934.749.749 0 01.524-.217zm0 10.056a.736.736 0 01.683.457.735.735 0 01-.16.806.745.745 0 01-.807.161.743.743 0 01-.4-.967.737.737 0 01.684-.457zm8.708-95.528a.74.74 0 110 1.478.74.74 0 010-1.478zm-8.708 75.417a.736.736 0 01.683.457.735.735 0 01-.16.806.745.745 0 01-.807.161.745.745 0 01-.457-.684.741.741 0 01.741-.74zm0-20.111a.736.736 0 01.683.457.735.735 0 01-.16.806.745.745 0 01-.379.203.746.746 0 01-.76-.315.744.744 0 01.092-.935.749.749 0 01.524-.216zm0 70.388a.744.744 0 01.683.457.738.738 0 01-.539 1.009.738.738 0 01-.828-1.009.742.742 0 01.684-.457zm8.708-135.75a.74.74 0 110 1.478.74.74 0 010-1.478zm-8.708 165.917a.744.744 0 01.683.457.737.737 0 01-.16.807.737.737 0 01-1.139-.113.74.74 0 01.616-1.151zm0-10.055a.736.736 0 01.683.457.735.735 0 01-.16.806.745.745 0 01-.379.203.746.746 0 01-.76-.315.744.744 0 01.092-.935.749.749 0 01.524-.216zm0-10.056a.744.744 0 01.683.457.737.737 0 01-.16.806.745.745 0 01-.807.161.738.738 0 01-.4-.967.737.737 0 01.684-.457zm0-130.722a.736.736 0 01.683.457.735.735 0 01-.16.806.745.745 0 01-.807.161.738.738 0 01-.4-.967.737.737 0 01.684-.457zm60.958 15.083a.744.744 0 01.684.457.743.743 0 01-.54 1.009.735.735 0 01-.759-.315.74.74 0 01.615-1.151zm8.708 65.361a.74.74 0 110 1.478.74.74 0 010-1.478zm0-70.388a.738.738 0 01.144 1.465.735.735 0 01-.759-.314.737.737 0 01.092-.935.739.739 0 01.523-.216zm0-30.167a.738.738 0 01.144 1.466.743.743 0 01-.759-.315.736.736 0 01.092-.934.74.74 0 01.523-.217zm0 40.222a.74.74 0 110 1.478.74.74 0 010-1.478zm-8.708 125.695a.743.743 0 01.684.456.746.746 0 01-.161.807.735.735 0 01-.806.16.737.737 0 01-.457-.684.74.74 0 01.74-.739zm8.708-115.64a.74.74 0 110 1.478.74.74 0 010-1.478zm0 30.167a.74.74 0 110 1.478.74.74 0 010-1.478zm-8.708 75.417a.736.736 0 01.684.457.743.743 0 01-.54 1.009.743.743 0 01-.759-.315.736.736 0 01.092-.934.738.738 0 01.523-.217zm-26.125-85.472a.743.743 0 01.684.456.746.746 0 01-.161.807.743.743 0 01-1.263-.523.738.738 0 01.74-.74zm34.833-10.056a.74.74 0 110 1.478.74.74 0 010-1.478zm0 10.056a.738.738 0 11-.283 1.423.736.736 0 01-.457-.683.74.74 0 01.74-.74zm0-50.278a.738.738 0 01.144 1.466.743.743 0 01-.759-.315.736.736 0 01.092-.934.74.74 0 01.523-.217zm-8.708 65.361a.736.736 0 01.684.457.743.743 0 01-.54 1.009.743.743 0 01-.759-.315.736.736 0 01.092-.934.738.738 0 01.523-.217zm0-10.055a.743.743 0 01.684.456.746.746 0 01-.161.807.735.735 0 01-.806.16.737.737 0 01-.457-.684.74.74 0 01.74-.739zm0-10.056a.736.736 0 01.684.457.743.743 0 01-.54 1.009.743.743 0 01-.759-.315.736.736 0 01.092-.934.738.738 0 01.523-.217zm0-10.056a.744.744 0 01.684.457.743.743 0 01-.54 1.009.735.735 0 01-.759-.315.74.74 0 01.615-1.151zm0-10.055a.743.743 0 01.684.456.747.747 0 01-.161.807.737.737 0 01-1.138-.112.736.736 0 01.092-.934.738.738 0 01.523-.217zm0 100.555a.744.744 0 01.684.457.743.743 0 01-.54 1.009.735.735 0 01-.759-.315.74.74 0 01.615-1.151zm0-20.111a.744.744 0 01.684.457.743.743 0 01-.54 1.009.735.735 0 01-.759-.315.74.74 0 01.615-1.151zm0 10.056a.743.743 0 01.684.456.747.747 0 01-.161.807.737.737 0 01-1.138-.112.736.736 0 01.092-.934.738.738 0 01.523-.217zm0-20.111a.743.743 0 01.684.456.746.746 0 01-.161.807.743.743 0 01-1.263-.523.738.738 0 01.74-.74zm0-10.056a.736.736 0 01.684.457.743.743 0 01-.54 1.009.743.743 0 01-.759-.315.734.734 0 01.092-.934.738.738 0 01.523-.217zm0-10.056a.744.744 0 01.684.457.746.746 0 01-.161.807.736.736 0 01-.806.16.742.742 0 01-.457-.683.74.74 0 01.74-.741zm8.708-85.472a.74.74 0 110 1.478.74.74 0 010-1.478zm8.709 85.472a.744.744 0 01.683.457.738.738 0 01-.539 1.009.738.738 0 01-.828-1.009.742.742 0 01.684-.457zm0 10.056a.744.744 0 01.683.457.737.737 0 01-.16.806.745.745 0 01-.807.161.738.738 0 01-.4-.967.737.737 0 01.684-.457zm0-30.166c.146 0 .289.043.411.124a.745.745 0 01.314.76.735.735 0 01-.581.581.737.737 0 01-.76-.314.745.745 0 01.092-.935.742.742 0 01.524-.216zm0 40.222a.736.736 0 01.683.457.735.735 0 01-.16.806.745.745 0 01-.379.203.746.746 0 01-.76-.315.744.744 0 01.092-.935.749.749 0 01.524-.216zm0-30.167a.744.744 0 01.683.457.737.737 0 01-.16.806.745.745 0 01-.807.161.738.738 0 01-.4-.967.737.737 0 01.684-.457zm0 70.389a.736.736 0 01.683.457.735.735 0 01-.16.806.745.745 0 01-.807.161.738.738 0 01-.4-.967.737.737 0 01.684-.457zm0-100.556a.744.744 0 01.683.457.737.737 0 01-.16.807.743.743 0 01-1.139-.113.74.74 0 01.616-1.151zm0 110.612c.146 0 .289.043.411.124a.745.745 0 01.314.76.735.735 0 01-.581.581.737.737 0 01-.76-.314.745.745 0 01.092-.935.742.742 0 01.524-.216zm0-30.167a.736.736 0 01.683.457.735.735 0 01-.16.806.738.738 0 01-1.139-.112.744.744 0 01.092-.935.749.749 0 01.524-.216zm0-10.056a.744.744 0 01.683.457.737.737 0 01-.16.807.737.737 0 01-1.139-.113.74.74 0 01.616-1.151zm0 20.111a.744.744 0 01.683.457.737.737 0 01-.16.807.743.743 0 01-1.139-.113.74.74 0 01.616-1.151zm-8.709-15.083a.738.738 0 01.144 1.466.743.743 0 01-.759-.315.736.736 0 01.092-.934.74.74 0 01.523-.217zm0 30.167a.738.738 0 11-.283 1.423.736.736 0 01-.457-.683.74.74 0 01.74-.74zm0-10.056a.74.74 0 110 1.478.74.74 0 010-1.478zm0-10.056a.74.74 0 110 1.478.74.74 0 010-1.478zm0-20.11a.738.738 0 01.144 1.465.735.735 0 01-.759-.314.737.737 0 01.092-.935.739.739 0 01.523-.216zm8.709-75.417a.736.736 0 01.683.457.735.735 0 01-.16.806.745.745 0 01-.807.161.745.745 0 01-.457-.684.741.741 0 01.741-.74zm-8.709 65.361a.738.738 0 01.144 1.466.743.743 0 01-.759-.315.736.736 0 01.092-.934.74.74 0 01.523-.217zm8.709-85.472a.736.736 0 01.683.457.735.735 0 01-.16.806.745.745 0 01-.379.203.746.746 0 01-.76-.315.744.744 0 01.092-.935.749.749 0 01.524-.216zm0 10.055a.744.744 0 01.683.457.737.737 0 01-.16.807.737.737 0 01-1.139-.113.74.74 0 01.616-1.151zm-8.709 135.75a.74.74 0 110 1.478.74.74 0 010-1.478zm8.709-165.917a.744.744 0 01.683.457.738.738 0 01-.539 1.009.738.738 0 01-.828-1.009.742.742 0 01.684-.457zm0 10.056a.744.744 0 01.683.457.737.737 0 01-.16.806.745.745 0 01-.807.161.738.738 0 01-.4-.967.737.737 0 01.684-.457zm-8.709 75.417a.738.738 0 01.144 1.466.743.743 0 01-.759-.315.736.736 0 01.092-.934.74.74 0 01.523-.217zm-26.125-45.25a.738.738 0 01.524 1.263.745.745 0 01-.807.161.743.743 0 01-.457-.684.744.744 0 01.74-.74zm0 90.5a.738.738 0 01.524 1.263.745.745 0 01-.807.161.743.743 0 01-.457-.684.742.742 0 01.74-.74zm0-70.389c.147 0 .29.043.411.125a.733.733 0 01.315.759.735.735 0 01-.581.582.743.743 0 01-.885-.726.744.744 0 01.74-.74zm0-30.167a.738.738 0 01.145 1.466.738.738 0 01-.885-.726.744.744 0 01.74-.74zm0-10.055a.738.738 0 01.524 1.263.752.752 0 01-.379.203.747.747 0 01-.76-.315.742.742 0 01.615-1.151zm0 50.278a.738.738 0 01.524 1.263.743.743 0 01-1.139-.112.745.745 0 01.092-.935.743.743 0 01.523-.216zm0 10.055c.147 0 .29.043.411.125a.733.733 0 01.315.759.735.735 0 01-.581.582.743.743 0 01-.885-.726.744.744 0 01.74-.74zm0 30.167a.738.738 0 01.524 1.263.752.752 0 01-.379.203.747.747 0 01-.76-.315.742.742 0 01.615-1.151zm0 10.055a.738.738 0 01.145 1.466.738.738 0 01-.885-.726.744.744 0 01.74-.74zm0-30.167a.74.74 0 01.726.885.743.743 0 01-.581.581.745.745 0 01-.885-.725.744.744 0 01.74-.741zm0-80.444a.738.738 0 01.145 1.466.743.743 0 01-.885-.726.744.744 0 01.74-.74zm0 90.5a.738.738 0 01.145 1.466.743.743 0 01-.885-.726.744.744 0 01.74-.74zm0-50.278a.74.74 0 110 1.478.74.74 0 010-1.478zm0-50.278a.74.74 0 01.726.885.743.743 0 01-.581.581.745.745 0 01-.885-.725.744.744 0 01.74-.741zm-8.708 105.584a.736.736 0 01.684.457.743.743 0 01-.54 1.009.743.743 0 01-.759-.315.736.736 0 01.092-.934.738.738 0 01.523-.217zm0 10.056a.743.743 0 01.684.456.746.746 0 01-.161.807.735.735 0 01-.806.16.737.737 0 01-.457-.684.74.74 0 01.74-.739zm0-40.223a.744.744 0 01.684.457.743.743 0 01-.54 1.009.735.735 0 01-.759-.315.74.74 0 01.615-1.151zm0 10.056a.743.743 0 01.684.456.747.747 0 01-.161.807.737.737 0 01-1.138-.112.736.736 0 01.092-.934.738.738 0 01.523-.217zm0 10.055a.744.744 0 01.684.457.743.743 0 01-.54 1.009.735.735 0 01-.759-.315.74.74 0 01.615-1.151zm0 30.167a.736.736 0 01.684.457.743.743 0 01-.54 1.009.743.743 0 01-.759-.315.736.736 0 01.092-.934.738.738 0 01.523-.217zm0 30.167a.743.743 0 01.684.456.746.746 0 01-.161.807.743.743 0 01-1.263-.523.738.738 0 01.74-.74zm0 10.055a.736.736 0 01.684.457.743.743 0 01-.54 1.009.735.735 0 01-.759-.315.74.74 0 01.615-1.151zm0-30.167a.744.744 0 01.684.457.746.746 0 01-.161.807.736.736 0 01-.806.16.742.742 0 01-.457-.683.74.74 0 01.74-.741zm0 10.056a.736.736 0 01.684.457.743.743 0 01-.54 1.009.743.743 0 01-.759-.315.734.734 0 01.092-.934.738.738 0 01.523-.217zm17.417-10.056a.744.744 0 01.683.457.738.738 0 01-.539 1.009.738.738 0 01-.828-1.009.742.742 0 01.684-.457zm0-20.11c.146 0 .289.043.411.124a.745.745 0 01.314.76.735.735 0 01-.581.581.737.737 0 01-.76-.314.745.745 0 01.092-.935.742.742 0 01.524-.216zm0 10.055a.744.744 0 01.683.457.737.737 0 01-.16.806.745.745 0 01-.807.161.738.738 0 01-.4-.967.745.745 0 01.684-.457zm0-40.222a.736.736 0 01.683.457.735.735 0 01-.16.806.745.745 0 01-.807.161.745.745 0 01-.457-.684.741.741 0 01.741-.74zm0 10.055a.744.744 0 01.683.457.737.737 0 01-.16.807.743.743 0 01-1.139-.113.74.74 0 01.616-1.151zm8.708-75.416a.743.743 0 01.684.456.746.746 0 01-.161.807.743.743 0 01-1.263-.523.738.738 0 01.74-.74zm-8.708 85.472a.736.736 0 01.683.457.735.735 0 01-.16.806.745.745 0 01-.807.161.738.738 0 01-.4-.967.737.737 0 01.684-.457zm8.708-95.528a.736.736 0 01.684.457.743.743 0 01-.54 1.009.743.743 0 01-.759-.315.734.734 0 01.092-.934.738.738 0 01.523-.217zm0-10.056a.744.744 0 01.684.457.746.746 0 01-.161.807.736.736 0 01-.806.16.742.742 0 01-.457-.683.74.74 0 01.74-.741zm-8.708 145.806a.744.744 0 01.683.457.737.737 0 01-.16.806.745.745 0 01-.807.161.738.738 0 01-.4-.967.737.737 0 01.684-.457zm0 10.056a.736.736 0 01.683.457.735.735 0 01-.16.806.745.745 0 01-.379.203.746.746 0 01-.76-.315.744.744 0 01.092-.935.749.749 0 01.524-.216zm0 10.055a.744.744 0 01.683.457.737.737 0 01-.16.807.737.737 0 01-1.139-.113.74.74 0 01.616-1.151zm0-150.833a.736.736 0 01.683.457.735.735 0 01-.16.806.745.745 0 01-.807.161.738.738 0 01-.4-.967.737.737 0 01.684-.457zm-8.709 125.694a.74.74 0 110 1.478.74.74 0 010-1.478zm8.709-145.805a.736.736 0 01.683.457.735.735 0 01-.16.806.745.745 0 01-.807.161.745.745 0 01-.457-.684.741.741 0 01.741-.74zm0 10.055a.744.744 0 01.683.457.737.737 0 01-.16.807.743.743 0 01-1.139-.113.74.74 0 01.616-1.151zm-8.709 145.806c.147 0 .29.043.411.125a.733.733 0 01.315.759.735.735 0 01-.581.582.743.743 0 01-.885-.726.744.744 0 01.74-.74zm0 10.056a.738.738 0 01.524 1.263.743.743 0 01-1.139-.112.745.745 0 01.092-.935.743.743 0 01.523-.216zm8.709-115.64a.744.744 0 01.683.457.738.738 0 01-.539 1.009.738.738 0 01-.828-1.009.742.742 0 01.684-.457zm0 10.056a.744.744 0 01.683.457.737.737 0 01-.16.806.745.745 0 01-.807.161.738.738 0 01-.4-.967.737.737 0 01.684-.457zm0 10.056a.736.736 0 01.683.457.735.735 0 01-.16.806.745.745 0 01-.379.203.746.746 0 01-.76-.315.744.744 0 01.092-.935.749.749 0 01.524-.216zm0 10.055a.744.744 0 01.683.457.737.737 0 01-.16.807.737.737 0 01-1.139-.113.74.74 0 01.616-1.151zm0-40.222a.744.744 0 01.683.457.737.737 0 01-.16.806.745.745 0 01-.807.161.738.738 0 01-.4-.967.745.745 0 01.684-.457zm0-10.055c.146 0 .289.043.411.124a.745.745 0 01.314.76.735.735 0 01-.581.581.737.737 0 01-.76-.314.745.745 0 01.092-.935.742.742 0 01.524-.216zm26.125 35.194a.736.736 0 01.683.457.735.735 0 01-.16.806.745.745 0 01-.807.161.738.738 0 01-.4-.967.737.737 0 01.684-.457zm-156.75-30.167a.743.743 0 01.725.885.745.745 0 01-.581.581.736.736 0 01-.76-.315.736.736 0 01.092-.934.751.751 0 01.524-.217zm0-20.111a.743.743 0 01.725.885.738.738 0 01-.581.581.745.745 0 01-.76-.315.739.739 0 01.616-1.151zm0 10.056a.735.735 0 01.683.457.738.738 0 01-.967.966.737.737 0 01-.4-.967.752.752 0 01.4-.4.744.744 0 01.284-.056zm0-20.112a.743.743 0 01.725.885.745.745 0 01-.581.581.736.736 0 01-.76-.314.741.741 0 01.616-1.152zm-8.709 165.917a.735.735 0 01.684.457.739.739 0 11-.684-.457zm0-10.055a.742.742 0 01.684.456.742.742 0 01-.54 1.01.745.745 0 01-.759-.315.741.741 0 01.615-1.151zm8.709-115.639a.735.735 0 01.683.457.738.738 0 01-.54 1.009.745.745 0 01-.759-.315.741.741 0 01.616-1.151zm0 40.222a.743.743 0 01.725.885.738.738 0 01-.581.581.745.745 0 01-.76-.315.741.741 0 01.616-1.151zm0 10.055a.743.743 0 01.725.885.745.745 0 01-.581.581.736.736 0 01-.76-.314.741.741 0 01.616-1.152zm-8.709 55.306a.735.735 0 01.684.457.739.739 0 11-.684-.457zm0-140.778a.743.743 0 01.726.884.736.736 0 01-.581.582.737.737 0 01-.76-.315.736.736 0 01.092-.934.739.739 0 01.523-.217zm8.709 45.25a.743.743 0 01.725.885.745.745 0 01-.581.581.736.736 0 01-.76-.315.736.736 0 01.092-.934.751.751 0 01.524-.217zm0 10.056a.735.735 0 01.683.457.738.738 0 01-.54 1.009.745.745 0 01-.759-.315.741.741 0 01.616-1.151zm-8.709 45.25a.735.735 0 01.684.457.739.739 0 11-.684-.457zm0-70.389a.735.735 0 01.684.457.739.739 0 11-.684-.457zm0 10.055a.743.743 0 01.726.885.744.744 0 01-.58.581.736.736 0 01-.76-.314.741.741 0 01.614-1.152zm0 10.056a.735.735 0 01.684.457.739.739 0 11-.684-.457zm0-30.166a.742.742 0 01.684.456.742.742 0 01-.54 1.009.736.736 0 01-.759-.314.741.741 0 01.615-1.151zm0-10.056a.735.735 0 01.684.457.739.739 0 11-.684-.457zm0 50.278a.742.742 0 01.684.456.742.742 0 01-.54 1.01.745.745 0 01-.759-.315.741.741 0 01.615-1.151zm0 60.333a.735.735 0 01.684.457.739.739 0 11-.684-.457zm8.709-25.139a.743.743 0 01.725.885.738.738 0 01-.581.581.745.745 0 01-.76-.315.739.739 0 01.616-1.151zm-8.709-25.139a.735.735 0 01.684.457.739.739 0 11-.684-.457zm0 60.333a.743.743 0 01.726.885.744.744 0 01-.58.581.736.736 0 01-.76-.314.741.741 0 01.614-1.152zm0-20.11a.742.742 0 01.684.456.742.742 0 01-.54 1.009.736.736 0 01-.759-.314.741.741 0 01.615-1.151zm0-30.167a.742.742 0 01.684.456.743.743 0 01-.54 1.01.745.745 0 01-.759-.315.741.741 0 01.615-1.151zm0 10.055a.743.743 0 01.726.884.736.736 0 01-.581.582.737.737 0 01-.76-.315.736.736 0 01.092-.934.739.739 0 01.523-.217zm8.709-25.138a.742.742 0 01.683.457.739.739 0 11-.683-.457zm8.708 35.194a.735.735 0 01.684.457.738.738 0 01-.54 1.009.745.745 0 01-.76-.315.741.741 0 01.616-1.151zm0 20.111a.735.735 0 01.684.457.74.74 0 11-.684-.457zm0-30.167a.743.743 0 01.726.885.744.744 0 01-.582.581.736.736 0 01-.76-.315.736.736 0 01.333-1.094.726.726 0 01.283-.057zm0 20.112a.742.742 0 01.684.457.738.738 0 01-.967.966.742.742 0 01-.4-.967.74.74 0 01.683-.456zm0-40.223a.743.743 0 01.726.885.744.744 0 01-.582.581.736.736 0 01-.76-.315.736.736 0 01.093-.934.751.751 0 01.523-.217zm0-10.055a.735.735 0 01.684.457.738.738 0 01-.967.966.737.737 0 01-.4-.966.745.745 0 01.4-.401.743.743 0 01.283-.056zm0 20.111a.735.735 0 01.684.457.738.738 0 01-.54 1.009.745.745 0 01-.76-.315.741.741 0 01.616-1.151zm8.708-85.473a.743.743 0 01.726.885.745.745 0 01-.58.581.736.736 0 01-.76-.314.741.741 0 01.614-1.152zm0 10.056a.735.735 0 01.684.457.739.739 0 11-.684-.457zM52.25 282.232a.743.743 0 01.726.885.744.744 0 01-.582.581.736.736 0 01-.76-.315.736.736 0 01.093-.934.751.751 0 01.523-.217zm0-20.111a.743.743 0 01.726.885.737.737 0 01-.582.581.745.745 0 01-.76-.315.739.739 0 01.616-1.151zm0-10.056a.742.742 0 01.523 1.264.738.738 0 01-1.138-.112.741.741 0 01.615-1.152zm-8.708-25.138a.735.735 0 01.683.457.738.738 0 01-.967.966.737.737 0 01-.4-.967.752.752 0 01.4-.4.744.744 0 01.284-.056zm8.708 45.25a.735.735 0 01.684.457.738.738 0 01-.967.966.737.737 0 01-.4-.966.745.745 0 01.4-.401.743.743 0 01.283-.056zm-8.708-5.028a.735.735 0 01.683.457.738.738 0 01-.54 1.009.745.745 0 01-.759-.315.741.741 0 01.616-1.151zm8.708-95.528a.743.743 0 01.726.885.737.737 0 01-.582.581.745.745 0 01-.76-.315.739.739 0 01.616-1.151zm-8.708 105.584a.742.742 0 01.683.457.739.739 0 11-.683-.457zm0-40.223a.743.743 0 01.725.885.745.745 0 01-.581.581.736.736 0 01-.76-.315.736.736 0 01.092-.934.751.751 0 01.524-.217zm8.708-125.694a.735.735 0 01.684.457.738.738 0 01-.54 1.009.745.745 0 01-.76-.315.741.741 0 01.616-1.151zm8.708 25.139a.742.742 0 01.684.456.742.742 0 01-.54 1.01.745.745 0 01-.759-.315.741.741 0 01.615-1.151zM43.542 257.093a.743.743 0 01.725.885.745.745 0 01-.581.581.736.736 0 01-.76-.315.736.736 0 01.092-.934.751.751 0 01.524-.217zM52.25 151.51a.735.735 0 01.684.457.74.74 0 11-.684-.457zm0 10.055a.742.742 0 01.523 1.264.738.738 0 01-1.138-.112.741.741 0 01.615-1.152zm0-30.166a.735.735 0 01.684.457.738.738 0 01-.54 1.009.745.745 0 01-.76-.315.741.741 0 01.616-1.151zm0 10.056a.742.742 0 01.684.457.738.738 0 01-.967.966.742.742 0 01-.4-.967.74.74 0 01.683-.456zm0-20.112a.743.743 0 01.726.885.744.744 0 01-.582.581.736.736 0 01-.76-.315.736.736 0 01.333-1.094.726.726 0 01.283-.057zm-8.708 125.695a.735.735 0 01.683.457.738.738 0 01-.54 1.009.737.737 0 01-.759-.315.741.741 0 01.616-1.151zM8.708 277.205a.742.742 0 01.684.456.742.742 0 01-.967.967.743.743 0 01-.457-.684.74.74 0 01.74-.739zm0-10.056a.735.735 0 01.684.457.738.738 0 01-.54 1.009.745.745 0 01-.759-.315.741.741 0 01.615-1.151zm8.709-155.861a.735.735 0 01.683.457.738.738 0 01-.54 1.009.737.737 0 01-.759-.315.741.741 0 01.616-1.151zM8.708 236.982a.735.735 0 01.684.457.738.738 0 01-.54 1.009.737.737 0 01-.759-.315.736.736 0 01.092-.934.739.739 0 01.523-.217zm0 10.056a.742.742 0 01.684.456.742.742 0 01-.967.968.739.739 0 01.283-1.424zm8.709-125.695a.743.743 0 01.725.885.745.745 0 01-.581.581.736.736 0 01-.76-.315.736.736 0 01.092-.934.751.751 0 01.524-.217zm-8.709 135.75a.743.743 0 01.726.884.736.736 0 01-.581.582.737.737 0 01-.76-.315.736.736 0 01.092-.934.739.739 0 01.523-.217zm8.709-85.472a.743.743 0 01.725.885.738.738 0 01-.581.581.745.745 0 01-.76-.315.739.739 0 01.616-1.151zm0-40.222a.735.735 0 01.683.457.738.738 0 01-.54 1.009.745.745 0 01-.759-.315.741.741 0 01.616-1.151zm0 50.278a.735.735 0 01.683.457.738.738 0 01-.967.966.737.737 0 01-.4-.967.752.752 0 01.4-.4.744.744 0 01.284-.056zm0-20.112a.743.743 0 01.725.885.745.745 0 01-.581.581.736.736 0 01-.76-.314.741.741 0 01.616-1.152zm0-10.055a.743.743 0 01.725.885.738.738 0 01-.581.581.745.745 0 01-.76-.315.741.741 0 01.616-1.151zm0-10.055a.742.742 0 01.683.457.739.739 0 11-.683-.457zm-8.709-15.084a.735.735 0 01.684.457.738.738 0 01-.54 1.009.745.745 0 01-.759-.315.739.739 0 01.615-1.151zm0 20.111a.735.735 0 01.684.457.738.738 0 01-.54 1.009.737.737 0 01-.759-.315.736.736 0 01.092-.934.739.739 0 01.523-.217zm0 20.111a.743.743 0 01.726.884.736.736 0 01-.581.582.737.737 0 01-.76-.315.736.736 0 01.092-.934.739.739 0 01.523-.217zm0-10.055a.742.742 0 01.684.456.742.742 0 01-.54 1.01.745.745 0 01-.759-.315.741.741 0 01.615-1.151zm0-20.111a.742.742 0 01.684.456.742.742 0 01-.54 1.01.745.745 0 01-.759-.315.741.741 0 01.615-1.151zm8.709 55.305a.743.743 0 01.725.885.745.745 0 01-.581.581.736.736 0 01-.76-.315.736.736 0 01.092-.934.751.751 0 01.524-.217zm-8.709 35.195a.742.742 0 01.684.456.742.742 0 01-.54 1.01.745.745 0 01-.759-.315.741.741 0 01.615-1.151zm0-110.612a.743.743 0 01.726.885.744.744 0 01-.58.581.736.736 0 01-.76-.314.741.741 0 01.614-1.152zm0 90.5a.743.743 0 01.726.885.744.744 0 01-.58.581.736.736 0 01-.76-.314.741.741 0 01.614-1.152zm0-30.166a.735.735 0 01.684.457.738.738 0 01-.54 1.009.745.745 0 01-.759-.315.741.741 0 01.615-1.151zm0 40.222a.735.735 0 01.684.457.738.738 0 01-.54 1.009.745.745 0 01-.759-.315.739.739 0 01.615-1.151zm0-20.111a.735.735 0 01.684.457.738.738 0 01-.54 1.009.745.745 0 01-.759-.315.741.741 0 01.615-1.151zm0-10.055a.742.742 0 01.684.456.742.742 0 01-.967.967.743.743 0 01-.457-.684.74.74 0 01.74-.739zm17.417-70.39a.743.743 0 01.726.885.745.745 0 01-.582.581.736.736 0 01-.76-.314.741.741 0 01.616-1.152zm0 70.39a.742.742 0 01.684.457.738.738 0 01-.967.966.742.742 0 01-.4-.967.74.74 0 01.683-.456zm0 10.055a.735.735 0 01.684.457.74.74 0 11-.684-.457zm0 10.055a.743.743 0 01.726.885.745.745 0 01-.582.581.736.736 0 01-.76-.314.741.741 0 01.616-1.152zm0-30.166a.735.735 0 01.684.457.738.738 0 01-.54 1.009.744.744 0 01-.76-.315.741.741 0 01.616-1.151zm0-10.056a.743.743 0 01.726.885.744.744 0 01-.582.581.736.736 0 01-.76-.315.736.736 0 01.093-.934.751.751 0 01.523-.217zm0 50.278a.743.743 0 01.726.885.737.737 0 01-.582.581.744.744 0 01-.76-.315.739.739 0 01.616-1.151zm0 20.111a.743.743 0 01.726.885.744.744 0 01-.582.581.736.736 0 01-.76-.315.736.736 0 01.093-.934.751.751 0 01.523-.217zm0 30.167a.735.735 0 01.684.457.738.738 0 01-.54 1.009.744.744 0 01-.76-.315.741.741 0 01.616-1.151zm-8.708-65.361a.735.735 0 01.683.457.738.738 0 01-.54 1.009.744.744 0 01-.759-.315.741.741 0 01.616-1.151zm8.708 55.305a.743.743 0 01.726.885.744.744 0 01-.582.581.736.736 0 01-.76-.315.736.736 0 01.093-.934.751.751 0 01.523-.217zm0-10.055a.735.735 0 01.684.457.738.738 0 01-.54 1.009.736.736 0 01-.76-.315.741.741 0 01.616-1.151zm0-90.5a.735.735 0 01.684.457.738.738 0 01-.54 1.009.744.744 0 01-.76-.315.741.741 0 01.616-1.151zm0 70.389a.735.735 0 01.684.457.738.738 0 01-.967.966.736.736 0 01-.4-.967.752.752 0 01.4-.4.744.744 0 01.283-.056zm0 50.278a.742.742 0 01.684.457.738.738 0 01-.967.966.742.742 0 01-.4-.967.74.74 0 01.683-.456zm-8.708-15.084a.743.743 0 01.725.885.737.737 0 01-.581.581.744.744 0 01-.76-.315.739.739 0 01.616-1.151zm0-20.111a.735.735 0 01.683.457.74.74 0 11-.683-.457zm0 10.055a.743.743 0 01.725.885.745.745 0 01-.581.581.736.736 0 01-.76-.314.741.741 0 01.616-1.152zm0-20.11a.741.741 0 01.683.457.739.739 0 11-.683-.457zm0-10.056a.735.735 0 01.683.457.738.738 0 01-.54 1.009.744.744 0 01-.759-.315.741.741 0 01.616-1.151zm0-10.056a.743.743 0 01.725.885.744.744 0 01-.581.581.736.736 0 01-.76-.315.736.736 0 01.092-.934.751.751 0 01.524-.217zm8.708-75.416a.735.735 0 01.684.457.738.738 0 01-.967.966.737.737 0 01-.4-.967.752.752 0 01.4-.4.744.744 0 01.283-.056zm-8.708 135.75a.735.735 0 01.683.457.738.738 0 01-.967.966.737.737 0 01-.4-.967.752.752 0 01.4-.4.744.744 0 01.284-.056zm8.708-125.695a.743.743 0 01.726.885.744.744 0 01-.582.581.736.736 0 01-.76-.315.736.736 0 01.093-.934.751.751 0 01.523-.217zm0-20.111a.743.743 0 01.726.885.737.737 0 01-.582.581.745.745 0 01-.76-.315.739.739 0 01.616-1.151zm-8.708 155.861a.743.743 0 01.725.885.745.745 0 01-.581.581.736.736 0 01-.76-.315.736.736 0 01.092-.934.751.751 0 01.524-.217zm17.416-170.944a.742.742 0 01.684.456.743.743 0 01-.54 1.01.745.745 0 01-.759-.315.741.741 0 01.615-1.151zm52.25 120.667a.742.742 0 01.684.456.742.742 0 01-.54 1.009.736.736 0 01-.759-.314.741.741 0 01.615-1.151zm0 50.277a.735.735 0 01.684.457.739.739 0 11-.684-.457zm0-10.055a.742.742 0 01.684.456.742.742 0 01-.539 1.01.745.745 0 01-.76-.315.741.741 0 01.615-1.151zm8.709-155.862a.743.743 0 01.725.885.745.745 0 01-.581.581.736.736 0 01-.76-.314.741.741 0 01.616-1.152zm0 10.056a.743.743 0 01.725.885.737.737 0 01-.581.581.744.744 0 01-.76-.315.739.739 0 01.616-1.151zm-8.709 135.75a.735.735 0 01.684.457.739.739 0 11-.684-.457zm0-10.056a.743.743 0 01.726.885.744.744 0 01-.58.581.737.737 0 01-.76-.314.741.741 0 01.614-1.152zm8.709-85.472a.743.743 0 01.725.885.744.744 0 01-.581.581.736.736 0 01-.76-.315.736.736 0 01.092-.934.751.751 0 01.524-.217zm0-30.166a.735.735 0 01.683.457.738.738 0 01-.967.966.737.737 0 01-.4-.967.752.752 0 01.4-.4.744.744 0 01.284-.056zm0 40.222a.735.735 0 01.683.457.738.738 0 01-.54 1.009.744.744 0 01-.759-.315.741.741 0 01.616-1.151zm0 10.056a.741.741 0 01.683.457.739.739 0 11-.683-.457zm-8.709 55.305a.735.735 0 01.684.457.739.739 0 11-.684-.457zm8.709-45.25a.743.743 0 01.725.885.737.737 0 01-.581.581.744.744 0 01-.76-.315.741.741 0 01.616-1.151zm0-50.278a.743.743 0 01.725.885.744.744 0 01-.581.581.736.736 0 01-.76-.315.736.736 0 01.092-.934.751.751 0 01.524-.217zm0 10.056a.735.735 0 01.683.457.738.738 0 01-.54 1.009.744.744 0 01-.759-.315.741.741 0 01.616-1.151zm-8.709-5.028a.735.735 0 01.684.457.739.739 0 11-.684-.457zm0-10.055a.742.742 0 01.684.456.742.742 0 01-.54 1.009.736.736 0 01-.759-.314.741.741 0 01.615-1.151zm0 30.166a.735.735 0 01.684.457.739.739 0 11-.684-.457zm0-10.056a.743.743 0 01.726.885.744.744 0 01-.58.581.737.737 0 01-.76-.314.741.741 0 01.614-1.152zm0-40.222a.743.743 0 01.726.884.736.736 0 01-.581.582.736.736 0 01-.76-.315.736.736 0 01.092-.934.739.739 0 01.523-.217zm0 10.056a.735.735 0 01.684.457.739.739 0 11-.684-.457zM104.5 282.232a.74.74 0 110 1.478.74.74 0 010-1.478zm-17.417-70.389a.743.743 0 01.726.884.736.736 0 01-.581.582.736.736 0 01-.76-.315.736.736 0 01.092-.934.739.739 0 01.523-.217zm0-30.166a.742.742 0 01.684.456.742.742 0 01-.539 1.01.745.745 0 01-.76-.315.741.741 0 01.615-1.151zm0 40.222a.735.735 0 01.684.457.739.739 0 11-.684-.457zm0-20.111a.742.742 0 01.684.456.743.743 0 01-.539 1.01.745.745 0 01-.76-.315.741.741 0 01.615-1.151zm0-10.056a.735.735 0 01.684.457.739.739 0 11-.684-.457zm8.709 55.306a.735.735 0 01.683.457.738.738 0 01-.54 1.009.736.736 0 01-.759-.315.741.741 0 01.616-1.151zm8.708-55.306a.74.74 0 110 1.478.74.74 0 010-1.478zm0 10.056a.738.738 0 01.144 1.466.743.743 0 01-.759-.315.736.736 0 01.092-.934.735.735 0 01.523-.217zm0 10.055a.74.74 0 110 1.478.74.74 0 010-1.478zm0 10.056a.738.738 0 01.144 1.466.743.743 0 01-.759-.315.736.736 0 01.092-.934.735.735 0 01.523-.217zm0-40.222a.738.738 0 11-.283 1.423.736.736 0 01-.457-.683.74.74 0 01.74-.74zm0-10.056a.74.74 0 110 1.478.74.74 0 010-1.478zm0 80.444a.74.74 0 110 1.478.74.74 0 010-1.478zm0-20.11a.738.738 0 01.144 1.465.735.735 0 01-.759-.314.737.737 0 01.092-.935.732.732 0 01.523-.216zm0 30.166a.74.74 0 110 1.478.74.74 0 010-1.478zm0 10.056a.738.738 0 11-.283 1.423.736.736 0 01-.457-.683.74.74 0 01.74-.74zm0-30.167a.738.738 0 01.144 1.466.743.743 0 01-.759-.315.736.736 0 01.092-.934.735.735 0 01.523-.217zm0-80.445a.74.74 0 110 1.478.74.74 0 010-1.478zm0-10.055a.74.74 0 110 1.478.74.74 0 010-1.478zm-8.708 115.639a.735.735 0 01.683.457.738.738 0 01-.54 1.009.744.744 0 01-.759-.315.741.741 0 01.616-1.151zm0-30.167a.743.743 0 01.725.885.744.744 0 01-.581.581.736.736 0 01-.76-.315.736.736 0 01.092-.934.751.751 0 01.524-.217zm0-30.167a.743.743 0 01.725.885.745.745 0 01-.581.581.736.736 0 01-.76-.314.741.741 0 01.616-1.152zm-8.709-95.527a.742.742 0 01.684.456.743.743 0 01-.539 1.01.745.745 0 01-.76-.315.741.741 0 01.615-1.151zm8.709 115.639a.735.735 0 01.683.457.738.738 0 01-.967.966.737.737 0 01-.4-.967.752.752 0 01.4-.4.744.744 0 01.284-.056zm0-10.056a.743.743 0 01.725.885.737.737 0 01-.581.581.744.744 0 01-.76-.315.739.739 0 01.616-1.151zm0 40.222a.743.743 0 01.725.885.744.744 0 01-.581.581.736.736 0 01-.76-.315.736.736 0 01.092-.934.751.751 0 01.524-.217zm8.708-115.638a.738.738 0 01.144 1.465.735.735 0 01-.759-.314.737.737 0 01.092-.935.732.732 0 01.523-.216zm0-10.056a.738.738 0 01.144 1.466.743.743 0 01-.759-.315.736.736 0 01.092-.934.735.735 0 01.523-.217zm0-10.056a.74.74 0 110 1.478.74.74 0 010-1.478zm0-10.055a.738.738 0 01.144 1.466.743.743 0 01-.759-.315.736.736 0 01.092-.934.735.735 0 01.523-.217zm-8.708 165.917a.741.741 0 01.683.457.739.739 0 11-.683-.457zm-17.417-30.167a.735.735 0 01.684.457.738.738 0 01-.54 1.009.745.745 0 01-.76-.315.741.741 0 01.616-1.151zm-8.708-105.583a.742.742 0 01.683.457.739.739 0 11-.683-.457zm0-10.056a.735.735 0 01.683.457.738.738 0 01-.54 1.009.745.745 0 01-.759-.315.741.741 0 01.616-1.151zm0 30.166a.743.743 0 01.725.885.745.745 0 01-.581.581.736.736 0 01-.76-.314.741.741 0 01.616-1.152zm0-10.055a.743.743 0 01.725.885.738.738 0 01-.581.581.745.745 0 01-.76-.315.741.741 0 01.616-1.151zm0-40.222a.735.735 0 01.683.457.738.738 0 01-.54 1.009.745.745 0 01-.759-.315.741.741 0 01.616-1.151zm0 10.055a.743.743 0 01.725.885.745.745 0 01-.581.581.736.736 0 01-.76-.315.736.736 0 01.092-.934.751.751 0 01.524-.217zm0 100.556a.735.735 0 01.683.457.738.738 0 01-.54 1.009.745.745 0 01-.759-.315.741.741 0 01.616-1.151zm0-10.056a.743.743 0 01.725.885.745.745 0 01-.581.581.736.736 0 01-.76-.315.736.736 0 01.092-.934.751.751 0 01.524-.217zm-8.709 65.362a.742.742 0 01.684.456.742.742 0 01-.54 1.009.736.736 0 01-.759-.314.741.741 0 01.615-1.151zm8.709-105.584a.743.743 0 01.725.885.738.738 0 01-.581.581.745.745 0 01-.76-.315.739.739 0 01.616-1.151zm0 30.167a.735.735 0 01.683.457.738.738 0 01-.54 1.009.745.745 0 01-.759-.315.741.741 0 01.616-1.151zm0-20.111a.735.735 0 01.683.457.738.738 0 01-.967.966.737.737 0 01-.4-.967.752.752 0 01.4-.4.744.744 0 01.284-.056zm-8.709 15.083a.735.735 0 01.684.457.739.739 0 11-.684-.457zm0-10.055a.742.742 0 01.684.456.742.742 0 01-.54 1.009.736.736 0 01-.759-.314.741.741 0 01.615-1.151zm8.709 45.25a.742.742 0 01.683.457.739.739 0 11-.683-.457zm-8.709-55.306a.735.735 0 01.684.457.739.739 0 11-.684-.457zm0 90.5a.735.735 0 01.684.457.739.739 0 11-.684-.457zm0-60.334a.743.743 0 01.726.885.744.744 0 01-.58.581.736.736 0 01-.76-.314.741.741 0 01.614-1.152zm0-50.277a.742.742 0 01.684.456.743.743 0 01-.54 1.01.745.745 0 01-.759-.315.741.741 0 01.615-1.151zm0 10.055a.743.743 0 01.726.884.736.736 0 01-.581.582.737.737 0 01-.76-.315.736.736 0 01.092-.934.739.739 0 01.523-.217zm0 80.445a.742.742 0 01.684.456.743.743 0 01-.54 1.01.745.745 0 01-.759-.315.741.741 0 01.615-1.151zm0 10.055a.743.743 0 01.726.884.736.736 0 01-.581.582.737.737 0 01-.76-.315.736.736 0 01.092-.934.739.739 0 01.523-.217zm0-30.166a.742.742 0 01.684.456.742.742 0 01-.54 1.01.745.745 0 01-.759-.315.741.741 0 01.615-1.151zm0 10.055a.735.735 0 01.684.457.739.739 0 11-.684-.457zm0-20.111a.735.735 0 01.684.457.739.739 0 11-.684-.457zm8.709-25.139a.743.743 0 01.725.885.745.745 0 01-.581.581.736.736 0 01-.76-.315.736.736 0 01.092-.934.751.751 0 01.524-.217zm8.708-15.083a.735.735 0 01.684.457.738.738 0 01-.54 1.009.745.745 0 01-.76-.315.741.741 0 01.616-1.151zm0 60.333a.743.743 0 01.726.885.744.744 0 01-.582.581.736.736 0 01-.76-.315.736.736 0 01.093-.934.751.751 0 01.523-.217zm0 20.111a.743.743 0 01.726.885.744.744 0 01-.582.581.736.736 0 01-.76-.315.736.736 0 01.333-1.094.726.726 0 01.283-.057zM60.958 146.482a.735.735 0 01.684.457.739.739 0 11-.684-.457zm17.417 120.667a.735.735 0 01.684.457.738.738 0 01-.54 1.009.745.745 0 01-.76-.315.741.741 0 01.616-1.151zm0-100.556a.743.743 0 01.726.885.744.744 0 01-.582.581.736.736 0 01-.76-.315.736.736 0 01.333-1.094.726.726 0 01.283-.057zm0-10.055a.735.735 0 01.684.457.738.738 0 01-.54 1.009.745.745 0 01-.76-.315.741.741 0 01.616-1.151zm0 60.333a.743.743 0 01.726.885.737.737 0 01-.582.581.745.745 0 01-.76-.315.739.739 0 01.616-1.151zm0-10.056a.742.742 0 01.523 1.264.738.738 0 01-1.138-.112.741.741 0 01.615-1.152zm0-20.11a.742.742 0 01.684.457.739.739 0 11-.684-.457zm0 10.055a.743.743 0 01.726.885.737.737 0 01-.582.581.745.745 0 01-.76-.315.741.741 0 01.616-1.151zm-8.708 45.25a.743.743 0 01.725.885.738.738 0 01-.581.581.745.745 0 01-.76-.315.741.741 0 01.616-1.151zm8.708-105.583a.735.735 0 01.684.457.738.738 0 01-.967.966.737.737 0 01-.4-.966.745.745 0 01.4-.401.743.743 0 01.283-.056zm-8.708 135.75a.735.735 0 01.683.457.738.738 0 01-.967.966.737.737 0 01-.4-.967.752.752 0 01.4-.4.744.744 0 01.284-.056zm8.708 5.028a.742.742 0 01.684.457.739.739 0 11-.684-.457zm-8.708 5.027a.743.743 0 01.725.885.745.745 0 01-.581.581.736.736 0 01-.76-.315.736.736 0 01.092-.934.751.751 0 01.524-.217zm0-30.167a.743.743 0 01.725.885.745.745 0 01-.581.581.736.736 0 01-.76-.314.741.741 0 01.616-1.152zm0 10.056a.743.743 0 01.725.885.738.738 0 01-.581.581.745.745 0 01-.76-.315.739.739 0 01.616-1.151zm8.708-145.806a.742.742 0 01.523 1.264.738.738 0 01-1.138-.112.741.741 0 01.615-1.152zm0 30.167a.743.743 0 01.726.885.744.744 0 01-.582.581.736.736 0 01-.76-.315.736.736 0 01.093-.934.751.751 0 01.523-.217zm0 80.445a.735.735 0 01.684.457.738.738 0 01-.967.966.737.737 0 01-.4-.966.745.745 0 01.4-.401.743.743 0 01.283-.056zm0-100.556a.743.743 0 01.726.885.737.737 0 01-.582.581.745.745 0 01-.76-.315.739.739 0 01.616-1.151z" fill="#8C909C"/><g clip-path="url(#a)" fill="#C2C5CB"><path d="M97.268 288h-2.952L0 233.546v-1.704l97.043 56.028.225.13zm-87.084 0L0 282.119v1.704L7.233 288h2.951zm69.442-.13L0 241.898v1.704L76.9 288h2.951l-.225-.13zm-17.416 0L0 251.952v1.704L59.483 288h2.952l-.225-.13zm-34.834 0L0 272.064v1.705L24.65 288h2.95l-.225-.13zm17.417 0L0 262.008v1.704L42.067 288h2.95l-.224-.13zM24.649 107H27.6L209 211.731v1.704L24.874 107.13l-.225-.13zm-17.191.13L209 223.491v-1.704L10.184 107H7.233l.225.13zm52.25 0L209 193.325v-1.704L62.434 107h-2.951l.225.13zm-17.417 0L209 203.381v-1.704L45.017 107h-2.95l.224.13zm34.833 0L209 183.269v-1.704L79.85 107H76.9l.224.13zm17.417 0L209 173.215v-1.704L97.267 107h-2.951l.225.13zM.075 151.441L209 272.065v1.703l-.075-.043L0 153.102v-1.705l.075.044zM0 141.343v1.704L208.925 263.67l.075.044v-1.705L.075 141.386 0 141.343zm0 20.11v1.705L208.925 283.78l.075.044v-1.703L.075 161.496 0 161.453zm0-30.166v1.704l208.925 120.623.075.044v-1.704L.075 131.33 0 131.287zm0-10.056v1.704l208.925 120.624.075.043v-1.704L.075 121.275 0 121.231zm0-10.055v1.704l208.925 120.623.075.044v-1.704L.075 111.219 0 111.176z"/></g><path d="M97.268 107h-2.952L0 52.546v-1.704l97.043 56.028.225.13zm-87.084 0L0 101.119v1.704L7.233 107h2.951zm69.442-.13L0 60.897v1.705L76.9 107h2.951l-.225-.13zm-17.416 0L0 70.952v1.704L59.483 107h2.952l-.225-.13zm-34.834 0L0 91.064v1.705L24.65 107h2.95l-.225-.13zm17.417 0L0 81.008v1.704L42.067 107h2.95l-.224-.13z" fill="#C2C5CB"/><g clip-path="url(#b)" fill="#C2C5CB"><path d="M184.351 469h-2.952L0 364.269v-1.704L184.126 468.87l.225.13zm17.191-.13L0 352.509v1.704L198.816 469h2.951l-.225-.13zm-52.25 0L0 382.675v1.704L146.566 469h2.951l-.225-.13zm17.417 0L0 372.619v1.704L163.983 469h2.951l-.225-.13zm-34.833 0L0 392.731v1.704L129.149 469h2.952l-.225-.13zm-17.417 0L0 402.785v1.704L111.733 469h2.951l-.225-.13zm-17.191.13h-2.952L0 414.546v-1.704l97.043 56.028.225.13zm-87.084 0L0 463.119v1.704L7.233 469h2.951zm69.442-.13L0 422.898v1.704L76.9 469h2.951l-.225-.13zm-17.416 0L0 432.952v1.704L59.483 469h2.952l-.225-.13zm-34.834 0L0 453.064v1.705L24.65 469h2.95l-.225-.13zm17.417 0L0 443.008v1.704L42.067 469h2.95l-.224-.13zM24.649 288H27.6L209 392.731v1.704L24.874 288.13l-.225-.13zm-17.191.13L209 404.491v-1.704L10.184 288H7.233l.225.13zm52.25 0L209 374.325v-1.704L62.434 288h-2.951l.225.13zm-17.417 0L209 384.381v-1.704L45.017 288h-2.95l.224.13zm34.833 0L209 364.269v-1.704L79.85 288H76.9l.224.13zm17.417 0L209 354.215v-1.704L97.267 288h-2.951l.225.13zm17.191-.13h2.952L209 342.454v1.704l-97.043-56.028-.225-.13zm87.084 0L209 293.881v-1.704L201.767 288h-2.951zm-69.442.13L209 334.102v-1.704L132.1 288h-2.951l.225.13zm17.416 0L209 324.048v-1.704L149.517 288h-2.952l.225.13zm34.834 0L209 303.936v-1.705L184.35 288h-2.951l.225.13zm-17.417 0L209 313.992v-1.704L166.933 288h-2.951l.225.13zM.075 332.441L209 453.065v1.703l-.075-.043L0 334.102v-1.705l.075.044zM0 322.343v1.704L208.925 444.67l.075.044v-1.705L.075 322.386 0 322.343zm0 20.11v1.705L208.925 464.78l.075.044v-1.703L.075 342.496 0 342.453zm0-30.166v1.704l208.925 120.623.075.044v-1.704L.075 312.33 0 312.287zm0-10.056v1.704l208.925 120.624.075.043v-1.704L.075 302.275 0 302.231zm0-10.055v1.704l208.925 120.623.075.044v-1.704L.075 292.219 0 292.176z"/></g><path d="M233.649 288h2.952L418 392.731v1.705L233.874 288.13l-.225-.13zm-17.191.13L418 404.491v-1.704L219.184 288h-2.951l.225.13zm52.25 0L418 374.325v-1.704L271.434 288h-2.951l.225.13zm-17.417 0L418 384.381v-1.704L254.017 288h-2.951l.225.13zm34.833 0L418 364.27v-1.705L288.851 288h-2.952l.225.13zm17.417 0L418 354.215v-1.704L306.267 288h-2.951l.225.13zm-94.466 44.311L418 453.065v1.703l-.075-.043L209 334.102v-1.705l.075.044zM209 322.343v1.704L417.925 444.67l.075.044v-1.704L209.075 322.386l-.075-.043zm0 20.11v1.705l208.925 120.623.075.043v-1.703L209.075 342.496l-.075-.043zm0-30.166v1.704l208.925 120.624.075.043v-1.704L209.075 312.33l-.075-.043zm0-10.056v1.704l208.925 120.624.075.043v-1.704L209.075 302.275l-.075-.044zm0-10.055v1.704l208.925 120.623.075.044v-1.704L209.075 292.219l-.075-.043z" fill="#C2C5CB"/><defs><clipPath id="a"><path fill="#fff" d="M209 107H0v181h209z"/></clipPath><clipPath id="b"><path fill="#fff" d="M209 288H0v181h209z"/></clipPath></defs></svg>