<svg width="32" height="32" viewBox="0 0 32 32" fill="none" xmlns="http://www.w3.org/2000/svg">
<path fill-rule="evenodd" clip-rule="evenodd" d="M16 30C19.713 30 23.274 28.525 25.8995 25.8995C28.525 23.274 30 19.713 30 16C30 12.287 28.525 8.72601 25.8995 6.1005C23.274 3.475 19.713 2 16 2C12.287 2 8.72601 3.475 6.1005 6.1005C3.475 8.72601 2 12.287 2 16C2 19.713 3.475 23.274 6.1005 25.8995C8.72601 28.525 12.287 30 16 30ZM22.487 13.737C22.8008 13.4061 22.973 12.9657 22.967 12.5096C22.9609 12.0536 22.7771 11.6179 22.4546 11.2954C22.1321 10.9729 21.6964 10.7891 21.2404 10.783C20.7843 10.777 20.344 10.9492 20.013 11.263L14.25 17.026L11.987 14.763C11.6561 14.4492 11.2157 14.277 10.7596 14.283C10.3036 14.2891 9.86794 14.4729 9.54544 14.7954C9.22295 15.1179 9.03909 15.5536 9.03303 16.0096C9.02697 16.4657 9.19919 16.906 9.513 17.237L13.013 20.737C13.3412 21.0649 13.7861 21.2491 14.25 21.2491C14.7139 21.2491 15.1588 21.0649 15.487 20.737L22.487 13.737Z" fill="white"/>
</svg>
