<svg width="25" height="25" viewBox="0 0 25 25" fill="none" xmlns="http://www.w3.org/2000/svg">
<g clip-path="url(#clip0_52_274)">
<path d="M22.3214 10.9375H20.9821V7.42188C20.9821 3.33008 17.1763 0 12.5 0C7.82366 0 4.01786 3.33008 4.01786 7.42188V10.9375H2.67857C1.19978 10.9375 0 11.9873 0 13.2812V22.6562C0 23.9502 1.19978 25 2.67857 25H22.3214C23.8002 25 25 23.9502 25 22.6562V13.2812C25 11.9873 23.8002 10.9375 22.3214 10.9375ZM16.5179 10.9375H8.48214V7.42188C8.48214 5.4834 10.2846 3.90625 12.5 3.90625C14.7154 3.90625 16.5179 5.4834 16.5179 7.42188V10.9375Z" fill="#989899"/>
</g>
<defs>
<clipPath id="clip0_52_274">
<rect width="25" height="25" fill="white"/>
</clipPath>
</defs>
</svg>
