<svg width="340" height="126" viewBox="0 0 340 126" fill="none" xmlns="http://www.w3.org/2000/svg">
<rect x="3.5" y="3.5" width="333" height="119" stroke="#764ABC" stroke-width="7"/>
<path d="M179.535 79.495C177.045 79.495 174.69 79.18 172.47 78.55C170.28 77.92 168.45 77.065 166.98 75.985L169.005 70.495C170.415 71.485 172.02 72.265 173.82 72.835C175.65 73.405 177.555 73.69 179.535 73.69C181.695 73.69 183.24 73.36 184.17 72.7C185.13 72.01 185.61 71.155 185.61 70.135C185.61 69.265 185.28 68.575 184.62 68.065C183.96 67.555 182.805 67.12 181.155 66.76L176.07 65.68C170.4 64.48 167.565 61.54 167.565 56.86C167.565 54.85 168.105 53.095 169.185 51.595C170.265 50.065 171.765 48.88 173.685 48.04C175.635 47.2 177.885 46.78 180.435 46.78C182.625 46.78 184.68 47.095 186.6 47.725C188.52 48.355 190.11 49.24 191.37 50.38L189.345 55.51C186.885 53.56 183.9 52.585 180.39 52.585C178.5 52.585 177.03 52.96 175.98 53.71C174.96 54.43 174.45 55.375 174.45 56.545C174.45 57.415 174.765 58.12 175.395 58.66C176.025 59.2 177.12 59.635 178.68 59.965L183.765 61.045C189.585 62.305 192.495 65.155 192.495 69.595C192.495 71.575 191.955 73.315 190.875 74.815C189.825 76.285 188.325 77.44 186.375 78.28C184.455 79.09 182.175 79.495 179.535 79.495ZM197.753 87.1L201.983 77.785L192.893 56.905H200.048L205.583 70.945L211.298 56.905H218.048L204.683 87.1H197.753ZM228.057 79.495C226.107 79.495 224.292 79.27 222.612 78.82C220.932 78.37 219.537 77.755 218.427 76.975L220.047 72.565C221.157 73.255 222.417 73.81 223.827 74.23C225.267 74.62 226.692 74.815 228.102 74.815C229.362 74.815 230.292 74.62 230.892 74.23C231.492 73.81 231.792 73.27 231.792 72.61C231.792 71.56 231.027 70.9 229.497 70.63L224.772 69.775C222.882 69.445 221.442 68.77 220.452 67.75C219.462 66.73 218.967 65.395 218.967 63.745C218.967 62.245 219.387 60.955 220.227 59.875C221.067 58.795 222.222 57.955 223.692 57.355C225.162 56.755 226.857 56.455 228.777 56.455C230.367 56.455 231.912 56.665 233.412 57.085C234.912 57.475 236.202 58.105 237.282 58.975L235.572 63.34C234.672 62.68 233.592 62.14 232.332 61.72C231.102 61.3 229.947 61.09 228.867 61.09C227.517 61.09 226.542 61.315 225.942 61.765C225.342 62.185 225.042 62.725 225.042 63.385C225.042 64.435 225.747 65.095 227.157 65.365L231.882 66.22C233.832 66.55 235.317 67.21 236.337 68.2C237.357 69.16 237.867 70.48 237.867 72.16C237.867 74.47 236.967 76.27 235.167 77.56C233.367 78.85 230.997 79.495 228.057 79.495ZM252.371 79.495C246.161 79.495 243.056 76.48 243.056 70.45V61.99H238.871V56.905H243.056V50.425H249.851V56.905H256.376V61.99H249.851V70.18C249.851 71.44 250.136 72.385 250.706 73.015C251.306 73.645 252.251 73.96 253.541 73.96C253.931 73.96 254.336 73.915 254.756 73.825C255.206 73.735 255.686 73.615 256.196 73.465L257.186 78.415C256.556 78.745 255.806 79 254.936 79.18C254.066 79.39 253.211 79.495 252.371 79.495ZM270.975 79.495C268.365 79.495 266.115 79.03 264.225 78.1C262.365 77.14 260.925 75.805 259.905 74.095C258.915 72.355 258.42 70.315 258.42 67.975C258.42 65.695 258.9 63.7 259.86 61.99C260.85 60.25 262.185 58.9 263.865 57.94C265.575 56.95 267.54 56.455 269.76 56.455C272.97 56.455 275.52 57.475 277.41 59.515C279.3 61.525 280.245 64.255 280.245 67.705V69.415H264.9C265.14 71.155 265.77 72.43 266.79 73.24C267.84 74.02 269.28 74.41 271.11 74.41C272.31 74.41 273.525 74.23 274.755 73.87C275.985 73.51 277.095 72.955 278.085 72.205L279.885 76.75C278.775 77.59 277.41 78.265 275.79 78.775C274.2 79.255 272.595 79.495 270.975 79.495ZM270.03 60.955C268.59 60.955 267.42 61.39 266.52 62.26C265.65 63.13 265.11 64.345 264.9 65.905H274.62C274.44 62.605 272.91 60.955 270.03 60.955ZM284.287 79V56.905H290.947V60.1C291.607 58.96 292.507 58.075 293.647 57.445C294.817 56.785 296.167 56.455 297.697 56.455C299.257 56.455 300.577 56.8 301.657 57.49C302.767 58.18 303.607 59.23 304.177 60.64C304.867 59.32 305.857 58.3 307.147 57.58C308.467 56.83 309.922 56.455 311.512 56.455C314.032 56.455 315.907 57.22 317.137 58.75C318.367 60.25 318.982 62.575 318.982 65.725V79H312.187V65.95C312.187 64.48 311.947 63.415 311.467 62.755C311.017 62.065 310.237 61.72 309.127 61.72C307.837 61.72 306.832 62.17 306.112 63.07C305.392 63.97 305.032 65.245 305.032 66.895V79H298.237V65.95C298.237 64.48 297.997 63.415 297.517 62.755C297.037 62.065 296.257 61.72 295.177 61.72C293.887 61.72 292.882 62.17 292.162 63.07C291.442 63.97 291.082 65.245 291.082 66.895V79H284.287Z" fill="#764ABC"/>
<rect x="14" y="13" width="144" height="100" fill="#764ABC"/>
<path d="M49.46 78.405C46.43 78.405 43.805 77.745 41.585 76.425C39.365 75.075 37.64 73.185 36.41 70.755C35.21 68.295 34.61 65.415 34.61 62.115C34.61 58.785 35.21 55.905 36.41 53.475C37.64 51.045 39.365 49.17 41.585 47.85C43.805 46.53 46.43 45.87 49.46 45.87C52.46 45.87 55.07 46.53 57.29 47.85C59.54 49.17 61.265 51.045 62.465 53.475C63.695 55.905 64.31 58.77 64.31 62.07C64.31 65.4 63.695 68.295 62.465 70.755C61.265 73.185 59.54 75.075 57.29 76.425C55.07 77.745 52.46 78.405 49.46 78.405ZM49.46 74.355C52.61 74.355 55.055 73.29 56.795 71.16C58.565 69 59.45 65.985 59.45 62.115C59.45 58.245 58.58 55.245 56.84 53.115C55.1 50.985 52.64 49.92 49.46 49.92C46.31 49.92 43.85 50.985 42.08 53.115C40.34 55.245 39.47 58.245 39.47 62.115C39.47 65.985 40.34 69 42.08 71.16C43.85 73.29 46.31 74.355 49.46 74.355ZM70.0876 86.1V56.04H74.5426V59.775C75.1726 58.515 76.1326 57.51 77.4226 56.76C78.7126 56.01 80.1976 55.635 81.8776 55.635C83.8276 55.635 85.5226 56.1 86.9626 57.03C88.4326 57.96 89.5576 59.28 90.3376 60.99C91.1476 62.67 91.5526 64.68 91.5526 67.02C91.5526 69.36 91.1476 71.385 90.3376 73.095C89.5576 74.805 88.4326 76.125 86.9626 77.055C85.5226 77.955 83.8276 78.405 81.8776 78.405C80.2576 78.405 78.8026 78.06 77.5126 77.37C76.2526 76.65 75.2926 75.675 74.6326 74.445V86.1H70.0876ZM80.7526 74.895C82.6426 74.895 84.1426 74.22 85.2526 72.87C86.3926 71.52 86.9626 69.57 86.9626 67.02C86.9626 64.47 86.3926 62.535 85.2526 61.215C84.1426 59.865 82.6426 59.19 80.7526 59.19C78.8626 59.19 77.3476 59.865 76.2076 61.215C75.0976 62.535 74.5426 64.47 74.5426 67.02C74.5426 69.57 75.0976 71.52 76.2076 72.87C77.3476 74.22 78.8626 74.895 80.7526 74.895ZM106.979 78.405C103.379 78.405 100.544 77.4 98.4745 75.39C96.4045 73.35 95.3695 70.575 95.3695 67.065C95.3695 64.815 95.8195 62.835 96.7195 61.125C97.6495 59.385 98.9245 58.035 100.544 57.075C102.164 56.115 104.024 55.635 106.124 55.635C109.154 55.635 111.539 56.61 113.279 58.56C115.019 60.48 115.889 63.135 115.889 66.525V68.055H99.7795C100.109 72.615 102.524 74.895 107.024 74.895C108.284 74.895 109.514 74.7 110.714 74.31C111.944 73.92 113.099 73.275 114.179 72.375L115.529 75.525C114.539 76.425 113.264 77.13 111.704 77.64C110.144 78.15 108.569 78.405 106.979 78.405ZM106.304 58.83C104.414 58.83 102.914 59.415 101.804 60.585C100.694 61.755 100.019 63.315 99.7795 65.265H112.064C111.974 63.225 111.434 61.65 110.444 60.54C109.454 59.4 108.074 58.83 106.304 58.83ZM120.844 78V56.04H125.254V59.685C126.004 58.365 127.024 57.36 128.314 56.67C129.634 55.98 131.104 55.635 132.724 55.635C137.914 55.635 140.509 58.575 140.509 64.455V78H135.964V64.725C135.964 62.835 135.589 61.455 134.839 60.585C134.119 59.715 132.979 59.28 131.419 59.28C129.589 59.28 128.119 59.865 127.009 61.035C125.929 62.175 125.389 63.69 125.389 65.58V78H120.844Z" fill="white"/>
</svg>
