<svg width="24" height="24" viewBox="0 0 24 24" fill="none" xmlns="http://www.w3.org/2000/svg">
<path fill-rule="evenodd" clip-rule="evenodd" d="M12 22C14.6522 22 17.1957 20.9464 19.0711 19.0711C20.9464 17.1957 22 14.6522 22 12C22 9.34784 20.9464 6.8043 19.0711 4.92893C17.1957 3.05357 14.6522 2 12 2C9.34784 2 6.8043 3.05357 4.92893 4.92893C3.05357 6.8043 2 9.34784 2 12C2 14.6522 3.05357 17.1957 4.92893 19.0711C6.8043 20.9464 9.34784 22 12 22ZM16.634 10.384C16.8685 10.1495 17.0002 9.83156 17.0002 9.5C17.0002 9.16844 16.8685 8.85045 16.634 8.616C16.3995 8.38155 16.0816 8.24984 15.75 8.24984C15.4184 8.24984 15.1005 8.38155 14.866 8.616L10.75 12.733L9.134 11.116C8.89955 10.8815 8.58156 10.7498 8.25 10.7498C7.91844 10.7498 7.60045 10.8815 7.366 11.116C7.13155 11.3505 6.99984 11.6684 6.99984 12C6.99984 12.3316 7.13155 12.6495 7.366 12.884L9.866 15.384C9.98208 15.5001 10.1199 15.5922 10.2716 15.6551C10.4232 15.7179 10.5858 15.7502 10.75 15.7502C10.9142 15.7502 11.0768 15.7179 11.2284 15.6551C11.3801 15.5922 11.5179 15.5001 11.634 15.384L16.634 10.384Z" fill="white"/>
</svg>
