<svg width="400" height="400" viewBox="0 0 400 400" fill="none" xmlns="http://www.w3.org/2000/svg">
<path d="M198.01 200.26H349.48" stroke="#faf9f6" stroke-width="12" stroke-miterlimit="10" stroke-linecap="round" stroke-linejoin="round"/>
<path d="M106.79 354.92H227.2" stroke="#faf9f6" stroke-width="12" stroke-miterlimit="10" stroke-linecap="round" stroke-linejoin="round"/>
<path d="M178.59 200.26H155.4V354.92H178.59V200.26Z" stroke="#faf9f6" stroke-width="12" stroke-miterlimit="10" stroke-linecap="round" stroke-linejoin="round"/>
<path d="M90.31 176.38H119.53" stroke="#a36de9" stroke-width="12" stroke-miterlimit="10" stroke-linecap="round" stroke-linejoin="round"/>
<path d="M243.77 75.9299H112.8C87.52 75.9299 67.03 96.4199 67.03 121.7V200.16H198.16" stroke="#faf9f6" stroke-width="12" stroke-miterlimit="10" stroke-linecap="round" stroke-linejoin="round"/>
<path d="M288.41 111.55C283.79 91.1599 265.56 75.9299 243.77 75.9299C218.49 75.9299 198 96.4199 198 121.7V200.16H289.53V176.38" stroke="#faf9f6" stroke-width="12" stroke-miterlimit="10" stroke-linecap="round" stroke-linejoin="round"/>
<path d="M159.87 46.5498V100.95" stroke="#a36de9" stroke-width="12" stroke-miterlimit="10" stroke-linecap="round" stroke-linejoin="round"/>
<path d="M182.25 44.9199H159.87V56.5199H182.25V44.9199Z" stroke="#a36de9" stroke-width="12" stroke-miterlimit="10" stroke-linecap="round" stroke-linejoin="round"/>
<path d="M338.34 111.55H236.82V176.38H338.34V111.55Z" stroke="#a36de9" stroke-width="12" stroke-miterlimit="10" stroke-linecap="round" stroke-linejoin="round"/>
<path d="M236.82 111.55L287.58 143.97L338.34 111.55" stroke="#a36de9" stroke-width="12" stroke-miterlimit="10" stroke-linecap="round" stroke-linejoin="round"/>
<path d="M338.34 111.55H236.82V176.38H338.34V111.55Z" stroke="#a36de9" stroke-width="12" stroke-miterlimit="10" stroke-linecap="round" stroke-linejoin="round"/>
</svg>
