<svg xmlns="http://www.w3.org/2000/svg" width="256" height="256" viewBox="0 0 100 100"><path fill="#10b981" d="M0.34 56.47L0.34 56.47Q0.41 56.17 0.68 56.21Q0.95 56.25 1.17 56.17L1.17 56.17Q0.56 55.56 0.41 54.53Q0.26 53.50-0.35 52.82L-0.35 52.82Q-0.20 52.44-0.08 52.06Q0.03 51.68 0.56 51.75L0.56 51.75Q0.34 50.08 0.64 48.63Q0.95 47.18 1.59 45.89Q2.24 44.59 3.12 43.33Q3.99 42.08 4.83 40.78L4.83 40.78Q5.52 40.63 5.67 40.90Q5.82 41.16 6.20 40.78L6.20 40.78Q7.42 39.95 7.88 38.92Q8.33 37.89 8.33 36.67L8.33 36.67Q9.02 34.69 9.90 32.75Q10.77 30.80 11.91 29.13Q13.06 27.45 14.35 26.20Q15.65 24.94 17.17 24.25L17.17 24.25Q18.24 23.34 19.87 22.58Q21.51 21.82 23.38 21.40Q25.24 20.98 27.22 20.94Q29.21 20.90 30.88 21.36L30.88 21.36Q31.26 21.51 31.34 21.17Q31.41 20.83 31.72 20.83L31.72 20.83Q35.53 21.28 38.54 22.35Q41.54 23.42 43.68 25.32L43.68 25.32Q45.13 27.61 46.42 30.23Q47.71 32.86 48.44 35.72Q49.16 38.57 49.09 41.62Q49.01 44.67 47.79 47.71L47.79 47.71Q45.13 51.07 41.32 53.08Q37.51 55.10 33.13 56.44Q28.75 57.77 24.06 58.61Q19.38 59.45 14.96 60.44L14.96 60.44Q15.04 62.49 14.96 64.82Q14.88 67.14 14.47 69.46Q14.05 71.79 13.25 73.99Q12.45 76.20 11.08 78.11L11.08 78.11Q9.55 78.03 7.92 78.41Q6.28 78.79 4.98 79.17L4.98 79.17Q4.37 78.79 3.80 78.45Q3.23 78.11 2.39 78.03L2.39 78.03Q2.62 77.12 1.97 76.13Q1.33 75.14 0.68 74.18Q0.03 73.23-0.16 72.28Q-0.35 71.33 0.72 70.57L0.72 70.57Q0.11 70.03 0.11 68.89L0.11 68.89Q0.41 69.20 0.87 69.20L0.87 69.20Q0.72 67.82 1.21 65.92Q1.71 64.02 2.05 62.15Q2.39 60.28 2.16 58.72Q1.94 57.16 0.34 56.47ZM20.14 38.65L20.14 38.65Q19.84 39.49 19.65 40.14Q19.46 40.78 19.23 41.32Q19.00 41.85 18.73 42.38Q18.46 42.92 18.16 43.60L18.16 43.60Q18.31 44.06 18.77 44.29Q19.23 44.52 19.38 44.97L19.38 44.97Q20.45 44.44 21.51 44.17Q22.58 43.91 23.64 43.75Q24.71 43.60 25.78 43.37Q26.84 43.14 27.99 42.61L27.99 42.61Q29.13 42.08 30.39 41.74Q31.64 41.39 32.86 41.01Q34.08 40.63 35.22 40.14Q36.37 39.64 37.20 38.80L37.20 38.80Q36.14 37.81 34.00 37.05Q31.87 36.29 29.40 36.10Q26.92 35.91 24.44 36.44Q21.97 36.97 20.14 38.65ZM47.79 43.60L47.79 43.60Q48.02 42.46 48.10 41.74Q48.17 41.01 47.56 40.17L47.56 40.17Q47.87 38.96 48.06 38.27Q48.25 37.58 48.10 36.37L48.10 36.37Q48.78 34.38 50.19 33.01Q51.60 31.64 53.28 30.69Q54.95 29.74 56.78 29.09Q58.61 28.44 60.21 27.99L60.21 27.99Q60.21 27.68 59.90 27.68Q59.60 27.68 59.75 27.30L59.75 27.30Q63.86 26.54 68.01 25.09Q72.17 23.64 76.51 22.50Q80.85 21.36 85.42 21.09Q89.99 20.83 95.02 22.27L95.02 22.27Q95.32 23.19 95.86 24.03Q96.39 24.86 96.96 25.66Q97.53 26.46 97.99 27.22Q98.45 27.99 98.52 28.82L98.52 28.82Q99.44 29.66 100.01 30.61Q100.58 31.57 100.20 33.17L100.20 33.17Q99.36 33.78 98.45 34.38Q97.53 34.99 96.54 35.53L96.54 35.53Q93.11 34.69 89.69 34.92Q86.26 35.15 83.52 35.45L83.52 35.45Q82.68 34.54 81.54 34.58Q80.39 34.61 79.14 34.96Q77.88 35.30 76.66 35.64Q75.44 35.98 74.38 35.83L74.38 35.83Q73.54 36.59 72.17 36.86Q70.79 37.13 69.27 37.28L69.27 37.28Q69.20 37.66 69.42 37.81Q69.65 37.96 69.50 38.42L69.50 38.42Q70.03 39.11 70.95 39.37Q71.86 39.64 72.81 39.87Q73.77 40.10 74.53 40.52Q75.29 40.94 75.52 41.85L75.52 41.85Q76.89 41.93 77.88 42.57Q78.87 43.22 79.55 44.13Q80.24 45.05 80.54 46.08Q80.85 47.11 80.77 47.94L80.77 47.94Q81.08 48.71 81.42 48.55Q81.76 48.40 82.22 48.93L82.22 48.93Q82.53 50.08 83.63 51.33Q84.73 52.59 85.34 54.04L85.34 54.04Q85.50 56.32 85.61 58.15Q85.72 59.98 84.96 61.73L84.96 61.73Q83.67 65.08 81.23 67.75Q78.79 70.41 75.71 72.43Q72.62 74.45 69.20 75.94Q65.77 77.42 62.42 78.41L62.42 78.41Q62.11 78.34 61.69 78.41Q61.27 78.49 61.50 77.96L61.50 77.96Q60.82 78.56 59.94 78.72Q59.06 78.87 58.04 78.83Q57.01 78.79 55.98 78.72Q54.95 78.64 53.96 78.79L53.96 78.79Q53.35 78.18 52.86 77.57Q52.36 76.96 52.06 76.13L52.06 76.13Q51.68 76.05 51.71 75.63Q51.75 75.21 51.37 75.21L51.37 75.21Q51.37 74.91 51.45 74.76Q51.52 74.60 51.60 74.45L51.60 74.45Q51.90 74.22 51.87 74.11Q51.83 73.99 51.64 73.88Q51.45 73.77 51.26 73.61Q51.07 73.46 51.14 73.23L51.14 73.23Q51.52 72.55 51.41 71.59Q51.29 70.64 51.22 69.65Q51.14 68.66 51.37 67.79Q51.60 66.91 52.67 66.30L52.67 66.30Q55.79 66.61 58.57 66.00Q61.35 65.39 63.83 64.32Q66.30 63.25 68.55 62.00Q70.79 60.74 72.93 59.67L72.93 59.67Q73.16 58.91 73.65 58.38Q74.15 57.85 74.68 57.35Q75.21 56.86 75.67 56.28Q76.13 55.71 76.36 54.88L76.36 54.88Q76.43 54.57 76.36 54.42Q76.28 54.27 76.13 54.15Q75.97 54.04 75.82 53.88Q75.67 53.73 75.67 53.43L75.67 53.43Q75.44 53.35 75.25 53.28Q75.06 53.20 74.91 53.20L74.91 53.20Q72.93 52.21 70.72 51.52Q68.51 50.84 66.99 50L66.99 50Q66.07 50.61 65.16 50.30Q64.24 50 62.95 49.70L62.95 49.70Q59.75 49.54 56.89 49.09Q54.04 48.63 51.37 47.49L51.37 47.49Q51.22 47.03 50.99 46.69Q50.76 46.34 49.92 46.50L49.92 46.50Q49.39 45.73 48.82 45.09Q48.25 44.44 47.79 43.60Z"></path></svg>