<svg width="493" height="504" viewBox="0 0 493 504" fill="none" xmlns="http://www.w3.org/2000/svg">
<path d="M376.367 0H116.592C52.2001 0 0 53.3694 0 119.204V384.796C0 450.631 52.2001 504 116.592 504H376.367C440.758 504 492.958 450.631 492.958 384.796V119.204C492.958 53.3694 440.758 0 376.367 0Z" fill="url(#paint0_linear_1422_413)"/>
<path d="M376.367 0H116.592C52.2001 0 0 53.3694 0 119.204V384.796C0 450.631 52.2001 504 116.592 504H376.367C440.758 504 492.958 450.631 492.958 384.796V119.204C492.958 53.3694 440.758 0 376.367 0Z" fill="url(#paint1_linear_1422_413)"/>
<path d="M376.367 0H116.592C52.2001 0 0 53.3694 0 119.204V384.796C0 450.631 52.2001 504 116.592 504H376.367C440.758 504 492.958 450.631 492.958 384.796V119.204C492.958 53.3694 440.758 0 376.367 0Z" fill="url(#paint2_linear_1422_413)"/>
<path d="M376.367 0H116.592C52.2001 0 0 53.3694 0 119.204V384.796C0 450.631 52.2001 504 116.592 504H376.367C440.758 504 492.958 450.631 492.958 384.796V119.204C492.958 53.3694 440.758 0 376.367 0Z" fill="url(#paint3_linear_1422_413)"/>
<path d="M159.142 198.783L144.47 219.456L259.845 305.071L274.517 284.399L159.142 198.783Z" fill="white"/>
<path d="M233.22 198.783L218.548 219.456L333.923 305.071L348.595 284.399L233.22 198.783Z" fill="white"/>
<path d="M246.568 92.9707C184.443 92.9707 133.913 132.449 133.913 180.966V181.953H158.963V180.966C158.963 146.535 198.329 118.509 246.64 118.509C294.951 118.509 334.317 146.535 334.317 180.966V181.953H359.367V180.966C359.225 132.449 308.694 92.9707 246.568 92.9707Z" fill="white"/>
<path d="M334.067 322.999C334.067 357.428 294.701 385.455 246.353 385.455C198.007 385.455 158.676 357.428 158.676 322.999V322.011H133.626V322.999C133.626 371.515 184.156 410.993 246.282 410.993C308.407 410.993 358.938 371.515 358.938 322.999V322.011H333.887L334.067 322.999Z" fill="white"/>
<defs>
<linearGradient id="paint0_linear_1422_413" x1="446.829" y1="47.1254" x2="48.4828" y2="436.781" gradientUnits="userSpaceOnUse">
<stop stop-color="#2DCCFD"/>
<stop offset="1" stop-color="#AD20E2"/>
</linearGradient>
<linearGradient id="paint1_linear_1422_413" x1="446.829" y1="456.838" x2="48.4471" y2="67.1835" gradientUnits="userSpaceOnUse">
<stop stop-color="#A829E2"/>
<stop offset="0.05" stop-color="#A829E2" stop-opacity="0.84"/>
<stop offset="0.11" stop-color="#A829E2" stop-opacity="0.67"/>
<stop offset="0.18" stop-color="#A829E2" stop-opacity="0.51"/>
<stop offset="0.25" stop-color="#A829E2" stop-opacity="0.38"/>
<stop offset="0.33" stop-color="#A829E2" stop-opacity="0.28"/>
<stop offset="0.43" stop-color="#A829E2" stop-opacity="0.2"/>
<stop offset="0.54" stop-color="#A829E2" stop-opacity="0.14"/>
<stop offset="0.68" stop-color="#A829E2" stop-opacity="0.11"/>
<stop offset="1" stop-color="#A829E2" stop-opacity="0.1"/>
</linearGradient>
<linearGradient id="paint2_linear_1422_413" x1="46.1287" y1="456.838" x2="444.476" y2="67.1828" gradientUnits="userSpaceOnUse">
<stop stop-color="#E50E99"/>
<stop offset="1" stop-color="#A829E2" stop-opacity="0.1"/>
</linearGradient>
<linearGradient id="paint3_linear_1422_413" x1="446.829" y1="47.162" x2="48.4479" y2="436.78" gradientUnits="userSpaceOnUse">
<stop stop-color="#21D4FD"/>
<stop offset="0.03" stop-color="#27CDFC" stop-opacity="0.96"/>
<stop offset="0.23" stop-color="#4E9CF4" stop-opacity="0.7"/>
<stop offset="0.43" stop-color="#6E73EE" stop-opacity="0.49"/>
<stop offset="0.61" stop-color="#8753E9" stop-opacity="0.32"/>
<stop offset="0.77" stop-color="#993CE5" stop-opacity="0.2"/>
<stop offset="0.9" stop-color="#A42EE3" stop-opacity="0.13"/>
<stop offset="1" stop-color="#A829E2" stop-opacity="0.1"/>
</linearGradient>
</defs>
</svg>
