<svg xmlns="http://www.w3.org/2000/svg" viewBox="0 0 190 190"><path d="M23.795 44.668A81.647 81.647 0 0 0 0 102.218l.008.151c14.347.016 37.932.24 48.705-.044.01-8.545 3.808-16.848 9.816-22.925z" fill="#4d5a2f"/><path d="M37.01 33.936a81.647 81.647 0 0 0-11.02 8.685l34.938 34.317 1.693-1.534-25.469-41.347z" fill="#94d60a"/><path d="M81.646 20.572a81.647 81.647 0 0 0-41.703 11.565l24.637 42.11c5.49-2.559 11.825-4.48 17.066-4.538z" fill="#6ca437"/><path d="M149.113 56.451c-12.083 11.99-24.62 23.525-36.638 35.58 1.11 2.672 1.102 4.314 1.892 7.217l48.735-.544c-.678-14.95-5.453-29.727-13.801-42.147z" fill="#4d5a2f"/><path d="M163.277 102.639l-49.152.21a32.51 32.51 0 0 1-8.898 21.694l-.393.977 34.889 34.044a81.647 81.647 0 0 0 23.554-56.925z" fill="#6ca437"/><path d="M102.609 127.319l-2.013 1.378 26.484 41.313h.008a81.646 81.646 0 0 0 9.758-7.766l-.02-.285z" fill="#4d5a2f"/><path d="M98.69 130.604c-8.7 3.11-19.519 6.185-28.746 2.416-5.777 12.715-13.255 30.399-19.348 44.617 16.345 6.963 22.866 6.273 37.28 6.07 14.415-.202 24.857-4.998 35.522-11.436L98.69 130.604z" fill="#94d60a"/><path d="M61.059 127.355L27.08 162.383l.106.537a81.647 81.647 0 0 0 20.341 13.37l.528-.136 19.058-44.896a32.51 32.51 0 0 1-6.054-3.903z" fill="#4d5a2f"/><path d="M54.182 119.596l-41.932 24.99v.457a81.647 81.647 0 0 0 11.826 15.01h.461l34.4-34.614a32.51 32.51 0 0 1-4.755-5.843z" fill="#6ca437"/><path d="M.17 105.605a81.647 81.647 0 0 0 9.957 35.975l42.164-25.172c-1.341-3.645-2.209-6.769-3.389-10.38z" fill="#94d60a"/><path d="M85.861 20.74s-.32 42.515-.607 49.213c3.234.405 3.477.973 6.406 2.227 5.55-5.487 36.63-36.854 36.63-36.854-12.353-8.636-27.384-13.684-42.429-14.586z" fill="#4d5a2f"/><path d="M160.482 0a23.152 23.06 0 0 0-23.152 23.06 23.152 23.06 0 0 0 2.63 10.659L91.888 81.793A23.152 23.06 0 0 0 81.682 79.4a23.152 23.06 0 0 0-23.153 23.059 23.152 23.06 0 0 0 23.153 23.06 23.152 23.06 0 0 0 23.152-23.06 23.152 23.06 0 0 0-2.934-11.178l48.81-47.345a23.152 23.06 0 0 0 9.772 2.183 23.152 23.06 0 0 0 23.153-23.058A23.152 23.06 0 0 0 160.482 0z" fill="#a6a5a7"/></svg>
