<svg xmlns="http://www.w3.org/2000/svg" xmlns:xlink="http://www.w3.org/1999/xlink" width="500" height="500" viewBox="0 0 500 500">
  <defs>
    <rect id="pattern-distribution-module-top-left-mono-ink-500x500-a" width="500" height="500" x="0" y="0"/>
  </defs>
  <g fill="none" fill-rule="evenodd">
    <mask id="pattern-distribution-module-top-left-mono-ink-500x500-b" fill="#fff">
      <use xlink:href="#pattern-distribution-module-top-left-mono-ink-500x500-a"/>
    </mask>
    <g mask="url(#pattern-distribution-module-top-left-mono-ink-500x500-b)">
      <g transform="translate(-210 -360)">
        <path fill="#292C36" d="M18.5865971,168.219762 L262.586597,13.5718751 C275.659872,5.28599675 292.340128,5.28599675 305.413403,13.5718751 L549.413403,168.219762 C560.986614,175.554896 568,188.303405 568,202.005354 L568,391.994646 C568,405.696595 560.986614,418.445104 549.413403,425.780238 L305.413403,580.428125 C292.340128,588.714003 275.659872,588.714003 262.586597,580.428125 L18.5865971,425.780238 C7.01338644,418.445104 1.9932667e-14,405.696595 0,391.994646 L0,202.005354 C1.253285e-14,188.303405 7.01338644,175.554896 18.5865971,168.219762 Z"/>
        <polygon fill="#424854" points="416.086 291 434 291 433.997 551.5 416 551.5"/>
        <polygon fill="#424854" points="461.086 361.5 479 361.5 478.997 515.5 461 515.5"/>
      </g>
    </g>
  </g>
</svg>
