<svg width="527" height="496" viewBox="0 0 527 496" fill="none" xmlns="http://www.w3.org/2000/svg">
<rect x="60.6105" y="56" width="310" height="381" fill="url(#paint0_linear_1528_425)"/>
<mask id="path-2-inside-1_1528_425" fill="white">
<path d="M0 0H526.832V496H0V0Z"/>
</mask>
<path d="M0 0H526.832V496H0V0Z" stroke="url(#paint1_linear_1528_425)" stroke-width="60" mask="url(#path-2-inside-1_1528_425)"/>
<mask id="path-3-outside-2_1528_425" maskUnits="userSpaceOnUse" x="98.6105" y="93" width="362" height="307" fill="black">
<rect fill="white" x="98.6105" y="93" width="362" height="307"/>
<path d="M100.611 393.415V99.5846H196.35C219.739 99.5846 237.777 107.92 250.463 124.591C263.149 140.985 269.492 163.908 269.492 193.36C269.492 222.813 263.149 245.875 250.463 262.546C237.777 279.217 219.739 287.553 196.35 287.553H146.696V393.415H100.611ZM146.696 237.539H188.619C213 237.539 225.19 222.813 225.19 193.36C225.19 164.464 213 150.015 188.619 150.015H146.696V237.539Z"/>
<path d="M372.98 398C356.528 398 340.968 395.083 326.3 389.248C311.83 383.413 299.739 375.494 290.026 365.491L303.406 314.644C312.722 323.813 323.327 331.037 335.22 336.316C347.311 341.596 359.898 344.235 372.98 344.235C387.252 344.235 397.46 341.179 403.605 335.066C409.948 328.675 413.12 320.757 413.12 311.309C413.12 303.252 410.939 296.861 406.578 292.138C402.218 287.414 394.586 283.385 383.684 280.051L350.086 270.048C312.623 258.934 293.892 231.704 293.892 188.359C293.892 169.743 297.459 153.488 304.595 139.596C311.731 125.425 321.642 114.45 334.328 106.67C347.212 98.89 362.078 95 378.927 95C393.397 95 406.975 97.9175 419.661 103.752C432.347 109.587 442.852 117.784 451.177 128.342L437.798 175.856C421.544 157.795 401.821 148.765 378.63 148.765C366.142 148.765 356.429 152.238 349.492 159.184C342.752 165.853 339.383 174.605 339.383 185.442C339.383 193.499 341.464 200.029 345.626 205.03C349.789 210.032 357.024 214.061 367.331 217.117L400.929 227.12C439.383 238.79 458.611 265.186 458.611 306.308C458.611 324.646 455.043 340.762 447.907 354.655C440.969 368.27 431.058 378.967 418.174 386.747C405.488 394.249 390.424 398 372.98 398Z"/>
</mask>
<path d="M100.611 393.415V99.5846H196.35C219.739 99.5846 237.777 107.92 250.463 124.591C263.149 140.985 269.492 163.908 269.492 193.36C269.492 222.813 263.149 245.875 250.463 262.546C237.777 279.217 219.739 287.553 196.35 287.553H146.696V393.415H100.611ZM146.696 237.539H188.619C213 237.539 225.19 222.813 225.19 193.36C225.19 164.464 213 150.015 188.619 150.015H146.696V237.539Z" fill="#FAFAFA"/>
<path d="M372.98 398C356.528 398 340.968 395.083 326.3 389.248C311.83 383.413 299.739 375.494 290.026 365.491L303.406 314.644C312.722 323.813 323.327 331.037 335.22 336.316C347.311 341.596 359.898 344.235 372.98 344.235C387.252 344.235 397.46 341.179 403.605 335.066C409.948 328.675 413.12 320.757 413.12 311.309C413.12 303.252 410.939 296.861 406.578 292.138C402.218 287.414 394.586 283.385 383.684 280.051L350.086 270.048C312.623 258.934 293.892 231.704 293.892 188.359C293.892 169.743 297.459 153.488 304.595 139.596C311.731 125.425 321.642 114.45 334.328 106.67C347.212 98.89 362.078 95 378.927 95C393.397 95 406.975 97.9175 419.661 103.752C432.347 109.587 442.852 117.784 451.177 128.342L437.798 175.856C421.544 157.795 401.821 148.765 378.63 148.765C366.142 148.765 356.429 152.238 349.492 159.184C342.752 165.853 339.383 174.605 339.383 185.442C339.383 193.499 341.464 200.029 345.626 205.03C349.789 210.032 357.024 214.061 367.331 217.117L400.929 227.12C439.383 238.79 458.611 265.186 458.611 306.308C458.611 324.646 455.043 340.762 447.907 354.655C440.969 368.27 431.058 378.967 418.174 386.747C405.488 394.249 390.424 398 372.98 398Z" fill="#FAFAFA"/>
<path d="M100.611 393.415V99.5846H196.35C219.739 99.5846 237.777 107.92 250.463 124.591C263.149 140.985 269.492 163.908 269.492 193.36C269.492 222.813 263.149 245.875 250.463 262.546C237.777 279.217 219.739 287.553 196.35 287.553H146.696V393.415H100.611ZM146.696 237.539H188.619C213 237.539 225.19 222.813 225.19 193.36C225.19 164.464 213 150.015 188.619 150.015H146.696V237.539Z" stroke="#616161" stroke-width="4" mask="url(#path-3-outside-2_1528_425)"/>
<path d="M372.98 398C356.528 398 340.968 395.083 326.3 389.248C311.83 383.413 299.739 375.494 290.026 365.491L303.406 314.644C312.722 323.813 323.327 331.037 335.22 336.316C347.311 341.596 359.898 344.235 372.98 344.235C387.252 344.235 397.46 341.179 403.605 335.066C409.948 328.675 413.12 320.757 413.12 311.309C413.12 303.252 410.939 296.861 406.578 292.138C402.218 287.414 394.586 283.385 383.684 280.051L350.086 270.048C312.623 258.934 293.892 231.704 293.892 188.359C293.892 169.743 297.459 153.488 304.595 139.596C311.731 125.425 321.642 114.45 334.328 106.67C347.212 98.89 362.078 95 378.927 95C393.397 95 406.975 97.9175 419.661 103.752C432.347 109.587 442.852 117.784 451.177 128.342L437.798 175.856C421.544 157.795 401.821 148.765 378.63 148.765C366.142 148.765 356.429 152.238 349.492 159.184C342.752 165.853 339.383 174.605 339.383 185.442C339.383 193.499 341.464 200.029 345.626 205.03C349.789 210.032 357.024 214.061 367.331 217.117L400.929 227.12C439.383 238.79 458.611 265.186 458.611 306.308C458.611 324.646 455.043 340.762 447.907 354.655C440.969 368.27 431.058 378.967 418.174 386.747C405.488 394.249 390.424 398 372.98 398Z" stroke="#616161" stroke-width="4" mask="url(#path-3-outside-2_1528_425)"/>
<defs>
<linearGradient id="paint0_linear_1528_425" x1="185.037" y1="124.756" x2="632.685" y2="495.626" gradientUnits="userSpaceOnUse">
<stop stop-color="#531EA7"/>
<stop offset="0.391643" stop-color="#10B981"/>
</linearGradient>
<linearGradient id="paint1_linear_1528_425" x1="167.11" y1="163.5" x2="576.006" y2="524.876" gradientUnits="userSpaceOnUse">
<stop stop-color="#531EA7"/>
<stop offset="0.461101" stop-color="#10B981"/>
</linearGradient>
</defs>
</svg>
