<svg xmlns="http://www.w3.org/2000/svg" width="823" height="534" fill="none" viewBox="0 0 823 534"><path stroke="url(#paint0_linear_570_354)" stroke-width="25" d="M45.5 12.5H741.5V521.5H45.5V12.5Z"/><path fill="url(#paint1_linear_570_354)" d="M106.837 52.6479H545.518V473.831H106.837V52.6479Z"/><path fill="#1EF04C" d="M10.7232 452.48C8.26312 451.965 6.35441 451.121 4.99711 449.946C3.72464 448.697 2.74907 447.265 2.07042 445.649C1.4766 443.96 1.05244 442.123 0.797949 440.14C0.628286 438.157 0.416207 436.101 0.161713 433.971C0.501039 433.016 0.925196 432.208 1.43419 431.547C2.02801 430.886 2.2825 429.968 2.19767 428.792C3.13082 426.442 3.97913 424.165 4.74261 421.962C5.5061 419.758 6.01509 417.481 6.26958 415.131C6.77857 414.47 7.28756 414.029 7.79655 413.809C8.4752 409.622 8.56003 405.326 8.05104 400.919C7.54205 396.512 6.69374 392.435 5.5061 388.69C5.59093 387.882 5.71818 387.294 5.88784 386.927C6.0575 386.486 6.0575 386.119 5.88784 385.825C5.71818 385.164 5.97267 384.833 6.65132 384.833C7.32998 384.833 8.00863 384.833 8.68728 384.833C8.68728 383.511 8.39037 382.226 7.79655 380.977C7.28756 379.655 6.77857 378.15 6.26958 376.46C6.94823 375.138 7.41481 373.853 7.6693 372.604C7.9238 371.356 8.39037 370.217 9.06902 369.189C11.7836 369.923 14.4558 370.768 17.0856 371.723C19.7154 372.678 22.3027 373.633 24.8477 374.587C27.3926 375.469 29.8952 376.35 32.3553 377.232C34.8154 378.04 37.2331 378.701 39.6084 379.215C43.2561 381.492 46.9887 383.768 50.8061 386.045C54.7084 388.249 58.2289 390.709 61.3676 393.427C64.5912 396.071 67.2634 399.119 69.3842 402.571C71.505 406.023 72.7351 410.1 73.0744 414.8C72.9047 415.241 72.7775 415.608 72.6927 415.902C72.6078 416.196 72.523 416.49 72.4382 416.784C72.3533 417.077 72.3109 417.408 72.3109 417.775C72.3109 418.142 72.3109 418.657 72.3109 419.318C69.257 423.945 65.3971 427.838 60.7314 430.996C56.0657 434.154 50.9758 436.945 45.4617 439.369C39.9477 441.793 34.1791 444.033 28.1561 446.09C22.2179 448.073 16.4069 450.203 10.7232 452.48ZM23.1935 390.012C22.43 390.012 21.8786 390.159 21.5393 390.452C22.5572 393.757 23.3207 396.879 23.8297 399.817C24.3387 402.755 24.5932 405.693 24.5932 408.631C24.678 411.569 24.5084 414.58 24.0842 417.665C23.66 420.75 23.0662 424.092 22.3027 427.691C23.4055 427.617 24.3811 427.434 25.2294 427.14C26.0777 426.846 26.9261 426.516 27.7744 426.148C28.7075 425.781 29.6407 425.451 30.5738 425.157C31.5918 424.863 32.737 424.679 34.0095 424.606C34.3488 424.018 34.773 423.578 35.282 423.284C35.8758 422.917 36.3848 422.549 36.8089 422.182C38.9297 421.448 41.0505 420.676 43.1713 419.868C45.2921 419.06 47.2432 418.142 49.0247 417.114C50.8061 416.086 52.4179 414.911 53.8601 413.589C55.3022 412.267 56.4898 410.687 57.423 408.851C56.7443 407.749 55.896 406.831 54.878 406.097C53.9449 405.289 52.9269 404.518 51.8241 403.783C50.8061 402.975 49.7881 402.167 48.7702 401.359C47.837 400.478 47.0735 399.486 46.4797 398.385C45.1224 398.238 43.9348 397.944 42.9168 397.503C41.8988 396.989 40.9233 396.512 39.9901 396.071C39.057 395.557 38.039 395.08 36.9362 394.639C35.9182 394.198 34.6881 393.941 33.246 393.868C31.0404 392.839 29.0468 392.142 27.2654 391.774C25.4839 391.334 24.1266 390.746 23.1935 390.012Z"/><path fill="#1EF04C" d="M144.715 389.24C144.799 389.755 144.799 390.159 144.715 390.452C144.715 390.673 144.672 390.893 144.587 391.113C144.587 391.334 144.587 391.591 144.587 391.885C144.587 392.105 144.672 392.472 144.842 392.986C143.06 395.484 140.982 397.21 138.607 398.164C136.316 399.046 133.814 399.707 131.099 400.148C128.385 400.515 125.585 400.919 122.701 401.359C119.901 401.8 117.102 402.755 114.303 404.224C113.2 403.857 112.182 403.857 111.249 404.224C110.4 404.591 109.128 404.701 107.431 404.554C106.922 404.995 106.286 405.326 105.522 405.546C104.759 405.693 103.995 405.876 103.232 406.097C103.571 406.758 103.699 407.456 103.614 408.19C103.614 408.851 103.741 409.402 103.995 409.843C106.965 410.063 110.231 410.026 113.794 409.733C117.441 409.439 121.004 409.255 124.482 409.182C124.567 409.549 124.525 409.806 124.355 409.953C124.185 410.026 124.143 410.21 124.228 410.504C124.822 410.871 125.415 411.348 126.009 411.936C126.603 412.45 127.197 412.964 127.791 413.478C128.385 413.993 128.978 414.433 129.572 414.8C130.251 415.094 131.014 415.204 131.863 415.131C132.202 415.719 132.414 416.38 132.499 417.114C132.669 417.775 132.584 418.473 132.244 419.207C130.887 420.015 129.53 420.86 128.172 421.741C126.815 422.549 125.373 423.284 123.846 423.945C122.404 424.606 120.835 425.157 119.138 425.597C117.526 425.965 115.702 426.112 113.666 426.038C113.242 426.038 112.903 426.038 112.648 426.038C112.479 426.038 112.224 425.928 111.885 425.708C111.206 426.075 110.231 426.185 108.958 426.038C107.77 425.891 106.837 426.001 106.159 426.369C105.226 426.001 104.08 425.854 102.723 425.928C101.451 425.928 100.305 425.781 99.2873 425.487C97.93 427.03 96.7 428.682 95.5972 430.445C94.4944 432.208 93.5188 434.081 92.6705 436.064C95.5547 436.431 97.93 436.578 99.7963 436.505C101.747 436.431 103.571 436.321 105.268 436.174C106.965 435.954 108.704 435.77 110.485 435.623C112.267 435.403 114.515 435.329 117.229 435.403C118.926 434.595 120.919 434.081 123.21 433.86C125.585 433.567 127.748 433.126 129.699 432.538C130.378 432.759 130.972 433.163 131.481 433.75C131.99 434.264 132.456 434.778 132.881 435.293C133.39 435.733 133.899 436.137 134.408 436.505C134.917 436.872 135.553 437.019 136.316 436.945C136.656 437.239 136.868 437.606 136.953 438.047C137.122 438.414 137.249 438.781 137.334 439.149C137.419 439.516 137.546 439.846 137.716 440.14C137.971 440.361 138.352 440.434 138.861 440.361C137.589 442.784 136.104 444.657 134.408 445.979C132.796 447.228 130.929 448.183 128.809 448.844C126.688 449.505 124.313 450.019 121.683 450.386C119.138 450.754 116.296 451.194 113.157 451.708C112.394 451.855 111.758 451.819 111.249 451.598C110.74 451.451 110.146 451.378 109.467 451.378C107.516 451.745 105.183 452.076 102.469 452.369C99.7539 452.663 96.9969 452.773 94.1974 452.7C91.398 452.626 88.7258 452.296 86.1809 451.708C83.6359 451.194 81.5575 450.239 79.9457 448.844C79.2671 448.33 78.8005 447.742 78.546 447.081C78.3764 446.347 77.825 445.796 76.8918 445.429C76.807 444.474 76.6373 443.409 76.3828 442.234C76.1283 441.058 75.8738 439.846 75.6193 438.598C75.3648 437.276 75.1528 435.99 74.9831 434.742C74.8983 433.493 74.9831 432.355 75.2376 431.326C75.4921 430.225 76.0011 429.233 76.7646 428.352C77.6129 427.47 77.9098 426.516 77.6553 425.487C78.0795 425.414 78.3339 425.23 78.4188 424.936C78.5036 424.569 78.8429 424.422 79.4368 424.496C79.9457 423.174 80.4972 421.925 81.091 420.75C81.6848 419.575 82.2786 418.436 82.8724 417.334C83.5511 416.233 84.1873 415.131 84.7811 414.029C85.4598 412.854 86.096 411.569 86.6899 410.173C85.5022 409.218 84.6115 408.19 84.0177 407.088C83.5087 405.913 83.1269 404.775 82.8724 403.673C82.6179 402.498 82.4059 401.323 82.2362 400.148C82.0665 398.899 81.7696 397.65 81.3455 396.402C82.1938 395.3 83.2118 394.419 84.3994 393.757C85.6719 393.023 87.0292 392.435 88.4713 391.995C89.9134 391.554 91.4828 391.187 93.1795 390.893C94.8761 390.599 96.6576 390.269 98.5238 389.901C101.917 388.947 104.929 388.212 107.558 387.698C110.273 387.184 112.903 386.78 115.448 386.486C118.078 386.119 120.792 385.788 123.592 385.495C126.391 385.201 129.572 384.76 133.135 384.172C133.899 384.833 134.62 385.164 135.298 385.164C135.638 384.503 136.019 384.319 136.444 384.613C136.953 384.833 137.165 384.613 137.08 383.952C137.928 385.201 138.988 386.266 140.261 387.147C141.618 387.955 143.103 388.653 144.715 389.24Z"/><path fill="#1EF04C" d="M184.034 431.877C183.949 432.906 183.652 433.897 183.143 434.852C182.719 435.733 182.168 436.615 181.489 437.496C180.81 438.304 180.047 439.112 179.199 439.92C178.435 440.654 177.672 441.315 176.908 441.903C177.163 442.858 177.163 443.592 176.908 444.106C176.739 444.547 176.696 445.245 176.781 446.2C175.508 449.138 173.557 451.084 170.928 452.039C168.383 453.067 165.965 452.884 163.674 451.488C162.741 450.9 161.935 450.166 161.257 449.285C160.663 448.33 159.815 447.742 158.712 447.522C158.966 446.273 158.839 445.025 158.33 443.776C157.821 442.527 157.27 441.866 156.676 441.793C156.421 440.25 156.04 438.598 155.531 436.835C155.022 435.072 154.555 433.31 154.131 431.547C153.707 429.711 153.325 427.948 152.986 426.258C152.731 424.496 152.646 422.88 152.731 421.411C152.816 420.676 152.646 420.015 152.222 419.428C151.883 418.84 151.628 418.142 151.459 417.334C151.119 415.645 150.992 413.882 151.077 412.046C151.247 410.137 151.331 408.337 151.331 406.648C151.331 405.032 151.204 403.306 150.95 401.47C150.78 399.56 150.61 397.76 150.441 396.071C150.271 394.308 150.186 392.729 150.186 391.334C150.186 389.865 150.398 388.726 150.822 387.918C151.331 387.037 152.01 386.339 152.858 385.825C153.792 385.237 154.64 384.613 155.403 383.952C157.27 384.099 158.754 384.76 159.857 385.935C160.96 387.11 161.384 388.212 161.13 389.24C162.911 390.195 164.311 391.444 165.329 392.986C166.431 394.455 167.28 396.145 167.874 398.054C168.552 399.89 169.019 401.874 169.273 404.004C169.528 406.06 169.74 408.117 169.91 410.173C170.079 412.156 170.249 414.066 170.419 415.902C170.588 417.738 170.928 419.318 171.437 420.64C174.575 416.747 177.205 413.295 179.326 410.283C181.447 407.199 183.61 404.261 185.815 401.47C188.021 398.679 190.481 395.851 193.196 392.986C195.91 390.122 199.431 386.89 203.757 383.291C204.606 383.365 205.284 383.511 205.793 383.732C206.387 383.952 206.896 384.136 207.32 384.283C207.744 384.43 208.253 384.576 208.847 384.723C209.441 384.797 210.247 384.76 211.265 384.613C211.604 385.348 211.859 385.898 212.028 386.266C212.198 386.56 212.325 386.89 212.41 387.257C212.58 387.551 212.749 387.955 212.919 388.469C213.174 388.983 213.555 389.718 214.064 390.673C214.319 390.893 214.404 391.187 214.319 391.554C214.234 391.921 214.149 392.289 214.064 392.656C214.064 392.95 214.064 393.17 214.064 393.317C214.064 393.464 214.276 393.464 214.701 393.317C214.446 394.345 213.98 395.3 213.301 396.181C212.707 396.989 212.453 397.981 212.537 399.156C210.586 401.359 208.423 403.636 206.048 405.987C203.757 408.337 201.424 410.761 199.049 413.258C196.759 415.755 194.553 418.399 192.432 421.191C190.312 423.908 188.488 426.773 186.961 429.784C186.537 429.784 186.197 429.894 185.943 430.114C185.773 430.335 185.603 430.592 185.434 430.886C185.264 431.106 185.052 431.326 184.797 431.547C184.628 431.767 184.373 431.877 184.034 431.877Z"/><path fill="#1EF04C" d="M275.907 389.24C275.991 389.755 275.991 390.159 275.907 390.452C275.907 390.673 275.864 390.893 275.779 391.113C275.779 391.334 275.779 391.591 275.779 391.885C275.779 392.105 275.864 392.472 276.034 392.986C274.252 395.484 272.174 397.21 269.799 398.164C267.508 399.046 265.006 399.707 262.291 400.148C259.576 400.515 256.777 400.919 253.893 401.359C251.093 401.8 248.294 402.755 245.494 404.224C244.392 403.857 243.374 403.857 242.441 404.224C241.592 404.591 240.32 404.701 238.623 404.554C238.114 404.995 237.478 405.326 236.714 405.546C235.951 405.693 235.187 405.876 234.424 406.097C234.763 406.758 234.891 407.456 234.806 408.19C234.806 408.851 234.933 409.402 235.187 409.843C238.157 410.063 241.423 410.026 244.985 409.733C248.633 409.439 252.196 409.255 255.674 409.182C255.759 409.549 255.717 409.806 255.547 409.953C255.377 410.026 255.335 410.21 255.42 410.504C256.014 410.871 256.607 411.348 257.201 411.936C257.795 412.45 258.389 412.964 258.983 413.478C259.576 413.993 260.17 414.433 260.764 414.8C261.443 415.094 262.206 415.204 263.055 415.131C263.394 415.719 263.606 416.38 263.691 417.114C263.86 417.775 263.776 418.473 263.436 419.207C262.079 420.015 260.722 420.86 259.364 421.741C258.007 422.549 256.565 423.284 255.038 423.945C253.596 424.606 252.026 425.157 250.33 425.597C248.718 425.965 246.894 426.112 244.858 426.038C244.434 426.038 244.095 426.038 243.84 426.038C243.671 426.038 243.416 425.928 243.077 425.708C242.398 426.075 241.423 426.185 240.15 426.038C238.962 425.891 238.029 426.001 237.351 426.369C236.417 426.001 235.272 425.854 233.915 425.928C232.642 425.928 231.497 425.781 230.479 425.487C229.122 427.03 227.892 428.682 226.789 430.445C225.686 432.208 224.711 434.081 223.862 436.064C226.747 436.431 229.122 436.578 230.988 436.505C232.939 436.431 234.763 436.321 236.46 436.174C238.157 435.954 239.896 435.77 241.677 435.623C243.458 435.403 245.707 435.329 248.421 435.403C250.118 434.595 252.111 434.081 254.402 433.86C256.777 433.567 258.94 433.126 260.891 432.538C261.57 432.759 262.164 433.163 262.673 433.75C263.182 434.264 263.648 434.778 264.073 435.293C264.582 435.733 265.091 436.137 265.6 436.505C266.108 436.872 266.745 437.019 267.508 436.945C267.848 437.239 268.06 437.606 268.144 438.047C268.314 438.414 268.441 438.781 268.526 439.149C268.611 439.516 268.738 439.846 268.908 440.14C269.162 440.361 269.544 440.434 270.053 440.361C268.781 442.784 267.296 444.657 265.6 445.979C263.988 447.228 262.121 448.183 260.001 448.844C257.88 449.505 255.505 450.019 252.875 450.386C250.33 450.754 247.488 451.194 244.349 451.708C243.586 451.855 242.949 451.819 242.441 451.598C241.932 451.451 241.338 451.378 240.659 451.378C238.708 451.745 236.375 452.076 233.66 452.369C230.946 452.663 228.189 452.773 225.389 452.7C222.59 452.626 219.918 452.296 217.373 451.708C214.828 451.194 212.749 450.239 211.138 448.844C210.459 448.33 209.992 447.742 209.738 447.081C209.568 446.347 209.017 445.796 208.084 445.429C207.999 444.474 207.829 443.409 207.575 442.234C207.32 441.058 207.066 439.846 206.811 438.598C206.557 437.276 206.345 435.99 206.175 434.742C206.09 433.493 206.175 432.355 206.43 431.326C206.684 430.225 207.193 429.233 207.956 428.352C208.805 427.47 209.102 426.516 208.847 425.487C209.271 425.414 209.526 425.23 209.611 424.936C209.696 424.569 210.035 424.422 210.629 424.496C211.138 423.174 211.689 421.925 212.283 420.75C212.877 419.575 213.471 418.436 214.064 417.334C214.743 416.233 215.379 415.131 215.973 414.029C216.652 412.854 217.288 411.569 217.882 410.173C216.694 409.218 215.803 408.19 215.21 407.088C214.701 405.913 214.319 404.775 214.064 403.673C213.81 402.498 213.598 401.323 213.428 400.148C213.258 398.899 212.962 397.65 212.537 396.402C213.386 395.3 214.404 394.419 215.591 393.757C216.864 393.023 218.221 392.435 219.663 391.995C221.105 391.554 222.675 391.187 224.371 390.893C226.068 390.599 227.849 390.269 229.716 389.901C233.109 388.947 236.121 388.212 238.75 387.698C241.465 387.184 244.095 386.78 246.64 386.486C249.269 386.119 251.984 385.788 254.783 385.495C257.583 385.201 260.764 384.76 264.327 384.172C265.091 384.833 265.812 385.164 266.49 385.164C266.83 384.503 267.211 384.319 267.635 384.613C268.144 384.833 268.357 384.613 268.272 383.952C269.12 385.201 270.18 386.266 271.453 387.147C272.81 387.955 274.295 388.653 275.907 389.24Z"/><path fill="#1EF04C" d="M306.446 450.056C304.071 450.717 301.483 451.378 298.684 452.039C295.884 452.7 293.085 453.03 290.285 453.03C286.044 453.03 282.693 452.112 280.233 450.276C279.809 449.468 279.427 448.917 279.088 448.624C278.833 448.33 278.579 448.036 278.324 447.742C278.155 447.375 278.027 446.897 277.942 446.31C276.925 445.282 276.119 444.106 275.525 442.784C274.931 441.389 274.507 439.993 274.252 438.598C274.083 437.129 274.04 435.66 274.125 434.191C274.295 432.722 274.592 431.326 275.016 430.004C275.185 429.711 275.27 429.417 275.27 429.123C275.355 428.829 275.44 428.499 275.525 428.131C275.864 426.956 276.203 425.818 276.543 424.716C276.967 423.614 277.518 422.659 278.197 421.852C277.858 421.191 277.858 420.456 278.197 419.648C278.536 418.84 278.918 418.106 279.342 417.445C280.53 414.654 281.505 412.303 282.269 410.394C283.117 408.41 283.966 406.464 284.814 404.554C286.256 401.249 287.613 397.981 288.886 394.749C290.158 391.517 291.303 388.029 292.321 384.283C293 383.915 293.509 383.658 293.848 383.511C294.357 383.365 294.782 383.254 295.121 383.181C296.648 383.842 298.429 384.503 300.465 385.164C302.501 385.752 304.198 386.045 305.555 386.045C306.234 386.413 306.658 386.706 306.828 386.927C306.997 387.074 307.167 387.221 307.337 387.367C308.27 388.322 309.076 389.314 309.754 390.342C310.433 391.297 310.645 392.582 310.391 394.198C309.882 394.859 309.5 395.19 309.245 395.19C308.821 396.659 308.355 397.907 307.846 398.936C307.421 399.964 306.955 400.992 306.446 402.02C305.852 403.122 305.301 404.224 304.792 405.326C304.283 406.427 303.859 407.786 303.519 409.402C303.18 409.769 302.925 410.1 302.756 410.394C302.671 410.687 302.544 411.018 302.374 411.385C302.204 411.752 301.992 412.156 301.738 412.597C301.568 412.964 301.271 413.295 300.847 413.589C300.593 415.498 300.168 417.041 299.575 418.216C299.066 419.391 298.514 420.566 297.92 421.741C296.902 423.871 295.969 426.001 295.121 428.131C294.357 430.261 293.891 432.685 293.721 435.403C294.145 435.256 294.527 435.182 294.866 435.182C295.291 435.182 295.672 435.182 296.012 435.182C296.775 435.182 297.666 435.293 298.684 435.513C301.229 434.338 303.986 433.64 306.955 433.42C310.009 433.199 313.02 433.052 315.989 432.979C317.177 432.979 318.365 432.979 319.552 432.979C320.74 432.979 321.843 432.906 322.861 432.759C323.624 433.126 324.091 433.346 324.26 433.42C324.515 433.42 324.854 433.42 325.278 433.42C325.872 433.42 326.381 433.456 326.805 433.53C327.823 434.338 328.799 434.925 329.732 435.293C330.665 435.66 331.641 435.99 332.659 436.284C333.592 436.578 334.483 436.908 335.331 437.276C336.264 437.57 337.155 438.01 338.003 438.598L338.894 443.335C339.488 443.996 339.742 444.437 339.657 444.657C339.657 445.245 339.488 445.686 339.148 445.979L339.403 447.191C338.13 447.412 337.24 447.669 336.731 447.962C336.307 448.256 335.882 448.587 335.458 448.954C334.78 449.027 334.271 449.064 333.931 449.064C333.677 449.064 333.422 449.064 333.168 449.064C331.98 449.064 330.538 449.248 328.841 449.615C326.551 448.954 324.176 448.624 321.716 448.624C320.782 448.624 319.807 448.66 318.789 448.734C317.771 448.807 316.753 448.881 315.735 448.954C314.717 449.101 313.657 449.211 312.554 449.285C311.536 449.358 310.475 449.395 309.373 449.395L306.446 450.056Z"/><path fill="#1EF04C" d="M416.515 418.216C416.43 419.097 416.515 419.942 416.769 420.75C417.024 421.558 417.321 422.366 417.66 423.174C418.084 423.908 418.466 424.679 418.805 425.487C419.145 426.295 419.399 427.103 419.569 427.911C419.738 428.939 419.738 430.078 419.569 431.326C419.399 432.502 419.102 433.677 418.678 434.852C418.254 435.954 417.702 436.982 417.024 437.937C416.345 438.818 415.539 439.479 414.606 439.92C413.418 441.242 411.976 442.27 410.28 443.005C408.583 443.739 407.014 444.621 405.571 445.649C404.638 446.163 403.578 446.53 402.39 446.751C401.288 446.971 400.142 447.191 398.955 447.412C398.021 447.852 396.919 448.33 395.646 448.844C394.374 449.285 393.059 449.725 391.702 450.166C390.344 450.533 388.987 450.827 387.63 451.047C386.272 451.194 385.085 451.231 384.067 451.157C381.522 451.965 379.019 452.48 376.559 452.7C374.184 452.994 371.384 452.847 368.161 452.259C365.107 452.626 362.265 452.516 359.635 451.929C357.09 451.341 354.8 450.423 352.764 449.174C350.813 447.852 349.074 446.31 347.547 444.547C346.105 442.711 344.917 440.801 343.984 438.818C343.305 434.632 343.475 430.849 344.493 427.47C345.511 424.018 346.953 420.86 348.819 417.995C350.77 415.058 352.976 412.377 355.436 409.953C357.896 407.456 360.271 405.032 362.562 402.681C363.071 402.828 363.453 402.828 363.707 402.681C364.046 402.461 364.343 402.204 364.598 401.91C364.852 401.543 365.107 401.213 365.361 400.919C365.701 400.625 366.082 400.441 366.507 400.368C367.1 399.266 367.949 398.458 369.052 397.944C370.239 397.356 371.172 396.549 371.851 395.52C372.614 395.373 373.251 395.153 373.76 394.859C374.269 394.565 374.735 394.235 375.159 393.868C375.668 393.5 376.177 393.17 376.686 392.876C377.195 392.509 377.789 392.252 378.468 392.105V390.893C379.995 390.305 381.098 389.644 381.776 388.91C382.54 388.102 383.43 387.147 384.448 386.045C385.212 385.972 385.806 385.935 386.23 385.935C386.739 385.935 387.46 385.862 388.393 385.715C389.072 384.687 389.666 383.915 390.175 383.401C390.768 382.887 391.617 382.336 392.72 381.749C393.738 382.189 394.84 382.483 396.028 382.63C397.3 382.777 398.403 383.254 399.336 384.062C399.421 384.797 399.676 385.384 400.1 385.825C400.524 386.192 400.991 386.56 401.5 386.927C402.009 387.221 402.475 387.551 402.899 387.918C403.408 388.286 403.748 388.8 403.917 389.461C404.257 389.534 404.469 389.497 404.554 389.351C404.723 389.204 404.978 389.167 405.317 389.24C405.571 390.269 405.868 390.966 406.208 391.334C406.547 391.627 406.886 392.252 407.226 393.207C406.802 393.941 406.462 394.712 406.208 395.52C406.038 396.255 405.529 396.806 404.681 397.173C404.596 397.687 404.766 397.981 405.19 398.054C405.614 398.054 405.868 398.238 405.953 398.605C406.038 399.266 405.911 399.744 405.571 400.037C407.607 402.902 409.431 405.95 411.043 409.182C412.655 412.34 414.479 415.351 416.515 418.216ZM400.609 428.682C400.948 427.874 401.372 427.213 401.881 426.699C402.475 426.185 402.814 425.414 402.899 424.386C402.475 423.798 402.221 423.357 402.136 423.063C402.051 422.696 402.009 422.145 402.009 421.411C400.142 419.134 398.53 416.71 397.173 414.139C395.816 411.495 394.289 409.035 392.592 406.758C392.423 407.052 392.126 407.345 391.702 407.639C391.277 407.933 390.811 407.86 390.302 407.419C390.132 408.006 389.835 408.447 389.411 408.741C388.987 408.961 388.52 409.072 388.011 409.072C387.502 408.998 386.951 408.888 386.357 408.741C385.848 408.521 385.382 408.264 384.957 407.97C382.497 409.659 380.037 411.312 377.577 412.928C375.117 414.543 372.911 416.416 370.96 418.546C370.621 418.693 370.409 418.767 370.324 418.767C370.239 418.693 369.985 418.73 369.561 418.877C368.882 420.272 368.034 421.558 367.016 422.733C366.082 423.835 365.149 424.973 364.216 426.148C363.283 427.323 362.477 428.572 361.798 429.894C361.12 431.216 360.738 432.759 360.653 434.521C362.095 435.55 363.792 436.174 365.743 436.394C367.694 436.615 369.688 436.651 371.724 436.505C373.845 436.358 375.88 436.137 377.832 435.843C379.868 435.476 381.734 435.293 383.43 435.293C386.993 434.558 390.047 433.603 392.592 432.428C395.137 431.18 397.809 429.931 400.609 428.682Z"/><path fill="#1EF04C" d="M469.704 382.961C473.267 383.328 476.448 383.952 479.248 384.833C482.047 385.715 484.422 386.89 486.374 388.359C487.731 390.195 489.003 392.178 490.191 394.308C491.463 396.438 492.397 398.679 492.99 401.029C493.669 403.306 493.966 405.656 493.881 408.08C493.881 410.504 493.287 412.964 492.1 415.462C489.64 418.106 486.628 420.272 483.065 421.962C479.587 423.578 475.812 424.9 471.74 425.928C467.668 426.956 463.427 427.838 459.015 428.572C454.689 429.307 450.447 430.041 446.291 430.776C446.375 432.465 446.375 434.264 446.291 436.174C446.291 438.01 446.079 439.883 445.654 441.793C445.315 443.629 444.764 445.429 444 447.191C443.237 448.954 442.219 450.57 440.946 452.039C439.504 452.039 438.02 452.186 436.493 452.48C434.966 452.847 433.608 453.141 432.421 453.361C431.827 453.067 431.275 452.773 430.766 452.48C430.342 452.259 429.706 452.112 428.858 452.039C429.027 451.304 428.815 450.57 428.222 449.835C427.628 449.027 427.034 448.22 426.44 447.412C425.846 446.604 425.422 445.832 425.168 445.098C424.998 444.364 425.422 443.666 426.44 443.005C425.846 442.491 425.549 441.83 425.549 441.022C426.143 440.14 426.652 438.928 427.076 437.386C427.585 435.843 427.967 434.338 428.222 432.869C428.561 431.326 428.646 429.931 428.476 428.682C428.306 427.434 427.458 426.516 425.931 425.928C426.016 425.781 426.186 425.708 426.44 425.708C426.695 425.708 426.949 425.671 427.204 425.597C426.525 425.157 426.101 424.532 425.931 423.724C425.846 422.917 425.549 422.219 425.04 421.631C425.21 421.264 425.337 420.933 425.422 420.64C425.507 420.346 425.804 420.236 426.313 420.309C426.058 418.987 426.058 417.738 426.313 416.563C426.652 415.388 427.119 414.286 427.713 413.258C428.306 412.156 429.027 411.091 429.876 410.063C430.724 409.035 431.53 408.006 432.293 406.978C432.887 406.905 433.227 406.978 433.311 407.199C433.481 407.419 433.778 407.382 434.202 407.088C435.305 406.354 436.068 405.583 436.493 404.775C436.917 403.967 437.129 403.049 437.129 402.02C437.723 400.478 438.444 398.936 439.292 397.393C440.14 395.777 441.073 394.308 442.091 392.986C443.109 391.664 444.212 390.489 445.4 389.461C446.672 388.432 447.987 387.661 449.345 387.147C450.363 386.413 451.635 385.752 453.162 385.164C454.689 384.503 456.343 384.026 458.125 383.732C459.906 383.365 461.688 383.181 463.469 383.181C465.335 383.107 467.032 383.254 468.559 383.622C468.983 383.768 469.195 383.695 469.195 383.401C469.28 383.107 469.45 382.961 469.704 382.961ZM464.487 409.292C466.608 408.484 468.856 407.86 471.231 407.419C473.691 406.905 475.727 405.987 477.339 404.665C476.321 403.857 474.836 403.159 472.885 402.571C470.934 401.91 468.813 401.506 466.523 401.359C464.232 401.213 461.9 401.396 459.524 401.91C457.234 402.351 455.24 403.232 453.544 404.554C453.035 405.876 452.611 406.941 452.271 407.749C451.932 408.484 451.465 409.402 450.872 410.504C451.041 410.871 451.296 411.165 451.635 411.385C452.059 411.532 452.356 411.789 452.526 412.156C454.477 411.275 456.428 410.798 458.379 410.724C460.415 410.577 462.451 410.1 464.487 409.292Z"/><path fill="#1EF04C" d="M578.119 449.285C577.27 449.652 576.465 449.982 575.701 450.276C575.022 450.57 574.217 450.717 573.283 450.717C569.975 448.587 568.236 444.878 568.066 439.589C567.981 434.301 569.296 427.581 572.011 419.428C572.435 419.207 572.647 418.767 572.647 418.106L571.502 417.004C571.163 417.004 570.823 417.041 570.484 417.114C570.229 417.188 570.017 417.445 569.848 417.885C567.642 419.281 565.224 420.75 562.595 422.292C559.965 423.761 557.208 425.157 554.324 426.479C551.524 427.727 548.64 428.756 545.671 429.564C542.786 430.372 539.945 430.776 537.145 430.776C530.019 430.776 524.675 427.654 521.112 421.411L520.094 419.758L519.076 421.191C518.822 421.484 518.44 422.109 517.931 423.063C517.422 423.945 516.913 424.973 516.404 426.148C515.895 427.323 515.428 428.535 515.004 429.784C514.665 430.959 514.538 431.987 514.622 432.869C513.859 433.53 513.053 434.301 512.205 435.182C511.356 436.064 510.72 437.055 510.296 438.157C510.126 438.745 510.211 439.296 510.55 439.81C510.381 440.471 509.999 440.985 509.405 441.352C509.066 441.719 508.684 442.087 508.26 442.454C507.921 442.748 507.624 443.078 507.369 443.445C507.2 443.813 507.072 444.18 506.988 444.547C506.988 444.914 506.945 445.282 506.86 445.649C506.86 446.163 506.775 446.64 506.606 447.081C505.164 449.652 504.018 451.304 503.17 452.039C502.322 452.847 501.177 453.251 499.734 453.251C499.056 453.251 497.953 453.141 496.426 452.92C495.323 451.892 494.305 450.496 493.372 448.734C492.524 446.897 491.845 444.951 491.336 442.895C490.912 440.838 490.7 438.781 490.7 436.725C490.785 434.595 491.209 432.759 491.972 431.216C491.972 431.143 492.312 430.408 492.99 429.013C493.669 427.617 494.517 425.818 495.535 423.614C496.638 421.411 497.868 418.987 499.225 416.343C500.583 413.625 501.94 411.018 503.297 408.521C504.655 405.95 505.927 403.6 507.115 401.47C508.387 399.34 509.448 397.724 510.296 396.622C510.975 395.741 511.568 394.933 512.077 394.198C512.671 393.39 513.223 392.619 513.732 391.885C515.259 389.608 516.701 387.735 518.058 386.266C519.5 384.723 521.579 383.511 524.293 382.63C526.159 383.291 527.517 384.062 528.365 384.944L528.62 386.156C528.959 386.89 529.468 387.257 530.147 387.257C531.08 387.478 531.843 387.698 532.437 387.918C533.116 388.065 533.837 388.212 534.6 388.359C535.194 388.947 535.745 389.644 536.254 390.452C536.933 391.334 537.569 392.215 538.163 393.096C538.842 393.904 539.351 394.749 539.69 395.63C540.114 396.438 540.326 397.283 540.326 398.164C540.411 399.046 540.242 399.964 539.817 400.919L539.945 402.02C540.369 402.681 540.454 403.6 540.199 404.775C540.114 405.289 540.072 405.84 540.072 406.427C540.072 406.941 540.157 407.529 540.326 408.19C541.853 409.218 543.211 409.733 544.398 409.733C545.756 409.733 546.986 409.475 548.088 408.961C549.276 408.374 550.379 407.786 551.397 407.199C552.076 406.758 552.754 406.391 553.433 406.097C554.111 405.73 554.79 405.509 555.469 405.436C556.996 404.187 558.353 403.085 559.541 402.131C560.813 401.176 562.128 400.221 563.485 399.266C566.03 397.503 568.49 395.594 570.866 393.537C573.241 391.481 575.15 388.91 576.592 385.825C577.44 385.384 578.331 385.164 579.264 385.164C580.197 385.164 581.173 385.348 582.191 385.715C583.209 386.082 584.184 386.449 585.117 386.817C585.372 386.964 585.584 387.074 585.754 387.147C586.008 387.221 586.22 387.294 586.39 387.367C586.39 388.102 586.729 388.726 587.408 389.24C587.747 389.461 587.959 389.608 588.044 389.681C588.129 389.755 588.256 389.828 588.426 389.901C589.698 390.489 590.504 391.077 590.844 391.664C591.437 393.354 592.498 394.639 594.025 395.52C593.855 396.255 593.855 396.952 594.025 397.614C594.279 398.201 594.576 398.825 594.915 399.486C595 399.707 595.085 399.927 595.17 400.148C595.255 400.368 595.382 400.625 595.552 400.919L593.134 400.698L593.516 402.792C593.685 403.82 593.558 404.958 593.134 406.207C592.795 407.456 592.37 408.447 591.861 409.182C591.946 411.091 591.989 412.597 591.989 413.699C592.074 414.727 592.031 415.719 591.861 416.673C591.692 417.555 591.437 418.399 591.098 419.207C590.844 420.015 590.462 420.897 589.953 421.852C590.292 426.552 589.656 430.849 588.044 434.742C586.517 438.561 584.905 442.16 583.209 445.539C583.039 445.906 582.827 446.273 582.572 446.64C582.403 447.008 582.233 447.375 582.063 447.742C581.3 447.962 580.621 448.22 580.027 448.513C579.434 448.734 578.797 448.991 578.119 449.285Z"/><path fill="#1EF04C" d="M667.192 389.24C667.277 389.755 667.277 390.159 667.192 390.452C667.192 390.673 667.149 390.893 667.065 391.113C667.065 391.334 667.065 391.591 667.065 391.885C667.065 392.105 667.149 392.472 667.319 392.986C665.538 395.484 663.459 397.21 661.084 398.164C658.794 399.046 656.291 399.707 653.576 400.148C650.862 400.515 648.062 400.919 645.178 401.359C642.379 401.8 639.579 402.755 636.78 404.224C635.677 403.857 634.659 403.857 633.726 404.224C632.878 404.591 631.605 404.701 629.908 404.554C629.399 404.995 628.763 405.326 628 405.546C627.236 405.693 626.473 405.876 625.709 406.097C626.049 406.758 626.176 407.456 626.091 408.19C626.091 408.851 626.218 409.402 626.473 409.843C629.442 410.063 632.708 410.026 636.271 409.733C639.919 409.439 643.481 409.255 646.96 409.182C647.044 409.549 647.002 409.806 646.832 409.953C646.663 410.026 646.62 410.21 646.705 410.504C647.299 410.871 647.893 411.348 648.487 411.936C649.08 412.45 649.674 412.964 650.268 413.478C650.862 413.993 651.456 414.433 652.049 414.8C652.728 415.094 653.492 415.204 654.34 415.131C654.679 415.719 654.891 416.38 654.976 417.114C655.146 417.775 655.061 418.473 654.722 419.207C653.364 420.015 652.007 420.86 650.65 421.741C649.292 422.549 647.85 423.284 646.323 423.945C644.881 424.606 643.312 425.157 641.615 425.597C640.003 425.965 638.179 426.112 636.144 426.038C635.719 426.038 635.38 426.038 635.126 426.038C634.956 426.038 634.701 425.928 634.362 425.708C633.683 426.075 632.708 426.185 631.435 426.038C630.248 425.891 629.315 426.001 628.636 426.369C627.703 426.001 626.558 425.854 625.2 425.928C623.928 425.928 622.783 425.781 621.765 425.487C620.407 427.03 619.177 428.682 618.074 430.445C616.972 432.208 615.996 434.081 615.148 436.064C618.032 436.431 620.407 436.578 622.274 436.505C624.225 436.431 626.049 436.321 627.745 436.174C629.442 435.954 631.181 435.77 632.962 435.623C634.744 435.403 636.992 435.329 639.706 435.403C641.403 434.595 643.397 434.081 645.687 433.86C648.062 433.567 650.226 433.126 652.177 432.538C652.855 432.759 653.449 433.163 653.958 433.75C654.467 434.264 654.934 434.778 655.358 435.293C655.867 435.733 656.376 436.137 656.885 436.505C657.394 436.872 658.03 437.019 658.794 436.945C659.133 437.239 659.345 437.606 659.43 438.047C659.599 438.414 659.727 438.781 659.812 439.149C659.896 439.516 660.024 439.846 660.193 440.14C660.448 440.361 660.83 440.434 661.338 440.361C660.066 442.784 658.581 444.657 656.885 445.979C655.273 447.228 653.407 448.183 651.286 448.844C649.165 449.505 646.79 450.019 644.16 450.386C641.615 450.754 638.773 451.194 635.635 451.708C634.871 451.855 634.235 451.819 633.726 451.598C633.217 451.451 632.623 451.378 631.944 451.378C629.993 451.745 627.66 452.076 624.946 452.369C622.231 452.663 619.474 452.773 616.675 452.7C613.875 452.626 611.203 452.296 608.658 451.708C606.113 451.194 604.035 450.239 602.423 448.844C601.744 448.33 601.278 447.742 601.023 447.081C600.854 446.347 600.302 445.796 599.369 445.429C599.284 444.474 599.115 443.409 598.86 442.234C598.606 441.058 598.351 439.846 598.097 438.598C597.842 437.276 597.63 435.99 597.46 434.742C597.376 433.493 597.46 432.355 597.715 431.326C597.969 430.225 598.478 429.233 599.242 428.352C600.09 427.47 600.387 426.516 600.133 425.487C600.557 425.414 600.811 425.23 600.896 424.936C600.981 424.569 601.32 424.422 601.914 424.496C602.423 423.174 602.974 421.925 603.568 420.75C604.162 419.575 604.756 418.436 605.35 417.334C606.028 416.233 606.665 415.131 607.258 414.029C607.937 412.854 608.573 411.569 609.167 410.173C607.979 409.218 607.089 408.19 606.495 407.088C605.986 405.913 605.604 404.775 605.35 403.673C605.095 402.498 604.883 401.323 604.713 400.148C604.544 398.899 604.247 397.65 603.823 396.402C604.671 395.3 605.689 394.419 606.877 393.757C608.149 393.023 609.506 392.435 610.949 391.995C612.391 391.554 613.96 391.187 615.657 390.893C617.353 390.599 619.135 390.269 621.001 389.901C624.394 388.947 627.406 388.212 630.036 387.698C632.75 387.184 635.38 386.78 637.925 386.486C640.555 386.119 643.269 385.788 646.069 385.495C648.868 385.201 652.049 384.76 655.612 384.172C656.376 384.833 657.097 385.164 657.776 385.164C658.115 384.503 658.497 384.319 658.921 384.613C659.43 384.833 659.642 384.613 659.557 383.952C660.405 385.201 661.466 386.266 662.738 387.147C664.096 387.955 665.58 388.653 667.192 389.24Z"/><path fill="#1EF04C" d="M690.224 431.216C689.46 431.363 688.909 431.767 688.569 432.428C688.23 433.016 687.891 433.64 687.551 434.301C687.297 434.962 687 435.586 686.661 436.174C686.406 436.688 685.982 436.945 685.388 436.945C685.303 437.533 685.049 438.047 684.625 438.488C684.285 438.928 683.946 439.406 683.607 439.92C683.267 440.361 683.013 440.875 682.843 441.462C682.674 441.976 682.758 442.601 683.098 443.335C682.419 443.776 681.995 444.4 681.825 445.208C681.656 446.016 681.444 446.787 681.189 447.522C681.019 448.256 680.68 448.881 680.171 449.395C679.662 449.909 678.729 450.129 677.372 450.056C677.117 450.35 677.075 450.533 677.244 450.607C677.414 450.68 677.541 450.937 677.626 451.378C676.693 451.231 675.972 451.268 675.463 451.488C675.039 451.782 674.487 451.965 673.809 452.039C672.197 451.598 670.84 450.827 669.737 449.725C668.719 448.624 667.786 447.412 666.937 446.09C666.174 444.694 665.453 443.299 664.774 441.903C664.18 440.507 663.587 439.296 662.993 438.267C663.247 437.459 663.29 436.688 663.12 435.954C662.95 435.146 662.653 434.485 662.229 433.971C666.386 426.332 670.924 418.179 675.845 409.512C680.765 400.845 685.431 392.289 689.842 383.842C691.793 384.503 693.702 385.274 695.568 386.156C697.519 386.964 699.258 387.918 700.785 389.02C702.397 390.122 703.754 391.407 704.857 392.876C705.96 394.272 706.681 395.851 707.02 397.614C706.851 398.054 706.639 398.238 706.384 398.164C706.214 398.018 706.045 398.054 705.875 398.275C706.214 398.642 706.384 398.899 706.384 399.046C706.469 399.193 706.469 399.34 706.384 399.486C706.384 399.633 706.384 399.854 706.384 400.148C706.384 400.368 706.511 400.698 706.766 401.139C706.426 401.066 706.172 401.102 706.002 401.249C705.917 401.396 705.663 401.396 705.239 401.249C705.578 402.057 705.663 402.718 705.493 403.232C705.408 403.746 705.239 404.224 704.984 404.665C704.73 405.032 704.518 405.473 704.348 405.987C704.178 406.427 704.221 407.015 704.475 407.749C704.221 407.749 704.009 407.823 703.839 407.97C703.754 408.043 703.669 408.153 703.585 408.3C703.5 408.374 703.373 408.484 703.203 408.631C703.118 408.704 702.948 408.704 702.694 408.631C702.948 410.247 703.033 411.863 702.948 413.478C702.864 415.094 702.779 416.747 702.694 418.436C702.694 420.052 702.736 421.778 702.821 423.614C702.906 425.377 703.203 427.213 703.712 429.123C706.766 427.581 709.183 425.597 710.965 423.174C712.831 420.75 714.316 418.032 715.419 415.021C716.606 412.009 717.497 408.778 718.091 405.326C718.685 401.874 719.321 398.348 719.999 394.749C720.763 394.088 721.357 393.28 721.781 392.325C722.205 391.37 722.587 390.379 722.926 389.351C723.266 388.249 723.605 387.184 723.944 386.156C724.283 385.054 724.708 384.062 725.217 383.181C726.489 383.328 727.549 383.695 728.398 384.283C729.331 384.797 730.179 385.384 730.943 386.045C731.706 386.633 732.512 387.221 733.36 387.808C734.209 388.322 735.269 388.653 736.542 388.8C737.56 390.048 738.493 391.26 739.341 392.435C740.189 393.611 740.741 394.859 740.995 396.181C740.571 396.769 740.232 397.43 739.977 398.164C739.808 398.899 739.596 399.633 739.341 400.368C739.087 401.102 738.747 401.8 738.323 402.461C737.899 403.049 737.305 403.563 736.542 404.004C736.287 405.913 735.948 407.676 735.524 409.292C735.184 410.834 734.803 412.377 734.378 413.919C734.039 415.462 733.742 417.077 733.488 418.767C733.233 420.383 733.148 422.182 733.233 424.165C732.555 425.854 731.833 427.654 731.07 429.564C730.307 431.473 729.713 433.199 729.289 434.742C727.931 435.697 726.871 436.835 726.107 438.157C725.344 439.479 724.538 440.801 723.69 442.123C723.35 442.417 723.138 442.491 723.053 442.344C722.969 442.197 722.672 442.087 722.163 442.013C722.248 442.307 722.248 442.527 722.163 442.674C722.078 442.821 721.951 442.968 721.781 443.115C721.696 443.188 721.611 443.335 721.526 443.556C721.526 443.776 721.611 444.07 721.781 444.437C720.593 444.878 719.533 445.502 718.6 446.31C717.667 447.118 716.649 447.852 715.546 448.513C714.528 449.174 713.255 449.615 711.728 449.835C710.286 450.056 708.378 449.799 706.002 449.064C702.524 446.861 699.428 444.327 696.713 441.462C694.083 438.598 691.92 435.182 690.224 431.216Z"/><path fill="#1EF04C" d="M810.091 398.275C807.97 398.275 805.679 398.421 803.219 398.715C800.759 398.936 798.341 399.193 795.966 399.486C794.269 399.707 792.615 399.89 791.003 400.037C789.476 400.184 788.077 400.294 786.804 400.368C786.21 401.984 785.617 403.416 785.023 404.665C784.429 405.913 783.793 407.125 783.114 408.3C782.435 409.549 781.799 410.834 781.205 412.156C780.696 413.405 780.187 414.764 779.678 416.233C778.83 417.408 778.109 418.51 777.515 419.538C777.006 420.493 776.582 421.594 776.243 422.843C775.225 423.945 774.461 425.12 773.952 426.369C773.443 427.544 773.062 428.572 772.807 429.453L772.298 430.776C771.789 431.216 771.492 431.583 771.407 431.877C771.323 432.098 771.11 432.318 770.771 432.538C770.686 433.346 770.389 434.154 769.88 434.962C769.711 435.329 769.584 435.697 769.499 436.064C769.414 436.358 769.371 436.578 769.371 436.725C769.371 437.459 769.159 437.937 768.735 438.157C768.82 438.524 768.82 438.928 768.735 439.369C768.65 439.736 768.566 440.103 768.481 440.471C768.226 441.352 768.141 442.05 768.226 442.564C768.481 442.858 768.693 443.115 768.862 443.335C769.117 443.556 769.287 443.849 769.371 444.217C769.88 444.51 770.262 444.694 770.517 444.767C770.856 444.988 771.365 445.245 772.044 445.539L773.189 446.64C773.613 448.77 773.231 450.46 772.044 451.708C770.771 453.104 768.608 453.802 765.554 453.802H764.027C763.603 453.434 763.348 453.141 763.264 452.92C762.585 452.7 762.034 452.516 761.609 452.369C761.185 452.222 760.803 451.929 760.464 451.488C759.361 451.047 758.471 450.68 757.792 450.386L756.647 449.835C756.647 449.027 756.647 448.587 756.647 448.513C756.053 447.852 755.586 447.118 755.247 446.31C754.992 445.502 754.78 444.694 754.611 443.886C754.441 443.225 754.229 442.601 753.975 442.013C753.805 441.426 753.55 440.911 753.211 440.471C753.041 436.211 753.508 432.612 754.611 429.674C755.714 426.736 756.859 423.908 758.046 421.191C758.725 419.722 759.404 418.253 760.082 416.784C760.761 415.241 761.355 413.662 761.864 412.046L763.009 410.944C763.603 409.769 764.069 408.814 764.409 408.08C764.833 407.272 765.257 406.464 765.681 405.656C765.936 405.142 766.148 404.665 766.317 404.224C766.572 403.71 766.784 403.269 766.954 402.902C766.445 402.902 765.978 402.939 765.554 403.012C765.13 403.012 764.706 403.049 764.282 403.122C763.773 403.196 763.306 403.269 762.882 403.343C762.458 403.343 762.034 403.343 761.609 403.343C761.016 403.343 760.591 403.306 760.337 403.232C759.404 403.6 758.386 403.783 757.283 403.783H756.01C755.756 403.783 755.501 403.783 755.247 403.783C755.077 403.71 754.908 403.673 754.738 403.673C753.89 403.673 753.211 403.783 752.702 404.004C751.684 404.004 750.708 404.004 749.775 404.004H748.503C748.333 404.004 748.121 404.04 747.867 404.114C747.612 404.114 747.4 404.114 747.23 404.114C746.637 404.114 746 404.077 745.322 404.004C744.643 403.857 743.922 403.6 743.158 403.232C742.141 402.057 741.462 401.433 741.123 401.359L739.977 400.037C739.892 399.597 739.765 399.193 739.596 398.825C739.426 398.385 739.256 397.907 739.087 397.393C738.747 396.659 738.408 395.887 738.069 395.08C737.814 394.198 737.687 393.17 737.687 391.995C737.772 391.407 737.941 390.966 738.196 390.673C738.45 390.379 738.662 390.122 738.832 389.901L739.214 388.249L740.868 388.359H744.431C747.146 388.359 749.903 388.286 752.702 388.139C755.501 387.918 758.386 387.698 761.355 387.478C763.051 387.331 764.748 387.184 766.445 387.037C768.226 386.89 770.05 386.743 771.916 386.596C772.256 385.935 772.595 385.311 772.934 384.723L774.207 384.172C775.734 384.099 776.794 384.283 777.388 384.723C778.067 385.091 778.618 385.458 779.042 385.825C780.909 385.678 782.775 385.531 784.641 385.384C786.592 385.164 788.543 384.907 790.494 384.613C793.379 384.246 796.263 383.915 799.147 383.622C802.116 383.328 804.958 383.181 807.673 383.181C808.86 383.181 810.006 383.218 811.109 383.291C812.211 383.365 813.229 383.475 814.162 383.622L815.435 384.393C815.689 384.833 816.029 385.237 816.453 385.605C816.962 385.972 817.471 386.339 817.98 386.706C818.998 387.514 820.016 388.469 821.034 389.571C822.052 390.673 822.434 392.289 822.179 394.419C821.5 395.3 820.991 395.814 820.652 395.961L819.507 397.283L818.234 397.173C817.725 397.173 817.259 397.246 816.835 397.393C816.41 397.467 815.986 397.577 815.562 397.724C815.223 397.871 814.884 398.018 814.544 398.164C814.205 398.238 813.823 398.311 813.399 398.385C812.635 398.385 811.999 398.385 811.49 398.385C811.066 398.311 810.6 398.275 810.091 398.275Z"/><path fill="#1EF04C" d="M158.159 349.732V95.2172H292.421C325.222 95.2172 350.518 102.438 368.308 116.878C386.099 131.078 394.994 150.934 394.994 176.445C394.994 201.957 386.099 221.933 368.308 236.374C350.518 250.814 325.222 258.035 292.421 258.035H222.788V349.732H158.159ZM222.788 214.713H281.58C315.771 214.713 332.866 201.957 332.866 176.445C332.866 151.415 315.771 138.9 281.58 138.9H222.788V214.713Z"/><path fill="#1EF04C" d="M540.124 353.703C517.052 353.703 495.231 351.176 474.66 346.122C454.368 341.068 437.412 334.209 423.791 325.544L442.554 281.501C455.619 289.443 470.491 295.7 487.169 300.273C504.126 304.846 521.777 307.133 540.124 307.133C560.138 307.133 574.454 304.485 583.071 299.19C591.966 293.655 596.414 286.795 596.414 278.612C596.414 271.633 593.356 266.097 587.241 262.006C581.125 257.914 570.423 254.424 555.134 251.536L508.017 242.872C455.48 233.245 429.211 209.659 429.211 172.113C429.211 155.988 434.215 141.908 444.222 129.875C454.229 117.6 468.128 108.093 485.918 101.354C503.987 94.6156 524.835 91.2461 548.463 91.2461C568.755 91.2461 587.796 93.7732 605.587 98.8274C623.377 103.882 638.11 110.982 649.785 120.127L631.022 161.283C608.228 145.639 580.569 137.817 548.046 137.817C530.533 137.817 516.913 140.825 507.183 146.842C497.732 152.618 493.007 160.2 493.007 169.586C493.007 176.566 495.925 182.222 501.763 186.554C507.6 190.886 517.747 194.376 532.201 197.023L579.318 205.688C633.246 215.796 660.209 238.66 660.209 274.28C660.209 290.165 655.206 304.124 645.199 316.158C635.469 327.951 621.571 337.217 603.502 343.956C585.712 350.454 564.585 353.703 540.124 353.703Z"/><defs><linearGradient id="paint0_linear_570_354" x1="33" x2="246.97" y1="267" y2="622.255" gradientUnits="userSpaceOnUse"><stop stop-color="#EE2668"/><stop offset=".5" stop-color="#9747FF"/><stop offset=".862" stop-color="#5590F6"/><stop offset="1" stop-color="#3CACF2"/></linearGradient><linearGradient id="paint1_linear_570_354" x1="106.837" x2="292.061" y1="263.24" y2="500.469" gradientUnits="userSpaceOnUse"><stop stop-color="#EE2668"/><stop offset=".5" stop-color="#9747FF"/><stop offset=".862" stop-color="#5590F6"/><stop offset="1" stop-color="#3CACF2"/></linearGradient></defs></svg>