<svg width="190" height="142" viewBox="0 0 190 142" fill="none" xmlns="http://www.w3.org/2000/svg">
<rect x="26" y="14" width="101" height="112" fill="white"/>
<rect x="12.5" y="3.5" width="159" height="135" stroke="white" stroke-width="7"/>
<path d="M2.87109 119.322C2.30469 119.186 1.86523 118.961 1.55273 118.648C1.25977 118.316 1.03516 117.936 0.878906 117.506C0.742188 117.057 0.644531 116.568 0.585938 116.041C0.546875 115.514 0.498047 114.967 0.439453 114.4C0.517578 114.146 0.615234 113.932 0.732422 113.756C0.869141 113.58 0.927734 113.336 0.908203 113.023C1.12305 112.398 1.31836 111.793 1.49414 111.207C1.66992 110.621 1.78711 110.016 1.8457 109.391C1.96289 109.215 2.08008 109.098 2.19727 109.039C2.35352 107.926 2.37305 106.783 2.25586 105.611C2.13867 104.439 1.94336 103.355 1.66992 102.359C1.68945 102.145 1.71875 101.988 1.75781 101.891C1.79688 101.773 1.79688 101.676 1.75781 101.598C1.71875 101.422 1.77734 101.334 1.93359 101.334C2.08984 101.334 2.24609 101.334 2.40234 101.334C2.40234 100.982 2.33398 100.641 2.19727 100.309C2.08008 99.957 1.96289 99.5566 1.8457 99.1074C2.00195 98.7559 2.10938 98.4141 2.16797 98.082C2.22656 97.75 2.33398 97.4473 2.49023 97.1738C3.11523 97.3691 3.73047 97.5938 4.33594 97.8477C4.94141 98.1016 5.53711 98.3555 6.12305 98.6094C6.70898 98.8438 7.28516 99.0781 7.85156 99.3125C8.41797 99.5273 8.97461 99.7031 9.52148 99.8398C10.3613 100.445 11.2207 101.051 12.0996 101.656C12.998 102.242 13.8086 102.896 14.5312 103.619C15.2734 104.322 15.8887 105.133 16.377 106.051C16.8652 106.969 17.1484 108.053 17.2266 109.303C17.1875 109.42 17.1582 109.518 17.1387 109.596C17.1191 109.674 17.0996 109.752 17.0801 109.83C17.0605 109.908 17.0508 109.996 17.0508 110.094C17.0508 110.191 17.0508 110.328 17.0508 110.504C16.3477 111.734 15.459 112.77 14.3848 113.609C13.3105 114.449 12.1387 115.191 10.8691 115.836C9.59961 116.48 8.27148 117.076 6.88477 117.623C5.51758 118.15 4.17969 118.717 2.87109 119.322ZM5.74219 102.711C5.56641 102.711 5.43945 102.75 5.36133 102.828C5.5957 103.707 5.77148 104.537 5.88867 105.318C6.00586 106.1 6.06445 106.881 6.06445 107.662C6.08398 108.443 6.04492 109.244 5.94727 110.064C5.84961 110.885 5.71289 111.773 5.53711 112.73C5.79102 112.711 6.01562 112.662 6.21094 112.584C6.40625 112.506 6.60156 112.418 6.79688 112.32C7.01172 112.223 7.22656 112.135 7.44141 112.057C7.67578 111.979 7.93945 111.93 8.23242 111.91C8.31055 111.754 8.4082 111.637 8.52539 111.559C8.66211 111.461 8.7793 111.363 8.87695 111.266C9.36523 111.07 9.85352 110.865 10.3418 110.65C10.8301 110.436 11.2793 110.191 11.6895 109.918C12.0996 109.645 12.4707 109.332 12.8027 108.98C13.1348 108.629 13.4082 108.209 13.623 107.721C13.4668 107.428 13.2715 107.184 13.0371 106.988C12.8223 106.773 12.5879 106.568 12.334 106.373C12.0996 106.158 11.8652 105.943 11.6309 105.729C11.416 105.494 11.2402 105.23 11.1035 104.938C10.791 104.898 10.5176 104.82 10.2832 104.703C10.0488 104.566 9.82422 104.439 9.60938 104.322C9.39453 104.186 9.16016 104.059 8.90625 103.941C8.67188 103.824 8.38867 103.756 8.05664 103.736C7.54883 103.463 7.08984 103.277 6.67969 103.18C6.26953 103.062 5.95703 102.906 5.74219 102.711ZM33.7207 102.506C33.7402 102.643 33.7402 102.75 33.7207 102.828C33.7207 102.887 33.7109 102.945 33.6914 103.004C33.6914 103.062 33.6914 103.131 33.6914 103.209C33.6914 103.268 33.7109 103.365 33.75 103.502C33.3398 104.166 32.8613 104.625 32.3145 104.879C31.7871 105.113 31.2109 105.289 30.5859 105.406C29.9609 105.504 29.3164 105.611 28.6523 105.729C28.0078 105.846 27.3633 106.1 26.7188 106.49C26.4648 106.393 26.2305 106.393 26.0156 106.49C25.8203 106.588 25.5273 106.617 25.1367 106.578C25.0195 106.695 24.873 106.783 24.6973 106.842C24.5215 106.881 24.3457 106.93 24.1699 106.988C24.248 107.164 24.2773 107.35 24.2578 107.545C24.2578 107.721 24.2871 107.867 24.3457 107.984C25.0293 108.043 25.7812 108.033 26.6016 107.955C27.4414 107.877 28.2617 107.828 29.0625 107.809C29.082 107.906 29.0723 107.975 29.0332 108.014C28.9941 108.033 28.9844 108.082 29.0039 108.16C29.1406 108.258 29.2773 108.385 29.4141 108.541C29.5508 108.678 29.6875 108.814 29.8242 108.951C29.9609 109.088 30.0977 109.205 30.2344 109.303C30.3906 109.381 30.5664 109.41 30.7617 109.391C30.8398 109.547 30.8887 109.723 30.9082 109.918C30.9473 110.094 30.9277 110.279 30.8496 110.475C30.5371 110.689 30.2246 110.914 29.9121 111.148C29.5996 111.363 29.2676 111.559 28.916 111.734C28.584 111.91 28.2227 112.057 27.832 112.174C27.4609 112.271 27.041 112.311 26.5723 112.291C26.4746 112.291 26.3965 112.291 26.3379 112.291C26.2988 112.291 26.2402 112.262 26.1621 112.203C26.0059 112.301 25.7812 112.33 25.4883 112.291C25.2148 112.252 25 112.281 24.8438 112.379C24.6289 112.281 24.3652 112.242 24.0527 112.262C23.7598 112.262 23.4961 112.223 23.2617 112.145C22.9492 112.555 22.666 112.994 22.4121 113.463C22.1582 113.932 21.9336 114.43 21.7383 114.957C22.4023 115.055 22.9492 115.094 23.3789 115.074C23.8281 115.055 24.248 115.025 24.6387 114.986C25.0293 114.928 25.4297 114.879 25.8398 114.84C26.25 114.781 26.7676 114.762 27.3926 114.781C27.7832 114.566 28.2422 114.43 28.7695 114.371C29.3164 114.293 29.8145 114.176 30.2637 114.02C30.4199 114.078 30.5566 114.186 30.6738 114.342C30.791 114.479 30.8984 114.615 30.9961 114.752C31.1133 114.869 31.2305 114.977 31.3477 115.074C31.4648 115.172 31.6113 115.211 31.7871 115.191C31.8652 115.27 31.9141 115.367 31.9336 115.484C31.9727 115.582 32.002 115.68 32.0215 115.777C32.041 115.875 32.0703 115.963 32.1094 116.041C32.168 116.1 32.2559 116.119 32.373 116.1C32.0801 116.744 31.7383 117.242 31.3477 117.594C30.9766 117.926 30.5469 118.18 30.0586 118.355C29.5703 118.531 29.0234 118.668 28.418 118.766C27.832 118.863 27.1777 118.98 26.4551 119.117C26.2793 119.156 26.1328 119.146 26.0156 119.088C25.8984 119.049 25.7617 119.029 25.6055 119.029C25.1562 119.127 24.6191 119.215 23.9941 119.293C23.3691 119.371 22.7344 119.4 22.0898 119.381C21.4453 119.361 20.8301 119.273 20.2441 119.117C19.6582 118.98 19.1797 118.727 18.8086 118.355C18.6523 118.219 18.5449 118.062 18.4863 117.887C18.4473 117.691 18.3203 117.545 18.1055 117.447C18.0859 117.193 18.0469 116.91 17.9883 116.598C17.9297 116.285 17.8711 115.963 17.8125 115.631C17.7539 115.279 17.7051 114.938 17.666 114.605C17.6465 114.273 17.666 113.971 17.7246 113.697C17.7832 113.404 17.9004 113.141 18.0762 112.906C18.2715 112.672 18.3398 112.418 18.2812 112.145C18.3789 112.125 18.4375 112.076 18.457 111.998C18.4766 111.9 18.5547 111.861 18.6914 111.881C18.8086 111.529 18.9355 111.197 19.0723 110.885C19.209 110.572 19.3457 110.27 19.4824 109.977C19.6387 109.684 19.7852 109.391 19.9219 109.098C20.0781 108.785 20.2246 108.443 20.3613 108.072C20.0879 107.818 19.8828 107.545 19.7461 107.252C19.6289 106.939 19.541 106.637 19.4824 106.344C19.4238 106.031 19.375 105.719 19.3359 105.406C19.2969 105.074 19.2285 104.742 19.1309 104.41C19.3262 104.117 19.5605 103.883 19.834 103.707C20.127 103.512 20.4395 103.355 20.7715 103.238C21.1035 103.121 21.4648 103.023 21.8555 102.945C22.2461 102.867 22.6562 102.779 23.0859 102.682C23.8672 102.428 24.5605 102.232 25.166 102.096C25.791 101.959 26.3965 101.852 26.9824 101.773C27.5879 101.676 28.2129 101.588 28.8574 101.51C29.502 101.432 30.2344 101.314 31.0547 101.158C31.2305 101.334 31.3965 101.422 31.5527 101.422C31.6309 101.246 31.7188 101.197 31.8164 101.275C31.9336 101.334 31.9824 101.275 31.9629 101.1C32.1582 101.432 32.4023 101.715 32.6953 101.949C33.0078 102.164 33.3496 102.35 33.7207 102.506ZM42.7734 113.844C42.7539 114.117 42.6855 114.381 42.5684 114.635C42.4707 114.869 42.3438 115.104 42.1875 115.338C42.0312 115.553 41.8555 115.768 41.6602 115.982C41.4844 116.178 41.3086 116.354 41.1328 116.51C41.1914 116.764 41.1914 116.959 41.1328 117.096C41.0938 117.213 41.084 117.398 41.1035 117.652C40.8105 118.434 40.3613 118.951 39.7559 119.205C39.1699 119.479 38.6133 119.43 38.0859 119.059C37.8711 118.902 37.6855 118.707 37.5293 118.473C37.3926 118.219 37.1973 118.062 36.9434 118.004C37.002 117.672 36.9727 117.34 36.8555 117.008C36.7383 116.676 36.6113 116.5 36.4746 116.48C36.416 116.07 36.3281 115.631 36.2109 115.162C36.0938 114.693 35.9863 114.225 35.8887 113.756C35.791 113.268 35.7031 112.799 35.625 112.35C35.5664 111.881 35.5469 111.451 35.5664 111.061C35.5859 110.865 35.5469 110.689 35.4492 110.533C35.3711 110.377 35.3125 110.191 35.2734 109.977C35.1953 109.527 35.166 109.059 35.1855 108.57C35.2246 108.062 35.2441 107.584 35.2441 107.135C35.2441 106.705 35.2148 106.246 35.1562 105.758C35.1172 105.25 35.0781 104.771 35.0391 104.322C35 103.854 34.9805 103.434 34.9805 103.062C34.9805 102.672 35.0293 102.369 35.127 102.154C35.2441 101.92 35.4004 101.734 35.5957 101.598C35.8105 101.441 36.0059 101.275 36.1816 101.1C36.6113 101.139 36.9531 101.314 37.207 101.627C37.4609 101.939 37.5586 102.232 37.5 102.506C37.9102 102.76 38.2324 103.092 38.4668 103.502C38.7207 103.893 38.916 104.342 39.0527 104.85C39.209 105.338 39.3164 105.865 39.375 106.432C39.4336 106.979 39.4824 107.525 39.5215 108.072C39.5605 108.6 39.5996 109.107 39.6387 109.596C39.6777 110.084 39.7559 110.504 39.873 110.855C40.5957 109.82 41.2012 108.902 41.6895 108.102C42.1777 107.281 42.6758 106.5 43.1836 105.758C43.6914 105.016 44.2578 104.264 44.8828 103.502C45.5078 102.74 46.3184 101.881 47.3145 100.924C47.5098 100.943 47.666 100.982 47.7832 101.041C47.9199 101.1 48.0371 101.148 48.1348 101.188C48.2324 101.227 48.3496 101.266 48.4863 101.305C48.623 101.324 48.8086 101.314 49.043 101.275C49.1211 101.471 49.1797 101.617 49.2188 101.715C49.2578 101.793 49.2871 101.881 49.3066 101.979C49.3457 102.057 49.3848 102.164 49.4238 102.301C49.4824 102.438 49.5703 102.633 49.6875 102.887C49.7461 102.945 49.7656 103.023 49.7461 103.121C49.7266 103.219 49.707 103.316 49.6875 103.414C49.6875 103.492 49.6875 103.551 49.6875 103.59C49.6875 103.629 49.7363 103.629 49.834 103.59C49.7754 103.863 49.668 104.117 49.5117 104.352C49.375 104.566 49.3164 104.83 49.3359 105.143C48.8867 105.729 48.3887 106.334 47.8418 106.959C47.3145 107.584 46.7773 108.229 46.2305 108.893C45.7031 109.557 45.1953 110.26 44.707 111.002C44.2188 111.725 43.7988 112.486 43.4473 113.287C43.3496 113.287 43.2715 113.316 43.2129 113.375C43.1738 113.434 43.1348 113.502 43.0957 113.58C43.0566 113.639 43.0078 113.697 42.9492 113.756C42.9102 113.814 42.8516 113.844 42.7734 113.844ZM63.9258 102.506C63.9453 102.643 63.9453 102.75 63.9258 102.828C63.9258 102.887 63.916 102.945 63.8965 103.004C63.8965 103.062 63.8965 103.131 63.8965 103.209C63.8965 103.268 63.916 103.365 63.9551 103.502C63.5449 104.166 63.0664 104.625 62.5195 104.879C61.9922 105.113 61.416 105.289 60.791 105.406C60.166 105.504 59.5215 105.611 58.8574 105.729C58.2129 105.846 57.5684 106.1 56.9238 106.49C56.6699 106.393 56.4355 106.393 56.2207 106.49C56.0254 106.588 55.7324 106.617 55.3418 106.578C55.2246 106.695 55.0781 106.783 54.9023 106.842C54.7266 106.881 54.5508 106.93 54.375 106.988C54.4531 107.164 54.4824 107.35 54.4629 107.545C54.4629 107.721 54.4922 107.867 54.5508 107.984C55.2344 108.043 55.9863 108.033 56.8066 107.955C57.6465 107.877 58.4668 107.828 59.2676 107.809C59.2871 107.906 59.2773 107.975 59.2383 108.014C59.1992 108.033 59.1895 108.082 59.209 108.16C59.3457 108.258 59.4824 108.385 59.6191 108.541C59.7559 108.678 59.8926 108.814 60.0293 108.951C60.166 109.088 60.3027 109.205 60.4395 109.303C60.5957 109.381 60.7715 109.41 60.9668 109.391C61.0449 109.547 61.0938 109.723 61.1133 109.918C61.1523 110.094 61.1328 110.279 61.0547 110.475C60.7422 110.689 60.4297 110.914 60.1172 111.148C59.8047 111.363 59.4727 111.559 59.1211 111.734C58.7891 111.91 58.4277 112.057 58.0371 112.174C57.666 112.271 57.2461 112.311 56.7773 112.291C56.6797 112.291 56.6016 112.291 56.543 112.291C56.5039 112.291 56.4453 112.262 56.3672 112.203C56.2109 112.301 55.9863 112.33 55.6934 112.291C55.4199 112.252 55.2051 112.281 55.0488 112.379C54.834 112.281 54.5703 112.242 54.2578 112.262C53.9648 112.262 53.7012 112.223 53.4668 112.145C53.1543 112.555 52.8711 112.994 52.6172 113.463C52.3633 113.932 52.1387 114.43 51.9434 114.957C52.6074 115.055 53.1543 115.094 53.584 115.074C54.0332 115.055 54.4531 115.025 54.8438 114.986C55.2344 114.928 55.6348 114.879 56.0449 114.84C56.4551 114.781 56.9727 114.762 57.5977 114.781C57.9883 114.566 58.4473 114.43 58.9746 114.371C59.5215 114.293 60.0195 114.176 60.4688 114.02C60.625 114.078 60.7617 114.186 60.8789 114.342C60.9961 114.479 61.1035 114.615 61.2012 114.752C61.3184 114.869 61.4355 114.977 61.5527 115.074C61.6699 115.172 61.8164 115.211 61.9922 115.191C62.0703 115.27 62.1191 115.367 62.1387 115.484C62.1777 115.582 62.207 115.68 62.2266 115.777C62.2461 115.875 62.2754 115.963 62.3145 116.041C62.373 116.1 62.4609 116.119 62.5781 116.1C62.2852 116.744 61.9434 117.242 61.5527 117.594C61.1816 117.926 60.752 118.18 60.2637 118.355C59.7754 118.531 59.2285 118.668 58.623 118.766C58.0371 118.863 57.3828 118.98 56.6602 119.117C56.4844 119.156 56.3379 119.146 56.2207 119.088C56.1035 119.049 55.9668 119.029 55.8105 119.029C55.3613 119.127 54.8242 119.215 54.1992 119.293C53.5742 119.371 52.9395 119.4 52.2949 119.381C51.6504 119.361 51.0352 119.273 50.4492 119.117C49.8633 118.98 49.3848 118.727 49.0137 118.355C48.8574 118.219 48.75 118.062 48.6914 117.887C48.6523 117.691 48.5254 117.545 48.3105 117.447C48.291 117.193 48.252 116.91 48.1934 116.598C48.1348 116.285 48.0762 115.963 48.0176 115.631C47.959 115.279 47.9102 114.938 47.8711 114.605C47.8516 114.273 47.8711 113.971 47.9297 113.697C47.9883 113.404 48.1055 113.141 48.2812 112.906C48.4766 112.672 48.5449 112.418 48.4863 112.145C48.584 112.125 48.6426 112.076 48.6621 111.998C48.6816 111.9 48.7598 111.861 48.8965 111.881C49.0137 111.529 49.1406 111.197 49.2773 110.885C49.4141 110.572 49.5508 110.27 49.6875 109.977C49.8438 109.684 49.9902 109.391 50.127 109.098C50.2832 108.785 50.4297 108.443 50.5664 108.072C50.293 107.818 50.0879 107.545 49.9512 107.252C49.834 106.939 49.7461 106.637 49.6875 106.344C49.6289 106.031 49.5801 105.719 49.541 105.406C49.502 105.074 49.4336 104.742 49.3359 104.41C49.5312 104.117 49.7656 103.883 50.0391 103.707C50.332 103.512 50.6445 103.355 50.9766 103.238C51.3086 103.121 51.6699 103.023 52.0605 102.945C52.4512 102.867 52.8613 102.779 53.291 102.682C54.0723 102.428 54.7656 102.232 55.3711 102.096C55.9961 101.959 56.6016 101.852 57.1875 101.773C57.793 101.676 58.418 101.588 59.0625 101.51C59.707 101.432 60.4395 101.314 61.2598 101.158C61.4355 101.334 61.6016 101.422 61.7578 101.422C61.8359 101.246 61.9238 101.197 62.0215 101.275C62.1387 101.334 62.1875 101.275 62.168 101.1C62.3633 101.432 62.6074 101.715 62.9004 101.949C63.2129 102.164 63.5547 102.35 63.9258 102.506ZM70.957 118.678C70.4102 118.854 69.8145 119.029 69.1699 119.205C68.5254 119.381 67.8809 119.469 67.2363 119.469C66.2598 119.469 65.4883 119.225 64.9219 118.736C64.8242 118.521 64.7363 118.375 64.6582 118.297C64.5996 118.219 64.541 118.141 64.4824 118.062C64.4434 117.965 64.4141 117.838 64.3945 117.682C64.1602 117.408 63.9746 117.096 63.8379 116.744C63.7012 116.373 63.6035 116.002 63.5449 115.631C63.5059 115.24 63.4961 114.85 63.5156 114.459C63.5547 114.068 63.623 113.697 63.7207 113.346C63.7598 113.268 63.7793 113.189 63.7793 113.111C63.7988 113.033 63.8184 112.945 63.8379 112.848C63.916 112.535 63.9941 112.232 64.0723 111.939C64.1699 111.646 64.2969 111.393 64.4531 111.178C64.375 111.002 64.375 110.807 64.4531 110.592C64.5312 110.377 64.6191 110.182 64.7168 110.006C64.9902 109.264 65.2148 108.639 65.3906 108.131C65.5859 107.604 65.7812 107.086 65.9766 106.578C66.3086 105.699 66.6211 104.83 66.9141 103.971C67.207 103.111 67.4707 102.184 67.7051 101.188C67.8613 101.09 67.9785 101.021 68.0566 100.982C68.1738 100.943 68.2715 100.914 68.3496 100.895C68.7012 101.07 69.1113 101.246 69.5801 101.422C70.0488 101.578 70.4395 101.656 70.752 101.656C70.9082 101.754 71.0059 101.832 71.0449 101.891C71.084 101.93 71.123 101.969 71.1621 102.008C71.377 102.262 71.5625 102.525 71.7188 102.799C71.875 103.053 71.9238 103.395 71.8652 103.824C71.748 104 71.6602 104.088 71.6016 104.088C71.5039 104.479 71.3965 104.811 71.2793 105.084C71.1816 105.357 71.0742 105.631 70.957 105.904C70.8203 106.197 70.6934 106.49 70.5762 106.783C70.459 107.076 70.3613 107.438 70.2832 107.867C70.2051 107.965 70.1465 108.053 70.1074 108.131C70.0879 108.209 70.0586 108.297 70.0195 108.395C69.9805 108.492 69.9316 108.6 69.873 108.717C69.834 108.814 69.7656 108.902 69.668 108.98C69.6094 109.488 69.5117 109.898 69.375 110.211C69.2578 110.523 69.1309 110.836 68.9941 111.148C68.7598 111.715 68.5449 112.281 68.3496 112.848C68.1738 113.414 68.0664 114.059 68.0273 114.781C68.125 114.742 68.2129 114.723 68.291 114.723C68.3887 114.723 68.4766 114.723 68.5547 114.723C68.7305 114.723 68.9355 114.752 69.1699 114.811C69.7559 114.498 70.3906 114.312 71.0742 114.254C71.7773 114.195 72.4707 114.156 73.1543 114.137C73.4277 114.137 73.7012 114.137 73.9746 114.137C74.248 114.137 74.502 114.117 74.7363 114.078C74.9121 114.176 75.0195 114.234 75.0586 114.254C75.1172 114.254 75.1953 114.254 75.293 114.254C75.4297 114.254 75.5469 114.264 75.6445 114.283C75.8789 114.498 76.1035 114.654 76.3184 114.752C76.5332 114.85 76.7578 114.938 76.9922 115.016C77.207 115.094 77.4121 115.182 77.6074 115.279C77.8223 115.357 78.0273 115.475 78.2227 115.631L78.4277 116.891C78.5645 117.066 78.623 117.184 78.6035 117.242C78.6035 117.398 78.5645 117.516 78.4863 117.594L78.5449 117.916C78.252 117.975 78.0469 118.043 77.9297 118.121C77.832 118.199 77.7344 118.287 77.6367 118.385C77.4805 118.404 77.3633 118.414 77.2852 118.414C77.2266 118.414 77.168 118.414 77.1094 118.414C76.8359 118.414 76.5039 118.463 76.1133 118.561C75.5859 118.385 75.0391 118.297 74.4727 118.297C74.2578 118.297 74.0332 118.307 73.7988 118.326C73.5645 118.346 73.3301 118.365 73.0957 118.385C72.8613 118.424 72.6172 118.453 72.3633 118.473C72.1289 118.492 71.8848 118.502 71.6309 118.502L70.957 118.678ZM96.2988 110.211C96.2793 110.445 96.2988 110.67 96.3574 110.885C96.416 111.1 96.4844 111.314 96.5625 111.529C96.6602 111.725 96.748 111.93 96.8262 112.145C96.9043 112.359 96.9629 112.574 97.002 112.789C97.041 113.062 97.041 113.365 97.002 113.697C96.9629 114.01 96.8945 114.322 96.7969 114.635C96.6992 114.928 96.5723 115.201 96.416 115.455C96.2598 115.689 96.0742 115.865 95.8594 115.982C95.5859 116.334 95.2539 116.607 94.8633 116.803C94.4727 116.998 94.1113 117.232 93.7793 117.506C93.5645 117.643 93.3203 117.74 93.0469 117.799C92.793 117.857 92.5293 117.916 92.2559 117.975C92.041 118.092 91.7871 118.219 91.4941 118.355C91.2012 118.473 90.8984 118.59 90.5859 118.707C90.2734 118.805 89.9609 118.883 89.6484 118.941C89.3359 118.98 89.0625 118.99 88.8281 118.971C88.2422 119.186 87.666 119.322 87.0996 119.381C86.5527 119.459 85.9082 119.42 85.166 119.264C84.4629 119.361 83.8086 119.332 83.2031 119.176C82.6172 119.02 82.0898 118.775 81.6211 118.443C81.1719 118.092 80.7715 117.682 80.4199 117.213C80.0879 116.725 79.8145 116.217 79.5996 115.689C79.4434 114.576 79.4824 113.57 79.7168 112.672C79.9512 111.754 80.2832 110.914 80.7129 110.152C81.1621 109.371 81.6699 108.658 82.2363 108.014C82.8027 107.35 83.3496 106.705 83.877 106.08C83.9941 106.119 84.082 106.119 84.1406 106.08C84.2188 106.021 84.2871 105.953 84.3457 105.875C84.4043 105.777 84.4629 105.689 84.5215 105.611C84.5996 105.533 84.6875 105.484 84.7852 105.465C84.9219 105.172 85.1172 104.957 85.3711 104.82C85.6445 104.664 85.8594 104.449 86.0156 104.176C86.1914 104.137 86.3379 104.078 86.4551 104C86.5723 103.922 86.6797 103.834 86.7773 103.736C86.8945 103.639 87.0117 103.551 87.1289 103.473C87.2461 103.375 87.3828 103.307 87.5391 103.268V102.945C87.8906 102.789 88.1445 102.613 88.3008 102.418C88.4766 102.203 88.6816 101.949 88.916 101.656C89.0918 101.637 89.2285 101.627 89.3262 101.627C89.4434 101.627 89.6094 101.607 89.8242 101.568C89.9805 101.295 90.1172 101.09 90.2344 100.953C90.3711 100.816 90.5664 100.67 90.8203 100.514C91.0547 100.631 91.3086 100.709 91.582 100.748C91.875 100.787 92.1289 100.914 92.3438 101.129C92.3633 101.324 92.4219 101.48 92.5195 101.598C92.6172 101.695 92.7246 101.793 92.8418 101.891C92.959 101.969 93.0664 102.057 93.1641 102.154C93.2812 102.252 93.3594 102.389 93.3984 102.564C93.4766 102.584 93.5254 102.574 93.5449 102.535C93.584 102.496 93.6426 102.486 93.7207 102.506C93.7793 102.779 93.8477 102.965 93.9258 103.062C94.0039 103.141 94.082 103.307 94.1602 103.561C94.0625 103.756 93.9844 103.961 93.9258 104.176C93.8867 104.371 93.7695 104.518 93.5742 104.615C93.5547 104.752 93.5938 104.83 93.6914 104.85C93.7891 104.85 93.8477 104.898 93.8672 104.996C93.8867 105.172 93.8574 105.299 93.7793 105.377C94.248 106.139 94.668 106.949 95.0391 107.809C95.4102 108.648 95.8301 109.449 96.2988 110.211ZM92.6367 112.994C92.7148 112.779 92.8125 112.604 92.9297 112.467C93.0664 112.33 93.1445 112.125 93.1641 111.852C93.0664 111.695 93.0078 111.578 92.9883 111.5C92.9688 111.402 92.959 111.256 92.959 111.061C92.5293 110.455 92.1582 109.811 91.8457 109.127C91.5332 108.424 91.1816 107.77 90.791 107.164C90.752 107.242 90.6836 107.32 90.5859 107.398C90.4883 107.477 90.3809 107.457 90.2637 107.34C90.2246 107.496 90.1562 107.613 90.0586 107.691C89.9609 107.75 89.8535 107.779 89.7363 107.779C89.6191 107.76 89.4922 107.73 89.3555 107.691C89.2383 107.633 89.1309 107.564 89.0332 107.486C88.4668 107.936 87.9004 108.375 87.334 108.805C86.7676 109.234 86.2598 109.732 85.8105 110.299C85.7324 110.338 85.6836 110.357 85.6641 110.357C85.6445 110.338 85.5859 110.348 85.4883 110.387C85.332 110.758 85.1367 111.1 84.9023 111.412C84.6875 111.705 84.4727 112.008 84.2578 112.32C84.043 112.633 83.8574 112.965 83.7012 113.316C83.5449 113.668 83.457 114.078 83.4375 114.547C83.7695 114.82 84.1602 114.986 84.6094 115.045C85.0586 115.104 85.5176 115.113 85.9863 115.074C86.4746 115.035 86.9434 114.977 87.3926 114.898C87.8613 114.801 88.291 114.752 88.6816 114.752C89.502 114.557 90.2051 114.303 90.791 113.99C91.377 113.658 91.9922 113.326 92.6367 112.994ZM108.545 100.836C109.365 100.934 110.098 101.1 110.742 101.334C111.387 101.568 111.934 101.881 112.383 102.271C112.695 102.76 112.988 103.287 113.262 103.854C113.555 104.42 113.77 105.016 113.906 105.641C114.062 106.246 114.131 106.871 114.111 107.516C114.111 108.16 113.975 108.814 113.701 109.479C113.135 110.182 112.441 110.758 111.621 111.207C110.82 111.637 109.951 111.988 109.014 112.262C108.076 112.535 107.1 112.77 106.084 112.965C105.088 113.16 104.111 113.355 103.154 113.551C103.174 114 103.174 114.479 103.154 114.986C103.154 115.475 103.105 115.973 103.008 116.48C102.93 116.969 102.803 117.447 102.627 117.916C102.451 118.385 102.217 118.814 101.924 119.205C101.592 119.205 101.25 119.244 100.898 119.322C100.547 119.42 100.234 119.498 99.9609 119.557C99.8242 119.479 99.6973 119.4 99.5801 119.322C99.4824 119.264 99.3359 119.225 99.1406 119.205C99.1797 119.01 99.1309 118.814 98.9941 118.619C98.8574 118.404 98.7207 118.189 98.584 117.975C98.4473 117.76 98.3496 117.555 98.291 117.359C98.252 117.164 98.3496 116.979 98.584 116.803C98.4473 116.666 98.3789 116.49 98.3789 116.275C98.5156 116.041 98.6328 115.719 98.7305 115.309C98.8477 114.898 98.9355 114.498 98.9941 114.107C99.0723 113.697 99.0918 113.326 99.0527 112.994C99.0137 112.662 98.8184 112.418 98.4668 112.262C98.4863 112.223 98.5254 112.203 98.584 112.203C98.6426 112.203 98.7012 112.193 98.7598 112.174C98.6035 112.057 98.5059 111.891 98.4668 111.676C98.4473 111.461 98.3789 111.275 98.2617 111.119C98.3008 111.021 98.3301 110.934 98.3496 110.855C98.3691 110.777 98.4375 110.748 98.5547 110.768C98.4961 110.416 98.4961 110.084 98.5547 109.771C98.6328 109.459 98.7402 109.166 98.877 108.893C99.0137 108.6 99.1797 108.316 99.375 108.043C99.5703 107.77 99.7559 107.496 99.9316 107.223C100.068 107.203 100.146 107.223 100.166 107.281C100.205 107.34 100.273 107.33 100.371 107.252C100.625 107.057 100.801 106.852 100.898 106.637C100.996 106.422 101.045 106.178 101.045 105.904C101.182 105.494 101.348 105.084 101.543 104.674C101.738 104.244 101.953 103.854 102.188 103.502C102.422 103.15 102.676 102.838 102.949 102.564C103.242 102.291 103.545 102.086 103.857 101.949C104.092 101.754 104.385 101.578 104.736 101.422C105.088 101.246 105.469 101.119 105.879 101.041C106.289 100.943 106.699 100.895 107.109 100.895C107.539 100.875 107.93 100.914 108.281 101.012C108.379 101.051 108.428 101.031 108.428 100.953C108.447 100.875 108.486 100.836 108.545 100.836ZM107.344 107.838C107.832 107.623 108.35 107.457 108.896 107.34C109.463 107.203 109.932 106.959 110.303 106.607C110.068 106.393 109.727 106.207 109.277 106.051C108.828 105.875 108.34 105.768 107.812 105.729C107.285 105.689 106.748 105.738 106.201 105.875C105.674 105.992 105.215 106.227 104.824 106.578C104.707 106.93 104.609 107.213 104.531 107.428C104.453 107.623 104.346 107.867 104.209 108.16C104.248 108.258 104.307 108.336 104.385 108.395C104.482 108.434 104.551 108.502 104.59 108.6C105.039 108.365 105.488 108.238 105.938 108.219C106.406 108.18 106.875 108.053 107.344 107.838ZM133.506 118.473C133.311 118.57 133.125 118.658 132.949 118.736C132.793 118.814 132.607 118.854 132.393 118.854C131.631 118.287 131.23 117.301 131.191 115.895C131.172 114.488 131.475 112.701 132.1 110.533C132.197 110.475 132.246 110.357 132.246 110.182L131.982 109.889C131.904 109.889 131.826 109.898 131.748 109.918C131.689 109.938 131.641 110.006 131.602 110.123C131.094 110.494 130.537 110.885 129.932 111.295C129.326 111.686 128.691 112.057 128.027 112.408C127.383 112.74 126.719 113.014 126.035 113.229C125.371 113.443 124.717 113.551 124.072 113.551C122.432 113.551 121.201 112.721 120.381 111.061L120.146 110.621L119.912 111.002C119.854 111.08 119.766 111.246 119.648 111.5C119.531 111.734 119.414 112.008 119.297 112.32C119.18 112.633 119.072 112.955 118.975 113.287C118.896 113.6 118.867 113.873 118.887 114.107C118.711 114.283 118.525 114.488 118.33 114.723C118.135 114.957 117.988 115.221 117.891 115.514C117.852 115.67 117.871 115.816 117.949 115.953C117.91 116.129 117.822 116.266 117.686 116.363C117.607 116.461 117.52 116.559 117.422 116.656C117.344 116.734 117.275 116.822 117.217 116.92C117.178 117.018 117.148 117.115 117.129 117.213C117.129 117.311 117.119 117.408 117.1 117.506C117.1 117.643 117.08 117.77 117.041 117.887C116.709 118.57 116.445 119.01 116.25 119.205C116.055 119.42 115.791 119.527 115.459 119.527C115.303 119.527 115.049 119.498 114.697 119.439C114.443 119.166 114.209 118.795 113.994 118.326C113.799 117.838 113.643 117.32 113.525 116.773C113.428 116.227 113.379 115.68 113.379 115.133C113.398 114.566 113.496 114.078 113.672 113.668C113.672 113.648 113.75 113.453 113.906 113.082C114.062 112.711 114.258 112.232 114.492 111.646C114.746 111.061 115.029 110.416 115.342 109.713C115.654 108.99 115.967 108.297 116.279 107.633C116.592 106.949 116.885 106.324 117.158 105.758C117.451 105.191 117.695 104.762 117.891 104.469C118.047 104.234 118.184 104.02 118.301 103.824C118.438 103.609 118.564 103.404 118.682 103.209C119.033 102.604 119.365 102.105 119.678 101.715C120.01 101.305 120.488 100.982 121.113 100.748C121.543 100.924 121.855 101.129 122.051 101.363L122.109 101.686C122.188 101.881 122.305 101.979 122.461 101.979C122.676 102.037 122.852 102.096 122.988 102.154C123.145 102.193 123.311 102.232 123.486 102.271C123.623 102.428 123.75 102.613 123.867 102.828C124.023 103.062 124.17 103.297 124.307 103.531C124.463 103.746 124.58 103.971 124.658 104.205C124.756 104.42 124.805 104.645 124.805 104.879C124.824 105.113 124.785 105.357 124.688 105.611L124.717 105.904C124.814 106.08 124.834 106.324 124.775 106.637C124.756 106.773 124.746 106.92 124.746 107.076C124.746 107.213 124.766 107.369 124.805 107.545C125.156 107.818 125.469 107.955 125.742 107.955C126.055 107.955 126.338 107.887 126.592 107.75C126.865 107.594 127.119 107.438 127.354 107.281C127.51 107.164 127.666 107.066 127.822 106.988C127.979 106.891 128.135 106.832 128.291 106.812C128.643 106.48 128.955 106.188 129.229 105.934C129.521 105.68 129.824 105.426 130.137 105.172C130.723 104.703 131.289 104.195 131.836 103.648C132.383 103.102 132.822 102.418 133.154 101.598C133.35 101.48 133.555 101.422 133.77 101.422C133.984 101.422 134.209 101.471 134.443 101.568C134.678 101.666 134.902 101.764 135.117 101.861C135.176 101.9 135.225 101.93 135.264 101.949C135.322 101.969 135.371 101.988 135.41 102.008C135.41 102.203 135.488 102.369 135.645 102.506C135.723 102.564 135.771 102.604 135.791 102.623C135.811 102.643 135.84 102.662 135.879 102.682C136.172 102.838 136.357 102.994 136.436 103.15C136.572 103.6 136.816 103.941 137.168 104.176C137.129 104.371 137.129 104.557 137.168 104.732C137.227 104.889 137.295 105.055 137.373 105.23C137.393 105.289 137.412 105.348 137.432 105.406C137.451 105.465 137.48 105.533 137.52 105.611L136.963 105.553L137.051 106.109C137.09 106.383 137.061 106.686 136.963 107.018C136.885 107.35 136.787 107.613 136.67 107.809C136.689 108.316 136.699 108.717 136.699 109.01C136.719 109.283 136.709 109.547 136.67 109.801C136.631 110.035 136.572 110.26 136.494 110.475C136.436 110.689 136.348 110.924 136.23 111.178C136.309 112.428 136.162 113.57 135.791 114.605C135.439 115.621 135.068 116.578 134.678 117.477C134.639 117.574 134.59 117.672 134.531 117.77C134.492 117.867 134.453 117.965 134.414 118.062C134.238 118.121 134.082 118.189 133.945 118.268C133.809 118.326 133.662 118.395 133.506 118.473ZM154.014 102.506C154.033 102.643 154.033 102.75 154.014 102.828C154.014 102.887 154.004 102.945 153.984 103.004C153.984 103.062 153.984 103.131 153.984 103.209C153.984 103.268 154.004 103.365 154.043 103.502C153.633 104.166 153.154 104.625 152.607 104.879C152.08 105.113 151.504 105.289 150.879 105.406C150.254 105.504 149.609 105.611 148.945 105.729C148.301 105.846 147.656 106.1 147.012 106.49C146.758 106.393 146.523 106.393 146.309 106.49C146.113 106.588 145.82 106.617 145.43 106.578C145.312 106.695 145.166 106.783 144.99 106.842C144.814 106.881 144.639 106.93 144.463 106.988C144.541 107.164 144.57 107.35 144.551 107.545C144.551 107.721 144.58 107.867 144.639 107.984C145.322 108.043 146.074 108.033 146.895 107.955C147.734 107.877 148.555 107.828 149.355 107.809C149.375 107.906 149.365 107.975 149.326 108.014C149.287 108.033 149.277 108.082 149.297 108.16C149.434 108.258 149.57 108.385 149.707 108.541C149.844 108.678 149.98 108.814 150.117 108.951C150.254 109.088 150.391 109.205 150.527 109.303C150.684 109.381 150.859 109.41 151.055 109.391C151.133 109.547 151.182 109.723 151.201 109.918C151.24 110.094 151.221 110.279 151.143 110.475C150.83 110.689 150.518 110.914 150.205 111.148C149.893 111.363 149.561 111.559 149.209 111.734C148.877 111.91 148.516 112.057 148.125 112.174C147.754 112.271 147.334 112.311 146.865 112.291C146.768 112.291 146.689 112.291 146.631 112.291C146.592 112.291 146.533 112.262 146.455 112.203C146.299 112.301 146.074 112.33 145.781 112.291C145.508 112.252 145.293 112.281 145.137 112.379C144.922 112.281 144.658 112.242 144.346 112.262C144.053 112.262 143.789 112.223 143.555 112.145C143.242 112.555 142.959 112.994 142.705 113.463C142.451 113.932 142.227 114.43 142.031 114.957C142.695 115.055 143.242 115.094 143.672 115.074C144.121 115.055 144.541 115.025 144.932 114.986C145.322 114.928 145.723 114.879 146.133 114.84C146.543 114.781 147.061 114.762 147.686 114.781C148.076 114.566 148.535 114.43 149.062 114.371C149.609 114.293 150.107 114.176 150.557 114.02C150.713 114.078 150.85 114.186 150.967 114.342C151.084 114.479 151.191 114.615 151.289 114.752C151.406 114.869 151.523 114.977 151.641 115.074C151.758 115.172 151.904 115.211 152.08 115.191C152.158 115.27 152.207 115.367 152.227 115.484C152.266 115.582 152.295 115.68 152.314 115.777C152.334 115.875 152.363 115.963 152.402 116.041C152.461 116.1 152.549 116.119 152.666 116.1C152.373 116.744 152.031 117.242 151.641 117.594C151.27 117.926 150.84 118.18 150.352 118.355C149.863 118.531 149.316 118.668 148.711 118.766C148.125 118.863 147.471 118.98 146.748 119.117C146.572 119.156 146.426 119.146 146.309 119.088C146.191 119.049 146.055 119.029 145.898 119.029C145.449 119.127 144.912 119.215 144.287 119.293C143.662 119.371 143.027 119.4 142.383 119.381C141.738 119.361 141.123 119.273 140.537 119.117C139.951 118.98 139.473 118.727 139.102 118.355C138.945 118.219 138.838 118.062 138.779 117.887C138.74 117.691 138.613 117.545 138.398 117.447C138.379 117.193 138.34 116.91 138.281 116.598C138.223 116.285 138.164 115.963 138.105 115.631C138.047 115.279 137.998 114.938 137.959 114.605C137.939 114.273 137.959 113.971 138.018 113.697C138.076 113.404 138.193 113.141 138.369 112.906C138.564 112.672 138.633 112.418 138.574 112.145C138.672 112.125 138.73 112.076 138.75 111.998C138.77 111.9 138.848 111.861 138.984 111.881C139.102 111.529 139.229 111.197 139.365 110.885C139.502 110.572 139.639 110.27 139.775 109.977C139.932 109.684 140.078 109.391 140.215 109.098C140.371 108.785 140.518 108.443 140.654 108.072C140.381 107.818 140.176 107.545 140.039 107.252C139.922 106.939 139.834 106.637 139.775 106.344C139.717 106.031 139.668 105.719 139.629 105.406C139.59 105.074 139.521 104.742 139.424 104.41C139.619 104.117 139.854 103.883 140.127 103.707C140.42 103.512 140.732 103.355 141.064 103.238C141.396 103.121 141.758 103.023 142.148 102.945C142.539 102.867 142.949 102.779 143.379 102.682C144.16 102.428 144.854 102.232 145.459 102.096C146.084 101.959 146.689 101.852 147.275 101.773C147.881 101.676 148.506 101.588 149.15 101.51C149.795 101.432 150.527 101.314 151.348 101.158C151.523 101.334 151.689 101.422 151.846 101.422C151.924 101.246 152.012 101.197 152.109 101.275C152.227 101.334 152.275 101.275 152.256 101.1C152.451 101.432 152.695 101.715 152.988 101.949C153.301 102.164 153.643 102.35 154.014 102.506ZM159.316 113.668C159.141 113.707 159.014 113.814 158.936 113.99C158.857 114.146 158.779 114.312 158.701 114.488C158.643 114.664 158.574 114.83 158.496 114.986C158.438 115.123 158.34 115.191 158.203 115.191C158.184 115.348 158.125 115.484 158.027 115.602C157.949 115.719 157.871 115.846 157.793 115.982C157.715 116.1 157.656 116.236 157.617 116.393C157.578 116.529 157.598 116.695 157.676 116.891C157.52 117.008 157.422 117.174 157.383 117.389C157.344 117.604 157.295 117.809 157.236 118.004C157.197 118.199 157.119 118.365 157.002 118.502C156.885 118.639 156.67 118.697 156.357 118.678C156.299 118.756 156.289 118.805 156.328 118.824C156.367 118.844 156.396 118.912 156.416 119.029C156.201 118.99 156.035 119 155.918 119.059C155.82 119.137 155.693 119.186 155.537 119.205C155.166 119.088 154.854 118.883 154.6 118.59C154.365 118.297 154.15 117.975 153.955 117.623C153.779 117.252 153.613 116.881 153.457 116.51C153.32 116.139 153.184 115.816 153.047 115.543C153.105 115.328 153.115 115.123 153.076 114.928C153.037 114.713 152.969 114.537 152.871 114.4C153.828 112.369 154.873 110.201 156.006 107.896C157.139 105.592 158.213 103.316 159.229 101.07C159.678 101.246 160.117 101.451 160.547 101.686C160.996 101.9 161.396 102.154 161.748 102.447C162.119 102.74 162.432 103.082 162.686 103.473C162.939 103.844 163.105 104.264 163.184 104.732C163.145 104.85 163.096 104.898 163.037 104.879C162.998 104.84 162.959 104.85 162.92 104.908C162.998 105.006 163.037 105.074 163.037 105.113C163.057 105.152 163.057 105.191 163.037 105.23C163.037 105.27 163.037 105.328 163.037 105.406C163.037 105.465 163.066 105.553 163.125 105.67C163.047 105.65 162.988 105.66 162.949 105.699C162.93 105.738 162.871 105.738 162.773 105.699C162.852 105.914 162.871 106.09 162.832 106.227C162.812 106.363 162.773 106.49 162.715 106.607C162.656 106.705 162.607 106.822 162.568 106.959C162.529 107.076 162.539 107.232 162.598 107.428C162.539 107.428 162.49 107.447 162.451 107.486C162.432 107.506 162.412 107.535 162.393 107.574C162.373 107.594 162.344 107.623 162.305 107.662C162.285 107.682 162.246 107.682 162.188 107.662C162.246 108.092 162.266 108.521 162.246 108.951C162.227 109.381 162.207 109.82 162.188 110.27C162.188 110.699 162.197 111.158 162.217 111.646C162.236 112.115 162.305 112.604 162.422 113.111C163.125 112.701 163.682 112.174 164.092 111.529C164.521 110.885 164.863 110.162 165.117 109.361C165.391 108.561 165.596 107.701 165.732 106.783C165.869 105.865 166.016 104.928 166.172 103.971C166.348 103.795 166.484 103.58 166.582 103.326C166.68 103.072 166.768 102.809 166.846 102.535C166.924 102.242 167.002 101.959 167.08 101.686C167.158 101.393 167.256 101.129 167.373 100.895C167.666 100.934 167.91 101.031 168.105 101.188C168.32 101.324 168.516 101.48 168.691 101.656C168.867 101.812 169.053 101.969 169.248 102.125C169.443 102.262 169.688 102.35 169.98 102.389C170.215 102.721 170.43 103.043 170.625 103.355C170.82 103.668 170.947 104 171.006 104.352C170.908 104.508 170.83 104.684 170.771 104.879C170.732 105.074 170.684 105.27 170.625 105.465C170.566 105.66 170.488 105.846 170.391 106.021C170.293 106.178 170.156 106.314 169.98 106.432C169.922 106.939 169.844 107.408 169.746 107.838C169.668 108.248 169.58 108.658 169.482 109.068C169.404 109.479 169.336 109.908 169.277 110.357C169.219 110.787 169.199 111.266 169.219 111.793C169.062 112.242 168.896 112.721 168.721 113.229C168.545 113.736 168.408 114.195 168.311 114.605C167.998 114.859 167.754 115.162 167.578 115.514C167.402 115.865 167.217 116.217 167.021 116.568C166.943 116.646 166.895 116.666 166.875 116.627C166.855 116.588 166.787 116.559 166.67 116.539C166.689 116.617 166.689 116.676 166.67 116.715C166.65 116.754 166.621 116.793 166.582 116.832C166.562 116.852 166.543 116.891 166.523 116.949C166.523 117.008 166.543 117.086 166.582 117.184C166.309 117.301 166.064 117.467 165.85 117.682C165.635 117.896 165.4 118.092 165.146 118.268C164.912 118.443 164.619 118.561 164.268 118.619C163.936 118.678 163.496 118.609 162.949 118.414C162.148 117.828 161.436 117.154 160.811 116.393C160.205 115.631 159.707 114.723 159.316 113.668ZM186.914 104.908C186.426 104.908 185.898 104.947 185.332 105.025C184.766 105.084 184.209 105.152 183.662 105.23C183.271 105.289 182.891 105.338 182.52 105.377C182.168 105.416 181.846 105.445 181.553 105.465C181.416 105.895 181.279 106.275 181.143 106.607C181.006 106.939 180.859 107.262 180.703 107.574C180.547 107.906 180.4 108.248 180.264 108.6C180.146 108.932 180.029 109.293 179.912 109.684C179.717 109.996 179.551 110.289 179.414 110.562C179.297 110.816 179.199 111.109 179.121 111.441C178.887 111.734 178.711 112.047 178.594 112.379C178.477 112.691 178.389 112.965 178.33 113.199L178.213 113.551C178.096 113.668 178.027 113.766 178.008 113.844C177.988 113.902 177.939 113.961 177.861 114.02C177.842 114.234 177.773 114.449 177.656 114.664C177.617 114.762 177.588 114.859 177.568 114.957C177.549 115.035 177.539 115.094 177.539 115.133C177.539 115.328 177.49 115.455 177.393 115.514C177.412 115.611 177.412 115.719 177.393 115.836C177.373 115.934 177.354 116.031 177.334 116.129C177.275 116.363 177.256 116.549 177.275 116.686C177.334 116.764 177.383 116.832 177.422 116.891C177.48 116.949 177.52 117.027 177.539 117.125C177.656 117.203 177.744 117.252 177.803 117.271C177.881 117.33 177.998 117.398 178.154 117.477L178.418 117.77C178.516 118.336 178.428 118.785 178.154 119.117C177.861 119.488 177.363 119.674 176.66 119.674H176.309C176.211 119.576 176.152 119.498 176.133 119.439C175.977 119.381 175.85 119.332 175.752 119.293C175.654 119.254 175.566 119.176 175.488 119.059C175.234 118.941 175.029 118.844 174.873 118.766L174.609 118.619C174.609 118.404 174.609 118.287 174.609 118.268C174.473 118.092 174.365 117.896 174.287 117.682C174.229 117.467 174.18 117.252 174.141 117.037C174.102 116.861 174.053 116.695 173.994 116.539C173.955 116.383 173.896 116.246 173.818 116.129C173.779 114.996 173.887 114.039 174.141 113.258C174.395 112.477 174.658 111.725 174.932 111.002C175.088 110.611 175.244 110.221 175.4 109.83C175.557 109.42 175.693 109 175.811 108.57L176.074 108.277C176.211 107.965 176.318 107.711 176.396 107.516C176.494 107.301 176.592 107.086 176.689 106.871C176.748 106.734 176.797 106.607 176.836 106.49C176.895 106.354 176.943 106.236 176.982 106.139C176.865 106.139 176.758 106.148 176.66 106.168C176.562 106.168 176.465 106.178 176.367 106.197C176.25 106.217 176.143 106.236 176.045 106.256C175.947 106.256 175.85 106.256 175.752 106.256C175.615 106.256 175.518 106.246 175.459 106.227C175.244 106.324 175.01 106.373 174.756 106.373H174.463C174.404 106.373 174.346 106.373 174.287 106.373C174.248 106.354 174.209 106.344 174.17 106.344C173.975 106.344 173.818 106.373 173.701 106.432C173.467 106.432 173.242 106.432 173.027 106.432H172.734C172.695 106.432 172.646 106.441 172.588 106.461C172.529 106.461 172.48 106.461 172.441 106.461C172.305 106.461 172.158 106.451 172.002 106.432C171.846 106.393 171.68 106.324 171.504 106.227C171.27 105.914 171.113 105.748 171.035 105.729L170.771 105.377C170.752 105.26 170.723 105.152 170.684 105.055C170.645 104.938 170.605 104.811 170.566 104.674C170.488 104.479 170.41 104.273 170.332 104.059C170.273 103.824 170.244 103.551 170.244 103.238C170.264 103.082 170.303 102.965 170.361 102.887C170.42 102.809 170.469 102.74 170.508 102.682L170.596 102.242L170.977 102.271H171.797C172.422 102.271 173.057 102.252 173.701 102.213C174.346 102.154 175.01 102.096 175.693 102.037C176.084 101.998 176.475 101.959 176.865 101.92C177.275 101.881 177.695 101.842 178.125 101.803C178.203 101.627 178.281 101.461 178.359 101.305L178.652 101.158C179.004 101.139 179.248 101.188 179.385 101.305C179.541 101.402 179.668 101.5 179.766 101.598C180.195 101.559 180.625 101.52 181.055 101.48C181.504 101.422 181.953 101.354 182.402 101.275C183.066 101.178 183.73 101.09 184.395 101.012C185.078 100.934 185.732 100.895 186.357 100.895C186.631 100.895 186.895 100.904 187.148 100.924C187.402 100.943 187.637 100.973 187.852 101.012L188.145 101.217C188.203 101.334 188.281 101.441 188.379 101.539C188.496 101.637 188.613 101.734 188.73 101.832C188.965 102.047 189.199 102.301 189.434 102.594C189.668 102.887 189.756 103.316 189.697 103.883C189.541 104.117 189.424 104.254 189.346 104.293L189.082 104.645L188.789 104.615C188.672 104.615 188.564 104.635 188.467 104.674C188.369 104.693 188.271 104.723 188.174 104.762C188.096 104.801 188.018 104.84 187.939 104.879C187.861 104.898 187.773 104.918 187.676 104.938C187.5 104.938 187.354 104.938 187.236 104.938C187.139 104.918 187.031 104.908 186.914 104.908Z" fill="#E81E61"/>
<path d="M37.816 93V25.32H68.728C76.28 25.32 82.104 27.24 86.2 31.08C90.296 34.856 92.344 40.136 92.344 46.92C92.344 53.704 90.296 59.016 86.2 62.856C82.104 66.696 76.28 68.616 68.728 68.616H52.696V93H37.816ZM52.696 57.096H66.232C74.104 57.096 78.04 53.704 78.04 46.92C78.04 40.264 74.104 36.936 66.232 36.936H52.696V57.096ZM125.758 94.056C120.446 94.056 115.422 93.384 110.686 92.04C106.014 90.696 102.11 88.872 98.974 86.568L103.294 74.856C106.302 76.968 109.726 78.632 113.566 79.848C117.47 81.064 121.534 81.672 125.758 81.672C130.366 81.672 133.662 80.968 135.646 79.56C137.694 78.088 138.718 76.264 138.718 74.088C138.718 72.232 138.014 70.76 136.606 69.672C135.198 68.584 132.734 67.656 129.214 66.888L118.366 64.584C106.27 62.024 100.222 55.752 100.222 45.768C100.222 41.48 101.374 37.736 103.678 34.536C105.982 31.272 109.182 28.744 113.278 26.952C117.438 25.16 122.238 24.264 127.678 24.264C132.35 24.264 136.734 24.936 140.83 26.28C144.926 27.624 148.318 29.512 151.006 31.944L146.686 42.888C141.438 38.728 135.07 36.648 127.582 36.648C123.55 36.648 120.414 37.448 118.174 39.048C115.998 40.584 114.91 42.6 114.91 45.096C114.91 46.952 115.582 48.456 116.926 49.608C118.27 50.76 120.606 51.688 123.934 52.392L134.782 54.696C147.198 57.384 153.406 63.464 153.406 72.936C153.406 77.16 152.254 80.872 149.95 84.072C147.71 87.208 144.51 89.672 140.35 91.464C136.254 93.192 131.39 94.056 125.758 94.056Z" fill="#1EA7FD"/>
</svg>
