<svg width="190" height="142" viewBox="0 0 190 142" fill="none" xmlns="http://www.w3.org/2000/svg">
<rect x="24" y="14" width="101" height="112" fill="url(#paint0_linear_317_365)"/>
<rect x="24" y="14" width="101" height="112" fill="#9747FF" fill-opacity="0.18"/>
<rect x="10.5" y="3.5" width="159" height="135" stroke="url(#paint1_linear_317_365)" stroke-width="7"/>
<rect x="10.5" y="3.5" width="159" height="135" stroke="#9747FF" stroke-opacity="0.18" stroke-width="7"/>
<path d="M2.87109 120.322C2.30469 120.186 1.86523 119.961 1.55273 119.648C1.25977 119.316 1.03516 118.936 0.878906 118.506C0.742188 118.057 0.644531 117.568 0.585938 117.041C0.546875 116.514 0.498047 115.967 0.439453 115.4C0.517578 115.146 0.615234 114.932 0.732422 114.756C0.869141 114.58 0.927734 114.336 0.908203 114.023C1.12305 113.398 1.31836 112.793 1.49414 112.207C1.66992 111.621 1.78711 111.016 1.8457 110.391C1.96289 110.215 2.08008 110.098 2.19727 110.039C2.35352 108.926 2.37305 107.783 2.25586 106.611C2.13867 105.439 1.94336 104.355 1.66992 103.359C1.68945 103.145 1.71875 102.988 1.75781 102.891C1.79688 102.773 1.79688 102.676 1.75781 102.598C1.71875 102.422 1.77734 102.334 1.93359 102.334C2.08984 102.334 2.24609 102.334 2.40234 102.334C2.40234 101.982 2.33398 101.641 2.19727 101.309C2.08008 100.957 1.96289 100.557 1.8457 100.107C2.00195 99.7559 2.10938 99.4141 2.16797 99.082C2.22656 98.75 2.33398 98.4473 2.49023 98.1738C3.11523 98.3691 3.73047 98.5938 4.33594 98.8477C4.94141 99.1016 5.53711 99.3555 6.12305 99.6094C6.70898 99.8438 7.28516 100.078 7.85156 100.312C8.41797 100.527 8.97461 100.703 9.52148 100.84C10.3613 101.445 11.2207 102.051 12.0996 102.656C12.998 103.242 13.8086 103.896 14.5312 104.619C15.2734 105.322 15.8887 106.133 16.377 107.051C16.8652 107.969 17.1484 109.053 17.2266 110.303C17.1875 110.42 17.1582 110.518 17.1387 110.596C17.1191 110.674 17.0996 110.752 17.0801 110.83C17.0605 110.908 17.0508 110.996 17.0508 111.094C17.0508 111.191 17.0508 111.328 17.0508 111.504C16.3477 112.734 15.459 113.77 14.3848 114.609C13.3105 115.449 12.1387 116.191 10.8691 116.836C9.59961 117.48 8.27148 118.076 6.88477 118.623C5.51758 119.15 4.17969 119.717 2.87109 120.322ZM5.74219 103.711C5.56641 103.711 5.43945 103.75 5.36133 103.828C5.5957 104.707 5.77148 105.537 5.88867 106.318C6.00586 107.1 6.06445 107.881 6.06445 108.662C6.08398 109.443 6.04492 110.244 5.94727 111.064C5.84961 111.885 5.71289 112.773 5.53711 113.73C5.79102 113.711 6.01562 113.662 6.21094 113.584C6.40625 113.506 6.60156 113.418 6.79688 113.32C7.01172 113.223 7.22656 113.135 7.44141 113.057C7.67578 112.979 7.93945 112.93 8.23242 112.91C8.31055 112.754 8.4082 112.637 8.52539 112.559C8.66211 112.461 8.7793 112.363 8.87695 112.266C9.36523 112.07 9.85352 111.865 10.3418 111.65C10.8301 111.436 11.2793 111.191 11.6895 110.918C12.0996 110.645 12.4707 110.332 12.8027 109.98C13.1348 109.629 13.4082 109.209 13.623 108.721C13.4668 108.428 13.2715 108.184 13.0371 107.988C12.8223 107.773 12.5879 107.568 12.334 107.373C12.0996 107.158 11.8652 106.943 11.6309 106.729C11.416 106.494 11.2402 106.23 11.1035 105.938C10.791 105.898 10.5176 105.82 10.2832 105.703C10.0488 105.566 9.82422 105.439 9.60938 105.322C9.39453 105.186 9.16016 105.059 8.90625 104.941C8.67188 104.824 8.38867 104.756 8.05664 104.736C7.54883 104.463 7.08984 104.277 6.67969 104.18C6.26953 104.062 5.95703 103.906 5.74219 103.711ZM33.7207 103.506C33.7402 103.643 33.7402 103.75 33.7207 103.828C33.7207 103.887 33.7109 103.945 33.6914 104.004C33.6914 104.062 33.6914 104.131 33.6914 104.209C33.6914 104.268 33.7109 104.365 33.75 104.502C33.3398 105.166 32.8613 105.625 32.3145 105.879C31.7871 106.113 31.2109 106.289 30.5859 106.406C29.9609 106.504 29.3164 106.611 28.6523 106.729C28.0078 106.846 27.3633 107.1 26.7188 107.49C26.4648 107.393 26.2305 107.393 26.0156 107.49C25.8203 107.588 25.5273 107.617 25.1367 107.578C25.0195 107.695 24.873 107.783 24.6973 107.842C24.5215 107.881 24.3457 107.93 24.1699 107.988C24.248 108.164 24.2773 108.35 24.2578 108.545C24.2578 108.721 24.2871 108.867 24.3457 108.984C25.0293 109.043 25.7812 109.033 26.6016 108.955C27.4414 108.877 28.2617 108.828 29.0625 108.809C29.082 108.906 29.0723 108.975 29.0332 109.014C28.9941 109.033 28.9844 109.082 29.0039 109.16C29.1406 109.258 29.2773 109.385 29.4141 109.541C29.5508 109.678 29.6875 109.814 29.8242 109.951C29.9609 110.088 30.0977 110.205 30.2344 110.303C30.3906 110.381 30.5664 110.41 30.7617 110.391C30.8398 110.547 30.8887 110.723 30.9082 110.918C30.9473 111.094 30.9277 111.279 30.8496 111.475C30.5371 111.689 30.2246 111.914 29.9121 112.148C29.5996 112.363 29.2676 112.559 28.916 112.734C28.584 112.91 28.2227 113.057 27.832 113.174C27.4609 113.271 27.041 113.311 26.5723 113.291C26.4746 113.291 26.3965 113.291 26.3379 113.291C26.2988 113.291 26.2402 113.262 26.1621 113.203C26.0059 113.301 25.7812 113.33 25.4883 113.291C25.2148 113.252 25 113.281 24.8438 113.379C24.6289 113.281 24.3652 113.242 24.0527 113.262C23.7598 113.262 23.4961 113.223 23.2617 113.145C22.9492 113.555 22.666 113.994 22.4121 114.463C22.1582 114.932 21.9336 115.43 21.7383 115.957C22.4023 116.055 22.9492 116.094 23.3789 116.074C23.8281 116.055 24.248 116.025 24.6387 115.986C25.0293 115.928 25.4297 115.879 25.8398 115.84C26.25 115.781 26.7676 115.762 27.3926 115.781C27.7832 115.566 28.2422 115.43 28.7695 115.371C29.3164 115.293 29.8145 115.176 30.2637 115.02C30.4199 115.078 30.5566 115.186 30.6738 115.342C30.791 115.479 30.8984 115.615 30.9961 115.752C31.1133 115.869 31.2305 115.977 31.3477 116.074C31.4648 116.172 31.6113 116.211 31.7871 116.191C31.8652 116.27 31.9141 116.367 31.9336 116.484C31.9727 116.582 32.002 116.68 32.0215 116.777C32.041 116.875 32.0703 116.963 32.1094 117.041C32.168 117.1 32.2559 117.119 32.373 117.1C32.0801 117.744 31.7383 118.242 31.3477 118.594C30.9766 118.926 30.5469 119.18 30.0586 119.355C29.5703 119.531 29.0234 119.668 28.418 119.766C27.832 119.863 27.1777 119.98 26.4551 120.117C26.2793 120.156 26.1328 120.146 26.0156 120.088C25.8984 120.049 25.7617 120.029 25.6055 120.029C25.1562 120.127 24.6191 120.215 23.9941 120.293C23.3691 120.371 22.7344 120.4 22.0898 120.381C21.4453 120.361 20.8301 120.273 20.2441 120.117C19.6582 119.98 19.1797 119.727 18.8086 119.355C18.6523 119.219 18.5449 119.062 18.4863 118.887C18.4473 118.691 18.3203 118.545 18.1055 118.447C18.0859 118.193 18.0469 117.91 17.9883 117.598C17.9297 117.285 17.8711 116.963 17.8125 116.631C17.7539 116.279 17.7051 115.938 17.666 115.605C17.6465 115.273 17.666 114.971 17.7246 114.697C17.7832 114.404 17.9004 114.141 18.0762 113.906C18.2715 113.672 18.3398 113.418 18.2812 113.145C18.3789 113.125 18.4375 113.076 18.457 112.998C18.4766 112.9 18.5547 112.861 18.6914 112.881C18.8086 112.529 18.9355 112.197 19.0723 111.885C19.209 111.572 19.3457 111.27 19.4824 110.977C19.6387 110.684 19.7852 110.391 19.9219 110.098C20.0781 109.785 20.2246 109.443 20.3613 109.072C20.0879 108.818 19.8828 108.545 19.7461 108.252C19.6289 107.939 19.541 107.637 19.4824 107.344C19.4238 107.031 19.375 106.719 19.3359 106.406C19.2969 106.074 19.2285 105.742 19.1309 105.41C19.3262 105.117 19.5605 104.883 19.834 104.707C20.127 104.512 20.4395 104.355 20.7715 104.238C21.1035 104.121 21.4648 104.023 21.8555 103.945C22.2461 103.867 22.6562 103.779 23.0859 103.682C23.8672 103.428 24.5605 103.232 25.166 103.096C25.791 102.959 26.3965 102.852 26.9824 102.773C27.5879 102.676 28.2129 102.588 28.8574 102.51C29.502 102.432 30.2344 102.314 31.0547 102.158C31.2305 102.334 31.3965 102.422 31.5527 102.422C31.6309 102.246 31.7188 102.197 31.8164 102.275C31.9336 102.334 31.9824 102.275 31.9629 102.1C32.1582 102.432 32.4023 102.715 32.6953 102.949C33.0078 103.164 33.3496 103.35 33.7207 103.506ZM42.7734 114.844C42.7539 115.117 42.6855 115.381 42.5684 115.635C42.4707 115.869 42.3438 116.104 42.1875 116.338C42.0312 116.553 41.8555 116.768 41.6602 116.982C41.4844 117.178 41.3086 117.354 41.1328 117.51C41.1914 117.764 41.1914 117.959 41.1328 118.096C41.0938 118.213 41.084 118.398 41.1035 118.652C40.8105 119.434 40.3613 119.951 39.7559 120.205C39.1699 120.479 38.6133 120.43 38.0859 120.059C37.8711 119.902 37.6855 119.707 37.5293 119.473C37.3926 119.219 37.1973 119.062 36.9434 119.004C37.002 118.672 36.9727 118.34 36.8555 118.008C36.7383 117.676 36.6113 117.5 36.4746 117.48C36.416 117.07 36.3281 116.631 36.2109 116.162C36.0938 115.693 35.9863 115.225 35.8887 114.756C35.791 114.268 35.7031 113.799 35.625 113.35C35.5664 112.881 35.5469 112.451 35.5664 112.061C35.5859 111.865 35.5469 111.689 35.4492 111.533C35.3711 111.377 35.3125 111.191 35.2734 110.977C35.1953 110.527 35.166 110.059 35.1855 109.57C35.2246 109.062 35.2441 108.584 35.2441 108.135C35.2441 107.705 35.2148 107.246 35.1562 106.758C35.1172 106.25 35.0781 105.771 35.0391 105.322C35 104.854 34.9805 104.434 34.9805 104.062C34.9805 103.672 35.0293 103.369 35.127 103.154C35.2441 102.92 35.4004 102.734 35.5957 102.598C35.8105 102.441 36.0059 102.275 36.1816 102.1C36.6113 102.139 36.9531 102.314 37.207 102.627C37.4609 102.939 37.5586 103.232 37.5 103.506C37.9102 103.76 38.2324 104.092 38.4668 104.502C38.7207 104.893 38.916 105.342 39.0527 105.85C39.209 106.338 39.3164 106.865 39.375 107.432C39.4336 107.979 39.4824 108.525 39.5215 109.072C39.5605 109.6 39.5996 110.107 39.6387 110.596C39.6777 111.084 39.7559 111.504 39.873 111.855C40.5957 110.82 41.2012 109.902 41.6895 109.102C42.1777 108.281 42.6758 107.5 43.1836 106.758C43.6914 106.016 44.2578 105.264 44.8828 104.502C45.5078 103.74 46.3184 102.881 47.3145 101.924C47.5098 101.943 47.666 101.982 47.7832 102.041C47.9199 102.1 48.0371 102.148 48.1348 102.188C48.2324 102.227 48.3496 102.266 48.4863 102.305C48.623 102.324 48.8086 102.314 49.043 102.275C49.1211 102.471 49.1797 102.617 49.2188 102.715C49.2578 102.793 49.2871 102.881 49.3066 102.979C49.3457 103.057 49.3848 103.164 49.4238 103.301C49.4824 103.438 49.5703 103.633 49.6875 103.887C49.7461 103.945 49.7656 104.023 49.7461 104.121C49.7266 104.219 49.707 104.316 49.6875 104.414C49.6875 104.492 49.6875 104.551 49.6875 104.59C49.6875 104.629 49.7363 104.629 49.834 104.59C49.7754 104.863 49.668 105.117 49.5117 105.352C49.375 105.566 49.3164 105.83 49.3359 106.143C48.8867 106.729 48.3887 107.334 47.8418 107.959C47.3145 108.584 46.7773 109.229 46.2305 109.893C45.7031 110.557 45.1953 111.26 44.707 112.002C44.2188 112.725 43.7988 113.486 43.4473 114.287C43.3496 114.287 43.2715 114.316 43.2129 114.375C43.1738 114.434 43.1348 114.502 43.0957 114.58C43.0566 114.639 43.0078 114.697 42.9492 114.756C42.9102 114.814 42.8516 114.844 42.7734 114.844ZM63.9258 103.506C63.9453 103.643 63.9453 103.75 63.9258 103.828C63.9258 103.887 63.916 103.945 63.8965 104.004C63.8965 104.062 63.8965 104.131 63.8965 104.209C63.8965 104.268 63.916 104.365 63.9551 104.502C63.5449 105.166 63.0664 105.625 62.5195 105.879C61.9922 106.113 61.416 106.289 60.791 106.406C60.166 106.504 59.5215 106.611 58.8574 106.729C58.2129 106.846 57.5684 107.1 56.9238 107.49C56.6699 107.393 56.4355 107.393 56.2207 107.49C56.0254 107.588 55.7324 107.617 55.3418 107.578C55.2246 107.695 55.0781 107.783 54.9023 107.842C54.7266 107.881 54.5508 107.93 54.375 107.988C54.4531 108.164 54.4824 108.35 54.4629 108.545C54.4629 108.721 54.4922 108.867 54.5508 108.984C55.2344 109.043 55.9863 109.033 56.8066 108.955C57.6465 108.877 58.4668 108.828 59.2676 108.809C59.2871 108.906 59.2773 108.975 59.2383 109.014C59.1992 109.033 59.1895 109.082 59.209 109.16C59.3457 109.258 59.4824 109.385 59.6191 109.541C59.7559 109.678 59.8926 109.814 60.0293 109.951C60.166 110.088 60.3027 110.205 60.4395 110.303C60.5957 110.381 60.7715 110.41 60.9668 110.391C61.0449 110.547 61.0938 110.723 61.1133 110.918C61.1523 111.094 61.1328 111.279 61.0547 111.475C60.7422 111.689 60.4297 111.914 60.1172 112.148C59.8047 112.363 59.4727 112.559 59.1211 112.734C58.7891 112.91 58.4277 113.057 58.0371 113.174C57.666 113.271 57.2461 113.311 56.7773 113.291C56.6797 113.291 56.6016 113.291 56.543 113.291C56.5039 113.291 56.4453 113.262 56.3672 113.203C56.2109 113.301 55.9863 113.33 55.6934 113.291C55.4199 113.252 55.2051 113.281 55.0488 113.379C54.834 113.281 54.5703 113.242 54.2578 113.262C53.9648 113.262 53.7012 113.223 53.4668 113.145C53.1543 113.555 52.8711 113.994 52.6172 114.463C52.3633 114.932 52.1387 115.43 51.9434 115.957C52.6074 116.055 53.1543 116.094 53.584 116.074C54.0332 116.055 54.4531 116.025 54.8438 115.986C55.2344 115.928 55.6348 115.879 56.0449 115.84C56.4551 115.781 56.9727 115.762 57.5977 115.781C57.9883 115.566 58.4473 115.43 58.9746 115.371C59.5215 115.293 60.0195 115.176 60.4688 115.02C60.625 115.078 60.7617 115.186 60.8789 115.342C60.9961 115.479 61.1035 115.615 61.2012 115.752C61.3184 115.869 61.4355 115.977 61.5527 116.074C61.6699 116.172 61.8164 116.211 61.9922 116.191C62.0703 116.27 62.1191 116.367 62.1387 116.484C62.1777 116.582 62.207 116.68 62.2266 116.777C62.2461 116.875 62.2754 116.963 62.3145 117.041C62.373 117.1 62.4609 117.119 62.5781 117.1C62.2852 117.744 61.9434 118.242 61.5527 118.594C61.1816 118.926 60.752 119.18 60.2637 119.355C59.7754 119.531 59.2285 119.668 58.623 119.766C58.0371 119.863 57.3828 119.98 56.6602 120.117C56.4844 120.156 56.3379 120.146 56.2207 120.088C56.1035 120.049 55.9668 120.029 55.8105 120.029C55.3613 120.127 54.8242 120.215 54.1992 120.293C53.5742 120.371 52.9395 120.4 52.2949 120.381C51.6504 120.361 51.0352 120.273 50.4492 120.117C49.8633 119.98 49.3848 119.727 49.0137 119.355C48.8574 119.219 48.75 119.062 48.6914 118.887C48.6523 118.691 48.5254 118.545 48.3105 118.447C48.291 118.193 48.252 117.91 48.1934 117.598C48.1348 117.285 48.0762 116.963 48.0176 116.631C47.959 116.279 47.9102 115.938 47.8711 115.605C47.8516 115.273 47.8711 114.971 47.9297 114.697C47.9883 114.404 48.1055 114.141 48.2812 113.906C48.4766 113.672 48.5449 113.418 48.4863 113.145C48.584 113.125 48.6426 113.076 48.6621 112.998C48.6816 112.9 48.7598 112.861 48.8965 112.881C49.0137 112.529 49.1406 112.197 49.2773 111.885C49.4141 111.572 49.5508 111.27 49.6875 110.977C49.8438 110.684 49.9902 110.391 50.127 110.098C50.2832 109.785 50.4297 109.443 50.5664 109.072C50.293 108.818 50.0879 108.545 49.9512 108.252C49.834 107.939 49.7461 107.637 49.6875 107.344C49.6289 107.031 49.5801 106.719 49.541 106.406C49.502 106.074 49.4336 105.742 49.3359 105.41C49.5312 105.117 49.7656 104.883 50.0391 104.707C50.332 104.512 50.6445 104.355 50.9766 104.238C51.3086 104.121 51.6699 104.023 52.0605 103.945C52.4512 103.867 52.8613 103.779 53.291 103.682C54.0723 103.428 54.7656 103.232 55.3711 103.096C55.9961 102.959 56.6016 102.852 57.1875 102.773C57.793 102.676 58.418 102.588 59.0625 102.51C59.707 102.432 60.4395 102.314 61.2598 102.158C61.4355 102.334 61.6016 102.422 61.7578 102.422C61.8359 102.246 61.9238 102.197 62.0215 102.275C62.1387 102.334 62.1875 102.275 62.168 102.1C62.3633 102.432 62.6074 102.715 62.9004 102.949C63.2129 103.164 63.5547 103.35 63.9258 103.506ZM70.957 119.678C70.4102 119.854 69.8145 120.029 69.1699 120.205C68.5254 120.381 67.8809 120.469 67.2363 120.469C66.2598 120.469 65.4883 120.225 64.9219 119.736C64.8242 119.521 64.7363 119.375 64.6582 119.297C64.5996 119.219 64.541 119.141 64.4824 119.062C64.4434 118.965 64.4141 118.838 64.3945 118.682C64.1602 118.408 63.9746 118.096 63.8379 117.744C63.7012 117.373 63.6035 117.002 63.5449 116.631C63.5059 116.24 63.4961 115.85 63.5156 115.459C63.5547 115.068 63.623 114.697 63.7207 114.346C63.7598 114.268 63.7793 114.189 63.7793 114.111C63.7988 114.033 63.8184 113.945 63.8379 113.848C63.916 113.535 63.9941 113.232 64.0723 112.939C64.1699 112.646 64.2969 112.393 64.4531 112.178C64.375 112.002 64.375 111.807 64.4531 111.592C64.5312 111.377 64.6191 111.182 64.7168 111.006C64.9902 110.264 65.2148 109.639 65.3906 109.131C65.5859 108.604 65.7812 108.086 65.9766 107.578C66.3086 106.699 66.6211 105.83 66.9141 104.971C67.207 104.111 67.4707 103.184 67.7051 102.188C67.8613 102.09 67.9785 102.021 68.0566 101.982C68.1738 101.943 68.2715 101.914 68.3496 101.895C68.7012 102.07 69.1113 102.246 69.5801 102.422C70.0488 102.578 70.4395 102.656 70.752 102.656C70.9082 102.754 71.0059 102.832 71.0449 102.891C71.084 102.93 71.123 102.969 71.1621 103.008C71.377 103.262 71.5625 103.525 71.7188 103.799C71.875 104.053 71.9238 104.395 71.8652 104.824C71.748 105 71.6602 105.088 71.6016 105.088C71.5039 105.479 71.3965 105.811 71.2793 106.084C71.1816 106.357 71.0742 106.631 70.957 106.904C70.8203 107.197 70.6934 107.49 70.5762 107.783C70.459 108.076 70.3613 108.438 70.2832 108.867C70.2051 108.965 70.1465 109.053 70.1074 109.131C70.0879 109.209 70.0586 109.297 70.0195 109.395C69.9805 109.492 69.9316 109.6 69.873 109.717C69.834 109.814 69.7656 109.902 69.668 109.98C69.6094 110.488 69.5117 110.898 69.375 111.211C69.2578 111.523 69.1309 111.836 68.9941 112.148C68.7598 112.715 68.5449 113.281 68.3496 113.848C68.1738 114.414 68.0664 115.059 68.0273 115.781C68.125 115.742 68.2129 115.723 68.291 115.723C68.3887 115.723 68.4766 115.723 68.5547 115.723C68.7305 115.723 68.9355 115.752 69.1699 115.811C69.7559 115.498 70.3906 115.312 71.0742 115.254C71.7773 115.195 72.4707 115.156 73.1543 115.137C73.4277 115.137 73.7012 115.137 73.9746 115.137C74.248 115.137 74.502 115.117 74.7363 115.078C74.9121 115.176 75.0195 115.234 75.0586 115.254C75.1172 115.254 75.1953 115.254 75.293 115.254C75.4297 115.254 75.5469 115.264 75.6445 115.283C75.8789 115.498 76.1035 115.654 76.3184 115.752C76.5332 115.85 76.7578 115.938 76.9922 116.016C77.207 116.094 77.4121 116.182 77.6074 116.279C77.8223 116.357 78.0273 116.475 78.2227 116.631L78.4277 117.891C78.5645 118.066 78.623 118.184 78.6035 118.242C78.6035 118.398 78.5645 118.516 78.4863 118.594L78.5449 118.916C78.252 118.975 78.0469 119.043 77.9297 119.121C77.832 119.199 77.7344 119.287 77.6367 119.385C77.4805 119.404 77.3633 119.414 77.2852 119.414C77.2266 119.414 77.168 119.414 77.1094 119.414C76.8359 119.414 76.5039 119.463 76.1133 119.561C75.5859 119.385 75.0391 119.297 74.4727 119.297C74.2578 119.297 74.0332 119.307 73.7988 119.326C73.5645 119.346 73.3301 119.365 73.0957 119.385C72.8613 119.424 72.6172 119.453 72.3633 119.473C72.1289 119.492 71.8848 119.502 71.6309 119.502L70.957 119.678ZM96.2988 111.211C96.2793 111.445 96.2988 111.67 96.3574 111.885C96.416 112.1 96.4844 112.314 96.5625 112.529C96.6602 112.725 96.748 112.93 96.8262 113.145C96.9043 113.359 96.9629 113.574 97.002 113.789C97.041 114.062 97.041 114.365 97.002 114.697C96.9629 115.01 96.8945 115.322 96.7969 115.635C96.6992 115.928 96.5723 116.201 96.416 116.455C96.2598 116.689 96.0742 116.865 95.8594 116.982C95.5859 117.334 95.2539 117.607 94.8633 117.803C94.4727 117.998 94.1113 118.232 93.7793 118.506C93.5645 118.643 93.3203 118.74 93.0469 118.799C92.793 118.857 92.5293 118.916 92.2559 118.975C92.041 119.092 91.7871 119.219 91.4941 119.355C91.2012 119.473 90.8984 119.59 90.5859 119.707C90.2734 119.805 89.9609 119.883 89.6484 119.941C89.3359 119.98 89.0625 119.99 88.8281 119.971C88.2422 120.186 87.666 120.322 87.0996 120.381C86.5527 120.459 85.9082 120.42 85.166 120.264C84.4629 120.361 83.8086 120.332 83.2031 120.176C82.6172 120.02 82.0898 119.775 81.6211 119.443C81.1719 119.092 80.7715 118.682 80.4199 118.213C80.0879 117.725 79.8145 117.217 79.5996 116.689C79.4434 115.576 79.4824 114.57 79.7168 113.672C79.9512 112.754 80.2832 111.914 80.7129 111.152C81.1621 110.371 81.6699 109.658 82.2363 109.014C82.8027 108.35 83.3496 107.705 83.877 107.08C83.9941 107.119 84.082 107.119 84.1406 107.08C84.2188 107.021 84.2871 106.953 84.3457 106.875C84.4043 106.777 84.4629 106.689 84.5215 106.611C84.5996 106.533 84.6875 106.484 84.7852 106.465C84.9219 106.172 85.1172 105.957 85.3711 105.82C85.6445 105.664 85.8594 105.449 86.0156 105.176C86.1914 105.137 86.3379 105.078 86.4551 105C86.5723 104.922 86.6797 104.834 86.7773 104.736C86.8945 104.639 87.0117 104.551 87.1289 104.473C87.2461 104.375 87.3828 104.307 87.5391 104.268V103.945C87.8906 103.789 88.1445 103.613 88.3008 103.418C88.4766 103.203 88.6816 102.949 88.916 102.656C89.0918 102.637 89.2285 102.627 89.3262 102.627C89.4434 102.627 89.6094 102.607 89.8242 102.568C89.9805 102.295 90.1172 102.09 90.2344 101.953C90.3711 101.816 90.5664 101.67 90.8203 101.514C91.0547 101.631 91.3086 101.709 91.582 101.748C91.875 101.787 92.1289 101.914 92.3438 102.129C92.3633 102.324 92.4219 102.48 92.5195 102.598C92.6172 102.695 92.7246 102.793 92.8418 102.891C92.959 102.969 93.0664 103.057 93.1641 103.154C93.2812 103.252 93.3594 103.389 93.3984 103.564C93.4766 103.584 93.5254 103.574 93.5449 103.535C93.584 103.496 93.6426 103.486 93.7207 103.506C93.7793 103.779 93.8477 103.965 93.9258 104.062C94.0039 104.141 94.082 104.307 94.1602 104.561C94.0625 104.756 93.9844 104.961 93.9258 105.176C93.8867 105.371 93.7695 105.518 93.5742 105.615C93.5547 105.752 93.5938 105.83 93.6914 105.85C93.7891 105.85 93.8477 105.898 93.8672 105.996C93.8867 106.172 93.8574 106.299 93.7793 106.377C94.248 107.139 94.668 107.949 95.0391 108.809C95.4102 109.648 95.8301 110.449 96.2988 111.211ZM92.6367 113.994C92.7148 113.779 92.8125 113.604 92.9297 113.467C93.0664 113.33 93.1445 113.125 93.1641 112.852C93.0664 112.695 93.0078 112.578 92.9883 112.5C92.9688 112.402 92.959 112.256 92.959 112.061C92.5293 111.455 92.1582 110.811 91.8457 110.127C91.5332 109.424 91.1816 108.77 90.791 108.164C90.752 108.242 90.6836 108.32 90.5859 108.398C90.4883 108.477 90.3809 108.457 90.2637 108.34C90.2246 108.496 90.1562 108.613 90.0586 108.691C89.9609 108.75 89.8535 108.779 89.7363 108.779C89.6191 108.76 89.4922 108.73 89.3555 108.691C89.2383 108.633 89.1309 108.564 89.0332 108.486C88.4668 108.936 87.9004 109.375 87.334 109.805C86.7676 110.234 86.2598 110.732 85.8105 111.299C85.7324 111.338 85.6836 111.357 85.6641 111.357C85.6445 111.338 85.5859 111.348 85.4883 111.387C85.332 111.758 85.1367 112.1 84.9023 112.412C84.6875 112.705 84.4727 113.008 84.2578 113.32C84.043 113.633 83.8574 113.965 83.7012 114.316C83.5449 114.668 83.457 115.078 83.4375 115.547C83.7695 115.82 84.1602 115.986 84.6094 116.045C85.0586 116.104 85.5176 116.113 85.9863 116.074C86.4746 116.035 86.9434 115.977 87.3926 115.898C87.8613 115.801 88.291 115.752 88.6816 115.752C89.502 115.557 90.2051 115.303 90.791 114.99C91.377 114.658 91.9922 114.326 92.6367 113.994ZM108.545 101.836C109.365 101.934 110.098 102.1 110.742 102.334C111.387 102.568 111.934 102.881 112.383 103.271C112.695 103.76 112.988 104.287 113.262 104.854C113.555 105.42 113.77 106.016 113.906 106.641C114.062 107.246 114.131 107.871 114.111 108.516C114.111 109.16 113.975 109.814 113.701 110.479C113.135 111.182 112.441 111.758 111.621 112.207C110.82 112.637 109.951 112.988 109.014 113.262C108.076 113.535 107.1 113.77 106.084 113.965C105.088 114.16 104.111 114.355 103.154 114.551C103.174 115 103.174 115.479 103.154 115.986C103.154 116.475 103.105 116.973 103.008 117.48C102.93 117.969 102.803 118.447 102.627 118.916C102.451 119.385 102.217 119.814 101.924 120.205C101.592 120.205 101.25 120.244 100.898 120.322C100.547 120.42 100.234 120.498 99.9609 120.557C99.8242 120.479 99.6973 120.4 99.5801 120.322C99.4824 120.264 99.3359 120.225 99.1406 120.205C99.1797 120.01 99.1309 119.814 98.9941 119.619C98.8574 119.404 98.7207 119.189 98.584 118.975C98.4473 118.76 98.3496 118.555 98.291 118.359C98.252 118.164 98.3496 117.979 98.584 117.803C98.4473 117.666 98.3789 117.49 98.3789 117.275C98.5156 117.041 98.6328 116.719 98.7305 116.309C98.8477 115.898 98.9355 115.498 98.9941 115.107C99.0723 114.697 99.0918 114.326 99.0527 113.994C99.0137 113.662 98.8184 113.418 98.4668 113.262C98.4863 113.223 98.5254 113.203 98.584 113.203C98.6426 113.203 98.7012 113.193 98.7598 113.174C98.6035 113.057 98.5059 112.891 98.4668 112.676C98.4473 112.461 98.3789 112.275 98.2617 112.119C98.3008 112.021 98.3301 111.934 98.3496 111.855C98.3691 111.777 98.4375 111.748 98.5547 111.768C98.4961 111.416 98.4961 111.084 98.5547 110.771C98.6328 110.459 98.7402 110.166 98.877 109.893C99.0137 109.6 99.1797 109.316 99.375 109.043C99.5703 108.77 99.7559 108.496 99.9316 108.223C100.068 108.203 100.146 108.223 100.166 108.281C100.205 108.34 100.273 108.33 100.371 108.252C100.625 108.057 100.801 107.852 100.898 107.637C100.996 107.422 101.045 107.178 101.045 106.904C101.182 106.494 101.348 106.084 101.543 105.674C101.738 105.244 101.953 104.854 102.188 104.502C102.422 104.15 102.676 103.838 102.949 103.564C103.242 103.291 103.545 103.086 103.857 102.949C104.092 102.754 104.385 102.578 104.736 102.422C105.088 102.246 105.469 102.119 105.879 102.041C106.289 101.943 106.699 101.895 107.109 101.895C107.539 101.875 107.93 101.914 108.281 102.012C108.379 102.051 108.428 102.031 108.428 101.953C108.447 101.875 108.486 101.836 108.545 101.836ZM107.344 108.838C107.832 108.623 108.35 108.457 108.896 108.34C109.463 108.203 109.932 107.959 110.303 107.607C110.068 107.393 109.727 107.207 109.277 107.051C108.828 106.875 108.34 106.768 107.812 106.729C107.285 106.689 106.748 106.738 106.201 106.875C105.674 106.992 105.215 107.227 104.824 107.578C104.707 107.93 104.609 108.213 104.531 108.428C104.453 108.623 104.346 108.867 104.209 109.16C104.248 109.258 104.307 109.336 104.385 109.395C104.482 109.434 104.551 109.502 104.59 109.6C105.039 109.365 105.488 109.238 105.938 109.219C106.406 109.18 106.875 109.053 107.344 108.838ZM133.506 119.473C133.311 119.57 133.125 119.658 132.949 119.736C132.793 119.814 132.607 119.854 132.393 119.854C131.631 119.287 131.23 118.301 131.191 116.895C131.172 115.488 131.475 113.701 132.1 111.533C132.197 111.475 132.246 111.357 132.246 111.182L131.982 110.889C131.904 110.889 131.826 110.898 131.748 110.918C131.689 110.938 131.641 111.006 131.602 111.123C131.094 111.494 130.537 111.885 129.932 112.295C129.326 112.686 128.691 113.057 128.027 113.408C127.383 113.74 126.719 114.014 126.035 114.229C125.371 114.443 124.717 114.551 124.072 114.551C122.432 114.551 121.201 113.721 120.381 112.061L120.146 111.621L119.912 112.002C119.854 112.08 119.766 112.246 119.648 112.5C119.531 112.734 119.414 113.008 119.297 113.32C119.18 113.633 119.072 113.955 118.975 114.287C118.896 114.6 118.867 114.873 118.887 115.107C118.711 115.283 118.525 115.488 118.33 115.723C118.135 115.957 117.988 116.221 117.891 116.514C117.852 116.67 117.871 116.816 117.949 116.953C117.91 117.129 117.822 117.266 117.686 117.363C117.607 117.461 117.52 117.559 117.422 117.656C117.344 117.734 117.275 117.822 117.217 117.92C117.178 118.018 117.148 118.115 117.129 118.213C117.129 118.311 117.119 118.408 117.1 118.506C117.1 118.643 117.08 118.77 117.041 118.887C116.709 119.57 116.445 120.01 116.25 120.205C116.055 120.42 115.791 120.527 115.459 120.527C115.303 120.527 115.049 120.498 114.697 120.439C114.443 120.166 114.209 119.795 113.994 119.326C113.799 118.838 113.643 118.32 113.525 117.773C113.428 117.227 113.379 116.68 113.379 116.133C113.398 115.566 113.496 115.078 113.672 114.668C113.672 114.648 113.75 114.453 113.906 114.082C114.062 113.711 114.258 113.232 114.492 112.646C114.746 112.061 115.029 111.416 115.342 110.713C115.654 109.99 115.967 109.297 116.279 108.633C116.592 107.949 116.885 107.324 117.158 106.758C117.451 106.191 117.695 105.762 117.891 105.469C118.047 105.234 118.184 105.02 118.301 104.824C118.438 104.609 118.564 104.404 118.682 104.209C119.033 103.604 119.365 103.105 119.678 102.715C120.01 102.305 120.488 101.982 121.113 101.748C121.543 101.924 121.855 102.129 122.051 102.363L122.109 102.686C122.188 102.881 122.305 102.979 122.461 102.979C122.676 103.037 122.852 103.096 122.988 103.154C123.145 103.193 123.311 103.232 123.486 103.271C123.623 103.428 123.75 103.613 123.867 103.828C124.023 104.062 124.17 104.297 124.307 104.531C124.463 104.746 124.58 104.971 124.658 105.205C124.756 105.42 124.805 105.645 124.805 105.879C124.824 106.113 124.785 106.357 124.688 106.611L124.717 106.904C124.814 107.08 124.834 107.324 124.775 107.637C124.756 107.773 124.746 107.92 124.746 108.076C124.746 108.213 124.766 108.369 124.805 108.545C125.156 108.818 125.469 108.955 125.742 108.955C126.055 108.955 126.338 108.887 126.592 108.75C126.865 108.594 127.119 108.438 127.354 108.281C127.51 108.164 127.666 108.066 127.822 107.988C127.979 107.891 128.135 107.832 128.291 107.812C128.643 107.48 128.955 107.188 129.229 106.934C129.521 106.68 129.824 106.426 130.137 106.172C130.723 105.703 131.289 105.195 131.836 104.648C132.383 104.102 132.822 103.418 133.154 102.598C133.35 102.48 133.555 102.422 133.77 102.422C133.984 102.422 134.209 102.471 134.443 102.568C134.678 102.666 134.902 102.764 135.117 102.861C135.176 102.9 135.225 102.93 135.264 102.949C135.322 102.969 135.371 102.988 135.41 103.008C135.41 103.203 135.488 103.369 135.645 103.506C135.723 103.564 135.771 103.604 135.791 103.623C135.811 103.643 135.84 103.662 135.879 103.682C136.172 103.838 136.357 103.994 136.436 104.15C136.572 104.6 136.816 104.941 137.168 105.176C137.129 105.371 137.129 105.557 137.168 105.732C137.227 105.889 137.295 106.055 137.373 106.23C137.393 106.289 137.412 106.348 137.432 106.406C137.451 106.465 137.48 106.533 137.52 106.611L136.963 106.553L137.051 107.109C137.09 107.383 137.061 107.686 136.963 108.018C136.885 108.35 136.787 108.613 136.67 108.809C136.689 109.316 136.699 109.717 136.699 110.01C136.719 110.283 136.709 110.547 136.67 110.801C136.631 111.035 136.572 111.26 136.494 111.475C136.436 111.689 136.348 111.924 136.23 112.178C136.309 113.428 136.162 114.57 135.791 115.605C135.439 116.621 135.068 117.578 134.678 118.477C134.639 118.574 134.59 118.672 134.531 118.77C134.492 118.867 134.453 118.965 134.414 119.062C134.238 119.121 134.082 119.189 133.945 119.268C133.809 119.326 133.662 119.395 133.506 119.473ZM154.014 103.506C154.033 103.643 154.033 103.75 154.014 103.828C154.014 103.887 154.004 103.945 153.984 104.004C153.984 104.062 153.984 104.131 153.984 104.209C153.984 104.268 154.004 104.365 154.043 104.502C153.633 105.166 153.154 105.625 152.607 105.879C152.08 106.113 151.504 106.289 150.879 106.406C150.254 106.504 149.609 106.611 148.945 106.729C148.301 106.846 147.656 107.1 147.012 107.49C146.758 107.393 146.523 107.393 146.309 107.49C146.113 107.588 145.82 107.617 145.43 107.578C145.312 107.695 145.166 107.783 144.99 107.842C144.814 107.881 144.639 107.93 144.463 107.988C144.541 108.164 144.57 108.35 144.551 108.545C144.551 108.721 144.58 108.867 144.639 108.984C145.322 109.043 146.074 109.033 146.895 108.955C147.734 108.877 148.555 108.828 149.355 108.809C149.375 108.906 149.365 108.975 149.326 109.014C149.287 109.033 149.277 109.082 149.297 109.16C149.434 109.258 149.57 109.385 149.707 109.541C149.844 109.678 149.98 109.814 150.117 109.951C150.254 110.088 150.391 110.205 150.527 110.303C150.684 110.381 150.859 110.41 151.055 110.391C151.133 110.547 151.182 110.723 151.201 110.918C151.24 111.094 151.221 111.279 151.143 111.475C150.83 111.689 150.518 111.914 150.205 112.148C149.893 112.363 149.561 112.559 149.209 112.734C148.877 112.91 148.516 113.057 148.125 113.174C147.754 113.271 147.334 113.311 146.865 113.291C146.768 113.291 146.689 113.291 146.631 113.291C146.592 113.291 146.533 113.262 146.455 113.203C146.299 113.301 146.074 113.33 145.781 113.291C145.508 113.252 145.293 113.281 145.137 113.379C144.922 113.281 144.658 113.242 144.346 113.262C144.053 113.262 143.789 113.223 143.555 113.145C143.242 113.555 142.959 113.994 142.705 114.463C142.451 114.932 142.227 115.43 142.031 115.957C142.695 116.055 143.242 116.094 143.672 116.074C144.121 116.055 144.541 116.025 144.932 115.986C145.322 115.928 145.723 115.879 146.133 115.84C146.543 115.781 147.061 115.762 147.686 115.781C148.076 115.566 148.535 115.43 149.062 115.371C149.609 115.293 150.107 115.176 150.557 115.02C150.713 115.078 150.85 115.186 150.967 115.342C151.084 115.479 151.191 115.615 151.289 115.752C151.406 115.869 151.523 115.977 151.641 116.074C151.758 116.172 151.904 116.211 152.08 116.191C152.158 116.27 152.207 116.367 152.227 116.484C152.266 116.582 152.295 116.68 152.314 116.777C152.334 116.875 152.363 116.963 152.402 117.041C152.461 117.1 152.549 117.119 152.666 117.1C152.373 117.744 152.031 118.242 151.641 118.594C151.27 118.926 150.84 119.18 150.352 119.355C149.863 119.531 149.316 119.668 148.711 119.766C148.125 119.863 147.471 119.98 146.748 120.117C146.572 120.156 146.426 120.146 146.309 120.088C146.191 120.049 146.055 120.029 145.898 120.029C145.449 120.127 144.912 120.215 144.287 120.293C143.662 120.371 143.027 120.4 142.383 120.381C141.738 120.361 141.123 120.273 140.537 120.117C139.951 119.98 139.473 119.727 139.102 119.355C138.945 119.219 138.838 119.062 138.779 118.887C138.74 118.691 138.613 118.545 138.398 118.447C138.379 118.193 138.34 117.91 138.281 117.598C138.223 117.285 138.164 116.963 138.105 116.631C138.047 116.279 137.998 115.938 137.959 115.605C137.939 115.273 137.959 114.971 138.018 114.697C138.076 114.404 138.193 114.141 138.369 113.906C138.564 113.672 138.633 113.418 138.574 113.145C138.672 113.125 138.73 113.076 138.75 112.998C138.77 112.9 138.848 112.861 138.984 112.881C139.102 112.529 139.229 112.197 139.365 111.885C139.502 111.572 139.639 111.27 139.775 110.977C139.932 110.684 140.078 110.391 140.215 110.098C140.371 109.785 140.518 109.443 140.654 109.072C140.381 108.818 140.176 108.545 140.039 108.252C139.922 107.939 139.834 107.637 139.775 107.344C139.717 107.031 139.668 106.719 139.629 106.406C139.59 106.074 139.521 105.742 139.424 105.41C139.619 105.117 139.854 104.883 140.127 104.707C140.42 104.512 140.732 104.355 141.064 104.238C141.396 104.121 141.758 104.023 142.148 103.945C142.539 103.867 142.949 103.779 143.379 103.682C144.16 103.428 144.854 103.232 145.459 103.096C146.084 102.959 146.689 102.852 147.275 102.773C147.881 102.676 148.506 102.588 149.15 102.51C149.795 102.432 150.527 102.314 151.348 102.158C151.523 102.334 151.689 102.422 151.846 102.422C151.924 102.246 152.012 102.197 152.109 102.275C152.227 102.334 152.275 102.275 152.256 102.1C152.451 102.432 152.695 102.715 152.988 102.949C153.301 103.164 153.643 103.35 154.014 103.506ZM159.316 114.668C159.141 114.707 159.014 114.814 158.936 114.99C158.857 115.146 158.779 115.312 158.701 115.488C158.643 115.664 158.574 115.83 158.496 115.986C158.438 116.123 158.34 116.191 158.203 116.191C158.184 116.348 158.125 116.484 158.027 116.602C157.949 116.719 157.871 116.846 157.793 116.982C157.715 117.1 157.656 117.236 157.617 117.393C157.578 117.529 157.598 117.695 157.676 117.891C157.52 118.008 157.422 118.174 157.383 118.389C157.344 118.604 157.295 118.809 157.236 119.004C157.197 119.199 157.119 119.365 157.002 119.502C156.885 119.639 156.67 119.697 156.357 119.678C156.299 119.756 156.289 119.805 156.328 119.824C156.367 119.844 156.396 119.912 156.416 120.029C156.201 119.99 156.035 120 155.918 120.059C155.82 120.137 155.693 120.186 155.537 120.205C155.166 120.088 154.854 119.883 154.6 119.59C154.365 119.297 154.15 118.975 153.955 118.623C153.779 118.252 153.613 117.881 153.457 117.51C153.32 117.139 153.184 116.816 153.047 116.543C153.105 116.328 153.115 116.123 153.076 115.928C153.037 115.713 152.969 115.537 152.871 115.4C153.828 113.369 154.873 111.201 156.006 108.896C157.139 106.592 158.213 104.316 159.229 102.07C159.678 102.246 160.117 102.451 160.547 102.686C160.996 102.9 161.396 103.154 161.748 103.447C162.119 103.74 162.432 104.082 162.686 104.473C162.939 104.844 163.105 105.264 163.184 105.732C163.145 105.85 163.096 105.898 163.037 105.879C162.998 105.84 162.959 105.85 162.92 105.908C162.998 106.006 163.037 106.074 163.037 106.113C163.057 106.152 163.057 106.191 163.037 106.23C163.037 106.27 163.037 106.328 163.037 106.406C163.037 106.465 163.066 106.553 163.125 106.67C163.047 106.65 162.988 106.66 162.949 106.699C162.93 106.738 162.871 106.738 162.773 106.699C162.852 106.914 162.871 107.09 162.832 107.227C162.812 107.363 162.773 107.49 162.715 107.607C162.656 107.705 162.607 107.822 162.568 107.959C162.529 108.076 162.539 108.232 162.598 108.428C162.539 108.428 162.49 108.447 162.451 108.486C162.432 108.506 162.412 108.535 162.393 108.574C162.373 108.594 162.344 108.623 162.305 108.662C162.285 108.682 162.246 108.682 162.188 108.662C162.246 109.092 162.266 109.521 162.246 109.951C162.227 110.381 162.207 110.82 162.188 111.27C162.188 111.699 162.197 112.158 162.217 112.646C162.236 113.115 162.305 113.604 162.422 114.111C163.125 113.701 163.682 113.174 164.092 112.529C164.521 111.885 164.863 111.162 165.117 110.361C165.391 109.561 165.596 108.701 165.732 107.783C165.869 106.865 166.016 105.928 166.172 104.971C166.348 104.795 166.484 104.58 166.582 104.326C166.68 104.072 166.768 103.809 166.846 103.535C166.924 103.242 167.002 102.959 167.08 102.686C167.158 102.393 167.256 102.129 167.373 101.895C167.666 101.934 167.91 102.031 168.105 102.188C168.32 102.324 168.516 102.48 168.691 102.656C168.867 102.812 169.053 102.969 169.248 103.125C169.443 103.262 169.688 103.35 169.98 103.389C170.215 103.721 170.43 104.043 170.625 104.355C170.82 104.668 170.947 105 171.006 105.352C170.908 105.508 170.83 105.684 170.771 105.879C170.732 106.074 170.684 106.27 170.625 106.465C170.566 106.66 170.488 106.846 170.391 107.021C170.293 107.178 170.156 107.314 169.98 107.432C169.922 107.939 169.844 108.408 169.746 108.838C169.668 109.248 169.58 109.658 169.482 110.068C169.404 110.479 169.336 110.908 169.277 111.357C169.219 111.787 169.199 112.266 169.219 112.793C169.062 113.242 168.896 113.721 168.721 114.229C168.545 114.736 168.408 115.195 168.311 115.605C167.998 115.859 167.754 116.162 167.578 116.514C167.402 116.865 167.217 117.217 167.021 117.568C166.943 117.646 166.895 117.666 166.875 117.627C166.855 117.588 166.787 117.559 166.67 117.539C166.689 117.617 166.689 117.676 166.67 117.715C166.65 117.754 166.621 117.793 166.582 117.832C166.562 117.852 166.543 117.891 166.523 117.949C166.523 118.008 166.543 118.086 166.582 118.184C166.309 118.301 166.064 118.467 165.85 118.682C165.635 118.896 165.4 119.092 165.146 119.268C164.912 119.443 164.619 119.561 164.268 119.619C163.936 119.678 163.496 119.609 162.949 119.414C162.148 118.828 161.436 118.154 160.811 117.393C160.205 116.631 159.707 115.723 159.316 114.668ZM186.914 105.908C186.426 105.908 185.898 105.947 185.332 106.025C184.766 106.084 184.209 106.152 183.662 106.23C183.271 106.289 182.891 106.338 182.52 106.377C182.168 106.416 181.846 106.445 181.553 106.465C181.416 106.895 181.279 107.275 181.143 107.607C181.006 107.939 180.859 108.262 180.703 108.574C180.547 108.906 180.4 109.248 180.264 109.6C180.146 109.932 180.029 110.293 179.912 110.684C179.717 110.996 179.551 111.289 179.414 111.562C179.297 111.816 179.199 112.109 179.121 112.441C178.887 112.734 178.711 113.047 178.594 113.379C178.477 113.691 178.389 113.965 178.33 114.199L178.213 114.551C178.096 114.668 178.027 114.766 178.008 114.844C177.988 114.902 177.939 114.961 177.861 115.02C177.842 115.234 177.773 115.449 177.656 115.664C177.617 115.762 177.588 115.859 177.568 115.957C177.549 116.035 177.539 116.094 177.539 116.133C177.539 116.328 177.49 116.455 177.393 116.514C177.412 116.611 177.412 116.719 177.393 116.836C177.373 116.934 177.354 117.031 177.334 117.129C177.275 117.363 177.256 117.549 177.275 117.686C177.334 117.764 177.383 117.832 177.422 117.891C177.48 117.949 177.52 118.027 177.539 118.125C177.656 118.203 177.744 118.252 177.803 118.271C177.881 118.33 177.998 118.398 178.154 118.477L178.418 118.77C178.516 119.336 178.428 119.785 178.154 120.117C177.861 120.488 177.363 120.674 176.66 120.674H176.309C176.211 120.576 176.152 120.498 176.133 120.439C175.977 120.381 175.85 120.332 175.752 120.293C175.654 120.254 175.566 120.176 175.488 120.059C175.234 119.941 175.029 119.844 174.873 119.766L174.609 119.619C174.609 119.404 174.609 119.287 174.609 119.268C174.473 119.092 174.365 118.896 174.287 118.682C174.229 118.467 174.18 118.252 174.141 118.037C174.102 117.861 174.053 117.695 173.994 117.539C173.955 117.383 173.896 117.246 173.818 117.129C173.779 115.996 173.887 115.039 174.141 114.258C174.395 113.477 174.658 112.725 174.932 112.002C175.088 111.611 175.244 111.221 175.4 110.83C175.557 110.42 175.693 110 175.811 109.57L176.074 109.277C176.211 108.965 176.318 108.711 176.396 108.516C176.494 108.301 176.592 108.086 176.689 107.871C176.748 107.734 176.797 107.607 176.836 107.49C176.895 107.354 176.943 107.236 176.982 107.139C176.865 107.139 176.758 107.148 176.66 107.168C176.562 107.168 176.465 107.178 176.367 107.197C176.25 107.217 176.143 107.236 176.045 107.256C175.947 107.256 175.85 107.256 175.752 107.256C175.615 107.256 175.518 107.246 175.459 107.227C175.244 107.324 175.01 107.373 174.756 107.373H174.463C174.404 107.373 174.346 107.373 174.287 107.373C174.248 107.354 174.209 107.344 174.17 107.344C173.975 107.344 173.818 107.373 173.701 107.432C173.467 107.432 173.242 107.432 173.027 107.432H172.734C172.695 107.432 172.646 107.441 172.588 107.461C172.529 107.461 172.48 107.461 172.441 107.461C172.305 107.461 172.158 107.451 172.002 107.432C171.846 107.393 171.68 107.324 171.504 107.227C171.27 106.914 171.113 106.748 171.035 106.729L170.771 106.377C170.752 106.26 170.723 106.152 170.684 106.055C170.645 105.938 170.605 105.811 170.566 105.674C170.488 105.479 170.41 105.273 170.332 105.059C170.273 104.824 170.244 104.551 170.244 104.238C170.264 104.082 170.303 103.965 170.361 103.887C170.42 103.809 170.469 103.74 170.508 103.682L170.596 103.242L170.977 103.271H171.797C172.422 103.271 173.057 103.252 173.701 103.213C174.346 103.154 175.01 103.096 175.693 103.037C176.084 102.998 176.475 102.959 176.865 102.92C177.275 102.881 177.695 102.842 178.125 102.803C178.203 102.627 178.281 102.461 178.359 102.305L178.652 102.158C179.004 102.139 179.248 102.188 179.385 102.305C179.541 102.402 179.668 102.5 179.766 102.598C180.195 102.559 180.625 102.52 181.055 102.48C181.504 102.422 181.953 102.354 182.402 102.275C183.066 102.178 183.73 102.09 184.395 102.012C185.078 101.934 185.732 101.895 186.357 101.895C186.631 101.895 186.895 101.904 187.148 101.924C187.402 101.943 187.637 101.973 187.852 102.012L188.145 102.217C188.203 102.334 188.281 102.441 188.379 102.539C188.496 102.637 188.613 102.734 188.73 102.832C188.965 103.047 189.199 103.301 189.434 103.594C189.668 103.887 189.756 104.316 189.697 104.883C189.541 105.117 189.424 105.254 189.346 105.293L189.082 105.645L188.789 105.615C188.672 105.615 188.564 105.635 188.467 105.674C188.369 105.693 188.271 105.723 188.174 105.762C188.096 105.801 188.018 105.84 187.939 105.879C187.861 105.898 187.773 105.918 187.676 105.938C187.5 105.938 187.354 105.938 187.236 105.938C187.139 105.918 187.031 105.908 186.914 105.908Z" fill="#E81E61"/>
<path d="M35.816 93V25.32H66.728C74.28 25.32 80.104 27.24 84.2 31.08C88.296 34.856 90.344 40.136 90.344 46.92C90.344 53.704 88.296 59.016 84.2 62.856C80.104 66.696 74.28 68.616 66.728 68.616H50.696V93H35.816ZM50.696 57.096H64.232C72.104 57.096 76.04 53.704 76.04 46.92C76.04 40.264 72.104 36.936 64.232 36.936H50.696V57.096ZM123.758 94.056C118.446 94.056 113.422 93.384 108.686 92.04C104.014 90.696 100.11 88.872 96.974 86.568L101.294 74.856C104.302 76.968 107.726 78.632 111.566 79.848C115.47 81.064 119.534 81.672 123.758 81.672C128.366 81.672 131.662 80.968 133.646 79.56C135.694 78.088 136.718 76.264 136.718 74.088C136.718 72.232 136.014 70.76 134.606 69.672C133.198 68.584 130.734 67.656 127.214 66.888L116.366 64.584C104.27 62.024 98.222 55.752 98.222 45.768C98.222 41.48 99.374 37.736 101.678 34.536C103.982 31.272 107.182 28.744 111.278 26.952C115.438 25.16 120.238 24.264 125.678 24.264C130.35 24.264 134.734 24.936 138.83 26.28C142.926 27.624 146.318 29.512 149.006 31.944L144.686 42.888C139.438 38.728 133.07 36.648 125.582 36.648C121.55 36.648 118.414 37.448 116.174 39.048C113.998 40.584 112.91 42.6 112.91 45.096C112.91 46.952 113.582 48.456 114.926 49.608C116.27 50.76 118.606 51.688 121.934 52.392L132.782 54.696C145.198 57.384 151.406 63.464 151.406 72.936C151.406 77.16 150.254 80.872 147.95 84.072C145.71 87.208 142.51 89.672 138.35 91.464C134.254 93.192 129.39 94.056 123.758 94.056Z" fill="#1EA7FD"/>
<defs>
<linearGradient id="paint0_linear_317_365" x1="74.5" y1="14" x2="74.5" y2="126" gradientUnits="userSpaceOnUse">
<stop stop-color="#2B2347" stop-opacity="0.81"/>
<stop offset="1" stop-color="#212132"/>
</linearGradient>
<linearGradient id="paint1_linear_317_365" x1="90" y1="0" x2="90" y2="142" gradientUnits="userSpaceOnUse">
<stop stop-color="#2B2347" stop-opacity="0.81"/>
<stop offset="1" stop-color="#212132"/>
</linearGradient>
</defs>
</svg>
