<svg xmlns="http://www.w3.org/2000/svg" width="634" height="465" fill="none" viewBox="0 0 634 465"><rect width="336.782" height="366.761" x="83.362" y="45.845" fill="url(#paint0_linear_329_394)"/><path stroke="url(#paint1_linear_329_394)" stroke-width="25" d="M39.1758 12.5H567.699V452.5H39.1758V12.5Z"/><path fill="#fff" d="M124.012 297.993V76.3648H227.088C252.27 76.3648 271.69 82.6521 285.348 95.2267C299.006 107.592 305.835 124.882 305.835 147.097C305.835 169.312 299.006 186.707 285.348 199.282C271.69 211.857 252.27 218.144 227.088 218.144H173.629V297.993H124.012ZM173.629 180.42H218.765C245.014 180.42 258.138 169.312 258.138 147.097C258.138 125.301 245.014 114.403 218.765 114.403H173.629V180.42Z"/><path fill="#fff" d="M417.253 301.451C399.54 301.451 382.788 299.25 366.996 294.849C351.417 290.448 338.399 284.475 327.942 276.93L342.347 238.578C352.377 245.494 363.794 250.943 376.599 254.925C389.617 258.907 403.168 260.898 417.253 260.898C432.618 260.898 443.608 258.592 450.224 253.982C457.053 249.161 460.468 243.188 460.468 236.063C460.468 229.985 458.12 225.165 453.425 221.602C448.73 218.039 440.514 215 428.777 212.485L392.604 204.941C352.271 196.557 332.104 176.019 332.104 143.325C332.104 129.283 335.945 117.023 343.628 106.544C351.31 95.8555 361.981 87.5772 375.639 81.709C389.51 75.8408 405.515 72.9067 423.655 72.9067C439.234 72.9067 453.852 75.1073 467.51 79.5084C481.168 83.9096 492.479 90.0921 501.442 98.056L487.037 133.894C469.537 120.271 448.303 113.46 423.335 113.46C409.89 113.46 399.433 116.08 391.964 121.319C384.708 126.349 381.08 132.951 381.08 141.124C381.08 147.202 383.321 152.127 387.803 155.899C392.284 159.672 400.074 162.711 411.171 165.016L447.343 172.561C488.744 181.363 509.444 201.273 509.444 232.29C509.444 246.123 505.603 258.278 497.92 268.757C490.451 279.026 479.781 287.095 465.909 292.963C452.251 298.622 436.033 301.451 417.253 301.451Z"/><path fill="#fff" d="M9.57358 394.013C7.68491 393.565 6.21956 392.83 5.17754 391.806C4.20064 390.719 3.45169 389.472 2.93068 388.065C2.47479 386.594 2.14916 384.995 1.95378 383.268C1.82353 381.541 1.66071 379.75 1.46533 377.896C1.72584 377.064 2.05147 376.361 2.44223 375.785C2.89811 375.209 3.09349 374.41 3.02837 373.387C3.74476 371.34 4.39602 369.357 4.98216 367.438C5.5683 365.52 5.95906 363.537 6.15444 361.49C6.5452 360.915 6.93595 360.531 7.32671 360.339C7.84772 356.693 7.91285 352.952 7.52209 349.114C7.13133 345.277 6.48007 341.727 5.5683 338.465C5.63342 337.762 5.73111 337.25 5.86137 336.93C5.99162 336.547 5.99162 336.227 5.86137 335.971C5.73111 335.395 5.92649 335.108 6.44751 335.108C6.96852 335.108 7.48953 335.108 8.01054 335.108C8.01054 333.956 7.7826 332.837 7.32671 331.75C6.93595 330.599 6.5452 329.287 6.15444 327.816C6.67545 326.665 7.03364 325.546 7.22902 324.459C7.4244 323.371 7.7826 322.38 8.30361 321.485C10.3877 322.124 12.4391 322.86 14.4581 323.691C16.477 324.523 18.4633 325.354 20.4171 326.186C22.3709 326.953 24.2922 327.721 26.1808 328.488C28.0695 329.192 29.9256 329.767 31.7491 330.215C34.5496 332.198 37.4151 334.18 40.3458 336.163C43.3416 338.082 46.0444 340.224 48.4541 342.591C50.9289 344.893 52.9804 347.547 54.6085 350.554C56.2367 353.56 57.181 357.109 57.4415 361.203C57.3113 361.586 57.2136 361.906 57.1484 362.162C57.0833 362.418 57.0182 362.674 56.9531 362.929C56.8879 363.185 56.8554 363.473 56.8554 363.793C56.8554 364.113 56.8554 364.56 56.8554 365.136C54.5108 369.165 51.5476 372.555 47.9656 375.305C44.3837 378.055 40.4761 380.486 36.2429 382.596C32.0096 384.707 27.581 386.658 22.9571 388.449C18.3982 390.175 13.937 392.03 9.57358 394.013ZM19.1472 339.617C18.561 339.617 18.1377 339.745 17.8772 340C18.6587 342.879 19.2449 345.597 19.6356 348.155C20.0264 350.713 20.2218 353.272 20.2218 355.83C20.2869 358.388 20.1566 361.011 19.831 363.697C19.5054 366.383 19.0495 369.293 18.4633 372.427C19.31 372.363 20.0589 372.203 20.7102 371.947C21.3615 371.692 22.0127 371.404 22.664 371.084C23.3804 370.764 24.0968 370.476 24.8132 370.221C25.5947 369.965 26.4739 369.805 27.4508 369.741C27.7113 369.229 28.0369 368.845 28.4277 368.59C28.8836 368.27 29.2743 367.95 29.6 367.63C31.2281 366.991 32.8563 366.319 34.4844 365.616C36.1126 364.912 37.6105 364.113 38.9782 363.217C40.3458 362.322 41.5832 361.298 42.6904 360.147C43.7975 358.996 44.7093 357.621 45.4257 356.022C44.9047 355.063 44.2534 354.263 43.4719 353.623C42.7555 352.92 41.974 352.248 41.1273 351.609C40.3458 350.905 39.5643 350.202 38.7828 349.498C38.0664 348.731 37.4803 347.867 37.0244 346.908C35.9824 346.78 35.0706 346.524 34.2891 346.14C33.5075 345.693 32.7586 345.277 32.0422 344.893C31.3258 344.446 30.5443 344.03 29.6976 343.646C28.9161 343.262 27.9718 343.038 26.8646 342.974C25.1714 342.079 23.6409 341.471 22.2732 341.152C20.9056 340.768 19.8636 340.256 19.1472 339.617Z"/><path fill="#fff" d="M112.441 338.945C112.506 339.393 112.506 339.745 112.441 340C112.441 340.192 112.408 340.384 112.343 340.576C112.343 340.768 112.343 340.992 112.343 341.248C112.343 341.44 112.408 341.759 112.538 342.207C111.171 344.382 109.575 345.885 107.752 346.716C105.993 347.484 104.072 348.059 101.988 348.443C99.904 348.763 97.7548 349.114 95.5405 349.498C93.3913 349.882 91.2421 350.713 89.093 351.993C88.2463 351.673 87.4648 351.673 86.7484 351.993C86.0972 352.312 85.1203 352.408 83.8177 352.28C83.427 352.664 82.9385 352.952 82.3524 353.144C81.7662 353.272 81.1801 353.432 80.594 353.623C80.8545 354.199 80.9522 354.807 80.887 355.446C80.887 356.022 80.9847 356.502 81.1801 356.885C83.4595 357.077 85.9669 357.045 88.7022 356.789C91.5027 356.534 94.238 356.374 96.9081 356.31C96.9733 356.63 96.9407 356.853 96.8105 356.981C96.6802 357.045 96.6476 357.205 96.7128 357.461C97.1687 357.781 97.6245 358.196 98.0804 358.708C98.5363 359.156 98.9922 359.604 99.4481 360.051C99.904 360.499 100.36 360.883 100.816 361.203C101.337 361.458 101.923 361.554 102.574 361.49C102.835 362.002 102.997 362.578 103.063 363.217C103.193 363.793 103.128 364.4 102.867 365.04C101.825 365.744 100.783 366.479 99.7411 367.247C98.6991 367.95 97.592 368.59 96.4197 369.165C95.3125 369.741 94.1077 370.221 92.8052 370.604C91.5678 370.924 90.1676 371.052 88.6045 370.988C88.2789 370.988 88.0184 370.988 87.823 370.988C87.6928 370.988 87.4974 370.892 87.2369 370.7C86.7159 371.02 85.9669 371.116 84.99 370.988C84.0782 370.86 83.3618 370.956 82.8408 371.276C82.1244 370.956 81.2452 370.828 80.2032 370.892C79.2263 370.892 78.3471 370.764 77.5656 370.508C76.5236 371.852 75.5792 373.291 74.7326 374.826C73.8859 376.361 73.137 377.991 72.4857 379.718C74.7 380.038 76.5236 380.166 77.9563 380.102C79.4543 380.038 80.8545 379.942 82.157 379.814C83.4595 379.622 84.7946 379.463 86.1623 379.335C87.5299 379.143 89.2558 379.079 91.3398 379.143C92.6424 378.439 94.1728 377.991 95.9313 377.8C97.7548 377.544 99.4155 377.16 100.913 376.648C101.434 376.84 101.89 377.192 102.281 377.704C102.672 378.151 103.03 378.599 103.356 379.047C103.746 379.431 104.137 379.782 104.528 380.102C104.919 380.422 105.407 380.55 105.993 380.486C106.254 380.742 106.417 381.061 106.482 381.445C106.612 381.765 106.71 382.085 106.775 382.405C106.84 382.724 106.938 383.012 107.068 383.268C107.263 383.46 107.556 383.524 107.947 383.46C106.97 385.57 105.83 387.201 104.528 388.353C103.291 389.44 101.858 390.271 100.23 390.847C98.6014 391.423 96.7779 391.87 94.759 392.19C92.8052 392.51 90.6234 392.894 88.2138 393.341C87.6276 393.469 87.1392 393.437 86.7484 393.245C86.3577 393.118 85.9018 393.054 85.3808 393.054C83.8829 393.373 82.0919 393.661 80.0078 393.917C77.9238 394.173 75.8072 394.269 73.658 394.205C71.5088 394.141 69.4573 393.853 67.5036 393.341C65.5498 392.894 63.9542 392.062 62.7168 390.847C62.1957 390.399 61.8376 389.888 61.6422 389.312C61.5119 388.672 61.0886 388.193 60.3722 387.873C60.3071 387.042 60.1768 386.114 59.9814 385.091C59.7861 384.067 59.5907 383.012 59.3953 381.925C59.1999 380.774 59.0371 379.654 58.9069 378.567C58.8417 377.48 58.9069 376.488 59.1022 375.593C59.2976 374.634 59.6884 373.77 60.2745 373.003C60.9258 372.235 61.1537 371.404 60.9583 370.508C61.284 370.444 61.4794 370.285 61.5445 370.029C61.6096 369.709 61.8701 369.581 62.326 369.645C62.7168 368.494 63.1401 367.406 63.596 366.383C64.0519 365.36 64.5077 364.368 64.9636 363.409C65.4846 362.45 65.9731 361.49 66.429 360.531C66.95 359.508 67.4384 358.388 67.8943 357.173C66.9825 356.342 66.2987 355.446 65.8428 354.487C65.4521 353.464 65.159 352.472 64.9636 351.513C64.7682 350.49 64.6054 349.466 64.4752 348.443C64.3449 347.356 64.117 346.268 63.7913 345.181C64.4426 344.222 65.2241 343.454 66.1359 342.879C67.1128 342.239 68.1548 341.727 69.262 341.344C70.3691 340.96 71.574 340.64 72.8765 340.384C74.179 340.128 75.5467 339.841 76.9795 339.521C79.5845 338.689 81.8965 338.05 83.9154 337.602C85.9995 337.154 88.0184 336.803 89.9722 336.547C91.9911 336.227 94.0751 335.939 96.2243 335.683C98.3735 335.427 100.816 335.044 103.551 334.532C104.137 335.108 104.691 335.395 105.212 335.395C105.472 334.82 105.765 334.66 106.091 334.916C106.482 335.108 106.645 334.916 106.579 334.34C107.231 335.427 108.045 336.355 109.022 337.122C110.064 337.826 111.203 338.433 112.441 338.945Z"/><path fill="#fff" d="M142.627 376.073C142.562 376.968 142.334 377.832 141.943 378.663C141.617 379.431 141.194 380.198 140.673 380.966C140.152 381.669 139.566 382.373 138.915 383.076C138.329 383.716 137.742 384.291 137.156 384.803C137.352 385.634 137.352 386.274 137.156 386.722C137.026 387.105 136.993 387.713 137.059 388.545C136.082 391.103 134.584 392.798 132.565 393.629C130.611 394.525 128.755 394.365 126.997 393.15C126.28 392.638 125.661 391.998 125.14 391.231C124.685 390.399 124.033 389.888 123.187 389.696C123.382 388.609 123.284 387.521 122.894 386.434C122.503 385.347 122.08 384.771 121.624 384.707C121.428 383.364 121.135 381.925 120.744 380.39C120.354 378.855 119.995 377.32 119.67 375.785C119.344 374.186 119.051 372.651 118.791 371.18C118.595 369.645 118.53 368.238 118.595 366.959C118.66 366.319 118.53 365.744 118.204 365.232C117.944 364.72 117.749 364.113 117.618 363.409C117.358 361.938 117.26 360.403 117.325 358.804C117.456 357.141 117.521 355.574 117.521 354.103C117.521 352.696 117.423 351.193 117.228 349.594C117.097 347.931 116.967 346.364 116.837 344.893C116.707 343.358 116.641 341.983 116.641 340.768C116.641 339.489 116.804 338.497 117.13 337.794C117.521 337.026 118.042 336.419 118.693 335.971C119.409 335.459 120.061 334.916 120.647 334.34C122.08 334.468 123.219 335.044 124.066 336.067C124.913 337.09 125.238 338.05 125.043 338.945C126.41 339.777 127.485 340.864 128.267 342.207C129.113 343.486 129.764 344.957 130.22 346.62C130.741 348.219 131.1 349.946 131.295 351.801C131.49 353.592 131.653 355.382 131.783 357.173C131.914 358.9 132.044 360.563 132.174 362.162C132.304 363.761 132.565 365.136 132.956 366.287C135.365 362.897 137.384 359.891 139.012 357.269C140.641 354.583 142.301 352.025 143.995 349.594C145.688 347.164 147.577 344.701 149.661 342.207C151.745 339.713 154.447 336.898 157.769 333.765C158.42 333.829 158.941 333.956 159.332 334.148C159.788 334.34 160.178 334.5 160.504 334.628C160.83 334.756 161.221 334.884 161.676 335.012C162.132 335.076 162.751 335.044 163.533 334.916C163.793 335.555 163.988 336.035 164.119 336.355C164.249 336.611 164.347 336.898 164.412 337.218C164.542 337.474 164.672 337.826 164.802 338.274C164.998 338.721 165.291 339.361 165.682 340.192C165.877 340.384 165.942 340.64 165.877 340.96C165.812 341.28 165.747 341.599 165.682 341.919C165.682 342.175 165.682 342.367 165.682 342.495C165.682 342.623 165.844 342.623 166.17 342.495C165.975 343.39 165.617 344.222 165.096 344.989C164.64 345.693 164.444 346.556 164.509 347.579C163.011 349.498 161.351 351.481 159.527 353.528C157.769 355.574 155.978 357.685 154.154 359.859C152.396 362.034 150.703 364.336 149.074 366.767C147.446 369.133 146.046 371.628 144.874 374.25C144.548 374.25 144.288 374.346 144.092 374.538C143.962 374.73 143.832 374.953 143.702 375.209C143.571 375.401 143.408 375.593 143.213 375.785C143.083 375.977 142.887 376.073 142.627 376.073Z"/><path fill="#fff" d="M213.159 338.945C213.224 339.393 213.224 339.745 213.159 340C213.159 340.192 213.126 340.384 213.061 340.576C213.061 340.768 213.061 340.992 213.061 341.248C213.061 341.44 213.126 341.759 213.257 342.207C211.889 344.382 210.293 345.885 208.47 346.716C206.711 347.484 204.79 348.059 202.706 348.443C200.622 348.763 198.473 349.114 196.259 349.498C194.109 349.882 191.96 350.713 189.811 351.993C188.964 351.673 188.183 351.673 187.466 351.993C186.815 352.312 185.838 352.408 184.536 352.28C184.145 352.664 183.657 352.952 183.07 353.144C182.484 353.272 181.898 353.432 181.312 353.623C181.573 354.199 181.67 354.807 181.605 355.446C181.605 356.022 181.703 356.502 181.898 356.885C184.178 357.077 186.685 357.045 189.42 356.789C192.221 356.534 194.956 356.374 197.626 356.31C197.691 356.63 197.659 356.853 197.529 356.981C197.398 357.045 197.366 357.205 197.431 357.461C197.887 357.781 198.343 358.196 198.798 358.708C199.254 359.156 199.71 359.604 200.166 360.051C200.622 360.499 201.078 360.883 201.534 361.203C202.055 361.458 202.641 361.554 203.292 361.49C203.553 362.002 203.716 362.578 203.781 363.217C203.911 363.793 203.846 364.4 203.585 365.04C202.543 365.744 201.501 366.479 200.459 367.247C199.417 367.95 198.31 368.59 197.138 369.165C196.031 369.741 194.826 370.221 193.523 370.604C192.286 370.924 190.886 371.052 189.323 370.988C188.997 370.988 188.736 370.988 188.541 370.988C188.411 370.988 188.215 370.892 187.955 370.7C187.434 371.02 186.685 371.116 185.708 370.988C184.796 370.86 184.08 370.956 183.559 371.276C182.842 370.956 181.963 370.828 180.921 370.892C179.944 370.892 179.065 370.764 178.284 370.508C177.242 371.852 176.297 373.291 175.451 374.826C174.604 376.361 173.855 377.991 173.204 379.718C175.418 380.038 177.242 380.166 178.674 380.102C180.172 380.038 181.573 379.942 182.875 379.814C184.178 379.622 185.513 379.463 186.88 379.335C188.248 379.143 189.974 379.079 192.058 379.143C193.36 378.439 194.891 377.991 196.649 377.8C198.473 377.544 200.134 377.16 201.631 376.648C202.152 376.84 202.608 377.192 202.999 377.704C203.39 378.151 203.748 378.599 204.074 379.047C204.464 379.431 204.855 379.782 205.246 380.102C205.637 380.422 206.125 380.55 206.711 380.486C206.972 380.742 207.135 381.061 207.2 381.445C207.33 381.765 207.428 382.085 207.493 382.405C207.558 382.724 207.656 383.012 207.786 383.268C207.981 383.46 208.274 383.524 208.665 383.46C207.688 385.57 206.549 387.201 205.246 388.353C204.009 389.44 202.576 390.271 200.948 390.847C199.319 391.423 197.496 391.87 195.477 392.19C193.523 392.51 191.342 392.894 188.932 393.341C188.346 393.469 187.857 393.437 187.466 393.245C187.076 393.118 186.62 393.054 186.099 393.054C184.601 393.373 182.81 393.661 180.726 393.917C178.642 394.173 176.525 394.269 174.376 394.205C172.227 394.141 170.175 393.853 168.222 393.341C166.268 392.894 164.672 392.062 163.435 390.847C162.914 390.399 162.556 389.888 162.36 389.312C162.23 388.672 161.807 388.193 161.09 387.873C161.025 387.042 160.895 386.114 160.7 385.091C160.504 384.067 160.309 383.012 160.113 381.925C159.918 380.774 159.755 379.654 159.625 378.567C159.56 377.48 159.625 376.488 159.82 375.593C160.016 374.634 160.406 373.77 160.993 373.003C161.644 372.235 161.872 371.404 161.676 370.508C162.002 370.444 162.197 370.285 162.263 370.029C162.328 369.709 162.588 369.581 163.044 369.645C163.435 368.494 163.858 367.406 164.314 366.383C164.77 365.36 165.226 364.368 165.682 363.409C166.203 362.45 166.691 361.49 167.147 360.531C167.668 359.508 168.156 358.388 168.612 357.173C167.701 356.342 167.017 355.446 166.561 354.487C166.17 353.464 165.877 352.472 165.682 351.513C165.486 350.49 165.323 349.466 165.193 348.443C165.063 347.356 164.835 346.268 164.509 345.181C165.161 344.222 165.942 343.454 166.854 342.879C167.831 342.239 168.873 341.727 169.98 341.344C171.087 340.96 172.292 340.64 173.595 340.384C174.897 340.128 176.265 339.841 177.698 339.521C180.303 338.689 182.615 338.05 184.633 337.602C186.718 337.154 188.736 336.803 190.69 336.547C192.709 336.227 194.793 335.939 196.942 335.683C199.092 335.427 201.534 335.044 204.269 334.532C204.855 335.108 205.409 335.395 205.93 335.395C206.19 334.82 206.483 334.66 206.809 334.916C207.2 335.108 207.363 334.916 207.297 334.34C207.949 335.427 208.763 336.355 209.74 337.122C210.782 337.826 211.921 338.433 213.159 338.945Z"/><path fill="#fff" d="M236.604 391.902C234.781 392.478 232.794 393.054 230.645 393.629C228.496 394.205 226.347 394.493 224.198 394.493C220.941 394.493 218.369 393.693 216.48 392.094C216.155 391.391 215.862 390.911 215.601 390.655C215.406 390.399 215.21 390.143 215.015 389.888C214.885 389.568 214.787 389.152 214.722 388.64C213.94 387.745 213.322 386.722 212.866 385.57C212.41 384.355 212.084 383.14 211.889 381.925C211.759 380.646 211.726 379.367 211.791 378.087C211.921 376.808 212.149 375.593 212.475 374.442C212.605 374.186 212.67 373.93 212.67 373.674C212.736 373.418 212.801 373.131 212.866 372.811C213.126 371.788 213.387 370.796 213.647 369.837C213.973 368.877 214.396 368.046 214.917 367.342C214.657 366.767 214.657 366.127 214.917 365.424C215.178 364.72 215.471 364.081 215.796 363.505C216.708 361.075 217.457 359.028 218.043 357.365C218.695 355.638 219.346 353.943 219.997 352.28C221.104 349.402 222.146 346.556 223.123 343.742C224.1 340.928 224.979 337.89 225.761 334.628C226.282 334.308 226.673 334.084 226.933 333.956C227.324 333.829 227.649 333.733 227.91 333.669C229.082 334.244 230.45 334.82 232.013 335.395C233.576 335.907 234.879 336.163 235.921 336.163C236.442 336.483 236.767 336.739 236.897 336.93C237.028 337.058 237.158 337.186 237.288 337.314C238.005 338.146 238.623 339.009 239.144 339.905C239.665 340.736 239.828 341.855 239.633 343.262C239.242 343.838 238.949 344.126 238.754 344.126C238.428 345.405 238.07 346.492 237.679 347.388C237.353 348.283 236.995 349.178 236.604 350.074C236.149 351.033 235.725 351.993 235.334 352.952C234.944 353.911 234.618 355.095 234.358 356.502C234.097 356.821 233.902 357.109 233.771 357.365C233.706 357.621 233.609 357.909 233.478 358.228C233.348 358.548 233.185 358.9 232.99 359.284C232.86 359.604 232.632 359.891 232.306 360.147C232.111 361.81 231.785 363.153 231.329 364.177C230.938 365.2 230.515 366.223 230.059 367.247C229.278 369.101 228.561 370.956 227.91 372.811C227.324 374.666 226.966 376.776 226.835 379.143C227.161 379.015 227.454 378.951 227.715 378.951C228.04 378.951 228.333 378.951 228.594 378.951C229.18 378.951 229.864 379.047 230.645 379.239C232.599 378.215 234.716 377.608 236.995 377.416C239.34 377.224 241.652 377.096 243.931 377.032C244.843 377.032 245.755 377.032 246.666 377.032C247.578 377.032 248.425 376.968 249.206 376.84C249.792 377.16 250.151 377.352 250.281 377.416C250.476 377.416 250.737 377.416 251.062 377.416C251.518 377.416 251.909 377.448 252.235 377.512C253.016 378.215 253.765 378.727 254.482 379.047C255.198 379.367 255.947 379.654 256.728 379.91C257.445 380.166 258.129 380.454 258.78 380.774C259.496 381.029 260.18 381.413 260.831 381.925L261.515 386.05C261.971 386.626 262.167 387.01 262.101 387.201C262.101 387.713 261.971 388.097 261.711 388.353L261.906 389.408C260.929 389.6 260.245 389.824 259.855 390.08C259.529 390.335 259.203 390.623 258.878 390.943C258.357 391.007 257.966 391.039 257.705 391.039C257.51 391.039 257.315 391.039 257.119 391.039C256.207 391.039 255.1 391.199 253.798 391.519C252.039 390.943 250.216 390.655 248.327 390.655C247.611 390.655 246.862 390.687 246.08 390.751C245.299 390.815 244.517 390.879 243.736 390.943C242.954 391.071 242.14 391.167 241.293 391.231C240.512 391.295 239.698 391.327 238.851 391.327L236.604 391.902Z"/><path fill="#fff" d="M321.106 364.177C321.041 364.944 321.106 365.68 321.301 366.383C321.497 367.087 321.725 367.79 321.985 368.494C322.311 369.133 322.604 369.805 322.864 370.508C323.125 371.212 323.32 371.915 323.451 372.619C323.581 373.514 323.581 374.506 323.451 375.593C323.32 376.616 323.092 377.64 322.767 378.663C322.441 379.622 322.018 380.518 321.497 381.349C320.976 382.117 320.357 382.692 319.641 383.076C318.729 384.227 317.622 385.123 316.319 385.762C315.017 386.402 313.812 387.169 312.705 388.065C311.988 388.513 311.174 388.832 310.262 389.024C309.416 389.216 308.537 389.408 307.625 389.6C306.908 389.984 306.062 390.399 305.085 390.847C304.108 391.231 303.098 391.615 302.056 391.998C301.014 392.318 299.972 392.574 298.93 392.766C297.888 392.894 296.977 392.926 296.195 392.862C294.241 393.565 292.32 394.013 290.431 394.205C288.608 394.461 286.459 394.333 283.984 393.821C281.639 394.141 279.458 394.045 277.439 393.533C275.485 393.022 273.726 392.222 272.163 391.135C270.666 389.984 269.33 388.64 268.158 387.105C267.051 385.507 266.139 383.844 265.423 382.117C264.902 378.471 265.032 375.177 265.814 372.235C266.595 369.229 267.702 366.479 269.135 363.985C270.633 361.426 272.326 359.092 274.215 356.981C276.104 354.807 277.927 352.696 279.686 350.649C280.076 350.777 280.369 350.777 280.565 350.649C280.825 350.458 281.053 350.234 281.249 349.978C281.444 349.658 281.639 349.37 281.835 349.114C282.095 348.859 282.388 348.699 282.714 348.635C283.17 347.675 283.821 346.972 284.668 346.524C285.579 346.012 286.296 345.309 286.817 344.414C287.403 344.286 287.891 344.094 288.282 343.838C288.673 343.582 289.031 343.294 289.357 342.974C289.748 342.655 290.138 342.367 290.529 342.111C290.92 341.791 291.376 341.567 291.897 341.44V340.384C293.069 339.873 293.916 339.297 294.437 338.657C295.023 337.954 295.707 337.122 296.488 336.163C297.074 336.099 297.53 336.067 297.856 336.067C298.247 336.067 298.8 336.003 299.517 335.875C300.038 334.98 300.493 334.308 300.884 333.86C301.34 333.413 301.991 332.933 302.838 332.421C303.62 332.805 304.466 333.061 305.378 333.189C306.355 333.317 307.201 333.733 307.918 334.436C307.983 335.076 308.178 335.587 308.504 335.971C308.83 336.291 309.188 336.611 309.579 336.93C309.969 337.186 310.328 337.474 310.653 337.794C311.044 338.114 311.304 338.561 311.435 339.137C311.695 339.201 311.858 339.169 311.923 339.041C312.053 338.913 312.249 338.881 312.509 338.945C312.705 339.841 312.933 340.448 313.193 340.768C313.454 341.024 313.714 341.567 313.975 342.399C313.649 343.038 313.388 343.71 313.193 344.414C313.063 345.053 312.672 345.533 312.021 345.853C311.956 346.3 312.086 346.556 312.412 346.62C312.737 346.62 312.933 346.78 312.998 347.1C313.063 347.675 312.965 348.091 312.705 348.347C314.268 350.841 315.668 353.496 316.905 356.31C318.143 359.06 319.543 361.682 321.106 364.177ZM308.895 373.291C309.155 372.587 309.481 372.011 309.872 371.564C310.328 371.116 310.588 370.444 310.653 369.549C310.328 369.037 310.132 368.654 310.067 368.398C310.002 368.078 309.969 367.598 309.969 366.959C308.537 364.976 307.299 362.865 306.257 360.627C305.215 358.324 304.043 356.182 302.74 354.199C302.61 354.455 302.382 354.711 302.056 354.967C301.731 355.222 301.373 355.158 300.982 354.775C300.852 355.286 300.624 355.67 300.298 355.926C299.972 356.118 299.614 356.214 299.223 356.214C298.833 356.15 298.409 356.054 297.954 355.926C297.563 355.734 297.205 355.51 296.879 355.254C294.99 356.725 293.102 358.165 291.213 359.572C289.324 360.979 287.631 362.61 286.133 364.464C285.873 364.592 285.71 364.656 285.645 364.656C285.579 364.592 285.384 364.624 285.058 364.752C284.537 365.967 283.886 367.087 283.105 368.11C282.388 369.069 281.672 370.061 280.955 371.084C280.239 372.107 279.62 373.195 279.099 374.346C278.578 375.497 278.285 376.84 278.22 378.375C279.327 379.271 280.63 379.814 282.128 380.006C283.626 380.198 285.156 380.23 286.719 380.102C288.347 379.974 289.91 379.782 291.408 379.526C292.971 379.207 294.404 379.047 295.707 379.047C298.442 378.407 300.787 377.576 302.74 376.552C304.694 375.465 306.746 374.378 308.895 373.291Z"/><path fill="#fff" d="M361.94 333.477C364.676 333.797 367.118 334.34 369.267 335.108C371.416 335.875 373.24 336.898 374.738 338.178C375.78 339.777 376.757 341.503 377.668 343.358C378.645 345.213 379.362 347.164 379.817 349.21C380.338 351.193 380.566 353.24 380.501 355.35C380.501 357.461 380.045 359.604 379.134 361.778C377.245 364.081 374.933 365.967 372.198 367.438C369.527 368.845 366.629 369.997 363.503 370.892C360.377 371.788 357.121 372.555 353.734 373.195C350.413 373.834 347.157 374.474 343.965 375.113C344.03 376.584 344.03 378.151 343.965 379.814C343.965 381.413 343.803 383.044 343.477 384.707C343.216 386.306 342.793 387.873 342.207 389.408C341.621 390.943 340.839 392.35 339.862 393.629C338.755 393.629 337.616 393.757 336.443 394.013C335.271 394.333 334.229 394.589 333.317 394.78C332.861 394.525 332.438 394.269 332.047 394.013C331.722 393.821 331.233 393.693 330.582 393.629C330.712 392.99 330.549 392.35 330.093 391.71C329.638 391.007 329.182 390.303 328.726 389.6C328.27 388.896 327.944 388.225 327.749 387.585C327.619 386.946 327.944 386.338 328.726 385.762C328.27 385.315 328.042 384.739 328.042 384.036C328.498 383.268 328.889 382.213 329.214 380.87C329.605 379.526 329.898 378.215 330.093 376.936C330.354 375.593 330.419 374.378 330.289 373.291C330.159 372.203 329.507 371.404 328.335 370.892C328.4 370.764 328.53 370.7 328.726 370.7C328.921 370.7 329.117 370.668 329.312 370.604C328.791 370.221 328.465 369.677 328.335 368.973C328.27 368.27 328.042 367.662 327.651 367.151C327.781 366.831 327.879 366.543 327.944 366.287C328.009 366.031 328.237 365.935 328.628 365.999C328.433 364.848 328.433 363.761 328.628 362.738C328.889 361.714 329.247 360.755 329.703 359.859C330.159 358.9 330.712 357.973 331.363 357.077C332.015 356.182 332.633 355.286 333.219 354.391C333.675 354.327 333.936 354.391 334.001 354.583C334.131 354.775 334.359 354.743 334.685 354.487C335.531 353.847 336.118 353.176 336.443 352.472C336.769 351.769 336.932 350.969 336.932 350.074C337.388 348.731 337.941 347.388 338.592 346.044C339.244 344.637 339.96 343.358 340.742 342.207C341.523 341.056 342.37 340.032 343.282 339.137C344.258 338.242 345.268 337.57 346.31 337.122C347.091 336.483 348.068 335.907 349.241 335.395C350.413 334.82 351.683 334.404 353.05 334.148C354.418 333.829 355.786 333.669 357.153 333.669C358.586 333.605 359.889 333.733 361.061 334.052C361.387 334.18 361.549 334.116 361.549 333.86C361.615 333.605 361.745 333.477 361.94 333.477ZM357.935 356.406C359.563 355.702 361.289 355.158 363.113 354.775C365.001 354.327 366.564 353.528 367.802 352.376C367.02 351.673 365.88 351.065 364.382 350.554C362.885 349.978 361.256 349.626 359.498 349.498C357.74 349.37 355.949 349.53 354.125 349.978C352.367 350.362 350.836 351.129 349.534 352.28C349.143 353.432 348.817 354.359 348.557 355.063C348.296 355.702 347.938 356.502 347.482 357.461C347.612 357.781 347.808 358.037 348.068 358.228C348.394 358.356 348.622 358.58 348.752 358.9C350.25 358.133 351.748 357.717 353.246 357.653C354.809 357.525 356.372 357.109 357.935 356.406Z"/><path fill="#fff" d="M445.172 391.231C444.521 391.551 443.902 391.838 443.316 392.094C442.795 392.35 442.176 392.478 441.46 392.478C438.92 390.623 437.585 387.393 437.454 382.788C437.389 378.183 438.399 372.331 440.483 365.232C440.808 365.04 440.971 364.656 440.971 364.081L440.092 363.121C439.831 363.121 439.571 363.153 439.31 363.217C439.115 363.281 438.952 363.505 438.822 363.889C437.129 365.104 435.273 366.383 433.254 367.726C431.235 369.005 429.118 370.221 426.904 371.372C424.755 372.459 422.54 373.355 420.261 374.058C418.047 374.762 415.865 375.113 413.716 375.113C408.245 375.113 404.142 372.395 401.407 366.959L400.625 365.52L399.844 366.767C399.648 367.023 399.355 367.566 398.965 368.398C398.574 369.165 398.183 370.061 397.792 371.084C397.402 372.107 397.043 373.163 396.718 374.25C396.457 375.273 396.36 376.169 396.425 376.936C395.839 377.512 395.22 378.183 394.569 378.951C393.917 379.718 393.429 380.582 393.103 381.541C392.973 382.053 393.038 382.532 393.299 382.98C393.168 383.556 392.875 384.004 392.419 384.323C392.159 384.643 391.866 384.963 391.54 385.283C391.28 385.539 391.052 385.826 390.856 386.146C390.726 386.466 390.628 386.786 390.563 387.105C390.563 387.425 390.531 387.745 390.466 388.065C390.466 388.513 390.401 388.928 390.27 389.312C389.163 391.551 388.284 392.99 387.633 393.629C386.981 394.333 386.102 394.685 384.995 394.685C384.474 394.685 383.627 394.589 382.455 394.397C381.608 393.501 380.827 392.286 380.111 390.751C379.459 389.152 378.938 387.457 378.547 385.666C378.222 383.876 378.059 382.085 378.059 380.294C378.124 378.439 378.45 376.84 379.036 375.497C379.036 375.433 379.296 374.794 379.817 373.578C380.338 372.363 380.99 370.796 381.771 368.877C382.618 366.959 383.562 364.848 384.604 362.546C385.646 360.179 386.688 357.909 387.73 355.734C388.772 353.496 389.749 351.449 390.661 349.594C391.638 347.739 392.452 346.332 393.103 345.373C393.624 344.605 394.08 343.902 394.471 343.262C394.927 342.559 395.35 341.887 395.741 341.248C396.913 339.265 398.02 337.634 399.062 336.355C400.169 335.012 401.765 333.956 403.849 333.189C405.282 333.765 406.324 334.436 406.975 335.204L407.171 336.259C407.431 336.898 407.822 337.218 408.343 337.218C409.059 337.41 409.645 337.602 410.101 337.794C410.622 337.922 411.176 338.05 411.762 338.178C412.218 338.689 412.641 339.297 413.032 340C413.553 340.768 414.041 341.535 414.497 342.303C415.018 343.006 415.409 343.742 415.67 344.509C415.995 345.213 416.158 345.949 416.158 346.716C416.223 347.484 416.093 348.283 415.767 349.114L415.865 350.074C416.191 350.649 416.256 351.449 416.06 352.472C415.995 352.92 415.963 353.4 415.963 353.911C415.963 354.359 416.028 354.871 416.158 355.446C417.33 356.342 418.372 356.789 419.284 356.789C420.326 356.789 421.27 356.566 422.117 356.118C423.029 355.606 423.875 355.095 424.657 354.583C425.178 354.199 425.699 353.879 426.22 353.623C426.741 353.304 427.262 353.112 427.783 353.048C428.955 351.961 429.997 351.001 430.909 350.17C431.886 349.338 432.896 348.507 433.938 347.675C435.891 346.14 437.78 344.478 439.604 342.687C441.427 340.896 442.892 338.657 444 335.971C444.651 335.587 445.335 335.395 446.051 335.395C446.767 335.395 447.516 335.555 448.298 335.875C449.079 336.195 449.828 336.515 450.545 336.835C450.74 336.962 450.903 337.058 451.033 337.122C451.229 337.186 451.391 337.25 451.522 337.314C451.522 337.954 451.782 338.497 452.303 338.945C452.564 339.137 452.727 339.265 452.792 339.329C452.857 339.393 452.954 339.457 453.085 339.521C454.062 340.032 454.68 340.544 454.941 341.056C455.397 342.527 456.211 343.646 457.383 344.414C457.253 345.053 457.253 345.661 457.383 346.236C457.578 346.748 457.806 347.292 458.067 347.867C458.132 348.059 458.197 348.251 458.262 348.443C458.327 348.635 458.425 348.859 458.555 349.114L456.699 348.923L456.992 350.745C457.123 351.641 457.025 352.632 456.699 353.719C456.439 354.807 456.113 355.67 455.722 356.31C455.787 357.973 455.82 359.284 455.82 360.243C455.885 361.139 455.853 362.002 455.722 362.833C455.592 363.601 455.397 364.336 455.136 365.04C454.941 365.744 454.648 366.511 454.257 367.342C454.517 371.436 454.029 375.177 452.792 378.567C451.619 381.893 450.382 385.027 449.079 387.969C448.949 388.289 448.786 388.609 448.591 388.928C448.461 389.248 448.33 389.568 448.2 389.888C447.614 390.08 447.093 390.303 446.637 390.559C446.181 390.751 445.693 390.975 445.172 391.231Z"/><path fill="#fff" d="M513.555 338.945C513.62 339.393 513.62 339.745 513.555 340C513.555 340.192 513.522 340.384 513.457 340.576C513.457 340.768 513.457 340.992 513.457 341.248C513.457 341.44 513.522 341.759 513.652 342.207C512.285 344.382 510.689 345.885 508.866 346.716C507.107 347.484 505.186 348.059 503.102 348.443C501.018 348.763 498.869 349.114 496.654 349.498C494.505 349.882 492.356 350.713 490.207 351.993C489.36 351.673 488.579 351.673 487.862 351.993C487.211 352.312 486.234 352.408 484.932 352.28C484.541 352.664 484.052 352.952 483.466 353.144C482.88 353.272 482.294 353.432 481.708 353.623C481.968 354.199 482.066 354.807 482.001 355.446C482.001 356.022 482.099 356.502 482.294 356.885C484.573 357.077 487.081 357.045 489.816 356.789C492.616 356.534 495.352 356.374 498.022 356.31C498.087 356.63 498.055 356.853 497.924 356.981C497.794 357.045 497.761 357.205 497.827 357.461C498.282 357.781 498.738 358.196 499.194 358.708C499.65 359.156 500.106 359.604 500.562 360.051C501.018 360.499 501.474 360.883 501.93 361.203C502.451 361.458 503.037 361.554 503.688 361.49C503.948 362.002 504.111 362.578 504.176 363.217C504.307 363.793 504.242 364.4 503.981 365.04C502.939 365.744 501.897 366.479 500.855 367.247C499.813 367.95 498.706 368.59 497.534 369.165C496.426 369.741 495.222 370.221 493.919 370.604C492.682 370.924 491.281 371.052 489.718 370.988C489.393 370.988 489.132 370.988 488.937 370.988C488.807 370.988 488.611 370.892 488.351 370.7C487.83 371.02 487.081 371.116 486.104 370.988C485.192 370.86 484.476 370.956 483.955 371.276C483.238 370.956 482.359 370.828 481.317 370.892C480.34 370.892 479.461 370.764 478.679 370.508C477.637 371.852 476.693 373.291 475.846 374.826C475 376.361 474.251 377.991 473.6 379.718C475.814 380.038 477.637 380.166 479.07 380.102C480.568 380.038 481.968 379.942 483.271 379.814C484.573 379.622 485.908 379.463 487.276 379.335C488.644 379.143 490.37 379.079 492.454 379.143C493.756 378.439 495.287 377.991 497.045 377.8C498.869 377.544 500.529 377.16 502.027 376.648C502.548 376.84 503.004 377.192 503.395 377.704C503.786 378.151 504.144 378.599 504.469 379.047C504.86 379.431 505.251 379.782 505.642 380.102C506.033 380.422 506.521 380.55 507.107 380.486C507.368 380.742 507.53 381.061 507.596 381.445C507.726 381.765 507.823 382.085 507.889 382.405C507.954 382.724 508.051 383.012 508.182 383.268C508.377 383.46 508.67 383.524 509.061 383.46C508.084 385.57 506.944 387.201 505.642 388.353C504.404 389.44 502.972 390.271 501.343 390.847C499.715 391.423 497.892 391.87 495.873 392.19C493.919 392.51 491.737 392.894 489.328 393.341C488.741 393.469 488.253 393.437 487.862 393.245C487.471 393.118 487.016 393.054 486.495 393.054C484.997 393.373 483.206 393.661 481.122 393.917C479.038 394.173 476.921 394.269 474.772 394.205C472.623 394.141 470.571 393.853 468.617 393.341C466.664 392.894 465.068 392.062 463.831 390.847C463.31 390.399 462.951 389.888 462.756 389.312C462.626 388.672 462.202 388.193 461.486 387.873C461.421 387.042 461.291 386.114 461.095 385.091C460.9 384.067 460.705 383.012 460.509 381.925C460.314 380.774 460.151 379.654 460.021 378.567C459.956 377.48 460.021 376.488 460.216 375.593C460.411 374.634 460.802 373.77 461.388 373.003C462.04 372.235 462.268 371.404 462.072 370.508C462.398 370.444 462.593 370.285 462.658 370.029C462.723 369.709 462.984 369.581 463.44 369.645C463.831 368.494 464.254 367.406 464.71 366.383C465.166 365.36 465.622 364.368 466.077 363.409C466.598 362.45 467.087 361.49 467.543 360.531C468.064 359.508 468.552 358.388 469.008 357.173C468.096 356.342 467.413 355.446 466.957 354.487C466.566 353.464 466.273 352.472 466.077 351.513C465.882 350.49 465.719 349.466 465.589 348.443C465.459 347.356 465.231 346.268 464.905 345.181C465.556 344.222 466.338 343.454 467.25 342.879C468.227 342.239 469.269 341.727 470.376 341.344C471.483 340.96 472.688 340.64 473.99 340.384C475.293 340.128 476.66 339.841 478.093 339.521C480.698 338.689 483.01 338.05 485.029 337.602C487.113 337.154 489.132 336.803 491.086 336.547C493.105 336.227 495.189 335.939 497.338 335.683C499.487 335.427 501.93 335.044 504.665 334.532C505.251 335.108 505.805 335.395 506.326 335.395C506.586 334.82 506.879 334.66 507.205 334.916C507.596 335.108 507.758 334.916 507.693 334.34C508.345 335.427 509.159 336.355 510.135 337.122C511.178 337.826 512.317 338.433 513.555 338.945Z"/><path fill="#fff" d="M531.236 375.497C530.65 375.625 530.227 375.977 529.966 376.552C529.706 377.064 529.445 377.608 529.185 378.183C528.99 378.759 528.762 379.303 528.501 379.814C528.306 380.262 527.98 380.486 527.524 380.486C527.459 380.998 527.264 381.445 526.938 381.829C526.678 382.213 526.417 382.628 526.157 383.076C525.896 383.46 525.701 383.908 525.57 384.419C525.44 384.867 525.505 385.411 525.766 386.05C525.245 386.434 524.919 386.978 524.789 387.681C524.659 388.385 524.496 389.056 524.3 389.696C524.17 390.335 523.91 390.879 523.519 391.327C523.128 391.774 522.412 391.966 521.37 391.902C521.174 392.158 521.142 392.318 521.272 392.382C521.402 392.446 521.5 392.67 521.565 393.054C520.849 392.926 520.295 392.958 519.904 393.15C519.579 393.405 519.155 393.565 518.634 393.629C517.397 393.245 516.355 392.574 515.508 391.615C514.727 390.655 514.011 389.6 513.359 388.449C512.773 387.233 512.22 386.018 511.699 384.803C511.243 383.588 510.787 382.532 510.331 381.637C510.526 380.934 510.559 380.262 510.429 379.622C510.298 378.919 510.07 378.343 509.745 377.896C512.936 371.244 516.42 364.145 520.198 356.598C523.975 349.051 527.557 341.599 530.943 334.244C532.441 334.82 533.907 335.491 535.339 336.259C536.837 336.962 538.172 337.794 539.345 338.753C540.582 339.713 541.624 340.832 542.471 342.111C543.317 343.326 543.871 344.701 544.131 346.236C544.001 346.62 543.838 346.78 543.643 346.716C543.513 346.588 543.383 346.62 543.252 346.812C543.513 347.132 543.643 347.356 543.643 347.484C543.708 347.611 543.708 347.739 543.643 347.867C543.643 347.995 543.643 348.187 543.643 348.443C543.643 348.635 543.741 348.923 543.936 349.306C543.676 349.242 543.48 349.274 543.35 349.402C543.285 349.53 543.089 349.53 542.764 349.402C543.024 350.106 543.089 350.681 542.959 351.129C542.894 351.577 542.764 351.993 542.568 352.376C542.373 352.696 542.21 353.08 542.08 353.528C541.95 353.911 541.982 354.423 542.178 355.063C541.982 355.063 541.82 355.127 541.689 355.254C541.624 355.318 541.559 355.414 541.494 355.542C541.429 355.606 541.331 355.702 541.201 355.83C541.136 355.894 541.005 355.894 540.81 355.83C541.005 357.237 541.071 358.644 541.005 360.051C540.94 361.458 540.875 362.897 540.81 364.368C540.81 365.776 540.843 367.279 540.908 368.877C540.973 370.412 541.201 372.011 541.592 373.674C543.936 372.331 545.792 370.604 547.16 368.494C548.593 366.383 549.732 364.017 550.579 361.394C551.491 358.772 552.175 355.958 552.63 352.952C553.086 349.946 553.575 346.876 554.096 343.742C554.682 343.166 555.138 342.463 555.463 341.631C555.789 340.8 556.082 339.936 556.343 339.041C556.603 338.082 556.864 337.154 557.124 336.259C557.385 335.3 557.71 334.436 558.101 333.669C559.078 333.797 559.892 334.116 560.543 334.628C561.26 335.076 561.911 335.587 562.497 336.163C563.083 336.675 563.702 337.186 564.353 337.698C565.005 338.146 565.819 338.433 566.795 338.561C567.577 339.649 568.293 340.704 568.945 341.727C569.596 342.751 570.019 343.838 570.215 344.989C569.889 345.501 569.628 346.076 569.433 346.716C569.303 347.356 569.14 347.995 568.945 348.635C568.749 349.274 568.489 349.882 568.163 350.458C567.838 350.969 567.382 351.417 566.795 351.801C566.6 353.464 566.34 354.999 566.014 356.406C565.753 357.749 565.46 359.092 565.135 360.435C564.874 361.778 564.646 363.185 564.451 364.656C564.256 366.063 564.19 367.63 564.256 369.357C563.735 370.828 563.181 372.395 562.595 374.058C562.009 375.721 561.553 377.224 561.227 378.567C560.185 379.399 559.371 380.39 558.785 381.541C558.199 382.692 557.58 383.844 556.929 384.995C556.668 385.251 556.506 385.315 556.44 385.187C556.375 385.059 556.147 384.963 555.757 384.899C555.822 385.155 555.822 385.347 555.757 385.475C555.691 385.602 555.594 385.73 555.463 385.858C555.398 385.922 555.333 386.05 555.268 386.242C555.268 386.434 555.333 386.69 555.463 387.01C554.552 387.393 553.738 387.937 553.021 388.64C552.305 389.344 551.523 389.984 550.677 390.559C549.895 391.135 548.918 391.519 547.746 391.71C546.639 391.902 545.174 391.678 543.35 391.039C540.68 389.12 538.303 386.914 536.219 384.419C534.2 381.925 532.539 378.951 531.236 375.497Z"/><path fill="#fff" d="M623.26 346.812C621.632 346.812 619.874 346.94 617.985 347.196C616.096 347.388 614.24 347.611 612.417 347.867C611.114 348.059 609.844 348.219 608.607 348.347C607.434 348.475 606.36 348.571 605.383 348.635C604.927 350.042 604.471 351.289 604.015 352.376C603.559 353.464 603.071 354.519 602.55 355.542C602.029 356.63 601.54 357.749 601.085 358.9C600.694 359.987 600.303 361.171 599.912 362.45C599.261 363.473 598.707 364.432 598.252 365.328C597.861 366.159 597.535 367.119 597.275 368.206C596.493 369.165 595.907 370.189 595.516 371.276C595.126 372.299 594.832 373.195 594.637 373.962L594.246 375.113C593.856 375.497 593.628 375.817 593.562 376.073C593.497 376.265 593.335 376.456 593.074 376.648C593.009 377.352 592.781 378.055 592.39 378.759C592.26 379.079 592.162 379.399 592.097 379.718C592.032 379.974 591.999 380.166 591.999 380.294C591.999 380.934 591.837 381.349 591.511 381.541C591.576 381.861 591.576 382.213 591.511 382.596C591.446 382.916 591.381 383.236 591.316 383.556C591.12 384.323 591.055 384.931 591.12 385.379C591.316 385.634 591.478 385.858 591.609 386.05C591.804 386.242 591.934 386.498 591.999 386.818C592.39 387.074 592.683 387.233 592.879 387.297C593.139 387.489 593.53 387.713 594.051 387.969L594.93 388.928C595.256 390.783 594.963 392.254 594.051 393.341C593.074 394.557 591.413 395.164 589.069 395.164H587.896C587.571 394.844 587.375 394.589 587.31 394.397C586.789 394.205 586.366 394.045 586.04 393.917C585.715 393.789 585.422 393.533 585.161 393.15C584.315 392.766 583.631 392.446 583.11 392.19L582.23 391.71C582.23 391.007 582.23 390.623 582.23 390.559C581.775 389.984 581.416 389.344 581.156 388.64C580.96 387.937 580.798 387.233 580.667 386.53C580.537 385.954 580.374 385.411 580.179 384.899C580.049 384.387 579.853 383.94 579.593 383.556C579.463 379.846 579.821 376.712 580.667 374.154C581.514 371.596 582.393 369.133 583.305 366.767C583.826 365.488 584.347 364.209 584.868 362.929C585.389 361.586 585.845 360.211 586.236 358.804L587.115 357.845C587.571 356.821 587.929 355.99 588.19 355.35C588.515 354.647 588.841 353.943 589.166 353.24C589.362 352.792 589.525 352.376 589.655 351.993C589.85 351.545 590.013 351.161 590.143 350.841C589.753 350.841 589.394 350.873 589.069 350.937C588.743 350.937 588.417 350.969 588.092 351.033C587.701 351.097 587.343 351.161 587.017 351.225C586.692 351.225 586.366 351.225 586.04 351.225C585.584 351.225 585.259 351.193 585.063 351.129C584.347 351.449 583.566 351.609 582.719 351.609H581.742C581.547 351.609 581.351 351.609 581.156 351.609C581.026 351.545 580.895 351.513 580.765 351.513C580.114 351.513 579.593 351.609 579.202 351.801C578.421 351.801 577.672 351.801 576.955 351.801H575.978C575.848 351.801 575.685 351.833 575.49 351.897C575.294 351.897 575.132 351.897 575.001 351.897C574.546 351.897 574.057 351.865 573.536 351.801C573.015 351.673 572.461 351.449 571.875 351.129C571.094 350.106 570.573 349.562 570.312 349.498L569.433 348.347C569.368 347.963 569.27 347.611 569.14 347.292C569.01 346.908 568.88 346.492 568.749 346.044C568.489 345.405 568.228 344.733 567.968 344.03C567.772 343.262 567.675 342.367 567.675 341.344C567.74 340.832 567.87 340.448 568.065 340.192C568.261 339.936 568.424 339.713 568.554 339.521L568.847 338.082L570.117 338.178H572.852C574.936 338.178 577.053 338.114 579.202 337.986C581.351 337.794 583.566 337.602 585.845 337.41C587.148 337.282 588.45 337.154 589.753 337.026C591.12 336.898 592.52 336.771 593.953 336.643C594.214 336.067 594.474 335.523 594.735 335.012L595.712 334.532C596.884 334.468 597.698 334.628 598.154 335.012C598.675 335.332 599.098 335.651 599.424 335.971C600.857 335.843 602.289 335.715 603.722 335.587C605.22 335.395 606.718 335.172 608.216 334.916C610.43 334.596 612.645 334.308 614.859 334.052C617.138 333.797 619.32 333.669 621.404 333.669C622.316 333.669 623.195 333.701 624.042 333.765C624.888 333.829 625.67 333.924 626.386 334.052L627.363 334.724C627.558 335.108 627.819 335.459 628.145 335.779C628.535 336.099 628.926 336.419 629.317 336.739C630.098 337.442 630.88 338.274 631.661 339.233C632.443 340.192 632.736 341.599 632.541 343.454C632.02 344.222 631.629 344.669 631.368 344.797L630.489 345.949L629.512 345.853C629.122 345.853 628.763 345.917 628.438 346.044C628.112 346.108 627.786 346.204 627.461 346.332C627.2 346.46 626.94 346.588 626.679 346.716C626.419 346.78 626.126 346.844 625.8 346.908C625.214 346.908 624.725 346.908 624.335 346.908C624.009 346.844 623.651 346.812 623.26 346.812Z"/><defs><linearGradient id="paint0_linear_329_394" x1="83.362" x2="248.397" y1="229.225" y2="415.578" gradientUnits="userSpaceOnUse"><stop stop-color="#EE2668"/><stop offset=".5" stop-color="#9747FF"/><stop offset=".862" stop-color="#5590F6"/><stop offset="1" stop-color="#3CACF2"/></linearGradient><linearGradient id="paint1_linear_329_394" x1="26.676" x2="223.035" y1="232.5" y2="519.927" gradientUnits="userSpaceOnUse"><stop stop-color="#EE2668"/><stop offset=".5" stop-color="#9747FF"/><stop offset=".862" stop-color="#5590F6"/><stop offset="1" stop-color="#3CACF2"/></linearGradient></defs></svg>