<svg width="804" height="595" viewBox="0 0 804 595" fill="none" xmlns="http://www.w3.org/2000/svg">
<rect x="85.5263" y="54.4719" width="464.895" height="486.056" fill="#18181B"/>
<rect x="56.8579" y="12.5" width="676.568" height="570" stroke="#18181B" stroke-width="25"/>
<path d="M173.501 389.683V106.094H304.145C336.062 106.094 360.676 114.14 377.987 130.23C395.298 146.052 403.954 168.176 403.954 196.602C403.954 225.027 395.298 247.285 377.987 263.376C360.676 279.466 336.062 287.511 304.145 287.511H236.389V389.683H173.501ZM236.389 239.24H293.596C326.866 239.24 343.501 225.027 343.501 196.602C343.501 168.712 326.866 154.767 293.596 154.767H236.389V239.24Z" fill="#1EA7FD"/>
<path d="M545.172 394.108C522.722 394.108 501.489 391.292 481.473 385.661C461.728 380.029 445.228 372.386 431.974 362.732L450.232 313.657C462.945 322.507 477.416 329.479 493.645 334.574C510.144 339.67 527.32 342.217 545.172 342.217C564.647 342.217 578.577 339.267 586.962 333.368C595.617 327.2 599.945 319.557 599.945 310.439C599.945 302.662 596.97 296.494 591.019 291.936C585.068 287.377 574.655 283.488 559.778 280.27L513.931 270.616C462.81 259.889 437.249 233.609 437.249 191.774C437.249 173.807 442.118 158.119 451.855 144.711C461.592 131.034 475.117 120.442 492.428 112.933C510.009 105.424 530.295 101.67 553.287 101.67C573.032 101.67 591.56 104.485 608.871 110.117C626.182 115.749 640.518 123.66 651.878 133.85L633.62 179.707C611.441 162.276 584.527 153.56 552.881 153.56C535.84 153.56 522.587 156.912 513.12 163.617C503.923 170.053 499.325 178.5 499.325 188.959C499.325 196.736 502.165 203.038 507.845 207.865C513.525 212.692 523.398 216.58 537.463 219.53L583.31 229.184C635.784 240.447 662.021 265.923 662.021 305.612C662.021 323.311 657.152 338.865 647.415 352.274C637.948 365.414 624.424 375.738 606.842 383.247C589.531 390.488 568.975 394.108 545.172 394.108Z" fill="#1EA7FD"/>
<path d="M11.1754 504.167C8.78163 503.594 6.92436 502.653 5.60364 501.344C4.36546 499.952 3.41619 498.357 2.75583 496.556C2.17801 494.674 1.76528 492.628 1.51765 490.418C1.35256 488.209 1.1462 485.917 0.89856 483.544C1.22874 482.48 1.64147 481.58 2.13674 480.843C2.71455 480.107 2.96219 479.084 2.87964 477.774C3.78764 475.155 4.61309 472.618 5.356 470.163C6.09891 467.708 6.59418 465.171 6.84182 462.552C7.33709 461.816 7.83236 461.325 8.32763 461.079C8.98799 456.414 9.07054 451.627 8.57527 446.716C8.07999 441.806 7.25454 437.264 6.09891 433.09C6.18145 432.19 6.30527 431.535 6.47036 431.126C6.63545 430.635 6.63545 430.226 6.47036 429.899C6.30527 429.162 6.55291 428.794 7.21327 428.794C7.87363 428.794 8.53399 428.794 9.19435 428.794C9.19435 427.321 8.90545 425.888 8.32763 424.497C7.83236 423.024 7.33709 421.346 6.84182 419.464C7.50218 417.991 7.95618 416.559 8.20381 415.168C8.45145 413.776 8.90545 412.508 9.56581 411.362C12.2073 412.18 14.8074 413.122 17.3663 414.185C19.9252 415.249 22.4429 416.313 24.9192 417.377C27.3956 418.359 29.8307 419.341 32.2245 420.323C34.6183 421.224 36.9708 421.96 39.2821 422.533C42.8315 425.07 46.4635 427.607 50.1781 430.144C53.9751 432.599 57.4008 435.341 60.4549 438.369C63.5917 441.315 66.1918 444.711 68.2555 448.558C70.3191 452.404 71.516 456.946 71.8462 462.184C71.6811 462.675 71.5573 463.084 71.4747 463.411C71.3922 463.739 71.3096 464.066 71.2271 464.394C71.1445 464.721 71.1033 465.089 71.1033 465.498C71.1033 465.908 71.1033 466.48 71.1033 467.217C68.1316 472.373 64.3758 476.71 59.8358 480.229C55.2959 483.748 50.3431 486.858 44.9777 489.559C39.6123 492.26 33.9992 494.756 28.1385 497.047C22.3603 499.257 16.706 501.63 11.1754 504.167ZM23.3096 434.563C22.5667 434.563 22.0301 434.727 21.7 435.054C22.6905 438.737 23.4334 442.215 23.9287 445.489C24.4239 448.762 24.6716 452.036 24.6716 455.309C24.7541 458.583 24.589 461.938 24.1763 465.376C23.7636 468.813 23.1858 472.536 22.4429 476.547C23.516 476.465 24.4652 476.26 25.2907 475.933C26.1161 475.605 26.9416 475.237 27.767 474.828C28.675 474.419 29.583 474.05 30.491 473.723C31.4816 473.396 32.5959 473.191 33.8341 473.109C34.1643 472.455 34.577 471.964 35.0723 471.636C35.6501 471.227 36.1454 470.818 36.5581 470.409C38.6217 469.59 40.6854 468.731 42.749 467.831C44.8126 466.931 46.7112 465.908 48.4446 464.762C50.1781 463.616 51.7464 462.307 53.1497 460.834C54.553 459.36 55.7086 457.601 56.6166 455.555C55.9562 454.327 55.1308 453.304 54.1402 452.486C53.2322 451.586 52.2417 450.726 51.1686 449.908C50.1781 449.008 49.1875 448.108 48.197 447.207C47.289 446.225 46.5461 445.121 45.9683 443.893C44.6475 443.729 43.4919 443.402 42.5014 442.911C41.5108 442.338 40.5615 441.806 39.6535 441.315C38.7455 440.742 37.755 440.21 36.6819 439.719C35.6914 439.228 34.4945 438.942 33.0912 438.86C30.945 437.714 29.0052 436.937 27.2718 436.527C25.5383 436.036 24.2176 435.382 23.3096 434.563Z" fill="#E81E61"/>
<path d="M141.556 433.704C141.638 434.277 141.638 434.727 141.556 435.054C141.556 435.3 141.514 435.545 141.432 435.791C141.432 436.036 141.432 436.323 141.432 436.65C141.432 436.896 141.514 437.305 141.679 437.878C139.946 440.66 137.924 442.584 135.612 443.647C133.384 444.629 130.949 445.366 128.307 445.857C125.666 446.266 122.942 446.716 120.135 447.207C117.411 447.698 114.687 448.762 111.963 450.399C110.89 449.99 109.9 449.99 108.992 450.399C108.166 450.808 106.928 450.931 105.277 450.767C104.782 451.258 104.163 451.627 103.42 451.872C102.677 452.036 101.934 452.24 101.191 452.486C101.521 453.223 101.645 454 101.562 454.818C101.562 455.555 101.686 456.169 101.934 456.66C104.823 456.905 108.001 456.864 111.468 456.537C115.017 456.21 118.484 456.005 121.869 455.923C121.951 456.332 121.91 456.619 121.745 456.783C121.58 456.864 121.538 457.069 121.621 457.396C122.199 457.806 122.777 458.337 123.354 458.992C123.932 459.565 124.51 460.138 125.088 460.711C125.666 461.284 126.243 461.775 126.821 462.184C127.482 462.511 128.225 462.634 129.05 462.552C129.38 463.207 129.587 463.943 129.669 464.762C129.834 465.498 129.752 466.276 129.421 467.094C128.101 467.994 126.78 468.936 125.459 469.918C124.139 470.818 122.735 471.636 121.249 472.373C119.846 473.109 118.319 473.723 116.668 474.214C115.1 474.623 113.325 474.787 111.344 474.705C110.931 474.705 110.601 474.705 110.354 474.705C110.188 474.705 109.941 474.582 109.611 474.337C108.95 474.746 108.001 474.869 106.763 474.705C105.607 474.542 104.699 474.664 104.039 475.073C103.131 474.664 102.016 474.501 100.696 474.582C99.4576 474.582 98.3432 474.419 97.3527 474.091C96.0319 475.81 94.835 477.651 93.7619 479.616C92.6888 481.58 91.7396 483.667 90.9141 485.876C93.7207 486.285 96.0319 486.449 97.8479 486.367C99.7465 486.285 101.521 486.163 103.172 485.999C104.823 485.753 106.515 485.549 108.249 485.385C109.982 485.14 112.17 485.058 114.811 485.14C116.462 484.239 118.402 483.667 120.63 483.421C122.942 483.094 125.047 482.603 126.945 481.948C127.605 482.193 128.183 482.644 128.679 483.298C129.174 483.871 129.628 484.444 130.041 485.017C130.536 485.508 131.031 485.958 131.526 486.367C132.022 486.776 132.641 486.94 133.384 486.858C133.714 487.186 133.92 487.595 134.003 488.086C134.168 488.495 134.292 488.904 134.374 489.313C134.457 489.723 134.581 490.091 134.746 490.418C134.993 490.664 135.365 490.746 135.86 490.664C134.622 493.364 133.177 495.451 131.526 496.924C129.958 498.316 128.142 499.38 126.078 500.116C124.015 500.853 121.703 501.426 119.145 501.835C116.668 502.244 113.903 502.735 110.849 503.308C110.106 503.472 109.487 503.431 108.992 503.185C108.496 503.021 107.918 502.94 107.258 502.94C105.36 503.349 103.09 503.717 100.448 504.044C97.8067 504.372 95.1239 504.494 92.3999 504.413C89.6759 504.331 87.0758 503.963 84.5994 503.308C82.1231 502.735 80.1007 501.671 78.5323 500.116C77.872 499.543 77.418 498.889 77.1703 498.152C77.0053 497.334 76.4687 496.72 75.5607 496.311C75.4782 495.247 75.3131 494.06 75.0654 492.751C74.8178 491.441 74.5702 490.091 74.3225 488.7C74.0749 487.227 73.8685 485.794 73.7034 484.403C73.6209 483.012 73.7034 481.743 73.9511 480.598C74.1987 479.37 74.694 478.265 75.4369 477.283C76.2623 476.301 76.5513 475.237 76.3036 474.091C76.7163 474.01 76.964 473.805 77.0465 473.478C77.1291 473.068 77.4593 472.905 78.0371 472.987C78.5323 471.513 79.0689 470.122 79.6467 468.813C80.2245 467.503 80.8023 466.235 81.3802 465.007C82.0405 463.78 82.6596 462.552 83.2374 461.325C83.8978 460.015 84.5169 458.583 85.0947 457.028C83.9391 455.964 83.0723 454.818 82.4945 453.591C81.9992 452.281 81.6278 451.013 81.3802 449.785C81.1325 448.476 80.9262 447.166 80.7611 445.857C80.596 444.466 80.3071 443.075 79.8943 441.683C80.7198 440.456 81.7103 439.474 82.866 438.737C84.1041 437.919 85.4249 437.264 86.8281 436.773C88.2314 436.282 89.7585 435.873 91.4094 435.545C93.0603 435.218 94.7938 434.85 96.6097 434.441C99.9116 433.377 102.842 432.558 105.401 431.985C108.042 431.413 110.601 430.962 113.078 430.635C115.636 430.226 118.278 429.858 121.002 429.53C123.726 429.203 126.821 428.712 130.288 428.057C131.031 428.794 131.733 429.162 132.393 429.162C132.723 428.425 133.095 428.221 133.507 428.548C134.003 428.794 134.209 428.548 134.127 427.812C134.952 429.203 135.984 430.39 137.222 431.372C138.543 432.272 139.987 433.049 141.556 433.704Z" fill="#E81E61"/>
<path d="M179.815 481.211C179.733 482.357 179.444 483.462 178.949 484.526C178.536 485.508 177.999 486.49 177.339 487.472C176.679 488.372 175.936 489.272 175.11 490.173C174.367 490.991 173.624 491.728 172.882 492.382C173.129 493.446 173.129 494.265 172.882 494.838C172.716 495.329 172.675 496.106 172.758 497.17C171.52 500.443 169.621 502.612 167.062 503.676C164.586 504.822 162.233 504.617 160.004 503.062C159.096 502.408 158.312 501.589 157.652 500.607C157.074 499.543 156.249 498.889 155.176 498.643C155.423 497.252 155.299 495.861 154.804 494.469C154.309 493.078 153.772 492.341 153.194 492.26C152.947 490.541 152.575 488.7 152.08 486.735C151.585 484.771 151.131 482.807 150.718 480.843C150.305 478.797 149.934 476.833 149.604 474.951C149.356 472.987 149.274 471.186 149.356 469.549C149.439 468.731 149.274 467.994 148.861 467.34C148.531 466.685 148.283 465.908 148.118 465.007C147.788 463.125 147.664 461.161 147.747 459.115C147.912 456.987 147.994 454.982 147.994 453.1C147.994 451.299 147.87 449.376 147.623 447.33C147.458 445.202 147.293 443.197 147.127 441.315C146.962 439.351 146.88 437.591 146.88 436.036C146.88 434.4 147.086 433.131 147.499 432.231C147.994 431.249 148.655 430.471 149.48 429.899C150.388 429.244 151.213 428.548 151.956 427.812C153.772 427.975 155.217 428.712 156.29 430.021C157.363 431.331 157.776 432.558 157.528 433.704C159.262 434.768 160.624 436.159 161.614 437.878C162.687 439.515 163.513 441.397 164.09 443.525C164.751 445.571 165.205 447.78 165.452 450.154C165.7 452.445 165.906 454.737 166.072 457.028C166.237 459.238 166.402 461.365 166.567 463.411C166.732 465.457 167.062 467.217 167.557 468.69C170.612 464.353 173.17 460.506 175.234 457.151C177.298 453.714 179.403 450.44 181.549 447.33C183.695 444.22 186.089 441.07 188.73 437.878C191.372 434.686 194.797 431.085 199.007 427.075C199.833 427.157 200.493 427.321 200.988 427.566C201.566 427.812 202.061 428.016 202.474 428.18C202.887 428.344 203.382 428.507 203.96 428.671C204.538 428.753 205.322 428.712 206.312 428.548C206.643 429.367 206.89 429.98 207.055 430.39C207.22 430.717 207.344 431.085 207.427 431.494C207.592 431.822 207.757 432.272 207.922 432.845C208.17 433.418 208.541 434.236 209.036 435.3C209.284 435.545 209.367 435.873 209.284 436.282C209.201 436.691 209.119 437.1 209.036 437.51C209.036 437.837 209.036 438.082 209.036 438.246C209.036 438.41 209.243 438.41 209.655 438.246C209.408 439.392 208.954 440.456 208.293 441.438C207.716 442.338 207.468 443.443 207.551 444.752C205.652 447.207 203.547 449.744 201.236 452.363C199.007 454.982 196.737 457.683 194.426 460.465C192.197 463.248 190.051 466.194 187.987 469.304C185.924 472.332 184.149 475.524 182.663 478.879C182.25 478.879 181.92 479.002 181.673 479.247C181.508 479.493 181.342 479.779 181.177 480.107C181.012 480.352 180.806 480.598 180.558 480.843C180.393 481.089 180.146 481.211 179.815 481.211Z" fill="#E81E61"/>
<path d="M269.212 433.704C269.294 434.277 269.294 434.727 269.212 435.054C269.212 435.3 269.171 435.545 269.088 435.791C269.088 436.036 269.088 436.323 269.088 436.65C269.088 436.896 269.171 437.305 269.336 437.878C267.602 440.66 265.58 442.584 263.269 443.647C261.04 444.629 258.605 445.366 255.963 445.857C253.322 446.266 250.598 446.716 247.791 447.207C245.067 447.698 242.343 448.762 239.619 450.399C238.546 449.99 237.556 449.99 236.648 450.399C235.822 450.808 234.584 450.931 232.933 450.767C232.438 451.258 231.819 451.627 231.076 451.872C230.333 452.036 229.59 452.24 228.847 452.486C229.177 453.223 229.301 454 229.219 454.818C229.219 455.555 229.342 456.169 229.59 456.66C232.479 456.905 235.657 456.864 239.124 456.537C242.674 456.21 246.14 456.005 249.525 455.923C249.607 456.332 249.566 456.619 249.401 456.783C249.236 456.864 249.195 457.069 249.277 457.396C249.855 457.806 250.433 458.337 251.011 458.992C251.588 459.565 252.166 460.138 252.744 460.711C253.322 461.284 253.9 461.775 254.477 462.184C255.138 462.511 255.881 462.634 256.706 462.552C257.036 463.207 257.243 463.943 257.325 464.762C257.49 465.498 257.408 466.276 257.078 467.094C255.757 467.994 254.436 468.936 253.115 469.918C251.795 470.818 250.392 471.636 248.906 472.373C247.502 473.109 245.975 473.723 244.324 474.214C242.756 474.623 240.981 474.787 239 474.705C238.588 474.705 238.257 474.705 238.01 474.705C237.845 474.705 237.597 474.582 237.267 474.337C236.606 474.746 235.657 474.869 234.419 474.705C233.263 474.542 232.355 474.664 231.695 475.073C230.787 474.664 229.673 474.501 228.352 474.582C227.114 474.582 225.999 474.419 225.009 474.091C223.688 475.81 222.491 477.651 221.418 479.616C220.345 481.58 219.396 483.667 218.57 485.876C221.377 486.285 223.688 486.449 225.504 486.367C227.403 486.285 229.177 486.163 230.828 485.999C232.479 485.753 234.171 485.549 235.905 485.385C237.638 485.14 239.826 485.058 242.467 485.14C244.118 484.239 246.058 483.667 248.287 483.421C250.598 483.094 252.703 482.603 254.601 481.948C255.262 482.193 255.839 482.644 256.335 483.298C256.83 483.871 257.284 484.444 257.697 485.017C258.192 485.508 258.687 485.958 259.183 486.367C259.678 486.776 260.297 486.94 261.04 486.858C261.37 487.186 261.576 487.595 261.659 488.086C261.824 488.495 261.948 488.904 262.03 489.313C262.113 489.723 262.237 490.091 262.402 490.418C262.649 490.664 263.021 490.746 263.516 490.664C262.278 493.364 260.833 495.451 259.183 496.924C257.614 498.316 255.798 499.38 253.735 500.116C251.671 500.853 249.36 501.426 246.801 501.835C244.324 502.244 241.559 502.735 238.505 503.308C237.762 503.472 237.143 503.431 236.648 503.185C236.152 503.021 235.575 502.94 234.914 502.94C233.016 503.349 230.746 503.717 228.104 504.044C225.463 504.372 222.78 504.494 220.056 504.413C217.332 504.331 214.732 503.963 212.256 503.308C209.779 502.735 207.757 501.671 206.189 500.116C205.528 499.543 205.074 498.889 204.827 498.152C204.661 497.334 204.125 496.72 203.217 496.311C203.134 495.247 202.969 494.06 202.722 492.751C202.474 491.441 202.226 490.091 201.979 488.7C201.731 487.227 201.525 485.794 201.36 484.403C201.277 483.012 201.36 481.743 201.607 480.598C201.855 479.37 202.35 478.265 203.093 477.283C203.919 476.301 204.207 475.237 203.96 474.091C204.373 474.01 204.62 473.805 204.703 473.478C204.785 473.068 205.115 472.905 205.693 472.987C206.189 471.513 206.725 470.122 207.303 468.813C207.881 467.503 208.459 466.235 209.036 465.007C209.697 463.78 210.316 462.552 210.894 461.325C211.554 460.015 212.173 458.583 212.751 457.028C211.595 455.964 210.729 454.818 210.151 453.591C209.655 452.281 209.284 451.013 209.036 449.785C208.789 448.476 208.582 447.166 208.417 445.857C208.252 444.466 207.963 443.075 207.551 441.683C208.376 440.456 209.367 439.474 210.522 438.737C211.76 437.919 213.081 437.264 214.484 436.773C215.888 436.282 217.415 435.873 219.066 435.545C220.716 435.218 222.45 434.85 224.266 434.441C227.568 433.377 230.498 432.558 233.057 431.985C235.698 431.413 238.257 430.962 240.734 430.635C243.293 430.226 245.934 429.858 248.658 429.53C251.382 429.203 254.477 428.712 257.944 428.057C258.687 428.794 259.389 429.162 260.049 429.162C260.379 428.425 260.751 428.221 261.164 428.548C261.659 428.794 261.865 428.548 261.783 427.812C262.608 429.203 263.64 430.39 264.878 431.372C266.199 432.272 267.643 433.049 269.212 433.704Z" fill="#E81E61"/>
<path d="M298.928 501.466C296.617 502.203 294.099 502.94 291.375 503.676C288.651 504.413 285.927 504.781 283.203 504.781C279.076 504.781 275.815 503.758 273.422 501.712C273.009 500.812 272.637 500.198 272.307 499.871C272.06 499.543 271.812 499.216 271.564 498.889C271.399 498.479 271.275 497.947 271.193 497.293C270.202 496.147 269.418 494.838 268.84 493.364C268.263 491.809 267.85 490.255 267.602 488.7C267.437 487.063 267.396 485.426 267.478 483.789C267.643 482.153 267.932 480.598 268.345 479.124C268.51 478.797 268.593 478.47 268.593 478.142C268.675 477.815 268.758 477.447 268.84 477.038C269.171 475.728 269.501 474.46 269.831 473.232C270.244 472.005 270.78 470.941 271.441 470.04C271.11 469.304 271.11 468.485 271.441 467.585C271.771 466.685 272.142 465.867 272.555 465.13C273.711 462.02 274.66 459.401 275.403 457.274C276.228 455.064 277.054 452.895 277.879 450.767C279.282 447.085 280.603 443.443 281.841 439.842C283.079 436.241 284.194 432.354 285.184 428.18C285.845 427.771 286.34 427.484 286.67 427.321C287.165 427.157 287.578 427.034 287.908 426.952C289.394 427.689 291.128 428.425 293.109 429.162C295.09 429.817 296.741 430.144 298.061 430.144C298.722 430.553 299.134 430.881 299.3 431.126C299.465 431.29 299.63 431.453 299.795 431.617C300.703 432.681 301.487 433.786 302.147 434.932C302.808 435.996 303.014 437.428 302.766 439.228C302.271 439.965 301.9 440.333 301.652 440.333C301.239 441.97 300.785 443.361 300.29 444.507C299.877 445.652 299.423 446.798 298.928 447.944C298.35 449.172 297.814 450.399 297.318 451.627C296.823 452.854 296.41 454.368 296.08 456.169C295.75 456.578 295.502 456.946 295.337 457.274C295.255 457.601 295.131 457.969 294.966 458.378C294.801 458.788 294.594 459.238 294.347 459.729C294.182 460.138 293.893 460.506 293.48 460.834C293.232 462.961 292.82 464.68 292.242 465.989C291.747 467.299 291.21 468.608 290.632 469.918C289.642 472.291 288.734 474.664 287.908 477.038C287.165 479.411 286.711 482.112 286.546 485.14C286.959 484.976 287.33 484.894 287.661 484.894C288.073 484.894 288.445 484.894 288.775 484.894C289.518 484.894 290.385 485.017 291.375 485.262C293.852 483.953 296.534 483.176 299.423 482.93C302.395 482.684 305.325 482.521 308.214 482.439C309.37 482.439 310.526 482.439 311.681 482.439C312.837 482.439 313.91 482.357 314.901 482.193C315.644 482.603 316.097 482.848 316.263 482.93C316.51 482.93 316.84 482.93 317.253 482.93C317.831 482.93 318.326 482.971 318.739 483.053C319.729 483.953 320.679 484.608 321.587 485.017C322.495 485.426 323.444 485.794 324.435 486.122C325.343 486.449 326.209 486.817 327.035 487.227C327.943 487.554 328.809 488.045 329.635 488.7L330.502 493.978C331.079 494.715 331.327 495.206 331.245 495.451C331.245 496.106 331.079 496.597 330.749 496.924L330.997 498.275C329.759 498.52 328.892 498.807 328.397 499.134C327.984 499.461 327.571 499.83 327.159 500.239C326.498 500.321 326.003 500.362 325.673 500.362C325.425 500.362 325.177 500.362 324.93 500.362C323.774 500.362 322.371 500.566 320.72 500.975C318.491 500.239 316.18 499.871 313.786 499.871C312.878 499.871 311.929 499.912 310.938 499.993C309.948 500.075 308.957 500.157 307.967 500.239C306.976 500.403 305.944 500.525 304.871 500.607C303.881 500.689 302.849 500.73 301.776 500.73L298.928 501.466Z" fill="#E81E61"/>
<path d="M406.031 465.989C405.948 466.971 406.031 467.913 406.278 468.813C406.526 469.713 406.815 470.613 407.145 471.513C407.558 472.332 407.929 473.191 408.259 474.091C408.589 474.992 408.837 475.892 409.002 476.792C409.167 477.938 409.167 479.206 409.002 480.598C408.837 481.907 408.548 483.216 408.135 484.526C407.723 485.753 407.186 486.899 406.526 487.963C405.865 488.945 405.081 489.682 404.173 490.173C403.018 491.646 401.614 492.792 399.963 493.61C398.313 494.428 396.785 495.41 395.382 496.556C394.474 497.129 393.442 497.538 392.287 497.784C391.214 498.029 390.099 498.275 388.944 498.52C388.036 499.011 386.963 499.543 385.724 500.116C384.486 500.607 383.207 501.098 381.886 501.589C380.565 501.998 379.245 502.326 377.924 502.571C376.603 502.735 375.448 502.776 374.457 502.694C371.981 503.594 369.546 504.167 367.152 504.413C364.84 504.74 362.116 504.576 358.98 503.922C356.008 504.331 353.243 504.208 350.684 503.553C348.208 502.899 345.979 501.876 343.998 500.484C342.099 499.011 340.407 497.293 338.921 495.329C337.518 493.283 336.362 491.155 335.454 488.945C334.794 484.28 334.959 480.066 335.95 476.301C336.94 472.455 338.343 468.936 340.159 465.744C342.058 462.47 344.204 459.483 346.598 456.783C348.992 454 351.303 451.299 353.532 448.681C354.027 448.844 354.398 448.844 354.646 448.681C354.976 448.435 355.265 448.149 355.513 447.821C355.76 447.412 356.008 447.044 356.256 446.716C356.586 446.389 356.957 446.184 357.37 446.103C357.948 444.875 358.773 443.975 359.846 443.402C361.002 442.747 361.91 441.847 362.57 440.701C363.313 440.538 363.932 440.292 364.428 439.965C364.923 439.637 365.377 439.269 365.79 438.86C366.285 438.451 366.78 438.082 367.276 437.755C367.771 437.346 368.349 437.059 369.009 436.896V435.545C370.495 434.891 371.568 434.154 372.228 433.336C372.971 432.436 373.838 431.372 374.828 430.144C375.571 430.062 376.149 430.021 376.562 430.021C377.057 430.021 377.759 429.939 378.667 429.776C379.327 428.63 379.905 427.771 380.4 427.198C380.978 426.625 381.803 426.011 382.877 425.356C383.867 425.848 384.94 426.175 386.096 426.339C387.334 426.502 388.407 427.034 389.315 427.934C389.398 428.753 389.645 429.407 390.058 429.899C390.471 430.308 390.925 430.717 391.42 431.126C391.915 431.453 392.369 431.822 392.782 432.231C393.277 432.64 393.607 433.213 393.773 433.95C394.103 434.031 394.309 433.99 394.392 433.827C394.557 433.663 394.804 433.622 395.135 433.704C395.382 434.85 395.671 435.627 396.001 436.036C396.331 436.364 396.662 437.059 396.992 438.123C396.579 438.942 396.249 439.801 396.001 440.701C395.836 441.52 395.341 442.133 394.515 442.543C394.433 443.115 394.598 443.443 395.011 443.525C395.423 443.525 395.671 443.729 395.754 444.138C395.836 444.875 395.712 445.407 395.382 445.734C397.363 448.926 399.138 452.322 400.706 455.923C402.275 459.442 404.049 462.798 406.031 465.989ZM390.553 477.651C390.883 476.751 391.296 476.015 391.791 475.442C392.369 474.869 392.699 474.01 392.782 472.864C392.369 472.209 392.122 471.718 392.039 471.391C391.957 470.982 391.915 470.368 391.915 469.549C390.099 467.012 388.531 464.312 387.21 461.447C385.889 458.501 384.404 455.76 382.753 453.223C382.588 453.55 382.299 453.877 381.886 454.205C381.473 454.532 381.019 454.45 380.524 453.959C380.359 454.614 380.07 455.105 379.657 455.432C379.245 455.678 378.791 455.8 378.295 455.8C377.8 455.719 377.264 455.596 376.686 455.432C376.19 455.187 375.736 454.9 375.324 454.573C372.93 456.455 370.536 458.297 368.142 460.097C365.748 461.897 363.602 463.984 361.704 466.358C361.374 466.521 361.167 466.603 361.085 466.603C361.002 466.521 360.754 466.562 360.342 466.726C359.681 468.281 358.856 469.713 357.865 471.022C356.957 472.25 356.049 473.519 355.141 474.828C354.233 476.137 353.449 477.529 352.789 479.002C352.128 480.475 351.757 482.193 351.674 484.158C353.078 485.303 354.729 485.999 356.627 486.244C358.526 486.49 360.466 486.531 362.447 486.367C364.51 486.204 366.491 485.958 368.39 485.631C370.371 485.221 372.187 485.017 373.838 485.017C377.305 484.198 380.276 483.135 382.753 481.825C385.229 480.434 387.829 479.043 390.553 477.651Z" fill="#E81E61"/>
<path d="M457.786 426.707C461.253 427.116 464.349 427.812 467.073 428.794C469.797 429.776 472.108 431.085 474.007 432.722C475.327 434.768 476.565 436.978 477.721 439.351C478.959 441.724 479.867 444.22 480.445 446.839C481.105 449.376 481.394 451.995 481.312 454.696C481.312 457.396 480.734 460.138 479.578 462.92C477.185 465.867 474.254 468.281 470.787 470.163C467.403 471.964 463.73 473.437 459.767 474.582C455.805 475.728 451.678 476.71 447.386 477.529C443.176 478.347 439.049 479.165 435.004 479.984C435.086 481.866 435.086 483.871 435.004 485.999C435.004 488.045 434.798 490.132 434.385 492.26C434.055 494.306 433.518 496.311 432.775 498.275C432.032 500.239 431.042 502.039 429.804 503.676C428.4 503.676 426.956 503.84 425.47 504.167C423.984 504.576 422.663 504.904 421.508 505.149C420.93 504.822 420.393 504.494 419.898 504.167C419.485 503.922 418.866 503.758 418.041 503.676C418.206 502.858 418 502.039 417.422 501.221C416.844 500.321 416.266 499.42 415.688 498.52C415.11 497.62 414.698 496.761 414.45 495.942C414.285 495.124 414.698 494.346 415.688 493.61C415.11 493.037 414.822 492.301 414.822 491.4C415.399 490.418 415.895 489.068 416.307 487.349C416.803 485.631 417.174 483.953 417.422 482.316C417.752 480.598 417.834 479.043 417.669 477.651C417.504 476.26 416.679 475.237 415.193 474.582C415.276 474.419 415.441 474.337 415.688 474.337C415.936 474.337 416.184 474.296 416.431 474.214C415.771 473.723 415.358 473.028 415.193 472.127C415.11 471.227 414.822 470.45 414.326 469.795C414.491 469.386 414.615 469.017 414.698 468.69C414.78 468.363 415.069 468.24 415.564 468.322C415.317 466.849 415.317 465.457 415.564 464.148C415.895 462.839 416.349 461.611 416.926 460.465C417.504 459.238 418.206 458.051 419.031 456.905C419.857 455.76 420.641 454.614 421.384 453.468C421.962 453.386 422.292 453.468 422.374 453.714C422.54 453.959 422.828 453.918 423.241 453.591C424.314 452.772 425.057 451.913 425.47 451.013C425.883 450.113 426.089 449.09 426.089 447.944C426.667 446.225 427.368 444.507 428.194 442.788C429.019 440.988 429.927 439.351 430.918 437.878C431.908 436.405 432.982 435.095 434.137 433.95C435.375 432.804 436.655 431.944 437.976 431.372C438.966 430.553 440.204 429.817 441.69 429.162C443.176 428.425 444.786 427.893 446.519 427.566C448.252 427.157 449.986 426.952 451.719 426.952C453.535 426.87 455.186 427.034 456.672 427.443C457.085 427.607 457.291 427.525 457.291 427.198C457.374 426.87 457.539 426.707 457.786 426.707ZM452.71 456.046C454.773 455.146 456.961 454.45 459.272 453.959C461.666 453.386 463.647 452.363 465.215 450.89C464.225 449.99 462.78 449.212 460.882 448.558C458.983 447.821 456.92 447.371 454.691 447.207C452.462 447.044 450.192 447.248 447.881 447.821C445.652 448.312 443.712 449.294 442.062 450.767C441.566 452.24 441.154 453.427 440.823 454.327C440.493 455.146 440.039 456.169 439.461 457.396C439.626 457.806 439.874 458.133 440.204 458.378C440.617 458.542 440.906 458.828 441.071 459.238C442.97 458.256 444.868 457.724 446.767 457.642C448.748 457.478 450.729 456.946 452.71 456.046Z" fill="#E81E61"/>
<path d="M563.279 500.607C562.454 501.016 561.67 501.385 560.927 501.712C560.266 502.039 559.482 502.203 558.574 502.203C555.355 499.83 553.663 495.697 553.498 489.804C553.415 483.912 554.694 476.424 557.336 467.34C557.749 467.094 557.955 466.603 557.955 465.867L556.841 464.639C556.51 464.639 556.18 464.68 555.85 464.762C555.602 464.844 555.396 465.13 555.231 465.621C553.085 467.176 550.732 468.813 548.173 470.531C545.614 472.168 542.932 473.723 540.125 475.196C537.401 476.587 534.595 477.733 531.706 478.633C528.899 479.534 526.134 479.984 523.41 479.984C516.476 479.984 511.276 476.506 507.809 469.549L506.818 467.708L505.828 469.304C505.58 469.631 505.209 470.327 504.713 471.391C504.218 472.373 503.723 473.519 503.228 474.828C502.732 476.137 502.278 477.488 501.866 478.879C501.535 480.188 501.412 481.334 501.494 482.316C500.751 483.053 499.967 483.912 499.142 484.894C498.316 485.876 497.697 486.981 497.284 488.209C497.119 488.863 497.202 489.477 497.532 490.05C497.367 490.787 496.995 491.359 496.418 491.769C496.087 492.178 495.716 492.587 495.303 492.996C494.973 493.324 494.684 493.692 494.436 494.101C494.271 494.51 494.148 494.919 494.065 495.329C494.065 495.738 494.024 496.147 493.941 496.556C493.941 497.129 493.859 497.661 493.694 498.152C492.29 501.016 491.176 502.858 490.35 503.676C489.525 504.576 488.411 505.026 487.007 505.026C486.347 505.026 485.274 504.904 483.788 504.658C482.715 503.512 481.724 501.957 480.816 499.993C479.991 497.947 479.331 495.779 478.835 493.487C478.423 491.196 478.216 488.904 478.216 486.613C478.299 484.239 478.712 482.193 479.454 480.475C479.454 480.393 479.785 479.575 480.445 478.02C481.105 476.465 481.931 474.46 482.921 472.005C483.994 469.549 485.191 466.849 486.512 463.902C487.833 460.874 489.154 457.969 490.474 455.187C491.795 452.322 493.033 449.703 494.189 447.33C495.427 444.957 496.459 443.156 497.284 441.929C497.945 440.947 498.522 440.047 499.018 439.228C499.596 438.328 500.132 437.469 500.627 436.65C502.113 434.113 503.516 432.026 504.837 430.39C506.24 428.671 508.263 427.321 510.904 426.339C512.72 427.075 514.041 427.934 514.866 428.916L515.114 430.267C515.444 431.085 515.939 431.494 516.6 431.494C517.508 431.74 518.251 431.985 518.829 432.231C519.489 432.395 520.191 432.558 520.933 432.722C521.511 433.377 522.048 434.154 522.543 435.054C523.203 436.036 523.823 437.018 524.4 438.001C525.061 438.901 525.556 439.842 525.886 440.824C526.299 441.724 526.505 442.665 526.505 443.647C526.588 444.629 526.423 445.652 526.01 446.716L526.134 447.944C526.547 448.681 526.629 449.703 526.381 451.013C526.299 451.586 526.258 452.2 526.258 452.854C526.258 453.427 526.34 454.082 526.505 454.818C527.991 455.964 529.312 456.537 530.467 456.537C531.788 456.537 532.985 456.251 534.058 455.678C535.214 455.023 536.287 454.368 537.277 453.714C537.938 453.223 538.598 452.813 539.259 452.486C539.919 452.077 540.579 451.831 541.24 451.749C542.725 450.358 544.046 449.131 545.202 448.067C546.44 447.003 547.719 445.939 549.04 444.875C551.516 442.911 553.91 440.783 556.222 438.492C558.533 436.2 560.39 433.336 561.793 429.899C562.619 429.407 563.486 429.162 564.394 429.162C565.302 429.162 566.251 429.367 567.241 429.776C568.232 430.185 569.181 430.594 570.089 431.003C570.337 431.167 570.543 431.29 570.708 431.372C570.956 431.453 571.162 431.535 571.327 431.617C571.327 432.436 571.658 433.131 572.318 433.704C572.648 433.95 572.854 434.113 572.937 434.195C573.02 434.277 573.143 434.359 573.308 434.441C574.547 435.095 575.331 435.75 575.661 436.405C576.239 438.287 577.271 439.719 578.756 440.701C578.591 441.52 578.591 442.297 578.756 443.034C579.004 443.688 579.293 444.384 579.623 445.121C579.706 445.366 579.788 445.612 579.871 445.857C579.953 446.103 580.077 446.389 580.242 446.716L577.89 446.471L578.261 448.803C578.426 449.949 578.302 451.218 577.89 452.609C577.559 454 577.147 455.105 576.652 455.923C576.734 458.051 576.775 459.729 576.775 460.956C576.858 462.102 576.817 463.207 576.652 464.271C576.486 465.253 576.239 466.194 575.909 467.094C575.661 467.994 575.29 468.976 574.794 470.04C575.124 475.278 574.505 480.066 572.937 484.403C571.451 488.659 569.883 492.669 568.232 496.433C568.067 496.843 567.86 497.252 567.613 497.661C567.448 498.07 567.283 498.479 567.118 498.889C566.375 499.134 565.714 499.42 565.136 499.748C564.559 499.993 563.94 500.28 563.279 500.607Z" fill="#E81E61"/>
<path d="M649.952 433.704C650.034 434.277 650.034 434.727 649.952 435.054C649.952 435.3 649.91 435.545 649.828 435.791C649.828 436.036 649.828 436.323 649.828 436.65C649.828 436.896 649.91 437.305 650.075 437.878C648.342 440.66 646.32 442.584 644.008 443.647C641.78 444.629 639.345 445.366 636.703 445.857C634.062 446.266 631.338 446.716 628.531 447.207C625.807 447.698 623.083 448.762 620.359 450.399C619.286 449.99 618.296 449.99 617.388 450.399C616.562 450.808 615.324 450.931 613.673 450.767C613.178 451.258 612.559 451.627 611.816 451.872C611.073 452.036 610.33 452.24 609.587 452.486C609.917 453.223 610.041 454 609.958 454.818C609.958 455.555 610.082 456.169 610.33 456.66C613.219 456.905 616.397 456.864 619.864 456.537C623.413 456.21 626.88 456.005 630.265 455.923C630.347 456.332 630.306 456.619 630.141 456.783C629.976 456.864 629.934 457.069 630.017 457.396C630.595 457.806 631.173 458.337 631.75 458.992C632.328 459.565 632.906 460.138 633.484 460.711C634.062 461.284 634.64 461.775 635.217 462.184C635.878 462.511 636.621 462.634 637.446 462.552C637.776 463.207 637.983 463.943 638.065 464.762C638.23 465.498 638.148 466.276 637.818 467.094C636.497 467.994 635.176 468.936 633.855 469.918C632.535 470.818 631.131 471.636 629.646 472.373C628.242 473.109 626.715 473.723 625.064 474.214C623.496 474.623 621.721 474.787 619.74 474.705C619.327 474.705 618.997 474.705 618.75 474.705C618.584 474.705 618.337 474.582 618.007 474.337C617.346 474.746 616.397 474.869 615.159 474.705C614.003 474.542 613.095 474.664 612.435 475.073C611.527 474.664 610.412 474.501 609.092 474.582C607.854 474.582 606.739 474.419 605.749 474.091C604.428 475.81 603.231 477.651 602.158 479.616C601.085 481.58 600.136 483.667 599.31 485.876C602.117 486.285 604.428 486.449 606.244 486.367C608.143 486.285 609.917 486.163 611.568 485.999C613.219 485.753 614.911 485.549 616.645 485.385C618.378 485.14 620.566 485.058 623.207 485.14C624.858 484.239 626.798 483.667 629.026 483.421C631.338 483.094 633.443 482.603 635.341 481.948C636.002 482.193 636.579 482.644 637.075 483.298C637.57 483.871 638.024 484.444 638.437 485.017C638.932 485.508 639.427 485.958 639.922 486.367C640.418 486.776 641.037 486.94 641.78 486.858C642.11 487.186 642.316 487.595 642.399 488.086C642.564 488.495 642.688 488.904 642.77 489.313C642.853 489.723 642.977 490.091 643.142 490.418C643.389 490.664 643.761 490.746 644.256 490.664C643.018 493.364 641.573 495.451 639.922 496.924C638.354 498.316 636.538 499.38 634.474 500.116C632.411 500.853 630.1 501.426 627.541 501.835C625.064 502.244 622.299 502.735 619.245 503.308C618.502 503.472 617.883 503.431 617.388 503.185C616.892 503.021 616.314 502.94 615.654 502.94C613.756 503.349 611.486 503.717 608.844 504.044C606.203 504.372 603.52 504.494 600.796 504.413C598.072 504.331 595.472 503.963 592.995 503.308C590.519 502.735 588.497 501.671 586.928 500.116C586.268 499.543 585.814 498.889 585.566 498.152C585.401 497.334 584.865 496.72 583.957 496.311C583.874 495.247 583.709 494.06 583.461 492.751C583.214 491.441 582.966 490.091 582.719 488.7C582.471 487.227 582.265 485.794 582.099 484.403C582.017 483.012 582.099 481.743 582.347 480.598C582.595 479.37 583.09 478.265 583.833 477.283C584.658 476.301 584.947 475.237 584.7 474.091C585.112 474.01 585.36 473.805 585.443 473.478C585.525 473.068 585.855 472.905 586.433 472.987C586.928 471.513 587.465 470.122 588.043 468.813C588.621 467.503 589.198 466.235 589.776 465.007C590.437 463.78 591.056 462.552 591.633 461.325C592.294 460.015 592.913 458.583 593.491 457.028C592.335 455.964 591.468 454.818 590.891 453.591C590.395 452.281 590.024 451.013 589.776 449.785C589.529 448.476 589.322 447.166 589.157 445.857C588.992 444.466 588.703 443.075 588.29 441.683C589.116 440.456 590.106 439.474 591.262 438.737C592.5 437.919 593.821 437.264 595.224 436.773C596.627 436.282 598.155 435.873 599.805 435.545C601.456 435.218 603.19 434.85 605.006 434.441C608.308 433.377 611.238 432.558 613.797 431.985C616.438 431.413 618.997 430.962 621.474 430.635C624.032 430.226 626.674 429.858 629.398 429.53C632.122 429.203 635.217 428.712 638.684 428.057C639.427 428.794 640.129 429.162 640.789 429.162C641.119 428.425 641.491 428.221 641.904 428.548C642.399 428.794 642.605 428.548 642.523 427.812C643.348 429.203 644.38 430.39 645.618 431.372C646.939 432.272 648.383 433.049 649.952 433.704Z" fill="#E81E61"/>
<path d="M672.363 480.475C671.62 480.639 671.083 481.089 670.753 481.825C670.423 482.48 670.093 483.176 669.763 483.912C669.515 484.649 669.226 485.344 668.896 485.999C668.648 486.572 668.235 486.858 667.658 486.858C667.575 487.513 667.327 488.086 666.915 488.577C666.585 489.068 666.254 489.6 665.924 490.173C665.594 490.664 665.346 491.237 665.181 491.891C665.016 492.464 665.099 493.16 665.429 493.978C664.769 494.469 664.356 495.165 664.191 496.065C664.026 496.965 663.819 497.825 663.572 498.643C663.407 499.461 663.076 500.157 662.581 500.73C662.086 501.303 661.178 501.548 659.857 501.466C659.609 501.794 659.568 501.998 659.733 502.08C659.898 502.162 660.022 502.449 660.105 502.94C659.197 502.776 658.495 502.817 658 503.062C657.587 503.39 657.051 503.594 656.39 503.676C654.822 503.185 653.501 502.326 652.428 501.098C651.437 499.871 650.529 498.52 649.704 497.047C648.961 495.492 648.259 493.937 647.599 492.382C647.021 490.827 646.443 489.477 645.866 488.331C646.113 487.431 646.155 486.572 645.989 485.753C645.824 484.853 645.535 484.117 645.123 483.544C649.167 475.033 653.584 465.948 658.371 456.291C663.159 446.635 667.699 437.1 671.991 427.689C673.89 428.425 675.747 429.285 677.563 430.267C679.462 431.167 681.154 432.231 682.64 433.459C684.208 434.686 685.529 436.118 686.602 437.755C687.675 439.31 688.376 441.07 688.707 443.034C688.542 443.525 688.335 443.729 688.088 443.647C687.922 443.484 687.757 443.525 687.592 443.77C687.922 444.179 688.088 444.466 688.088 444.629C688.17 444.793 688.17 444.957 688.088 445.121C688.088 445.284 688.088 445.53 688.088 445.857C688.088 446.103 688.211 446.471 688.459 446.962C688.129 446.88 687.881 446.921 687.716 447.085C687.634 447.248 687.386 447.248 686.973 447.085C687.303 447.985 687.386 448.721 687.221 449.294C687.138 449.867 686.973 450.399 686.726 450.89C686.478 451.299 686.272 451.79 686.106 452.363C685.941 452.854 685.983 453.509 686.23 454.327C685.983 454.327 685.776 454.409 685.611 454.573C685.529 454.655 685.446 454.777 685.364 454.941C685.281 455.023 685.157 455.146 684.992 455.309C684.91 455.391 684.744 455.391 684.497 455.309C684.744 457.11 684.827 458.91 684.744 460.711C684.662 462.511 684.579 464.353 684.497 466.235C684.497 468.035 684.538 469.959 684.621 472.005C684.703 473.969 684.992 476.015 685.487 478.142C688.459 476.424 690.812 474.214 692.545 471.513C694.361 468.813 695.806 465.785 696.879 462.429C698.034 459.074 698.901 455.473 699.479 451.627C700.057 447.78 700.676 443.852 701.336 439.842C702.079 439.105 702.657 438.205 703.07 437.141C703.482 436.077 703.854 434.973 704.184 433.827C704.514 432.599 704.844 431.413 705.174 430.267C705.505 429.039 705.917 427.934 706.413 426.952C707.651 427.116 708.683 427.525 709.508 428.18C710.416 428.753 711.241 429.407 711.984 430.144C712.727 430.799 713.511 431.453 714.337 432.108C715.162 432.681 716.194 433.049 717.432 433.213C718.423 434.604 719.331 435.955 720.156 437.264C720.982 438.573 721.518 439.965 721.766 441.438C721.353 442.092 721.023 442.829 720.775 443.647C720.61 444.466 720.404 445.284 720.156 446.103C719.909 446.921 719.579 447.698 719.166 448.435C718.753 449.09 718.175 449.663 717.432 450.154C717.185 452.281 716.855 454.246 716.442 456.046C716.112 457.765 715.74 459.483 715.327 461.202C714.997 462.92 714.708 464.721 714.461 466.603C714.213 468.404 714.131 470.409 714.213 472.618C713.553 474.501 712.851 476.506 712.108 478.633C711.365 480.761 710.787 482.684 710.375 484.403C709.054 485.467 708.022 486.735 707.279 488.209C706.536 489.682 705.752 491.155 704.927 492.628C704.597 492.955 704.39 493.037 704.308 492.873C704.225 492.71 703.936 492.587 703.441 492.505C703.524 492.832 703.524 493.078 703.441 493.242C703.358 493.405 703.235 493.569 703.07 493.733C702.987 493.815 702.904 493.978 702.822 494.224C702.822 494.469 702.904 494.797 703.07 495.206C701.914 495.697 700.882 496.392 699.974 497.293C699.066 498.193 698.076 499.011 697.002 499.748C696.012 500.484 694.774 500.975 693.288 501.221C691.885 501.466 690.027 501.18 687.716 500.362C684.332 497.906 681.319 495.083 678.677 491.891C676.118 488.7 674.014 484.894 672.363 480.475Z" fill="#E81E61"/>
<path d="M788.999 443.77C786.935 443.77 784.707 443.934 782.313 444.261C779.919 444.507 777.567 444.793 775.255 445.121C773.604 445.366 771.995 445.571 770.426 445.734C768.941 445.898 767.579 446.021 766.34 446.103C765.763 447.903 765.185 449.499 764.607 450.89C764.029 452.281 763.41 453.632 762.75 454.941C762.089 456.332 761.47 457.765 760.892 459.238C760.397 460.629 759.902 462.143 759.407 463.78C758.581 465.089 757.88 466.317 757.302 467.462C756.806 468.526 756.394 469.754 756.064 471.145C755.073 472.373 754.33 473.682 753.835 475.073C753.34 476.383 752.968 477.529 752.72 478.511L752.225 479.984C751.73 480.475 751.441 480.884 751.358 481.211C751.276 481.457 751.07 481.702 750.739 481.948C750.657 482.848 750.368 483.748 749.873 484.649C749.708 485.058 749.584 485.467 749.501 485.876C749.419 486.204 749.377 486.449 749.377 486.613C749.377 487.431 749.171 487.963 748.758 488.209C748.841 488.618 748.841 489.068 748.758 489.559C748.676 489.968 748.593 490.377 748.511 490.787C748.263 491.769 748.18 492.546 748.263 493.119C748.511 493.446 748.717 493.733 748.882 493.978C749.13 494.224 749.295 494.551 749.377 494.96C749.873 495.288 750.244 495.492 750.492 495.574C750.822 495.82 751.317 496.106 751.978 496.433L753.092 497.661C753.505 500.034 753.133 501.917 751.978 503.308C750.739 504.863 748.634 505.64 745.663 505.64H744.177C743.764 505.231 743.517 504.904 743.434 504.658C742.774 504.413 742.237 504.208 741.824 504.044C741.412 503.881 741.04 503.553 740.71 503.062C739.637 502.571 738.77 502.162 738.11 501.835L736.996 501.221C736.996 500.321 736.996 499.83 736.996 499.748C736.418 499.011 735.964 498.193 735.634 497.293C735.386 496.392 735.18 495.492 735.015 494.592C734.849 493.855 734.643 493.16 734.395 492.505C734.23 491.85 733.983 491.278 733.653 490.787C733.487 486.04 733.941 482.03 735.015 478.756C736.088 475.483 737.202 472.332 738.358 469.304C739.018 467.667 739.678 466.03 740.339 464.394C740.999 462.675 741.577 460.915 742.072 459.115L743.186 457.887C743.764 456.578 744.218 455.514 744.548 454.696C744.961 453.795 745.374 452.895 745.787 451.995C746.034 451.422 746.241 450.89 746.406 450.399C746.653 449.826 746.86 449.335 747.025 448.926C746.53 448.926 746.076 448.967 745.663 449.049C745.25 449.049 744.837 449.09 744.425 449.172C743.929 449.253 743.475 449.335 743.063 449.417C742.65 449.417 742.237 449.417 741.824 449.417C741.247 449.417 740.834 449.376 740.586 449.294C739.678 449.703 738.688 449.908 737.615 449.908H736.377C736.129 449.908 735.881 449.908 735.634 449.908C735.469 449.826 735.303 449.785 735.138 449.785C734.313 449.785 733.653 449.908 733.157 450.154C732.167 450.154 731.217 450.154 730.309 450.154H729.071C728.906 450.154 728.7 450.195 728.452 450.276C728.205 450.276 727.998 450.276 727.833 450.276C727.255 450.276 726.636 450.235 725.976 450.154C725.315 449.99 724.614 449.703 723.871 449.294C722.88 447.985 722.22 447.289 721.89 447.207L720.775 445.734C720.693 445.243 720.569 444.793 720.404 444.384C720.239 443.893 720.074 443.361 719.909 442.788C719.579 441.97 719.248 441.11 718.918 440.21C718.671 439.228 718.547 438.082 718.547 436.773C718.629 436.118 718.794 435.627 719.042 435.3C719.29 434.973 719.496 434.686 719.661 434.441L720.033 432.599L721.642 432.722H725.109C727.751 432.722 730.433 432.64 733.157 432.476C735.881 432.231 738.688 431.985 741.577 431.74C743.228 431.576 744.879 431.413 746.53 431.249C748.263 431.085 750.038 430.922 751.854 430.758C752.184 430.021 752.514 429.326 752.844 428.671L754.082 428.057C755.568 427.975 756.6 428.18 757.178 428.671C757.838 429.08 758.375 429.489 758.788 429.899C760.604 429.735 762.42 429.571 764.236 429.407C766.134 429.162 768.033 428.876 769.931 428.548C772.738 428.139 775.544 427.771 778.351 427.443C781.24 427.116 784.005 426.952 786.647 426.952C787.802 426.952 788.917 426.993 789.99 427.075C791.063 427.157 792.053 427.28 792.961 427.443L794.199 428.303C794.447 428.794 794.777 429.244 795.19 429.653C795.685 430.062 796.181 430.471 796.676 430.881C797.666 431.781 798.657 432.845 799.647 434.072C800.638 435.3 801.009 437.1 800.762 439.474C800.101 440.456 799.606 441.029 799.276 441.192L798.162 442.665L796.923 442.543C796.428 442.543 795.974 442.624 795.561 442.788C795.149 442.87 794.736 442.993 794.323 443.156C793.993 443.32 793.663 443.484 793.333 443.647C793.003 443.729 792.631 443.811 792.218 443.893C791.475 443.893 790.856 443.893 790.361 443.893C789.948 443.811 789.494 443.77 788.999 443.77Z" fill="#E81E61"/>
</svg>
