<svg width="770" height="492" viewBox="0 0 770 492" fill="none" xmlns="http://www.w3.org/2000/svg">
<rect x="104.126" y="51.0171" width="410.693" height="388.056" fill="url(#paint0_linear_592_318)"/>
<rect x="104.126" y="51.0171" width="410.693" height="388.056" fill="#9747FF" fill-opacity="0.18"/>
<rect x="47.5" y="12.5" width="650" height="467" stroke="url(#paint1_linear_592_318)" stroke-width="25"/>
<rect x="47.5" y="12.5" width="650" height="467" stroke="#9747FF" stroke-opacity="0.18" stroke-width="25"/>
<path d="M152.173 322.226V87.7286H277.87C308.578 87.7286 332.26 94.381 348.916 107.686C365.571 120.769 373.899 139.063 373.899 162.568C373.899 186.073 365.571 204.478 348.916 217.783C332.26 231.088 308.578 237.74 277.87 237.74H212.68V322.226H152.173ZM212.68 197.826H267.72C299.73 197.826 315.735 186.073 315.735 162.568C315.735 139.506 299.73 127.976 267.72 127.976H212.68V197.826Z" fill="white"/>
<path d="M509.769 325.884C488.169 325.884 467.74 323.556 448.482 318.899C429.485 314.243 413.61 307.923 400.858 299.94L418.424 259.36C430.656 266.678 444.579 272.443 460.193 276.657C476.068 280.87 492.593 282.976 509.769 282.976C528.506 282.976 541.909 280.537 549.976 275.659C558.304 270.559 562.468 264.239 562.468 256.699C562.468 250.269 559.605 245.169 553.88 241.399C548.155 237.629 538.135 234.414 523.822 231.753L479.711 223.77C430.526 214.9 405.933 193.169 405.933 158.577C405.933 143.72 410.617 130.747 419.986 119.66C429.355 108.351 442.367 99.5921 459.022 93.3832C475.938 87.1743 495.456 84.0698 517.576 84.0698C536.574 84.0698 554.4 86.3982 571.056 91.0548C587.711 95.7115 601.504 102.253 612.434 110.679L594.868 148.598C573.528 134.185 547.634 126.978 517.186 126.978C500.791 126.978 488.039 129.75 478.93 135.293C470.082 140.615 465.658 147.6 465.658 156.248C465.658 162.679 468.391 167.89 473.856 171.881C479.321 175.873 488.82 179.088 502.352 181.527L546.463 189.51C596.95 198.824 622.193 219.89 622.193 252.708C622.193 267.343 617.509 280.205 608.14 291.292C599.032 302.157 586.02 310.695 569.104 316.904C552.449 322.891 532.67 325.884 509.769 325.884Z" fill="white"/>
<path d="M10.0782 413.426C7.77509 412.952 5.98816 412.174 4.71745 411.092C3.52616 409.941 2.61284 408.621 1.97748 407.133C1.42155 405.576 1.02445 403.884 0.786196 402.057C0.627358 400.23 0.428809 398.335 0.190552 396.373C0.508229 395.493 0.905325 394.749 1.38184 394.14C1.93778 393.531 2.17603 392.685 2.09661 391.602C2.97023 389.437 3.76442 387.339 4.47919 385.309C5.19396 383.278 5.67048 381.181 5.90874 379.015C6.38525 378.406 6.86177 378 7.33828 377.797C7.97364 373.94 8.05306 369.981 7.57654 365.921C7.10003 361.86 6.30583 358.105 5.19396 354.653C5.27338 353.909 5.39251 353.368 5.55135 353.029C5.71019 352.623 5.71019 352.285 5.55135 352.014C5.39251 351.405 5.63077 351.101 6.26612 351.101C6.90148 351.101 7.53683 351.101 8.17219 351.101C8.17219 349.882 7.89422 348.698 7.33828 347.548C6.86177 346.33 6.38525 344.942 5.90874 343.386C6.54409 342.168 6.9809 340.984 7.21915 339.833C7.45741 338.683 7.89422 337.634 8.52957 336.687C11.071 337.363 13.5727 338.141 16.0347 339.021C18.4967 339.901 20.919 340.781 23.3016 341.66C25.6841 342.472 28.027 343.285 30.3302 344.097C32.6333 344.841 34.8968 345.45 37.1205 345.924C40.5355 348.022 44.03 350.119 47.6038 352.217C51.2571 354.247 54.553 356.514 57.4915 359.018C60.5095 361.454 63.0112 364.263 64.9967 367.443C66.9821 370.624 68.1337 374.38 68.4514 378.711C68.2926 379.117 68.1734 379.455 68.094 379.726C68.0146 379.996 67.9352 380.267 67.8557 380.538C67.7763 380.808 67.7366 381.113 67.7366 381.451C67.7366 381.79 67.7366 382.263 67.7366 382.872C64.8775 387.136 61.2639 390.722 56.8959 393.632C52.5278 396.542 47.7627 399.114 42.6004 401.347C37.4382 403.58 32.0377 405.644 26.3989 407.539C20.8396 409.366 15.3993 411.328 10.0782 413.426ZM21.7529 355.871C21.0381 355.871 20.5219 356.007 20.2042 356.277C21.1572 359.323 21.872 362.199 22.3485 364.906C22.825 367.612 23.0633 370.319 23.0633 373.026C23.1427 375.733 22.9839 378.508 22.5868 381.35C22.1897 384.192 21.6337 387.271 20.919 390.587C21.9514 390.519 22.8647 390.35 23.6589 390.079C24.4531 389.809 25.2473 389.504 26.0415 389.166C26.9151 388.828 27.7887 388.523 28.6623 388.252C29.6154 387.982 30.6875 387.812 31.8788 387.745C32.1965 387.203 32.5936 386.797 33.0701 386.527C33.6261 386.188 34.1026 385.85 34.4997 385.512C36.4851 384.835 38.4706 384.124 40.4561 383.38C42.4416 382.636 44.2682 381.79 45.936 380.842C47.6038 379.895 49.1128 378.812 50.4629 377.594C51.8131 376.376 52.9249 374.921 53.7985 373.229C53.1632 372.214 52.369 371.368 51.416 370.692C50.5424 369.947 49.5893 369.237 48.5569 368.56C47.6038 367.815 46.6508 367.071 45.6978 366.327C44.8242 365.515 44.1094 364.601 43.5535 363.586C42.2827 363.451 41.1709 363.18 40.2178 362.774C39.2648 362.3 38.3515 361.86 37.4779 361.454C36.6043 360.981 35.6512 360.541 34.6188 360.135C33.6658 359.729 32.5142 359.492 31.1641 359.424C29.0992 358.477 27.2328 357.834 25.565 357.496C23.8972 357.09 22.6265 356.548 21.7529 355.871Z" fill="#E81E61"/>
<path d="M135.521 355.161C135.6 355.635 135.6 356.007 135.521 356.277C135.521 356.48 135.481 356.683 135.402 356.887C135.402 357.09 135.402 357.326 135.402 357.597C135.402 357.8 135.481 358.138 135.64 358.612C133.972 360.913 132.026 362.503 129.803 363.383C127.658 364.195 125.316 364.804 122.774 365.21C120.233 365.548 117.612 365.921 114.912 366.327C112.291 366.733 109.67 367.612 107.049 368.966C106.017 368.628 105.064 368.628 104.19 368.966C103.396 369.304 102.205 369.406 100.616 369.27C100.14 369.676 99.544 369.981 98.8292 370.184C98.1145 370.319 97.3997 370.489 96.6849 370.692C97.0026 371.301 97.1217 371.943 97.0423 372.62C97.0423 373.229 97.1614 373.737 97.3997 374.143C100.179 374.346 103.237 374.312 106.573 374.041C109.988 373.771 113.323 373.601 116.579 373.534C116.659 373.872 116.619 374.109 116.46 374.244C116.301 374.312 116.262 374.481 116.341 374.752C116.897 375.09 117.453 375.53 118.009 376.071C118.565 376.545 119.121 377.019 119.677 377.493C120.233 377.966 120.789 378.372 121.345 378.711C121.98 378.981 122.695 379.083 123.489 379.015C123.807 379.557 124.005 380.166 124.085 380.842C124.243 381.451 124.164 382.094 123.846 382.771C122.576 383.515 121.305 384.294 120.034 385.106C118.763 385.85 117.413 386.527 115.984 387.136C114.634 387.745 113.164 388.252 111.576 388.658C110.067 388.997 108.36 389.132 106.453 389.064C106.056 389.064 105.739 389.064 105.5 389.064C105.342 389.064 105.103 388.963 104.786 388.76C104.15 389.098 103.237 389.2 102.046 389.064C100.934 388.929 100.06 389.031 99.4249 389.369C98.5513 389.031 97.4791 388.895 96.2084 388.963C95.0171 388.963 93.945 388.828 92.9919 388.557C91.7212 389.978 90.5696 391.501 89.5372 393.125C88.5047 394.749 87.5914 396.474 86.7972 398.302C89.4975 398.64 91.7212 398.775 93.4684 398.708C95.2951 398.64 97.0026 398.538 98.591 398.403C100.179 398.2 101.807 398.031 103.475 397.896C105.143 397.693 107.248 397.625 109.789 397.693C111.377 396.948 113.244 396.474 115.388 396.271C117.612 396.001 119.637 395.595 121.464 395.053C122.099 395.256 122.655 395.629 123.132 396.17C123.608 396.644 124.045 397.117 124.442 397.591C124.918 397.997 125.395 398.369 125.871 398.708C126.348 399.046 126.944 399.181 127.658 399.114C127.976 399.384 128.175 399.723 128.254 400.129C128.413 400.467 128.532 400.805 128.611 401.144C128.691 401.482 128.81 401.787 128.969 402.057C129.207 402.26 129.564 402.328 130.041 402.26C128.85 404.494 127.46 406.219 125.871 407.437C124.363 408.588 122.615 409.467 120.63 410.076C118.644 410.685 116.421 411.159 113.959 411.498C111.576 411.836 108.915 412.242 105.977 412.716C105.262 412.851 104.667 412.817 104.19 412.614C103.714 412.479 103.158 412.411 102.522 412.411C100.696 412.749 98.5116 413.054 95.9702 413.325C93.4287 413.595 90.8476 413.697 88.2268 413.629C85.6059 413.562 83.1042 413.257 80.7217 412.716C78.3391 412.242 76.3933 411.362 74.8843 410.076C74.249 409.603 73.8122 409.061 73.5739 408.452C73.4151 407.776 72.8989 407.268 72.0253 406.93C71.9458 406.05 71.787 405.069 71.5487 403.986C71.3105 402.903 71.0722 401.787 70.834 400.636C70.5957 399.418 70.3972 398.234 70.2383 397.083C70.1589 395.933 70.2383 394.884 70.4766 393.937C70.7148 392.922 71.1914 392.008 71.9061 391.196C72.7003 390.384 72.9783 389.504 72.74 388.557C73.1371 388.489 73.3754 388.32 73.4548 388.049C73.5342 387.711 73.8519 387.576 74.4078 387.643C74.8843 386.425 75.4006 385.275 75.9565 384.192C76.5124 383.109 77.0684 382.06 77.6243 381.045C78.2597 380.03 78.8553 379.015 79.4112 378C80.0466 376.917 80.6422 375.733 81.1982 374.447C80.0863 373.568 79.2524 372.62 78.6965 371.605C78.22 370.522 77.8626 369.473 77.6243 368.458C77.3861 367.376 77.1875 366.293 77.0287 365.21C76.8698 364.06 76.5919 362.909 76.1948 361.759C76.989 360.744 77.942 359.932 79.0539 359.323C80.2451 358.646 81.5159 358.105 82.866 357.699C84.2161 357.293 85.6854 356.954 87.2737 356.683C88.8621 356.413 90.5299 356.108 92.2772 355.77C95.4539 354.89 98.2733 354.213 100.735 353.74C103.277 353.266 105.739 352.894 108.121 352.623C110.583 352.285 113.125 351.98 115.746 351.71C118.366 351.439 121.345 351.033 124.68 350.492C125.395 351.101 126.07 351.405 126.705 351.405C127.023 350.796 127.38 350.627 127.778 350.898C128.254 351.101 128.453 350.898 128.373 350.289C129.167 351.439 130.16 352.42 131.351 353.232C132.622 353.977 134.012 354.62 135.521 355.161Z" fill="#E81E61"/>
<path d="M172.332 394.444C172.252 395.392 171.974 396.305 171.498 397.185C171.101 397.997 170.585 398.809 169.949 399.621C169.314 400.366 168.599 401.11 167.805 401.854C167.09 402.531 166.375 403.14 165.661 403.681C165.899 404.561 165.899 405.238 165.661 405.712C165.502 406.118 165.462 406.761 165.541 407.64C164.35 410.347 162.523 412.14 160.061 413.02C157.679 413.968 155.415 413.798 153.271 412.513C152.398 411.971 151.643 411.295 151.008 410.482C150.452 409.603 149.658 409.061 148.625 408.858C148.863 407.708 148.744 406.558 148.268 405.407C147.791 404.257 147.275 403.648 146.719 403.58C146.481 402.159 146.123 400.636 145.647 399.012C145.17 397.388 144.734 395.764 144.336 394.14C143.939 392.448 143.582 390.824 143.264 389.267C143.026 387.643 142.947 386.155 143.026 384.801C143.105 384.124 142.947 383.515 142.55 382.974C142.232 382.433 141.994 381.79 141.835 381.045C141.517 379.489 141.398 377.865 141.477 376.173C141.636 374.413 141.716 372.756 141.716 371.199C141.716 369.71 141.597 368.12 141.358 366.428C141.199 364.669 141.041 363.011 140.882 361.454C140.723 359.83 140.643 358.375 140.643 357.09C140.643 355.736 140.842 354.687 141.239 353.943C141.716 353.131 142.351 352.488 143.145 352.014C144.019 351.473 144.813 350.898 145.528 350.289C147.275 350.424 148.665 351.033 149.697 352.116C150.73 353.198 151.127 354.213 150.889 355.161C152.556 356.041 153.867 357.191 154.82 358.612C155.852 359.966 156.646 361.522 157.202 363.281C157.838 364.973 158.275 366.8 158.513 368.763C158.751 370.658 158.95 372.553 159.108 374.447C159.267 376.274 159.426 378.034 159.585 379.726C159.744 381.417 160.061 382.872 160.538 384.091C163.477 380.504 165.939 377.323 167.924 374.549C169.909 371.707 171.935 369 174 366.428C176.064 363.857 178.368 361.251 180.909 358.612C183.45 355.973 186.746 352.995 190.797 349.679C191.591 349.747 192.226 349.882 192.703 350.086C193.259 350.289 193.735 350.458 194.132 350.593C194.529 350.728 195.006 350.864 195.562 350.999C196.118 351.067 196.872 351.033 197.825 350.898C198.143 351.574 198.381 352.082 198.54 352.42C198.699 352.691 198.818 352.995 198.897 353.334C199.056 353.604 199.215 353.977 199.374 354.45C199.612 354.924 199.97 355.601 200.446 356.48C200.684 356.683 200.764 356.954 200.684 357.293C200.605 357.631 200.526 357.969 200.446 358.308C200.446 358.578 200.446 358.781 200.446 358.917C200.446 359.052 200.645 359.052 201.042 358.917C200.804 359.864 200.367 360.744 199.731 361.556C199.175 362.3 198.937 363.214 199.017 364.297C197.19 366.327 195.165 368.425 192.941 370.59C190.797 372.756 188.613 374.989 186.389 377.29C184.245 379.59 182.18 382.027 180.194 384.598C178.209 387.102 176.501 389.741 175.072 392.516C174.675 392.516 174.357 392.617 174.119 392.82C173.96 393.023 173.801 393.26 173.642 393.531C173.483 393.734 173.285 393.937 173.047 394.14C172.888 394.343 172.649 394.444 172.332 394.444Z" fill="#E81E61"/>
<path d="M258.343 355.161C258.422 355.635 258.422 356.007 258.343 356.277C258.343 356.48 258.303 356.683 258.224 356.887C258.224 357.09 258.224 357.326 258.224 357.597C258.224 357.8 258.303 358.138 258.462 358.612C256.794 360.913 254.848 362.503 252.625 363.383C250.48 364.195 248.137 364.804 245.596 365.21C243.055 365.548 240.434 365.921 237.733 366.327C235.113 366.733 232.492 367.612 229.871 368.966C228.839 368.628 227.886 368.628 227.012 368.966C226.218 369.304 225.026 369.406 223.438 369.27C222.962 369.676 222.366 369.981 221.651 370.184C220.936 370.319 220.222 370.489 219.507 370.692C219.824 371.301 219.944 371.943 219.864 372.62C219.864 373.229 219.983 373.737 220.222 374.143C223.001 374.346 226.059 374.312 229.394 374.041C232.81 373.771 236.145 373.601 239.401 373.534C239.481 373.872 239.441 374.109 239.282 374.244C239.123 374.312 239.084 374.481 239.163 374.752C239.719 375.09 240.275 375.53 240.831 376.071C241.387 376.545 241.943 377.019 242.499 377.493C243.055 377.966 243.611 378.372 244.166 378.711C244.802 378.981 245.517 379.083 246.311 379.015C246.628 379.557 246.827 380.166 246.906 380.842C247.065 381.451 246.986 382.094 246.668 382.771C245.397 383.515 244.127 384.294 242.856 385.106C241.585 385.85 240.235 386.527 238.806 387.136C237.456 387.745 235.986 388.252 234.398 388.658C232.889 388.997 231.181 389.132 229.275 389.064C228.878 389.064 228.561 389.064 228.322 389.064C228.163 389.064 227.925 388.963 227.608 388.76C226.972 389.098 226.059 389.2 224.868 389.064C223.756 388.929 222.882 389.031 222.247 389.369C221.373 389.031 220.301 388.895 219.03 388.963C217.839 388.963 216.767 388.828 215.814 388.557C214.543 389.978 213.392 391.501 212.359 393.125C211.327 394.749 210.413 396.474 209.619 398.302C212.319 398.64 214.543 398.775 216.29 398.708C218.117 398.64 219.824 398.538 221.413 398.403C223.001 398.2 224.629 398.031 226.297 397.896C227.965 397.693 230.07 397.625 232.611 397.693C234.199 396.948 236.066 396.474 238.21 396.271C240.434 396.001 242.459 395.595 244.286 395.053C244.921 395.256 245.477 395.629 245.953 396.17C246.43 396.644 246.867 397.117 247.264 397.591C247.74 397.997 248.217 398.369 248.693 398.708C249.17 399.046 249.766 399.181 250.48 399.114C250.798 399.384 250.997 399.723 251.076 400.129C251.235 400.467 251.354 400.805 251.433 401.144C251.513 401.482 251.632 401.787 251.791 402.057C252.029 402.26 252.386 402.328 252.863 402.26C251.672 404.494 250.282 406.219 248.693 407.437C247.184 408.588 245.437 409.467 243.452 410.076C241.466 410.685 239.242 411.159 236.78 411.498C234.398 411.836 231.737 412.242 228.799 412.716C228.084 412.851 227.488 412.817 227.012 412.614C226.535 412.479 225.979 412.411 225.344 412.411C223.517 412.749 221.333 413.054 218.792 413.325C216.251 413.595 213.669 413.697 211.049 413.629C208.428 413.562 205.926 413.257 203.544 412.716C201.161 412.242 199.215 411.362 197.706 410.076C197.071 409.603 196.634 409.061 196.396 408.452C196.237 407.776 195.721 407.268 194.847 406.93C194.768 406.05 194.609 405.069 194.371 403.986C194.132 402.903 193.894 401.787 193.656 400.636C193.418 399.418 193.219 398.234 193.06 397.083C192.981 395.933 193.06 394.884 193.298 393.937C193.537 392.922 194.013 392.008 194.728 391.196C195.522 390.384 195.8 389.504 195.562 388.557C195.959 388.489 196.197 388.32 196.277 388.049C196.356 387.711 196.674 387.576 197.23 387.643C197.706 386.425 198.222 385.275 198.778 384.192C199.334 383.109 199.89 382.06 200.446 381.045C201.082 380.03 201.677 379.015 202.233 378C202.868 376.917 203.464 375.733 204.02 374.447C202.908 373.568 202.074 372.62 201.518 371.605C201.042 370.522 200.684 369.473 200.446 368.458C200.208 367.376 200.009 366.293 199.851 365.21C199.692 364.06 199.414 362.909 199.017 361.759C199.811 360.744 200.764 359.932 201.876 359.323C203.067 358.646 204.338 358.105 205.688 357.699C207.038 357.293 208.507 356.954 210.096 356.683C211.684 356.413 213.352 356.108 215.099 355.77C218.276 354.89 221.095 354.213 223.557 353.74C226.099 353.266 228.561 352.894 230.943 352.623C233.405 352.285 235.947 351.98 238.567 351.71C241.188 351.439 244.166 351.033 247.502 350.492C248.217 351.101 248.892 351.405 249.527 351.405C249.845 350.796 250.202 350.627 250.599 350.898C251.076 351.101 251.274 350.898 251.195 350.289C251.989 351.439 252.982 352.42 254.173 353.232C255.444 353.977 256.834 354.62 258.343 355.161Z" fill="#E81E61"/>
<path d="M286.934 411.193C284.71 411.802 282.288 412.411 279.667 413.02C277.046 413.629 274.425 413.934 271.804 413.934C267.833 413.934 264.696 413.088 262.393 411.396C261.996 410.652 261.639 410.144 261.321 409.873C261.083 409.603 260.844 409.332 260.606 409.061C260.447 408.723 260.328 408.283 260.249 407.742C259.296 406.794 258.541 405.712 257.985 404.494C257.429 403.208 257.032 401.922 256.794 400.636C256.635 399.283 256.596 397.929 256.675 396.576C256.834 395.223 257.112 393.937 257.509 392.719C257.668 392.448 257.747 392.177 257.747 391.907C257.827 391.636 257.906 391.331 257.985 390.993C258.303 389.91 258.621 388.861 258.938 387.846C259.336 386.831 259.852 385.951 260.487 385.207C260.169 384.598 260.169 383.921 260.487 383.177C260.805 382.433 261.162 381.756 261.559 381.147C262.671 378.575 263.584 376.41 264.299 374.65C265.093 372.823 265.888 371.03 266.682 369.27C268.032 366.225 269.303 363.214 270.494 360.236C271.685 357.259 272.757 354.044 273.71 350.593C274.346 350.255 274.822 350.018 275.14 349.882C275.616 349.747 276.014 349.646 276.331 349.578C277.761 350.187 279.429 350.796 281.335 351.405C283.241 351.946 284.829 352.217 286.1 352.217C286.735 352.556 287.132 352.826 287.291 353.029C287.45 353.165 287.609 353.3 287.768 353.435C288.641 354.315 289.396 355.229 290.031 356.176C290.666 357.056 290.865 358.24 290.627 359.729C290.15 360.338 289.793 360.642 289.555 360.642C289.157 361.996 288.721 363.146 288.244 364.094C287.847 365.041 287.41 365.988 286.934 366.936C286.378 367.951 285.862 368.966 285.385 369.981C284.909 370.996 284.511 372.248 284.194 373.737C283.876 374.075 283.638 374.38 283.479 374.65C283.4 374.921 283.28 375.226 283.122 375.564C282.963 375.902 282.764 376.274 282.526 376.68C282.367 377.019 282.089 377.323 281.692 377.594C281.454 379.354 281.057 380.775 280.501 381.857C280.024 382.94 279.508 384.023 278.952 385.106C277.999 387.068 277.125 389.031 276.331 390.993C275.616 392.956 275.18 395.189 275.021 397.693C275.418 397.557 275.775 397.49 276.093 397.49C276.49 397.49 276.847 397.49 277.165 397.49C277.88 397.49 278.714 397.591 279.667 397.794C282.049 396.711 284.631 396.068 287.41 395.865C290.269 395.662 293.089 395.527 295.868 395.459C296.98 395.459 298.092 395.459 299.204 395.459C300.316 395.459 301.348 395.392 302.301 395.256C303.016 395.595 303.453 395.798 303.612 395.865C303.85 395.865 304.168 395.865 304.565 395.865C305.121 395.865 305.597 395.899 305.994 395.967C306.947 396.711 307.861 397.253 308.734 397.591C309.608 397.929 310.521 398.234 311.474 398.505C312.348 398.775 313.182 399.08 313.976 399.418C314.85 399.689 315.683 400.095 316.478 400.636L317.312 405.001C317.868 405.61 318.106 406.016 318.026 406.219C318.026 406.761 317.868 407.167 317.55 407.437L317.788 408.554C316.597 408.757 315.763 408.994 315.286 409.264C314.889 409.535 314.492 409.84 314.095 410.178C313.46 410.246 312.983 410.279 312.666 410.279C312.427 410.279 312.189 410.279 311.951 410.279C310.839 410.279 309.489 410.449 307.9 410.787C305.756 410.178 303.532 409.873 301.229 409.873C300.356 409.873 299.442 409.907 298.489 409.975C297.536 410.043 296.583 410.11 295.63 410.178C294.677 410.313 293.684 410.415 292.652 410.482C291.699 410.55 290.706 410.584 289.674 410.584L286.934 411.193Z" fill="#E81E61"/>
<path d="M389.98 381.857C389.901 382.669 389.98 383.448 390.218 384.192C390.457 384.936 390.735 385.681 391.052 386.425C391.449 387.102 391.807 387.812 392.125 388.557C392.442 389.301 392.68 390.046 392.839 390.79C392.998 391.737 392.998 392.786 392.839 393.937C392.68 395.019 392.402 396.102 392.005 397.185C391.608 398.2 391.092 399.147 390.457 400.027C389.821 400.839 389.067 401.448 388.193 401.854C387.081 403.072 385.731 404.02 384.143 404.697C382.554 405.373 381.085 406.185 379.735 407.133C378.861 407.606 377.869 407.945 376.757 408.148C375.724 408.351 374.652 408.554 373.54 408.757C372.667 409.163 371.634 409.603 370.443 410.076C369.252 410.482 368.021 410.888 366.75 411.295C365.479 411.633 364.209 411.904 362.938 412.107C361.667 412.242 360.555 412.276 359.602 412.208C357.22 412.952 354.877 413.426 352.574 413.629C350.35 413.9 347.729 413.765 344.711 413.223C341.852 413.562 339.192 413.46 336.73 412.919C334.347 412.377 332.203 411.531 330.297 410.381C328.47 409.163 326.842 407.742 325.412 406.118C324.062 404.426 322.95 402.666 322.077 400.839C321.441 396.982 321.6 393.497 322.553 390.384C323.506 387.203 324.856 384.294 326.604 381.654C328.43 378.947 330.495 376.477 332.798 374.244C335.101 371.943 337.325 369.71 339.47 367.545C339.946 367.68 340.303 367.68 340.542 367.545C340.859 367.342 341.137 367.105 341.376 366.834C341.614 366.496 341.852 366.191 342.09 365.921C342.408 365.65 342.765 365.481 343.163 365.413C343.718 364.398 344.513 363.654 345.545 363.18C346.657 362.639 347.531 361.894 348.166 360.947C348.881 360.811 349.476 360.608 349.953 360.338C350.429 360.067 350.866 359.763 351.263 359.424C351.74 359.086 352.216 358.781 352.693 358.511C353.169 358.172 353.725 357.935 354.361 357.8V356.683C355.79 356.142 356.823 355.533 357.458 354.856C358.173 354.112 359.007 353.232 359.96 352.217C360.674 352.149 361.23 352.116 361.628 352.116C362.104 352.116 362.779 352.048 363.653 351.913C364.288 350.965 364.844 350.255 365.321 349.781C365.876 349.307 366.671 348.8 367.703 348.258C368.656 348.664 369.689 348.935 370.8 349.07C371.992 349.206 373.024 349.646 373.898 350.39C373.977 351.067 374.215 351.608 374.613 352.014C375.01 352.353 375.446 352.691 375.923 353.029C376.399 353.3 376.836 353.604 377.233 353.943C377.71 354.281 378.028 354.755 378.186 355.364C378.504 355.432 378.703 355.398 378.782 355.262C378.941 355.127 379.179 355.093 379.497 355.161C379.735 356.108 380.013 356.751 380.331 357.09C380.648 357.36 380.966 357.935 381.284 358.815C380.887 359.492 380.569 360.202 380.331 360.947C380.172 361.624 379.695 362.131 378.901 362.469C378.822 362.943 378.981 363.214 379.378 363.281C379.775 363.281 380.013 363.451 380.092 363.789C380.172 364.398 380.053 364.838 379.735 365.109C381.641 367.748 383.349 370.556 384.858 373.534C386.367 376.444 388.074 379.218 389.98 381.857ZM375.089 391.501C375.407 390.756 375.804 390.147 376.28 389.673C376.836 389.2 377.154 388.489 377.233 387.542C376.836 387 376.598 386.594 376.519 386.324C376.439 385.985 376.399 385.478 376.399 384.801C374.652 382.703 373.143 380.47 371.873 378.102C370.602 375.665 369.172 373.398 367.584 371.301C367.425 371.571 367.147 371.842 366.75 372.113C366.353 372.383 365.916 372.316 365.44 371.91C365.281 372.451 365.003 372.857 364.606 373.128C364.209 373.331 363.772 373.432 363.295 373.432C362.819 373.365 362.303 373.263 361.747 373.128C361.27 372.925 360.833 372.688 360.436 372.417C358.133 373.974 355.83 375.496 353.527 376.985C351.224 378.474 349.159 380.199 347.332 382.162C347.014 382.297 346.816 382.365 346.736 382.365C346.657 382.297 346.419 382.331 346.022 382.466C345.386 383.752 344.592 384.936 343.639 386.019C342.765 387.034 341.892 388.083 341.018 389.166C340.145 390.249 339.39 391.399 338.755 392.617C338.119 393.835 337.762 395.256 337.683 396.88C339.033 397.828 340.621 398.403 342.448 398.606C344.274 398.809 346.141 398.843 348.047 398.708C350.032 398.572 351.938 398.369 353.765 398.099C355.671 397.76 357.418 397.591 359.007 397.591C362.342 396.914 365.201 396.035 367.584 394.952C369.967 393.801 372.468 392.651 375.089 391.501Z" fill="#E81E61"/>
<path d="M439.776 349.375C443.112 349.713 446.09 350.289 448.711 351.101C451.332 351.913 453.555 352.995 455.382 354.349C456.653 356.041 457.844 357.868 458.956 359.83C460.147 361.793 461.021 363.857 461.577 366.022C462.212 368.12 462.49 370.286 462.411 372.519C462.411 374.752 461.855 377.019 460.743 379.32C458.44 381.756 455.62 383.752 452.285 385.309C449.028 386.797 445.494 388.015 441.682 388.963C437.87 389.91 433.899 390.722 429.769 391.399C425.719 392.076 421.748 392.752 417.856 393.429C417.936 394.986 417.936 396.644 417.856 398.403C417.856 400.095 417.658 401.82 417.261 403.58C416.943 405.272 416.427 406.93 415.712 408.554C414.997 410.178 414.044 411.667 412.853 413.02C411.503 413.02 410.113 413.155 408.683 413.426C407.254 413.765 405.983 414.035 404.871 414.238C404.315 413.968 403.799 413.697 403.323 413.426C402.926 413.223 402.33 413.088 401.536 413.02C401.695 412.343 401.496 411.667 400.94 410.99C400.384 410.246 399.828 409.501 399.272 408.757C398.716 408.012 398.319 407.302 398.081 406.625C397.922 405.948 398.319 405.306 399.272 404.697C398.716 404.223 398.438 403.614 398.438 402.869C398.994 402.057 399.471 400.941 399.868 399.52C400.344 398.099 400.702 396.711 400.94 395.358C401.258 393.937 401.337 392.651 401.178 391.501C401.019 390.35 400.225 389.504 398.796 388.963C398.875 388.828 399.034 388.76 399.272 388.76C399.51 388.76 399.749 388.726 399.987 388.658C399.352 388.252 398.955 387.677 398.796 386.933C398.716 386.188 398.438 385.545 397.962 385.004C398.121 384.666 398.24 384.361 398.319 384.091C398.399 383.82 398.677 383.718 399.153 383.786C398.915 382.568 398.915 381.417 399.153 380.335C399.471 379.252 399.908 378.237 400.464 377.29C401.019 376.274 401.695 375.293 402.489 374.346C403.283 373.398 404.037 372.451 404.752 371.504C405.308 371.436 405.626 371.504 405.705 371.707C405.864 371.91 406.142 371.876 406.539 371.605C407.572 370.928 408.286 370.218 408.683 369.473C409.081 368.729 409.279 367.883 409.279 366.936C409.835 365.515 410.51 364.094 411.304 362.672C412.098 361.184 412.972 359.83 413.925 358.612C414.878 357.394 415.911 356.311 417.022 355.364C418.214 354.416 419.445 353.706 420.715 353.232C421.668 352.556 422.86 351.946 424.289 351.405C425.719 350.796 427.268 350.356 428.935 350.086C430.603 349.747 432.271 349.578 433.939 349.578C435.686 349.51 437.274 349.646 438.704 349.984C439.101 350.119 439.3 350.052 439.3 349.781C439.379 349.51 439.538 349.375 439.776 349.375ZM434.892 373.635C436.877 372.891 438.982 372.316 441.206 371.91C443.509 371.436 445.415 370.59 446.924 369.372C445.971 368.628 444.581 367.985 442.754 367.443C440.928 366.834 438.942 366.462 436.798 366.327C434.654 366.191 432.469 366.361 430.246 366.834C428.101 367.24 426.235 368.052 424.647 369.27C424.17 370.489 423.773 371.47 423.455 372.214C423.138 372.891 422.701 373.737 422.145 374.752C422.304 375.09 422.542 375.361 422.86 375.564C423.257 375.699 423.535 375.936 423.694 376.274C425.52 375.462 427.347 375.023 429.174 374.955C431.08 374.82 432.986 374.38 434.892 373.635Z" fill="#E81E61"/>
<path d="M541.274 410.482C540.48 410.821 539.725 411.125 539.01 411.396C538.375 411.667 537.621 411.802 536.747 411.802C533.65 409.84 532.021 406.422 531.863 401.55C531.783 396.677 533.014 390.485 535.556 382.974C535.953 382.771 536.151 382.365 536.151 381.756L535.079 380.741C534.761 380.741 534.444 380.775 534.126 380.842C533.888 380.91 533.689 381.147 533.53 381.553C531.466 382.839 529.202 384.192 526.74 385.613C524.278 386.967 521.697 388.252 518.997 389.47C516.376 390.621 513.676 391.568 510.896 392.313C508.196 393.057 505.535 393.429 502.914 393.429C496.243 393.429 491.24 390.553 487.904 384.801L486.951 383.278L485.998 384.598C485.76 384.869 485.402 385.444 484.926 386.324C484.449 387.136 483.973 388.083 483.496 389.166C483.02 390.249 482.583 391.365 482.186 392.516C481.868 393.598 481.749 394.546 481.829 395.358C481.114 395.967 480.359 396.677 479.565 397.49C478.771 398.302 478.175 399.215 477.778 400.23C477.619 400.772 477.699 401.279 478.016 401.753C477.858 402.362 477.5 402.836 476.944 403.174C476.627 403.512 476.269 403.851 475.872 404.189C475.554 404.46 475.276 404.764 475.038 405.103C474.879 405.441 474.76 405.779 474.681 406.118C474.681 406.456 474.641 406.794 474.562 407.133C474.562 407.606 474.482 408.046 474.323 408.452C472.973 410.821 471.901 412.343 471.107 413.02C470.313 413.765 469.241 414.137 467.89 414.137C467.255 414.137 466.223 414.035 464.793 413.832C463.761 412.885 462.808 411.599 461.934 409.975C461.14 408.283 460.504 406.49 460.028 404.595C459.631 402.7 459.432 400.805 459.432 398.911C459.512 396.948 459.909 395.256 460.624 393.835C460.624 393.768 460.941 393.091 461.577 391.805C462.212 390.519 463.006 388.861 463.959 386.831C464.992 384.801 466.143 382.568 467.414 380.132C468.685 377.628 469.955 375.226 471.226 372.925C472.497 370.556 473.688 368.391 474.8 366.428C475.991 364.466 476.984 362.977 477.778 361.962C478.414 361.15 478.969 360.405 479.446 359.729C480.002 358.984 480.518 358.274 480.995 357.597C482.424 355.499 483.774 353.774 485.045 352.42C486.395 350.999 488.341 349.882 490.882 349.07C492.63 349.679 493.9 350.39 494.694 351.202L494.933 352.319C495.25 352.995 495.727 353.334 496.362 353.334C497.236 353.537 497.951 353.74 498.507 353.943C499.142 354.078 499.817 354.213 500.532 354.349C501.088 354.89 501.604 355.533 502.08 356.277C502.716 357.09 503.311 357.902 503.867 358.714C504.503 359.458 504.979 360.236 505.297 361.048C505.694 361.793 505.893 362.571 505.893 363.383C505.972 364.195 505.813 365.041 505.416 365.921L505.535 366.936C505.932 367.545 506.012 368.391 505.773 369.473C505.694 369.947 505.654 370.455 505.654 370.996C505.654 371.47 505.734 372.011 505.893 372.62C507.322 373.568 508.593 374.041 509.705 374.041C510.975 374.041 512.127 373.804 513.159 373.331C514.271 372.789 515.304 372.248 516.257 371.707C516.892 371.301 517.527 370.962 518.163 370.692C518.798 370.353 519.434 370.15 520.069 370.082C521.498 368.932 522.769 367.917 523.881 367.037C525.072 366.158 526.303 365.278 527.574 364.398C529.957 362.774 532.26 361.014 534.483 359.12C536.707 357.225 538.494 354.856 539.844 352.014C540.638 351.608 541.472 351.405 542.346 351.405C543.22 351.405 544.133 351.574 545.086 351.913C546.039 352.251 546.952 352.589 547.826 352.928C548.064 353.063 548.263 353.165 548.422 353.232C548.66 353.3 548.858 353.368 549.017 353.435C549.017 354.112 549.335 354.687 549.97 355.161C550.288 355.364 550.486 355.499 550.566 355.567C550.645 355.635 550.764 355.702 550.923 355.77C552.115 356.311 552.869 356.853 553.187 357.394C553.743 358.95 554.735 360.135 556.165 360.947C556.006 361.624 556.006 362.266 556.165 362.875C556.403 363.417 556.681 363.992 556.999 364.601C557.078 364.804 557.158 365.007 557.237 365.21C557.317 365.413 557.436 365.65 557.594 365.921L555.331 365.718L555.688 367.646C555.847 368.594 555.728 369.643 555.331 370.793C555.013 371.943 554.616 372.857 554.14 373.534C554.219 375.293 554.259 376.68 554.259 377.696C554.338 378.643 554.299 379.557 554.14 380.436C553.981 381.248 553.743 382.027 553.425 382.771C553.187 383.515 552.829 384.327 552.353 385.207C552.67 389.538 552.075 393.497 550.566 397.083C549.136 400.602 547.627 403.918 546.039 407.031C545.88 407.37 545.682 407.708 545.443 408.046C545.285 408.385 545.126 408.723 544.967 409.061C544.252 409.264 543.617 409.501 543.061 409.772C542.505 409.975 541.909 410.212 541.274 410.482Z" fill="#E81E61"/>
<path d="M624.664 355.161C624.743 355.635 624.743 356.007 624.664 356.277C624.664 356.48 624.624 356.683 624.545 356.887C624.545 357.09 624.545 357.326 624.545 357.597C624.545 357.8 624.624 358.138 624.783 358.612C623.115 360.913 621.17 362.503 618.946 363.383C616.802 364.195 614.459 364.804 611.917 365.21C609.376 365.548 606.755 365.921 604.055 366.327C601.434 366.733 598.813 367.612 596.192 368.966C595.16 368.628 594.207 368.628 593.333 368.966C592.539 369.304 591.348 369.406 589.759 369.27C589.283 369.676 588.687 369.981 587.972 370.184C587.258 370.319 586.543 370.489 585.828 370.692C586.146 371.301 586.265 371.943 586.185 372.62C586.185 373.229 586.305 373.737 586.543 374.143C589.322 374.346 592.38 374.312 595.716 374.041C599.131 373.771 602.466 373.601 605.723 373.534C605.802 373.872 605.762 374.109 605.603 374.244C605.445 374.312 605.405 374.481 605.484 374.752C606.04 375.09 606.596 375.53 607.152 376.071C607.708 376.545 608.264 377.019 608.82 377.493C609.376 377.966 609.932 378.372 610.488 378.711C611.123 378.981 611.838 379.083 612.632 379.015C612.95 379.557 613.148 380.166 613.228 380.842C613.387 381.451 613.307 382.094 612.989 382.771C611.719 383.515 610.448 384.294 609.177 385.106C607.907 385.85 606.556 386.527 605.127 387.136C603.777 387.745 602.308 388.252 600.719 388.658C599.21 388.997 597.503 389.132 595.597 389.064C595.2 389.064 594.882 389.064 594.644 389.064C594.485 389.064 594.246 388.963 593.929 388.76C593.293 389.098 592.38 389.2 591.189 389.064C590.077 388.929 589.203 389.031 588.568 389.369C587.694 389.031 586.622 388.895 585.352 388.963C584.16 388.963 583.088 388.828 582.135 388.557C580.864 389.978 579.713 391.501 578.68 393.125C577.648 394.749 576.735 396.474 575.94 398.302C578.641 398.64 580.864 398.775 582.612 398.708C584.438 398.64 586.146 398.538 587.734 398.403C589.322 398.2 590.951 398.031 592.618 397.896C594.286 397.693 596.391 397.625 598.932 397.693C600.521 396.948 602.387 396.474 604.531 396.271C606.755 396.001 608.78 395.595 610.607 395.053C611.242 395.256 611.798 395.629 612.275 396.17C612.751 396.644 613.188 397.117 613.585 397.591C614.062 397.997 614.538 398.369 615.015 398.708C615.491 399.046 616.087 399.181 616.802 399.114C617.119 399.384 617.318 399.723 617.397 400.129C617.556 400.467 617.675 400.805 617.755 401.144C617.834 401.482 617.953 401.787 618.112 402.057C618.35 402.26 618.708 402.328 619.184 402.26C617.993 404.494 616.603 406.219 615.015 407.437C613.506 408.588 611.758 409.467 609.773 410.076C607.787 410.685 605.564 411.159 603.102 411.498C600.719 411.836 598.059 412.242 595.12 412.716C594.405 412.851 593.81 412.817 593.333 412.614C592.857 412.479 592.301 412.411 591.665 412.411C589.839 412.749 587.655 413.054 585.113 413.325C582.572 413.595 579.991 413.697 577.37 413.629C574.749 413.562 572.247 413.257 569.865 412.716C567.482 412.242 565.536 411.362 564.027 410.076C563.392 409.603 562.955 409.061 562.717 408.452C562.558 407.776 562.042 407.268 561.168 406.93C561.089 406.05 560.93 405.069 560.692 403.986C560.454 402.903 560.215 401.787 559.977 400.636C559.739 399.418 559.54 398.234 559.381 397.083C559.302 395.933 559.381 394.884 559.62 393.937C559.858 392.922 560.334 392.008 561.049 391.196C561.843 390.384 562.121 389.504 561.883 388.557C562.28 388.489 562.518 388.32 562.598 388.049C562.677 387.711 562.995 387.576 563.551 387.643C564.027 386.425 564.544 385.275 565.1 384.192C565.656 383.109 566.211 382.06 566.767 381.045C567.403 380.03 567.998 379.015 568.554 378C569.19 376.917 569.785 375.733 570.341 374.447C569.229 373.568 568.396 372.62 567.84 371.605C567.363 370.522 567.006 369.473 566.767 368.458C566.529 367.376 566.331 366.293 566.172 365.21C566.013 364.06 565.735 362.909 565.338 361.759C566.132 360.744 567.085 359.932 568.197 359.323C569.388 358.646 570.659 358.105 572.009 357.699C573.359 357.293 574.828 356.954 576.417 356.683C578.005 356.413 579.673 356.108 581.42 355.77C584.597 354.89 587.416 354.213 589.878 353.74C592.42 353.266 594.882 352.894 597.264 352.623C599.726 352.285 602.268 351.98 604.889 351.71C607.509 351.439 610.488 351.033 613.823 350.492C614.538 351.101 615.213 351.405 615.849 351.405C616.166 350.796 616.524 350.627 616.921 350.898C617.397 351.101 617.596 350.898 617.516 350.289C618.31 351.439 619.303 352.42 620.495 353.232C621.765 353.977 623.155 354.62 624.664 355.161Z" fill="#E81E61"/>
<path d="M646.226 393.835C645.512 393.971 644.995 394.343 644.678 394.952C644.36 395.493 644.042 396.068 643.725 396.677C643.486 397.286 643.208 397.862 642.891 398.403C642.652 398.877 642.255 399.114 641.699 399.114C641.62 399.655 641.382 400.129 640.985 400.535C640.667 400.941 640.349 401.381 640.032 401.854C639.714 402.26 639.476 402.734 639.317 403.275C639.158 403.749 639.237 404.324 639.555 405.001C638.92 405.407 638.523 405.982 638.364 406.727C638.205 407.471 638.006 408.182 637.768 408.858C637.609 409.535 637.292 410.11 636.815 410.584C636.339 411.058 635.465 411.261 634.194 411.193C633.956 411.464 633.916 411.633 634.075 411.701C634.234 411.768 634.353 412.005 634.433 412.411C633.559 412.276 632.884 412.31 632.407 412.513C632.01 412.783 631.494 412.952 630.859 413.02C629.35 412.614 628.079 411.904 627.047 410.888C626.094 409.873 625.22 408.757 624.426 407.539C623.711 406.253 623.036 404.967 622.401 403.681C621.845 402.396 621.289 401.279 620.733 400.332C620.971 399.587 621.011 398.877 620.852 398.2C620.693 397.456 620.415 396.847 620.018 396.373C623.91 389.335 628.158 381.824 632.765 373.838C637.371 365.853 641.739 357.969 645.869 350.187C647.696 350.796 649.483 351.507 651.23 352.319C653.056 353.063 654.685 353.943 656.114 354.958C657.623 355.973 658.894 357.157 659.926 358.511C660.959 359.796 661.634 361.251 661.951 362.875C661.793 363.281 661.594 363.451 661.356 363.383C661.197 363.248 661.038 363.281 660.879 363.485C661.197 363.823 661.356 364.06 661.356 364.195C661.435 364.33 661.435 364.466 661.356 364.601C661.356 364.736 661.356 364.939 661.356 365.21C661.356 365.413 661.475 365.718 661.713 366.124C661.395 366.056 661.157 366.09 660.998 366.225C660.919 366.361 660.681 366.361 660.284 366.225C660.601 366.97 660.681 367.579 660.522 368.052C660.442 368.526 660.284 368.966 660.045 369.372C659.807 369.71 659.609 370.116 659.45 370.59C659.291 370.996 659.331 371.537 659.569 372.214C659.331 372.214 659.132 372.282 658.973 372.417C658.894 372.485 658.814 372.586 658.735 372.722C658.655 372.789 658.536 372.891 658.378 373.026C658.298 373.094 658.139 373.094 657.901 373.026C658.139 374.515 658.219 376.004 658.139 377.493C658.06 378.981 657.98 380.504 657.901 382.06C657.901 383.549 657.941 385.139 658.02 386.831C658.1 388.455 658.378 390.147 658.854 391.907C661.713 390.485 663.977 388.658 665.644 386.425C667.392 384.192 668.781 381.688 669.814 378.914C670.926 376.139 671.76 373.162 672.316 369.981C672.872 366.8 673.467 363.552 674.103 360.236C674.817 359.627 675.373 358.883 675.77 358.003C676.167 357.123 676.525 356.21 676.842 355.262C677.16 354.247 677.478 353.266 677.796 352.319C678.113 351.304 678.51 350.39 678.987 349.578C680.178 349.713 681.171 350.052 681.965 350.593C682.839 351.067 683.633 351.608 684.348 352.217C685.062 352.759 685.817 353.3 686.611 353.841C687.405 354.315 688.398 354.62 689.589 354.755C690.542 355.905 691.416 357.022 692.21 358.105C693.004 359.187 693.521 360.338 693.759 361.556C693.362 362.097 693.044 362.706 692.806 363.383C692.647 364.06 692.448 364.736 692.21 365.413C691.972 366.09 691.654 366.733 691.257 367.342C690.86 367.883 690.304 368.357 689.589 368.763C689.351 370.522 689.033 372.146 688.636 373.635C688.319 375.056 687.961 376.477 687.564 377.899C687.246 379.32 686.968 380.808 686.73 382.365C686.492 383.854 686.412 385.512 686.492 387.339C685.857 388.895 685.181 390.553 684.467 392.313C683.752 394.072 683.196 395.662 682.799 397.083C681.528 397.963 680.535 399.012 679.821 400.23C679.106 401.448 678.351 402.666 677.557 403.884C677.24 404.155 677.041 404.223 676.962 404.087C676.882 403.952 676.604 403.851 676.128 403.783C676.207 404.054 676.207 404.257 676.128 404.392C676.048 404.527 675.929 404.663 675.77 404.798C675.691 404.866 675.611 405.001 675.532 405.204C675.532 405.407 675.611 405.678 675.77 406.016C674.658 406.422 673.666 406.997 672.792 407.742C671.918 408.486 670.965 409.163 669.933 409.772C668.98 410.381 667.789 410.787 666.359 410.99C665.009 411.193 663.222 410.956 660.998 410.279C657.742 408.249 654.843 405.915 652.302 403.275C649.84 400.636 647.815 397.49 646.226 393.835Z" fill="#E81E61"/>
<path d="M758.446 363.485C756.46 363.485 754.316 363.62 752.013 363.891C749.71 364.094 747.446 364.33 745.222 364.601C743.634 364.804 742.085 364.973 740.576 365.109C739.147 365.244 737.836 365.345 736.645 365.413C736.089 366.902 735.533 368.222 734.977 369.372C734.421 370.522 733.826 371.639 733.19 372.722C732.555 373.872 731.959 375.056 731.403 376.274C730.927 377.425 730.45 378.677 729.974 380.03C729.18 381.113 728.505 382.128 727.949 383.075C727.472 383.955 727.075 384.97 726.757 386.121C725.804 387.136 725.09 388.218 724.613 389.369C724.137 390.452 723.779 391.399 723.541 392.211L723.064 393.429C722.588 393.835 722.31 394.174 722.231 394.444C722.151 394.647 721.953 394.85 721.635 395.053C721.556 395.798 721.278 396.542 720.801 397.286C720.642 397.625 720.523 397.963 720.444 398.302C720.364 398.572 720.325 398.775 720.325 398.911C720.325 399.587 720.126 400.027 719.729 400.23C719.808 400.569 719.808 400.941 719.729 401.347C719.649 401.685 719.57 402.024 719.491 402.362C719.252 403.174 719.173 403.817 719.252 404.291C719.491 404.561 719.689 404.798 719.848 405.001C720.086 405.204 720.245 405.475 720.325 405.813C720.801 406.084 721.158 406.253 721.397 406.321C721.714 406.524 722.191 406.761 722.826 407.031L723.898 408.046C724.295 410.009 723.938 411.565 722.826 412.716C721.635 414.001 719.61 414.644 716.751 414.644H715.321C714.924 414.306 714.686 414.035 714.606 413.832C713.971 413.629 713.455 413.46 713.058 413.325C712.661 413.189 712.303 412.919 711.985 412.513C710.953 412.107 710.119 411.768 709.484 411.498L708.412 410.99C708.412 410.246 708.412 409.84 708.412 409.772C707.856 409.163 707.419 408.486 707.101 407.742C706.863 406.997 706.664 406.253 706.506 405.509C706.347 404.9 706.148 404.324 705.91 403.783C705.751 403.242 705.513 402.768 705.195 402.362C705.036 398.437 705.473 395.121 706.506 392.414C707.538 389.707 708.61 387.102 709.722 384.598C710.357 383.245 710.993 381.891 711.628 380.538C712.263 379.117 712.819 377.662 713.296 376.173L714.368 375.158C714.924 374.075 715.361 373.195 715.678 372.519C716.076 371.774 716.473 371.03 716.87 370.286C717.108 369.812 717.307 369.372 717.465 368.966C717.704 368.492 717.902 368.086 718.061 367.748C717.585 367.748 717.148 367.782 716.751 367.849C716.354 367.849 715.956 367.883 715.559 367.951C715.083 368.019 714.646 368.086 714.249 368.154C713.852 368.154 713.455 368.154 713.058 368.154C712.502 368.154 712.105 368.12 711.866 368.052C710.993 368.391 710.04 368.56 709.007 368.56H707.816C707.578 368.56 707.339 368.56 707.101 368.56C706.942 368.492 706.784 368.458 706.625 368.458C705.831 368.458 705.195 368.56 704.719 368.763C703.766 368.763 702.852 368.763 701.979 368.763H700.787C700.629 368.763 700.43 368.797 700.192 368.864C699.953 368.864 699.755 368.864 699.596 368.864C699.04 368.864 698.445 368.831 697.809 368.763C697.174 368.628 696.499 368.391 695.784 368.052C694.831 366.97 694.196 366.394 693.878 366.327L692.806 365.109C692.726 364.703 692.607 364.33 692.448 363.992C692.29 363.586 692.131 363.146 691.972 362.672C691.654 361.996 691.336 361.285 691.019 360.541C690.781 359.729 690.661 358.781 690.661 357.699C690.741 357.157 690.9 356.751 691.138 356.48C691.376 356.21 691.575 355.973 691.734 355.77L692.091 354.247L693.64 354.349H696.975C699.517 354.349 702.098 354.281 704.719 354.146C707.339 353.943 710.04 353.74 712.819 353.537C714.408 353.401 715.996 353.266 717.585 353.131C719.252 352.995 720.96 352.86 722.707 352.725C723.025 352.116 723.342 351.54 723.66 350.999L724.851 350.492C726.281 350.424 727.274 350.593 727.83 350.999C728.465 351.337 728.981 351.676 729.378 352.014C731.126 351.879 732.873 351.743 734.62 351.608C736.447 351.405 738.273 351.168 740.1 350.898C742.8 350.559 745.5 350.255 748.201 349.984C750.98 349.713 753.641 349.578 756.182 349.578C757.294 349.578 758.366 349.612 759.399 349.679C760.431 349.747 761.384 349.849 762.258 349.984L763.449 350.695C763.687 351.101 764.005 351.473 764.402 351.811C764.879 352.149 765.355 352.488 765.832 352.826C766.785 353.571 767.738 354.45 768.691 355.465C769.644 356.48 770.001 357.969 769.763 359.932C769.128 360.744 768.651 361.217 768.333 361.353L767.261 362.571L766.07 362.469C765.593 362.469 765.157 362.537 764.76 362.672C764.362 362.74 763.965 362.842 763.568 362.977C763.251 363.112 762.933 363.248 762.615 363.383C762.298 363.451 761.94 363.518 761.543 363.586C760.828 363.586 760.233 363.586 759.756 363.586C759.359 363.518 758.922 363.485 758.446 363.485Z" fill="#E81E61"/>
<defs>
<linearGradient id="paint0_linear_592_318" x1="309.473" y1="51.0171" x2="309.473" y2="439.073" gradientUnits="userSpaceOnUse">
<stop stop-color="#2B2347" stop-opacity="0.81"/>
<stop offset="1" stop-color="#212132"/>
</linearGradient>
<linearGradient id="paint1_linear_592_318" x1="372.5" y1="0" x2="372.5" y2="492" gradientUnits="userSpaceOnUse">
<stop stop-color="#2B2347" stop-opacity="0.81"/>
<stop offset="1" stop-color="#212132"/>
</linearGradient>
</defs>
</svg>
