<svg width="632" height="74" viewBox="0 0 632 74" fill="none" xmlns="http://www.w3.org/2000/svg">
<path d="M8.10824 72.5283C6.21958 72.0806 4.75423 71.3451 3.71221 70.3218C2.73531 69.2345 1.98636 67.9873 1.46535 66.5802C1.00946 65.1092 0.683828 63.5103 0.488448 61.7834C0.358195 60.0565 0.195379 58.2657 0 56.4109C0.260506 55.5795 0.586138 54.8759 0.976897 54.3003C1.43278 53.7247 1.62816 52.9252 1.56303 51.9019C2.27943 49.8552 2.93069 47.8725 3.51683 45.9538C4.10297 44.0351 4.49373 42.0524 4.6891 40.0057C5.07986 39.4301 5.47062 39.0463 5.86138 38.8545C6.38239 35.2089 6.44752 31.4673 6.05676 27.6298C5.666 23.7924 5.01474 20.2427 4.10297 16.9808C4.16809 16.2773 4.26578 15.7656 4.39604 15.4458C4.52629 15.0621 4.52629 14.7423 4.39604 14.4865C4.26578 13.9109 4.46116 13.623 4.98217 13.623C5.50319 13.623 6.0242 13.623 6.54521 13.623C6.54521 12.4718 6.31727 11.3525 5.86138 10.2653C5.47062 9.11401 5.07986 7.80287 4.6891 6.33184C5.21012 5.1806 5.56831 4.06133 5.76369 2.97405C5.95907 1.88676 6.31727 0.895411 6.83828 0C8.92232 0.63958 10.9738 1.3751 12.9927 2.20655C15.0116 3.038 16.998 3.86946 18.9518 4.70091C20.9056 5.46841 22.8268 6.2359 24.7155 7.0034C26.6042 7.70693 28.4603 8.28256 30.2838 8.73026C33.0842 10.713 35.9498 12.6957 38.8805 14.6784C41.8763 16.5971 44.5791 18.7397 46.9887 21.1061C49.4635 23.4086 51.515 26.0629 53.1432 29.0689C54.7713 32.0749 55.7157 35.6246 55.9762 39.7179C55.8459 40.1016 55.7482 40.4214 55.6831 40.6773C55.618 40.9331 55.5529 41.1889 55.4877 41.4448C55.4226 41.7006 55.39 41.9884 55.39 42.3082C55.39 42.628 55.39 43.0757 55.39 43.6513C53.0455 47.6807 50.0822 51.0704 46.5003 53.8206C42.9183 56.5708 39.0107 59.0012 34.7775 61.1118C30.5443 63.2224 26.1157 65.1732 21.4917 66.964C16.9329 68.6909 12.4717 70.5456 8.10824 72.5283ZM17.6818 18.1321C17.0957 18.1321 16.6724 18.26 16.4119 18.5158C17.1934 21.3939 17.7795 24.1122 18.1703 26.6705C18.561 29.2288 18.7564 31.7871 18.7564 34.3454C18.8215 36.9037 18.6913 39.526 18.3657 42.2123C18.04 44.8985 17.5841 47.8086 16.998 50.9425C17.8446 50.8786 18.5936 50.7187 19.2449 50.4628C19.8961 50.207 20.5474 49.9192 21.1987 49.5994C21.9151 49.2796 22.6314 48.9918 23.3478 48.736C24.1294 48.4801 25.0086 48.3202 25.9855 48.2563C26.246 47.7446 26.5716 47.3609 26.9624 47.105C27.4182 46.7853 27.809 46.4655 28.1346 46.1457C29.7628 45.5061 31.3909 44.8345 33.0191 44.131C34.6473 43.4275 36.1452 42.628 37.5128 41.7326C38.8805 40.8372 40.1179 39.8138 41.225 38.6626C42.3322 37.5113 43.244 36.1362 43.9604 34.5373C43.4393 33.5779 42.7881 32.7785 42.0066 32.1389C41.2902 31.4353 40.5087 30.7638 39.662 30.1242C38.8805 29.4207 38.099 28.7171 37.3175 28.0136C36.6011 27.2461 36.0149 26.3827 35.559 25.4233C34.517 25.2954 33.6052 25.0395 32.8237 24.6558C32.0422 24.2081 31.2933 23.7924 30.5769 23.4086C29.8605 22.9609 29.079 22.5452 28.2323 22.1614C27.4508 21.7777 26.5065 21.5538 25.3993 21.4899C23.706 20.5945 22.1756 19.9869 20.8079 19.6671C19.4402 19.2833 18.3982 18.7717 17.6818 18.1321Z" fill="#9747FF"/>
<path d="M110.975 17.4605C111.041 17.9082 111.041 18.26 110.975 18.5158C110.975 18.7077 110.943 18.8996 110.878 19.0915C110.878 19.2833 110.878 19.5072 110.878 19.763C110.878 19.9549 110.943 20.2747 111.073 20.7224C109.706 22.897 108.11 24.4 106.286 25.2314C104.528 25.9989 102.607 26.5745 100.523 26.9583C98.4386 27.2781 96.2895 27.6298 94.0752 28.0136C91.926 28.3973 89.7768 29.2288 87.6276 30.5079C86.781 30.1882 85.9995 30.1882 85.2831 30.5079C84.6318 30.8277 83.6549 30.9237 82.3524 30.7958C81.9616 31.1795 81.4732 31.4673 80.8871 31.6592C80.3009 31.7871 79.7148 31.947 79.1286 32.1389C79.3891 32.7145 79.4868 33.3221 79.4217 33.9617C79.4217 34.5373 79.5194 35.017 79.7148 35.4007C81.9942 35.5926 84.5016 35.5606 87.2369 35.3048C90.0373 35.049 92.7726 34.8891 95.4428 34.8251C95.5079 35.1449 95.4754 35.3688 95.3451 35.4967C95.2149 35.5606 95.1823 35.7205 95.2474 35.9764C95.7033 36.2961 96.1592 36.7119 96.6151 37.2235C97.071 37.6712 97.5269 38.1189 97.9827 38.5667C98.4386 39.0144 98.8945 39.3981 99.3504 39.7179C99.8714 39.9737 100.458 40.0697 101.109 40.0057C101.369 40.5174 101.532 41.093 101.597 41.7326C101.728 42.3082 101.662 42.9158 101.402 43.5554C100.36 44.2589 99.3178 44.9944 98.2758 45.7619C97.2338 46.4655 96.1266 47.105 94.9544 47.6807C93.8472 48.2563 92.6424 48.736 91.3398 49.1197C90.1024 49.4395 88.7022 49.5674 87.1392 49.5035C86.8136 49.5035 86.5531 49.5035 86.3577 49.5035C86.2274 49.5035 86.032 49.4075 85.7715 49.2157C85.2505 49.5354 84.5016 49.6314 83.5247 49.5035C82.6129 49.3755 81.8965 49.4715 81.3755 49.7913C80.6591 49.4715 79.7799 49.3436 78.7379 49.4075C77.761 49.4075 76.8818 49.2796 76.1003 49.0238C75.0582 50.3669 74.1139 51.806 73.2673 53.3409C72.4206 54.8759 71.6717 56.5069 71.0204 58.2337C73.2347 58.5535 75.0582 58.6814 76.491 58.6175C77.9889 58.5535 79.3891 58.4576 80.6917 58.3297C81.9942 58.1378 83.3293 57.9779 84.697 57.85C86.0646 57.6581 87.7905 57.5941 89.8745 57.6581C91.177 56.9546 92.7075 56.5069 94.4659 56.315C96.2895 56.0592 97.9502 55.6754 99.4481 55.1637C99.9691 55.3556 100.425 55.7074 100.816 56.219C101.207 56.6668 101.565 57.1145 101.89 57.5622C102.281 57.9459 102.672 58.2977 103.063 58.6175C103.453 58.9373 103.942 59.0652 104.528 59.0012C104.788 59.2571 104.951 59.5768 105.016 59.9606C105.147 60.2804 105.244 60.6002 105.309 60.92C105.375 61.2397 105.472 61.5276 105.603 61.7834C105.798 61.9753 106.091 62.0392 106.482 61.9753C105.505 64.0859 104.365 65.7168 103.063 66.8681C101.825 67.9553 100.392 68.7868 98.7643 69.3624C97.1361 69.938 95.3126 70.3857 93.2936 70.7055C91.3398 71.0253 89.1581 71.4091 86.7484 71.8568C86.1623 71.9847 85.6738 71.9527 85.2831 71.7608C84.8923 71.6329 84.4364 71.569 83.9154 71.569C82.4175 71.8888 80.6265 72.1766 78.5425 72.4324C76.4585 72.6882 74.3418 72.7842 72.1927 72.7202C70.0435 72.6562 67.992 72.3684 66.0382 71.8568C64.0844 71.4091 62.4888 70.5776 61.2514 69.3624C60.7304 68.9147 60.3722 68.403 60.1768 67.8274C60.0466 67.1878 59.6233 66.7082 58.9069 66.3884C58.8417 65.5569 58.7115 64.6295 58.5161 63.6062C58.3207 62.5829 58.1254 61.5276 57.93 60.4403C57.7346 59.289 57.5718 58.1698 57.4415 57.0825C57.3764 55.9952 57.4415 55.0038 57.6369 54.1084C57.8323 53.1491 58.223 52.2856 58.8092 51.5181C59.4605 50.7506 59.6884 49.9192 59.493 49.0238C59.8186 48.9598 60.014 48.7999 60.0792 48.5441C60.1443 48.2243 60.4048 48.0964 60.8607 48.1603C61.2514 47.0091 61.6747 45.9218 62.1306 44.8985C62.5865 43.8752 63.0424 42.8838 63.4983 41.9244C64.0193 40.9651 64.5078 40.0057 64.9636 39.0463C65.4846 38.023 65.9731 36.9037 66.429 35.6885C65.5172 34.8571 64.8334 33.9617 64.3775 33.0023C63.9867 31.979 63.6937 30.9876 63.4983 30.0283C63.3029 29.0049 63.1401 27.9816 63.0098 26.9583C62.8796 25.871 62.6516 24.7837 62.326 23.6964C62.9773 22.7371 63.7588 21.9696 64.6706 21.3939C65.6475 20.7544 66.6895 20.2427 67.7966 19.8589C68.9038 19.4752 70.1086 19.1554 71.4112 18.8996C72.7137 18.6437 74.0813 18.3559 75.5141 18.0361C78.1192 17.2047 80.4312 16.5651 82.4501 16.1174C84.5341 15.6697 86.5531 15.3179 88.5068 15.0621C90.5258 14.7423 92.6098 14.4545 94.759 14.1987C96.9082 13.9428 99.3504 13.5591 102.086 13.0474C102.672 13.623 103.225 13.9109 103.746 13.9109C104.007 13.3352 104.3 13.1753 104.626 13.4312C105.016 13.623 105.179 13.4312 105.114 12.8556C105.765 13.9428 106.579 14.8702 107.556 15.6377C108.598 16.3413 109.738 16.9489 110.975 17.4605Z" fill="#9747FF"/>
<path d="M141.162 54.5881C141.096 55.4835 140.869 56.347 140.478 57.1784C140.152 57.9459 139.729 58.7134 139.208 59.4809C138.687 60.1844 138.101 60.888 137.449 61.5915C136.863 62.2311 136.277 62.8067 135.691 63.3184C135.886 64.1498 135.886 64.7894 135.691 65.2371C135.561 65.6209 135.528 66.2285 135.593 67.0599C134.616 69.6182 133.118 71.3131 131.1 72.1446C129.146 73.04 127.29 72.8801 125.531 71.6649C124.815 71.1532 124.196 70.5137 123.675 69.7462C123.219 68.9147 122.568 68.403 121.721 68.2112C121.917 67.1239 121.819 66.0366 121.428 64.9493C121.038 63.862 120.614 63.2864 120.158 63.2224C119.963 61.8793 119.67 60.4403 119.279 58.9053C118.888 57.3703 118.53 55.8353 118.205 54.3003C117.879 52.7014 117.586 51.1664 117.325 49.6953C117.13 48.1603 117.065 46.7533 117.13 45.4741C117.195 44.8345 117.065 44.2589 116.739 43.7472C116.479 43.2356 116.283 42.628 116.153 41.9244C115.893 40.4534 115.795 38.9184 115.86 37.3195C115.99 35.6566 116.055 34.0896 116.055 32.6186C116.055 31.2115 115.958 29.7085 115.762 28.1095C115.632 26.4466 115.502 24.8796 115.372 23.4086C115.241 21.8736 115.176 20.4985 115.176 19.2833C115.176 18.0042 115.339 17.0128 115.665 16.3093C116.055 15.5418 116.576 14.9342 117.228 14.4865C117.944 13.9748 118.595 13.4312 119.181 12.8556C120.614 12.9835 121.754 13.5591 122.601 14.5824C123.447 15.6057 123.773 16.5651 123.577 17.4605C124.945 18.292 126.02 19.3793 126.801 20.7224C127.648 22.0015 128.299 23.4726 128.755 25.1355C129.276 26.7344 129.634 28.4613 129.83 30.3161C130.025 32.1069 130.188 33.8977 130.318 35.6885C130.448 37.4154 130.579 39.0783 130.709 40.6773C130.839 42.2762 131.1 43.6513 131.49 44.8026C133.9 41.4128 135.919 38.4068 137.547 35.7845C139.175 33.0982 140.836 30.5399 142.529 28.1095C144.223 25.6791 146.111 23.2167 148.195 20.7224C150.279 18.228 152.982 15.4139 156.303 12.2799C156.955 12.3439 157.476 12.4718 157.867 12.6637C158.322 12.8556 158.713 13.0154 159.039 13.1434C159.364 13.2713 159.755 13.3992 160.211 13.5271C160.667 13.5911 161.286 13.5591 162.067 13.4312C162.328 14.0708 162.523 14.5504 162.653 14.8702C162.784 15.1261 162.881 15.4139 162.946 15.7337C163.077 15.9895 163.207 16.3413 163.337 16.789C163.533 17.2367 163.826 17.8763 164.216 18.7077C164.412 18.8996 164.477 19.1554 164.412 19.4752C164.347 19.795 164.281 20.1148 164.216 20.4346C164.216 20.6904 164.216 20.8823 164.216 21.0102C164.216 21.1381 164.379 21.1381 164.705 21.0102C164.509 21.9056 164.151 22.7371 163.63 23.5046C163.174 24.2081 162.979 25.0715 163.044 26.0948C161.546 28.0136 159.885 29.9963 158.062 32.0429C156.303 34.0896 154.513 36.2002 152.689 38.3748C150.931 40.5493 149.237 42.8518 147.609 45.2822C145.981 47.6487 144.581 50.143 143.408 52.7653C143.083 52.7653 142.822 52.8613 142.627 53.0531C142.497 53.245 142.366 53.4689 142.236 53.7247C142.106 53.9166 141.943 54.1084 141.748 54.3003C141.617 54.4922 141.422 54.5881 141.162 54.5881Z" fill="#9747FF"/>
<path d="M211.694 17.4605C211.759 17.9082 211.759 18.26 211.694 18.5158C211.694 18.7077 211.661 18.8996 211.596 19.0915C211.596 19.2833 211.596 19.5072 211.596 19.763C211.596 19.9549 211.661 20.2747 211.791 20.7224C210.424 22.897 208.828 24.4 207.004 25.2314C205.246 25.9989 203.325 26.5745 201.241 26.9583C199.157 27.2781 197.008 27.6298 194.793 28.0136C192.644 28.3973 190.495 29.2288 188.346 30.5079C187.499 30.1882 186.718 30.1882 186.001 30.5079C185.35 30.8277 184.373 30.9237 183.07 30.7958C182.68 31.1795 182.191 31.4673 181.605 31.6592C181.019 31.7871 180.433 31.947 179.847 32.1389C180.107 32.7145 180.205 33.3221 180.14 33.9617C180.14 34.5373 180.237 35.017 180.433 35.4007C182.712 35.5926 185.22 35.5606 187.955 35.3048C190.755 35.049 193.491 34.8891 196.161 34.8251C196.226 35.1449 196.193 35.3688 196.063 35.4967C195.933 35.5606 195.9 35.7205 195.965 35.9764C196.421 36.2961 196.877 36.7119 197.333 37.2235C197.789 37.6712 198.245 38.1189 198.701 38.5667C199.157 39.0144 199.613 39.3981 200.068 39.7179C200.589 39.9737 201.176 40.0697 201.827 40.0057C202.087 40.5174 202.25 41.093 202.315 41.7326C202.446 42.3082 202.38 42.9158 202.12 43.5554C201.078 44.2589 200.036 44.9944 198.994 45.7619C197.952 46.4655 196.845 47.105 195.672 47.6807C194.565 48.2563 193.36 48.736 192.058 49.1197C190.821 49.4395 189.42 49.5674 187.857 49.5035C187.532 49.5035 187.271 49.5035 187.076 49.5035C186.945 49.5035 186.75 49.4075 186.49 49.2157C185.969 49.5354 185.22 49.6314 184.243 49.5035C183.331 49.3755 182.615 49.4715 182.094 49.7913C181.377 49.4715 180.498 49.3436 179.456 49.4075C178.479 49.4075 177.6 49.2796 176.818 49.0238C175.776 50.3669 174.832 51.806 173.985 53.3409C173.139 54.8759 172.39 56.5069 171.738 58.2337C173.953 58.5535 175.776 58.6814 177.209 58.6175C178.707 58.5535 180.107 58.4576 181.41 58.3297C182.712 58.1378 184.047 57.9779 185.415 57.85C186.783 57.6581 188.509 57.5941 190.593 57.6581C191.895 56.9546 193.426 56.5069 195.184 56.315C197.008 56.0592 198.668 55.6754 200.166 55.1637C200.687 55.3556 201.143 55.7074 201.534 56.219C201.925 56.6668 202.283 57.1145 202.608 57.5622C202.999 57.9459 203.39 58.2977 203.781 58.6175C204.171 58.9373 204.66 59.0652 205.246 59.0012C205.507 59.2571 205.669 59.5768 205.734 59.9606C205.865 60.2804 205.962 60.6002 206.028 60.92C206.093 61.2397 206.19 61.5276 206.321 61.7834C206.516 61.9753 206.809 62.0392 207.2 61.9753C206.223 64.0859 205.083 65.7168 203.781 66.8681C202.543 67.9553 201.11 68.7868 199.482 69.3624C197.854 69.938 196.031 70.3857 194.012 70.7055C192.058 71.0253 189.876 71.4091 187.466 71.8568C186.88 71.9847 186.392 71.9527 186.001 71.7608C185.61 71.6329 185.155 71.569 184.633 71.569C183.136 71.8888 181.345 72.1766 179.261 72.4324C177.177 72.6882 175.06 72.7842 172.911 72.7202C170.762 72.6562 168.71 72.3684 166.756 71.8568C164.802 71.4091 163.207 70.5776 161.969 69.3624C161.448 68.9147 161.09 68.403 160.895 67.8274C160.765 67.1878 160.341 66.7082 159.625 66.3884C159.56 65.5569 159.43 64.6295 159.234 63.6062C159.039 62.5829 158.843 61.5276 158.648 60.4403C158.453 59.289 158.29 58.1698 158.16 57.0825C158.094 55.9952 158.16 55.0038 158.355 54.1084C158.55 53.1491 158.941 52.2856 159.527 51.5181C160.179 50.7506 160.406 49.9192 160.211 49.0238C160.537 48.9598 160.732 48.7999 160.797 48.5441C160.862 48.2243 161.123 48.0964 161.579 48.1603C161.969 47.0091 162.393 45.9218 162.849 44.8985C163.305 43.8752 163.76 42.8838 164.216 41.9244C164.737 40.9651 165.226 40.0057 165.682 39.0463C166.203 38.023 166.691 36.9037 167.147 35.6885C166.235 34.8571 165.551 33.9617 165.096 33.0023C164.705 31.979 164.412 30.9876 164.216 30.0283C164.021 29.0049 163.858 27.9816 163.728 26.9583C163.598 25.871 163.37 24.7837 163.044 23.6964C163.695 22.7371 164.477 21.9696 165.389 21.3939C166.366 20.7544 167.408 20.2427 168.515 19.8589C169.622 19.4752 170.827 19.1554 172.129 18.8996C173.432 18.6437 174.799 18.3559 176.232 18.0361C178.837 17.2047 181.149 16.5651 183.168 16.1174C185.252 15.6697 187.271 15.3179 189.225 15.0621C191.244 14.7423 193.328 14.4545 195.477 14.1987C197.626 13.9428 200.068 13.5591 202.804 13.0474C203.39 13.623 203.943 13.9109 204.464 13.9109C204.725 13.3352 205.018 13.1753 205.344 13.4312C205.734 13.623 205.897 13.4312 205.832 12.8556C206.483 13.9428 207.297 14.8702 208.274 15.6377C209.316 16.3413 210.456 16.9489 211.694 17.4605Z" fill="#9747FF"/>
<path d="M235.139 70.4177C233.316 70.9933 231.329 71.569 229.18 72.1446C227.031 72.7202 224.882 73.008 222.732 73.008C219.476 73.008 216.904 72.2085 215.015 70.6096C214.689 69.9061 214.396 69.4264 214.136 69.1705C213.94 68.9147 213.745 68.6589 213.55 68.403C213.419 68.0833 213.322 67.6675 213.257 67.1559C212.475 66.2604 211.856 65.2371 211.4 64.0859C210.945 62.8707 210.619 61.6555 210.424 60.4403C210.293 59.1611 210.261 57.882 210.326 56.6028C210.456 55.3236 210.684 54.1084 211.01 52.9572C211.14 52.7014 211.205 52.4455 211.205 52.1897C211.27 51.9339 211.335 51.6461 211.4 51.3263C211.661 50.3029 211.921 49.3116 212.182 48.3522C212.508 47.3929 212.931 46.5614 213.452 45.8579C213.191 45.2822 213.191 44.6427 213.452 43.9391C213.712 43.2356 214.006 42.596 214.331 42.0204C215.243 39.59 215.992 37.5433 216.578 35.8804C217.229 34.1536 217.881 32.4587 218.532 30.7958C219.639 27.9177 220.681 25.0715 221.658 22.2574C222.635 19.4432 223.514 16.4052 224.295 13.1434C224.817 12.8236 225.207 12.5997 225.468 12.4718C225.859 12.3439 226.184 12.2479 226.445 12.184C227.617 12.7596 228.985 13.3352 230.548 13.9109C232.111 14.4225 233.413 14.6784 234.455 14.6784C234.976 14.9981 235.302 15.254 235.432 15.4458C235.562 15.5738 235.693 15.7017 235.823 15.8296C236.539 16.661 237.158 17.5245 237.679 18.4199C238.2 19.2513 238.363 20.3706 238.167 21.7777C237.777 22.3533 237.484 22.6411 237.288 22.6411C236.963 23.9203 236.604 25.0076 236.214 25.903C235.888 26.7984 235.53 27.6938 235.139 28.5892C234.683 29.5486 234.26 30.5079 233.869 31.4673C233.478 32.4267 233.153 33.6099 232.892 35.017C232.632 35.3368 232.436 35.6246 232.306 35.8804C232.241 36.1362 232.143 36.4241 232.013 36.7438C231.883 37.0636 231.72 37.4154 231.525 37.7992C231.394 38.1189 231.166 38.4068 230.841 38.6626C230.645 40.3255 230.32 41.6686 229.864 42.6919C229.473 43.7153 229.05 44.7386 228.594 45.7619C227.812 47.6167 227.096 49.4715 226.445 51.3263C225.859 53.181 225.5 55.2917 225.37 57.6581C225.696 57.5302 225.989 57.4662 226.249 57.4662C226.575 57.4662 226.868 57.4662 227.129 57.4662C227.715 57.4662 228.398 57.5622 229.18 57.754C231.134 56.7307 233.25 56.1231 235.53 55.9312C237.874 55.7394 240.186 55.6114 242.466 55.5475C243.378 55.5475 244.289 55.5475 245.201 55.5475C246.113 55.5475 246.96 55.4835 247.741 55.3556C248.327 55.6754 248.685 55.8673 248.816 55.9312C249.011 55.9312 249.271 55.9312 249.597 55.9312C250.053 55.9312 250.444 55.9632 250.769 56.0272C251.551 56.7307 252.3 57.2424 253.016 57.5622C253.733 57.882 254.482 58.1698 255.263 58.4256C255.98 58.6814 256.663 58.9692 257.315 59.289C258.031 59.5449 258.715 59.9286 259.366 60.4403L260.05 64.5656C260.506 65.1412 260.701 65.5249 260.636 65.7168C260.636 66.2285 260.506 66.6122 260.245 66.8681L260.441 67.9234C259.464 68.1152 258.78 68.3391 258.389 68.5949C258.064 68.8507 257.738 69.1386 257.412 69.4583C256.891 69.5223 256.501 69.5543 256.24 69.5543C256.045 69.5543 255.849 69.5543 255.654 69.5543C254.742 69.5543 253.635 69.7142 252.332 70.034C250.574 69.4583 248.75 69.1705 246.862 69.1705C246.145 69.1705 245.396 69.2025 244.615 69.2665C243.833 69.3304 243.052 69.3944 242.27 69.4583C241.489 69.5863 240.675 69.6822 239.828 69.7462C239.047 69.8101 238.233 69.8421 237.386 69.8421L235.139 70.4177Z" fill="#9747FF"/>
<path d="M319.641 42.6919C319.575 43.4594 319.641 44.195 319.836 44.8985C320.031 45.602 320.259 46.3056 320.52 47.0091C320.845 47.6487 321.139 48.3202 321.399 49.0238C321.66 49.7273 321.855 50.4309 321.985 51.1344C322.115 52.0298 322.115 53.0212 321.985 54.1084C321.855 55.1318 321.627 56.1551 321.301 57.1784C320.976 58.1378 320.552 59.0332 320.031 59.8647C319.51 60.6321 318.892 61.2078 318.175 61.5915C317.264 62.7428 316.156 63.6382 314.854 64.2778C313.551 64.9173 312.346 65.6848 311.239 66.5802C310.523 67.0279 309.709 67.3477 308.797 67.5396C307.95 67.7315 307.071 67.9234 306.159 68.1152C305.443 68.499 304.596 68.9147 303.62 69.3624C302.643 69.7462 301.633 70.1299 300.591 70.5137C299.549 70.8334 298.507 71.0893 297.465 71.2811C296.423 71.4091 295.511 71.441 294.73 71.3771C292.776 72.0806 290.855 72.5283 288.966 72.7202C287.143 72.976 284.993 72.8481 282.519 72.3365C280.174 72.6562 277.992 72.5603 275.973 72.0486C274.02 71.537 272.261 70.7375 270.698 69.6502C269.2 68.499 267.865 67.1559 266.693 65.6209C265.586 64.0219 264.674 62.359 263.958 60.6321C263.436 56.9865 263.567 53.6927 264.348 50.7506C265.13 47.7446 266.237 44.9944 267.67 42.5001C269.168 39.9417 270.861 37.6073 272.75 35.4967C274.638 33.3221 276.462 31.2115 278.22 29.1648C278.611 29.2927 278.904 29.2927 279.099 29.1648C279.36 28.973 279.588 28.7491 279.783 28.4933C279.979 28.1735 280.174 27.8857 280.369 27.6298C280.63 27.374 280.923 27.2141 281.249 27.1502C281.704 26.1908 282.356 25.4872 283.202 25.0395C284.114 24.5279 284.831 23.8243 285.352 22.9289C285.938 22.801 286.426 22.6091 286.817 22.3533C287.208 22.0975 287.566 21.8097 287.891 21.4899C288.282 21.1701 288.673 20.8823 289.064 20.6264C289.455 20.3067 289.91 20.0828 290.431 19.9549V18.8996C291.604 18.3879 292.45 17.8123 292.971 17.1727C293.557 16.4692 294.241 15.6377 295.023 14.6784C295.609 14.6144 296.065 14.5824 296.39 14.5824C296.781 14.5824 297.335 14.5185 298.051 14.3905C298.572 13.4951 299.028 12.8236 299.419 12.3759C299.875 11.9282 300.526 11.4485 301.373 10.9368C302.154 11.3206 303.001 11.5764 303.913 11.7043C304.889 11.8322 305.736 12.2479 306.453 12.9515C306.518 13.5911 306.713 14.1027 307.039 14.4865C307.364 14.8063 307.722 15.1261 308.113 15.4458C308.504 15.7017 308.862 15.9895 309.188 16.3093C309.579 16.6291 309.839 17.0768 309.969 17.6524C310.23 17.7164 310.393 17.6844 310.458 17.5565C310.588 17.4285 310.783 17.3966 311.044 17.4605C311.239 18.3559 311.467 18.9635 311.728 19.2833C311.988 19.5392 312.249 20.0828 312.509 20.9143C312.184 21.5538 311.923 22.2254 311.728 22.9289C311.598 23.5685 311.207 24.0482 310.555 24.368C310.49 24.8157 310.621 25.0715 310.946 25.1355C311.272 25.1355 311.467 25.2954 311.532 25.6152C311.598 26.1908 311.5 26.6065 311.239 26.8623C312.802 29.3567 314.203 32.011 315.44 34.8251C316.677 37.5753 318.078 40.1976 319.641 42.6919ZM307.429 51.806C307.69 51.1024 308.016 50.5268 308.406 50.0791C308.862 49.6314 309.123 48.9598 309.188 48.0644C308.862 47.5527 308.667 47.169 308.602 46.9132C308.537 46.5934 308.504 46.1137 308.504 45.4741C307.071 43.4914 305.834 41.3808 304.792 39.1423C303.75 36.8398 302.577 34.6972 301.275 32.7145C301.145 32.9703 300.917 33.2262 300.591 33.482C300.266 33.7378 299.907 33.6739 299.517 33.2901C299.386 33.8018 299.158 34.1855 298.833 34.4414C298.507 34.6332 298.149 34.7292 297.758 34.7292C297.367 34.6652 296.944 34.5693 296.488 34.4414C296.097 34.2495 295.739 34.0256 295.414 33.7698C293.525 35.2408 291.636 36.6799 289.748 38.087C287.859 39.494 286.166 41.125 284.668 42.9798C284.407 43.1077 284.244 43.1716 284.179 43.1716C284.114 43.1077 283.919 43.1396 283.593 43.2676C283.072 44.4828 282.421 45.602 281.639 46.6254C280.923 47.5847 280.207 48.5761 279.49 49.5994C278.774 50.6227 278.155 51.71 277.634 52.8613C277.113 54.0125 276.82 55.3556 276.755 56.8906C277.862 57.786 279.165 58.3297 280.662 58.5215C282.16 58.7134 283.691 58.7454 285.254 58.6175C286.882 58.4896 288.445 58.2977 289.943 58.0419C291.506 57.7221 292.939 57.5622 294.241 57.5622C296.977 56.9226 299.321 56.0911 301.275 55.0678C303.229 53.9805 305.28 52.8932 307.429 51.806Z" fill="#9747FF"/>
<path d="M360.475 11.9921C363.21 12.3119 365.652 12.8556 367.802 13.623C369.951 14.3905 371.774 15.4139 373.272 16.693C374.314 18.292 375.291 20.0188 376.203 21.8736C377.18 23.7284 377.896 25.6791 378.352 27.7258C378.873 29.7085 379.101 31.7551 379.036 33.8657C379.036 35.9764 378.58 38.1189 377.668 40.2935C375.78 42.596 373.468 44.4828 370.732 45.9538C368.062 47.3609 365.164 48.5121 362.038 49.4075C358.912 50.3029 355.656 51.0704 352.269 51.71C348.948 52.3496 345.691 52.9892 342.5 53.6288C342.565 55.0998 342.565 56.6668 342.5 58.3297C342.5 59.9286 342.337 61.5595 342.012 63.2224C341.751 64.8214 341.328 66.3884 340.742 67.9234C340.155 69.4583 339.374 70.8654 338.397 72.1446C337.29 72.1446 336.15 72.2725 334.978 72.5283C333.806 72.8481 332.764 73.104 331.852 73.2958C331.396 73.04 330.973 72.7842 330.582 72.5283C330.256 72.3365 329.768 72.2085 329.117 72.1446C329.247 71.505 329.084 70.8654 328.628 70.2258C328.172 69.5223 327.716 68.8188 327.26 68.1152C326.805 67.4117 326.479 66.7401 326.284 66.1006C326.153 65.461 326.479 64.8534 327.26 64.2778C326.805 63.83 326.577 63.2544 326.577 62.5509C327.032 61.7834 327.423 60.7281 327.749 59.385C328.14 58.0419 328.433 56.7307 328.628 55.4516C328.889 54.1084 328.954 52.8932 328.823 51.806C328.693 50.7187 328.042 49.9192 326.87 49.4075C326.935 49.2796 327.065 49.2157 327.26 49.2157C327.456 49.2157 327.651 49.1837 327.847 49.1197C327.326 48.736 327 48.1923 326.87 47.4888C326.805 46.7853 326.577 46.1776 326.186 45.666C326.316 45.3462 326.414 45.0584 326.479 44.8026C326.544 44.5467 326.772 44.4508 327.163 44.5147C326.967 43.3635 326.967 42.2762 327.163 41.2529C327.423 40.2296 327.781 39.2702 328.237 38.3748C328.693 37.4154 329.247 36.488 329.898 35.5926C330.549 34.6972 331.168 33.8018 331.754 32.9064C332.21 32.8424 332.471 32.9064 332.536 33.0982C332.666 33.2901 332.894 33.2581 333.219 33.0023C334.066 32.3627 334.652 31.6912 334.978 30.9876C335.304 30.2841 335.466 29.4846 335.466 28.5892C335.922 27.2461 336.476 25.903 337.127 24.5599C337.778 23.1528 338.495 21.8736 339.276 20.7224C340.058 19.5711 340.904 18.5478 341.816 17.6524C342.793 16.757 343.803 16.0854 344.845 15.6377C345.626 14.9981 346.603 14.4225 347.775 13.9109C348.948 13.3352 350.217 12.9195 351.585 12.6637C352.953 12.3439 354.32 12.184 355.688 12.184C357.121 12.12 358.423 12.2479 359.596 12.5677C359.921 12.6957 360.084 12.6317 360.084 12.3759C360.149 12.12 360.28 11.9921 360.475 11.9921ZM356.47 34.921C358.098 34.2175 359.824 33.6739 361.647 33.2901C363.536 32.8424 365.099 32.0429 366.336 30.8917C365.555 30.1882 364.415 29.5806 362.917 29.0689C361.419 28.4933 359.791 28.1415 358.033 28.0136C356.274 27.8857 354.483 28.0456 352.66 28.4933C350.901 28.877 349.371 29.6445 348.068 30.7958C347.678 31.947 347.352 32.8744 347.091 33.5779C346.831 34.2175 346.473 35.017 346.017 35.9764C346.147 36.2961 346.342 36.552 346.603 36.7438C346.929 36.8718 347.157 37.0956 347.287 37.4154C348.785 36.6479 350.283 36.2322 351.781 36.1682C353.344 36.0403 354.907 35.6246 356.47 34.921Z" fill="#9747FF"/>
<path d="M443.707 69.7462C443.055 70.0659 442.437 70.3538 441.85 70.6096C441.329 70.8654 440.711 70.9933 439.994 70.9933C437.454 69.1386 436.119 65.9087 435.989 61.3037C435.924 56.6987 436.933 50.8466 439.017 43.7472C439.343 43.5554 439.506 43.1716 439.506 42.596L438.627 41.6366C438.366 41.6366 438.106 41.6686 437.845 41.7326C437.65 41.7965 437.487 42.0204 437.357 42.4041C435.663 43.6193 433.807 44.8985 431.788 46.2416C429.769 47.5208 427.653 48.736 425.439 49.8872C423.289 50.9745 421.075 51.8699 418.796 52.5734C416.581 53.277 414.4 53.6288 412.25 53.6288C406.78 53.6288 402.677 50.9105 399.942 45.4741L399.16 44.0351L398.379 45.2822C398.183 45.5381 397.89 46.0817 397.499 46.9132C397.109 47.6807 396.718 48.5761 396.327 49.5994C395.936 50.6227 395.578 51.678 395.252 52.7653C394.992 53.7886 394.894 54.6841 394.959 55.4516C394.373 56.0272 393.755 56.6987 393.103 57.4662C392.452 58.2337 391.964 59.0972 391.638 60.0565C391.508 60.5682 391.573 61.0479 391.833 61.4956C391.703 62.0712 391.41 62.5189 390.954 62.8387C390.694 63.1585 390.401 63.4783 390.075 63.7981C389.814 64.0539 389.586 64.3417 389.391 64.6615C389.261 64.9813 389.163 65.3011 389.098 65.6209C389.098 65.9407 389.065 66.2604 389 66.5802C389 67.0279 388.935 67.4437 388.805 67.8274C387.698 70.0659 386.819 71.505 386.167 72.1446C385.516 72.8481 384.637 73.1999 383.53 73.1999C383.009 73.1999 382.162 73.104 380.99 72.9121C380.143 72.0167 379.362 70.8015 378.645 69.2665C377.994 67.6675 377.473 65.9726 377.082 64.1818C376.757 62.391 376.594 60.6002 376.594 58.8093C376.659 56.9546 376.984 55.3556 377.571 54.0125C377.571 53.9485 377.831 53.309 378.352 52.0938C378.873 50.8786 379.524 49.3116 380.306 47.3929C381.153 45.4741 382.097 43.3635 383.139 41.061C384.181 38.6946 385.223 36.4241 386.265 34.2495C387.307 32.011 388.284 29.9643 389.196 28.1095C390.173 26.2547 390.987 24.8477 391.638 23.8883C392.159 23.1208 392.615 22.4173 393.006 21.7777C393.461 21.0741 393.885 20.4026 394.276 19.763C395.448 17.7803 396.555 16.1494 397.597 14.8702C398.704 13.5271 400.3 12.4718 402.384 11.7043C403.817 12.2799 404.859 12.9515 405.51 13.719L405.705 14.7743C405.966 15.4139 406.356 15.7337 406.878 15.7337C407.594 15.9255 408.18 16.1174 408.636 16.3093C409.157 16.4372 409.711 16.5651 410.297 16.693C410.753 17.2047 411.176 17.8123 411.567 18.5158C412.088 19.2833 412.576 20.0508 413.032 20.8183C413.553 21.5219 413.944 22.2574 414.204 23.0249C414.53 23.7284 414.693 24.4639 414.693 25.2314C414.758 25.9989 414.628 26.7984 414.302 27.6298L414.4 28.5892C414.725 29.1648 414.79 29.9643 414.595 30.9876C414.53 31.4353 414.497 31.915 414.497 32.4267C414.497 32.8744 414.562 33.3861 414.693 33.9617C415.865 34.8571 416.907 35.3048 417.819 35.3048C418.861 35.3048 419.805 35.0809 420.652 34.6332C421.564 34.1216 422.41 33.6099 423.192 33.0982C423.713 32.7145 424.234 32.3947 424.755 32.1389C425.276 31.8191 425.797 31.6272 426.318 31.5633C427.49 30.476 428.532 29.5166 429.444 28.6851C430.421 27.8537 431.43 27.0222 432.472 26.1908C434.426 24.6558 436.315 22.9929 438.138 21.2021C439.962 19.4112 441.427 17.1727 442.534 14.4865C443.186 14.1027 443.869 13.9109 444.586 13.9109C445.302 13.9109 446.051 14.0708 446.833 14.3905C447.614 14.7103 448.363 15.0301 449.079 15.3499C449.275 15.4778 449.438 15.5738 449.568 15.6377C449.763 15.7017 449.926 15.7656 450.056 15.8296C450.056 16.4692 450.317 17.0128 450.838 17.4605C451.098 17.6524 451.261 17.7803 451.326 17.8443C451.391 17.9082 451.489 17.9722 451.619 18.0361C452.596 18.5478 453.215 19.0595 453.475 19.5711C453.931 21.0422 454.745 22.1614 455.918 22.9289C455.787 23.5685 455.787 24.1761 455.918 24.7517C456.113 25.2634 456.341 25.807 456.602 26.3827C456.667 26.5745 456.732 26.7664 456.797 26.9583C456.862 27.1502 456.96 27.374 457.09 27.6298L455.234 27.438L455.527 29.2608C455.657 30.1562 455.56 31.1475 455.234 32.2348C454.973 33.3221 454.648 34.1855 454.257 34.8251C454.322 36.488 454.355 37.7992 454.355 38.7585C454.42 39.6539 454.387 40.5174 454.257 41.3488C454.127 42.1163 453.931 42.8518 453.671 43.5554C453.475 44.2589 453.182 45.0264 452.792 45.8579C453.052 49.9512 452.564 53.6927 451.326 57.0825C450.154 60.4083 448.917 63.5422 447.614 66.4843C447.484 66.8041 447.321 67.1239 447.126 67.4437C446.995 67.7635 446.865 68.0833 446.735 68.403C446.149 68.5949 445.628 68.8188 445.172 69.0746C444.716 69.2665 444.228 69.4903 443.707 69.7462Z" fill="#9747FF"/>
<path d="M512.089 17.4605C512.154 17.9082 512.154 18.26 512.089 18.5158C512.089 18.7077 512.057 18.8996 511.992 19.0915C511.992 19.2833 511.992 19.5072 511.992 19.763C511.992 19.9549 512.057 20.2747 512.187 20.7224C510.819 22.897 509.224 24.4 507.4 25.2314C505.642 25.9989 503.721 26.5745 501.636 26.9583C499.552 27.2781 497.403 27.6298 495.189 28.0136C493.04 28.3973 490.891 29.2288 488.741 30.5079C487.895 30.1882 487.113 30.1882 486.397 30.5079C485.746 30.8277 484.769 30.9237 483.466 30.7958C483.075 31.1795 482.587 31.4673 482.001 31.6592C481.415 31.7871 480.829 31.947 480.242 32.1389C480.503 32.7145 480.601 33.3221 480.536 33.9617C480.536 34.5373 480.633 35.017 480.829 35.4007C483.108 35.5926 485.615 35.5606 488.351 35.3048C491.151 35.049 493.886 34.8891 496.557 34.8251C496.622 35.1449 496.589 35.3688 496.459 35.4967C496.329 35.5606 496.296 35.7205 496.361 35.9764C496.817 36.2961 497.273 36.7119 497.729 37.2235C498.185 37.6712 498.641 38.1189 499.097 38.5667C499.552 39.0144 500.008 39.3981 500.464 39.7179C500.985 39.9737 501.571 40.0697 502.223 40.0057C502.483 40.5174 502.646 41.093 502.711 41.7326C502.841 42.3082 502.776 42.9158 502.516 43.5554C501.474 44.2589 500.432 44.9944 499.39 45.7619C498.348 46.4655 497.24 47.105 496.068 47.6807C494.961 48.2563 493.756 48.736 492.454 49.1197C491.216 49.4395 489.816 49.5674 488.253 49.5035C487.927 49.5035 487.667 49.5035 487.471 49.5035C487.341 49.5035 487.146 49.4075 486.885 49.2157C486.364 49.5354 485.615 49.6314 484.638 49.5035C483.727 49.3755 483.01 49.4715 482.489 49.7913C481.773 49.4715 480.894 49.3436 479.852 49.4075C478.875 49.4075 477.996 49.2796 477.214 49.0238C476.172 50.3669 475.228 51.806 474.381 53.3409C473.534 54.8759 472.785 56.5069 472.134 58.2337C474.349 58.5535 476.172 58.6814 477.605 58.6175C479.103 58.5535 480.503 58.4576 481.805 58.3297C483.108 58.1378 484.443 57.9779 485.811 57.85C487.178 57.6581 488.904 57.5941 490.988 57.6581C492.291 56.9546 493.821 56.5069 495.58 56.315C497.403 56.0592 499.064 55.6754 500.562 55.1637C501.083 55.3556 501.539 55.7074 501.93 56.219C502.32 56.6668 502.679 57.1145 503.004 57.5622C503.395 57.9459 503.786 58.2977 504.176 58.6175C504.567 58.9373 505.056 59.0652 505.642 59.0012C505.902 59.2571 506.065 59.5768 506.13 59.9606C506.26 60.2804 506.358 60.6002 506.423 60.92C506.488 61.2397 506.586 61.5276 506.716 61.7834C506.912 61.9753 507.205 62.0392 507.596 61.9753C506.619 64.0859 505.479 65.7168 504.176 66.8681C502.939 67.9553 501.506 68.7868 499.878 69.3624C498.25 69.938 496.426 70.3857 494.407 70.7055C492.454 71.0253 490.272 71.4091 487.862 71.8568C487.276 71.9847 486.788 71.9527 486.397 71.7608C486.006 71.6329 485.55 71.569 485.029 71.569C483.531 71.8888 481.74 72.1766 479.656 72.4324C477.572 72.6882 475.456 72.7842 473.306 72.7202C471.157 72.6562 469.106 72.3684 467.152 71.8568C465.198 71.4091 463.603 70.5776 462.365 69.3624C461.844 68.9147 461.486 68.403 461.291 67.8274C461.16 67.1878 460.737 66.7082 460.021 66.3884C459.956 65.5569 459.825 64.6295 459.63 63.6062C459.435 62.5829 459.239 61.5276 459.044 60.4403C458.848 59.289 458.686 58.1698 458.555 57.0825C458.49 55.9952 458.555 55.0038 458.751 54.1084C458.946 53.1491 459.337 52.2856 459.923 51.5181C460.574 50.7506 460.802 49.9192 460.607 49.0238C460.932 48.9598 461.128 48.7999 461.193 48.5441C461.258 48.2243 461.519 48.0964 461.974 48.1603C462.365 47.0091 462.789 45.9218 463.244 44.8985C463.7 43.8752 464.156 42.8838 464.612 41.9244C465.133 40.9651 465.622 40.0057 466.077 39.0463C466.598 38.023 467.087 36.9037 467.543 35.6885C466.631 34.8571 465.947 33.9617 465.491 33.0023C465.101 31.979 464.807 30.9876 464.612 30.0283C464.417 29.0049 464.254 27.9816 464.124 26.9583C463.993 25.871 463.765 24.7837 463.44 23.6964C464.091 22.7371 464.873 21.9696 465.784 21.3939C466.761 20.7544 467.803 20.2427 468.91 19.8589C470.018 19.4752 471.222 19.1554 472.525 18.8996C473.827 18.6437 475.195 18.3559 476.628 18.0361C479.233 17.2047 481.545 16.5651 483.564 16.1174C485.648 15.6697 487.667 15.3179 489.621 15.0621C491.64 14.7423 493.724 14.4545 495.873 14.1987C498.022 13.9428 500.464 13.5591 503.2 13.0474C503.786 13.623 504.339 13.9109 504.86 13.9109C505.121 13.3352 505.414 13.1753 505.739 13.4312C506.13 13.623 506.293 13.4312 506.228 12.8556C506.879 13.9428 507.693 14.8702 508.67 15.6377C509.712 16.3413 510.852 16.9489 512.089 17.4605Z" fill="#9747FF"/>
<path d="M529.771 54.0125C529.185 54.1404 528.762 54.4922 528.501 55.0678C528.241 55.5795 527.98 56.1231 527.72 56.6987C527.524 57.2744 527.296 57.818 527.036 58.3297C526.84 58.7774 526.515 59.0012 526.059 59.0012C525.994 59.5129 525.798 59.9606 525.473 60.3443C525.212 60.7281 524.952 61.1438 524.691 61.5915C524.431 61.9753 524.235 62.423 524.105 62.9346C523.975 63.3823 524.04 63.926 524.3 64.5656C523.779 64.9493 523.454 65.493 523.324 66.1965C523.193 66.9 523.031 67.5716 522.835 68.2112C522.705 68.8507 522.444 69.3944 522.054 69.8421C521.663 70.2898 520.946 70.4817 519.904 70.4177C519.709 70.6735 519.677 70.8334 519.807 70.8974C519.937 70.9614 520.035 71.1852 520.1 71.569C519.383 71.441 518.83 71.473 518.439 71.6649C518.113 71.9207 517.69 72.0806 517.169 72.1446C515.932 71.7608 514.89 71.0893 514.043 70.1299C513.262 69.1705 512.545 68.1152 511.894 66.964C511.308 65.7488 510.754 64.5336 510.233 63.3184C509.777 62.1032 509.321 61.0479 508.866 60.1525C509.061 59.4489 509.093 58.7774 508.963 58.1378C508.833 57.4343 508.605 56.8586 508.279 56.4109C511.471 49.7593 514.955 42.66 518.732 35.1129C522.51 27.5659 526.091 20.1148 529.478 12.7596C530.976 13.3352 532.441 14.0068 533.874 14.7743C535.372 15.4778 536.707 16.3093 537.879 17.2687C539.117 18.228 540.159 19.3473 541.005 20.6264C541.852 21.8416 542.406 23.2167 542.666 24.7517C542.536 25.1355 542.373 25.2954 542.178 25.2314C542.047 25.1035 541.917 25.1355 541.787 25.3274C542.047 25.6471 542.178 25.871 542.178 25.9989C542.243 26.1268 542.243 26.2547 542.178 26.3827C542.178 26.5106 542.178 26.7024 542.178 26.9583C542.178 27.1502 542.275 27.438 542.471 27.8217C542.21 27.7578 542.015 27.7897 541.885 27.9177C541.82 28.0456 541.624 28.0456 541.299 27.9177C541.559 28.6212 541.624 29.1968 541.494 29.6445C541.429 30.0922 541.299 30.5079 541.103 30.8917C540.908 31.2115 540.745 31.5952 540.615 32.0429C540.484 32.4267 540.517 32.9384 540.712 33.5779C540.517 33.5779 540.354 33.6419 540.224 33.7698C540.159 33.8338 540.094 33.9297 540.029 34.0576C539.963 34.1216 539.866 34.2175 539.735 34.3454C539.67 34.4094 539.54 34.4094 539.345 34.3454C539.54 35.7525 539.605 37.1596 539.54 38.5667C539.475 39.9737 539.41 41.4128 539.345 42.8838C539.345 44.2909 539.377 45.7939 539.442 47.3929C539.508 48.9278 539.735 50.5268 540.126 52.1897C542.471 50.8466 544.327 49.1197 545.695 47.0091C547.127 44.8985 548.267 42.532 549.114 39.9098C550.025 37.2875 550.709 34.4733 551.165 31.4673C551.621 28.4613 552.109 25.3913 552.631 22.2574C553.217 21.6817 553.673 20.9782 553.998 20.1468C554.324 19.3153 554.617 18.4519 554.877 17.5565C555.138 16.5971 555.398 15.6697 555.659 14.7743C555.919 13.8149 556.245 12.9515 556.636 12.184C557.613 12.3119 558.427 12.6317 559.078 13.1434C559.794 13.5911 560.446 14.1027 561.032 14.6784C561.618 15.19 562.237 15.7017 562.888 16.2133C563.539 16.661 564.353 16.9489 565.33 17.0768C566.112 18.1641 566.828 19.2194 567.479 20.2427C568.131 21.266 568.554 22.3533 568.749 23.5046C568.424 24.0162 568.163 24.5918 567.968 25.2314C567.838 25.871 567.675 26.5106 567.479 27.1502C567.284 27.7897 567.023 28.3973 566.698 28.973C566.372 29.4846 565.916 29.9323 565.33 30.3161C565.135 31.979 564.874 33.514 564.549 34.921C564.288 36.2642 563.995 37.6073 563.669 38.9504C563.409 40.2935 563.181 41.7006 562.986 43.1716C562.79 44.5787 562.725 46.1457 562.79 47.8725C562.269 49.3436 561.716 50.9105 561.13 52.5734C560.543 54.2364 560.087 55.7394 559.762 57.0825C558.72 57.9139 557.906 58.9053 557.32 60.0565C556.733 61.2078 556.115 62.359 555.464 63.5103C555.203 63.7661 555.04 63.83 554.975 63.7021C554.91 63.5742 554.682 63.4783 554.291 63.4143C554.356 63.6702 554.356 63.862 554.291 63.9899C554.226 64.1179 554.128 64.2458 553.998 64.3737C553.933 64.4376 553.868 64.5656 553.803 64.7574C553.803 64.9493 553.868 65.2051 553.998 65.5249C553.086 65.9087 552.272 66.4523 551.556 67.1559C550.84 67.8594 550.058 68.499 549.211 69.0746C548.43 69.6502 547.453 70.034 546.281 70.2258C545.174 70.4177 543.708 70.1939 541.885 69.5543C539.214 67.6355 536.837 65.429 534.753 62.9346C532.734 60.4403 531.074 57.4662 529.771 54.0125Z" fill="#9747FF"/>
<path d="M621.795 25.3274C620.167 25.3274 618.408 25.4553 616.52 25.7111C614.631 25.903 612.775 26.1268 610.951 26.3827C609.649 26.5745 608.379 26.7344 607.141 26.8623C605.969 26.9903 604.894 27.0862 603.918 27.1502C603.462 28.5572 603.006 29.8044 602.55 30.8917C602.094 31.979 601.606 33.0343 601.085 34.0576C600.564 35.1449 600.075 36.2642 599.619 37.4154C599.228 38.5027 598.838 39.6859 598.447 40.9651C597.796 41.9884 597.242 42.9478 596.786 43.8432C596.395 44.6746 596.07 45.634 595.809 46.7213C595.028 47.6807 594.442 48.704 594.051 49.7913C593.66 50.8146 593.367 51.71 593.172 52.4775L592.781 53.6288C592.39 54.0125 592.162 54.3323 592.097 54.5881C592.032 54.78 591.869 54.9719 591.609 55.1637C591.544 55.8673 591.316 56.5708 590.925 57.2744C590.795 57.5941 590.697 57.9139 590.632 58.2337C590.567 58.4896 590.534 58.6814 590.534 58.8093C590.534 59.4489 590.371 59.8647 590.046 60.0565C590.111 60.3763 590.111 60.7281 590.046 61.1118C589.981 61.4316 589.915 61.7514 589.85 62.0712C589.655 62.8387 589.59 63.4463 589.655 63.894C589.85 64.1498 590.013 64.3737 590.143 64.5656C590.339 64.7574 590.469 65.0133 590.534 65.3331C590.925 65.5889 591.218 65.7488 591.413 65.8127C591.674 66.0046 592.065 66.2285 592.586 66.4843L593.465 67.4437C593.79 69.2985 593.497 70.7695 592.586 71.8568C591.609 73.072 589.948 73.6796 587.603 73.6796H586.431C586.106 73.3598 585.91 73.104 585.845 72.9121C585.324 72.7202 584.901 72.5603 584.575 72.4324C584.249 72.3045 583.956 72.0486 583.696 71.6649C582.849 71.2811 582.165 70.9614 581.644 70.7055L580.765 70.2258C580.765 69.5223 580.765 69.1386 580.765 69.0746C580.309 68.499 579.951 67.8594 579.691 67.1559C579.495 66.4523 579.332 65.7488 579.202 65.0452C579.072 64.4696 578.909 63.926 578.714 63.4143C578.583 62.9027 578.388 62.455 578.128 62.0712C577.997 58.3616 578.355 55.2277 579.202 52.6694C580.049 50.1111 580.928 47.6487 581.84 45.2822C582.361 44.0031 582.882 42.7239 583.403 41.4448C583.924 40.1016 584.38 38.7265 584.77 37.3195L585.65 36.3601C586.106 35.3368 586.464 34.5053 586.724 33.8657C587.05 33.1622 587.375 32.4587 587.701 31.7551C587.896 31.3074 588.059 30.8917 588.19 30.5079C588.385 30.0602 588.548 29.6765 588.678 29.3567C588.287 29.3567 587.929 29.3887 587.603 29.4526C587.278 29.4526 586.952 29.4846 586.627 29.5486C586.236 29.6125 585.878 29.6765 585.552 29.7405C585.226 29.7405 584.901 29.7405 584.575 29.7405C584.119 29.7405 583.794 29.7085 583.598 29.6445C582.882 29.9643 582.1 30.1242 581.254 30.1242H580.277C580.081 30.1242 579.886 30.1242 579.691 30.1242C579.56 30.0602 579.43 30.0283 579.3 30.0283C578.649 30.0283 578.128 30.1242 577.737 30.3161C576.955 30.3161 576.206 30.3161 575.49 30.3161H574.513C574.383 30.3161 574.22 30.3481 574.025 30.412C573.829 30.412 573.666 30.412 573.536 30.412C573.08 30.412 572.592 30.38 572.071 30.3161C571.55 30.1882 570.996 29.9643 570.41 29.6445C569.629 28.6212 569.107 28.0775 568.847 28.0136L567.968 26.8623C567.903 26.4786 567.805 26.1268 567.675 25.807C567.544 25.4233 567.414 25.0076 567.284 24.5599C567.023 23.9203 566.763 23.2487 566.502 22.5452C566.307 21.7777 566.209 20.8823 566.209 19.8589C566.274 19.3473 566.405 18.9635 566.6 18.7077C566.796 18.4519 566.958 18.228 567.089 18.0361L567.382 16.5971L568.652 16.693H571.387C573.471 16.693 575.588 16.6291 577.737 16.5012C579.886 16.3093 582.1 16.1174 584.38 15.9255C585.682 15.7976 586.985 15.6697 588.287 15.5418C589.655 15.4139 591.055 15.286 592.488 15.158C592.748 14.5824 593.009 14.0388 593.269 13.5271L594.246 13.0474C595.419 12.9835 596.233 13.1434 596.689 13.5271C597.21 13.8469 597.633 14.1667 597.959 14.4865C599.391 14.3586 600.824 14.2306 602.257 14.1027C603.755 13.9109 605.253 13.687 606.751 13.4312C608.965 13.1114 611.179 12.8236 613.393 12.5677C615.673 12.3119 617.855 12.184 619.939 12.184C620.85 12.184 621.73 12.216 622.576 12.2799C623.423 12.3439 624.204 12.4398 624.921 12.5677L625.898 13.2393C626.093 13.623 626.354 13.9748 626.679 14.2946C627.07 14.6144 627.461 14.9342 627.852 15.254C628.633 15.9575 629.415 16.789 630.196 17.7483C630.978 18.7077 631.271 20.1148 631.075 21.9696C630.554 22.7371 630.164 23.1848 629.903 23.3127L629.024 24.4639L628.047 24.368C627.656 24.368 627.298 24.4319 626.972 24.5599C626.647 24.6238 626.321 24.7198 625.995 24.8477C625.735 24.9756 625.474 25.1035 625.214 25.2314C624.953 25.2954 624.66 25.3593 624.335 25.4233C623.749 25.4233 623.26 25.4233 622.869 25.4233C622.544 25.3593 622.186 25.3274 621.795 25.3274Z" fill="#9747FF"/>
</svg>
