<svg xmlns="http://www.w3.org/2000/svg" width="256" height="256" viewBox="0 0 100 100"><path fill="#9013fe" d="M-0.94 56.64L-0.94 56.64Q-0.86 56.33-0.59 56.37Q-0.31 56.41-0.08 56.33L-0.08 56.33Q-0.70 55.70-0.86 54.65Q-1.02 53.59-1.64 52.89L-1.64 52.89Q-1.48 52.50-1.37 52.11Q-1.25 51.72-0.70 51.80L-0.70 51.80Q-0.94 50.08-0.63 48.59Q-0.31 47.11 0.35 45.78Q1.02 44.45 1.91 43.16Q2.81 41.88 3.67 40.55L3.67 40.55Q4.38 40.39 4.53 40.66Q4.69 40.94 5.08 40.55L5.08 40.55Q6.33 39.69 6.80 38.63Q7.27 37.58 7.27 36.33L7.27 36.33Q7.97 34.30 8.87 32.30Q9.77 30.31 10.94 28.59Q12.11 26.88 13.44 25.59Q14.77 24.30 16.33 23.59L16.33 23.59Q17.42 22.66 19.10 21.88Q20.78 21.09 22.70 20.66Q24.61 20.23 26.64 20.20Q28.67 20.16 30.39 20.63L30.39 20.63Q30.78 20.78 30.86 20.43Q30.94 20.08 31.25 20.08L31.25 20.08Q35.16 20.55 38.24 21.64Q41.33 22.73 43.52 24.69L43.52 24.69Q45 27.03 46.33 29.73Q47.66 32.42 48.40 35.35Q49.14 38.28 49.06 41.41Q48.98 44.53 47.73 47.66L47.73 47.66Q45 51.09 41.09 53.16Q37.19 55.23 32.70 56.60Q28.20 57.97 23.40 58.83Q18.59 59.69 14.06 60.70L14.06 60.70Q14.14 62.81 14.06 65.20Q13.98 67.58 13.55 69.96Q13.13 72.34 12.30 74.61Q11.48 76.88 10.08 78.83L10.08 78.83Q8.52 78.75 6.84 79.14Q5.16 79.53 3.83 79.92L3.83 79.92Q3.20 79.53 2.62 79.18Q2.03 78.83 1.17 78.75L1.17 78.75Q1.41 77.81 0.74 76.80Q0.08 75.78-0.59 74.80Q-1.25 73.83-1.45 72.85Q-1.64 71.88-0.55 71.09L-0.55 71.09Q-1.17 70.55-1.17 69.38L-1.17 69.38Q-0.86 69.69-0.39 69.69L-0.39 69.69Q-0.55 68.28-0.04 66.33Q0.47 64.38 0.82 62.46Q1.17 60.55 0.94 58.95Q0.70 57.34-0.94 56.64ZM19.38 38.36L19.38 38.36Q19.06 39.22 18.87 39.88Q18.67 40.55 18.44 41.09Q18.20 41.64 17.93 42.19Q17.66 42.73 17.34 43.44L17.34 43.44Q17.50 43.91 17.97 44.14Q18.44 44.38 18.59 44.84L18.59 44.84Q19.69 44.30 20.78 44.02Q21.88 43.75 22.97 43.59Q24.06 43.44 25.16 43.20Q26.25 42.97 27.42 42.42L27.42 42.42Q28.59 41.88 29.88 41.52Q31.17 41.17 32.42 40.78Q33.67 40.39 34.84 39.88Q36.02 39.38 36.88 38.52L36.88 38.52Q35.78 37.50 33.59 36.72Q31.41 35.94 28.87 35.74Q26.33 35.55 23.79 36.09Q21.25 36.64 19.38 38.36ZM47.73 43.44L47.73 43.44Q47.97 42.27 48.05 41.52Q48.13 40.78 47.50 39.92L47.50 39.92Q47.81 38.67 48.01 37.97Q48.20 37.27 48.05 36.02L48.05 36.02Q48.75 33.98 50.20 32.58Q51.64 31.17 53.36 30.20Q55.08 29.22 56.95 28.55Q58.83 27.89 60.47 27.42L60.47 27.42Q60.47 27.11 60.16 27.11Q59.84 27.11 60 26.72L60 26.72Q64.22 25.94 68.48 24.45Q72.73 22.97 77.19 21.80Q81.64 20.63 86.33 20.35Q91.02 20.08 96.17 21.56L96.17 21.56Q96.48 22.50 97.03 23.36Q97.58 24.22 98.16 25.04Q98.75 25.86 99.22 26.64Q99.69 27.42 99.77 28.28L99.77 28.28Q100.70 29.14 101.29 30.12Q101.88 31.09 101.48 32.73L101.48 32.73Q100.63 33.36 99.69 33.98Q98.75 34.61 97.73 35.16L97.73 35.16Q94.22 34.30 90.70 34.53Q87.19 34.77 84.38 35.08L84.38 35.08Q83.52 34.14 82.34 34.18Q81.17 34.22 79.88 34.57Q78.59 34.92 77.34 35.27Q76.09 35.63 75 35.47L75 35.47Q74.14 36.25 72.73 36.52Q71.33 36.80 69.77 36.95L69.77 36.95Q69.69 37.34 69.92 37.50Q70.16 37.66 70 38.13L70 38.13Q70.55 38.83 71.48 39.10Q72.42 39.38 73.40 39.61Q74.38 39.84 75.16 40.27Q75.94 40.70 76.17 41.64L76.17 41.64Q77.58 41.72 78.59 42.38Q79.61 43.05 80.31 43.98Q81.02 44.92 81.33 45.98Q81.64 47.03 81.56 47.89L81.56 47.89Q81.88 48.67 82.23 48.52Q82.58 48.36 83.05 48.91L83.05 48.91Q83.36 50.08 84.49 51.37Q85.63 52.66 86.25 54.14L86.25 54.14Q86.41 56.48 86.52 58.36Q86.64 60.23 85.86 62.03L85.86 62.03Q84.53 65.47 82.03 68.20Q79.53 70.94 76.37 73.01Q73.20 75.08 69.69 76.60Q66.17 78.13 62.73 79.14L62.73 79.14Q62.42 79.06 61.99 79.14Q61.56 79.22 61.80 78.67L61.80 78.67Q61.09 79.30 60.20 79.45Q59.30 79.61 58.24 79.57Q57.19 79.53 56.13 79.45Q55.08 79.38 54.06 79.53L54.06 79.53Q53.44 78.91 52.93 78.28Q52.42 77.66 52.11 76.80L52.11 76.80Q51.72 76.72 51.76 76.29Q51.80 75.86 51.41 75.86L51.41 75.86Q51.41 75.55 51.48 75.39Q51.56 75.23 51.64 75.08L51.64 75.08Q51.95 74.84 51.91 74.73Q51.88 74.61 51.68 74.49Q51.48 74.38 51.29 74.22Q51.09 74.06 51.17 73.83L51.17 73.83Q51.56 73.13 51.45 72.15Q51.33 71.17 51.25 70.16Q51.17 69.14 51.41 68.24Q51.64 67.34 52.73 66.72L52.73 66.72Q55.94 67.03 58.79 66.41Q61.64 65.78 64.18 64.69Q66.72 63.59 69.02 62.30Q71.33 61.02 73.52 59.92L73.52 59.92Q73.75 59.14 74.26 58.59Q74.77 58.05 75.31 57.54Q75.86 57.03 76.33 56.45Q76.80 55.86 77.03 55L77.03 55Q77.11 54.69 77.03 54.53Q76.95 54.38 76.80 54.26Q76.64 54.14 76.48 53.98Q76.33 53.83 76.33 53.52L76.33 53.52Q76.09 53.44 75.90 53.36Q75.70 53.28 75.55 53.28L75.55 53.28Q73.52 52.27 71.25 51.56Q68.98 50.86 67.42 50L67.42 50Q66.48 50.63 65.55 50.31Q64.61 50 63.28 49.69L63.28 49.69Q60 49.53 57.07 49.06Q54.14 48.59 51.41 47.42L51.41 47.42Q51.25 46.95 51.02 46.60Q50.78 46.25 49.92 46.41L49.92 46.41Q49.38 45.63 48.79 44.96Q48.20 44.30 47.73 43.44Z"/></svg>