<svg width="550" height="550" viewBox="0 0 550 550" fill="none" xmlns="http://www.w3.org/2000/svg">
<rect x="18" y="18" width="514" height="514" rx="42" fill="#414851" stroke="url(#paint0_linear_707_393)" stroke-width="36"/>
<path d="M175.908 326.618H119.267V266.838H175.908C183.627 266.838 189.886 265 194.684 261.324C199.483 257.647 202.977 252.574 205.168 246.103C207.462 239.485 208.61 232.059 208.61 223.824C208.61 215 207.462 206.838 205.168 199.338C202.977 191.838 199.483 185.809 194.684 181.25C189.886 176.544 183.627 174.191 175.908 174.191H139.92V435.588H85V114.412H175.908C194.163 114.412 209.862 119.118 223.005 128.529C236.253 137.941 246.423 150.882 253.516 167.353C260.609 183.676 264.156 202.353 264.156 223.382C264.156 244.118 260.609 262.206 253.516 277.647C246.423 293.088 236.253 305.147 223.005 313.824C209.862 322.353 194.163 326.618 175.908 326.618Z" fill="url(#paint1_linear_707_393)"/>
<path d="M411.08 350.221C411.08 345.221 410.558 340.735 409.515 336.765C408.472 332.647 406.542 328.824 403.726 325.294C400.909 321.765 396.841 318.235 391.521 314.706C386.306 311.029 379.421 307.206 370.867 303.235C360.853 298.529 351.205 293.235 341.921 287.353C332.637 281.324 324.344 274.338 317.042 266.397C309.74 258.309 303.951 248.897 299.674 238.162C295.398 227.279 293.259 214.632 293.259 200.221C293.259 186.397 295.45 173.971 299.831 162.941C304.212 151.765 310.314 142.279 318.138 134.485C326.065 126.544 335.349 120.515 345.989 116.397C356.629 112.132 368.26 110 380.881 110C397.571 110 412.279 114.118 425.005 122.353C437.836 130.441 447.85 141.985 455.047 156.985C462.349 171.838 466 189.412 466 209.706H411.393C411.393 201.618 410.193 194.485 407.794 188.309C405.499 182.132 402.005 177.279 397.31 173.75C392.616 170.221 386.723 168.456 379.63 168.456C372.745 168.456 366.956 169.926 362.262 172.868C357.568 175.809 354.021 179.779 351.622 184.779C349.223 189.632 348.023 195 348.023 200.882C348.023 205.735 348.962 210.147 350.839 214.118C352.821 217.941 355.586 221.544 359.132 224.926C362.783 228.309 367.164 231.544 372.276 234.632C377.491 237.721 383.333 240.735 389.8 243.676C401.9 249.118 412.644 255.221 422.032 261.985C431.525 268.603 439.505 276.176 445.972 284.706C452.544 293.088 457.499 302.647 460.837 313.382C464.279 324.118 466 336.25 466 349.779C466 364.191 464.018 376.985 460.054 388.162C456.09 399.338 450.405 408.824 442.999 416.618C435.593 424.265 426.726 430.074 416.4 434.044C406.073 438.015 394.546 440 381.82 440C370.137 440 358.611 437.941 347.241 433.824C335.975 429.559 325.752 423.088 316.573 414.412C307.393 405.588 300.039 394.338 294.511 380.662C289.087 366.838 286.375 350.441 286.375 331.471H341.451C341.451 340.882 342.338 348.824 344.111 355.294C345.885 361.765 348.492 366.985 351.935 370.956C355.377 374.779 359.602 377.574 364.609 379.338C369.616 380.956 375.353 381.765 381.82 381.765C388.809 381.765 394.442 380.368 398.719 377.574C402.995 374.632 406.125 370.809 408.107 366.103C410.089 361.25 411.08 355.956 411.08 350.221Z" fill="url(#paint2_linear_707_393)"/>
<defs>
<linearGradient id="paint0_linear_707_393" x1="-6.14673e-06" y1="275" x2="244.082" y2="575.143" gradientUnits="userSpaceOnUse">
<stop stop-color="#F25488"/>
<stop offset="0.5" stop-color="#9747FF"/>
<stop offset="0.862188" stop-color="#5590F6"/>
<stop offset="1" stop-color="#3CACF2"/>
</linearGradient>
<linearGradient id="paint1_linear_707_393" x1="85" y1="275" x2="225.852" y2="474.97" gradientUnits="userSpaceOnUse">
<stop stop-color="#F25488"/>
<stop offset="0.5" stop-color="#9747FF"/>
<stop offset="0.862188" stop-color="#5590F6"/>
<stop offset="1" stop-color="#3CACF2"/>
</linearGradient>
<linearGradient id="paint2_linear_707_393" x1="85" y1="275" x2="225.852" y2="474.97" gradientUnits="userSpaceOnUse">
<stop stop-color="#F25488"/>
<stop offset="0.5" stop-color="#9747FF"/>
<stop offset="0.862188" stop-color="#5590F6"/>
<stop offset="1" stop-color="#3CACF2"/>
</linearGradient>
</defs>
</svg>
