<svg width="386" height="229" viewBox="0 0 386 229" fill="none" xmlns="http://www.w3.org/2000/svg">
<path d="M0 225.086V3.45802H103.075C128.257 3.45802 147.677 9.74535 161.335 22.32C174.993 34.6851 181.822 51.9752 181.822 74.1904C181.822 96.4056 174.993 113.801 161.335 126.375C147.677 138.95 128.257 145.237 103.075 145.237H49.617V225.086H0ZM49.617 107.513H94.7524C121.001 107.513 134.126 96.4056 134.126 74.1904C134.126 52.3944 121.001 41.4963 94.7524 41.4963H49.617V107.513Z" fill="#9747FF"/>
<path d="M293.24 228.544C275.528 228.544 258.775 226.344 242.983 221.943C227.404 217.541 214.387 211.568 203.93 204.024L218.335 165.671C228.365 172.587 239.782 178.036 252.586 182.018C265.604 186 279.156 187.991 293.24 187.991C308.606 187.991 319.596 185.686 326.212 181.075C333.041 176.255 336.455 170.282 336.455 163.156C336.455 157.078 334.108 152.258 329.413 148.695C324.718 145.132 316.502 142.094 304.764 139.579L268.592 132.034C228.258 123.651 208.091 103.112 208.091 70.418C208.091 56.3763 211.933 44.1161 219.615 33.6372C227.298 22.9487 237.968 14.6704 251.626 8.80225C265.497 2.93408 281.503 0 299.643 0C315.221 0 329.84 2.20056 343.498 6.60168C357.156 11.0028 368.466 17.1853 377.429 25.1493L363.024 60.987C345.525 47.3645 324.291 40.5532 299.322 40.5532C285.878 40.5532 275.421 43.173 267.952 48.4124C260.696 53.4422 257.068 60.0439 257.068 68.2175C257.068 74.2952 259.309 79.2203 263.79 82.9927C268.272 86.7651 276.061 89.804 287.158 92.1093L323.331 99.6541C364.731 108.456 385.432 128.366 385.432 159.384C385.432 173.216 381.591 185.371 373.908 195.85C366.439 206.119 355.768 214.188 341.897 220.056C328.239 225.715 312.02 228.544 293.24 228.544Z" fill="#9747FF"/>
</svg>
