<svg xmlns="http://www.w3.org/2000/svg" width="369" height="131" fill="none" viewBox="0 0 369 131"><rect width="362" height="119" x="3.5" y="3.5" fill="#282343" fill-opacity=".01" stroke="#fff" stroke-width="7"/><path fill="#fff" d="M183.765 80.605C180.722 80.605 177.843 80.22 175.13 79.45C172.453 78.68 170.217 77.635 168.42 76.315L170.895 69.605C172.618 70.815 174.58 71.7683 176.78 72.465C179.017 73.1617 181.345 73.51 183.765 73.51C186.405 73.51 188.293 73.1067 189.43 72.3C190.603 71.4567 191.19 70.4117 191.19 69.165C191.19 68.1017 190.787 67.2583 189.98 66.635C189.173 66.0117 187.762 65.48 185.745 65.04L179.53 63.72C172.6 62.2533 169.135 58.66 169.135 52.94C169.135 50.4833 169.795 48.3383 171.115 46.505C172.435 44.635 174.268 43.1867 176.615 42.16C178.998 41.1333 181.748 40.62 184.865 40.62C187.542 40.62 190.053 41.005 192.4 41.775C194.747 42.545 196.69 43.6267 198.23 45.02L195.755 51.29C192.748 48.9067 189.1 47.715 184.81 47.715C182.5 47.715 180.703 48.1733 179.42 49.09C178.173 49.97 177.55 51.125 177.55 52.555C177.55 53.6183 177.935 54.48 178.705 55.14C179.475 55.8 180.813 56.3317 182.72 56.735L188.935 58.055C196.048 59.595 199.605 63.0783 199.605 68.505C199.605 70.925 198.945 73.0517 197.625 74.885C196.342 76.6817 194.508 78.0933 192.125 79.12C189.778 80.11 186.992 80.605 183.765 80.605ZM206.031 89.9L211.201 78.515L200.091 52.995H208.836L215.601 70.155L222.586 52.995H230.836L214.501 89.9H206.031ZM243.07 80.605C240.687 80.605 238.468 80.33 236.415 79.78C234.362 79.23 232.657 78.4783 231.3 77.525L233.28 72.135C234.637 72.9783 236.177 73.6567 237.9 74.17C239.66 74.6467 241.402 74.885 243.125 74.885C244.665 74.885 245.802 74.6467 246.535 74.17C247.268 73.6567 247.635 72.9967 247.635 72.19C247.635 70.9067 246.7 70.1 244.83 69.77L239.055 68.725C236.745 68.3217 234.985 67.4967 233.775 66.25C232.565 65.0033 231.96 63.3717 231.96 61.355C231.96 59.5217 232.473 57.945 233.5 56.625C234.527 55.305 235.938 54.2783 237.735 53.545C239.532 52.8117 241.603 52.445 243.95 52.445C245.893 52.445 247.782 52.7017 249.615 53.215C251.448 53.6917 253.025 54.4617 254.345 55.525L252.255 60.86C251.155 60.0533 249.835 59.3933 248.295 58.88C246.792 58.3667 245.38 58.11 244.06 58.11C242.41 58.11 241.218 58.385 240.485 58.935C239.752 59.4483 239.385 60.1083 239.385 60.915C239.385 62.1983 240.247 63.005 241.97 63.335L247.745 64.38C250.128 64.7833 251.943 65.59 253.19 66.8C254.437 67.9733 255.06 69.5867 255.06 71.64C255.06 74.4633 253.96 76.6633 251.76 78.24C249.56 79.8167 246.663 80.605 243.07 80.605ZM272.787 80.605C265.197 80.605 261.402 76.92 261.402 69.55V59.21H256.287V52.995H261.402V45.075H269.707V52.995H277.682V59.21H269.707V69.22C269.707 70.76 270.055 71.915 270.752 72.685C271.485 73.455 272.64 73.84 274.217 73.84C274.693 73.84 275.188 73.785 275.702 73.675C276.252 73.565 276.838 73.4183 277.462 73.235L278.672 79.285C277.902 79.6883 276.985 80 275.922 80.22C274.858 80.4767 273.813 80.605 272.787 80.605ZM295.525 80.605C292.335 80.605 289.585 80.0367 287.275 78.9C285.001 77.7267 283.241 76.095 281.995 74.005C280.785 71.8783 280.18 69.385 280.18 66.525C280.18 63.7383 280.766 61.3 281.94 59.21C283.15 57.0833 284.781 55.4333 286.835 54.26C288.925 53.05 291.326 52.445 294.04 52.445C297.963 52.445 301.08 53.6917 303.39 56.185C305.7 58.6417 306.855 61.9783 306.855 66.195V68.285H288.1C288.393 70.4117 289.163 71.97 290.41 72.96C291.693 73.9133 293.453 74.39 295.69 74.39C297.156 74.39 298.641 74.17 300.145 73.73C301.648 73.29 303.005 72.6117 304.215 71.695L306.415 77.25C305.058 78.2767 303.39 79.1017 301.41 79.725C299.466 80.3117 297.505 80.605 295.525 80.605ZM294.37 57.945C292.61 57.945 291.18 58.4767 290.08 59.54C289.016 60.6033 288.356 62.0883 288.1 63.995H299.98C299.76 59.9617 297.89 57.945 294.37 57.945ZM311.795 80V52.995H319.935V56.9C320.742 55.5067 321.842 54.425 323.235 53.655C324.665 52.8483 326.315 52.445 328.185 52.445C330.092 52.445 331.705 52.8667 333.025 53.71C334.382 54.5533 335.408 55.8367 336.105 57.56C336.948 55.9467 338.158 54.7 339.735 53.82C341.348 52.9033 343.127 52.445 345.07 52.445C348.15 52.445 350.442 53.38 351.945 55.25C353.448 57.0833 354.2 59.925 354.2 63.775V80H345.895V64.05C345.895 62.2533 345.602 60.9517 345.015 60.145C344.465 59.3017 343.512 58.88 342.155 58.88C340.578 58.88 339.35 59.43 338.47 60.53C337.59 61.63 337.15 63.1883 337.15 65.205V80H328.845V64.05C328.845 62.2533 328.552 60.9517 327.965 60.145C327.378 59.3017 326.425 58.88 325.105 58.88C323.528 58.88 322.3 59.43 321.42 60.53C320.54 61.63 320.1 63.1883 320.1 65.205V80H311.795Z"/><rect width="144" height="100" x="14" y="13" fill="#fff"/><path fill="url(#paint0_linear_51_265)" d="M46.46 75.405C43.43 75.405 40.805 74.745 38.585 73.425C36.365 72.075 34.64 70.185 33.41 67.755C32.21 65.295 31.61 62.415 31.61 59.115C31.61 55.785 32.21 52.905 33.41 50.475C34.64 48.045 36.365 46.17 38.585 44.85C40.805 43.53 43.43 42.87 46.46 42.87C49.46 42.87 52.07 43.53 54.29 44.85C56.54 46.17 58.265 48.045 59.465 50.475C60.695 52.905 61.31 55.77 61.31 59.07C61.31 62.4 60.695 65.295 59.465 67.755C58.265 70.185 56.54 72.075 54.29 73.425C52.07 74.745 49.46 75.405 46.46 75.405ZM46.46 71.355C49.61 71.355 52.055 70.29 53.795 68.16C55.565 66 56.45 62.985 56.45 59.115C56.45 55.245 55.58 52.245 53.84 50.115C52.1 47.985 49.64 46.92 46.46 46.92C43.31 46.92 40.85 47.985 39.08 50.115C37.34 52.245 36.47 55.245 36.47 59.115C36.47 62.985 37.34 66 39.08 68.16C40.85 70.29 43.31 71.355 46.46 71.355ZM67.0876 83.1V53.04H71.5426V56.775C72.1726 55.515 73.1326 54.51 74.4226 53.76C75.7126 53.01 77.1976 52.635 78.8776 52.635C80.8276 52.635 82.5226 53.1 83.9626 54.03C85.4326 54.96 86.5576 56.28 87.3376 57.99C88.1476 59.67 88.5526 61.68 88.5526 64.02C88.5526 66.36 88.1476 68.385 87.3376 70.095C86.5576 71.805 85.4326 73.125 83.9626 74.055C82.5226 74.955 80.8276 75.405 78.8776 75.405C77.2576 75.405 75.8026 75.06 74.5126 74.37C73.2526 73.65 72.2926 72.675 71.6326 71.445V83.1H67.0876ZM77.7526 71.895C79.6426 71.895 81.1426 71.22 82.2526 69.87C83.3926 68.52 83.9626 66.57 83.9626 64.02C83.9626 61.47 83.3926 59.535 82.2526 58.215C81.1426 56.865 79.6426 56.19 77.7526 56.19C75.8626 56.19 74.3476 56.865 73.2076 58.215C72.0976 59.535 71.5426 61.47 71.5426 64.02C71.5426 66.57 72.0976 68.52 73.2076 69.87C74.3476 71.22 75.8626 71.895 77.7526 71.895ZM103.979 75.405C100.379 75.405 97.5445 74.4 95.4745 72.39C93.4045 70.35 92.3695 67.575 92.3695 64.065C92.3695 61.815 92.8195 59.835 93.7195 58.125C94.6495 56.385 95.9245 55.035 97.5445 54.075C99.1645 53.115 101.024 52.635 103.124 52.635C106.154 52.635 108.539 53.61 110.279 55.56C112.019 57.48 112.889 60.135 112.889 63.525V65.055H96.7795C97.1095 69.615 99.5245 71.895 104.024 71.895C105.284 71.895 106.514 71.7 107.714 71.31C108.944 70.92 110.099 70.275 111.179 69.375L112.529 72.525C111.539 73.425 110.264 74.13 108.704 74.64C107.144 75.15 105.569 75.405 103.979 75.405ZM103.304 55.83C101.414 55.83 99.9145 56.415 98.8045 57.585C97.6945 58.755 97.0195 60.315 96.7795 62.265H109.064C108.974 60.225 108.434 58.65 107.444 57.54C106.454 56.4 105.074 55.83 103.304 55.83ZM117.844 75V53.04H122.254V56.685C123.004 55.365 124.024 54.36 125.314 53.67C126.634 52.98 128.104 52.635 129.724 52.635C134.914 52.635 137.509 55.575 137.509 61.455V75H132.964V61.725C132.964 59.835 132.589 58.455 131.839 57.585C131.119 56.715 129.979 56.28 128.419 56.28C126.589 56.28 125.119 56.865 124.009 58.035C122.929 59.175 122.389 60.69 122.389 62.58V75H117.844Z"/><path fill="#9747FF" fill-opacity=".18" d="M46.46 75.405C43.43 75.405 40.805 74.745 38.585 73.425C36.365 72.075 34.64 70.185 33.41 67.755C32.21 65.295 31.61 62.415 31.61 59.115C31.61 55.785 32.21 52.905 33.41 50.475C34.64 48.045 36.365 46.17 38.585 44.85C40.805 43.53 43.43 42.87 46.46 42.87C49.46 42.87 52.07 43.53 54.29 44.85C56.54 46.17 58.265 48.045 59.465 50.475C60.695 52.905 61.31 55.77 61.31 59.07C61.31 62.4 60.695 65.295 59.465 67.755C58.265 70.185 56.54 72.075 54.29 73.425C52.07 74.745 49.46 75.405 46.46 75.405ZM46.46 71.355C49.61 71.355 52.055 70.29 53.795 68.16C55.565 66 56.45 62.985 56.45 59.115C56.45 55.245 55.58 52.245 53.84 50.115C52.1 47.985 49.64 46.92 46.46 46.92C43.31 46.92 40.85 47.985 39.08 50.115C37.34 52.245 36.47 55.245 36.47 59.115C36.47 62.985 37.34 66 39.08 68.16C40.85 70.29 43.31 71.355 46.46 71.355ZM67.0876 83.1V53.04H71.5426V56.775C72.1726 55.515 73.1326 54.51 74.4226 53.76C75.7126 53.01 77.1976 52.635 78.8776 52.635C80.8276 52.635 82.5226 53.1 83.9626 54.03C85.4326 54.96 86.5576 56.28 87.3376 57.99C88.1476 59.67 88.5526 61.68 88.5526 64.02C88.5526 66.36 88.1476 68.385 87.3376 70.095C86.5576 71.805 85.4326 73.125 83.9626 74.055C82.5226 74.955 80.8276 75.405 78.8776 75.405C77.2576 75.405 75.8026 75.06 74.5126 74.37C73.2526 73.65 72.2926 72.675 71.6326 71.445V83.1H67.0876ZM77.7526 71.895C79.6426 71.895 81.1426 71.22 82.2526 69.87C83.3926 68.52 83.9626 66.57 83.9626 64.02C83.9626 61.47 83.3926 59.535 82.2526 58.215C81.1426 56.865 79.6426 56.19 77.7526 56.19C75.8626 56.19 74.3476 56.865 73.2076 58.215C72.0976 59.535 71.5426 61.47 71.5426 64.02C71.5426 66.57 72.0976 68.52 73.2076 69.87C74.3476 71.22 75.8626 71.895 77.7526 71.895ZM103.979 75.405C100.379 75.405 97.5445 74.4 95.4745 72.39C93.4045 70.35 92.3695 67.575 92.3695 64.065C92.3695 61.815 92.8195 59.835 93.7195 58.125C94.6495 56.385 95.9245 55.035 97.5445 54.075C99.1645 53.115 101.024 52.635 103.124 52.635C106.154 52.635 108.539 53.61 110.279 55.56C112.019 57.48 112.889 60.135 112.889 63.525V65.055H96.7795C97.1095 69.615 99.5245 71.895 104.024 71.895C105.284 71.895 106.514 71.7 107.714 71.31C108.944 70.92 110.099 70.275 111.179 69.375L112.529 72.525C111.539 73.425 110.264 74.13 108.704 74.64C107.144 75.15 105.569 75.405 103.979 75.405ZM103.304 55.83C101.414 55.83 99.9145 56.415 98.8045 57.585C97.6945 58.755 97.0195 60.315 96.7795 62.265H109.064C108.974 60.225 108.434 58.65 107.444 57.54C106.454 56.4 105.074 55.83 103.304 55.83ZM117.844 75V53.04H122.254V56.685C123.004 55.365 124.024 54.36 125.314 53.67C126.634 52.98 128.104 52.635 129.724 52.635C134.914 52.635 137.509 55.575 137.509 61.455V75H132.964V61.725C132.964 59.835 132.589 58.455 131.839 57.585C131.119 56.715 129.979 56.28 128.419 56.28C126.589 56.28 125.119 56.865 124.009 58.035C122.929 59.175 122.389 60.69 122.389 62.58V75H117.844Z"/><defs><linearGradient id="paint0_linear_51_265" x1="100" x2="100" y1="53" y2="108" gradientUnits="userSpaceOnUse"><stop stop-color="#2B2347" stop-opacity=".81"/><stop offset="1" stop-color="#212132"/></linearGradient></defs></svg>