<svg width="340" height="126" viewBox="0 0 340 126" fill="none" xmlns="http://www.w3.org/2000/svg">
<rect x="3.5" y="3.5" width="333" height="119" stroke="white" stroke-width="7"/>
<path d="M179.535 79.495C177.045 79.495 174.69 79.18 172.47 78.55C170.28 77.92 168.45 77.065 166.98 75.985L169.005 70.495C170.415 71.485 172.02 72.265 173.82 72.835C175.65 73.405 177.555 73.69 179.535 73.69C181.695 73.69 183.24 73.36 184.17 72.7C185.13 72.01 185.61 71.155 185.61 70.135C185.61 69.265 185.28 68.575 184.62 68.065C183.96 67.555 182.805 67.12 181.155 66.76L176.07 65.68C170.4 64.48 167.565 61.54 167.565 56.86C167.565 54.85 168.105 53.095 169.185 51.595C170.265 50.065 171.765 48.88 173.685 48.04C175.635 47.2 177.885 46.78 180.435 46.78C182.625 46.78 184.68 47.095 186.6 47.725C188.52 48.355 190.11 49.24 191.37 50.38L189.345 55.51C186.885 53.56 183.9 52.585 180.39 52.585C178.5 52.585 177.03 52.96 175.98 53.71C174.96 54.43 174.45 55.375 174.45 56.545C174.45 57.415 174.765 58.12 175.395 58.66C176.025 59.2 177.12 59.635 178.68 59.965L183.765 61.045C189.585 62.305 192.495 65.155 192.495 69.595C192.495 71.575 191.955 73.315 190.875 74.815C189.825 76.285 188.325 77.44 186.375 78.28C184.455 79.09 182.175 79.495 179.535 79.495ZM197.753 87.1L201.983 77.785L192.893 56.905H200.048L205.583 70.945L211.298 56.905H218.048L204.683 87.1H197.753ZM228.057 79.495C226.107 79.495 224.292 79.27 222.612 78.82C220.932 78.37 219.537 77.755 218.427 76.975L220.047 72.565C221.157 73.255 222.417 73.81 223.827 74.23C225.267 74.62 226.692 74.815 228.102 74.815C229.362 74.815 230.292 74.62 230.892 74.23C231.492 73.81 231.792 73.27 231.792 72.61C231.792 71.56 231.027 70.9 229.497 70.63L224.772 69.775C222.882 69.445 221.442 68.77 220.452 67.75C219.462 66.73 218.967 65.395 218.967 63.745C218.967 62.245 219.387 60.955 220.227 59.875C221.067 58.795 222.222 57.955 223.692 57.355C225.162 56.755 226.857 56.455 228.777 56.455C230.367 56.455 231.912 56.665 233.412 57.085C234.912 57.475 236.202 58.105 237.282 58.975L235.572 63.34C234.672 62.68 233.592 62.14 232.332 61.72C231.102 61.3 229.947 61.09 228.867 61.09C227.517 61.09 226.542 61.315 225.942 61.765C225.342 62.185 225.042 62.725 225.042 63.385C225.042 64.435 225.747 65.095 227.157 65.365L231.882 66.22C233.832 66.55 235.317 67.21 236.337 68.2C237.357 69.16 237.867 70.48 237.867 72.16C237.867 74.47 236.967 76.27 235.167 77.56C233.367 78.85 230.997 79.495 228.057 79.495ZM252.371 79.495C246.161 79.495 243.056 76.48 243.056 70.45V61.99H238.871V56.905H243.056V50.425H249.851V56.905H256.376V61.99H249.851V70.18C249.851 71.44 250.136 72.385 250.706 73.015C251.306 73.645 252.251 73.96 253.541 73.96C253.931 73.96 254.336 73.915 254.756 73.825C255.206 73.735 255.686 73.615 256.196 73.465L257.186 78.415C256.556 78.745 255.806 79 254.936 79.18C254.066 79.39 253.211 79.495 252.371 79.495ZM270.975 79.495C268.365 79.495 266.115 79.03 264.225 78.1C262.365 77.14 260.925 75.805 259.905 74.095C258.915 72.355 258.42 70.315 258.42 67.975C258.42 65.695 258.9 63.7 259.86 61.99C260.85 60.25 262.185 58.9 263.865 57.94C265.575 56.95 267.54 56.455 269.76 56.455C272.97 56.455 275.52 57.475 277.41 59.515C279.3 61.525 280.245 64.255 280.245 67.705V69.415H264.9C265.14 71.155 265.77 72.43 266.79 73.24C267.84 74.02 269.28 74.41 271.11 74.41C272.31 74.41 273.525 74.23 274.755 73.87C275.985 73.51 277.095 72.955 278.085 72.205L279.885 76.75C278.775 77.59 277.41 78.265 275.79 78.775C274.2 79.255 272.595 79.495 270.975 79.495ZM270.03 60.955C268.59 60.955 267.42 61.39 266.52 62.26C265.65 63.13 265.11 64.345 264.9 65.905H274.62C274.44 62.605 272.91 60.955 270.03 60.955ZM284.287 79V56.905H290.947V60.1C291.607 58.96 292.507 58.075 293.647 57.445C294.817 56.785 296.167 56.455 297.697 56.455C299.257 56.455 300.577 56.8 301.657 57.49C302.767 58.18 303.607 59.23 304.177 60.64C304.867 59.32 305.857 58.3 307.147 57.58C308.467 56.83 309.922 56.455 311.512 56.455C314.032 56.455 315.907 57.22 317.137 58.75C318.367 60.25 318.982 62.575 318.982 65.725V79H312.187V65.95C312.187 64.48 311.947 63.415 311.467 62.755C311.017 62.065 310.237 61.72 309.127 61.72C307.837 61.72 306.832 62.17 306.112 63.07C305.392 63.97 305.032 65.245 305.032 66.895V79H298.237V65.95C298.237 64.48 297.997 63.415 297.517 62.755C297.037 62.065 296.257 61.72 295.177 61.72C293.887 61.72 292.882 62.17 292.162 63.07C291.442 63.97 291.082 65.245 291.082 66.895V79H284.287Z" fill="white"/>
<rect x="14" y="13" width="144" height="100" fill="white"/>
<path d="M49.235 78.405C46.295 78.405 43.73 77.745 41.54 76.425C39.38 75.075 37.7 73.185 36.5 70.755C35.33 68.325 34.745 65.445 34.745 62.115C34.745 58.785 35.33 55.905 36.5 53.475C37.67 51.045 39.335 49.17 41.495 47.85C43.685 46.53 46.265 45.87 49.235 45.87C52.235 45.87 54.815 46.53 56.975 47.85C59.165 49.17 60.845 51.045 62.015 53.475C63.215 55.875 63.815 58.74 63.815 62.07C63.815 65.4 63.215 68.295 62.015 70.755C60.815 73.185 59.12 75.075 56.93 76.425C54.77 77.745 52.205 78.405 49.235 78.405ZM49.235 75.12C52.625 75.12 55.25 73.98 57.11 71.7C58.97 69.42 59.9 66.225 59.9 62.115C59.9 58.005 58.97 54.825 57.11 52.575C55.25 50.295 52.625 49.155 49.235 49.155C45.905 49.155 43.31 50.295 41.45 52.575C39.59 54.825 38.66 58.005 38.66 62.115C38.66 66.195 39.59 69.39 41.45 71.7C43.31 73.98 45.905 75.12 49.235 75.12ZM69.9171 86.1V56.13H73.4721V60.045C74.1321 58.695 75.1071 57.645 76.3971 56.895C77.7171 56.115 79.2471 55.725 80.9871 55.725C82.9371 55.725 84.6321 56.19 86.0721 57.12C87.5421 58.02 88.6671 59.325 89.4471 61.035C90.2571 62.715 90.6621 64.725 90.6621 67.065C90.6621 69.375 90.2571 71.385 89.4471 73.095C88.6671 74.775 87.5421 76.08 86.0721 77.01C84.6321 77.94 82.9371 78.405 80.9871 78.405C79.3071 78.405 77.8071 78.03 76.4871 77.28C75.1671 76.53 74.1921 75.495 73.5621 74.175V86.1H69.9171ZM80.2221 75.48C82.2621 75.48 83.8971 74.76 85.1271 73.32C86.3571 71.85 86.9721 69.765 86.9721 67.065C86.9721 64.335 86.3571 62.25 85.1271 60.81C83.8971 59.37 82.2621 58.65 80.2221 58.65C78.1821 58.65 76.5471 59.37 75.3171 60.81C74.0871 62.25 73.4721 64.335 73.4721 67.065C73.4721 69.765 74.0871 71.85 75.3171 73.32C76.5471 74.76 78.1821 75.48 80.2221 75.48ZM106.007 78.405C102.557 78.405 99.8274 77.4 97.8174 75.39C95.8074 73.35 94.8024 70.59 94.8024 67.11C94.8024 64.86 95.2524 62.88 96.1524 61.17C97.0524 59.43 98.2824 58.095 99.8424 57.165C101.432 56.205 103.262 55.725 105.332 55.725C108.302 55.725 110.627 56.685 112.307 58.605C113.987 60.495 114.827 63.105 114.827 66.435V67.83H98.3574C98.4774 70.32 99.1974 72.225 100.517 73.545C101.837 74.835 103.667 75.48 106.007 75.48C107.327 75.48 108.587 75.285 109.787 74.895C110.987 74.475 112.127 73.8 113.207 72.87L114.467 75.435C113.477 76.365 112.217 77.1 110.687 77.64C109.157 78.15 107.597 78.405 106.007 78.405ZM105.422 58.425C103.352 58.425 101.717 59.07 100.517 60.36C99.3174 61.65 98.6124 63.345 98.4024 65.445H111.677C111.587 63.225 111.002 61.5 109.922 60.27C108.872 59.04 107.372 58.425 105.422 58.425ZM120.103 78V56.13H123.658V59.865C124.378 58.485 125.398 57.45 126.718 56.76C128.038 56.07 129.523 55.725 131.173 55.725C136.363 55.725 138.958 58.605 138.958 64.365V78H135.313V64.59C135.313 62.55 134.908 61.065 134.098 60.135C133.318 59.175 132.058 58.695 130.318 58.695C128.308 58.695 126.703 59.325 125.503 60.585C124.333 61.815 123.748 63.465 123.748 65.535V78H120.103Z" fill="#764ABC"/>
</svg>
