<svg width="340" height="131" viewBox="0 0 340 131" fill="none" xmlns="http://www.w3.org/2000/svg">
<rect x="2.5" y="2.5" width="335" height="126" stroke="white" stroke-width="5"/>
<path d="M181.535 80.495C179.045 80.495 176.69 80.18 174.47 79.55C172.28 78.92 170.45 78.065 168.98 76.985L171.005 71.495C172.415 72.485 174.02 73.265 175.82 73.835C177.65 74.405 179.555 74.69 181.535 74.69C183.695 74.69 185.24 74.36 186.17 73.7C187.13 73.01 187.61 72.155 187.61 71.135C187.61 70.265 187.28 69.575 186.62 69.065C185.96 68.555 184.805 68.12 183.155 67.76L178.07 66.68C172.4 65.48 169.565 62.54 169.565 57.86C169.565 55.85 170.105 54.095 171.185 52.595C172.265 51.065 173.765 49.88 175.685 49.04C177.635 48.2 179.885 47.78 182.435 47.78C184.625 47.78 186.68 48.095 188.6 48.725C190.52 49.355 192.11 50.24 193.37 51.38L191.345 56.51C188.885 54.56 185.9 53.585 182.39 53.585C180.5 53.585 179.03 53.96 177.98 54.71C176.96 55.43 176.45 56.375 176.45 57.545C176.45 58.415 176.765 59.12 177.395 59.66C178.025 60.2 179.12 60.635 180.68 60.965L185.765 62.045C191.585 63.305 194.495 66.155 194.495 70.595C194.495 72.575 193.955 74.315 192.875 75.815C191.825 77.285 190.325 78.44 188.375 79.28C186.455 80.09 184.175 80.495 181.535 80.495ZM199.753 88.1L203.983 78.785L194.893 57.905H202.048L207.583 71.945L213.298 57.905H220.048L206.683 88.1H199.753ZM230.057 80.495C228.107 80.495 226.292 80.27 224.612 79.82C222.932 79.37 221.537 78.755 220.427 77.975L222.047 73.565C223.157 74.255 224.417 74.81 225.827 75.23C227.267 75.62 228.692 75.815 230.102 75.815C231.362 75.815 232.292 75.62 232.892 75.23C233.492 74.81 233.792 74.27 233.792 73.61C233.792 72.56 233.027 71.9 231.497 71.63L226.772 70.775C224.882 70.445 223.442 69.77 222.452 68.75C221.462 67.73 220.967 66.395 220.967 64.745C220.967 63.245 221.387 61.955 222.227 60.875C223.067 59.795 224.222 58.955 225.692 58.355C227.162 57.755 228.857 57.455 230.777 57.455C232.367 57.455 233.912 57.665 235.412 58.085C236.912 58.475 238.202 59.105 239.282 59.975L237.572 64.34C236.672 63.68 235.592 63.14 234.332 62.72C233.102 62.3 231.947 62.09 230.867 62.09C229.517 62.09 228.542 62.315 227.942 62.765C227.342 63.185 227.042 63.725 227.042 64.385C227.042 65.435 227.747 66.095 229.157 66.365L233.882 67.22C235.832 67.55 237.317 68.21 238.337 69.2C239.357 70.16 239.867 71.48 239.867 73.16C239.867 75.47 238.967 77.27 237.167 78.56C235.367 79.85 232.997 80.495 230.057 80.495ZM254.371 80.495C248.161 80.495 245.056 77.48 245.056 71.45V62.99H240.871V57.905H245.056V51.425H251.851V57.905H258.376V62.99H251.851V71.18C251.851 72.44 252.136 73.385 252.706 74.015C253.306 74.645 254.251 74.96 255.541 74.96C255.931 74.96 256.336 74.915 256.756 74.825C257.206 74.735 257.686 74.615 258.196 74.465L259.186 79.415C258.556 79.745 257.806 80 256.936 80.18C256.066 80.39 255.211 80.495 254.371 80.495ZM272.975 80.495C270.365 80.495 268.115 80.03 266.225 79.1C264.365 78.14 262.925 76.805 261.905 75.095C260.915 73.355 260.42 71.315 260.42 68.975C260.42 66.695 260.9 64.7 261.86 62.99C262.85 61.25 264.185 59.9 265.865 58.94C267.575 57.95 269.54 57.455 271.76 57.455C274.97 57.455 277.52 58.475 279.41 60.515C281.3 62.525 282.245 65.255 282.245 68.705V70.415H266.9C267.14 72.155 267.77 73.43 268.79 74.24C269.84 75.02 271.28 75.41 273.11 75.41C274.31 75.41 275.525 75.23 276.755 74.87C277.985 74.51 279.095 73.955 280.085 73.205L281.885 77.75C280.775 78.59 279.41 79.265 277.79 79.775C276.2 80.255 274.595 80.495 272.975 80.495ZM272.03 61.955C270.59 61.955 269.42 62.39 268.52 63.26C267.65 64.13 267.11 65.345 266.9 66.905H276.62C276.44 63.605 274.91 61.955 272.03 61.955ZM286.287 80V57.905H292.947V61.1C293.607 59.96 294.507 59.075 295.647 58.445C296.817 57.785 298.167 57.455 299.697 57.455C301.257 57.455 302.577 57.8 303.657 58.49C304.767 59.18 305.607 60.23 306.177 61.64C306.867 60.32 307.857 59.3 309.147 58.58C310.467 57.83 311.922 57.455 313.512 57.455C316.032 57.455 317.907 58.22 319.137 59.75C320.367 61.25 320.982 63.575 320.982 66.725V80H314.187V66.95C314.187 65.48 313.947 64.415 313.467 63.755C313.017 63.065 312.237 62.72 311.127 62.72C309.837 62.72 308.832 63.17 308.112 64.07C307.392 64.97 307.032 66.245 307.032 67.895V80H300.237V66.95C300.237 65.48 299.997 64.415 299.517 63.755C299.037 63.065 298.257 62.72 297.177 62.72C295.887 62.72 294.882 63.17 294.162 64.07C293.442 64.97 293.082 66.245 293.082 67.895V80H286.287Z" fill="white"/>
<rect x="17" y="16" width="144" height="100" fill="white"/>
<path d="M49.235 78.405C46.295 78.405 43.73 77.745 41.54 76.425C39.38 75.075 37.7 73.185 36.5 70.755C35.33 68.325 34.745 65.445 34.745 62.115C34.745 58.785 35.33 55.905 36.5 53.475C37.67 51.045 39.335 49.17 41.495 47.85C43.685 46.53 46.265 45.87 49.235 45.87C52.235 45.87 54.815 46.53 56.975 47.85C59.165 49.17 60.845 51.045 62.015 53.475C63.215 55.875 63.815 58.74 63.815 62.07C63.815 65.4 63.215 68.295 62.015 70.755C60.815 73.185 59.12 75.075 56.93 76.425C54.77 77.745 52.205 78.405 49.235 78.405ZM49.235 75.12C52.625 75.12 55.25 73.98 57.11 71.7C58.97 69.42 59.9 66.225 59.9 62.115C59.9 58.005 58.97 54.825 57.11 52.575C55.25 50.295 52.625 49.155 49.235 49.155C45.905 49.155 43.31 50.295 41.45 52.575C39.59 54.825 38.66 58.005 38.66 62.115C38.66 66.195 39.59 69.39 41.45 71.7C43.31 73.98 45.905 75.12 49.235 75.12ZM69.9171 86.1V56.13H73.4721V60.045C74.1321 58.695 75.1071 57.645 76.3971 56.895C77.7171 56.115 79.2471 55.725 80.9871 55.725C82.9371 55.725 84.6321 56.19 86.0721 57.12C87.5421 58.02 88.6671 59.325 89.4471 61.035C90.2571 62.715 90.6621 64.725 90.6621 67.065C90.6621 69.375 90.2571 71.385 89.4471 73.095C88.6671 74.775 87.5421 76.08 86.0721 77.01C84.6321 77.94 82.9371 78.405 80.9871 78.405C79.3071 78.405 77.8071 78.03 76.4871 77.28C75.1671 76.53 74.1921 75.495 73.5621 74.175V86.1H69.9171ZM80.2221 75.48C82.2621 75.48 83.8971 74.76 85.1271 73.32C86.3571 71.85 86.9721 69.765 86.9721 67.065C86.9721 64.335 86.3571 62.25 85.1271 60.81C83.8971 59.37 82.2621 58.65 80.2221 58.65C78.1821 58.65 76.5471 59.37 75.3171 60.81C74.0871 62.25 73.4721 64.335 73.4721 67.065C73.4721 69.765 74.0871 71.85 75.3171 73.32C76.5471 74.76 78.1821 75.48 80.2221 75.48ZM106.007 78.405C102.557 78.405 99.8274 77.4 97.8174 75.39C95.8074 73.35 94.8024 70.59 94.8024 67.11C94.8024 64.86 95.2524 62.88 96.1524 61.17C97.0524 59.43 98.2824 58.095 99.8424 57.165C101.432 56.205 103.262 55.725 105.332 55.725C108.302 55.725 110.627 56.685 112.307 58.605C113.987 60.495 114.827 63.105 114.827 66.435V67.83H98.3574C98.4774 70.32 99.1974 72.225 100.517 73.545C101.837 74.835 103.667 75.48 106.007 75.48C107.327 75.48 108.587 75.285 109.787 74.895C110.987 74.475 112.127 73.8 113.207 72.87L114.467 75.435C113.477 76.365 112.217 77.1 110.687 77.64C109.157 78.15 107.597 78.405 106.007 78.405ZM105.422 58.425C103.352 58.425 101.717 59.07 100.517 60.36C99.3174 61.65 98.6124 63.345 98.4024 65.445H111.677C111.587 63.225 111.002 61.5 109.922 60.27C108.872 59.04 107.372 58.425 105.422 58.425ZM120.103 78V56.13H123.658V59.865C124.378 58.485 125.398 57.45 126.718 56.76C128.038 56.07 129.523 55.725 131.173 55.725C136.363 55.725 138.958 58.605 138.958 64.365V78H135.313V64.59C135.313 62.55 134.908 61.065 134.098 60.135C133.318 59.175 132.058 58.695 130.318 58.695C128.308 58.695 126.703 59.325 125.503 60.585C124.333 61.815 123.748 63.465 123.748 65.535V78H120.103Z" fill="#764ABC"/>
</svg>
