<svg xmlns="http://www.w3.org/2000/svg" width="400" height="126" fill="none" viewBox="0 0 400 126"><rect width="359" height="118" x="4" y="4" stroke="url(#paint0_linear_51_260)" stroke-width="8"/><rect width="359" height="118" x="4" y="4" stroke="#9747FF" stroke-opacity=".18" stroke-width="8"/><path fill="url(#paint1_linear_51_260)" d="M180.883 82.605C177.839 82.605 174.961 82.22 172.248 81.45C169.571 80.68 167.334 79.635 165.538 78.315L168.013 71.605C169.736 72.815 171.698 73.7683 173.898 74.465C176.134 75.1617 178.463 75.51 180.883 75.51C183.523 75.51 185.411 75.1067 186.548 74.3C187.721 73.4567 188.308 72.4117 188.308 71.165C188.308 70.1017 187.904 69.2583 187.098 68.635C186.291 68.0117 184.879 67.48 182.863 67.04L176.648 65.72C169.718 64.2533 166.253 60.66 166.253 54.94C166.253 52.4833 166.913 50.3383 168.233 48.505C169.553 46.635 171.386 45.1867 173.733 44.16C176.116 43.1333 178.866 42.62 181.983 42.62C184.659 42.62 187.171 43.005 189.518 43.775C191.864 44.545 193.808 45.6267 195.348 47.02L192.873 53.29C189.866 50.9067 186.218 49.715 181.928 49.715C179.618 49.715 177.821 50.1733 176.538 51.09C175.291 51.97 174.668 53.125 174.668 54.555C174.668 55.6183 175.053 56.48 175.823 57.14C176.593 57.8 177.931 58.3317 179.838 58.735L186.053 60.055C193.166 61.595 196.723 65.0783 196.723 70.505C196.723 72.925 196.063 75.0517 194.743 76.885C193.459 78.6817 191.626 80.0933 189.243 81.12C186.896 82.11 184.109 82.605 180.883 82.605ZM203.149 91.9L208.319 80.515L197.209 54.995H205.954L212.719 72.155L219.704 54.995H227.954L211.619 91.9H203.149ZM240.188 82.605C237.804 82.605 235.586 82.33 233.533 81.78C231.479 81.23 229.774 80.4783 228.418 79.525L230.398 74.135C231.754 74.9783 233.294 75.6567 235.018 76.17C236.778 76.6467 238.519 76.885 240.243 76.885C241.783 76.885 242.919 76.6467 243.653 76.17C244.386 75.6567 244.753 74.9967 244.753 74.19C244.753 72.9067 243.818 72.1 241.948 71.77L236.173 70.725C233.863 70.3217 232.103 69.4967 230.893 68.25C229.683 67.0033 229.078 65.3717 229.078 63.355C229.078 61.5217 229.591 59.945 230.618 58.625C231.644 57.305 233.056 56.2783 234.853 55.545C236.649 54.8117 238.721 54.445 241.068 54.445C243.011 54.445 244.899 54.7017 246.733 55.215C248.566 55.6917 250.143 56.4617 251.463 57.525L249.373 62.86C248.273 62.0533 246.953 61.3933 245.413 60.88C243.909 60.3667 242.498 60.11 241.178 60.11C239.528 60.11 238.336 60.385 237.603 60.935C236.869 61.4483 236.503 62.1083 236.503 62.915C236.503 64.1983 237.364 65.005 239.088 65.335L244.863 66.38C247.246 66.7833 249.061 67.59 250.308 68.8C251.554 69.9733 252.178 71.5867 252.178 73.64C252.178 76.4633 251.078 78.6633 248.878 80.24C246.678 81.8167 243.781 82.605 240.188 82.605ZM269.904 82.605C262.314 82.605 258.519 78.92 258.519 71.55V61.21H253.404V54.995H258.519V47.075H266.824V54.995H274.799V61.21H266.824V71.22C266.824 72.76 267.173 73.915 267.869 74.685C268.603 75.455 269.758 75.84 271.334 75.84C271.811 75.84 272.306 75.785 272.819 75.675C273.369 75.565 273.956 75.4183 274.579 75.235L275.789 81.285C275.019 81.6883 274.103 82 273.039 82.22C271.976 82.4767 270.931 82.605 269.904 82.605ZM292.642 82.605C289.452 82.605 286.702 82.0367 284.392 80.9C282.119 79.7267 280.359 78.095 279.112 76.005C277.902 73.8783 277.297 71.385 277.297 68.525C277.297 65.7383 277.884 63.3 279.057 61.21C280.267 59.0833 281.899 57.4333 283.952 56.26C286.042 55.05 288.444 54.445 291.157 54.445C295.081 54.445 298.197 55.6917 300.507 58.185C302.817 60.6417 303.972 63.9783 303.972 68.195V70.285H285.217C285.511 72.4117 286.281 73.97 287.527 74.96C288.811 75.9133 290.571 76.39 292.807 76.39C294.274 76.39 295.759 76.17 297.262 75.73C298.766 75.29 300.122 74.6117 301.332 73.695L303.532 79.25C302.176 80.2767 300.507 81.1017 298.527 81.725C296.584 82.3117 294.622 82.605 292.642 82.605ZM291.487 59.945C289.727 59.945 288.297 60.4767 287.197 61.54C286.134 62.6033 285.474 64.0883 285.217 65.995H297.097C296.877 61.9617 295.007 59.945 291.487 59.945ZM308.913 82V54.995H317.053V58.9C317.859 57.5067 318.959 56.425 320.353 55.655C321.783 54.8483 323.433 54.445 325.303 54.445C327.209 54.445 328.823 54.8667 330.143 55.71C331.499 56.5533 332.526 57.8367 333.223 59.56C334.066 57.9467 335.276 56.7 336.853 55.82C338.466 54.9033 340.244 54.445 342.188 54.445C345.268 54.445 347.559 55.38 349.063 57.25C350.566 59.0833 351.318 61.925 351.318 65.775V82H343.013V66.05C343.013 64.2533 342.719 62.9517 342.133 62.145C341.583 61.3017 340.629 60.88 339.273 60.88C337.696 60.88 336.468 61.43 335.588 62.53C334.708 63.63 334.268 65.1883 334.268 67.205V82H325.963V66.05C325.963 64.2533 325.669 62.9517 325.083 62.145C324.496 61.3017 323.543 60.88 322.223 60.88C320.646 60.88 319.418 61.43 318.538 62.53C317.658 63.63 317.218 65.1883 317.218 67.205V82H308.913Z"/><path fill="#9747FF" fill-opacity=".18" d="M180.883 82.605C177.839 82.605 174.961 82.22 172.248 81.45C169.571 80.68 167.334 79.635 165.538 78.315L168.013 71.605C169.736 72.815 171.698 73.7683 173.898 74.465C176.134 75.1617 178.463 75.51 180.883 75.51C183.523 75.51 185.411 75.1067 186.548 74.3C187.721 73.4567 188.308 72.4117 188.308 71.165C188.308 70.1017 187.904 69.2583 187.098 68.635C186.291 68.0117 184.879 67.48 182.863 67.04L176.648 65.72C169.718 64.2533 166.253 60.66 166.253 54.94C166.253 52.4833 166.913 50.3383 168.233 48.505C169.553 46.635 171.386 45.1867 173.733 44.16C176.116 43.1333 178.866 42.62 181.983 42.62C184.659 42.62 187.171 43.005 189.518 43.775C191.864 44.545 193.808 45.6267 195.348 47.02L192.873 53.29C189.866 50.9067 186.218 49.715 181.928 49.715C179.618 49.715 177.821 50.1733 176.538 51.09C175.291 51.97 174.668 53.125 174.668 54.555C174.668 55.6183 175.053 56.48 175.823 57.14C176.593 57.8 177.931 58.3317 179.838 58.735L186.053 60.055C193.166 61.595 196.723 65.0783 196.723 70.505C196.723 72.925 196.063 75.0517 194.743 76.885C193.459 78.6817 191.626 80.0933 189.243 81.12C186.896 82.11 184.109 82.605 180.883 82.605ZM203.149 91.9L208.319 80.515L197.209 54.995H205.954L212.719 72.155L219.704 54.995H227.954L211.619 91.9H203.149ZM240.188 82.605C237.804 82.605 235.586 82.33 233.533 81.78C231.479 81.23 229.774 80.4783 228.418 79.525L230.398 74.135C231.754 74.9783 233.294 75.6567 235.018 76.17C236.778 76.6467 238.519 76.885 240.243 76.885C241.783 76.885 242.919 76.6467 243.653 76.17C244.386 75.6567 244.753 74.9967 244.753 74.19C244.753 72.9067 243.818 72.1 241.948 71.77L236.173 70.725C233.863 70.3217 232.103 69.4967 230.893 68.25C229.683 67.0033 229.078 65.3717 229.078 63.355C229.078 61.5217 229.591 59.945 230.618 58.625C231.644 57.305 233.056 56.2783 234.853 55.545C236.649 54.8117 238.721 54.445 241.068 54.445C243.011 54.445 244.899 54.7017 246.733 55.215C248.566 55.6917 250.143 56.4617 251.463 57.525L249.373 62.86C248.273 62.0533 246.953 61.3933 245.413 60.88C243.909 60.3667 242.498 60.11 241.178 60.11C239.528 60.11 238.336 60.385 237.603 60.935C236.869 61.4483 236.503 62.1083 236.503 62.915C236.503 64.1983 237.364 65.005 239.088 65.335L244.863 66.38C247.246 66.7833 249.061 67.59 250.308 68.8C251.554 69.9733 252.178 71.5867 252.178 73.64C252.178 76.4633 251.078 78.6633 248.878 80.24C246.678 81.8167 243.781 82.605 240.188 82.605ZM269.904 82.605C262.314 82.605 258.519 78.92 258.519 71.55V61.21H253.404V54.995H258.519V47.075H266.824V54.995H274.799V61.21H266.824V71.22C266.824 72.76 267.173 73.915 267.869 74.685C268.603 75.455 269.758 75.84 271.334 75.84C271.811 75.84 272.306 75.785 272.819 75.675C273.369 75.565 273.956 75.4183 274.579 75.235L275.789 81.285C275.019 81.6883 274.103 82 273.039 82.22C271.976 82.4767 270.931 82.605 269.904 82.605ZM292.642 82.605C289.452 82.605 286.702 82.0367 284.392 80.9C282.119 79.7267 280.359 78.095 279.112 76.005C277.902 73.8783 277.297 71.385 277.297 68.525C277.297 65.7383 277.884 63.3 279.057 61.21C280.267 59.0833 281.899 57.4333 283.952 56.26C286.042 55.05 288.444 54.445 291.157 54.445C295.081 54.445 298.197 55.6917 300.507 58.185C302.817 60.6417 303.972 63.9783 303.972 68.195V70.285H285.217C285.511 72.4117 286.281 73.97 287.527 74.96C288.811 75.9133 290.571 76.39 292.807 76.39C294.274 76.39 295.759 76.17 297.262 75.73C298.766 75.29 300.122 74.6117 301.332 73.695L303.532 79.25C302.176 80.2767 300.507 81.1017 298.527 81.725C296.584 82.3117 294.622 82.605 292.642 82.605ZM291.487 59.945C289.727 59.945 288.297 60.4767 287.197 61.54C286.134 62.6033 285.474 64.0883 285.217 65.995H297.097C296.877 61.9617 295.007 59.945 291.487 59.945ZM308.913 82V54.995H317.053V58.9C317.859 57.5067 318.959 56.425 320.353 55.655C321.783 54.8483 323.433 54.445 325.303 54.445C327.209 54.445 328.823 54.8667 330.143 55.71C331.499 56.5533 332.526 57.8367 333.223 59.56C334.066 57.9467 335.276 56.7 336.853 55.82C338.466 54.9033 340.244 54.445 342.188 54.445C345.268 54.445 347.559 55.38 349.063 57.25C350.566 59.0833 351.318 61.925 351.318 65.775V82H343.013V66.05C343.013 64.2533 342.719 62.9517 342.133 62.145C341.583 61.3017 340.629 60.88 339.273 60.88C337.696 60.88 336.468 61.43 335.588 62.53C334.708 63.63 334.268 65.1883 334.268 67.205V82H325.963V66.05C325.963 64.2533 325.669 62.9517 325.083 62.145C324.496 61.3017 323.543 60.88 322.223 60.88C320.646 60.88 319.418 61.43 318.538 62.53C317.658 63.63 317.218 65.1883 317.218 67.205V82H308.913Z"/><rect width="142" height="100" x="16" y="13" fill="url(#paint2_linear_51_260)"/><rect width="142" height="100" x="16" y="13" fill="#9747FF" fill-opacity=".18"/><path fill="#fff" d="M47.46 78.405C44.43 78.405 41.805 77.745 39.585 76.425C37.365 75.075 35.64 73.185 34.41 70.755C33.21 68.295 32.61 65.415 32.61 62.115C32.61 58.785 33.21 55.905 34.41 53.475C35.64 51.045 37.365 49.17 39.585 47.85C41.805 46.53 44.43 45.87 47.46 45.87C50.46 45.87 53.07 46.53 55.29 47.85C57.54 49.17 59.265 51.045 60.465 53.475C61.695 55.905 62.31 58.77 62.31 62.07C62.31 65.4 61.695 68.295 60.465 70.755C59.265 73.185 57.54 75.075 55.29 76.425C53.07 77.745 50.46 78.405 47.46 78.405ZM47.46 74.355C50.61 74.355 53.055 73.29 54.795 71.16C56.565 69 57.45 65.985 57.45 62.115C57.45 58.245 56.58 55.245 54.84 53.115C53.1 50.985 50.64 49.92 47.46 49.92C44.31 49.92 41.85 50.985 40.08 53.115C38.34 55.245 37.47 58.245 37.47 62.115C37.47 65.985 38.34 69 40.08 71.16C41.85 73.29 44.31 74.355 47.46 74.355ZM68.0876 86.1V56.04H72.5426V59.775C73.1726 58.515 74.1326 57.51 75.4226 56.76C76.7126 56.01 78.1976 55.635 79.8776 55.635C81.8276 55.635 83.5226 56.1 84.9626 57.03C86.4326 57.96 87.5576 59.28 88.3376 60.99C89.1476 62.67 89.5526 64.68 89.5526 67.02C89.5526 69.36 89.1476 71.385 88.3376 73.095C87.5576 74.805 86.4326 76.125 84.9626 77.055C83.5226 77.955 81.8276 78.405 79.8776 78.405C78.2576 78.405 76.8026 78.06 75.5126 77.37C74.2526 76.65 73.2926 75.675 72.6326 74.445V86.1H68.0876ZM78.7526 74.895C80.6426 74.895 82.1426 74.22 83.2526 72.87C84.3926 71.52 84.9626 69.57 84.9626 67.02C84.9626 64.47 84.3926 62.535 83.2526 61.215C82.1426 59.865 80.6426 59.19 78.7526 59.19C76.8626 59.19 75.3476 59.865 74.2076 61.215C73.0976 62.535 72.5426 64.47 72.5426 67.02C72.5426 69.57 73.0976 71.52 74.2076 72.87C75.3476 74.22 76.8626 74.895 78.7526 74.895ZM104.979 78.405C101.379 78.405 98.5445 77.4 96.4745 75.39C94.4045 73.35 93.3695 70.575 93.3695 67.065C93.3695 64.815 93.8195 62.835 94.7195 61.125C95.6495 59.385 96.9245 58.035 98.5445 57.075C100.164 56.115 102.024 55.635 104.124 55.635C107.154 55.635 109.539 56.61 111.279 58.56C113.019 60.48 113.889 63.135 113.889 66.525V68.055H97.7795C98.1095 72.615 100.524 74.895 105.024 74.895C106.284 74.895 107.514 74.7 108.714 74.31C109.944 73.92 111.099 73.275 112.179 72.375L113.529 75.525C112.539 76.425 111.264 77.13 109.704 77.64C108.144 78.15 106.569 78.405 104.979 78.405ZM104.304 58.83C102.414 58.83 100.914 59.415 99.8045 60.585C98.6945 61.755 98.0195 63.315 97.7795 65.265H110.064C109.974 63.225 109.434 61.65 108.444 60.54C107.454 59.4 106.074 58.83 104.304 58.83ZM118.844 78V56.04H123.254V59.685C124.004 58.365 125.024 57.36 126.314 56.67C127.634 55.98 129.104 55.635 130.724 55.635C135.914 55.635 138.509 58.575 138.509 64.455V78H133.964V64.725C133.964 62.835 133.589 61.455 132.839 60.585C132.119 59.715 130.979 59.28 129.419 59.28C127.589 59.28 126.119 59.865 125.009 61.035C123.929 62.175 123.389 63.69 123.389 65.58V78H118.844Z"/><defs><linearGradient id="paint0_linear_51_260" x1="183.5" x2="183.5" y1="0" y2="126" gradientUnits="userSpaceOnUse"><stop stop-color="#2B2347" stop-opacity=".81"/><stop offset="1" stop-color="#212132"/></linearGradient><linearGradient id="paint1_linear_51_260" x1="276.059" x2="276.059" y1="56" y2="83" gradientUnits="userSpaceOnUse"><stop stop-color="#2B2347" stop-opacity=".81"/><stop offset="1" stop-color="#212132"/></linearGradient><linearGradient id="paint2_linear_51_260" x1="87" x2="87" y1="13" y2="113" gradientUnits="userSpaceOnUse"><stop stop-color="#2B2347" stop-opacity=".81"/><stop offset="1" stop-color="#212132"/></linearGradient></defs></svg>