<svg width="340" height="126" viewBox="0 0 340 126" fill="none" xmlns="http://www.w3.org/2000/svg">
<rect x="3.5" y="3.5" width="333" height="119" stroke="#10B981" stroke-width="7"/>
<path d="M179.535 79.495C177.045 79.495 174.69 79.18 172.47 78.55C170.28 77.92 168.45 77.065 166.98 75.985L169.005 70.495C170.415 71.485 172.02 72.265 173.82 72.835C175.65 73.405 177.555 73.69 179.535 73.69C181.695 73.69 183.24 73.36 184.17 72.7C185.13 72.01 185.61 71.155 185.61 70.135C185.61 69.265 185.28 68.575 184.62 68.065C183.96 67.555 182.805 67.12 181.155 66.76L176.07 65.68C170.4 64.48 167.565 61.54 167.565 56.86C167.565 54.85 168.105 53.095 169.185 51.595C170.265 50.065 171.765 48.88 173.685 48.04C175.635 47.2 177.885 46.78 180.435 46.78C182.625 46.78 184.68 47.095 186.6 47.725C188.52 48.355 190.11 49.24 191.37 50.38L189.345 55.51C186.885 53.56 183.9 52.585 180.39 52.585C178.5 52.585 177.03 52.96 175.98 53.71C174.96 54.43 174.45 55.375 174.45 56.545C174.45 57.415 174.765 58.12 175.395 58.66C176.025 59.2 177.12 59.635 178.68 59.965L183.765 61.045C189.585 62.305 192.495 65.155 192.495 69.595C192.495 71.575 191.955 73.315 190.875 74.815C189.825 76.285 188.325 77.44 186.375 78.28C184.455 79.09 182.175 79.495 179.535 79.495ZM197.753 87.1L201.983 77.785L192.893 56.905H200.048L205.583 70.945L211.298 56.905H218.048L204.683 87.1H197.753ZM228.057 79.495C226.107 79.495 224.292 79.27 222.612 78.82C220.932 78.37 219.537 77.755 218.427 76.975L220.047 72.565C221.157 73.255 222.417 73.81 223.827 74.23C225.267 74.62 226.692 74.815 228.102 74.815C229.362 74.815 230.292 74.62 230.892 74.23C231.492 73.81 231.792 73.27 231.792 72.61C231.792 71.56 231.027 70.9 229.497 70.63L224.772 69.775C222.882 69.445 221.442 68.77 220.452 67.75C219.462 66.73 218.967 65.395 218.967 63.745C218.967 62.245 219.387 60.955 220.227 59.875C221.067 58.795 222.222 57.955 223.692 57.355C225.162 56.755 226.857 56.455 228.777 56.455C230.367 56.455 231.912 56.665 233.412 57.085C234.912 57.475 236.202 58.105 237.282 58.975L235.572 63.34C234.672 62.68 233.592 62.14 232.332 61.72C231.102 61.3 229.947 61.09 228.867 61.09C227.517 61.09 226.542 61.315 225.942 61.765C225.342 62.185 225.042 62.725 225.042 63.385C225.042 64.435 225.747 65.095 227.157 65.365L231.882 66.22C233.832 66.55 235.317 67.21 236.337 68.2C237.357 69.16 237.867 70.48 237.867 72.16C237.867 74.47 236.967 76.27 235.167 77.56C233.367 78.85 230.997 79.495 228.057 79.495ZM252.371 79.495C246.161 79.495 243.056 76.48 243.056 70.45V61.99H238.871V56.905H243.056V50.425H249.851V56.905H256.376V61.99H249.851V70.18C249.851 71.44 250.136 72.385 250.706 73.015C251.306 73.645 252.251 73.96 253.541 73.96C253.931 73.96 254.336 73.915 254.756 73.825C255.206 73.735 255.686 73.615 256.196 73.465L257.186 78.415C256.556 78.745 255.806 79 254.936 79.18C254.066 79.39 253.211 79.495 252.371 79.495ZM270.975 79.495C268.365 79.495 266.115 79.03 264.225 78.1C262.365 77.14 260.925 75.805 259.905 74.095C258.915 72.355 258.42 70.315 258.42 67.975C258.42 65.695 258.9 63.7 259.86 61.99C260.85 60.25 262.185 58.9 263.865 57.94C265.575 56.95 267.54 56.455 269.76 56.455C272.97 56.455 275.52 57.475 277.41 59.515C279.3 61.525 280.245 64.255 280.245 67.705V69.415H264.9C265.14 71.155 265.77 72.43 266.79 73.24C267.84 74.02 269.28 74.41 271.11 74.41C272.31 74.41 273.525 74.23 274.755 73.87C275.985 73.51 277.095 72.955 278.085 72.205L279.885 76.75C278.775 77.59 277.41 78.265 275.79 78.775C274.2 79.255 272.595 79.495 270.975 79.495ZM270.03 60.955C268.59 60.955 267.42 61.39 266.52 62.26C265.65 63.13 265.11 64.345 264.9 65.905H274.62C274.44 62.605 272.91 60.955 270.03 60.955ZM284.287 79V56.905H290.947V60.1C291.607 58.96 292.507 58.075 293.647 57.445C294.817 56.785 296.167 56.455 297.697 56.455C299.257 56.455 300.577 56.8 301.657 57.49C302.767 58.18 303.607 59.23 304.177 60.64C304.867 59.32 305.857 58.3 307.147 57.58C308.467 56.83 309.922 56.455 311.512 56.455C314.032 56.455 315.907 57.22 317.137 58.75C318.367 60.25 318.982 62.575 318.982 65.725V79H312.187V65.95C312.187 64.48 311.947 63.415 311.467 62.755C311.017 62.065 310.237 61.72 309.127 61.72C307.837 61.72 306.832 62.17 306.112 63.07C305.392 63.97 305.032 65.245 305.032 66.895V79H298.237V65.95C298.237 64.48 297.997 63.415 297.517 62.755C297.037 62.065 296.257 61.72 295.177 61.72C293.887 61.72 292.882 62.17 292.162 63.07C291.442 63.97 291.082 65.245 291.082 66.895V79H284.287Z" fill="#10B981"/>
<rect x="14" y="13" width="144" height="100" fill="#10B981"/>
<path d="M42.91 77.495C39.79 77.495 37.045 76.82 34.675 75.47C32.335 74.09 30.505 72.185 29.185 69.755C27.895 67.295 27.25 64.415 27.25 61.115C27.25 57.815 27.895 54.95 29.185 52.52C30.505 50.06 32.335 48.155 34.675 46.805C37.015 45.455 39.76 44.78 42.91 44.78C46.06 44.78 48.805 45.455 51.145 46.805C53.515 48.155 55.345 50.06 56.635 52.52C57.955 54.95 58.615 57.8 58.615 61.07C58.615 64.37 57.955 67.25 56.635 69.71C55.345 72.17 53.515 74.09 51.145 75.47C48.805 76.82 46.06 77.495 42.91 77.495ZM42.91 71.555C45.55 71.555 47.605 70.64 49.075 68.81C50.575 66.95 51.325 64.385 51.325 61.115C51.325 57.815 50.59 55.265 49.12 53.465C47.65 51.635 45.58 50.72 42.91 50.72C40.3 50.72 38.245 51.635 36.745 53.465C35.275 55.265 34.54 57.815 34.54 61.115C34.54 64.385 35.275 66.95 36.745 68.81C38.245 70.64 40.3 71.555 42.91 71.555ZM63.4254 85.1V54.905H70.0854V58.19C70.6854 57.05 71.6004 56.15 72.8304 55.49C74.0904 54.8 75.5004 54.455 77.0604 54.455C78.9804 54.455 80.6604 54.92 82.1004 55.85C83.5704 56.78 84.7104 58.1 85.5204 59.81C86.3304 61.52 86.7354 63.56 86.7354 65.93C86.7354 68.3 86.3304 70.355 85.5204 72.095C84.7104 73.805 83.5704 75.14 82.1004 76.1C80.6604 77.03 78.9804 77.495 77.0604 77.495C75.5904 77.495 74.2404 77.18 73.0104 76.55C71.8104 75.92 70.8804 75.08 70.2204 74.03V85.1H63.4254ZM75.0354 72.41C76.4754 72.41 77.6454 71.885 78.5454 70.835C79.4454 69.785 79.8954 68.15 79.8954 65.93C79.8954 63.74 79.4454 62.135 78.5454 61.115C77.6454 60.065 76.4754 59.54 75.0354 59.54C73.5654 59.54 72.3804 60.065 71.4804 61.115C70.5804 62.135 70.1304 63.74 70.1304 65.93C70.1304 68.15 70.5804 69.785 71.4804 70.835C72.3804 71.885 73.5654 72.41 75.0354 72.41ZM102.366 77.495C99.7563 77.495 97.5063 77.03 95.6163 76.1C93.7563 75.14 92.3163 73.805 91.2963 72.095C90.3063 70.355 89.8113 68.315 89.8113 65.975C89.8113 63.695 90.2913 61.7 91.2512 59.99C92.2413 58.25 93.5763 56.9 95.2563 55.94C96.9663 54.95 98.9313 54.455 101.151 54.455C104.361 54.455 106.911 55.475 108.801 57.515C110.691 59.525 111.636 62.255 111.636 65.705V67.415H96.2913C96.5313 69.155 97.1613 70.43 98.1813 71.24C99.2313 72.02 100.671 72.41 102.501 72.41C103.701 72.41 104.916 72.23 106.146 71.87C107.376 71.51 108.486 70.955 109.476 70.205L111.276 74.75C110.166 75.59 108.801 76.265 107.181 76.775C105.591 77.255 103.986 77.495 102.366 77.495ZM101.421 58.955C99.9813 58.955 98.8113 59.39 97.9113 60.26C97.0413 61.13 96.5013 62.345 96.2913 63.905H106.011C105.831 60.605 104.301 58.955 101.421 58.955ZM115.589 77V54.905H122.249V58.145C122.999 56.945 124.004 56.03 125.264 55.4C126.524 54.77 127.934 54.455 129.494 54.455C132.104 54.455 134.054 55.22 135.344 56.75C136.634 58.25 137.279 60.575 137.279 63.725V77H130.484V64.04C130.484 62.51 130.199 61.415 129.629 60.755C129.059 60.065 128.219 59.72 127.109 59.72C125.669 59.72 124.514 60.17 123.644 61.07C122.804 61.97 122.384 63.17 122.384 64.67V77H115.589Z" fill="white"/>
</svg>
