<svg width="89" height="71" viewBox="0 0 89 71" fill="none" xmlns="http://www.w3.org/2000/svg">
<rect x="2.5" y="2.5" width="84" height="66" stroke="url(#paint0_linear_305_296)" stroke-width="5"/>
<rect x="2.5" y="2.5" width="84" height="66" stroke="#9747FF" stroke-opacity="0.18" stroke-width="5"/>
<rect x="12" y="10" width="50" height="49" fill="url(#paint1_linear_305_296)"/>
<rect x="12" y="10" width="50" height="49" fill="#9747FF" fill-opacity="0.18"/>
<path d="M20.195 50V18.275H34.685C38.225 18.275 40.955 19.175 42.875 20.975C44.795 22.745 45.755 25.22 45.755 28.4C45.755 31.58 44.795 34.07 42.875 35.87C40.955 37.67 38.225 38.57 34.685 38.57H27.17V50H20.195ZM27.17 33.17H33.515C37.205 33.17 39.05 31.58 39.05 28.4C39.05 25.28 37.205 23.72 33.515 23.72H27.17V33.17ZM61.4178 50.495C58.9278 50.495 56.5728 50.18 54.3528 49.55C52.1628 48.92 50.3328 48.065 48.8628 46.985L50.8878 41.495C52.2978 42.485 53.9028 43.265 55.7028 43.835C57.5328 44.405 59.4378 44.69 61.4178 44.69C63.5778 44.69 65.1228 44.36 66.0528 43.7C67.0128 43.01 67.4928 42.155 67.4928 41.135C67.4928 40.265 67.1628 39.575 66.5028 39.065C65.8428 38.555 64.6878 38.12 63.0378 37.76L57.9528 36.68C52.2828 35.48 49.4478 32.54 49.4478 27.86C49.4478 25.85 49.9878 24.095 51.0678 22.595C52.1478 21.065 53.6478 19.88 55.5678 19.04C57.5178 18.2 59.7678 17.78 62.3178 17.78C64.5078 17.78 66.5628 18.095 68.4828 18.725C70.4028 19.355 71.9928 20.24 73.2528 21.38L71.2278 26.51C68.7678 24.56 65.7828 23.585 62.2728 23.585C60.3828 23.585 58.9128 23.96 57.8628 24.71C56.8428 25.43 56.3328 26.375 56.3328 27.545C56.3328 28.415 56.6478 29.12 57.2778 29.66C57.9078 30.2 59.0028 30.635 60.5628 30.965L65.6478 32.045C71.4678 33.305 74.3778 36.155 74.3778 40.595C74.3778 42.575 73.8378 44.315 72.7578 45.815C71.7078 47.285 70.2078 48.44 68.2578 49.28C66.3378 50.09 64.0578 50.495 61.4178 50.495Z" fill="#1EA7FD"/>
<defs>
<linearGradient id="paint0_linear_305_296" x1="44.5" y1="0" x2="44.5" y2="71" gradientUnits="userSpaceOnUse">
<stop stop-color="#2B2347" stop-opacity="0.81"/>
<stop offset="1" stop-color="#212132"/>
</linearGradient>
<linearGradient id="paint1_linear_305_296" x1="37" y1="10" x2="37" y2="59" gradientUnits="userSpaceOnUse">
<stop stop-color="#2B2347" stop-opacity="0.81"/>
<stop offset="1" stop-color="#212132"/>
</linearGradient>
</defs>
</svg>
