
                    <svg class="w-10 h-10" viewBox="0 0 203 204" fill="none" xmlns="http://www.w3.org/2000/svg">
                      <path d="M153.719 153.396L67.0482 153.396C65.6173 153.396 64.493 152.272 64.5952 150.943L64.5952 64.2719C64.5952 62.841 65.7195 61.7168 67.0481 61.819L153.719 61.819C155.15 61.819 156.274 62.9432 156.172 64.2719L156.172 150.943C156.172 152.374 155.048 153.498 153.719 153.396Z" stroke="currentColor" stroke-width="1.7707" stroke-miterlimit="10"></path>
                      <path d="M153.719 153.396L67.0482 153.396C65.6173 153.396 64.493 152.272 64.5952 150.943L64.5952 64.2719C64.5952 62.841 65.7195 61.7168 67.0481 61.819L153.719 61.819C155.15 61.819 156.274 62.9432 156.172 64.2719L156.172 150.943C156.172 152.374 155.048 153.498 153.719 153.396Z" stroke="currentColor" stroke-opacity="0.2" stroke-width="1.7707" stroke-miterlimit="10"></path>
                      <path d="M53.3513 48.7364C53.9158 48.1719 53.9158 47.2568 53.3513 46.6923C52.7869 46.1278 51.8717 46.1278 51.3072 46.6923C50.7427 47.2568 50.7427 48.1719 51.3072 48.7364C51.8717 49.3009 52.7869 49.3009 53.3513 48.7364Z" fill="#9D9D9D"></path>
                      <path d="M76.3481 47.8164C76.3481 48.634 75.7348 49.2473 74.9172 49.2473C74.0995 49.2473 73.4863 48.6341 73.4863 47.8164C73.4863 46.9988 74.0995 46.3855 74.9172 46.3855C75.6326 46.2833 76.3481 46.9987 76.3481 47.8164Z" fill="#9D9D9D"></path>
                      <path d="M98.8334 47.8164C98.8334 48.634 98.2202 49.2473 97.4025 49.2473C96.5849 49.2473 95.9716 48.6341 95.9716 47.8164C95.9716 46.9988 96.5849 46.3855 97.4026 46.3855C98.118 46.2833 98.8334 46.9987 98.8334 47.8164Z" fill="#9D9D9D"></path>
                      <path d="M121.319 47.8164C121.319 48.634 120.706 49.2473 119.888 49.2473C119.07 49.2473 118.457 48.6341 118.457 47.8164C118.457 46.9988 119.07 46.3855 119.888 46.3855C120.603 46.2833 121.319 46.9987 121.319 47.8164Z" fill="#9D9D9D"></path>
                      <path d="M143.395 48.8385C143.96 48.274 143.96 47.3588 143.395 46.7943C142.831 46.2299 141.916 46.2299 141.351 46.7943C140.787 47.3588 140.787 48.274 141.351 48.8385C141.916 49.4029 142.831 49.4029 143.395 48.8385Z" fill="#9D9D9D"></path>
                      <path d="M53.7621 67.9512C53.7621 68.7688 53.1489 69.3821 52.3312 69.3821C51.5136 69.3821 50.9003 68.7688 50.9003 67.9512C50.9003 67.1335 51.5136 66.5203 52.3312 66.5203C53.1489 66.5203 53.7621 67.1335 53.7621 67.9512Z" fill="#9D9D9D"></path>
                      <path d="M75.8387 68.9732C76.4031 68.4088 76.4031 67.4936 75.8387 66.9291C75.2742 66.3646 74.359 66.3646 73.7945 66.9291C73.2301 67.4936 73.2301 68.4088 73.7945 68.9732C74.359 69.5377 75.2742 69.5377 75.8387 68.9732Z" fill="#9D9D9D"></path>
                      <path d="M98.324 68.9732C98.8885 68.4088 98.8885 67.4936 98.324 66.9291C97.7595 66.3646 96.8443 66.3646 96.2799 66.9291C95.7154 67.4936 95.7154 68.4088 96.2799 68.9732C96.8443 69.5377 97.7595 69.5377 98.324 68.9732Z" fill="#9D9D9D"></path>
                      <path d="M120.809 68.9732C121.374 68.4088 121.374 67.4936 120.809 66.9291C120.245 66.3646 119.33 66.3646 118.765 66.9291C118.201 67.4936 118.201 68.4088 118.765 68.9732C119.33 69.5377 120.245 69.5377 120.809 68.9732Z" fill="#9D9D9D"></path>
                      <path d="M143.397 68.8712C143.962 68.3067 143.962 67.3915 143.397 66.8271C142.833 66.2626 141.918 66.2626 141.353 66.8271C140.789 67.3915 140.789 68.3067 141.353 68.8712C141.918 69.4357 142.833 69.4357 143.397 68.8712Z" fill="#9D9D9D"></path>
                      <path d="M53.7621 87.9839C53.7621 88.8015 53.1489 89.4148 52.3312 89.4148C51.5136 89.4148 50.9003 88.8015 50.9003 87.9839C50.9003 87.1662 51.5136 86.553 52.3313 86.553C53.1489 86.553 53.7621 87.1662 53.7621 87.9839Z" fill="#9D9D9D"></path>
                      <path d="M75.8387 89.006C76.4031 88.4415 76.4031 87.5263 75.8387 86.9618C75.2742 86.3974 74.359 86.3974 73.7945 86.9618C73.2301 87.5263 73.2301 88.4415 73.7945 89.006C74.359 89.5704 75.2742 89.5704 75.8387 89.006Z" fill="#9D9D9D"></path>
                      <path d="M98.324 89.006C98.8885 88.4415 98.8885 87.5263 98.324 86.9618C97.7595 86.3974 96.8443 86.3974 96.2799 86.9618C95.7154 87.5263 95.7154 88.4415 96.2799 89.006C96.8443 89.5704 97.7595 89.5704 98.324 89.006Z" fill="#9D9D9D"></path>
                      <path d="M120.809 89.0059C121.374 88.4415 121.374 87.5263 120.809 86.9618C120.245 86.3973 119.33 86.3974 118.765 86.9618C118.201 87.5263 118.201 88.4415 118.765 89.0059C119.33 89.5704 120.245 89.5704 120.809 89.0059Z" fill="#9D9D9D"></path>
                      <path d="M143.704 87.9839C143.704 88.8015 143.09 89.4148 142.273 89.4148C141.455 89.4148 140.842 88.8015 140.842 87.9839C140.842 87.1662 141.455 86.553 142.273 86.553C143.09 86.553 143.704 87.1662 143.704 87.9839Z" fill="#9D9D9D"></path>
                      <path d="M53.7621 108.016C53.7621 108.834 53.1489 109.447 52.3312 109.447C51.5136 109.447 50.9003 108.834 50.9003 108.016C50.9003 107.198 51.5136 106.585 52.3312 106.585C53.1489 106.585 53.8643 107.301 53.7621 108.016Z" fill="#9D9D9D"></path>
                      <path d="M76.35 108.118C76.35 108.936 75.7368 109.549 74.9191 109.549C74.1015 109.549 73.4882 108.936 73.4882 108.118C73.4882 107.301 74.1015 106.687 74.9191 106.687C75.6346 106.585 76.35 107.301 76.35 108.118Z" fill="#9D9D9D"></path>
                      <path d="M98.4266 109.14C98.991 108.576 98.991 107.661 98.4265 107.096C97.8621 106.532 96.9469 106.532 96.3824 107.096C95.8179 107.661 95.8179 108.576 96.3824 109.14C96.9469 109.705 97.8621 109.705 98.4266 109.14Z" fill="#9D9D9D"></path>
                      <path d="M121.321 108.118C121.321 108.936 120.707 109.549 119.89 109.549C119.072 109.549 118.459 108.936 118.459 108.118C118.459 107.301 119.072 106.687 119.89 106.687C120.605 106.585 121.321 107.301 121.321 108.118Z" fill="#9D9D9D"></path>
                      <path d="M143.806 108.118C143.806 108.936 143.193 109.549 142.375 109.549C141.558 109.549 140.944 108.936 140.944 108.118C140.944 107.301 141.558 106.687 142.375 106.687C143.193 106.687 143.806 107.3 143.806 108.118Z" fill="#9D9D9D"></path>
                      <path d="M53.7621 128.253C53.7621 129.071 53.1489 129.684 52.3312 129.684C51.5136 129.684 50.9003 129.071 50.9003 128.253C50.9003 127.435 51.5136 126.822 52.3312 126.822C53.1489 126.822 53.7621 127.435 53.7621 128.253Z" fill="#9D9D9D"></path>
                      <path d="M75.8387 129.275C76.4031 128.711 76.4031 127.795 75.8387 127.231C75.2742 126.666 74.359 126.666 73.7945 127.231C73.2301 127.795 73.2301 128.711 73.7945 129.275C74.359 129.839 75.2742 129.839 75.8387 129.275Z" fill="#9D9D9D"></path>
                      <path d="M98.324 129.275C98.8885 128.711 98.8885 127.795 98.324 127.231C97.7595 126.666 96.8443 126.666 96.2799 127.231C95.7154 127.795 95.7154 128.711 96.2799 129.275C96.8443 129.839 97.7595 129.839 98.324 129.275Z" fill="#9D9D9D"></path>
                      <path d="M120.809 129.275C121.374 128.711 121.374 127.795 120.809 127.231C120.245 126.666 119.33 126.666 118.765 127.231C118.201 127.795 118.201 128.711 118.765 129.275C119.33 129.839 120.245 129.839 120.809 129.275Z" fill="#9D9D9D"></path>
                      <path d="M143.806 128.151C143.806 128.969 143.193 129.582 142.375 129.582C141.558 129.582 140.944 128.969 140.944 128.151C140.944 127.333 141.558 126.72 142.375 126.72C143.091 126.822 143.704 127.435 143.806 128.151Z" fill="#9D9D9D"></path>
                      <path d="M53.7602 148.286C53.7602 149.103 53.1469 149.717 52.3293 149.717C51.5116 149.717 50.8984 149.103 50.8984 148.286C50.8984 147.468 51.5117 146.855 52.3293 146.855C53.147 146.855 53.7602 147.468 53.7602 148.286Z" fill="#9D9D9D"></path>
                      <path d="M75.8367 149.308C76.4012 148.743 76.4012 147.828 75.8367 147.264C75.2722 146.699 74.357 146.699 73.7926 147.264C73.2281 147.828 73.2281 148.743 73.7926 149.308C74.357 149.872 75.2722 149.872 75.8367 149.308Z" fill="#9D9D9D"></path>
                      <path d="M98.3221 149.308C98.8865 148.743 98.8865 147.828 98.3221 147.264C97.7576 146.699 96.8424 146.699 96.2779 147.264C95.7135 147.828 95.7135 148.743 96.2779 149.308C96.8424 149.872 97.7576 149.872 98.3221 149.308Z" fill="#9D9D9D"></path>
                      <path d="M120.807 149.308C121.372 148.743 121.372 147.828 120.807 147.264C120.243 146.699 119.328 146.699 118.763 147.264C118.199 147.828 118.199 148.743 118.763 149.308C119.328 149.872 120.243 149.872 120.807 149.308Z" fill="#9D9D9D"></path>
                      <path d="M143.702 148.286C143.702 149.103 143.088 149.717 142.271 149.717C141.453 149.717 140.84 149.103 140.84 148.286C140.84 147.468 141.453 146.855 142.271 146.855C143.088 146.855 143.702 147.468 143.702 148.286Z" fill="#9D9D9D"></path>
                    </svg>
                  