
<svg  viewBox="0 0 76 81" fill="none">
  <path d="M76 50.2015L38.3 12.5015C37.2 12.6015 36.1 12.8015 35 13.1015L75.5 53.6015C75.7 52.4015 75.9 51.3015 76 50.2015Z" fill="#94a3b8"></path>
  <path d="M66.2996 22.2015C63.1996 19.1015 59.5996 16.7015 55.5996 15.0015L73.5996 33.0015C71.7996 28.9015 69.3996 25.3015 66.2996 22.2015Z" fill="#94a3b8"></path>
  <path d="M18.0998 70.3015C21.1998 73.4015 24.7998 75.8015 28.7998 77.5015L10.7998 59.5015C12.5998 63.6015 14.9998 67.2015 18.0998 70.3015Z" fill="#94a3b8"></path>
  <path d="M62.2996 73.7016L14.6996 26.1016C14.1996 26.8016 13.5996 27.6016 13.0996 28.4016L59.8996 75.2016C60.7996 74.8016 61.5996 74.3016 62.2996 73.7016Z" fill="#94a3b8"></path>
  <path d="M49.3998 79.5015L8.8998 39.0015C8.6998 40.1015 8.4998 41.2015 8.2998 42.3015L46.0998 80.1015C47.1998 80.0015 48.2998 79.8015 49.3998 79.5015Z" fill="#94a3b8"></path>
  <path d="M71.1996 64.0017L24.3996 17.2017C23.5996 17.7017 22.7996 18.2017 22.0996 18.8017L69.6996 66.4017C70.1996 65.6017 70.6996 64.8017 71.1996 64.0017Z" fill="#94a3b8"></path>
  <path d="M67.7002 38.4017L30.0002 0.70166C28.9002 0.80166 27.8002 1.00165 26.7002 1.30165L67.1002 41.8017C67.3002 40.7017 67.5002 39.6017 67.7002 38.4017Z" fill="#503083"></path>
  <path d="M67.7002 38.4017L30.0002 0.70166C28.9002 0.80166 27.8002 1.00165 26.7002 1.30165L67.1002 41.8017C67.3002 40.7017 67.5002 39.6017 67.7002 38.4017Z" fill="#503083" fill-opacity="0.2"></path>
  <path d="M57.9002 10.5018C54.8002 7.40177 51.2002 5.00176 47.2002 3.30176L65.2002 21.3018C63.5002 17.2018 61.0002 13.6018 57.9002 10.5018Z" fill="#503083"></path>
  <path d="M57.9002 10.5018C54.8002 7.40177 51.2002 5.00176 47.2002 3.30176L65.2002 21.3018C63.5002 17.2018 61.0002 13.6018 57.9002 10.5018Z" fill="#503083" fill-opacity="0.2"></path>
  <path d="M9.8 58.6018C12.9 61.7018 16.5 64.1018 20.5 65.8018L2.5 47.8018C4.2 51.9018 6.7 55.5018 9.8 58.6018Z" fill="#503083"></path>
  <path d="M9.8 58.6018C12.9 61.7018 16.5 64.1018 20.5 65.8018L2.5 47.8018C4.2 51.9018 6.7 55.5018 9.8 58.6018Z" fill="#503083" fill-opacity="0.2"></path>
  <path d="M53.9002 62.0019L6.30019 14.4019C5.80019 15.1019 5.2002 15.9019 4.7002 16.7019L51.5002 63.5019C52.4002 63.1019 53.2002 62.6019 53.9002 62.0019Z" fill="#503083"></path>
  <path d="M53.9002 62.0019L6.30019 14.4019C5.80019 15.1019 5.2002 15.9019 4.7002 16.7019L51.5002 63.5019C52.4002 63.1019 53.2002 62.6019 53.9002 62.0019Z" fill="#503083" fill-opacity="0.2"></path>
  <path d="M41.1 67.8018L0.6 27.3018C0.4 28.4018 0.2 29.5018 0 30.6018L37.7 68.3018C38.8 68.2018 40 68.1018 41.1 67.8018Z" fill="#503083"></path>
  <path d="M41.1 67.8018L0.6 27.3018C0.4 28.4018 0.2 29.5018 0 30.6018L37.7 68.3018C38.8 68.2018 40 68.1018 41.1 67.8018Z" fill="#503083" fill-opacity="0.2"></path>
  <path d="M62.8998 52.3015L16.0998 5.50146C15.2998 6.00146 14.4998 6.50146 13.7998 7.10146L61.3998 54.7015C61.8998 53.9015 62.3998 53.1015 62.8998 52.3015Z" fill="#503083"></path>
  <path d="M62.8998 52.3015L16.0998 5.50146C15.2998 6.00146 14.4998 6.50146 13.7998 7.10146L61.3998 54.7015C61.8998 53.9015 62.3998 53.1015 62.8998 52.3015Z" fill="#503083" fill-opacity="0.2"></path>
</svg>
