
                    <svg class="w-10 h-10" viewBox="0 0 229 41" fill="none" xmlns="http://www.w3.org/2000/svg">
                      <path d="M171.2 19.1001L199.6 39.1001L228 19.1001" stroke="currentColor" stroke-width="2" stroke-miterlimit="10" stroke-linecap="round" stroke-linejoin="round"></path>
                      <path d="M171.2 19.1001L199.6 39.1001L228 19.1001" stroke="currentColor" stroke-opacity="0.2" stroke-width="2" stroke-miterlimit="10" stroke-linecap="round" stroke-linejoin="round"></path>
                      <path d="M57.7002 19L86.1002 39L114.5 19.1L142.8 39.1" stroke="currentColor" stroke-width="2" stroke-miterlimit="10" stroke-linecap="round" stroke-linejoin="round"></path>
                      <path d="M57.7002 19L86.1002 39L114.5 19.1L142.8 39.1" stroke="currentColor" stroke-opacity="0.2" stroke-width="2" stroke-miterlimit="10" stroke-linecap="round" stroke-linejoin="round"></path>
                      <path d="M1 19L29.3 39" stroke="currentColor" stroke-width="2" stroke-miterlimit="10" stroke-linecap="round" stroke-linejoin="round"></path>
                      <path d="M1 19L29.3 39" stroke="currentColor" stroke-opacity="0.2" stroke-width="2" stroke-miterlimit="10" stroke-linecap="round" stroke-linejoin="round"></path>
                      <path d="M142.8 21.1001L171.2 1.1001L199.6 21.1001L228 1.1001" stroke="currentColor" stroke-width="2" stroke-miterlimit="10" stroke-linecap="round" stroke-linejoin="round"></path>
                      <path d="M142.8 21.1001L171.2 1.1001L199.6 21.1001L228 1.1001" stroke="currentColor" stroke-opacity="0.2" stroke-width="2" stroke-miterlimit="10" stroke-linecap="round" stroke-linejoin="round"></path>
                      <path d="M1 1L29.4 21L57.7 1L86.1 21L114.5 1.10001" stroke="currentColor" stroke-width="2" stroke-miterlimit="10" stroke-linecap="round" stroke-linejoin="round"></path>
                      <path d="M1 1L29.4 21L57.7 1L86.1 21L114.5 1.10001" stroke="currentColor" stroke-opacity="0.2" stroke-width="2" stroke-miterlimit="10" stroke-linecap="round" stroke-linejoin="round"></path>
                    </svg>
                  