
                    <svg class="w-10 h-10" viewBox="0 0 83 37" fill="none" xmlns="http://www.w3.org/2000/svg">
                      <path d="M80.399 4.80029C79.099 4.80029 77.999 3.70028 77.999 2.40028C77.999 1.10028 79.099 0.000289917 80.399 0.000289917C81.699 0.000289917 82.799 1.10028 82.799 2.40028C82.799 3.70028 81.799 4.80029 80.399 4.80029Z" fill="#9D9D9D"></path>
                      <path d="M69.399 4.80029C68.099 4.80029 66.999 3.70028 66.999 2.40028C66.999 1.10028 68.099 0.000289917 69.399 0.000289917C70.699 0.000289917 71.799 1.10028 71.799 2.40028C71.799 3.70028 70.699 4.80029 69.399 4.80029Z" fill="#9D9D9D"></path>
                      <path d="M58.2994 4.80029C56.9994 4.80029 55.8994 3.70028 55.8994 2.40028C55.8994 1.10028 56.9994 0.000289917 58.2994 0.000289917C59.5994 0.000289917 60.6994 1.10028 60.6994 2.40028C60.6994 3.70028 59.5994 4.80029 58.2994 4.80029Z" fill="#9D9D9D"></path>
                      <path d="M47.1988 4.80029C45.8988 4.80029 44.7988 3.70028 44.7988 2.40028C44.7988 1.10028 45.8988 0.000289917 47.1988 0.000289917C48.4988 0.000289917 49.5988 1.10028 49.5988 2.40028C49.5988 3.70028 48.5988 4.80029 47.1988 4.80029Z" fill="#9D9D9D"></path>
                      <path d="M36.1988 4.80029C34.8988 4.80029 33.7988 3.70028 33.7988 2.40028C33.7988 1.10028 34.8988 0.000289917 36.1988 0.000289917C37.4988 0.000289917 38.5988 1.10028 38.5988 2.40028C38.5988 3.70028 37.4988 4.80029 36.1988 4.80029Z" fill="#9D9D9D"></path>
                      <path d="M25.0992 4.80029C23.7992 4.80029 22.6992 3.70028 22.6992 2.40028C22.6992 1.10028 23.7992 0.000289917 25.0992 0.000289917C26.3992 0.000289917 27.4992 1.10028 27.4992 2.40028C27.4992 3.70028 26.4992 4.80029 25.0992 4.80029Z" fill="#9D9D9D"></path>
                      <path d="M14.0992 4.80029C12.7992 4.80029 11.6992 3.70028 11.6992 2.40028C11.6992 1.10028 12.7992 0.000289917 14.0992 0.000289917C15.3992 0.000289917 16.4992 1.10028 16.4992 2.40028C16.4992 3.70028 15.3992 4.80029 14.0992 4.80029Z" fill="#9D9D9D"></path>
                      <path d="M80.399 16.2002C79.099 16.2002 77.999 15.1002 77.999 13.8002C77.999 12.5002 79.099 11.4002 80.399 11.4002C81.699 11.4002 82.799 12.5002 82.799 13.8002C82.799 15.1002 81.799 16.2002 80.399 16.2002Z" fill="#9D9D9D"></path>
                      <path d="M69.399 16.2002C68.099 16.2002 66.999 15.1002 66.999 13.8002C66.999 12.5002 68.099 11.4002 69.399 11.4002C70.699 11.4002 71.799 12.5002 71.799 13.8002C71.799 15.1002 70.699 16.2002 69.399 16.2002Z" fill="#9D9D9D"></path>
                      <path d="M58.2994 16.2002C56.9994 16.2002 55.8994 15.1002 55.8994 13.8002C55.8994 12.5002 56.9994 11.4002 58.2994 11.4002C59.5994 11.4002 60.6994 12.5002 60.6994 13.8002C60.6994 15.1002 59.5994 16.2002 58.2994 16.2002Z" fill="#9D9D9D"></path>
                      <path d="M47.1988 16.2002C45.8988 16.2002 44.7988 15.1002 44.7988 13.8002C44.7988 12.5002 45.8988 11.4002 47.1988 11.4002C48.4988 11.4002 49.5988 12.5002 49.5988 13.8002C49.5988 15.1002 48.5988 16.2002 47.1988 16.2002Z" fill="#9D9D9D"></path>
                      <path d="M36.1988 16.2002C34.8988 16.2002 33.7988 15.1002 33.7988 13.8002C33.7988 12.5002 34.8988 11.4002 36.1988 11.4002C37.4988 11.4002 38.5988 12.5002 38.5988 13.8002C38.5988 15.1002 37.4988 16.2002 36.1988 16.2002Z" fill="#9D9D9D"></path>
                      <path d="M25.0992 16.2002C23.7992 16.2002 22.6992 15.1002 22.6992 13.8002C22.6992 12.5002 23.7992 11.4002 25.0992 11.4002C26.3992 11.4002 27.4992 12.5002 27.4992 13.8002C27.4992 15.1002 26.4992 16.2002 25.0992 16.2002Z" fill="#9D9D9D"></path>
                      <path d="M14.0992 16.2002C12.7992 16.2002 11.6992 15.1002 11.6992 13.8002C11.6992 12.5002 12.7992 11.4002 14.0992 11.4002C15.3992 11.4002 16.4992 12.5002 16.4992 13.8002C16.4992 15.1002 15.3992 16.2002 14.0992 16.2002Z" fill="#9D9D9D"></path>
                      <path d="M80.399 27.7002C79.099 27.7002 77.999 26.6002 77.999 25.3002C77.999 24.0002 79.099 22.9002 80.399 22.9002C81.699 22.9002 82.799 24.0002 82.799 25.3002C82.799 26.6002 81.799 27.7002 80.399 27.7002Z" fill="#9D9D9D"></path>
                      <path d="M69.399 27.7002C68.099 27.7002 66.999 26.6002 66.999 25.3002C66.999 24.0002 68.099 22.9002 69.399 22.9002C70.699 22.9002 71.799 24.0002 71.799 25.3002C71.799 26.6002 70.699 27.7002 69.399 27.7002Z" fill="#9D9D9D"></path>
                      <path d="M58.2994 27.7002C56.9994 27.7002 55.8994 26.6002 55.8994 25.3002C55.8994 24.0002 56.9994 22.9002 58.2994 22.9002C59.5994 22.9002 60.6994 24.0002 60.6994 25.3002C60.6994 26.6002 59.5994 27.7002 58.2994 27.7002Z" fill="#9D9D9D"></path>
                      <path d="M47.1988 27.7002C45.8988 27.7002 44.7988 26.6002 44.7988 25.3002C44.7988 24.0002 45.8988 22.9002 47.1988 22.9002C48.4988 22.9002 49.5988 24.0002 49.5988 25.3002C49.6988 26.6002 48.5988 27.7002 47.1988 27.7002Z" fill="#9D9D9D"></path>
                      <path d="M36.1988 27.7002C34.8988 27.7002 33.7988 26.6002 33.7988 25.3002C33.7988 24.0002 34.8988 22.9002 36.1988 22.9002C37.4988 22.9002 38.5988 24.0002 38.5988 25.3002C38.5988 26.6002 37.4988 27.7002 36.1988 27.7002Z" fill="#9D9D9D"></path>
                      <path d="M25.0992 27.7002C23.7992 27.7002 22.6992 26.6002 22.6992 25.3002C22.6992 24.0002 23.7992 22.9002 25.0992 22.9002C26.3992 22.9002 27.4992 24.0002 27.4992 25.3002C27.5992 26.6002 26.4992 27.7002 25.0992 27.7002Z" fill="#9D9D9D"></path>
                      <path d="M14.0992 27.7002C12.7992 27.7002 11.6992 26.6002 11.6992 25.3002C11.6992 24.0002 12.7992 22.9002 14.0992 22.9002C15.3992 22.9002 16.4992 24.0002 16.4992 25.3002C16.4992 26.6002 15.3992 27.7002 14.0992 27.7002Z" fill="#9D9D9D"></path>
                      <path d="M68.6998 13.1001C67.3998 13.1001 66.2998 12.0001 66.2998 10.7001C66.2998 9.4001 67.3998 8.30011 68.6998 8.30011C69.9998 8.30011 71.0998 9.4001 71.0998 10.7001C71.0998 12.0001 69.9998 13.1001 68.6998 13.1001Z" fill="currentColor"></path>
                      <path d="M68.6998 13.1001C67.3998 13.1001 66.2998 12.0001 66.2998 10.7001C66.2998 9.4001 67.3998 8.30011 68.6998 8.30011C69.9998 8.30011 71.0998 9.4001 71.0998 10.7001C71.0998 12.0001 69.9998 13.1001 68.6998 13.1001Z" fill="currentColor" fill-opacity="0.2"></path>
                      <path d="M57.6002 13.1001C56.3002 13.1001 55.2002 12.0001 55.2002 10.7001C55.2002 9.4001 56.3002 8.30011 57.6002 8.30011C58.9002 8.30011 60.0002 9.4001 60.0002 10.7001C60.0002 12.0001 59.0002 13.1001 57.6002 13.1001Z" fill="currentColor"></path>
                      <path d="M57.6002 13.1001C56.3002 13.1001 55.2002 12.0001 55.2002 10.7001C55.2002 9.4001 56.3002 8.30011 57.6002 8.30011C58.9002 8.30011 60.0002 9.4001 60.0002 10.7001C60.0002 12.0001 59.0002 13.1001 57.6002 13.1001Z" fill="currentColor" fill-opacity="0.2"></path>
                      <path d="M46.6002 13.1001C45.3002 13.1001 44.2002 12.0001 44.2002 10.7001C44.2002 9.4001 45.3002 8.30011 46.6002 8.30011C47.9002 8.30011 49.0002 9.4001 49.0002 10.7001C49.0002 12.0001 47.9002 13.1001 46.6002 13.1001Z" fill="currentColor"></path>
                      <path d="M46.6002 13.1001C45.3002 13.1001 44.2002 12.0001 44.2002 10.7001C44.2002 9.4001 45.3002 8.30011 46.6002 8.30011C47.9002 8.30011 49.0002 9.4001 49.0002 10.7001C49.0002 12.0001 47.9002 13.1001 46.6002 13.1001Z" fill="currentColor" fill-opacity="0.2"></path>
                      <path d="M35.4996 13.1001C34.1996 13.1001 33.0996 12.0001 33.0996 10.7001C33.0996 9.4001 34.1996 8.30011 35.4996 8.30011C36.7996 8.30011 37.8996 9.4001 37.8996 10.7001C37.8996 12.0001 36.8996 13.1001 35.4996 13.1001Z" fill="currentColor"></path>
                      <path d="M35.4996 13.1001C34.1996 13.1001 33.0996 12.0001 33.0996 10.7001C33.0996 9.4001 34.1996 8.30011 35.4996 8.30011C36.7996 8.30011 37.8996 9.4001 37.8996 10.7001C37.8996 12.0001 36.8996 13.1001 35.4996 13.1001Z" fill="currentColor" fill-opacity="0.2"></path>
                      <path d="M24.4996 13.1001C23.1996 13.1001 22.0996 12.0001 22.0996 10.7001C22.0996 9.4001 23.1996 8.30011 24.4996 8.30011C25.7996 8.30011 26.8996 9.4001 26.8996 10.7001C26.8996 12.0001 25.7996 13.1001 24.4996 13.1001Z" fill="currentColor"></path>
                      <path d="M24.4996 13.1001C23.1996 13.1001 22.0996 12.0001 22.0996 10.7001C22.0996 9.4001 23.1996 8.30011 24.4996 8.30011C25.7996 8.30011 26.8996 9.4001 26.8996 10.7001C26.8996 12.0001 25.7996 13.1001 24.4996 13.1001Z" fill="currentColor" fill-opacity="0.2"></path>
                      <path d="M13.4 13.1001C12.1 13.1001 11 12.0001 11 10.7001C11 9.4001 12.1 8.30011 13.4 8.30011C14.7 8.30011 15.8 9.4001 15.8 10.7001C15.8 12.0001 14.8 13.1001 13.4 13.1001Z" fill="currentColor"></path>
                      <path d="M13.4 13.1001C12.1 13.1001 11 12.0001 11 10.7001C11 9.4001 12.1 8.30011 13.4 8.30011C14.7 8.30011 15.8 9.4001 15.8 10.7001C15.8 12.0001 14.8 13.1001 13.4 13.1001Z" fill="currentColor" fill-opacity="0.2"></path>
                      <path d="M2.39999 13.1001C1.09999 13.1001 0 12.0001 0 10.7001C0 9.4001 1.09999 8.30011 2.39999 8.30011C3.69999 8.30011 4.79999 9.4001 4.79999 10.7001C4.79999 12.0001 3.69999 13.1001 2.39999 13.1001Z" fill="currentColor"></path>
                      <path d="M2.39999 13.1001C1.09999 13.1001 0 12.0001 0 10.7001C0 9.4001 1.09999 8.30011 2.39999 8.30011C3.69999 8.30011 4.79999 9.4001 4.79999 10.7001C4.79999 12.0001 3.69999 13.1001 2.39999 13.1001Z" fill="currentColor" fill-opacity="0.2"></path>
                      <path d="M68.6998 24.6001C67.3998 24.6001 66.2998 23.5001 66.2998 22.2001C66.2998 20.9001 67.3998 19.8001 68.6998 19.8001C69.9998 19.8001 71.0998 20.9001 71.0998 22.2001C71.0998 23.5001 69.9998 24.6001 68.6998 24.6001Z" fill="currentColor"></path>
                      <path d="M68.6998 24.6001C67.3998 24.6001 66.2998 23.5001 66.2998 22.2001C66.2998 20.9001 67.3998 19.8001 68.6998 19.8001C69.9998 19.8001 71.0998 20.9001 71.0998 22.2001C71.0998 23.5001 69.9998 24.6001 68.6998 24.6001Z" fill="currentColor" fill-opacity="0.2"></path>
                      <path d="M57.6002 24.6001C56.3002 24.6001 55.2002 23.5001 55.2002 22.2001C55.2002 20.9001 56.3002 19.8001 57.6002 19.8001C58.9002 19.8001 60.0002 20.9001 60.0002 22.2001C60.1002 23.5001 59.0002 24.6001 57.6002 24.6001Z" fill="currentColor"></path>
                      <path d="M57.6002 24.6001C56.3002 24.6001 55.2002 23.5001 55.2002 22.2001C55.2002 20.9001 56.3002 19.8001 57.6002 19.8001C58.9002 19.8001 60.0002 20.9001 60.0002 22.2001C60.1002 23.5001 59.0002 24.6001 57.6002 24.6001Z" fill="currentColor" fill-opacity="0.2"></path>
                      <path d="M46.6002 24.6001C45.3002 24.6001 44.2002 23.5001 44.2002 22.2001C44.2002 20.9001 45.3002 19.8001 46.6002 19.8001C47.9002 19.8001 49.0002 20.9001 49.0002 22.2001C49.0002 23.5001 47.9002 24.6001 46.6002 24.6001Z" fill="currentColor"></path>
                      <path d="M46.6002 24.6001C45.3002 24.6001 44.2002 23.5001 44.2002 22.2001C44.2002 20.9001 45.3002 19.8001 46.6002 19.8001C47.9002 19.8001 49.0002 20.9001 49.0002 22.2001C49.0002 23.5001 47.9002 24.6001 46.6002 24.6001Z" fill="currentColor" fill-opacity="0.2"></path>
                      <path d="M35.4996 24.6001C34.1996 24.6001 33.0996 23.5001 33.0996 22.2001C33.0996 20.9001 34.1996 19.8001 35.4996 19.8001C36.7996 19.8001 37.8996 20.9001 37.8996 22.2001C37.9996 23.5001 36.8996 24.6001 35.4996 24.6001Z" fill="currentColor"></path>
                      <path d="M35.4996 24.6001C34.1996 24.6001 33.0996 23.5001 33.0996 22.2001C33.0996 20.9001 34.1996 19.8001 35.4996 19.8001C36.7996 19.8001 37.8996 20.9001 37.8996 22.2001C37.9996 23.5001 36.8996 24.6001 35.4996 24.6001Z" fill="currentColor" fill-opacity="0.2"></path>
                      <path d="M24.4996 24.6001C23.1996 24.6001 22.0996 23.5001 22.0996 22.2001C22.0996 20.9001 23.1996 19.8001 24.4996 19.8001C25.7996 19.8001 26.8996 20.9001 26.8996 22.2001C26.8996 23.5001 25.7996 24.6001 24.4996 24.6001Z" fill="currentColor"></path>
                      <path d="M24.4996 24.6001C23.1996 24.6001 22.0996 23.5001 22.0996 22.2001C22.0996 20.9001 23.1996 19.8001 24.4996 19.8001C25.7996 19.8001 26.8996 20.9001 26.8996 22.2001C26.8996 23.5001 25.7996 24.6001 24.4996 24.6001Z" fill="currentColor" fill-opacity="0.2"></path>
                      <path d="M13.4 24.6001C12.1 24.6001 11 23.5001 11 22.2001C11 20.9001 12.1 19.8001 13.4 19.8001C14.7 19.8001 15.8 20.9001 15.8 22.2001C15.9 23.5001 14.8 24.6001 13.4 24.6001Z" fill="currentColor"></path>
                      <path d="M13.4 24.6001C12.1 24.6001 11 23.5001 11 22.2001C11 20.9001 12.1 19.8001 13.4 19.8001C14.7 19.8001 15.8 20.9001 15.8 22.2001C15.9 23.5001 14.8 24.6001 13.4 24.6001Z" fill="currentColor" fill-opacity="0.2"></path>
                      <path d="M2.39999 24.6001C1.09999 24.6001 0 23.5001 0 22.2001C0 20.9001 1.09999 19.8001 2.39999 19.8001C3.69999 19.8001 4.79999 20.9001 4.79999 22.2001C4.79999 23.5001 3.69999 24.6001 2.39999 24.6001Z" fill="currentColor"></path>
                      <path d="M2.39999 24.6001C1.09999 24.6001 0 23.5001 0 22.2001C0 20.9001 1.09999 19.8001 2.39999 19.8001C3.69999 19.8001 4.79999 20.9001 4.79999 22.2001C4.79999 23.5001 3.69999 24.6001 2.39999 24.6001Z" fill="currentColor" fill-opacity="0.2"></path>
                      <path d="M68.6998 36.1001C67.3998 36.1001 66.2998 35.0001 66.2998 33.7001C66.2998 32.4001 67.3998 31.3001 68.6998 31.3001C69.9998 31.3001 71.0998 32.4001 71.0998 33.7001C71.0998 35.0001 69.9998 36.1001 68.6998 36.1001Z" fill="currentColor"></path>
                      <path d="M68.6998 36.1001C67.3998 36.1001 66.2998 35.0001 66.2998 33.7001C66.2998 32.4001 67.3998 31.3001 68.6998 31.3001C69.9998 31.3001 71.0998 32.4001 71.0998 33.7001C71.0998 35.0001 69.9998 36.1001 68.6998 36.1001Z" fill="currentColor" fill-opacity="0.2"></path>
                      <path d="M57.6002 36.1001C56.3002 36.1001 55.2002 35.0001 55.2002 33.7001C55.2002 32.4001 56.3002 31.3001 57.6002 31.3001C58.9002 31.3001 60.0002 32.4001 60.0002 33.7001C60.1002 35.0001 59.0002 36.1001 57.6002 36.1001Z" fill="currentColor"></path>
                      <path d="M57.6002 36.1001C56.3002 36.1001 55.2002 35.0001 55.2002 33.7001C55.2002 32.4001 56.3002 31.3001 57.6002 31.3001C58.9002 31.3001 60.0002 32.4001 60.0002 33.7001C60.1002 35.0001 59.0002 36.1001 57.6002 36.1001Z" fill="currentColor" fill-opacity="0.2"></path>
                      <path d="M46.6002 36.1001C45.3002 36.1001 44.2002 35.0001 44.2002 33.7001C44.2002 32.4001 45.3002 31.3001 46.6002 31.3001C47.9002 31.3001 49.0002 32.4001 49.0002 33.7001C49.0002 35.0001 47.9002 36.1001 46.6002 36.1001Z" fill="currentColor"></path>
                      <path d="M46.6002 36.1001C45.3002 36.1001 44.2002 35.0001 44.2002 33.7001C44.2002 32.4001 45.3002 31.3001 46.6002 31.3001C47.9002 31.3001 49.0002 32.4001 49.0002 33.7001C49.0002 35.0001 47.9002 36.1001 46.6002 36.1001Z" fill="currentColor" fill-opacity="0.2"></path>
                      <path d="M35.4996 36.1001C34.1996 36.1001 33.0996 35.0001 33.0996 33.7001C33.0996 32.4001 34.1996 31.3001 35.4996 31.3001C36.7996 31.3001 37.8996 32.4001 37.8996 33.7001C37.9996 35.0001 36.8996 36.1001 35.4996 36.1001Z" fill="currentColor"></path>
                      <path d="M35.4996 36.1001C34.1996 36.1001 33.0996 35.0001 33.0996 33.7001C33.0996 32.4001 34.1996 31.3001 35.4996 31.3001C36.7996 31.3001 37.8996 32.4001 37.8996 33.7001C37.9996 35.0001 36.8996 36.1001 35.4996 36.1001Z" fill="currentColor" fill-opacity="0.2"></path>
                      <path d="M24.4996 36.1001C23.1996 36.1001 22.0996 35.0001 22.0996 33.7001C22.0996 32.4001 23.1996 31.3001 24.4996 31.3001C25.7996 31.3001 26.8996 32.4001 26.8996 33.7001C26.8996 35.0001 25.7996 36.1001 24.4996 36.1001Z" fill="currentColor"></path>
                      <path d="M24.4996 36.1001C23.1996 36.1001 22.0996 35.0001 22.0996 33.7001C22.0996 32.4001 23.1996 31.3001 24.4996 31.3001C25.7996 31.3001 26.8996 32.4001 26.8996 33.7001C26.8996 35.0001 25.7996 36.1001 24.4996 36.1001Z" fill="currentColor" fill-opacity="0.2"></path>
                      <path d="M13.4 36.1001C12.1 36.1001 11 35.0001 11 33.7001C11 32.4001 12.1 31.3001 13.4 31.3001C14.7 31.3001 15.8 32.4001 15.8 33.7001C15.9 35.0001 14.8 36.1001 13.4 36.1001Z" fill="currentColor"></path>
                      <path d="M13.4 36.1001C12.1 36.1001 11 35.0001 11 33.7001C11 32.4001 12.1 31.3001 13.4 31.3001C14.7 31.3001 15.8 32.4001 15.8 33.7001C15.9 35.0001 14.8 36.1001 13.4 36.1001Z" fill="currentColor" fill-opacity="0.2"></path>
                      <path d="M2.39999 36.1001C1.09999 36.1001 0 35.0001 0 33.7001C0 32.4001 1.09999 31.3001 2.39999 31.3001C3.69999 31.3001 4.79999 32.4001 4.79999 33.7001C4.79999 35.0001 3.69999 36.1001 2.39999 36.1001Z" fill="currentColor"></path>
                      <path d="M2.39999 36.1001C1.09999 36.1001 0 35.0001 0 33.7001C0 32.4001 1.09999 31.3001 2.39999 31.3001C3.69999 31.3001 4.79999 32.4001 4.79999 33.7001C4.79999 35.0001 3.69999 36.1001 2.39999 36.1001Z" fill="currentColor" fill-opacity="0.2"></path>
                    </svg>
                  