
                    <svg class="w-10 h-10" viewBox="0 0 72 71" fill="none" xmlns="http://www.w3.org/2000/svg">
                      <path d="M23.0005 6.1141C24.4005 6.8141 26.1005 6.3141 26.9005 4.9141C27.6005 3.5141 27.1005 1.8141 25.7005 1.0141C25.2005 0.814098 24.7005 0.614099 24.2005 0.714099C23.6005 0.914099 23.1005 1.1141 22.6005 1.3141C22.3005 1.5141 22.0005 1.8141 21.8005 2.2141C21.1005 3.7141 21.6005 5.4141 23.0005 6.1141Z" fill="currentColor"></path>
                      <path d="M23.0005 6.1141C24.4005 6.8141 26.1005 6.3141 26.9005 4.9141C27.6005 3.5141 27.1005 1.8141 25.7005 1.0141C25.2005 0.814098 24.7005 0.614099 24.2005 0.714099C23.6005 0.914099 23.1005 1.1141 22.6005 1.3141C22.3005 1.5141 22.0005 1.8141 21.8005 2.2141C21.1005 3.7141 21.6005 5.4141 23.0005 6.1141Z" fill="currentColor" fill-opacity="0.2"></path>
                      <path d="M21.7003 14.6145C22.4003 13.2145 21.9003 11.5145 20.5003 10.7145C19.1003 10.0145 17.4003 10.5145 16.6003 11.9145C15.9003 13.3145 16.4003 15.0145 17.8003 15.8145C19.2003 16.6145 21.0003 16.0145 21.7003 14.6145Z" fill="currentColor"></path>
                      <path d="M21.7003 14.6145C22.4003 13.2145 21.9003 11.5145 20.5003 10.7145C19.1003 10.0145 17.4003 10.5145 16.6003 11.9145C15.9003 13.3145 16.4003 15.0145 17.8003 15.8145C19.2003 16.6145 21.0003 16.0145 21.7003 14.6145Z" fill="currentColor" fill-opacity="0.2"></path>
                      <path d="M16.5001 24.3137C17.2001 22.9137 16.7001 21.2137 15.3001 20.4137C13.9001 19.7137 12.2001 20.2137 11.4001 21.6137C10.7001 23.0137 11.2001 24.7137 12.6001 25.5137C14.1001 26.2137 15.8001 25.7137 16.5001 24.3137Z" fill="currentColor"></path>
                      <path d="M16.5001 24.3137C17.2001 22.9137 16.7001 21.2137 15.3001 20.4137C13.9001 19.7137 12.2001 20.2137 11.4001 21.6137C10.7001 23.0137 11.2001 24.7137 12.6001 25.5137C14.1001 26.2137 15.8001 25.7137 16.5001 24.3137Z" fill="currentColor" fill-opacity="0.2"></path>
                      <path d="M11.2999 34.0139C11.9999 32.6139 11.4999 30.9139 10.0999 30.1139C8.69988 29.4139 6.99988 29.9139 6.19988 31.3139C5.49988 32.7139 5.99988 34.4139 7.39988 35.2139C8.89988 35.9139 10.5999 35.4139 11.2999 34.0139Z" fill="currentColor"></path>
                      <path d="M11.2999 34.0139C11.9999 32.6139 11.4999 30.9139 10.0999 30.1139C8.69988 29.4139 6.99988 29.9139 6.19988 31.3139C5.49988 32.7139 5.99988 34.4139 7.39988 35.2139C8.89988 35.9139 10.5999 35.4139 11.2999 34.0139Z" fill="currentColor" fill-opacity="0.2"></path>
                      <path d="M6.1998 43.6145C6.8998 42.2145 6.39981 40.5145 4.99981 39.7145C3.59981 39.0145 1.8998 39.5145 1.0998 40.9145C0.899804 41.3145 0.799805 41.7145 0.799805 42.0145C0.899805 42.6145 1.0998 43.1145 1.1998 43.7145C1.4998 44.1145 1.7998 44.5145 2.2998 44.7145C3.6998 45.5145 5.3998 45.0145 6.1998 43.6145Z" fill="currentColor"></path>
                      <path d="M6.1998 43.6145C6.8998 42.2145 6.39981 40.5145 4.99981 39.7145C3.59981 39.0145 1.8998 39.5145 1.0998 40.9145C0.899804 41.3145 0.799805 41.7145 0.799805 42.0145C0.899805 42.6145 1.0998 43.1145 1.1998 43.7145C1.4998 44.1145 1.7998 44.5145 2.2998 44.7145C3.6998 45.5145 5.3998 45.0145 6.1998 43.6145Z" fill="currentColor" fill-opacity="0.2"></path>
                      <path d="M15.7004 5.21367C15.7004 5.11367 15.8004 5.01367 15.8004 5.01367C15.0004 5.51367 14.2004 6.11367 13.4004 6.71367C14.3004 6.61367 15.2004 6.11367 15.7004 5.21367Z" fill="currentColor"></path>
                      <path d="M15.7004 5.21367C15.7004 5.11367 15.8004 5.01367 15.8004 5.01367C15.0004 5.51367 14.2004 6.11367 13.4004 6.71367C14.3004 6.61367 15.2004 6.11367 15.7004 5.21367Z" fill="currentColor" fill-opacity="0.2"></path>
                      <path d="M6.6002 16.0145C8.0002 16.7145 9.7002 16.2145 10.5002 14.8145C11.2002 13.4145 10.7002 11.7145 9.3002 10.9145C9.2002 10.8145 9.1002 10.8145 9.0002 10.8145C7.8002 12.2145 6.7002 13.6144 5.7002 15.2144C5.9002 15.5144 6.3002 15.8145 6.6002 16.0145Z" fill="currentColor"></path>
                      <path d="M6.6002 16.0145C8.0002 16.7145 9.7002 16.2145 10.5002 14.8145C11.2002 13.4145 10.7002 11.7145 9.3002 10.9145C9.2002 10.8145 9.1002 10.8145 9.0002 10.8145C7.8002 12.2145 6.7002 13.6144 5.7002 15.2144C5.9002 15.5144 6.3002 15.8145 6.6002 16.0145Z" fill="currentColor" fill-opacity="0.2"></path>
                      <path d="M1.5002 25.7144C2.9002 26.4144 4.6002 25.9145 5.4002 24.5145C6.1002 23.1145 5.6002 21.4144 4.2002 20.6144C3.8002 20.4144 3.4002 20.3145 3.0002 20.3145C2.3002 22.0145 1.7002 23.7145 1.2002 25.5145C1.3002 25.6145 1.4002 25.6144 1.5002 25.7144Z" fill="currentColor"></path>
                      <path d="M1.5002 25.7144C2.9002 26.4144 4.6002 25.9145 5.4002 24.5145C6.1002 23.1145 5.6002 21.4144 4.2002 20.6144C3.8002 20.4144 3.4002 20.3145 3.0002 20.3145C2.3002 22.0145 1.7002 23.7145 1.2002 25.5145C1.3002 25.6145 1.4002 25.6144 1.5002 25.7144Z" fill="currentColor" fill-opacity="0.2"></path>
                      <path d="M0.0999985 31.5137C-1.52737e-06 32.5137 0 33.5137 0 34.4137C0 34.3137 0.0999985 34.2137 0.0999985 34.2137C0.599998 33.3137 0.599998 32.3137 0.0999985 31.5137Z" fill="currentColor"></path>
                      <path d="M0.0999985 31.5137C-1.52737e-06 32.5137 0 33.5137 0 34.4137C0 34.3137 0.0999985 34.2137 0.0999985 34.2137C0.599998 33.3137 0.599998 32.3137 0.0999985 31.5137Z" fill="currentColor" fill-opacity="0.2"></path>
                      <path d="M61.6001 14.4139C62.6001 15.0139 63.9001 14.8139 64.7001 14.1139C63.6001 12.6139 62.4001 11.1139 61.1001 9.71387C60.8001 9.91387 60.6001 10.2139 60.4001 10.5139C59.7001 11.9139 60.2001 13.7139 61.6001 14.4139Z" fill="currentColor"></path>
                      <path d="M61.6001 14.4139C62.6001 15.0139 63.9001 14.8139 64.7001 14.1139C63.6001 12.6139 62.4001 11.1139 61.1001 9.71387C60.8001 9.91387 60.6001 10.2139 60.4001 10.5139C59.7001 11.9139 60.2001 13.7139 61.6001 14.4139Z" fill="currentColor" fill-opacity="0.2"></path>
                      <path d="M55.3005 20.2143C54.6005 21.6143 55.1005 23.3143 56.5005 24.1143C57.9005 24.8143 59.6005 24.3143 60.4005 22.9143C61.1005 21.5143 60.6005 19.8143 59.2005 19.0143C57.8005 18.3143 56.0005 18.8143 55.3005 20.2143Z" fill="currentColor"></path>
                      <path d="M55.3005 20.2143C54.6005 21.6143 55.1005 23.3143 56.5005 24.1143C57.9005 24.8143 59.6005 24.3143 60.4005 22.9143C61.1005 21.5143 60.6005 19.8143 59.2005 19.0143C57.8005 18.3143 56.0005 18.8143 55.3005 20.2143Z" fill="currentColor" fill-opacity="0.2"></path>
                      <path d="M50.1003 29.9145C49.4003 31.3145 49.9003 33.0145 51.3003 33.8145C52.7003 34.5145 54.4003 34.0145 55.2003 32.6145C55.9003 31.2145 55.4003 29.5145 54.0003 28.7145C52.6003 28.0145 50.9003 28.5145 50.1003 29.9145Z" fill="currentColor"></path>
                      <path d="M50.1003 29.9145C49.4003 31.3145 49.9003 33.0145 51.3003 33.8145C52.7003 34.5145 54.4003 34.0145 55.2003 32.6145C55.9003 31.2145 55.4003 29.5145 54.0003 28.7145C52.6003 28.0145 50.9003 28.5145 50.1003 29.9145Z" fill="currentColor" fill-opacity="0.2"></path>
                      <path d="M44.9001 39.5141C44.2001 40.9141 44.7001 42.6141 46.1001 43.4141C47.5001 44.1141 49.2001 43.6141 50.0001 42.2141C50.7001 40.8141 50.2001 39.1141 48.8001 38.3141C47.4001 37.6141 45.7001 38.1141 44.9001 39.5141Z" fill="currentColor"></path>
                      <path d="M44.9001 39.5141C44.2001 40.9141 44.7001 42.6141 46.1001 43.4141C47.5001 44.1141 49.2001 43.6141 50.0001 42.2141C50.7001 40.8141 50.2001 39.1141 48.8001 38.3141C47.4001 37.6141 45.7001 38.1141 44.9001 39.5141Z" fill="currentColor" fill-opacity="0.2"></path>
                      <path d="M39.6999 49.2143C38.9999 50.6143 39.4999 52.3143 40.8999 53.1143C42.2999 53.8143 43.9999 53.3143 44.7999 51.9143C45.4999 50.5143 44.9999 48.8143 43.5999 48.0143C42.1999 47.3143 40.4999 47.8143 39.6999 49.2143Z" fill="currentColor"></path>
                      <path d="M39.6999 49.2143C38.9999 50.6143 39.4999 52.3143 40.8999 53.1143C42.2999 53.8143 43.9999 53.3143 44.7999 51.9143C45.4999 50.5143 44.9999 48.8143 43.5999 48.0143C42.1999 47.3143 40.4999 47.8143 39.6999 49.2143Z" fill="currentColor" fill-opacity="0.2"></path>
                      <path d="M34.6003 58.9145C33.9003 60.3145 34.4003 62.0145 35.8003 62.8145C37.2003 63.5145 38.9003 63.0145 39.7003 61.6145C40.4003 60.2145 39.9003 58.5145 38.5003 57.7145C37.0003 57.0145 35.3003 57.5145 34.6003 58.9145Z" fill="currentColor"></path>
                      <path d="M34.6003 58.9145C33.9003 60.3145 34.4003 62.0145 35.8003 62.8145C37.2003 63.5145 38.9003 63.0145 39.7003 61.6145C40.4003 60.2145 39.9003 58.5145 38.5003 57.7145C37.0003 57.0145 35.3003 57.5145 34.6003 58.9145Z" fill="currentColor" fill-opacity="0.2"></path>
                      <path d="M33.2 67.4137C31.8 66.7137 30.1 67.2137 29.3 68.6137C29.1 68.9137 29 69.3137 29 69.6137C30.9 70.0137 32.8 70.1137 34.7 70.2137C34.8 69.0137 34.3 67.9137 33.2 67.4137Z" fill="currentColor"></path>
                      <path d="M33.2 67.4137C31.8 66.7137 30.1 67.2137 29.3 68.6137C29.1 68.9137 29 69.3137 29 69.6137C30.9 70.0137 32.8 70.1137 34.7 70.2137C34.8 69.0137 34.3 67.9137 33.2 67.4137Z" fill="currentColor" fill-opacity="0.2"></path>
                      <path d="M49.3005 10.7144C48.6005 12.1144 49.1005 13.8144 50.5005 14.6144C51.9005 15.3144 53.6005 14.8144 54.4005 13.4144C55.1005 12.0144 54.6005 10.3144 53.2005 9.5144C51.7005 8.8144 50.0005 9.4144 49.3005 10.7144Z" fill="currentColor"></path>
                      <path d="M49.3005 10.7144C48.6005 12.1144 49.1005 13.8144 50.5005 14.6144C51.9005 15.3144 53.6005 14.8144 54.4005 13.4144C55.1005 12.0144 54.6005 10.3144 53.2005 9.5144C51.7005 8.8144 50.0005 9.4144 49.3005 10.7144Z" fill="currentColor" fill-opacity="0.2"></path>
                      <path d="M49.0997 23.1145C49.7997 21.7145 49.2997 20.0145 47.8997 19.2145C46.4997 18.5145 44.7997 19.0145 43.9997 20.4145C43.2997 21.8145 43.7997 23.5145 45.1997 24.3145C46.5997 25.0145 48.3997 24.5145 49.0997 23.1145Z" fill="currentColor"></path>
                      <path d="M49.0997 23.1145C49.7997 21.7145 49.2997 20.0145 47.8997 19.2145C46.4997 18.5145 44.7997 19.0145 43.9997 20.4145C43.2997 21.8145 43.7997 23.5145 45.1997 24.3145C46.5997 25.0145 48.3997 24.5145 49.0997 23.1145Z" fill="currentColor" fill-opacity="0.2"></path>
                      <path d="M43.9005 32.8137C44.6005 31.4137 44.1005 29.7137 42.7005 28.9137C41.3005 28.2137 39.6005 28.7137 38.8005 30.1137C38.1005 31.5137 38.6005 33.2137 40.0005 34.0137C41.5005 34.7137 43.2005 34.2137 43.9005 32.8137Z" fill="currentColor"></path>
                      <path d="M43.9005 32.8137C44.6005 31.4137 44.1005 29.7137 42.7005 28.9137C41.3005 28.2137 39.6005 28.7137 38.8005 30.1137C38.1005 31.5137 38.6005 33.2137 40.0005 34.0137C41.5005 34.7137 43.2005 34.2137 43.9005 32.8137Z" fill="currentColor" fill-opacity="0.2"></path>
                      <path d="M38.7003 42.4143C39.4003 41.0143 38.9003 39.3143 37.5003 38.5143C36.1003 37.8143 34.4003 38.3143 33.6003 39.7143C32.9003 41.1143 33.4003 42.8143 34.8003 43.6143C36.3003 44.3143 38.0003 43.8143 38.7003 42.4143Z" fill="currentColor"></path>
                      <path d="M38.7003 42.4143C39.4003 41.0143 38.9003 39.3143 37.5003 38.5143C36.1003 37.8143 34.4003 38.3143 33.6003 39.7143C32.9003 41.1143 33.4003 42.8143 34.8003 43.6143C36.3003 44.3143 38.0003 43.8143 38.7003 42.4143Z" fill="currentColor" fill-opacity="0.2"></path>
                      <path d="M28.4997 49.4145C27.7997 50.8145 28.2997 52.5145 29.6997 53.3145C31.0997 54.0145 32.7997 53.5145 33.5997 52.1145C34.2997 50.7145 33.7997 49.0145 32.3997 48.2145C30.9997 47.5145 29.2997 48.0145 28.4997 49.4145Z" fill="currentColor"></path>
                      <path d="M28.4997 49.4145C27.7997 50.8145 28.2997 52.5145 29.6997 53.3145C31.0997 54.0145 32.7997 53.5145 33.5997 52.1145C34.2997 50.7145 33.7997 49.0145 32.3997 48.2145C30.9997 47.5145 29.2997 48.0145 28.4997 49.4145Z" fill="currentColor" fill-opacity="0.2"></path>
                      <path d="M23.4001 59.1137C22.7001 60.5137 23.2001 62.2137 24.6001 63.0137C26.0001 63.7137 27.7001 63.2137 28.5001 61.8137C29.2001 60.4137 28.7001 58.7137 27.3001 57.9137C25.8001 57.2137 24.1001 57.7137 23.4001 59.1137Z" fill="currentColor"></path>
                      <path d="M23.4001 59.1137C22.7001 60.5137 23.2001 62.2137 24.6001 63.0137C26.0001 63.7137 27.7001 63.2137 28.5001 61.8137C29.2001 60.4137 28.7001 58.7137 27.3001 57.9137C25.8001 57.2137 24.1001 57.7137 23.4001 59.1137Z" fill="currentColor" fill-opacity="0.2"></path>
                      <path d="M67.4001 39.1138C66.7001 40.5138 67.2001 42.2138 68.6001 43.0138C69.1001 43.3138 69.7001 43.4138 70.2001 43.3138C70.7001 41.5138 71.0001 39.7138 71.1001 37.9138C69.7001 37.2138 68.1001 37.8138 67.4001 39.1138Z" fill="currentColor"></path>
                      <path d="M67.4001 39.1138C66.7001 40.5138 67.2001 42.2138 68.6001 43.0138C69.1001 43.3138 69.7001 43.4138 70.2001 43.3138C70.7001 41.5138 71.0001 39.7138 71.1001 37.9138C69.7001 37.2138 68.1001 37.8138 67.4001 39.1138Z" fill="currentColor" fill-opacity="0.2"></path>
                      <path d="M66.0003 47.6139C64.6003 46.9139 62.9003 47.4139 62.1003 48.8139C61.4003 50.2139 61.9003 51.9139 63.3003 52.7139C64.3003 53.3139 65.6003 53.1139 66.4003 52.4139C66.6003 52.1139 66.8003 51.7139 67.0003 51.4139C67.2003 51.1139 67.3003 50.7139 67.5003 50.4139C67.6003 49.3139 67.1003 48.2139 66.0003 47.6139Z" fill="currentColor"></path>
                      <path d="M66.0003 47.6139C64.6003 46.9139 62.9003 47.4139 62.1003 48.8139C61.4003 50.2139 61.9003 51.9139 63.3003 52.7139C64.3003 53.3139 65.6003 53.1139 66.4003 52.4139C66.6003 52.1139 66.8003 51.7139 67.0003 51.4139C67.2003 51.1139 67.3003 50.7139 67.5003 50.4139C67.6003 49.3139 67.1003 48.2139 66.0003 47.6139Z" fill="currentColor" fill-opacity="0.2"></path>
                      <path d="M56.9996 58.4145C56.2996 59.7145 56.7996 61.4145 58.0996 62.2145C59.4996 61.1145 60.7996 59.8145 62.0996 58.4145C61.7996 57.9145 61.3996 57.5145 60.8996 57.2145C59.4996 56.5145 57.6996 57.0145 56.9996 58.4145Z" fill="currentColor"></path>
                      <path d="M56.9996 58.4145C56.2996 59.7145 56.7996 61.4145 58.0996 62.2145C59.4996 61.1145 60.7996 59.8145 62.0996 58.4145C61.7996 57.9145 61.3996 57.5145 60.8996 57.2145C59.4996 56.5145 57.6996 57.0145 56.9996 58.4145Z" fill="currentColor" fill-opacity="0.2"></path>
                      <path d="M67.6997 23.8141C68.2997 24.1141 69.0997 24.2141 69.6997 24.1141C69.0997 22.3141 68.4997 20.6141 67.5997 18.9141C67.1997 19.2141 66.7997 19.5141 66.4997 20.0141C65.7997 21.4141 66.2997 23.1141 67.6997 23.8141Z" fill="currentColor"></path>
                      <path d="M67.6997 23.8141C68.2997 24.1141 69.0997 24.2141 69.6997 24.1141C69.0997 22.3141 68.4997 20.6141 67.5997 18.9141C67.1997 19.2141 66.7997 19.5141 66.4997 20.0141C65.7997 21.4141 66.2997 23.1141 67.6997 23.8141Z" fill="currentColor" fill-opacity="0.2"></path>
                      <path d="M61.3005 29.7146C60.6005 31.1146 61.1005 32.8146 62.5005 33.6146C63.9005 34.3146 65.6005 33.8146 66.4005 32.4146C67.2005 31.0146 66.6005 29.3146 65.2005 28.5146C63.8005 27.7146 62.1005 28.3146 61.3005 29.7146Z" fill="currentColor"></path>
                      <path d="M61.3005 29.7146C60.6005 31.1146 61.1005 32.8146 62.5005 33.6146C63.9005 34.3146 65.6005 33.8146 66.4005 32.4146C67.2005 31.0146 66.6005 29.3146 65.2005 28.5146C63.8005 27.7146 62.1005 28.3146 61.3005 29.7146Z" fill="currentColor" fill-opacity="0.2"></path>
                      <path d="M56.1003 39.3139C55.4003 40.7139 55.9003 42.4139 57.3003 43.2139C58.7003 43.9139 60.4003 43.4139 61.2003 42.0139C61.9003 40.6139 61.4003 38.9139 60.0003 38.1139C58.6003 37.4139 56.9003 37.9139 56.1003 39.3139Z" fill="currentColor"></path>
                      <path d="M56.1003 39.3139C55.4003 40.7139 55.9003 42.4139 57.3003 43.2139C58.7003 43.9139 60.4003 43.4139 61.2003 42.0139C61.9003 40.6139 61.4003 38.9139 60.0003 38.1139C58.6003 37.4139 56.9003 37.9139 56.1003 39.3139Z" fill="currentColor" fill-opacity="0.2"></path>
                      <path d="M50.9997 49.0141C50.2997 50.4141 50.7997 52.1141 52.1997 52.9141C53.5997 53.6141 55.2997 53.1141 56.0997 51.7141C56.7997 50.3141 56.2997 48.6141 54.8997 47.8141C53.3997 47.1141 51.6997 47.6141 50.9997 49.0141Z" fill="currentColor"></path>
                      <path d="M50.9997 49.0141C50.2997 50.4141 50.7997 52.1141 52.1997 52.9141C53.5997 53.6141 55.2997 53.1141 56.0997 51.7141C56.7997 50.3141 56.2997 48.6141 54.8997 47.8141C53.3997 47.1141 51.6997 47.6141 50.9997 49.0141Z" fill="currentColor" fill-opacity="0.2"></path>
                      <path d="M45.8005 58.6148C45.1005 60.0148 45.6005 61.7148 47.0005 62.5148C48.4005 63.2148 50.1005 62.7148 50.9005 61.3148C51.6005 59.9148 51.1005 58.2148 49.7005 57.4148C48.3005 56.7148 46.5005 57.3148 45.8005 58.6148Z" fill="currentColor"></path>
                      <path d="M45.8005 58.6148C45.1005 60.0148 45.6005 61.7148 47.0005 62.5148C48.4005 63.2148 50.1005 62.7148 50.9005 61.3148C51.6005 59.9148 51.1005 58.2148 49.7005 57.4148C48.3005 56.7148 46.5005 57.3148 45.8005 58.6148Z" fill="currentColor" fill-opacity="0.2"></path>
                      <path d="M40.6002 68.3139C40.3002 68.8139 40.2002 69.3139 40.3002 69.8139C42.2002 69.6139 44.0002 69.2139 45.8002 68.6139C45.6002 68.0139 45.1002 67.4139 44.5002 67.1139C43.1002 66.4139 41.3002 66.9139 40.6002 68.3139Z" fill="currentColor"></path>
                      <path d="M40.6002 68.3139C40.3002 68.8139 40.2002 69.3139 40.3002 69.8139C42.2002 69.6139 44.0002 69.2139 45.8002 68.6139C45.6002 68.0139 45.1002 67.4139 44.5002 67.1139C43.1002 66.4139 41.3002 66.9139 40.6002 68.3139Z" fill="currentColor" fill-opacity="0.2"></path>
                      <path d="M44.3998 5.21367C45.7998 5.91367 47.4998 5.41367 48.2998 4.01367C48.7998 3.11367 48.6998 2.11367 48.2998 1.21367C47.0998 0.713673 45.8998 0.313672 44.5998 0.0136719C44.0998 0.313672 43.5998 0.713673 43.2998 1.21367C42.4998 2.71367 42.9998 4.41367 44.3998 5.21367Z" fill="currentColor"></path>
                      <path d="M44.3998 5.21367C45.7998 5.91367 47.4998 5.41367 48.2998 4.01367C48.7998 3.11367 48.6998 2.11367 48.2998 1.21367C47.0998 0.713673 45.8998 0.313672 44.5998 0.0136719C44.0998 0.313672 43.5998 0.713673 43.2998 1.21367C42.4998 2.71367 42.9998 4.41367 44.3998 5.21367Z" fill="currentColor" fill-opacity="0.2"></path>
                      <path d="M43.0997 13.7141C43.7997 12.3141 43.2997 10.6141 41.8997 9.81413C40.4997 9.11413 38.7997 9.61413 37.9997 11.0141C37.2997 12.4141 37.7997 14.1141 39.1997 14.9141C40.5997 15.6141 42.2997 15.0141 43.0997 13.7141Z" fill="currentColor"></path>
                      <path d="M43.0997 13.7141C43.7997 12.3141 43.2997 10.6141 41.8997 9.81413C40.4997 9.11413 38.7997 9.61413 37.9997 11.0141C37.2997 12.4141 37.7997 14.1141 39.1997 14.9141C40.5997 15.6141 42.2997 15.0141 43.0997 13.7141Z" fill="currentColor" fill-opacity="0.2"></path>
                      <path d="M37.9005 23.3137C38.6005 21.9137 38.1005 20.2137 36.7005 19.4137C35.3005 18.7137 33.6005 19.2137 32.8005 20.6137C32.1005 22.0137 32.6005 23.7137 34.0005 24.5137C35.4005 25.2137 37.1005 24.7137 37.9005 23.3137Z" fill="currentColor"></path>
                      <path d="M37.9005 23.3137C38.6005 21.9137 38.1005 20.2137 36.7005 19.4137C35.3005 18.7137 33.6005 19.2137 32.8005 20.6137C32.1005 22.0137 32.6005 23.7137 34.0005 24.5137C35.4005 25.2137 37.1005 24.7137 37.9005 23.3137Z" fill="currentColor" fill-opacity="0.2"></path>
                      <path d="M32.7003 33.0139C33.4003 31.6139 32.9003 29.9139 31.5003 29.1139C30.1003 28.4139 28.4003 28.9139 27.6003 30.3139C26.9003 31.7139 27.4003 33.4139 28.8003 34.2139C30.2003 34.9139 32.0003 34.4139 32.7003 33.0139Z" fill="currentColor"></path>
                      <path d="M32.7003 33.0139C33.4003 31.6139 32.9003 29.9139 31.5003 29.1139C30.1003 28.4139 28.4003 28.9139 27.6003 30.3139C26.9003 31.7139 27.4003 33.4139 28.8003 34.2139C30.2003 34.9139 32.0003 34.4139 32.7003 33.0139Z" fill="currentColor" fill-opacity="0.2"></path>
                      <path d="M27.5001 42.6145C28.2001 41.2145 27.7001 39.5145 26.3001 38.7145C24.9001 38.0145 23.2001 38.5145 22.4001 39.9145C21.7001 41.3145 22.2001 43.0145 23.6001 43.8145C25.1001 44.6145 26.8001 44.0145 27.5001 42.6145Z" fill="currentColor"></path>
                      <path d="M27.5001 42.6145C28.2001 41.2145 27.7001 39.5145 26.3001 38.7145C24.9001 38.0145 23.2001 38.5145 22.4001 39.9145C21.7001 41.3145 22.2001 43.0145 23.6001 43.8145C25.1001 44.6145 26.8001 44.0145 27.5001 42.6145Z" fill="currentColor" fill-opacity="0.2"></path>
                      <path d="M22.4005 52.3137C23.1005 50.9137 22.6005 49.2137 21.2005 48.4137C19.8005 47.7137 18.1005 48.2137 17.3005 49.6137C16.6005 51.0137 17.1005 52.7137 18.5005 53.5137C19.9005 54.2137 21.6005 53.7137 22.4005 52.3137Z" fill="currentColor"></path>
                      <path d="M22.4005 52.3137C23.1005 50.9137 22.6005 49.2137 21.2005 48.4137C19.8005 47.7137 18.1005 48.2137 17.3005 49.6137C16.6005 51.0137 17.1005 52.7137 18.5005 53.5137C19.9005 54.2137 21.6005 53.7137 22.4005 52.3137Z" fill="currentColor" fill-opacity="0.2"></path>
                      <path d="M17.2002 62.0139C17.9002 60.6139 17.4002 58.9139 16.0002 58.1139C14.6002 57.4139 12.9002 57.9139 12.1002 59.3139C11.8002 59.9139 11.7002 60.5139 11.8002 61.1139C12.7002 61.9139 13.8002 62.8139 14.8002 63.5139C15.8002 63.4139 16.7002 62.9139 17.2002 62.0139Z" fill="currentColor"></path>
                      <path d="M17.2002 62.0139C17.9002 60.6139 17.4002 58.9139 16.0002 58.1139C14.6002 57.4139 12.9002 57.9139 12.1002 59.3139C11.8002 59.9139 11.7002 60.5139 11.8002 61.1139C12.7002 61.9139 13.8002 62.8139 14.8002 63.5139C15.8002 63.4139 16.7002 62.9139 17.2002 62.0139Z" fill="currentColor" fill-opacity="0.2"></path>
                      <path d="M37.0001 4.21413C37.7001 2.81413 37.2001 1.11413 35.8001 0.314133C34.4001 -0.385867 32.7001 0.114134 31.9001 1.51413C31.2001 2.91413 31.7001 4.61414 33.1001 5.41414C34.6001 6.11414 36.3001 5.61413 37.0001 4.21413Z" fill="currentColor"></path>
                      <path d="M37.0001 4.21413C37.7001 2.81413 37.2001 1.11413 35.8001 0.314133C34.4001 -0.385867 32.7001 0.114134 31.9001 1.51413C31.2001 2.91413 31.7001 4.61414 33.1001 5.41414C34.6001 6.11414 36.3001 5.61413 37.0001 4.21413Z" fill="currentColor" fill-opacity="0.2"></path>
                      <path d="M31.9005 13.9143C32.6005 12.5143 32.1005 10.8143 30.7005 10.0143C29.3005 9.31433 27.6005 9.81433 26.8005 11.2143C26.1005 12.6143 26.6005 14.3143 28.0005 15.1143C29.4005 15.8143 31.1005 15.3143 31.9005 13.9143Z" fill="currentColor"></path>
                      <path d="M31.9005 13.9143C32.6005 12.5143 32.1005 10.8143 30.7005 10.0143C29.3005 9.31433 27.6005 9.81433 26.8005 11.2143C26.1005 12.6143 26.6005 14.3143 28.0005 15.1143C29.4005 15.8143 31.1005 15.3143 31.9005 13.9143Z" fill="currentColor" fill-opacity="0.2"></path>
                      <path d="M26.7003 23.5139C27.4003 22.1139 26.9003 20.4139 25.5003 19.6139C24.1003 18.9139 22.4003 19.4139 21.6003 20.8139C20.9003 22.2139 21.4003 23.9139 22.8003 24.7139C24.2003 25.4139 25.9003 24.9139 26.7003 23.5139Z" fill="currentColor"></path>
                      <path d="M26.7003 23.5139C27.4003 22.1139 26.9003 20.4139 25.5003 19.6139C24.1003 18.9139 22.4003 19.4139 21.6003 20.8139C20.9003 22.2139 21.4003 23.9139 22.8003 24.7139C24.2003 25.4139 25.9003 24.9139 26.7003 23.5139Z" fill="currentColor" fill-opacity="0.2"></path>
                      <path d="M21.5001 33.2141C22.2001 31.8141 21.7001 30.1141 20.3001 29.3141C18.9001 28.6141 17.2001 29.1141 16.4001 30.5141C15.7001 31.9141 16.2001 33.6141 17.6001 34.4141C19.0001 35.1141 20.8001 34.6141 21.5001 33.2141Z" fill="currentColor"></path>
                      <path d="M21.5001 33.2141C22.2001 31.8141 21.7001 30.1141 20.3001 29.3141C18.9001 28.6141 17.2001 29.1141 16.4001 30.5141C15.7001 31.9141 16.2001 33.6141 17.6001 34.4141C19.0001 35.1141 20.8001 34.6141 21.5001 33.2141Z" fill="currentColor" fill-opacity="0.2"></path>
                      <path d="M16.2999 42.9143C16.9999 41.5143 16.4999 39.8143 15.0999 39.0143C13.6999 38.3143 11.9999 38.8143 11.1999 40.2143C10.4999 41.6143 10.9999 43.3143 12.3999 44.1143C13.7999 44.8143 15.5999 44.2143 16.2999 42.9143Z" fill="currentColor"></path>
                      <path d="M16.2999 42.9143C16.9999 41.5143 16.4999 39.8143 15.0999 39.0143C13.6999 38.3143 11.9999 38.8143 11.1999 40.2143C10.4999 41.6143 10.9999 43.3143 12.3999 44.1143C13.7999 44.8143 15.5999 44.2143 16.2999 42.9143Z" fill="currentColor" fill-opacity="0.2"></path>
                      <path d="M11.0997 52.5139C11.7997 51.1139 11.2997 49.4139 9.89968 48.6139C8.49968 47.9139 6.79968 48.4139 5.99968 49.8139C5.29968 51.2139 5.79968 52.9139 7.19968 53.7139C8.69968 54.4139 10.3997 53.9139 11.0997 52.5139Z" fill="currentColor"></path>
                      <path d="M11.0997 52.5139C11.7997 51.1139 11.2997 49.4139 9.89968 48.6139C8.49968 47.9139 6.79968 48.4139 5.99968 49.8139C5.29968 51.2139 5.79968 52.9139 7.19968 53.7139C8.69968 54.4139 10.3997 53.9139 11.0997 52.5139Z" fill="currentColor" fill-opacity="0.2"></path>
                    </svg>
                  