
                    <svg viewBox="0 0 77 62" fill="none" xmlns="http://www.w3.org/2000/svg">
                      <path d="M46.9406 52.525H17.8406C17.0406 52.525 16.5406 51.625 16.9406 50.925L31.4406 25.725L45.9406 0.525C46.3406 -0.175 47.3406 -0.175 47.7406 0.525L62.2406 25.725L76.7406 50.925C77.1406 51.625 76.6406 52.525 75.8406 52.525H46.9406Z" fill="#94a3b8"></path>
                      <path d="M31.1408 60.7252H2.0408C1.2408 60.7252 0.740777 59.8252 1.14078 59.1252L15.6408 33.9252L30.1408 8.7252C30.5408 8.0252 31.5408 8.0252 31.9408 8.7252L46.4408 33.9252L60.9408 59.1252C61.3408 59.8252 60.8408 60.7252 60.0408 60.7252H31.1408Z" stroke="#503083" stroke-width="3.25" stroke-miterlimit="10"></path>
                      <path d="M31.1408 60.7252H2.0408C1.2408 60.7252 0.740777 59.8252 1.14078 59.1252L15.6408 33.9252L30.1408 8.7252C30.5408 8.0252 31.5408 8.0252 31.9408 8.7252L46.4408 33.9252L60.9408 59.1252C61.3408 59.8252 60.8408 60.7252 60.0408 60.7252H31.1408Z" stroke="#503083" stroke-opacity="0.2" stroke-width="3.25" stroke-miterlimit="10"></path>
                    </svg>
