<svg xmlns="http://www.w3.org/2000/svg" width="632" height="381" fill="none" viewBox="0 0 632 381"><path fill="url(#paint0_linear_1428_422)" d="M100 272.809V4.19119H215.529C243.753 4.19119 265.52 11.8115 280.828 27.0523C296.136 42.039 303.79 62.995 303.79 89.9202C303.79 116.845 296.136 137.928 280.828 153.169C265.52 168.41 243.753 176.03 215.529 176.03H155.612V272.809H100ZM155.612 130.308H206.2C235.621 130.308 250.331 116.845 250.331 89.9202C250.331 63.503 235.621 50.2943 206.2 50.2943H155.612V130.308Z"/><path fill="url(#paint1_linear_1428_422)" d="M428.67 277C408.817 277 390.041 274.333 372.341 268.999C354.88 263.664 340.289 256.425 328.569 247.281L344.714 200.796C355.956 209.179 368.753 215.783 383.104 220.609C397.695 225.436 412.883 227.849 428.67 227.849C445.892 227.849 458.21 225.055 465.625 219.466C473.279 213.624 477.106 206.385 477.106 197.748C477.106 190.382 474.475 184.54 469.213 180.221C463.95 175.903 454.742 172.22 441.586 169.172L401.043 160.028C355.836 149.867 333.233 124.974 333.233 85.348C333.233 68.3292 337.538 53.4695 346.149 40.7689C354.76 27.8143 366.72 17.7808 382.028 10.6685C397.575 3.55617 415.514 0 435.846 0C453.306 0 469.691 2.66712 484.999 8.00136C500.307 13.3356 512.984 20.829 523.03 30.4814L506.885 73.9175C487.271 57.4067 463.472 49.1513 435.487 49.1513C420.418 49.1513 408.697 52.3265 400.326 58.6767C392.193 64.773 388.127 72.7744 388.127 82.6809C388.127 90.0472 390.639 96.0165 395.662 100.589C400.685 105.161 409.415 108.844 421.853 111.638L462.396 120.783C508.799 131.451 532 155.582 532 193.176C532 209.941 527.695 224.674 519.084 237.374C510.712 249.821 498.753 259.6 483.205 266.713C467.897 273.571 449.719 277 428.67 277Z"/><path fill="url(#paint2_linear_1428_422)" d="M8.10824 379.528C6.21958 379.081 4.75423 378.345 3.71221 377.322C2.73531 376.234 1.98636 374.987 1.46535 373.58C1.00946 372.109 0.683828 370.51 0.488448 368.783C0.358195 367.057 0.195379 365.266 0 363.411C0.260506 362.579 0.586138 361.876 0.976897 361.3C1.43278 360.725 1.62816 359.925 1.56303 358.902C2.27943 356.855 2.93069 354.873 3.51683 352.954C4.10297 351.035 4.49373 349.052 4.6891 347.006C5.07986 346.43 5.47062 346.046 5.86138 345.854C6.38239 342.209 6.44752 338.467 6.05676 334.63C5.666 330.792 5.01474 327.243 4.10297 323.981C4.16809 323.277 4.26578 322.766 4.39604 322.446C4.52629 322.062 4.52629 321.742 4.39604 321.486C4.26578 320.911 4.46116 320.623 4.98217 320.623C5.50319 320.623 6.0242 320.623 6.54521 320.623C6.54521 319.472 6.31727 318.353 5.86138 317.265C5.47062 316.114 5.07986 314.803 4.6891 313.332C5.21012 312.181 5.56831 311.061 5.76369 309.974C5.95907 308.887 6.31727 307.895 6.83828 307C8.92232 307.64 10.9738 308.375 12.9927 309.207C15.0116 310.038 16.998 310.869 18.9518 311.701C20.9056 312.468 22.8268 313.236 24.7155 314.003C26.6042 314.707 28.4603 315.283 30.2838 315.73C33.0842 317.713 35.9498 319.696 38.8805 321.678C41.8763 323.597 44.5791 325.74 46.9887 328.106C49.4635 330.409 51.515 333.063 53.1432 336.069C54.7713 339.075 55.7157 342.625 55.9762 346.718C55.8459 347.102 55.7482 347.421 55.6831 347.677C55.618 347.933 55.5529 348.189 55.4877 348.445C55.4226 348.701 55.39 348.988 55.39 349.308C55.39 349.628 55.39 350.076 55.39 350.651C53.0455 354.681 50.0822 358.07 46.5003 360.821C42.9183 363.571 39.0107 366.001 34.7775 368.112C30.5443 370.222 26.1157 372.173 21.4917 373.964C16.9329 375.691 12.4717 377.546 8.10824 379.528ZM17.6818 325.132C17.0957 325.132 16.6724 325.26 16.4119 325.516C17.1934 328.394 17.7795 331.112 18.1703 333.67C18.561 336.229 18.7564 338.787 18.7564 341.345C18.8215 343.904 18.6913 346.526 18.3657 349.212C18.04 351.898 17.5841 354.809 16.998 357.943C17.8446 357.879 18.5936 357.719 19.2449 357.463C19.8961 357.207 20.5474 356.919 21.1987 356.599C21.9151 356.28 22.6314 355.992 23.3478 355.736C24.1294 355.48 25.0086 355.32 25.9855 355.256C26.246 354.745 26.5716 354.361 26.9624 354.105C27.4182 353.785 27.809 353.465 28.1346 353.146C29.7628 352.506 31.391 351.835 33.0191 351.131C34.6473 350.427 36.1452 349.628 37.5128 348.733C38.8805 347.837 40.1179 346.814 41.225 345.663C42.3322 344.511 43.244 343.136 43.9604 341.537C43.4393 340.578 42.7881 339.778 42.0066 339.139C41.2902 338.435 40.5087 337.764 39.662 337.124C38.8805 336.421 38.099 335.717 37.3175 335.014C36.6011 334.246 36.0149 333.383 35.559 332.423C34.517 332.295 33.6052 332.04 32.8237 331.656C32.0422 331.208 31.2933 330.792 30.5769 330.409C29.8605 329.961 29.079 329.545 28.2323 329.161C27.4508 328.778 26.5065 328.554 25.3993 328.49C23.706 327.594 22.1756 326.987 20.8079 326.667C19.4402 326.283 18.3982 325.772 17.6818 325.132Z"/><path fill="url(#paint3_linear_1428_422)" d="M110.975 324.461C111.041 324.908 111.041 325.26 110.975 325.516C110.975 325.708 110.943 325.9 110.878 326.091C110.878 326.283 110.878 326.507 110.878 326.763C110.878 326.955 110.943 327.275 111.073 327.722C109.706 329.897 108.11 331.4 106.286 332.231C104.528 332.999 102.607 333.575 100.523 333.958C98.4386 334.278 96.2895 334.63 94.0752 335.014C91.926 335.397 89.7768 336.229 87.6276 337.508C86.781 337.188 85.9995 337.188 85.2831 337.508C84.6318 337.828 83.6549 337.924 82.3524 337.796C81.9616 338.179 81.4732 338.467 80.8871 338.659C80.3009 338.787 79.7148 338.947 79.1286 339.139C79.3891 339.715 79.4868 340.322 79.4217 340.962C79.4217 341.537 79.5194 342.017 79.7148 342.401C81.9942 342.593 84.5016 342.561 87.2369 342.305C90.0373 342.049 92.7726 341.889 95.4428 341.825C95.5079 342.145 95.4754 342.369 95.3451 342.497C95.2149 342.561 95.1823 342.721 95.2474 342.976C95.7033 343.296 96.1592 343.712 96.6151 344.224C97.071 344.671 97.5269 345.119 97.9827 345.567C98.4386 346.014 98.8945 346.398 99.3504 346.718C99.8714 346.974 100.458 347.07 101.109 347.006C101.369 347.517 101.532 348.093 101.597 348.733C101.728 349.308 101.662 349.916 101.402 350.555C100.36 351.259 99.3178 351.994 98.2758 352.762C97.2338 353.465 96.1266 354.105 94.9544 354.681C93.8472 355.256 92.6424 355.736 91.3399 356.12C90.1024 356.44 88.7022 356.567 87.1392 356.503C86.8136 356.503 86.5531 356.503 86.3577 356.503C86.2274 356.503 86.032 356.408 85.7715 356.216C85.2505 356.535 84.5016 356.631 83.5247 356.503C82.6129 356.376 81.8965 356.471 81.3755 356.791C80.6591 356.471 79.7799 356.344 78.7379 356.408C77.761 356.408 76.8818 356.28 76.1003 356.024C75.0582 357.367 74.1139 358.806 73.2673 360.341C72.4206 361.876 71.6717 363.507 71.0204 365.234C73.2347 365.554 75.0582 365.681 76.491 365.617C77.9889 365.554 79.3891 365.458 80.6917 365.33C81.9942 365.138 83.3293 364.978 84.697 364.85C86.0646 364.658 87.7905 364.594 89.8745 364.658C91.177 363.955 92.7075 363.507 94.4659 363.315C96.2895 363.059 97.9502 362.675 99.4481 362.164C99.9691 362.356 100.425 362.707 100.816 363.219C101.207 363.667 101.565 364.114 101.89 364.562C102.281 364.946 102.672 365.298 103.063 365.617C103.453 365.937 103.942 366.065 104.528 366.001C104.788 366.257 104.951 366.577 105.016 366.961C105.147 367.28 105.244 367.6 105.309 367.92C105.375 368.24 105.472 368.528 105.603 368.783C105.798 368.975 106.091 369.039 106.482 368.975C105.505 371.086 104.365 372.717 103.063 373.868C101.825 374.955 100.392 375.787 98.7643 376.362C97.1361 376.938 95.3126 377.386 93.2936 377.706C91.3398 378.025 89.1581 378.409 86.7484 378.857C86.1623 378.985 85.6738 378.953 85.2831 378.761C84.8923 378.633 84.4364 378.569 83.9154 378.569C82.4175 378.889 80.6265 379.177 78.5425 379.432C76.4585 379.688 74.3418 379.784 72.1927 379.72C70.0435 379.656 67.992 379.368 66.0382 378.857C64.0844 378.409 62.4888 377.578 61.2514 376.362C60.7304 375.915 60.3722 375.403 60.1768 374.827C60.0466 374.188 59.6233 373.708 58.9069 373.388C58.8417 372.557 58.7115 371.63 58.5161 370.606C58.3207 369.583 58.1254 368.528 57.93 367.44C57.7346 366.289 57.5718 365.17 57.4415 364.082C57.3764 362.995 57.4415 362.004 57.6369 361.108C57.8323 360.149 58.223 359.286 58.8092 358.518C59.4604 357.751 59.6884 356.919 59.493 356.024C59.8186 355.96 60.014 355.8 60.0792 355.544C60.1443 355.224 60.4048 355.096 60.8607 355.16C61.2514 354.009 61.6747 352.922 62.1306 351.898C62.5865 350.875 63.0424 349.884 63.4983 348.924C64.0193 347.965 64.5078 347.006 64.9636 346.046C65.4846 345.023 65.9731 343.904 66.429 342.689C65.5172 341.857 64.8334 340.962 64.3775 340.002C63.9867 338.979 63.6937 337.988 63.4983 337.028C63.3029 336.005 63.1401 334.982 63.0098 333.958C62.8796 332.871 62.6516 331.784 62.326 330.696C62.9773 329.737 63.7588 328.97 64.6706 328.394C65.6475 327.754 66.6895 327.243 67.7966 326.859C68.9038 326.475 70.1086 326.155 71.4112 325.9C72.7137 325.644 74.0813 325.356 75.5141 325.036C78.1192 324.205 80.4312 323.565 82.4501 323.117C84.5341 322.67 86.5531 322.318 88.5069 322.062C90.5258 321.742 92.6098 321.455 94.759 321.199C96.9082 320.943 99.3504 320.559 102.086 320.047C102.672 320.623 103.225 320.911 103.746 320.911C104.007 320.335 104.3 320.175 104.626 320.431C105.016 320.623 105.179 320.431 105.114 319.856C105.765 320.943 106.579 321.87 107.556 322.638C108.598 323.341 109.738 323.949 110.975 324.461Z"/><path fill="url(#paint4_linear_1428_422)" d="M141.162 361.588C141.096 362.484 140.869 363.347 140.478 364.178C140.152 364.946 139.729 365.713 139.208 366.481C138.687 367.184 138.101 367.888 137.449 368.592C136.863 369.231 136.277 369.807 135.691 370.318C135.886 371.15 135.886 371.789 135.691 372.237C135.561 372.621 135.528 373.228 135.593 374.06C134.616 376.618 133.118 378.313 131.1 379.145C129.146 380.04 127.29 379.88 125.531 378.665C124.815 378.153 124.196 377.514 123.675 376.746C123.219 375.915 122.568 375.403 121.721 375.211C121.917 374.124 121.819 373.037 121.428 371.949C121.038 370.862 120.614 370.286 120.158 370.222C119.963 368.879 119.67 367.44 119.279 365.905C118.888 364.37 118.53 362.835 118.205 361.3C117.879 359.701 117.586 358.166 117.325 356.695C117.13 355.16 117.065 353.753 117.13 352.474C117.195 351.835 117.065 351.259 116.739 350.747C116.479 350.236 116.283 349.628 116.153 348.924C115.893 347.453 115.795 345.918 115.86 344.319C115.99 342.657 116.055 341.09 116.055 339.619C116.055 338.211 115.958 336.708 115.762 335.11C115.632 333.447 115.502 331.88 115.372 330.409C115.241 328.874 115.176 327.499 115.176 326.283C115.176 325.004 115.339 324.013 115.665 323.309C116.055 322.542 116.576 321.934 117.228 321.486C117.944 320.975 118.595 320.431 119.181 319.856C120.614 319.983 121.754 320.559 122.601 321.582C123.447 322.606 123.773 323.565 123.577 324.461C124.945 325.292 126.02 326.379 126.801 327.722C127.648 329.002 128.299 330.473 128.755 332.135C129.276 333.734 129.634 335.461 129.83 337.316C130.025 339.107 130.188 340.898 130.318 342.689C130.448 344.415 130.579 346.078 130.709 347.677C130.839 349.276 131.1 350.651 131.49 351.803C133.9 348.413 135.919 345.407 137.547 342.784C139.175 340.098 140.836 337.54 142.529 335.11C144.223 332.679 146.111 330.217 148.195 327.722C150.279 325.228 152.982 322.414 156.303 319.28C156.955 319.344 157.476 319.472 157.867 319.664C158.322 319.856 158.713 320.015 159.039 320.143C159.364 320.271 159.755 320.399 160.211 320.527C160.667 320.591 161.286 320.559 162.067 320.431C162.328 321.071 162.523 321.55 162.653 321.87C162.784 322.126 162.881 322.414 162.946 322.734C163.077 322.99 163.207 323.341 163.337 323.789C163.533 324.237 163.826 324.876 164.216 325.708C164.412 325.9 164.477 326.155 164.412 326.475C164.347 326.795 164.281 327.115 164.216 327.435C164.216 327.69 164.216 327.882 164.216 328.01C164.216 328.138 164.379 328.138 164.705 328.01C164.509 328.906 164.151 329.737 163.63 330.505C163.174 331.208 162.979 332.072 163.044 333.095C161.546 335.014 159.885 336.996 158.062 339.043C156.303 341.09 154.513 343.2 152.689 345.375C150.931 347.549 149.237 349.852 147.609 352.282C145.981 354.649 144.581 357.143 143.408 359.765C143.083 359.765 142.822 359.861 142.627 360.053C142.497 360.245 142.366 360.469 142.236 360.725C142.106 360.917 141.943 361.108 141.748 361.3C141.617 361.492 141.422 361.588 141.162 361.588Z"/><path fill="url(#paint5_linear_1428_422)" d="M211.694 324.461C211.759 324.908 211.759 325.26 211.694 325.516C211.694 325.708 211.661 325.9 211.596 326.091C211.596 326.283 211.596 326.507 211.596 326.763C211.596 326.955 211.661 327.275 211.791 327.722C210.424 329.897 208.828 331.4 207.004 332.231C205.246 332.999 203.325 333.575 201.241 333.958C199.157 334.278 197.008 334.63 194.793 335.014C192.644 335.397 190.495 336.229 188.346 337.508C187.499 337.188 186.718 337.188 186.001 337.508C185.35 337.828 184.373 337.924 183.07 337.796C182.68 338.179 182.191 338.467 181.605 338.659C181.019 338.787 180.433 338.947 179.847 339.139C180.107 339.715 180.205 340.322 180.14 340.962C180.14 341.537 180.237 342.017 180.433 342.401C182.712 342.593 185.22 342.561 187.955 342.305C190.755 342.049 193.491 341.889 196.161 341.825C196.226 342.145 196.193 342.369 196.063 342.497C195.933 342.561 195.9 342.721 195.965 342.976C196.421 343.296 196.877 343.712 197.333 344.224C197.789 344.671 198.245 345.119 198.701 345.567C199.157 346.014 199.613 346.398 200.068 346.718C200.589 346.974 201.176 347.07 201.827 347.006C202.087 347.517 202.25 348.093 202.315 348.733C202.446 349.308 202.38 349.916 202.12 350.555C201.078 351.259 200.036 351.994 198.994 352.762C197.952 353.465 196.845 354.105 195.672 354.681C194.565 355.256 193.36 355.736 192.058 356.12C190.821 356.44 189.42 356.567 187.857 356.503C187.532 356.503 187.271 356.503 187.076 356.503C186.945 356.503 186.75 356.408 186.49 356.216C185.969 356.535 185.22 356.631 184.243 356.503C183.331 356.376 182.615 356.471 182.094 356.791C181.377 356.471 180.498 356.344 179.456 356.408C178.479 356.408 177.6 356.28 176.818 356.024C175.776 357.367 174.832 358.806 173.985 360.341C173.139 361.876 172.39 363.507 171.738 365.234C173.953 365.554 175.776 365.681 177.209 365.617C178.707 365.554 180.107 365.458 181.41 365.33C182.712 365.138 184.047 364.978 185.415 364.85C186.783 364.658 188.509 364.594 190.593 364.658C191.895 363.955 193.426 363.507 195.184 363.315C197.008 363.059 198.668 362.675 200.166 362.164C200.687 362.356 201.143 362.707 201.534 363.219C201.925 363.667 202.283 364.114 202.608 364.562C202.999 364.946 203.39 365.298 203.781 365.617C204.171 365.937 204.66 366.065 205.246 366.001C205.507 366.257 205.669 366.577 205.734 366.961C205.865 367.28 205.962 367.6 206.028 367.92C206.093 368.24 206.19 368.528 206.321 368.783C206.516 368.975 206.809 369.039 207.2 368.975C206.223 371.086 205.083 372.717 203.781 373.868C202.543 374.955 201.11 375.787 199.482 376.362C197.854 376.938 196.031 377.386 194.012 377.706C192.058 378.025 189.876 378.409 187.466 378.857C186.88 378.985 186.392 378.953 186.001 378.761C185.61 378.633 185.154 378.569 184.633 378.569C183.136 378.889 181.345 379.177 179.261 379.432C177.177 379.688 175.06 379.784 172.911 379.72C170.762 379.656 168.71 379.368 166.756 378.857C164.802 378.409 163.207 377.578 161.969 376.362C161.448 375.915 161.09 375.403 160.895 374.827C160.765 374.188 160.341 373.708 159.625 373.388C159.56 372.557 159.43 371.63 159.234 370.606C159.039 369.583 158.843 368.528 158.648 367.44C158.453 366.289 158.29 365.17 158.16 364.082C158.094 362.995 158.16 362.004 158.355 361.108C158.55 360.149 158.941 359.286 159.527 358.518C160.179 357.751 160.406 356.919 160.211 356.024C160.537 355.96 160.732 355.8 160.797 355.544C160.862 355.224 161.123 355.096 161.579 355.16C161.969 354.009 162.393 352.922 162.849 351.898C163.305 350.875 163.76 349.884 164.216 348.924C164.737 347.965 165.226 347.006 165.682 346.046C166.203 345.023 166.691 343.904 167.147 342.689C166.235 341.857 165.551 340.962 165.096 340.002C164.705 338.979 164.412 337.988 164.216 337.028C164.021 336.005 163.858 334.982 163.728 333.958C163.598 332.871 163.37 331.784 163.044 330.696C163.695 329.737 164.477 328.97 165.389 328.394C166.366 327.754 167.408 327.243 168.515 326.859C169.622 326.475 170.827 326.155 172.129 325.9C173.432 325.644 174.799 325.356 176.232 325.036C178.837 324.205 181.149 323.565 183.168 323.117C185.252 322.67 187.271 322.318 189.225 322.062C191.244 321.742 193.328 321.455 195.477 321.199C197.626 320.943 200.068 320.559 202.804 320.047C203.39 320.623 203.943 320.911 204.464 320.911C204.725 320.335 205.018 320.175 205.344 320.431C205.734 320.623 205.897 320.431 205.832 319.856C206.483 320.943 207.298 321.87 208.274 322.638C209.316 323.341 210.456 323.949 211.694 324.461Z"/><path fill="url(#paint6_linear_1428_422)" d="M235.139 377.418C233.316 377.993 231.329 378.569 229.18 379.145C227.031 379.72 224.882 380.008 222.732 380.008C219.476 380.008 216.904 379.209 215.015 377.61C214.689 376.906 214.396 376.426 214.136 376.171C213.94 375.915 213.745 375.659 213.55 375.403C213.419 375.083 213.322 374.668 213.257 374.156C212.475 373.26 211.856 372.237 211.4 371.086C210.945 369.871 210.619 368.655 210.424 367.44C210.293 366.161 210.261 364.882 210.326 363.603C210.456 362.324 210.684 361.108 211.01 359.957C211.14 359.701 211.205 359.446 211.205 359.19C211.27 358.934 211.335 358.646 211.4 358.326C211.661 357.303 211.921 356.312 212.182 355.352C212.508 354.393 212.931 353.561 213.452 352.858C213.191 352.282 213.191 351.643 213.452 350.939C213.712 350.236 214.006 349.596 214.331 349.02C215.243 346.59 215.992 344.543 216.578 342.88C217.229 341.154 217.881 339.459 218.532 337.796C219.639 334.918 220.681 332.072 221.658 329.257C222.635 326.443 223.514 323.405 224.296 320.143C224.817 319.824 225.207 319.6 225.468 319.472C225.859 319.344 226.184 319.248 226.445 319.184C227.617 319.76 228.985 320.335 230.548 320.911C232.111 321.423 233.413 321.678 234.455 321.678C234.976 321.998 235.302 322.254 235.432 322.446C235.562 322.574 235.693 322.702 235.823 322.83C236.539 323.661 237.158 324.524 237.679 325.42C238.2 326.251 238.363 327.371 238.167 328.778C237.777 329.353 237.484 329.641 237.288 329.641C236.963 330.92 236.604 332.008 236.214 332.903C235.888 333.798 235.53 334.694 235.139 335.589C234.683 336.549 234.26 337.508 233.869 338.467C233.478 339.427 233.153 340.61 232.892 342.017C232.632 342.337 232.436 342.625 232.306 342.88C232.241 343.136 232.143 343.424 232.013 343.744C231.883 344.064 231.72 344.415 231.525 344.799C231.394 345.119 231.166 345.407 230.841 345.663C230.645 347.326 230.32 348.669 229.864 349.692C229.473 350.715 229.05 351.739 228.594 352.762C227.812 354.617 227.096 356.471 226.445 358.326C225.859 360.181 225.5 362.292 225.37 364.658C225.696 364.53 225.989 364.466 226.249 364.466C226.575 364.466 226.868 364.466 227.128 364.466C227.715 364.466 228.398 364.562 229.18 364.754C231.134 363.731 233.25 363.123 235.53 362.931C237.874 362.739 240.186 362.611 242.466 362.547C243.378 362.547 244.289 362.547 245.201 362.547C246.113 362.547 246.96 362.484 247.741 362.356C248.327 362.675 248.685 362.867 248.816 362.931C249.011 362.931 249.271 362.931 249.597 362.931C250.053 362.931 250.444 362.963 250.769 363.027C251.551 363.731 252.3 364.242 253.016 364.562C253.733 364.882 254.482 365.17 255.263 365.426C255.98 365.681 256.663 365.969 257.315 366.289C258.031 366.545 258.715 366.929 259.366 367.44L260.05 371.566C260.506 372.141 260.701 372.525 260.636 372.717C260.636 373.228 260.506 373.612 260.245 373.868L260.441 374.923C259.464 375.115 258.78 375.339 258.389 375.595C258.064 375.851 257.738 376.139 257.412 376.458C256.891 376.522 256.501 376.554 256.24 376.554C256.045 376.554 255.849 376.554 255.654 376.554C254.742 376.554 253.635 376.714 252.332 377.034C250.574 376.458 248.75 376.171 246.862 376.171C246.145 376.171 245.396 376.203 244.615 376.266C243.833 376.33 243.052 376.394 242.27 376.458C241.489 376.586 240.675 376.682 239.828 376.746C239.047 376.81 238.233 376.842 237.386 376.842L235.139 377.418Z"/><path fill="url(#paint7_linear_1428_422)" d="M319.641 349.692C319.575 350.459 319.641 351.195 319.836 351.898C320.031 352.602 320.259 353.306 320.52 354.009C320.845 354.649 321.139 355.32 321.399 356.024C321.66 356.727 321.855 357.431 321.985 358.134C322.115 359.03 322.115 360.021 321.985 361.108C321.855 362.132 321.627 363.155 321.301 364.178C320.976 365.138 320.552 366.033 320.031 366.865C319.51 367.632 318.892 368.208 318.175 368.592C317.264 369.743 316.156 370.638 314.854 371.278C313.551 371.917 312.346 372.685 311.239 373.58C310.523 374.028 309.709 374.348 308.797 374.54C307.95 374.731 307.071 374.923 306.159 375.115C305.443 375.499 304.596 375.915 303.62 376.362C302.643 376.746 301.633 377.13 300.591 377.514C299.549 377.833 298.507 378.089 297.465 378.281C296.423 378.409 295.511 378.441 294.73 378.377C292.776 379.081 290.855 379.528 288.966 379.72C287.143 379.976 284.993 379.848 282.519 379.336C280.174 379.656 277.992 379.56 275.973 379.049C274.02 378.537 272.261 377.737 270.698 376.65C269.2 375.499 267.865 374.156 266.693 372.621C265.586 371.022 264.674 369.359 263.958 367.632C263.437 363.987 263.567 360.693 264.348 357.751C265.13 354.745 266.237 351.994 267.67 349.5C269.168 346.942 270.861 344.607 272.75 342.497C274.638 340.322 276.462 338.211 278.22 336.165C278.611 336.293 278.904 336.293 279.099 336.165C279.36 335.973 279.588 335.749 279.783 335.493C279.979 335.173 280.174 334.886 280.369 334.63C280.63 334.374 280.923 334.214 281.249 334.15C281.704 333.191 282.356 332.487 283.202 332.04C284.114 331.528 284.831 330.824 285.352 329.929C285.938 329.801 286.426 329.609 286.817 329.353C287.208 329.097 287.566 328.81 287.891 328.49C288.282 328.17 288.673 327.882 289.064 327.626C289.455 327.307 289.91 327.083 290.431 326.955V325.9C291.604 325.388 292.45 324.812 292.971 324.173C293.557 323.469 294.241 322.638 295.023 321.678C295.609 321.614 296.065 321.582 296.39 321.582C296.781 321.582 297.335 321.518 298.051 321.391C298.572 320.495 299.028 319.824 299.419 319.376C299.875 318.928 300.526 318.448 301.373 317.937C302.154 318.321 303.001 318.576 303.913 318.704C304.889 318.832 305.736 319.248 306.453 319.951C306.518 320.591 306.713 321.103 307.039 321.486C307.364 321.806 307.722 322.126 308.113 322.446C308.504 322.702 308.862 322.99 309.188 323.309C309.579 323.629 309.839 324.077 309.969 324.652C310.23 324.716 310.393 324.684 310.458 324.556C310.588 324.429 310.783 324.397 311.044 324.461C311.239 325.356 311.467 325.964 311.728 326.283C311.988 326.539 312.249 327.083 312.509 327.914C312.184 328.554 311.923 329.225 311.728 329.929C311.597 330.569 311.207 331.048 310.555 331.368C310.49 331.816 310.621 332.072 310.946 332.135C311.272 332.135 311.467 332.295 311.532 332.615C311.598 333.191 311.5 333.607 311.239 333.862C312.802 336.357 314.203 339.011 315.44 341.825C316.677 344.575 318.078 347.198 319.641 349.692ZM307.429 358.806C307.69 358.102 308.016 357.527 308.406 357.079C308.862 356.631 309.123 355.96 309.188 355.064C308.862 354.553 308.667 354.169 308.602 353.913C308.537 353.593 308.504 353.114 308.504 352.474C307.071 350.491 305.834 348.381 304.792 346.142C303.75 343.84 302.577 341.697 301.275 339.715C301.145 339.97 300.917 340.226 300.591 340.482C300.265 340.738 299.907 340.674 299.517 340.29C299.386 340.802 299.158 341.186 298.833 341.441C298.507 341.633 298.149 341.729 297.758 341.729C297.367 341.665 296.944 341.569 296.488 341.441C296.097 341.25 295.739 341.026 295.414 340.77C293.525 342.241 291.636 343.68 289.748 345.087C287.859 346.494 286.166 348.125 284.668 349.98C284.407 350.108 284.244 350.172 284.179 350.172C284.114 350.108 283.919 350.14 283.593 350.268C283.072 351.483 282.421 352.602 281.639 353.625C280.923 354.585 280.207 355.576 279.49 356.599C278.774 357.623 278.155 358.71 277.634 359.861C277.113 361.013 276.82 362.356 276.755 363.891C277.862 364.786 279.165 365.33 280.662 365.522C282.16 365.713 283.691 365.745 285.254 365.617C286.882 365.49 288.445 365.298 289.943 365.042C291.506 364.722 292.939 364.562 294.241 364.562C296.977 363.923 299.321 363.091 301.275 362.068C303.229 360.981 305.28 359.893 307.429 358.806Z"/><path fill="url(#paint8_linear_1428_422)" d="M360.475 318.992C363.21 319.312 365.652 319.856 367.802 320.623C369.951 321.391 371.774 322.414 373.272 323.693C374.314 325.292 375.291 327.019 376.203 328.874C377.18 330.728 377.896 332.679 378.352 334.726C378.873 336.708 379.101 338.755 379.036 340.866C379.036 342.976 378.58 345.119 377.668 347.294C375.78 349.596 373.468 351.483 370.732 352.954C368.062 354.361 365.164 355.512 362.038 356.408C358.912 357.303 355.656 358.07 352.269 358.71C348.948 359.35 345.691 359.989 342.5 360.629C342.565 362.1 342.565 363.667 342.5 365.33C342.5 366.929 342.337 368.56 342.012 370.222C341.751 371.821 341.328 373.388 340.742 374.923C340.155 376.458 339.374 377.865 338.397 379.145C337.29 379.145 336.15 379.272 334.978 379.528C333.806 379.848 332.764 380.104 331.852 380.296C331.396 380.04 330.973 379.784 330.582 379.528C330.256 379.336 329.768 379.209 329.117 379.145C329.247 378.505 329.084 377.865 328.628 377.226C328.172 376.522 327.716 375.819 327.26 375.115C326.805 374.412 326.479 373.74 326.284 373.101C326.153 372.461 326.479 371.853 327.26 371.278C326.805 370.83 326.577 370.254 326.577 369.551C327.032 368.783 327.423 367.728 327.749 366.385C328.14 365.042 328.433 363.731 328.628 362.452C328.889 361.108 328.954 359.893 328.823 358.806C328.693 357.719 328.042 356.919 326.87 356.408C326.935 356.28 327.065 356.216 327.26 356.216C327.456 356.216 327.651 356.184 327.847 356.12C327.326 355.736 327 355.192 326.87 354.489C326.805 353.785 326.577 353.178 326.186 352.666C326.316 352.346 326.414 352.058 326.479 351.803C326.544 351.547 326.772 351.451 327.163 351.515C326.967 350.363 326.967 349.276 327.163 348.253C327.423 347.23 327.781 346.27 328.237 345.375C328.693 344.415 329.247 343.488 329.898 342.593C330.549 341.697 331.168 340.802 331.754 339.906C332.21 339.842 332.471 339.906 332.536 340.098C332.666 340.29 332.894 340.258 333.219 340.002C334.066 339.363 334.652 338.691 334.978 337.988C335.304 337.284 335.466 336.485 335.466 335.589C335.922 334.246 336.476 332.903 337.127 331.56C337.778 330.153 338.495 328.874 339.276 327.722C340.058 326.571 340.904 325.548 341.816 324.652C342.793 323.757 343.803 323.085 344.845 322.638C345.626 321.998 346.603 321.423 347.775 320.911C348.948 320.335 350.217 319.919 351.585 319.664C352.953 319.344 354.32 319.184 355.688 319.184C357.121 319.12 358.423 319.248 359.596 319.568C359.921 319.696 360.084 319.632 360.084 319.376C360.149 319.12 360.28 318.992 360.475 318.992ZM356.47 341.921C358.098 341.218 359.824 340.674 361.647 340.29C363.536 339.842 365.099 339.043 366.336 337.892C365.555 337.188 364.415 336.581 362.917 336.069C361.419 335.493 359.791 335.141 358.033 335.014C356.274 334.886 354.483 335.046 352.66 335.493C350.901 335.877 349.371 336.645 348.068 337.796C347.678 338.947 347.352 339.874 347.091 340.578C346.831 341.218 346.473 342.017 346.017 342.976C346.147 343.296 346.342 343.552 346.603 343.744C346.929 343.872 347.157 344.096 347.287 344.415C348.785 343.648 350.283 343.232 351.781 343.168C353.344 343.04 354.907 342.625 356.47 341.921Z"/><path fill="url(#paint9_linear_1428_422)" d="M443.707 376.746C443.055 377.066 442.437 377.354 441.85 377.61C441.329 377.865 440.711 377.993 439.994 377.993C437.454 376.139 436.119 372.909 435.989 368.304C435.924 363.699 436.933 357.847 439.017 350.747C439.343 350.555 439.506 350.172 439.506 349.596L438.627 348.637C438.366 348.637 438.106 348.669 437.845 348.733C437.65 348.797 437.487 349.02 437.357 349.404C435.663 350.619 433.807 351.898 431.788 353.242C429.769 354.521 427.653 355.736 425.439 356.887C423.289 357.974 421.075 358.87 418.796 359.573C416.581 360.277 414.4 360.629 412.25 360.629C406.78 360.629 402.677 357.911 399.942 352.474L399.16 351.035L398.379 352.282C398.183 352.538 397.89 353.082 397.499 353.913C397.109 354.681 396.718 355.576 396.327 356.599C395.936 357.623 395.578 358.678 395.252 359.765C394.992 360.789 394.894 361.684 394.959 362.452C394.373 363.027 393.755 363.699 393.103 364.466C392.452 365.234 391.964 366.097 391.638 367.057C391.508 367.568 391.573 368.048 391.833 368.496C391.703 369.071 391.41 369.519 390.954 369.839C390.694 370.158 390.401 370.478 390.075 370.798C389.814 371.054 389.586 371.342 389.391 371.661C389.261 371.981 389.163 372.301 389.098 372.621C389.098 372.941 389.065 373.26 389 373.58C389 374.028 388.935 374.444 388.805 374.827C387.698 377.066 386.819 378.505 386.167 379.145C385.516 379.848 384.637 380.2 383.53 380.2C383.009 380.2 382.162 380.104 380.99 379.912C380.143 379.017 379.362 377.801 378.645 376.266C377.994 374.668 377.473 372.973 377.082 371.182C376.757 369.391 376.594 367.6 376.594 365.809C376.659 363.955 376.984 362.356 377.571 361.013C377.571 360.949 377.831 360.309 378.352 359.094C378.873 357.879 379.524 356.312 380.306 354.393C381.153 352.474 382.097 350.363 383.139 348.061C384.181 345.695 385.223 343.424 386.265 341.249C387.307 339.011 388.284 336.964 389.196 335.11C390.173 333.255 390.987 331.848 391.638 330.888C392.159 330.121 392.615 329.417 393.006 328.778C393.461 328.074 393.885 327.403 394.276 326.763C395.448 324.78 396.555 323.149 397.597 321.87C398.704 320.527 400.3 319.472 402.384 318.704C403.817 319.28 404.859 319.951 405.51 320.719L405.705 321.774C405.966 322.414 406.356 322.734 406.878 322.734C407.594 322.926 408.18 323.117 408.636 323.309C409.157 323.437 409.71 323.565 410.297 323.693C410.753 324.205 411.176 324.812 411.567 325.516C412.088 326.283 412.576 327.051 413.032 327.818C413.553 328.522 413.944 329.257 414.204 330.025C414.53 330.728 414.693 331.464 414.693 332.231C414.758 332.999 414.628 333.798 414.302 334.63L414.4 335.589C414.725 336.165 414.79 336.964 414.595 337.988C414.53 338.435 414.497 338.915 414.497 339.427C414.497 339.874 414.562 340.386 414.693 340.962C415.865 341.857 416.907 342.305 417.819 342.305C418.861 342.305 419.805 342.081 420.652 341.633C421.564 341.122 422.41 340.61 423.192 340.098C423.713 339.714 424.234 339.395 424.755 339.139C425.276 338.819 425.797 338.627 426.318 338.563C427.49 337.476 428.532 336.517 429.444 335.685C430.421 334.854 431.43 334.022 432.472 333.191C434.426 331.656 436.315 329.993 438.138 328.202C439.962 326.411 441.427 324.173 442.534 321.486C443.186 321.103 443.869 320.911 444.586 320.911C445.302 320.911 446.051 321.071 446.833 321.391C447.614 321.71 448.363 322.03 449.079 322.35C449.275 322.478 449.438 322.574 449.568 322.638C449.763 322.702 449.926 322.766 450.056 322.83C450.056 323.469 450.317 324.013 450.838 324.461C451.098 324.652 451.261 324.78 451.326 324.844C451.391 324.908 451.489 324.972 451.619 325.036C452.596 325.548 453.215 326.059 453.475 326.571C453.931 328.042 454.745 329.161 455.918 329.929C455.787 330.569 455.787 331.176 455.918 331.752C456.113 332.263 456.341 332.807 456.602 333.383C456.667 333.575 456.732 333.766 456.797 333.958C456.862 334.15 456.96 334.374 457.09 334.63L455.234 334.438L455.527 336.261C455.657 337.156 455.56 338.148 455.234 339.235C454.973 340.322 454.648 341.186 454.257 341.825C454.322 343.488 454.355 344.799 454.355 345.759C454.42 346.654 454.387 347.517 454.257 348.349C454.127 349.116 453.931 349.852 453.671 350.555C453.475 351.259 453.182 352.026 452.792 352.858C453.052 356.951 452.564 360.693 451.326 364.082C450.154 367.408 448.917 370.542 447.614 373.484C447.484 373.804 447.321 374.124 447.126 374.444C446.995 374.763 446.865 375.083 446.735 375.403C446.149 375.595 445.628 375.819 445.172 376.075C444.716 376.266 444.228 376.49 443.707 376.746Z"/><path fill="url(#paint10_linear_1428_422)" d="M512.089 324.461C512.154 324.908 512.154 325.26 512.089 325.516C512.089 325.708 512.057 325.9 511.992 326.091C511.992 326.283 511.992 326.507 511.992 326.763C511.992 326.955 512.057 327.275 512.187 327.722C510.819 329.897 509.224 331.4 507.4 332.231C505.642 332.999 503.721 333.575 501.637 333.958C499.552 334.278 497.403 334.63 495.189 335.014C493.04 335.397 490.891 336.229 488.741 337.508C487.895 337.188 487.113 337.188 486.397 337.508C485.746 337.828 484.769 337.924 483.466 337.796C483.075 338.179 482.587 338.467 482.001 338.659C481.415 338.787 480.829 338.947 480.242 339.139C480.503 339.715 480.601 340.322 480.536 340.962C480.536 341.537 480.633 342.017 480.829 342.401C483.108 342.593 485.615 342.561 488.351 342.305C491.151 342.049 493.886 341.889 496.557 341.825C496.622 342.145 496.589 342.369 496.459 342.497C496.329 342.561 496.296 342.721 496.361 342.976C496.817 343.296 497.273 343.712 497.729 344.224C498.185 344.671 498.641 345.119 499.097 345.567C499.552 346.014 500.008 346.398 500.464 346.718C500.985 346.974 501.571 347.07 502.223 347.006C502.483 347.517 502.646 348.093 502.711 348.733C502.841 349.308 502.776 349.916 502.516 350.555C501.474 351.259 500.432 351.994 499.39 352.762C498.348 353.465 497.24 354.105 496.068 354.681C494.961 355.256 493.756 355.736 492.454 356.12C491.216 356.44 489.816 356.567 488.253 356.503C487.927 356.503 487.667 356.503 487.471 356.503C487.341 356.503 487.146 356.408 486.885 356.216C486.364 356.535 485.615 356.631 484.638 356.503C483.727 356.376 483.01 356.471 482.489 356.791C481.773 356.471 480.894 356.344 479.852 356.408C478.875 356.408 477.996 356.28 477.214 356.024C476.172 357.367 475.228 358.806 474.381 360.341C473.534 361.876 472.785 363.507 472.134 365.234C474.349 365.554 476.172 365.681 477.605 365.617C479.103 365.554 480.503 365.458 481.805 365.33C483.108 365.138 484.443 364.978 485.811 364.85C487.178 364.658 488.904 364.594 490.988 364.658C492.291 363.955 493.821 363.507 495.58 363.315C497.403 363.059 499.064 362.675 500.562 362.164C501.083 362.356 501.539 362.707 501.93 363.219C502.32 363.667 502.679 364.114 503.004 364.562C503.395 364.946 503.786 365.298 504.176 365.617C504.567 365.937 505.056 366.065 505.642 366.001C505.902 366.257 506.065 366.577 506.13 366.961C506.26 367.28 506.358 367.6 506.423 367.92C506.488 368.24 506.586 368.528 506.716 368.783C506.912 368.975 507.205 369.039 507.596 368.975C506.619 371.086 505.479 372.717 504.176 373.868C502.939 374.955 501.506 375.787 499.878 376.362C498.25 376.938 496.426 377.386 494.407 377.706C492.454 378.025 490.272 378.409 487.862 378.857C487.276 378.985 486.788 378.953 486.397 378.761C486.006 378.633 485.55 378.569 485.029 378.569C483.531 378.889 481.74 379.177 479.656 379.432C477.572 379.688 475.456 379.784 473.306 379.72C471.157 379.656 469.106 379.368 467.152 378.857C465.198 378.409 463.603 377.578 462.365 376.362C461.844 375.915 461.486 375.403 461.291 374.827C461.16 374.188 460.737 373.708 460.021 373.388C459.956 372.557 459.825 371.63 459.63 370.606C459.435 369.583 459.239 368.528 459.044 367.44C458.848 366.289 458.686 365.17 458.555 364.082C458.49 362.995 458.555 362.004 458.751 361.108C458.946 360.149 459.337 359.286 459.923 358.518C460.574 357.751 460.802 356.919 460.607 356.024C460.932 355.96 461.128 355.8 461.193 355.544C461.258 355.224 461.519 355.096 461.974 355.16C462.365 354.009 462.789 352.922 463.244 351.898C463.7 350.875 464.156 349.884 464.612 348.924C465.133 347.965 465.622 347.006 466.077 346.046C466.598 345.023 467.087 343.904 467.543 342.689C466.631 341.857 465.947 340.962 465.491 340.002C465.101 338.979 464.807 337.988 464.612 337.028C464.417 336.005 464.254 334.982 464.124 333.958C463.993 332.871 463.765 331.784 463.44 330.696C464.091 329.737 464.873 328.97 465.784 328.394C466.761 327.754 467.803 327.243 468.91 326.859C470.018 326.475 471.222 326.155 472.525 325.9C473.827 325.644 475.195 325.356 476.628 325.036C479.233 324.205 481.545 323.565 483.564 323.117C485.648 322.67 487.667 322.318 489.621 322.062C491.64 321.742 493.724 321.455 495.873 321.199C498.022 320.943 500.464 320.559 503.2 320.047C503.786 320.623 504.339 320.911 504.86 320.911C505.121 320.335 505.414 320.175 505.739 320.431C506.13 320.623 506.293 320.431 506.228 319.856C506.879 320.943 507.693 321.87 508.67 322.638C509.712 323.341 510.852 323.949 512.089 324.461Z"/><path fill="url(#paint11_linear_1428_422)" d="M529.771 361.013C529.185 361.14 528.762 361.492 528.501 362.068C528.241 362.579 527.98 363.123 527.72 363.699C527.524 364.274 527.296 364.818 527.036 365.33C526.84 365.777 526.515 366.001 526.059 366.001C525.994 366.513 525.798 366.961 525.473 367.344C525.212 367.728 524.952 368.144 524.691 368.592C524.431 368.975 524.235 369.423 524.105 369.935C523.975 370.382 524.04 370.926 524.3 371.566C523.779 371.949 523.454 372.493 523.324 373.197C523.193 373.9 523.031 374.572 522.835 375.211C522.705 375.851 522.444 376.394 522.054 376.842C521.663 377.29 520.947 377.482 519.904 377.418C519.709 377.674 519.677 377.833 519.807 377.897C519.937 377.961 520.035 378.185 520.1 378.569C519.383 378.441 518.83 378.473 518.439 378.665C518.114 378.921 517.69 379.081 517.169 379.145C515.932 378.761 514.89 378.089 514.043 377.13C513.262 376.171 512.545 375.115 511.894 373.964C511.308 372.749 510.754 371.534 510.233 370.318C509.777 369.103 509.321 368.048 508.866 367.152C509.061 366.449 509.093 365.777 508.963 365.138C508.833 364.434 508.605 363.859 508.279 363.411C511.471 356.759 514.955 349.66 518.732 342.113C522.51 334.566 526.091 327.115 529.478 319.76C530.976 320.335 532.441 321.007 533.874 321.774C535.372 322.478 536.707 323.309 537.879 324.269C539.117 325.228 540.159 326.347 541.005 327.626C541.852 328.842 542.406 330.217 542.666 331.752C542.536 332.135 542.373 332.295 542.178 332.231C542.047 332.103 541.917 332.135 541.787 332.327C542.047 332.647 542.178 332.871 542.178 332.999C542.243 333.127 542.243 333.255 542.178 333.383C542.178 333.511 542.178 333.702 542.178 333.958C542.178 334.15 542.275 334.438 542.471 334.822C542.21 334.758 542.015 334.79 541.885 334.918C541.82 335.046 541.624 335.046 541.299 334.918C541.559 335.621 541.624 336.197 541.494 336.645C541.429 337.092 541.299 337.508 541.103 337.892C540.908 338.211 540.745 338.595 540.615 339.043C540.484 339.427 540.517 339.938 540.712 340.578C540.517 340.578 540.354 340.642 540.224 340.77C540.159 340.834 540.094 340.93 540.029 341.058C539.963 341.122 539.866 341.218 539.735 341.345C539.67 341.409 539.54 341.409 539.345 341.345C539.54 342.753 539.605 344.16 539.54 345.567C539.475 346.974 539.41 348.413 539.345 349.884C539.345 351.291 539.377 352.794 539.442 354.393C539.508 355.928 539.735 357.527 540.126 359.19C542.471 357.847 544.327 356.12 545.695 354.009C547.127 351.898 548.267 349.532 549.114 346.91C550.025 344.287 550.709 341.473 551.165 338.467C551.621 335.461 552.109 332.391 552.63 329.257C553.217 328.682 553.673 327.978 553.998 327.147C554.324 326.315 554.617 325.452 554.877 324.556C555.138 323.597 555.398 322.67 555.659 321.774C555.919 320.815 556.245 319.951 556.636 319.184C557.613 319.312 558.427 319.632 559.078 320.143C559.794 320.591 560.446 321.103 561.032 321.678C561.618 322.19 562.237 322.702 562.888 323.213C563.539 323.661 564.353 323.949 565.33 324.077C566.112 325.164 566.828 326.219 567.479 327.243C568.131 328.266 568.554 329.353 568.749 330.505C568.424 331.016 568.163 331.592 567.968 332.231C567.838 332.871 567.675 333.511 567.479 334.15C567.284 334.79 567.023 335.397 566.698 335.973C566.372 336.485 565.916 336.932 565.33 337.316C565.135 338.979 564.874 340.514 564.549 341.921C564.288 343.264 563.995 344.607 563.669 345.95C563.409 347.294 563.181 348.701 562.986 350.172C562.79 351.579 562.725 353.146 562.79 354.873C562.269 356.344 561.716 357.911 561.13 359.573C560.543 361.236 560.087 362.739 559.762 364.082C558.72 364.914 557.906 365.905 557.32 367.057C556.733 368.208 556.115 369.359 555.464 370.51C555.203 370.766 555.04 370.83 554.975 370.702C554.91 370.574 554.682 370.478 554.291 370.414C554.356 370.67 554.356 370.862 554.291 370.99C554.226 371.118 554.128 371.246 553.998 371.374C553.933 371.438 553.868 371.566 553.803 371.757C553.803 371.949 553.868 372.205 553.998 372.525C553.086 372.909 552.272 373.452 551.556 374.156C550.84 374.859 550.058 375.499 549.211 376.075C548.43 376.65 547.453 377.034 546.281 377.226C545.174 377.418 543.708 377.194 541.885 376.554C539.214 374.636 536.837 372.429 534.753 369.935C532.734 367.44 531.074 364.466 529.771 361.013Z"/><path fill="url(#paint12_linear_1428_422)" d="M621.795 332.327C620.167 332.327 618.408 332.455 616.52 332.711C614.631 332.903 612.775 333.127 610.951 333.383C609.649 333.575 608.379 333.734 607.141 333.862C605.969 333.99 604.894 334.086 603.918 334.15C603.462 335.557 603.006 336.804 602.55 337.892C602.094 338.979 601.606 340.034 601.085 341.058C600.564 342.145 600.075 343.264 599.619 344.415C599.229 345.503 598.838 346.686 598.447 347.965C597.796 348.988 597.242 349.948 596.786 350.843C596.395 351.675 596.07 352.634 595.809 353.721C595.028 354.681 594.442 355.704 594.051 356.791C593.66 357.815 593.367 358.71 593.172 359.478L592.781 360.629C592.39 361.013 592.162 361.332 592.097 361.588C592.032 361.78 591.869 361.972 591.609 362.164C591.544 362.867 591.316 363.571 590.925 364.274C590.795 364.594 590.697 364.914 590.632 365.234C590.567 365.49 590.534 365.681 590.534 365.809C590.534 366.449 590.371 366.865 590.046 367.057C590.111 367.376 590.111 367.728 590.046 368.112C589.981 368.432 589.915 368.751 589.85 369.071C589.655 369.839 589.59 370.446 589.655 370.894C589.85 371.15 590.013 371.374 590.143 371.566C590.339 371.757 590.469 372.013 590.534 372.333C590.925 372.589 591.218 372.749 591.413 372.813C591.674 373.005 592.065 373.228 592.586 373.484L593.465 374.444C593.79 376.298 593.497 377.769 592.586 378.857C591.609 380.072 589.948 380.68 587.603 380.68H586.431C586.106 380.36 585.91 380.104 585.845 379.912C585.324 379.72 584.901 379.56 584.575 379.432C584.249 379.304 583.956 379.049 583.696 378.665C582.849 378.281 582.165 377.961 581.644 377.706L580.765 377.226C580.765 376.522 580.765 376.139 580.765 376.075C580.309 375.499 579.951 374.859 579.691 374.156C579.495 373.452 579.332 372.749 579.202 372.045C579.072 371.47 578.909 370.926 578.714 370.414C578.583 369.903 578.388 369.455 578.128 369.071C577.997 365.362 578.355 362.228 579.202 359.669C580.049 357.111 580.928 354.649 581.84 352.282C582.361 351.003 582.882 349.724 583.403 348.445C583.924 347.102 584.38 345.727 584.77 344.319L585.65 343.36C586.105 342.337 586.464 341.505 586.724 340.866C587.05 340.162 587.375 339.459 587.701 338.755C587.896 338.307 588.059 337.892 588.19 337.508C588.385 337.06 588.548 336.677 588.678 336.357C588.287 336.357 587.929 336.389 587.603 336.453C587.278 336.453 586.952 336.485 586.627 336.549C586.236 336.613 585.878 336.676 585.552 336.74C585.226 336.74 584.901 336.74 584.575 336.74C584.119 336.74 583.794 336.708 583.598 336.645C582.882 336.964 582.1 337.124 581.254 337.124H580.277C580.081 337.124 579.886 337.124 579.691 337.124C579.56 337.06 579.43 337.028 579.3 337.028C578.649 337.028 578.128 337.124 577.737 337.316C576.955 337.316 576.206 337.316 575.49 337.316H574.513C574.383 337.316 574.22 337.348 574.025 337.412C573.829 337.412 573.666 337.412 573.536 337.412C573.08 337.412 572.592 337.38 572.071 337.316C571.55 337.188 570.996 336.964 570.41 336.645C569.629 335.621 569.107 335.078 568.847 335.014L567.968 333.862C567.903 333.479 567.805 333.127 567.675 332.807C567.544 332.423 567.414 332.008 567.284 331.56C567.023 330.92 566.763 330.249 566.502 329.545C566.307 328.778 566.209 327.882 566.209 326.859C566.274 326.347 566.405 325.964 566.6 325.708C566.796 325.452 566.958 325.228 567.089 325.036L567.382 323.597L568.652 323.693H571.387C573.471 323.693 575.588 323.629 577.737 323.501C579.886 323.309 582.1 323.117 584.38 322.926C585.682 322.798 586.985 322.67 588.287 322.542C589.655 322.414 591.055 322.286 592.488 322.158C592.748 321.582 593.009 321.039 593.269 320.527L594.246 320.047C595.419 319.983 596.233 320.143 596.689 320.527C597.21 320.847 597.633 321.167 597.958 321.486C599.391 321.359 600.824 321.231 602.257 321.103C603.755 320.911 605.253 320.687 606.751 320.431C608.965 320.111 611.179 319.824 613.393 319.568C615.673 319.312 617.855 319.184 619.939 319.184C620.85 319.184 621.73 319.216 622.576 319.28C623.423 319.344 624.204 319.44 624.921 319.568L625.898 320.239C626.093 320.623 626.354 320.975 626.679 321.295C627.07 321.614 627.461 321.934 627.852 322.254C628.633 322.958 629.415 323.789 630.196 324.748C630.978 325.708 631.271 327.115 631.075 328.97C630.554 329.737 630.164 330.185 629.903 330.313L629.024 331.464L628.047 331.368C627.656 331.368 627.298 331.432 626.972 331.56C626.647 331.624 626.321 331.72 625.995 331.848C625.735 331.976 625.474 332.103 625.214 332.231C624.953 332.295 624.66 332.359 624.335 332.423C623.749 332.423 623.26 332.423 622.869 332.423C622.544 332.359 622.186 332.327 621.795 332.327Z"/><defs><linearGradient id="paint0_linear_1428_422" x1="-92.517" x2="617.98" y1="-58.298" y2="327.036" gradientUnits="userSpaceOnUse"><stop stop-color="#4F46E5"/><stop offset="1" stop-color="#10B981"/></linearGradient><linearGradient id="paint1_linear_1428_422" x1="-92.517" x2="617.98" y1="-58.298" y2="327.036" gradientUnits="userSpaceOnUse"><stop stop-color="#4F46E5"/><stop offset="1" stop-color="#10B981"/></linearGradient><linearGradient id="paint2_linear_1428_422" x1="-72.5" x2="600.5" y1="336" y2="381" gradientUnits="userSpaceOnUse"><stop stop-color="#4F46E5"/><stop offset="1" stop-color="#10B981"/></linearGradient><linearGradient id="paint3_linear_1428_422" x1="-72.5" x2="600.5" y1="336" y2="381" gradientUnits="userSpaceOnUse"><stop stop-color="#4F46E5"/><stop offset="1" stop-color="#10B981"/></linearGradient><linearGradient id="paint4_linear_1428_422" x1="-72.5" x2="600.5" y1="336" y2="381" gradientUnits="userSpaceOnUse"><stop stop-color="#4F46E5"/><stop offset="1" stop-color="#10B981"/></linearGradient><linearGradient id="paint5_linear_1428_422" x1="-72.5" x2="600.5" y1="336" y2="381" gradientUnits="userSpaceOnUse"><stop stop-color="#4F46E5"/><stop offset="1" stop-color="#10B981"/></linearGradient><linearGradient id="paint6_linear_1428_422" x1="-72.5" x2="600.5" y1="336" y2="381" gradientUnits="userSpaceOnUse"><stop stop-color="#4F46E5"/><stop offset="1" stop-color="#10B981"/></linearGradient><linearGradient id="paint7_linear_1428_422" x1="-72.5" x2="600.5" y1="336" y2="381" gradientUnits="userSpaceOnUse"><stop stop-color="#4F46E5"/><stop offset="1" stop-color="#10B981"/></linearGradient><linearGradient id="paint8_linear_1428_422" x1="-72.5" x2="600.5" y1="336" y2="381" gradientUnits="userSpaceOnUse"><stop stop-color="#4F46E5"/><stop offset="1" stop-color="#10B981"/></linearGradient><linearGradient id="paint9_linear_1428_422" x1="-72.5" x2="600.5" y1="336" y2="381" gradientUnits="userSpaceOnUse"><stop stop-color="#4F46E5"/><stop offset="1" stop-color="#10B981"/></linearGradient><linearGradient id="paint10_linear_1428_422" x1="-72.5" x2="600.5" y1="336" y2="381" gradientUnits="userSpaceOnUse"><stop stop-color="#4F46E5"/><stop offset="1" stop-color="#10B981"/></linearGradient><linearGradient id="paint11_linear_1428_422" x1="-72.5" x2="600.5" y1="336" y2="381" gradientUnits="userSpaceOnUse"><stop stop-color="#4F46E5"/><stop offset="1" stop-color="#10B981"/></linearGradient><linearGradient id="paint12_linear_1428_422" x1="-72.5" x2="600.5" y1="336" y2="381" gradientUnits="userSpaceOnUse"><stop stop-color="#4F46E5"/><stop offset="1" stop-color="#10B981"/></linearGradient></defs></svg>