<svg xmlns="http://www.w3.org/2000/svg" id="svg11" width="100%" height="100%" space="preserve" version="1.1" viewBox="0 0 64 64" style="fill-rule:evenodd;clip-rule:evenodd;stroke-linecap:round;stroke-linejoin:round;stroke-miterlimit:2"><path d="M34.506,53.5l-2.506,2.734l-20.275,-22.118c-4.579,-4.996 -4.241,-12.769 0.754,-17.348c4.996,-4.579 12.769,-4.241 17.348,0.754l2.173,2.371l2.173,-2.371c4.579,-4.995 12.352,-5.333 17.348,-0.754c4.995,4.579 5.333,12.352 0.754,17.348l-4.452,4.884" style="fill:none;stroke:#c23f6b;stroke-width:2px" id="path3"/><path d="M14.868,31.187c-3.217,-3.509 -2.98,-8.97 0.53,-12.187" style="fill:none;stroke:#c23f6b;stroke-width:2px" id="path5"/><path d="M54,42c0,-1.657 -1.343,-3 -3,-3c-2.859,0 -7.141,0 -10,0c-1.657,0 -3,1.343 -3,3c0,1.902 0,4.407 0,6.594c0,2.98 1.764,5.678 4.495,6.872c1.822,0.798 3.505,1.534 3.505,1.534c0,0 1.683,-0.736 3.505,-1.534c2.731,-1.194 4.495,-3.892 4.495,-6.872c0,-2.187 0,-4.692 0,-6.594Z" style="fill:none;stroke:#c23f6b;stroke-width:2px" id="path7"/><path d="M42.75,47.248l2.5,2l4,-3.5" style="fill:none;stroke:#c23f6b;stroke-width:2px" id="path9"/></svg>