<svg width="603" height="496" viewBox="0 0 603 496" fill="none" xmlns="http://www.w3.org/2000/svg">
<rect x="79.342" y="48.9014" width="320.542" height="391.211" fill="url(#paint0_linear_1455_388)"/>
<path d="M37.8894 12.5H539.721V483.5H37.8894V12.5Z" stroke="url(#paint1_linear_1455_388)" stroke-width="25"/>
<path d="M118.032 317.86V81.4561H216.137C240.105 81.4561 258.589 88.1626 271.588 101.576C284.587 114.765 291.087 133.208 291.087 156.904C291.087 180.6 284.587 199.155 271.588 212.568C258.589 225.981 240.105 232.687 216.137 232.687H165.257V317.86H118.032ZM165.257 192.448H208.216C233.199 192.448 245.691 180.6 245.691 156.904C245.691 133.655 233.199 122.03 208.216 122.03H165.257V192.448Z" fill="#212121"/>
<path d="M397.133 321.548C380.274 321.548 364.329 319.201 349.299 314.506C334.471 309.812 322.081 303.441 312.129 295.393L325.839 254.483C335.385 261.86 346.252 267.673 358.439 271.92C370.829 276.168 383.727 278.291 397.133 278.291C411.757 278.291 422.217 275.832 428.514 270.914C435.014 265.773 438.264 259.401 438.264 251.801C438.264 245.318 436.029 240.176 431.561 236.376C427.092 232.575 419.272 229.334 408.101 226.651L373.673 218.604C335.284 209.662 316.089 187.754 316.089 152.88C316.089 137.902 319.745 124.825 327.058 113.647C334.37 102.246 344.526 93.416 357.525 87.1566C370.728 80.8973 385.961 77.7676 403.226 77.7676C418.054 77.7676 431.967 80.1148 444.966 84.8094C457.966 89.5039 468.731 96.0986 477.262 104.593L463.551 142.82C446.896 128.29 426.686 121.024 402.921 121.024C390.125 121.024 380.172 123.819 373.063 129.407C366.157 134.773 362.704 141.814 362.704 150.533C362.704 157.016 364.837 162.269 369.103 166.293C373.368 170.317 380.782 173.558 391.344 176.017L425.772 184.065C465.176 193.454 484.879 214.692 484.879 247.777C484.879 262.531 481.223 275.497 473.91 286.674C466.801 297.628 456.646 306.235 443.443 312.494C430.444 318.53 415.007 321.548 397.133 321.548Z" fill="#212121"/>
<path d="M9.11203 420.281C7.31444 419.803 5.91975 419.018 4.92798 417.927C3.99819 416.767 3.28535 415.437 2.78946 413.936C2.35556 412.367 2.04563 410.661 1.85967 408.819C1.7357 406.977 1.58073 405.067 1.39478 403.089C1.64272 402.202 1.95265 401.451 2.32457 400.837C2.75847 400.223 2.94443 399.371 2.88244 398.279C3.56429 396.096 4.18415 393.981 4.74202 391.934C5.29989 389.888 5.67181 387.773 5.85777 385.59C6.22968 384.976 6.6016 384.566 6.97352 384.362C7.4694 380.473 7.53139 376.482 7.15947 372.389C6.78756 368.296 6.1677 364.509 5.29989 361.03C5.36188 360.279 5.45486 359.734 5.57883 359.393C5.7028 358.983 5.7028 358.642 5.57883 358.369C5.45486 357.755 5.64082 357.448 6.13671 357.448C6.63259 357.448 7.12848 357.448 7.62437 357.448C7.62437 356.22 7.40742 355.026 6.97352 353.867C6.6016 352.639 6.22968 351.24 5.85777 349.671C6.35366 348.443 6.69458 347.249 6.88054 346.089C7.0665 344.93 7.40742 343.872 7.90331 342.917C9.88686 343.599 11.8394 344.384 13.761 345.271C15.6826 346.158 17.5731 347.044 19.4327 347.931C21.2923 348.75 23.1209 349.569 24.9185 350.387C26.7161 351.138 28.4827 351.752 30.2183 352.229C32.8837 354.344 35.6111 356.459 38.4004 358.574C41.2518 360.621 43.8242 362.906 46.1177 365.43C48.4732 367.886 50.4257 370.717 51.9754 373.924C53.525 377.13 54.4238 380.917 54.6718 385.283C54.5478 385.692 54.4548 386.033 54.3928 386.306C54.3308 386.579 54.2688 386.852 54.2069 387.125C54.1449 387.398 54.1139 387.705 54.1139 388.046C54.1139 388.387 54.1139 388.864 54.1139 389.478C51.8824 393.776 49.062 397.392 45.6528 400.326C42.2436 403.259 38.5244 405.852 34.4953 408.103C30.4662 410.354 26.2512 412.435 21.8502 414.345C17.5111 416.187 13.2651 418.166 9.11203 420.281ZM18.224 362.258C17.6661 362.258 17.2632 362.394 17.0153 362.667C17.7591 365.737 18.317 368.637 18.6889 371.365C19.0608 374.094 19.2467 376.823 19.2467 379.552C19.3087 382.281 19.1848 385.078 18.8748 387.943C18.5649 390.809 18.131 393.913 17.5731 397.256C18.3789 397.187 19.0918 397.017 19.7116 396.744C20.3315 396.471 20.9514 396.164 21.5712 395.823C22.2531 395.482 22.9349 395.175 23.6168 394.902C24.3606 394.629 25.1974 394.459 26.1272 394.39C26.3751 393.845 26.6851 393.435 27.057 393.162C27.4909 392.821 27.8628 392.48 28.1727 392.139C29.7224 391.457 31.272 390.74 32.8217 389.99C34.3713 389.24 35.797 388.387 37.0987 387.432C38.4004 386.477 39.5782 385.385 40.6319 384.157C41.6857 382.929 42.5535 381.462 43.2353 379.757C42.7394 378.733 42.1196 377.881 41.3758 377.198C40.6939 376.448 39.9501 375.732 39.1443 375.049C38.4004 374.299 37.6566 373.549 36.9128 372.798C36.2309 371.979 35.673 371.058 35.2391 370.035C34.2474 369.899 33.3796 369.626 32.6357 369.217C31.8919 368.739 31.1791 368.296 30.4972 367.886C29.8154 367.409 29.0715 366.965 28.2657 366.556C27.5219 366.147 26.6231 365.908 25.5693 365.84C23.9577 364.884 22.501 364.236 21.1993 363.895C19.8976 363.486 18.9058 362.94 18.224 362.258Z" fill="#212121"/>
<path d="M107.019 361.542C107.081 362.019 107.081 362.394 107.019 362.667C107.019 362.872 106.988 363.077 106.926 363.281C106.926 363.486 106.926 363.725 106.926 363.998C106.926 364.202 106.988 364.543 107.112 365.021C105.81 367.34 104.292 368.944 102.556 369.831C100.882 370.649 99.0537 371.263 97.0702 371.672C95.0866 372.014 93.0411 372.389 90.9336 372.798C88.888 373.207 86.8425 374.094 84.797 375.459C83.9911 375.118 83.2473 375.118 82.5655 375.459C81.9456 375.8 81.0158 375.902 79.7761 375.766C79.4042 376.175 78.9393 376.482 78.3814 376.687C77.8235 376.823 77.2657 376.994 76.7078 377.198C76.9557 377.812 77.0487 378.461 76.9867 379.143C76.9867 379.757 77.0797 380.268 77.2657 380.678C79.4352 380.882 81.8216 380.848 84.425 380.575C87.0904 380.303 89.6939 380.132 92.2353 380.064C92.2973 380.405 92.2663 380.644 92.1423 380.78C92.0183 380.848 91.9873 381.019 92.0493 381.292C92.4832 381.633 92.9171 382.076 93.351 382.622C93.7849 383.1 94.2188 383.577 94.6527 384.055C95.0866 384.532 95.5205 384.942 95.9544 385.283C96.4503 385.556 97.0082 385.658 97.6281 385.59C97.876 386.136 98.031 386.75 98.093 387.432C98.2169 388.046 98.1549 388.694 97.907 389.376C96.9152 390.127 95.9234 390.911 94.9317 391.73C93.9399 392.48 92.8861 393.162 91.7704 393.776C90.7166 394.39 89.5699 394.902 88.3302 395.311C87.1524 395.652 85.8197 395.789 84.3321 395.721C84.0221 395.721 83.7742 395.721 83.5882 395.721C83.4643 395.721 83.2783 395.618 83.0304 395.414C82.5345 395.755 81.8216 395.857 80.8918 395.721C80.024 395.584 79.3422 395.687 78.8463 396.028C78.1645 395.687 77.3276 395.55 76.3359 395.618C75.4061 395.618 74.5693 395.482 73.8254 395.209C72.8337 396.642 71.9349 398.177 71.129 399.814C70.3232 401.451 69.6104 403.191 68.9905 405.033C71.098 405.374 72.8337 405.511 74.1973 405.442C75.623 405.374 76.9557 405.272 78.1954 405.135C79.4352 404.931 80.7059 404.76 82.0076 404.624C83.3093 404.419 84.9519 404.351 86.9355 404.419C88.1752 403.669 89.6319 403.191 91.3055 402.986C93.0411 402.713 94.6217 402.304 96.0474 401.758C96.5433 401.963 96.9772 402.338 97.3491 402.884C97.721 403.362 98.062 403.839 98.3719 404.317C98.7438 404.726 99.1157 405.101 99.4876 405.442C99.8596 405.783 100.324 405.92 100.882 405.852C101.13 406.125 101.285 406.466 101.347 406.875C101.471 407.216 101.564 407.557 101.626 407.898C101.688 408.239 101.781 408.546 101.905 408.819C102.091 409.024 102.37 409.092 102.742 409.024C101.812 411.275 100.727 413.015 99.4876 414.243C98.3099 415.403 96.9462 416.29 95.3966 416.904C93.8469 417.518 92.1113 417.995 90.1897 418.336C88.3302 418.677 86.2536 419.087 83.9601 419.564C83.4023 419.701 82.9374 419.667 82.5655 419.462C82.1935 419.325 81.7596 419.257 81.2638 419.257C79.8381 419.598 78.1335 419.905 76.1499 420.178C74.1664 420.451 72.1518 420.553 70.1063 420.485C68.0607 420.417 66.1082 420.11 64.2486 419.564C62.389 419.087 60.8704 418.2 59.6926 416.904C59.1967 416.426 58.8558 415.88 58.6699 415.266C58.5459 414.584 58.143 414.072 57.4611 413.731C57.3991 412.844 57.2752 411.855 57.0892 410.764C56.9033 409.672 56.7173 408.546 56.5313 407.387C56.3454 406.159 56.1904 404.965 56.0664 403.805C56.0045 402.645 56.0664 401.588 56.2524 400.633C56.4384 399.609 56.8103 398.688 57.3681 397.87C57.988 397.051 58.205 396.164 58.019 395.209C58.3289 395.141 58.5149 394.97 58.5769 394.697C58.6389 394.356 58.8868 394.22 59.3207 394.288C59.6926 393.06 60.0955 391.9 60.5294 390.809C60.9633 389.717 61.3972 388.66 61.8311 387.636C62.327 386.613 62.7919 385.59 63.2258 384.566C63.7217 383.475 64.1866 382.281 64.6205 380.985C63.7527 380.098 63.1019 379.143 62.6679 378.119C62.296 377.028 62.0171 375.97 61.8311 374.947C61.6452 373.856 61.4902 372.764 61.3662 371.672C61.2423 370.513 61.0253 369.353 60.7154 368.193C61.3353 367.17 62.0791 366.351 62.9469 365.737C63.8767 365.055 64.8685 364.509 65.9222 364.1C66.976 363.691 68.1227 363.349 69.3624 363.077C70.6022 362.804 71.9039 362.497 73.2676 362.156C75.747 361.269 77.9475 360.586 79.8691 360.109C81.8526 359.631 83.7742 359.256 85.6338 358.983C87.5553 358.642 89.5389 358.335 91.5844 358.062C93.63 357.789 95.9544 357.38 98.5579 356.834C99.1157 357.448 99.6426 357.755 100.138 357.755C100.386 357.141 100.665 356.971 100.975 357.244C101.347 357.448 101.502 357.244 101.44 356.63C102.06 357.789 102.835 358.779 103.765 359.597C104.756 360.348 105.841 360.996 107.019 361.542Z" fill="#212121"/>
<path d="M135.749 401.144C135.687 402.099 135.471 403.02 135.099 403.907C134.789 404.726 134.386 405.545 133.89 406.363C133.394 407.114 132.836 407.864 132.216 408.615C131.658 409.297 131.101 409.911 130.543 410.457C130.729 411.343 130.729 412.026 130.543 412.503C130.419 412.913 130.388 413.561 130.45 414.448C129.52 417.176 128.094 418.984 126.173 419.871C124.313 420.826 122.546 420.656 120.873 419.36C120.191 418.814 119.602 418.132 119.106 417.313C118.672 416.426 118.052 415.88 117.247 415.676C117.433 414.516 117.34 413.356 116.968 412.196C116.596 411.036 116.193 410.422 115.759 410.354C115.573 408.922 115.294 407.387 114.922 405.749C114.55 404.112 114.209 402.475 113.899 400.837C113.589 399.132 113.311 397.494 113.063 395.925C112.877 394.288 112.815 392.787 112.877 391.423C112.939 390.74 112.815 390.127 112.505 389.581C112.257 389.035 112.071 388.387 111.947 387.636C111.699 386.067 111.606 384.43 111.668 382.724C111.792 380.951 111.854 379.279 111.854 377.71C111.854 376.209 111.761 374.606 111.575 372.9C111.451 371.127 111.327 369.455 111.203 367.886C111.079 366.249 111.017 364.782 111.017 363.486C111.017 362.121 111.172 361.064 111.482 360.314C111.854 359.495 112.35 358.847 112.97 358.369C113.651 357.823 114.271 357.244 114.829 356.63C116.193 356.766 117.278 357.38 118.083 358.472C118.889 359.563 119.199 360.586 119.013 361.542C120.315 362.428 121.338 363.588 122.082 365.021C122.887 366.385 123.507 367.954 123.941 369.728C124.437 371.434 124.778 373.276 124.964 375.254C125.15 377.164 125.305 379.075 125.429 380.985C125.553 382.827 125.677 384.601 125.801 386.306C125.925 388.012 126.173 389.478 126.545 390.706C128.838 387.091 130.76 383.884 132.309 381.087C133.859 378.222 135.44 375.493 137.051 372.9C138.663 370.308 140.46 367.682 142.444 365.021C144.428 362.36 147 359.358 150.161 356.016C150.781 356.084 151.277 356.22 151.649 356.425C152.083 356.63 152.455 356.8 152.765 356.937C153.075 357.073 153.446 357.209 153.88 357.346C154.314 357.414 154.903 357.38 155.647 357.244C155.895 357.926 156.081 358.437 156.205 358.779C156.329 359.051 156.422 359.358 156.484 359.7C156.608 359.972 156.732 360.348 156.856 360.825C157.042 361.303 157.321 361.985 157.693 362.872C157.878 363.077 157.94 363.349 157.878 363.691C157.816 364.032 157.754 364.373 157.693 364.714C157.693 364.987 157.693 365.191 157.693 365.328C157.693 365.464 157.847 365.464 158.157 365.328C157.971 366.283 157.631 367.17 157.135 367.989C156.701 368.739 156.515 369.66 156.577 370.751C155.151 372.798 153.57 374.913 151.835 377.096C150.161 379.279 148.457 381.531 146.721 383.85C145.047 386.17 143.436 388.626 141.886 391.218C140.336 393.742 139.004 396.403 137.888 399.2C137.578 399.2 137.33 399.302 137.144 399.507C137.02 399.712 136.896 399.95 136.772 400.223C136.648 400.428 136.493 400.633 136.307 400.837C136.183 401.042 135.997 401.144 135.749 401.144Z" fill="#212121"/>
<path d="M202.88 361.542C202.942 362.019 202.942 362.394 202.88 362.667C202.88 362.872 202.849 363.077 202.787 363.281C202.787 363.486 202.787 363.725 202.787 363.998C202.787 364.202 202.849 364.543 202.973 365.021C201.672 367.34 200.153 368.944 198.417 369.831C196.744 370.649 194.915 371.263 192.932 371.672C190.948 372.014 188.902 372.389 186.795 372.798C184.749 373.207 182.704 374.094 180.658 375.459C179.853 375.118 179.109 375.118 178.427 375.459C177.807 375.8 176.877 375.902 175.637 375.766C175.266 376.175 174.801 376.482 174.243 376.687C173.685 376.823 173.127 376.994 172.569 377.198C172.817 377.812 172.91 378.461 172.848 379.143C172.848 379.757 172.941 380.268 173.127 380.678C175.297 380.882 177.683 380.848 180.286 380.575C182.952 380.303 185.555 380.132 188.097 380.064C188.159 380.405 188.128 380.644 188.004 380.78C187.88 380.848 187.849 381.019 187.911 381.292C188.345 381.633 188.778 382.076 189.212 382.622C189.646 383.1 190.08 383.577 190.514 384.055C190.948 384.532 191.382 384.942 191.816 385.283C192.312 385.556 192.87 385.658 193.489 385.59C193.737 386.136 193.892 386.75 193.954 387.432C194.078 388.046 194.016 388.694 193.768 389.376C192.777 390.127 191.785 390.911 190.793 391.73C189.801 392.48 188.748 393.162 187.632 393.776C186.578 394.39 185.431 394.902 184.192 395.311C183.014 395.652 181.681 395.789 180.193 395.721C179.884 395.721 179.636 395.721 179.45 395.721C179.326 395.721 179.14 395.618 178.892 395.414C178.396 395.755 177.683 395.857 176.753 395.721C175.885 395.584 175.204 395.687 174.708 396.028C174.026 395.687 173.189 395.55 172.197 395.618C171.267 395.618 170.431 395.482 169.687 395.209C168.695 396.642 167.796 398.177 166.99 399.814C166.185 401.451 165.472 403.191 164.852 405.033C166.959 405.374 168.695 405.511 170.059 405.442C171.484 405.374 172.817 405.272 174.057 405.135C175.297 404.931 176.567 404.76 177.869 404.624C179.171 404.419 180.813 404.351 182.797 404.419C184.037 403.669 185.493 403.191 187.167 402.986C188.902 402.713 190.483 402.304 191.909 401.758C192.405 401.963 192.839 402.338 193.21 402.884C193.582 403.362 193.923 403.839 194.233 404.317C194.605 404.726 194.977 405.101 195.349 405.442C195.721 405.783 196.186 405.92 196.744 405.852C196.992 406.125 197.147 406.466 197.209 406.875C197.333 407.216 197.426 407.557 197.488 407.898C197.55 408.239 197.642 408.546 197.766 408.819C197.952 409.024 198.231 409.092 198.603 409.024C197.673 411.275 196.589 413.015 195.349 414.243C194.171 415.403 192.808 416.29 191.258 416.904C189.708 417.518 187.973 417.995 186.051 418.336C184.192 418.677 182.115 419.087 179.822 419.564C179.264 419.701 178.799 419.667 178.427 419.462C178.055 419.325 177.621 419.257 177.125 419.257C175.699 419.598 173.995 419.905 172.011 420.178C170.028 420.451 168.013 420.553 165.968 420.485C163.922 420.417 161.97 420.11 160.11 419.564C158.25 419.087 156.732 418.2 155.554 416.904C155.058 416.426 154.717 415.88 154.531 415.266C154.407 414.584 154.004 414.072 153.322 413.731C153.261 412.844 153.137 411.855 152.951 410.764C152.765 409.672 152.579 408.546 152.393 407.387C152.207 406.159 152.052 404.965 151.928 403.805C151.866 402.645 151.928 401.588 152.114 400.633C152.3 399.609 152.672 398.688 153.23 397.87C153.849 397.051 154.066 396.164 153.88 395.209C154.19 395.141 154.376 394.97 154.438 394.697C154.5 394.356 154.748 394.22 155.182 394.288C155.554 393.06 155.957 391.9 156.391 390.809C156.825 389.717 157.259 388.66 157.693 387.636C158.188 386.613 158.653 385.59 159.087 384.566C159.583 383.475 160.048 382.281 160.482 380.985C159.614 380.098 158.963 379.143 158.529 378.119C158.157 377.028 157.878 375.97 157.693 374.947C157.507 373.856 157.352 372.764 157.228 371.672C157.104 370.513 156.887 369.353 156.577 368.193C157.197 367.17 157.94 366.351 158.808 365.737C159.738 365.055 160.73 364.509 161.784 364.1C162.837 363.691 163.984 363.349 165.224 363.077C166.464 362.804 167.765 362.497 169.129 362.156C171.608 361.269 173.809 360.586 175.73 360.109C177.714 359.631 179.636 359.256 181.495 358.983C183.417 358.642 185.4 358.335 187.446 358.062C189.491 357.789 191.816 357.38 194.419 356.834C194.977 357.448 195.504 357.755 196 357.755C196.248 357.141 196.527 356.971 196.837 357.244C197.209 357.448 197.364 357.244 197.302 356.63C197.921 357.789 198.696 358.779 199.626 359.597C200.618 360.348 201.703 360.996 202.88 361.542Z" fill="#212121"/>
<path d="M225.195 418.029C223.46 418.643 221.569 419.257 219.524 419.871C217.478 420.485 215.432 420.792 213.387 420.792C210.288 420.792 207.839 419.939 206.042 418.234C205.732 417.483 205.453 416.972 205.205 416.699C205.019 416.426 204.833 416.153 204.647 415.88C204.523 415.539 204.43 415.096 204.368 414.55C203.624 413.595 203.035 412.503 202.601 411.275C202.167 409.979 201.858 408.683 201.672 407.387C201.548 406.022 201.517 404.658 201.579 403.293C201.703 401.929 201.92 400.633 202.229 399.405C202.353 399.132 202.415 398.859 202.415 398.586C202.477 398.313 202.539 398.006 202.601 397.665C202.849 396.573 203.097 395.516 203.345 394.493C203.655 393.469 204.058 392.582 204.554 391.832C204.306 391.218 204.306 390.536 204.554 389.785C204.802 389.035 205.081 388.353 205.391 387.739C206.259 385.146 206.971 382.963 207.529 381.189C208.149 379.347 208.769 377.54 209.389 375.766C210.443 372.696 211.434 369.66 212.364 366.658C213.294 363.656 214.131 360.416 214.875 356.937C215.37 356.595 215.742 356.357 215.99 356.22C216.362 356.084 216.672 355.981 216.92 355.913C218.036 356.527 219.338 357.141 220.825 357.755C222.313 358.301 223.553 358.574 224.544 358.574C225.04 358.915 225.35 359.188 225.474 359.393C225.598 359.529 225.722 359.665 225.846 359.802C226.528 360.689 227.117 361.61 227.613 362.565C228.109 363.452 228.264 364.646 228.078 366.147C227.706 366.761 227.427 367.068 227.241 367.068C226.931 368.432 226.59 369.592 226.218 370.547C225.908 371.502 225.567 372.457 225.195 373.412C224.761 374.435 224.358 375.459 223.987 376.482C223.615 377.505 223.305 378.768 223.057 380.268C222.809 380.61 222.623 380.917 222.499 381.189C222.437 381.462 222.344 381.769 222.22 382.11C222.096 382.452 221.941 382.827 221.755 383.236C221.631 383.577 221.414 383.884 221.104 384.157C220.918 385.931 220.608 387.364 220.174 388.455C219.802 389.547 219.4 390.638 218.966 391.73C218.222 393.708 217.54 395.687 216.92 397.665C216.362 399.643 216.021 401.895 215.897 404.419C216.207 404.283 216.486 404.214 216.734 404.214C217.044 404.214 217.323 404.214 217.571 404.214C218.129 404.214 218.78 404.317 219.524 404.521C221.383 403.43 223.398 402.782 225.567 402.577C227.799 402.372 229.999 402.236 232.169 402.168C233.037 402.168 233.904 402.168 234.772 402.168C235.64 402.168 236.446 402.099 237.19 401.963C237.747 402.304 238.088 402.509 238.212 402.577C238.398 402.577 238.646 402.577 238.956 402.577C239.39 402.577 239.762 402.611 240.072 402.679C240.816 403.43 241.529 403.976 242.21 404.317C242.892 404.658 243.605 404.965 244.349 405.238C245.031 405.511 245.682 405.818 246.302 406.159C246.983 406.432 247.634 406.841 248.254 407.387L248.905 411.787C249.339 412.401 249.525 412.81 249.463 413.015C249.463 413.561 249.339 413.97 249.091 414.243L249.277 415.369C248.347 415.573 247.696 415.812 247.324 416.085C247.014 416.358 246.704 416.665 246.394 417.006C245.899 417.074 245.527 417.108 245.279 417.108C245.093 417.108 244.907 417.108 244.721 417.108C243.853 417.108 242.799 417.279 241.56 417.62C239.886 417.006 238.15 416.699 236.353 416.699C235.671 416.699 234.958 416.733 234.214 416.801C233.47 416.869 232.727 416.938 231.983 417.006C231.239 417.142 230.464 417.245 229.658 417.313C228.914 417.381 228.14 417.415 227.334 417.415L225.195 418.029Z" fill="#212121"/>
<path d="M305.622 388.455C305.56 389.274 305.622 390.058 305.808 390.809C305.994 391.559 306.211 392.31 306.459 393.06C306.769 393.742 307.048 394.459 307.296 395.209C307.544 395.959 307.73 396.71 307.854 397.46C307.978 398.415 307.978 399.473 307.854 400.633C307.73 401.724 307.513 402.816 307.203 403.907C306.893 404.931 306.49 405.886 305.994 406.773C305.498 407.591 304.909 408.205 304.227 408.615C303.36 409.843 302.306 410.798 301.066 411.48C299.826 412.162 298.68 412.981 297.626 413.936C296.944 414.413 296.169 414.755 295.301 414.959C294.496 415.164 293.659 415.369 292.791 415.573C292.109 415.983 291.303 416.426 290.374 416.904C289.444 417.313 288.483 417.722 287.491 418.132C286.499 418.473 285.508 418.746 284.516 418.95C283.524 419.087 282.656 419.121 281.912 419.053C280.053 419.803 278.224 420.281 276.427 420.485C274.691 420.758 272.646 420.622 270.29 420.076C268.059 420.417 265.982 420.315 264.061 419.769C262.201 419.223 260.527 418.37 259.04 417.211C257.614 415.983 256.343 414.55 255.227 412.913C254.174 411.207 253.306 409.433 252.624 407.591C252.128 403.703 252.252 400.189 252.996 397.051C253.74 393.845 254.794 390.911 256.157 388.25C257.583 385.522 259.195 383.031 260.992 380.78C262.79 378.461 264.525 376.209 266.199 374.026C266.571 374.163 266.85 374.163 267.036 374.026C267.284 373.821 267.501 373.583 267.687 373.31C267.873 372.969 268.059 372.662 268.245 372.389C268.493 372.116 268.771 371.945 269.081 371.877C269.515 370.854 270.135 370.103 270.941 369.626C271.809 369.08 272.491 368.33 272.986 367.375C273.544 367.238 274.009 367.033 274.381 366.761C274.753 366.488 275.094 366.181 275.404 365.84C275.776 365.498 276.148 365.191 276.52 364.919C276.892 364.577 277.326 364.339 277.821 364.202V363.077C278.937 362.531 279.743 361.917 280.239 361.235C280.797 360.484 281.448 359.597 282.191 358.574C282.749 358.506 283.183 358.472 283.493 358.472C283.865 358.472 284.392 358.403 285.074 358.267C285.57 357.312 286.004 356.595 286.375 356.118C286.809 355.64 287.429 355.129 288.235 354.583C288.979 354.992 289.785 355.265 290.653 355.402C291.582 355.538 292.388 355.981 293.07 356.732C293.132 357.414 293.318 357.96 293.628 358.369C293.938 358.71 294.279 359.051 294.651 359.393C295.023 359.665 295.363 359.972 295.673 360.314C296.045 360.655 296.293 361.132 296.417 361.746C296.665 361.814 296.82 361.78 296.882 361.644C297.006 361.507 297.192 361.473 297.44 361.542C297.626 362.497 297.843 363.145 298.091 363.486C298.339 363.759 298.587 364.339 298.835 365.226C298.525 365.908 298.277 366.624 298.091 367.375C297.967 368.057 297.595 368.568 296.975 368.91C296.913 369.387 297.037 369.66 297.347 369.728C297.657 369.728 297.843 369.899 297.905 370.24C297.967 370.854 297.874 371.297 297.626 371.57C299.114 374.231 300.446 377.062 301.624 380.064C302.802 382.997 304.134 385.794 305.622 388.455ZM294 398.177C294.248 397.426 294.558 396.812 294.93 396.335C295.363 395.857 295.611 395.141 295.673 394.186C295.363 393.64 295.177 393.231 295.115 392.958C295.054 392.617 295.023 392.105 295.023 391.423C293.659 389.308 292.481 387.057 291.489 384.669C290.498 382.213 289.382 379.927 288.142 377.812C288.018 378.085 287.801 378.358 287.491 378.631C287.181 378.904 286.84 378.836 286.468 378.426C286.344 378.972 286.128 379.382 285.818 379.654C285.508 379.859 285.167 379.961 284.795 379.961C284.423 379.893 284.02 379.791 283.586 379.654C283.214 379.45 282.873 379.211 282.563 378.938C280.766 380.507 278.968 382.042 277.171 383.543C275.373 385.044 273.761 386.784 272.336 388.762C272.088 388.899 271.933 388.967 271.871 388.967C271.809 388.899 271.623 388.933 271.313 389.069C270.817 390.365 270.197 391.559 269.453 392.651C268.771 393.674 268.09 394.731 267.408 395.823C266.726 396.915 266.137 398.074 265.641 399.302C265.145 400.53 264.866 401.963 264.804 403.6C265.858 404.555 267.098 405.135 268.523 405.34C269.949 405.545 271.406 405.579 272.894 405.442C274.443 405.306 275.931 405.101 277.357 404.828C278.844 404.487 280.208 404.317 281.448 404.317C284.051 403.634 286.282 402.748 288.142 401.656C290.002 400.496 291.954 399.336 294 398.177Z" fill="#212121"/>
<path d="M344.487 355.709C347.091 356.05 349.415 356.63 351.461 357.448C353.506 358.267 355.242 359.358 356.668 360.723C357.659 362.428 358.589 364.27 359.457 366.249C360.387 368.227 361.069 370.308 361.503 372.491C361.998 374.606 362.215 376.789 362.153 379.04C362.153 381.292 361.719 383.577 360.852 385.897C359.054 388.353 356.854 390.365 354.25 391.934C351.709 393.435 348.95 394.663 345.975 395.618C343 396.573 339.9 397.392 336.677 398.074C333.516 398.757 330.417 399.439 327.379 400.121C327.441 401.69 327.441 403.362 327.379 405.135C327.379 406.841 327.224 408.581 326.914 410.354C326.666 412.06 326.263 413.731 325.706 415.369C325.148 417.006 324.404 418.507 323.474 419.871C322.42 419.871 321.336 420.008 320.22 420.281C319.104 420.622 318.112 420.895 317.245 421.099C316.811 420.826 316.408 420.553 316.036 420.281C315.726 420.076 315.261 419.939 314.641 419.871C314.765 419.189 314.61 418.507 314.176 417.825C313.742 417.074 313.308 416.324 312.874 415.573C312.441 414.823 312.131 414.106 311.945 413.424C311.821 412.742 312.131 412.094 312.874 411.48C312.441 411.002 312.224 410.388 312.224 409.638C312.658 408.819 313.029 407.694 313.339 406.261C313.711 404.828 313.99 403.43 314.176 402.065C314.424 400.633 314.486 399.336 314.362 398.177C314.238 397.017 313.618 396.164 312.503 395.618C312.565 395.482 312.689 395.414 312.874 395.414C313.06 395.414 313.246 395.38 313.432 395.311C312.936 394.902 312.627 394.322 312.503 393.572C312.441 392.821 312.224 392.173 311.852 391.627C311.976 391.286 312.069 390.979 312.131 390.706C312.193 390.433 312.41 390.331 312.782 390.399C312.596 389.171 312.596 388.012 312.782 386.92C313.029 385.829 313.37 384.805 313.804 383.85C314.238 382.827 314.765 381.838 315.385 380.882C316.005 379.927 316.594 378.972 317.152 378.017C317.585 377.949 317.833 378.017 317.895 378.222C318.019 378.426 318.236 378.392 318.546 378.119C319.352 377.437 319.91 376.721 320.22 375.97C320.53 375.22 320.685 374.367 320.685 373.412C321.119 371.979 321.646 370.547 322.265 369.114C322.885 367.613 323.567 366.249 324.311 365.021C325.055 363.793 325.861 362.701 326.728 361.746C327.658 360.791 328.619 360.075 329.611 359.597C330.355 358.915 331.284 358.301 332.4 357.755C333.516 357.141 334.725 356.698 336.026 356.425C337.328 356.084 338.63 355.913 339.931 355.913C341.295 355.845 342.535 355.981 343.651 356.323C343.96 356.459 344.115 356.391 344.115 356.118C344.177 355.845 344.301 355.709 344.487 355.709ZM340.675 380.166C342.225 379.416 343.867 378.836 345.603 378.426C347.401 377.949 348.888 377.096 350.066 375.868C349.322 375.118 348.238 374.47 346.812 373.924C345.386 373.31 343.837 372.935 342.163 372.798C340.489 372.662 338.785 372.832 337.049 373.31C335.375 373.719 333.919 374.538 332.679 375.766C332.307 376.994 331.997 377.983 331.749 378.733C331.501 379.416 331.16 380.268 330.726 381.292C330.85 381.633 331.036 381.906 331.284 382.11C331.594 382.247 331.811 382.486 331.935 382.827C333.361 382.008 334.787 381.565 336.212 381.496C337.7 381.36 339.188 380.917 340.675 380.166Z" fill="#212121"/>
<path d="M423.705 417.313C423.086 417.654 422.497 417.961 421.939 418.234C421.443 418.507 420.854 418.643 420.172 418.643C417.755 416.665 416.484 413.22 416.36 408.308C416.298 403.396 417.259 397.153 419.242 389.581C419.552 389.376 419.707 388.967 419.707 388.353L418.871 387.329C418.623 387.329 418.375 387.364 418.127 387.432C417.941 387.5 417.786 387.739 417.662 388.148C416.05 389.444 414.284 390.809 412.362 392.241C410.44 393.606 408.426 394.902 406.318 396.13C404.273 397.29 402.165 398.245 399.996 398.995C397.888 399.746 395.812 400.121 393.766 400.121C388.559 400.121 384.654 397.222 382.051 391.423L381.307 389.888L380.563 391.218C380.377 391.491 380.098 392.071 379.726 392.958C379.354 393.776 378.983 394.731 378.611 395.823C378.239 396.915 377.898 398.04 377.588 399.2C377.34 400.292 377.247 401.247 377.309 402.065C376.751 402.679 376.162 403.396 375.542 404.214C374.922 405.033 374.458 405.954 374.148 406.977C374.024 407.523 374.086 408.035 374.334 408.512C374.21 409.126 373.931 409.604 373.497 409.945C373.249 410.286 372.97 410.627 372.66 410.968C372.412 411.241 372.195 411.548 372.009 411.889C371.885 412.23 371.792 412.571 371.73 412.913C371.73 413.254 371.699 413.595 371.637 413.936C371.637 414.413 371.575 414.857 371.451 415.266C370.398 417.654 369.561 419.189 368.941 419.871C368.321 420.622 367.484 420.997 366.43 420.997C365.935 420.997 365.129 420.895 364.013 420.69C363.207 419.735 362.463 418.439 361.781 416.801C361.162 415.096 360.666 413.288 360.294 411.378C359.984 409.467 359.829 407.557 359.829 405.647C359.891 403.669 360.201 401.963 360.759 400.53C360.759 400.462 361.007 399.78 361.503 398.484C361.998 397.187 362.618 395.516 363.362 393.469C364.168 391.423 365.067 389.171 366.058 386.715C367.05 384.191 368.042 381.769 369.034 379.45C370.026 377.062 370.955 374.879 371.823 372.9C372.753 370.922 373.528 369.421 374.148 368.398C374.644 367.579 375.077 366.829 375.449 366.147C375.883 365.396 376.286 364.68 376.658 363.998C377.774 361.883 378.828 360.143 379.819 358.779C380.873 357.346 382.392 356.22 384.375 355.402C385.739 356.016 386.731 356.732 387.351 357.551L387.537 358.676C387.785 359.358 388.157 359.7 388.652 359.7C389.334 359.904 389.892 360.109 390.326 360.314C390.822 360.45 391.349 360.586 391.907 360.723C392.341 361.269 392.743 361.917 393.115 362.667C393.611 363.486 394.076 364.305 394.51 365.123C395.006 365.874 395.378 366.658 395.626 367.477C395.936 368.227 396.091 369.012 396.091 369.831C396.153 370.649 396.029 371.502 395.719 372.389L395.812 373.412C396.122 374.026 396.184 374.879 395.998 375.97C395.936 376.448 395.905 376.96 395.905 377.505C395.905 377.983 395.967 378.529 396.091 379.143C397.206 380.098 398.198 380.575 399.066 380.575C400.058 380.575 400.957 380.337 401.762 379.859C402.63 379.313 403.436 378.768 404.18 378.222C404.676 377.812 405.172 377.471 405.668 377.198C406.163 376.857 406.659 376.653 407.155 376.584C408.271 375.425 409.263 374.401 410.131 373.514C411.06 372.628 412.021 371.741 413.013 370.854C414.872 369.217 416.67 367.443 418.406 365.533C420.141 363.622 421.536 361.235 422.59 358.369C423.21 357.96 423.86 357.755 424.542 357.755C425.224 357.755 425.937 357.926 426.681 358.267C427.425 358.608 428.137 358.949 428.819 359.29C429.005 359.427 429.16 359.529 429.284 359.597C429.47 359.665 429.625 359.734 429.749 359.802C429.749 360.484 429.997 361.064 430.493 361.542C430.741 361.746 430.896 361.883 430.958 361.951C431.02 362.019 431.113 362.087 431.237 362.156C432.167 362.701 432.755 363.247 433.003 363.793C433.437 365.362 434.212 366.556 435.328 367.375C435.204 368.057 435.204 368.705 435.328 369.319C435.514 369.865 435.731 370.445 435.979 371.058C436.041 371.263 436.103 371.468 436.165 371.672C436.227 371.877 436.32 372.116 436.444 372.389L434.677 372.184L434.956 374.128C435.08 375.084 434.987 376.141 434.677 377.301C434.429 378.461 434.119 379.382 433.747 380.064C433.809 381.838 433.84 383.236 433.84 384.259C433.902 385.215 433.871 386.136 433.747 387.022C433.623 387.841 433.437 388.626 433.189 389.376C433.003 390.127 432.724 390.945 432.353 391.832C432.6 396.198 432.136 400.189 430.958 403.805C429.842 407.353 428.664 410.695 427.425 413.834C427.301 414.175 427.146 414.516 426.96 414.857C426.836 415.198 426.712 415.539 426.588 415.88C426.03 416.085 425.534 416.324 425.1 416.597C424.666 416.801 424.201 417.04 423.705 417.313Z" fill="#212121"/>
<path d="M488.791 361.542C488.853 362.019 488.853 362.394 488.791 362.667C488.791 362.872 488.76 363.077 488.698 363.281C488.698 363.486 488.698 363.725 488.698 363.998C488.698 364.202 488.76 364.543 488.884 365.021C487.582 367.34 486.063 368.944 484.328 369.831C482.654 370.649 480.826 371.263 478.842 371.672C476.858 372.014 474.813 372.389 472.705 372.798C470.66 373.207 468.614 374.094 466.569 375.459C465.763 375.118 465.019 375.118 464.337 375.459C463.717 375.8 462.788 375.902 461.548 375.766C461.176 376.175 460.711 376.482 460.153 376.687C459.595 376.823 459.038 376.994 458.48 377.198C458.728 377.812 458.821 378.461 458.759 379.143C458.759 379.757 458.852 380.268 459.038 380.678C461.207 380.882 463.593 380.848 466.197 380.575C468.862 380.303 471.466 380.132 474.007 380.064C474.069 380.405 474.038 380.644 473.914 380.78C473.79 380.848 473.759 381.019 473.821 381.292C474.255 381.633 474.689 382.076 475.123 382.622C475.557 383.1 475.991 383.577 476.425 384.055C476.858 384.532 477.292 384.942 477.726 385.283C478.222 385.556 478.78 385.658 479.4 385.59C479.648 386.136 479.803 386.75 479.865 387.432C479.989 388.046 479.927 388.694 479.679 389.376C478.687 390.127 477.695 390.911 476.704 391.73C475.712 392.48 474.658 393.162 473.542 393.776C472.488 394.39 471.342 394.902 470.102 395.311C468.924 395.652 467.592 395.789 466.104 395.721C465.794 395.721 465.546 395.721 465.36 395.721C465.236 395.721 465.05 395.618 464.802 395.414C464.306 395.755 463.593 395.857 462.664 395.721C461.796 395.584 461.114 395.687 460.618 396.028C459.936 395.687 459.099 395.55 458.108 395.618C457.178 395.618 456.341 395.482 455.597 395.209C454.606 396.642 453.707 398.177 452.901 399.814C452.095 401.451 451.382 403.191 450.762 405.033C452.87 405.374 454.606 405.511 455.969 405.442C457.395 405.374 458.728 405.272 459.967 405.135C461.207 404.931 462.478 404.76 463.779 404.624C465.081 404.419 466.724 404.351 468.707 404.419C469.947 403.669 471.404 403.191 473.077 402.986C474.813 402.713 476.394 402.304 477.819 401.758C478.315 401.963 478.749 402.338 479.121 402.884C479.493 403.362 479.834 403.839 480.144 404.317C480.516 404.726 480.888 405.101 481.259 405.442C481.631 405.783 482.096 405.92 482.654 405.852C482.902 406.125 483.057 406.466 483.119 406.875C483.243 407.216 483.336 407.557 483.398 407.898C483.46 408.239 483.553 408.546 483.677 408.819C483.863 409.024 484.142 409.092 484.514 409.024C483.584 411.275 482.499 413.015 481.259 414.243C480.082 415.403 478.718 416.29 477.168 416.904C475.619 417.518 473.883 417.995 471.962 418.336C470.102 418.677 468.025 419.087 465.732 419.564C465.174 419.701 464.709 419.667 464.337 419.462C463.965 419.325 463.531 419.257 463.036 419.257C461.61 419.598 459.905 419.905 457.922 420.178C455.938 420.451 453.924 420.553 451.878 420.485C449.833 420.417 447.88 420.11 446.02 419.564C444.161 419.087 442.642 418.2 441.464 416.904C440.969 416.426 440.628 415.88 440.442 415.266C440.318 414.584 439.915 414.072 439.233 413.731C439.171 412.844 439.047 411.855 438.861 410.764C438.675 409.672 438.489 408.546 438.303 407.387C438.117 406.159 437.962 404.965 437.838 403.805C437.776 402.645 437.838 401.588 438.024 400.633C438.21 399.609 438.582 398.688 439.14 397.87C439.76 397.051 439.977 396.164 439.791 395.209C440.101 395.141 440.287 394.97 440.349 394.697C440.411 394.356 440.659 394.22 441.093 394.288C441.464 393.06 441.867 391.9 442.301 390.809C442.735 389.717 443.169 388.66 443.603 387.636C444.099 386.613 444.564 385.59 444.998 384.566C445.494 383.475 445.958 382.281 446.392 380.985C445.525 380.098 444.874 379.143 444.44 378.119C444.068 377.028 443.789 375.97 443.603 374.947C443.417 373.856 443.262 372.764 443.138 371.672C443.014 370.513 442.797 369.353 442.487 368.193C443.107 367.17 443.851 366.351 444.719 365.737C445.649 365.055 446.64 364.509 447.694 364.1C448.748 363.691 449.895 363.349 451.134 363.077C452.374 362.804 453.676 362.497 455.039 362.156C457.519 361.269 459.719 360.586 461.641 360.109C463.624 359.631 465.546 359.256 467.406 358.983C469.327 358.642 471.311 358.335 473.356 358.062C475.402 357.789 477.726 357.38 480.33 356.834C480.888 357.448 481.414 357.755 481.91 357.755C482.158 357.141 482.437 356.971 482.747 357.244C483.119 357.448 483.274 357.244 483.212 356.63C483.832 357.789 484.607 358.779 485.537 359.597C486.528 360.348 487.613 360.996 488.791 361.542Z" fill="#212121"/>
<path d="M505.62 400.53C505.062 400.667 504.659 401.042 504.411 401.656C504.163 402.202 503.915 402.782 503.667 403.396C503.481 404.01 503.265 404.59 503.017 405.135C502.831 405.613 502.521 405.852 502.087 405.852C502.025 406.397 501.839 406.875 501.529 407.284C501.281 407.694 501.033 408.137 500.785 408.615C500.537 409.024 500.351 409.502 500.227 410.047C500.103 410.525 500.165 411.105 500.413 411.787C499.917 412.196 499.607 412.776 499.483 413.527C499.359 414.277 499.204 414.993 499.018 415.676C498.895 416.358 498.647 416.938 498.275 417.415C497.903 417.893 497.221 418.097 496.229 418.029C496.043 418.302 496.012 418.473 496.136 418.541C496.26 418.609 496.353 418.848 496.415 419.257C495.733 419.121 495.206 419.155 494.834 419.36C494.525 419.632 494.122 419.803 493.626 419.871C492.448 419.462 491.456 418.746 490.65 417.722C489.907 416.699 489.225 415.573 488.605 414.345C488.047 413.049 487.52 411.753 487.024 410.457C486.59 409.16 486.156 408.035 485.722 407.08C485.908 406.329 485.939 405.613 485.815 404.931C485.691 404.18 485.475 403.566 485.165 403.089C488.202 395.994 491.518 388.421 495.113 380.371C498.709 372.321 502.118 364.373 505.341 356.527C506.767 357.141 508.161 357.858 509.525 358.676C510.951 359.427 512.222 360.314 513.337 361.337C514.515 362.36 515.507 363.554 516.313 364.919C517.118 366.215 517.645 367.682 517.893 369.319C517.769 369.728 517.614 369.899 517.428 369.831C517.304 369.694 517.18 369.728 517.056 369.933C517.304 370.274 517.428 370.513 517.428 370.649C517.49 370.786 517.49 370.922 517.428 371.058C517.428 371.195 517.428 371.4 517.428 371.672C517.428 371.877 517.521 372.184 517.707 372.593C517.459 372.525 517.273 372.559 517.149 372.696C517.087 372.832 516.901 372.832 516.592 372.696C516.839 373.446 516.901 374.06 516.777 374.538C516.715 375.015 516.592 375.459 516.406 375.868C516.22 376.209 516.065 376.619 515.941 377.096C515.817 377.505 515.848 378.051 516.034 378.733C515.848 378.733 515.693 378.802 515.569 378.938C515.507 379.006 515.445 379.109 515.383 379.245C515.321 379.313 515.228 379.416 515.104 379.552C515.042 379.62 514.918 379.62 514.732 379.552C514.918 381.053 514.98 382.554 514.918 384.055C514.856 385.556 514.794 387.091 514.732 388.66C514.732 390.161 514.763 391.764 514.825 393.469C514.887 395.107 515.104 396.812 515.476 398.586C517.707 397.153 519.474 395.311 520.776 393.06C522.139 390.809 523.224 388.285 524.03 385.487C524.898 382.69 525.549 379.689 525.982 376.482C526.416 373.276 526.881 370.001 527.377 366.658C527.935 366.044 528.369 365.294 528.679 364.407C528.989 363.52 529.268 362.599 529.516 361.644C529.764 360.621 530.011 359.631 530.259 358.676C530.507 357.653 530.817 356.732 531.189 355.913C532.119 356.05 532.894 356.391 533.514 356.937C534.196 357.414 534.815 357.96 535.373 358.574C535.931 359.12 536.52 359.665 537.14 360.211C537.76 360.689 538.535 360.996 539.464 361.132C540.208 362.292 540.89 363.418 541.51 364.509C542.13 365.601 542.533 366.761 542.719 367.989C542.409 368.534 542.161 369.148 541.975 369.831C541.851 370.513 541.696 371.195 541.51 371.877C541.324 372.559 541.076 373.207 540.766 373.821C540.456 374.367 540.022 374.845 539.464 375.254C539.278 377.028 539.03 378.665 538.721 380.166C538.473 381.599 538.194 383.031 537.884 384.464C537.636 385.897 537.419 387.398 537.233 388.967C537.047 390.468 536.985 392.139 537.047 393.981C536.551 395.55 536.024 397.222 535.466 398.995C534.908 400.769 534.474 402.372 534.165 403.805C533.173 404.692 532.398 405.749 531.84 406.977C531.282 408.205 530.693 409.433 530.073 410.661C529.826 410.934 529.671 411.002 529.609 410.866C529.547 410.729 529.33 410.627 528.958 410.559C529.02 410.832 529.02 411.036 528.958 411.173C528.896 411.309 528.803 411.446 528.679 411.582C528.617 411.65 528.555 411.787 528.493 411.992C528.493 412.196 528.555 412.469 528.679 412.81C527.811 413.22 527.036 413.799 526.354 414.55C525.672 415.3 524.929 415.983 524.123 416.597C523.379 417.211 522.449 417.62 521.333 417.825C520.28 418.029 518.885 417.79 517.149 417.108C514.608 415.062 512.345 412.708 510.362 410.047C508.44 407.387 506.86 404.214 505.62 400.53Z" fill="#212121"/>
<path d="M593.206 369.933C591.657 369.933 589.983 370.069 588.185 370.342C586.388 370.547 584.621 370.786 582.886 371.058C581.646 371.263 580.437 371.434 579.259 371.57C578.144 371.707 577.121 371.809 576.191 371.877C575.757 373.378 575.323 374.708 574.889 375.868C574.455 377.028 573.991 378.154 573.495 379.245C572.999 380.405 572.534 381.599 572.1 382.827C571.728 383.987 571.356 385.249 570.984 386.613C570.364 387.705 569.838 388.728 569.404 389.683C569.032 390.57 568.722 391.593 568.474 392.753C567.73 393.776 567.172 394.868 566.8 396.028C566.428 397.119 566.149 398.074 565.963 398.893L565.591 400.121C565.22 400.53 565.003 400.871 564.941 401.144C564.879 401.349 564.724 401.554 564.476 401.758C564.414 402.509 564.197 403.259 563.825 404.01C563.701 404.351 563.608 404.692 563.546 405.033C563.484 405.306 563.453 405.511 563.453 405.647C563.453 406.329 563.298 406.773 562.988 406.977C563.05 407.318 563.05 407.694 562.988 408.103C562.926 408.444 562.864 408.785 562.802 409.126C562.616 409.945 562.554 410.593 562.616 411.071C562.802 411.343 562.957 411.582 563.081 411.787C563.267 411.992 563.391 412.264 563.453 412.606C563.825 412.878 564.104 413.049 564.29 413.117C564.538 413.322 564.91 413.561 565.406 413.834L566.242 414.857C566.552 416.835 566.273 418.404 565.406 419.564C564.476 420.86 562.895 421.509 560.664 421.509H559.548C559.238 421.167 559.052 420.895 558.99 420.69C558.494 420.485 558.091 420.315 557.781 420.178C557.471 420.042 557.192 419.769 556.944 419.36C556.139 418.95 555.488 418.609 554.992 418.336L554.155 417.825C554.155 417.074 554.155 416.665 554.155 416.597C553.721 415.983 553.38 415.3 553.132 414.55C552.946 413.799 552.791 413.049 552.667 412.299C552.543 411.685 552.388 411.105 552.202 410.559C552.079 410.013 551.893 409.536 551.645 409.126C551.521 405.169 551.862 401.827 552.667 399.098C553.473 396.369 554.31 393.742 555.178 391.218C555.674 389.854 556.17 388.489 556.665 387.125C557.161 385.692 557.595 384.225 557.967 382.724L558.804 381.701C559.238 380.61 559.579 379.723 559.827 379.04C560.137 378.29 560.447 377.54 560.757 376.789C560.943 376.312 561.097 375.868 561.221 375.459C561.407 374.981 561.562 374.572 561.686 374.231C561.314 374.231 560.974 374.265 560.664 374.333C560.354 374.333 560.044 374.367 559.734 374.435C559.362 374.504 559.021 374.572 558.711 374.64C558.401 374.64 558.091 374.64 557.781 374.64C557.347 374.64 557.037 374.606 556.851 374.538C556.17 374.879 555.426 375.049 554.62 375.049H553.69C553.504 375.049 553.318 375.049 553.132 375.049C553.008 374.981 552.884 374.947 552.76 374.947C552.141 374.947 551.645 375.049 551.273 375.254C550.529 375.254 549.816 375.254 549.134 375.254H548.204C548.08 375.254 547.925 375.288 547.739 375.356C547.554 375.356 547.399 375.356 547.275 375.356C546.841 375.356 546.376 375.322 545.88 375.254C545.384 375.118 544.857 374.879 544.299 374.538C543.555 373.446 543.06 372.866 542.812 372.798L541.975 371.57C541.913 371.161 541.82 370.786 541.696 370.445C541.572 370.035 541.448 369.592 541.324 369.114C541.076 368.432 540.828 367.716 540.58 366.965C540.394 366.147 540.301 365.191 540.301 364.1C540.363 363.554 540.487 363.145 540.673 362.872C540.859 362.599 541.014 362.36 541.138 362.156L541.417 360.621L542.626 360.723H545.229C547.213 360.723 549.227 360.655 551.273 360.518C553.318 360.314 555.426 360.109 557.595 359.904C558.835 359.768 560.075 359.631 561.314 359.495C562.616 359.358 563.949 359.222 565.313 359.086C565.56 358.472 565.808 357.892 566.056 357.346L566.986 356.834C568.102 356.766 568.877 356.937 569.311 357.346C569.807 357.687 570.209 358.028 570.519 358.369C571.883 358.233 573.247 358.096 574.61 357.96C576.036 357.755 577.462 357.516 578.887 357.244C580.995 356.902 583.103 356.595 585.21 356.323C587.38 356.05 589.456 355.913 591.44 355.913C592.307 355.913 593.144 355.947 593.95 356.016C594.756 356.084 595.5 356.186 596.182 356.323L597.111 357.039C597.297 357.448 597.545 357.823 597.855 358.165C598.227 358.506 598.599 358.847 598.971 359.188C599.715 359.938 600.459 360.825 601.202 361.849C601.946 362.872 602.225 364.373 602.039 366.351C601.543 367.17 601.171 367.647 600.923 367.784L600.087 369.012L599.157 368.91C598.785 368.91 598.444 368.978 598.134 369.114C597.824 369.182 597.514 369.285 597.204 369.421C596.956 369.558 596.708 369.694 596.461 369.831C596.213 369.899 595.934 369.967 595.624 370.035C595.066 370.035 594.601 370.035 594.229 370.035C593.919 369.967 593.578 369.933 593.206 369.933Z" fill="#212121"/>
<defs>
<linearGradient id="paint0_linear_1455_388" x1="208" y1="119.5" x2="668.232" y2="503.472" gradientUnits="userSpaceOnUse">
<stop stop-color="#7C3AED"/>
<stop offset="0.391643" stop-color="#10B981"/>
</linearGradient>
<linearGradient id="paint1_linear_1455_388" x1="192.5" y1="163.5" x2="601.396" y2="524.876" gradientUnits="userSpaceOnUse">
<stop stop-color="#7330DB"/>
<stop offset="0.461101" stop-color="#10B981"/>
</linearGradient>
</defs>
</svg>
