<svg xmlns="http://www.w3.org/2000/svg" xmlns:cc="http://web.resource.org/cc/" xmlns:svg="http://www.w3.org/2000/svg" id="svg2142" width="510.45" height="156.103" fill-rule="evenodd" clip-rule="evenodd" image-rendering="optimizeQuality" shape-rendering="geometricPrecision" text-rendering="geometricPrecision" version="1.0" viewBox="0 0 240 73.946" xml:space="preserve"><metadata id="metadata2151"/><g id="Ebene_x0020_1" transform="translate(4.485e-4,3.2e-5)"><metadata id="CorelCorpID_0Corel-Layer"/><path id="path2146" d="M 102.502,0.775784 L 101.07186,0.775784 L 64.73016,25.000584 L 64.570203,24.375806 C 59.565623,10.141206 45.483303,3.887506 27.493203,3.887506 L 1.636503,3.887506 L 1.636503,69.574706 L 29.050903,69.574706 C 46.269803,69.574706 60.034103,62.534536 64.730203,49.084306 L 64.886268,48.615852 L 101.80697,73.170052 L 140.92537,47.050552 L 140.92537,69.574752 L 187.75037,69.574752 L 187.75037,49.501452 L 164.38447,49.501452 L 164.38447,3.887552 L 140.92527,3.887552 L 140.92527,27.118152 L 111.75687,47.016352 L 105.13949,42.328052 L 134.86579,22.308052 L 121.67849,13.761462 L 91.635888,33.781462 L 85.300278,29.824182 L 115.33698,9.806082 L 102.50188,0.775852 L 102.502,0.775784 z M 42.3526,37.509884 C 42.3526,46.115504 36.09885,50.025084 28.2721,50.025084 L 25.10903,50.025084 L 25.10903,24.215984 L 28.2721,24.215984 C 36.87772,24.215984 42.3526,28.595794 42.3526,37.509884 z M 238.3626,69.574684 L 192.5069,69.574684 L 192.5069,3.887484 L 215.9718,3.887484 L 215.9718,49.501384 L 238.3626,49.501384 L 238.3626,69.574684 z" style="fill:#475569;fill-rule:nonzero"/></g></svg>