<svg xmlns="http://www.w3.org/2000/svg" viewBox="0 0 1440 320"><path fill="#121212" fill-opacity="1" d="M0,160L6.2,176C12.3,192,25,224,37,213.3C49.2,203,62,149,74,122.7C86.2,96,98,96,111,122.7C123.1,149,135,203,148,192C160,181,172,107,185,85.3C196.9,64,209,96,222,128C233.8,160,246,192,258,186.7C270.8,181,283,139,295,128C307.7,117,320,139,332,165.3C344.6,192,357,224,369,202.7C381.5,181,394,107,406,74.7C418.5,43,431,53,443,74.7C455.4,96,468,128,480,170.7C492.3,213,505,267,517,256C529.2,245,542,171,554,160C566.2,149,578,203,591,213.3C603.1,224,615,192,628,149.3C640,107,652,53,665,58.7C676.9,64,689,128,702,160C713.8,192,726,192,738,186.7C750.8,181,763,171,775,186.7C787.7,203,800,245,812,261.3C824.6,277,837,267,849,245.3C861.5,224,874,192,886,202.7C898.5,213,911,267,923,240C935.4,213,948,107,960,96C972.3,85,985,171,997,218.7C1009.2,267,1022,277,1034,277.3C1046.2,277,1058,267,1071,224C1083.1,181,1095,107,1108,112C1120,117,1132,203,1145,208C1156.9,213,1169,139,1182,112C1193.8,85,1206,107,1218,96C1230.8,85,1243,43,1255,26.7C1267.7,11,1280,21,1292,64C1304.6,107,1317,181,1329,224C1341.5,267,1354,277,1366,234.7C1378.5,192,1391,96,1403,74.7C1415.4,53,1428,107,1434,133.3L1440,160L1440,320L1433.8,320C1427.7,320,1415,320,1403,320C1390.8,320,1378,320,1366,320C1353.8,320,1342,320,1329,320C1316.9,320,1305,320,1292,320C1280,320,1268,320,1255,320C1243.1,320,1231,320,1218,320C1206.2,320,1194,320,1182,320C1169.2,320,1157,320,1145,320C1132.3,320,1120,320,1108,320C1095.4,320,1083,320,1071,320C1058.5,320,1046,320,1034,320C1021.5,320,1009,320,997,320C984.6,320,972,320,960,320C947.7,320,935,320,923,320C910.8,320,898,320,886,320C873.8,320,862,320,849,320C836.9,320,825,320,812,320C800,320,788,320,775,320C763.1,320,751,320,738,320C726.2,320,714,320,702,320C689.2,320,677,320,665,320C652.3,320,640,320,628,320C615.4,320,603,320,591,320C578.5,320,566,320,554,320C541.5,320,529,320,517,320C504.6,320,492,320,480,320C467.7,320,455,320,443,320C430.8,320,418,320,406,320C393.8,320,382,320,369,320C356.9,320,345,320,332,320C320,320,308,320,295,320C283.1,320,271,320,258,320C246.2,320,234,320,222,320C209.2,320,197,320,185,320C172.3,320,160,320,148,320C135.4,320,123,320,111,320C98.5,320,86,320,74,320C61.5,320,49,320,37,320C24.6,320,12,320,6,320L0,320Z"/></svg>