<?xml version="1.0" encoding="iso-8859-1"?>
<!-- Generator: Adobe Illustrator 19.0.0, SVG Export Plug-In . SVG Version: 6.00 Build 0)  -->
<svg version="1.1" id="Layer_1" xmlns="http://www.w3.org/2000/svg" xmlns:xlink="http://www.w3.org/1999/xlink" x="0px" y="0px"
	 viewBox="0 0 512 512" style="enable-background:new 0 0 512 512;" xml:space="preserve">
<g>
	<g>
		<path fill="#64748b" d="M416.423,123.244C410.715,54.122,351.871,0,282.392,0h-52.784C160.129,0,101.285,54.122,95.577,123.244
			c-0.501,4.225-0.567,8.282-0.567,11.354v242.804C95.01,451.62,155.39,512,229.608,512h52.784
			c74.218,0,134.598-60.38,134.598-134.598V134.598C416.99,131.524,416.924,127.465,416.423,123.244z M263.918,15.835h18.474
			c58.446,0,108.36,43.401,117.245,100.289H263.918V15.835z M229.608,15.835h18.474v100.289H112.363
			C121.249,59.236,171.162,15.835,229.608,15.835z M282.392,496.165h-52.784c-65.486,0-118.763-53.278-118.763-118.763
			c0,0,0.008-244.611,0.025-245.443h290.259c0.017,0.832,0.025,245.443,0.025,245.443
			C401.155,442.887,347.877,496.165,282.392,496.165z"/>
	</g>
</g>
<g>
	<g>
		<rect fill="#64748b" x="137.237" y="155.711" width="15.835" height="190.021"/>
	</g>
</g>
<g>
	<g>
		<rect fill="#64748b" x="137.237" y="366.845" width="15.835" height="26.392"/>
	</g>
</g>
<g>
</g>
<g>
</g>
<g>
</g>
<g>
</g>
<g>
</g>
<g>
</g>
<g>
</g>
<g>
</g>
<g>
</g>
<g>
</g>
<g>
</g>
<g>
</g>
<g>
</g>
<g>
</g>
<g>
</g>
</svg>
