<svg xmlns="http://www.w3.org/2000/svg" width="170" height="170" viewBox="0 0 170 170">
  <g fill="none" transform="rotate(-45 97.027 9.873)">
    <path fill="#292C36" d="M25.5,0 C11.4167389,0 0,11.4167389 0,25.5 C0,39.5832611 11.4167389,51 25.5,51 C39.5832611,51 51,39.5832611 51,25.5 C51,11.4167389 39.5832611,0 25.5,0 Z M25.5,11 C33.5081289,11 40,17.4918711 40,25.5 C40,33.5081289 33.5081289,40 25.5,40 C17.4918711,40 11,33.5081289 11,25.5 C11,17.4918711 17.4918711,11 25.5,11 Z" transform="rotate(90 25.5 25.5)"/>
    <path fill="#424854" d="M11,0 C11,7.90275876 17.3221564,14.3288988 25.1846885,14.4966395 L25.5,14.5 L25.5,25.5 C11.5575715,25.5 0.22860143,14.3104542 0.00341627145,0.421689127 L0,0 L11,0 Z" transform="rotate(90 12.75 12.75)"/>
  </g>
</svg>
