<svg width="325" height="126" viewBox="0 0 325 126" fill="none" xmlns="http://www.w3.org/2000/svg">
<rect x="3.5" y="3.5" width="318" height="119" stroke="url(#paint0_linear_86_236)" stroke-width="7"/>
<rect x="3.5" y="3.5" width="318" height="119" stroke="#9747FF" stroke-opacity="0.18" stroke-width="7"/>
<path d="M151.535 81.495C149.045 81.495 146.69 81.18 144.47 80.55C142.28 79.92 140.45 79.065 138.98 77.985L141.005 72.495C142.415 73.485 144.02 74.265 145.82 74.835C147.65 75.405 149.555 75.69 151.535 75.69C153.695 75.69 155.24 75.36 156.17 74.7C157.13 74.01 157.61 73.155 157.61 72.135C157.61 71.265 157.28 70.575 156.62 70.065C155.96 69.555 154.805 69.12 153.155 68.76L148.07 67.68C142.4 66.48 139.565 63.54 139.565 58.86C139.565 56.85 140.105 55.095 141.185 53.595C142.265 52.065 143.765 50.88 145.685 50.04C147.635 49.2 149.885 48.78 152.435 48.78C154.625 48.78 156.68 49.095 158.6 49.725C160.52 50.355 162.11 51.24 163.37 52.38L161.345 57.51C158.885 55.56 155.9 54.585 152.39 54.585C150.5 54.585 149.03 54.96 147.98 55.71C146.96 56.43 146.45 57.375 146.45 58.545C146.45 59.415 146.765 60.12 147.395 60.66C148.025 61.2 149.12 61.635 150.68 61.965L155.765 63.045C161.585 64.305 164.495 67.155 164.495 71.595C164.495 73.575 163.955 75.315 162.875 76.815C161.825 78.285 160.325 79.44 158.375 80.28C156.455 81.09 154.175 81.495 151.535 81.495ZM176.583 81.495C173.763 81.495 171.678 80.715 170.328 79.155C169.008 77.595 168.348 75.255 168.348 72.135V58.905H175.143V72.315C175.143 74.925 176.268 76.23 178.518 76.23C179.808 76.23 180.858 75.78 181.668 74.88C182.508 73.95 182.928 72.735 182.928 71.235V58.905H189.723V81H183.108V77.985C181.638 80.325 179.463 81.495 176.583 81.495ZM203.216 81.495C200.366 81.495 198.281 80.76 196.961 79.29C195.641 77.79 194.981 75.57 194.981 72.63V49.275H201.776V72.36C201.776 74.76 202.841 75.96 204.971 75.96C205.301 75.96 205.616 75.945 205.916 75.915C206.246 75.885 206.561 75.825 206.861 75.735L206.771 81C205.631 81.33 204.446 81.495 203.216 81.495ZM218.201 81.495C215.351 81.495 213.266 80.76 211.946 79.29C210.626 77.79 209.966 75.57 209.966 72.63V49.275H216.761V72.36C216.761 74.76 217.826 75.96 219.956 75.96C220.286 75.96 220.601 75.945 220.901 75.915C221.231 75.885 221.546 75.825 221.846 75.735L221.756 81C220.616 81.33 219.431 81.495 218.201 81.495ZM224.682 54.63V48.285H232.017V54.63H224.682ZM224.952 81V58.905H231.747V81H224.952ZM243.518 81L233.888 58.905H241.043L246.578 72.945L252.293 58.905H258.998L249.233 81H243.518ZM268.061 81.495C266.411 81.495 264.956 81.18 263.696 80.55C262.436 79.92 261.431 79.065 260.681 77.985C259.961 76.905 259.601 75.69 259.601 74.34C259.601 72.75 260.021 71.475 260.861 70.515C261.701 69.555 263.066 68.88 264.956 68.49C266.846 68.07 269.351 67.86 272.471 67.86H274.091V67.095C274.091 65.775 273.791 64.845 273.191 64.305C272.591 63.735 271.571 63.45 270.131 63.45C268.931 63.45 267.656 63.645 266.306 64.035C264.986 64.395 263.666 64.95 262.346 65.7L260.501 61.155C261.281 60.645 262.226 60.18 263.336 59.76C264.476 59.34 265.661 59.025 266.891 58.815C268.121 58.575 269.291 58.455 270.401 58.455C273.821 58.455 276.371 59.235 278.051 60.795C279.731 62.325 280.571 64.71 280.571 67.95V81H274.226V77.67C273.776 78.84 273.011 79.77 271.931 80.46C270.881 81.15 269.591 81.495 268.061 81.495ZM269.591 76.95C270.851 76.95 271.916 76.515 272.786 75.645C273.656 74.775 274.091 73.65 274.091 72.27V71.37H272.516C270.206 71.37 268.571 71.58 267.611 72C266.651 72.39 266.171 73.08 266.171 74.07C266.171 74.91 266.456 75.6 267.026 76.14C267.626 76.68 268.481 76.95 269.591 76.95ZM285.64 81V58.905H292.3V62.145C293.05 60.945 294.055 60.03 295.315 59.4C296.575 58.77 297.985 58.455 299.545 58.455C302.155 58.455 304.105 59.22 305.395 60.75C306.685 62.25 307.33 64.575 307.33 67.725V81H300.535V68.04C300.535 66.51 300.25 65.415 299.68 64.755C299.11 64.065 298.27 63.72 297.16 63.72C295.72 63.72 294.565 64.17 293.695 65.07C292.855 65.97 292.435 67.17 292.435 68.67V81H285.64Z" fill="url(#paint1_linear_86_236)"/>
<path d="M151.535 81.495C149.045 81.495 146.69 81.18 144.47 80.55C142.28 79.92 140.45 79.065 138.98 77.985L141.005 72.495C142.415 73.485 144.02 74.265 145.82 74.835C147.65 75.405 149.555 75.69 151.535 75.69C153.695 75.69 155.24 75.36 156.17 74.7C157.13 74.01 157.61 73.155 157.61 72.135C157.61 71.265 157.28 70.575 156.62 70.065C155.96 69.555 154.805 69.12 153.155 68.76L148.07 67.68C142.4 66.48 139.565 63.54 139.565 58.86C139.565 56.85 140.105 55.095 141.185 53.595C142.265 52.065 143.765 50.88 145.685 50.04C147.635 49.2 149.885 48.78 152.435 48.78C154.625 48.78 156.68 49.095 158.6 49.725C160.52 50.355 162.11 51.24 163.37 52.38L161.345 57.51C158.885 55.56 155.9 54.585 152.39 54.585C150.5 54.585 149.03 54.96 147.98 55.71C146.96 56.43 146.45 57.375 146.45 58.545C146.45 59.415 146.765 60.12 147.395 60.66C148.025 61.2 149.12 61.635 150.68 61.965L155.765 63.045C161.585 64.305 164.495 67.155 164.495 71.595C164.495 73.575 163.955 75.315 162.875 76.815C161.825 78.285 160.325 79.44 158.375 80.28C156.455 81.09 154.175 81.495 151.535 81.495ZM176.583 81.495C173.763 81.495 171.678 80.715 170.328 79.155C169.008 77.595 168.348 75.255 168.348 72.135V58.905H175.143V72.315C175.143 74.925 176.268 76.23 178.518 76.23C179.808 76.23 180.858 75.78 181.668 74.88C182.508 73.95 182.928 72.735 182.928 71.235V58.905H189.723V81H183.108V77.985C181.638 80.325 179.463 81.495 176.583 81.495ZM203.216 81.495C200.366 81.495 198.281 80.76 196.961 79.29C195.641 77.79 194.981 75.57 194.981 72.63V49.275H201.776V72.36C201.776 74.76 202.841 75.96 204.971 75.96C205.301 75.96 205.616 75.945 205.916 75.915C206.246 75.885 206.561 75.825 206.861 75.735L206.771 81C205.631 81.33 204.446 81.495 203.216 81.495ZM218.201 81.495C215.351 81.495 213.266 80.76 211.946 79.29C210.626 77.79 209.966 75.57 209.966 72.63V49.275H216.761V72.36C216.761 74.76 217.826 75.96 219.956 75.96C220.286 75.96 220.601 75.945 220.901 75.915C221.231 75.885 221.546 75.825 221.846 75.735L221.756 81C220.616 81.33 219.431 81.495 218.201 81.495ZM224.682 54.63V48.285H232.017V54.63H224.682ZM224.952 81V58.905H231.747V81H224.952ZM243.518 81L233.888 58.905H241.043L246.578 72.945L252.293 58.905H258.998L249.233 81H243.518ZM268.061 81.495C266.411 81.495 264.956 81.18 263.696 80.55C262.436 79.92 261.431 79.065 260.681 77.985C259.961 76.905 259.601 75.69 259.601 74.34C259.601 72.75 260.021 71.475 260.861 70.515C261.701 69.555 263.066 68.88 264.956 68.49C266.846 68.07 269.351 67.86 272.471 67.86H274.091V67.095C274.091 65.775 273.791 64.845 273.191 64.305C272.591 63.735 271.571 63.45 270.131 63.45C268.931 63.45 267.656 63.645 266.306 64.035C264.986 64.395 263.666 64.95 262.346 65.7L260.501 61.155C261.281 60.645 262.226 60.18 263.336 59.76C264.476 59.34 265.661 59.025 266.891 58.815C268.121 58.575 269.291 58.455 270.401 58.455C273.821 58.455 276.371 59.235 278.051 60.795C279.731 62.325 280.571 64.71 280.571 67.95V81H274.226V77.67C273.776 78.84 273.011 79.77 271.931 80.46C270.881 81.15 269.591 81.495 268.061 81.495ZM269.591 76.95C270.851 76.95 271.916 76.515 272.786 75.645C273.656 74.775 274.091 73.65 274.091 72.27V71.37H272.516C270.206 71.37 268.571 71.58 267.611 72C266.651 72.39 266.171 73.08 266.171 74.07C266.171 74.91 266.456 75.6 267.026 76.14C267.626 76.68 268.481 76.95 269.591 76.95ZM285.64 81V58.905H292.3V62.145C293.05 60.945 294.055 60.03 295.315 59.4C296.575 58.77 297.985 58.455 299.545 58.455C302.155 58.455 304.105 59.22 305.395 60.75C306.685 62.25 307.33 64.575 307.33 67.725V81H300.535V68.04C300.535 66.51 300.25 65.415 299.68 64.755C299.11 64.065 298.27 63.72 297.16 63.72C295.72 63.72 294.565 64.17 293.695 65.07C292.855 65.97 292.435 67.17 292.435 68.67V81H285.64Z" fill="#9747FF" fill-opacity="0.18"/>
<rect x="14" y="13" width="114" height="100" fill="url(#paint2_linear_86_236)"/>
<rect x="14" y="13" width="114" height="100" fill="#9747FF" fill-opacity="0.18"/>
<path d="M37.0005 78V46.275H50.1405C53.5605 46.275 56.2005 47.13 58.0605 48.84C59.9205 50.52 60.8505 52.89 60.8505 55.95C60.8505 59.04 59.9205 61.44 58.0605 63.15C56.2005 64.83 53.5605 65.67 50.1405 65.67H41.6805V78H37.0005ZM41.6805 61.935H49.4655C54.0255 61.935 56.3055 59.94 56.3055 55.95C56.3055 51.99 54.0255 50.01 49.4655 50.01H41.6805V61.935ZM71.299 78.405C69.769 78.405 68.404 78.105 67.204 77.505C66.004 76.905 65.044 76.095 64.324 75.075C63.634 74.055 63.289 72.9 63.289 71.61C63.289 69.99 63.694 68.715 64.504 67.785C65.344 66.855 66.709 66.18 68.599 65.76C70.519 65.34 73.099 65.13 76.339 65.13H77.869V63.96C77.869 62.25 77.509 61.02 76.789 60.27C76.069 59.52 74.884 59.145 73.234 59.145C71.974 59.145 70.714 59.34 69.454 59.73C68.194 60.09 66.904 60.675 65.584 61.485L64.189 58.29C65.329 57.48 66.754 56.835 68.464 56.355C70.174 55.875 71.809 55.635 73.369 55.635C76.369 55.635 78.589 56.355 80.029 57.795C81.469 59.205 82.189 61.425 82.189 64.455V78H77.914V74.355C77.374 75.615 76.534 76.605 75.394 77.325C74.254 78.045 72.889 78.405 71.299 78.405ZM72.199 75.165C73.819 75.165 75.169 74.595 76.249 73.455C77.329 72.315 77.869 70.875 77.869 69.135V67.92H76.384C74.194 67.92 72.469 68.025 71.209 68.235C69.979 68.445 69.094 68.805 68.554 69.315C68.044 69.795 67.789 70.47 67.789 71.34C67.789 72.48 68.179 73.41 68.959 74.13C69.739 74.82 70.819 75.165 72.199 75.165ZM97.8089 78.405C95.0489 78.405 92.9939 77.7 91.6439 76.29C90.2939 74.88 89.6189 72.84 89.6189 70.17V59.55H85.3439V56.04H89.6189V49.425H94.1639V56.04H100.959V59.55H94.1639V69.81C94.1639 71.4 94.4939 72.6 95.1539 73.41C95.8439 74.22 96.9539 74.625 98.4839 74.625C98.9639 74.625 99.4289 74.58 99.8789 74.49C100.329 74.37 100.779 74.235 101.229 74.085L101.949 77.505C101.499 77.775 100.869 77.985 100.059 78.135C99.2789 78.315 98.5289 78.405 97.8089 78.405Z" fill="white"/>
<defs>
<linearGradient id="paint0_linear_86_236" x1="162.5" y1="0" x2="162.5" y2="126" gradientUnits="userSpaceOnUse">
<stop stop-color="#2B2347" stop-opacity="0.81"/>
<stop offset="1" stop-color="#212132"/>
</linearGradient>
<linearGradient id="paint1_linear_86_236" x1="226.044" y1="59" x2="226.044" y2="86" gradientUnits="userSpaceOnUse">
<stop stop-color="#2B2347" stop-opacity="0.81"/>
<stop offset="1" stop-color="#212132"/>
</linearGradient>
<linearGradient id="paint2_linear_86_236" x1="71" y1="13" x2="71" y2="113" gradientUnits="userSpaceOnUse">
<stop stop-color="#2B2347" stop-opacity="0.81"/>
<stop offset="1" stop-color="#212132"/>
</linearGradient>
</defs>
</svg>
