<svg xmlns="http://www.w3.org/2000/svg" width="370" height="314" fill="none" viewBox="0 0 370 314"><rect width="370" height="314" fill="#F5F5F5"/><rect width="318" height="119" x="23.5" y="23.5" stroke="url(#paint0_linear_86_234)" stroke-width="7"/><rect width="318" height="119" x="23.5" y="23.5" stroke="#9747FF" stroke-opacity=".18" stroke-width="7"/><path fill="url(#paint1_linear_86_234)" d="M171.535 101.495C169.045 101.495 166.69 101.18 164.47 100.55C162.28 99.92 160.45 99.065 158.98 97.985L161.005 92.495C162.415 93.485 164.02 94.265 165.82 94.835C167.65 95.405 169.555 95.69 171.535 95.69C173.695 95.69 175.24 95.36 176.17 94.7C177.13 94.01 177.61 93.155 177.61 92.135C177.61 91.265 177.28 90.575 176.62 90.065C175.96 89.555 174.805 89.12 173.155 88.76L168.07 87.68C162.4 86.48 159.565 83.54 159.565 78.86C159.565 76.85 160.105 75.095 161.185 73.595C162.265 72.065 163.765 70.88 165.685 70.04C167.635 69.2 169.885 68.78 172.435 68.78C174.625 68.78 176.68 69.095 178.6 69.725C180.52 70.355 182.11 71.24 183.37 72.38L181.345 77.51C178.885 75.56 175.9 74.585 172.39 74.585C170.5 74.585 169.03 74.96 167.98 75.71C166.96 76.43 166.45 77.375 166.45 78.545C166.45 79.415 166.765 80.12 167.395 80.66C168.025 81.2 169.12 81.635 170.68 81.965L175.765 83.045C181.585 84.305 184.495 87.155 184.495 91.595C184.495 93.575 183.955 95.315 182.875 96.815C181.825 98.285 180.325 99.44 178.375 100.28C176.455 101.09 174.175 101.495 171.535 101.495ZM196.583 101.495C193.763 101.495 191.678 100.715 190.328 99.155C189.008 97.595 188.348 95.255 188.348 92.135V78.905H195.143V92.315C195.143 94.925 196.268 96.23 198.518 96.23C199.808 96.23 200.858 95.78 201.668 94.88C202.508 93.95 202.928 92.735 202.928 91.235V78.905H209.723V101H203.108V97.985C201.638 100.325 199.463 101.495 196.583 101.495ZM223.216 101.495C220.366 101.495 218.281 100.76 216.961 99.29C215.641 97.79 214.981 95.57 214.981 92.63V69.275H221.776V92.36C221.776 94.76 222.841 95.96 224.971 95.96C225.301 95.96 225.616 95.945 225.916 95.915C226.246 95.885 226.561 95.825 226.861 95.735L226.771 101C225.631 101.33 224.446 101.495 223.216 101.495ZM238.201 101.495C235.351 101.495 233.266 100.76 231.946 99.29C230.626 97.79 229.966 95.57 229.966 92.63V69.275H236.761V92.36C236.761 94.76 237.826 95.96 239.956 95.96C240.286 95.96 240.601 95.945 240.901 95.915C241.231 95.885 241.546 95.825 241.846 95.735L241.756 101C240.616 101.33 239.431 101.495 238.201 101.495ZM244.682 74.63V68.285H252.017V74.63H244.682ZM244.952 101V78.905H251.747V101H244.952ZM263.518 101L253.888 78.905H261.043L266.578 92.945L272.293 78.905H278.998L269.233 101H263.518ZM288.061 101.495C286.411 101.495 284.956 101.18 283.696 100.55C282.436 99.92 281.431 99.065 280.681 97.985C279.961 96.905 279.601 95.69 279.601 94.34C279.601 92.75 280.021 91.475 280.861 90.515C281.701 89.555 283.066 88.88 284.956 88.49C286.846 88.07 289.351 87.86 292.471 87.86H294.091V87.095C294.091 85.775 293.791 84.845 293.191 84.305C292.591 83.735 291.571 83.45 290.131 83.45C288.931 83.45 287.656 83.645 286.306 84.035C284.986 84.395 283.666 84.95 282.346 85.7L280.501 81.155C281.281 80.645 282.226 80.18 283.336 79.76C284.476 79.34 285.661 79.025 286.891 78.815C288.121 78.575 289.291 78.455 290.401 78.455C293.821 78.455 296.371 79.235 298.051 80.795C299.731 82.325 300.571 84.71 300.571 87.95V101H294.226V97.67C293.776 98.84 293.011 99.77 291.931 100.46C290.881 101.15 289.591 101.495 288.061 101.495ZM289.591 96.95C290.851 96.95 291.916 96.515 292.786 95.645C293.656 94.775 294.091 93.65 294.091 92.27V91.37H292.516C290.206 91.37 288.571 91.58 287.611 92C286.651 92.39 286.171 93.08 286.171 94.07C286.171 94.91 286.456 95.6 287.026 96.14C287.626 96.68 288.481 96.95 289.591 96.95ZM305.64 101V78.905H312.3V82.145C313.05 80.945 314.055 80.03 315.315 79.4C316.575 78.77 317.985 78.455 319.545 78.455C322.155 78.455 324.105 79.22 325.395 80.75C326.685 82.25 327.33 84.575 327.33 87.725V101H320.535V88.04C320.535 86.51 320.25 85.415 319.68 84.755C319.11 84.065 318.27 83.72 317.16 83.72C315.72 83.72 314.565 84.17 313.695 85.07C312.855 85.97 312.435 87.17 312.435 88.67V101H305.64Z"/><path fill="#9747FF" fill-opacity=".18" d="M171.535 101.495C169.045 101.495 166.69 101.18 164.47 100.55C162.28 99.92 160.45 99.065 158.98 97.985L161.005 92.495C162.415 93.485 164.02 94.265 165.82 94.835C167.65 95.405 169.555 95.69 171.535 95.69C173.695 95.69 175.24 95.36 176.17 94.7C177.13 94.01 177.61 93.155 177.61 92.135C177.61 91.265 177.28 90.575 176.62 90.065C175.96 89.555 174.805 89.12 173.155 88.76L168.07 87.68C162.4 86.48 159.565 83.54 159.565 78.86C159.565 76.85 160.105 75.095 161.185 73.595C162.265 72.065 163.765 70.88 165.685 70.04C167.635 69.2 169.885 68.78 172.435 68.78C174.625 68.78 176.68 69.095 178.6 69.725C180.52 70.355 182.11 71.24 183.37 72.38L181.345 77.51C178.885 75.56 175.9 74.585 172.39 74.585C170.5 74.585 169.03 74.96 167.98 75.71C166.96 76.43 166.45 77.375 166.45 78.545C166.45 79.415 166.765 80.12 167.395 80.66C168.025 81.2 169.12 81.635 170.68 81.965L175.765 83.045C181.585 84.305 184.495 87.155 184.495 91.595C184.495 93.575 183.955 95.315 182.875 96.815C181.825 98.285 180.325 99.44 178.375 100.28C176.455 101.09 174.175 101.495 171.535 101.495ZM196.583 101.495C193.763 101.495 191.678 100.715 190.328 99.155C189.008 97.595 188.348 95.255 188.348 92.135V78.905H195.143V92.315C195.143 94.925 196.268 96.23 198.518 96.23C199.808 96.23 200.858 95.78 201.668 94.88C202.508 93.95 202.928 92.735 202.928 91.235V78.905H209.723V101H203.108V97.985C201.638 100.325 199.463 101.495 196.583 101.495ZM223.216 101.495C220.366 101.495 218.281 100.76 216.961 99.29C215.641 97.79 214.981 95.57 214.981 92.63V69.275H221.776V92.36C221.776 94.76 222.841 95.96 224.971 95.96C225.301 95.96 225.616 95.945 225.916 95.915C226.246 95.885 226.561 95.825 226.861 95.735L226.771 101C225.631 101.33 224.446 101.495 223.216 101.495ZM238.201 101.495C235.351 101.495 233.266 100.76 231.946 99.29C230.626 97.79 229.966 95.57 229.966 92.63V69.275H236.761V92.36C236.761 94.76 237.826 95.96 239.956 95.96C240.286 95.96 240.601 95.945 240.901 95.915C241.231 95.885 241.546 95.825 241.846 95.735L241.756 101C240.616 101.33 239.431 101.495 238.201 101.495ZM244.682 74.63V68.285H252.017V74.63H244.682ZM244.952 101V78.905H251.747V101H244.952ZM263.518 101L253.888 78.905H261.043L266.578 92.945L272.293 78.905H278.998L269.233 101H263.518ZM288.061 101.495C286.411 101.495 284.956 101.18 283.696 100.55C282.436 99.92 281.431 99.065 280.681 97.985C279.961 96.905 279.601 95.69 279.601 94.34C279.601 92.75 280.021 91.475 280.861 90.515C281.701 89.555 283.066 88.88 284.956 88.49C286.846 88.07 289.351 87.86 292.471 87.86H294.091V87.095C294.091 85.775 293.791 84.845 293.191 84.305C292.591 83.735 291.571 83.45 290.131 83.45C288.931 83.45 287.656 83.645 286.306 84.035C284.986 84.395 283.666 84.95 282.346 85.7L280.501 81.155C281.281 80.645 282.226 80.18 283.336 79.76C284.476 79.34 285.661 79.025 286.891 78.815C288.121 78.575 289.291 78.455 290.401 78.455C293.821 78.455 296.371 79.235 298.051 80.795C299.731 82.325 300.571 84.71 300.571 87.95V101H294.226V97.67C293.776 98.84 293.011 99.77 291.931 100.46C290.881 101.15 289.591 101.495 288.061 101.495ZM289.591 96.95C290.851 96.95 291.916 96.515 292.786 95.645C293.656 94.775 294.091 93.65 294.091 92.27V91.37H292.516C290.206 91.37 288.571 91.58 287.611 92C286.651 92.39 286.171 93.08 286.171 94.07C286.171 94.91 286.456 95.6 287.026 96.14C287.626 96.68 288.481 96.95 289.591 96.95ZM305.64 101V78.905H312.3V82.145C313.05 80.945 314.055 80.03 315.315 79.4C316.575 78.77 317.985 78.455 319.545 78.455C322.155 78.455 324.105 79.22 325.395 80.75C326.685 82.25 327.33 84.575 327.33 87.725V101H320.535V88.04C320.535 86.51 320.25 85.415 319.68 84.755C319.11 84.065 318.27 83.72 317.16 83.72C315.72 83.72 314.565 84.17 313.695 85.07C312.855 85.97 312.435 87.17 312.435 88.67V101H305.64Z"/><rect width="114" height="100" x="34" y="33" fill="url(#paint2_linear_86_234)"/><rect width="114" height="100" x="34" y="33" fill="#9747FF" fill-opacity=".18"/><path fill="#fff" d="M57.0005 98V66.275H70.1405C73.5605 66.275 76.2005 67.13 78.0605 68.84C79.9205 70.52 80.8505 72.89 80.8505 75.95C80.8505 79.04 79.9205 81.44 78.0605 83.15C76.2005 84.83 73.5605 85.67 70.1405 85.67H61.6805V98H57.0005ZM61.6805 81.935H69.4655C74.0255 81.935 76.3055 79.94 76.3055 75.95C76.3055 71.99 74.0255 70.01 69.4655 70.01H61.6805V81.935ZM91.299 98.405C89.769 98.405 88.404 98.105 87.204 97.505C86.004 96.905 85.044 96.095 84.324 95.075C83.634 94.055 83.289 92.9 83.289 91.61C83.289 89.99 83.694 88.715 84.504 87.785C85.344 86.855 86.709 86.18 88.599 85.76C90.519 85.34 93.099 85.13 96.339 85.13H97.869V83.96C97.869 82.25 97.509 81.02 96.789 80.27C96.069 79.52 94.884 79.145 93.234 79.145C91.974 79.145 90.714 79.34 89.454 79.73C88.194 80.09 86.904 80.675 85.584 81.485L84.189 78.29C85.329 77.48 86.754 76.835 88.464 76.355C90.174 75.875 91.809 75.635 93.369 75.635C96.369 75.635 98.589 76.355 100.029 77.795C101.469 79.205 102.189 81.425 102.189 84.455V98H97.914V94.355C97.374 95.615 96.534 96.605 95.394 97.325C94.254 98.045 92.889 98.405 91.299 98.405ZM92.199 95.165C93.819 95.165 95.169 94.595 96.249 93.455C97.329 92.315 97.869 90.875 97.869 89.135V87.92H96.384C94.194 87.92 92.469 88.025 91.209 88.235C89.979 88.445 89.094 88.805 88.554 89.315C88.044 89.795 87.789 90.47 87.789 91.34C87.789 92.48 88.179 93.41 88.959 94.13C89.739 94.82 90.819 95.165 92.199 95.165ZM117.809 98.405C115.049 98.405 112.994 97.7 111.644 96.29C110.294 94.88 109.619 92.84 109.619 90.17V79.55H105.344V76.04H109.619V69.425H114.164V76.04H120.959V79.55H114.164V89.81C114.164 91.4 114.494 92.6 115.154 93.41C115.844 94.22 116.954 94.625 118.484 94.625C118.964 94.625 119.429 94.58 119.879 94.49C120.329 94.37 120.779 94.235 121.229 94.085L121.949 97.505C121.499 97.775 120.869 97.985 120.059 98.135C119.279 98.315 118.529 98.405 117.809 98.405Z"/><rect width="318" height="119" x="23.5" y="169.5" stroke="#fff" stroke-width="7"/><path fill="#fff" d="M171.535 247.495C169.045 247.495 166.69 247.18 164.47 246.55C162.28 245.92 160.45 245.065 158.98 243.985L161.005 238.495C162.415 239.485 164.02 240.265 165.82 240.835C167.65 241.405 169.555 241.69 171.535 241.69C173.695 241.69 175.24 241.36 176.17 240.7C177.13 240.01 177.61 239.155 177.61 238.135C177.61 237.265 177.28 236.575 176.62 236.065C175.96 235.555 174.805 235.12 173.155 234.76L168.07 233.68C162.4 232.48 159.565 229.54 159.565 224.86C159.565 222.85 160.105 221.095 161.185 219.595C162.265 218.065 163.765 216.88 165.685 216.04C167.635 215.2 169.885 214.78 172.435 214.78C174.625 214.78 176.68 215.095 178.6 215.725C180.52 216.355 182.11 217.24 183.37 218.38L181.345 223.51C178.885 221.56 175.9 220.585 172.39 220.585C170.5 220.585 169.03 220.96 167.98 221.71C166.96 222.43 166.45 223.375 166.45 224.545C166.45 225.415 166.765 226.12 167.395 226.66C168.025 227.2 169.12 227.635 170.68 227.965L175.765 229.045C181.585 230.305 184.495 233.155 184.495 237.595C184.495 239.575 183.955 241.315 182.875 242.815C181.825 244.285 180.325 245.44 178.375 246.28C176.455 247.09 174.175 247.495 171.535 247.495ZM196.583 247.495C193.763 247.495 191.678 246.715 190.328 245.155C189.008 243.595 188.348 241.255 188.348 238.135V224.905H195.143V238.315C195.143 240.925 196.268 242.23 198.518 242.23C199.808 242.23 200.858 241.78 201.668 240.88C202.508 239.95 202.928 238.735 202.928 237.235V224.905H209.723V247H203.108V243.985C201.638 246.325 199.463 247.495 196.583 247.495ZM223.216 247.495C220.366 247.495 218.281 246.76 216.961 245.29C215.641 243.79 214.981 241.57 214.981 238.63V215.275H221.776V238.36C221.776 240.76 222.841 241.96 224.971 241.96C225.301 241.96 225.616 241.945 225.916 241.915C226.246 241.885 226.561 241.825 226.861 241.735L226.771 247C225.631 247.33 224.446 247.495 223.216 247.495ZM238.201 247.495C235.351 247.495 233.266 246.76 231.946 245.29C230.626 243.79 229.966 241.57 229.966 238.63V215.275H236.761V238.36C236.761 240.76 237.826 241.96 239.956 241.96C240.286 241.96 240.601 241.945 240.901 241.915C241.231 241.885 241.546 241.825 241.846 241.735L241.756 247C240.616 247.33 239.431 247.495 238.201 247.495ZM244.682 220.63V214.285H252.017V220.63H244.682ZM244.952 247V224.905H251.747V247H244.952ZM263.518 247L253.888 224.905H261.043L266.578 238.945L272.293 224.905H278.998L269.233 247H263.518ZM288.061 247.495C286.411 247.495 284.956 247.18 283.696 246.55C282.436 245.92 281.431 245.065 280.681 243.985C279.961 242.905 279.601 241.69 279.601 240.34C279.601 238.75 280.021 237.475 280.861 236.515C281.701 235.555 283.066 234.88 284.956 234.49C286.846 234.07 289.351 233.86 292.471 233.86H294.091V233.095C294.091 231.775 293.791 230.845 293.191 230.305C292.591 229.735 291.571 229.45 290.131 229.45C288.931 229.45 287.656 229.645 286.306 230.035C284.986 230.395 283.666 230.95 282.346 231.7L280.501 227.155C281.281 226.645 282.226 226.18 283.336 225.76C284.476 225.34 285.661 225.025 286.891 224.815C288.121 224.575 289.291 224.455 290.401 224.455C293.821 224.455 296.371 225.235 298.051 226.795C299.731 228.325 300.571 230.71 300.571 233.95V247H294.226V243.67C293.776 244.84 293.011 245.77 291.931 246.46C290.881 247.15 289.591 247.495 288.061 247.495ZM289.591 242.95C290.851 242.95 291.916 242.515 292.786 241.645C293.656 240.775 294.091 239.65 294.091 238.27V237.37H292.516C290.206 237.37 288.571 237.58 287.611 238C286.651 238.39 286.171 239.08 286.171 240.07C286.171 240.91 286.456 241.6 287.026 242.14C287.626 242.68 288.481 242.95 289.591 242.95ZM305.64 247V224.905H312.3V228.145C313.05 226.945 314.055 226.03 315.315 225.4C316.575 224.77 317.985 224.455 319.545 224.455C322.155 224.455 324.105 225.22 325.395 226.75C326.685 228.25 327.33 230.575 327.33 233.725V247H320.535V234.04C320.535 232.51 320.25 231.415 319.68 230.755C319.11 230.065 318.27 229.72 317.16 229.72C315.72 229.72 314.565 230.17 313.695 231.07C312.855 231.97 312.435 233.17 312.435 234.67V247H305.64Z"/><rect width="114" height="100" x="34" y="179" fill="#fff"/><path fill="url(#paint3_linear_86_234)" d="M57.0005 244V212.275H70.1405C73.5605 212.275 76.2005 213.13 78.0605 214.84C79.9205 216.52 80.8505 218.89 80.8505 221.95C80.8505 225.04 79.9205 227.44 78.0605 229.15C76.2005 230.83 73.5605 231.67 70.1405 231.67H61.6805V244H57.0005ZM61.6805 227.935H69.4655C74.0255 227.935 76.3055 225.94 76.3055 221.95C76.3055 217.99 74.0255 216.01 69.4655 216.01H61.6805V227.935ZM91.299 244.405C89.769 244.405 88.404 244.105 87.204 243.505C86.004 242.905 85.044 242.095 84.324 241.075C83.634 240.055 83.289 238.9 83.289 237.61C83.289 235.99 83.694 234.715 84.504 233.785C85.344 232.855 86.709 232.18 88.599 231.76C90.519 231.34 93.099 231.13 96.339 231.13H97.869V229.96C97.869 228.25 97.509 227.02 96.789 226.27C96.069 225.52 94.884 225.145 93.234 225.145C91.974 225.145 90.714 225.34 89.454 225.73C88.194 226.09 86.904 226.675 85.584 227.485L84.189 224.29C85.329 223.48 86.754 222.835 88.464 222.355C90.174 221.875 91.809 221.635 93.369 221.635C96.369 221.635 98.589 222.355 100.029 223.795C101.469 225.205 102.189 227.425 102.189 230.455V244H97.914V240.355C97.374 241.615 96.534 242.605 95.394 243.325C94.254 244.045 92.889 244.405 91.299 244.405ZM92.199 241.165C93.819 241.165 95.169 240.595 96.249 239.455C97.329 238.315 97.869 236.875 97.869 235.135V233.92H96.384C94.194 233.92 92.469 234.025 91.209 234.235C89.979 234.445 89.094 234.805 88.554 235.315C88.044 235.795 87.789 236.47 87.789 237.34C87.789 238.48 88.179 239.41 88.959 240.13C89.739 240.82 90.819 241.165 92.199 241.165ZM117.809 244.405C115.049 244.405 112.994 243.7 111.644 242.29C110.294 240.88 109.619 238.84 109.619 236.17V225.55H105.344V222.04H109.619V215.425H114.164V222.04H120.959V225.55H114.164V235.81C114.164 237.4 114.494 238.6 115.154 239.41C115.844 240.22 116.954 240.625 118.484 240.625C118.964 240.625 119.429 240.58 119.879 240.49C120.329 240.37 120.779 240.235 121.229 240.085L121.949 243.505C121.499 243.775 120.869 243.985 120.059 244.135C119.279 244.315 118.529 244.405 117.809 244.405Z"/><path fill="#9747FF" fill-opacity=".18" d="M57.0005 244V212.275H70.1405C73.5605 212.275 76.2005 213.13 78.0605 214.84C79.9205 216.52 80.8505 218.89 80.8505 221.95C80.8505 225.04 79.9205 227.44 78.0605 229.15C76.2005 230.83 73.5605 231.67 70.1405 231.67H61.6805V244H57.0005ZM61.6805 227.935H69.4655C74.0255 227.935 76.3055 225.94 76.3055 221.95C76.3055 217.99 74.0255 216.01 69.4655 216.01H61.6805V227.935ZM91.299 244.405C89.769 244.405 88.404 244.105 87.204 243.505C86.004 242.905 85.044 242.095 84.324 241.075C83.634 240.055 83.289 238.9 83.289 237.61C83.289 235.99 83.694 234.715 84.504 233.785C85.344 232.855 86.709 232.18 88.599 231.76C90.519 231.34 93.099 231.13 96.339 231.13H97.869V229.96C97.869 228.25 97.509 227.02 96.789 226.27C96.069 225.52 94.884 225.145 93.234 225.145C91.974 225.145 90.714 225.34 89.454 225.73C88.194 226.09 86.904 226.675 85.584 227.485L84.189 224.29C85.329 223.48 86.754 222.835 88.464 222.355C90.174 221.875 91.809 221.635 93.369 221.635C96.369 221.635 98.589 222.355 100.029 223.795C101.469 225.205 102.189 227.425 102.189 230.455V244H97.914V240.355C97.374 241.615 96.534 242.605 95.394 243.325C94.254 244.045 92.889 244.405 91.299 244.405ZM92.199 241.165C93.819 241.165 95.169 240.595 96.249 239.455C97.329 238.315 97.869 236.875 97.869 235.135V233.92H96.384C94.194 233.92 92.469 234.025 91.209 234.235C89.979 234.445 89.094 234.805 88.554 235.315C88.044 235.795 87.789 236.47 87.789 237.34C87.789 238.48 88.179 239.41 88.959 240.13C89.739 240.82 90.819 241.165 92.199 241.165ZM117.809 244.405C115.049 244.405 112.994 243.7 111.644 242.29C110.294 240.88 109.619 238.84 109.619 236.17V225.55H105.344V222.04H109.619V215.425H114.164V222.04H120.959V225.55H114.164V235.81C114.164 237.4 114.494 238.6 115.154 239.41C115.844 240.22 116.954 240.625 118.484 240.625C118.964 240.625 119.429 240.58 119.879 240.49C120.329 240.37 120.779 240.235 121.229 240.085L121.949 243.505C121.499 243.775 120.869 243.985 120.059 244.135C119.279 244.315 118.529 244.405 117.809 244.405Z"/><rect width="369" height="313" x=".5" y=".5" stroke="#9747FF" stroke-dasharray="10 5" rx="4.5"/><defs><linearGradient id="paint0_linear_86_234" x1="182.5" x2="182.5" y1="20" y2="146" gradientUnits="userSpaceOnUse"><stop stop-color="#2B2347" stop-opacity=".81"/><stop offset="1" stop-color="#212132"/></linearGradient><linearGradient id="paint1_linear_86_234" x1="246.044" x2="246.044" y1="79" y2="106" gradientUnits="userSpaceOnUse"><stop stop-color="#2B2347" stop-opacity=".81"/><stop offset="1" stop-color="#212132"/></linearGradient><linearGradient id="paint2_linear_86_234" x1="91" x2="91" y1="33" y2="133" gradientUnits="userSpaceOnUse"><stop stop-color="#2B2347" stop-opacity=".81"/><stop offset="1" stop-color="#212132"/></linearGradient><linearGradient id="paint3_linear_86_234" x1="87.5" x2="87.5" y1="179" y2="279" gradientUnits="userSpaceOnUse"><stop stop-color="#2B2347" stop-opacity=".81"/><stop offset="1" stop-color="#212132"/></linearGradient></defs></svg>