<svg width="340" height="131" viewBox="0 0 340 131" fill="none" xmlns="http://www.w3.org/2000/svg">
<rect x="3.5" y="3.5" width="333" height="119" stroke="white" stroke-width="7"/>
<path d="M180.535 76.495C178.045 76.495 175.69 76.18 173.47 75.55C171.28 74.92 169.45 74.065 167.98 72.985L170.005 67.495C171.415 68.485 173.02 69.265 174.82 69.835C176.65 70.405 178.555 70.69 180.535 70.69C182.695 70.69 184.24 70.36 185.17 69.7C186.13 69.01 186.61 68.155 186.61 67.135C186.61 66.265 186.28 65.575 185.62 65.065C184.96 64.555 183.805 64.12 182.155 63.76L177.07 62.68C171.4 61.48 168.565 58.54 168.565 53.86C168.565 51.85 169.105 50.095 170.185 48.595C171.265 47.065 172.765 45.88 174.685 45.04C176.635 44.2 178.885 43.78 181.435 43.78C183.625 43.78 185.68 44.095 187.6 44.725C189.52 45.355 191.11 46.24 192.37 47.38L190.345 52.51C187.885 50.56 184.9 49.585 181.39 49.585C179.5 49.585 178.03 49.96 176.98 50.71C175.96 51.43 175.45 52.375 175.45 53.545C175.45 54.415 175.765 55.12 176.395 55.66C177.025 56.2 178.12 56.635 179.68 56.965L184.765 58.045C190.585 59.305 193.495 62.155 193.495 66.595C193.495 68.575 192.955 70.315 191.875 71.815C190.825 73.285 189.325 74.44 187.375 75.28C185.455 76.09 183.175 76.495 180.535 76.495ZM198.753 84.1L202.983 74.785L193.893 53.905H201.048L206.583 67.945L212.298 53.905H219.048L205.683 84.1H198.753ZM229.057 76.495C227.107 76.495 225.292 76.27 223.612 75.82C221.932 75.37 220.537 74.755 219.427 73.975L221.047 69.565C222.157 70.255 223.417 70.81 224.827 71.23C226.267 71.62 227.692 71.815 229.102 71.815C230.362 71.815 231.292 71.62 231.892 71.23C232.492 70.81 232.792 70.27 232.792 69.61C232.792 68.56 232.027 67.9 230.497 67.63L225.772 66.775C223.882 66.445 222.442 65.77 221.452 64.75C220.462 63.73 219.967 62.395 219.967 60.745C219.967 59.245 220.387 57.955 221.227 56.875C222.067 55.795 223.222 54.955 224.692 54.355C226.162 53.755 227.857 53.455 229.777 53.455C231.367 53.455 232.912 53.665 234.412 54.085C235.912 54.475 237.202 55.105 238.282 55.975L236.572 60.34C235.672 59.68 234.592 59.14 233.332 58.72C232.102 58.3 230.947 58.09 229.867 58.09C228.517 58.09 227.542 58.315 226.942 58.765C226.342 59.185 226.042 59.725 226.042 60.385C226.042 61.435 226.747 62.095 228.157 62.365L232.882 63.22C234.832 63.55 236.317 64.21 237.337 65.2C238.357 66.16 238.867 67.48 238.867 69.16C238.867 71.47 237.967 73.27 236.167 74.56C234.367 75.85 231.997 76.495 229.057 76.495ZM253.371 76.495C247.161 76.495 244.056 73.48 244.056 67.45V58.99H239.871V53.905H244.056V47.425H250.851V53.905H257.376V58.99H250.851V67.18C250.851 68.44 251.136 69.385 251.706 70.015C252.306 70.645 253.251 70.96 254.541 70.96C254.931 70.96 255.336 70.915 255.756 70.825C256.206 70.735 256.686 70.615 257.196 70.465L258.186 75.415C257.556 75.745 256.806 76 255.936 76.18C255.066 76.39 254.211 76.495 253.371 76.495ZM271.975 76.495C269.365 76.495 267.115 76.03 265.225 75.1C263.365 74.14 261.925 72.805 260.905 71.095C259.915 69.355 259.42 67.315 259.42 64.975C259.42 62.695 259.9 60.7 260.86 58.99C261.85 57.25 263.185 55.9 264.865 54.94C266.575 53.95 268.54 53.455 270.76 53.455C273.97 53.455 276.52 54.475 278.41 56.515C280.3 58.525 281.245 61.255 281.245 64.705V66.415H265.9C266.14 68.155 266.77 69.43 267.79 70.24C268.84 71.02 270.28 71.41 272.11 71.41C273.31 71.41 274.525 71.23 275.755 70.87C276.985 70.51 278.095 69.955 279.085 69.205L280.885 73.75C279.775 74.59 278.41 75.265 276.79 75.775C275.2 76.255 273.595 76.495 271.975 76.495ZM271.03 57.955C269.59 57.955 268.42 58.39 267.52 59.26C266.65 60.13 266.11 61.345 265.9 62.905H275.62C275.44 59.605 273.91 57.955 271.03 57.955ZM285.287 76V53.905H291.947V57.1C292.607 55.96 293.507 55.075 294.647 54.445C295.817 53.785 297.167 53.455 298.697 53.455C300.257 53.455 301.577 53.8 302.657 54.49C303.767 55.18 304.607 56.23 305.177 57.64C305.867 56.32 306.857 55.3 308.147 54.58C309.467 53.83 310.922 53.455 312.512 53.455C315.032 53.455 316.907 54.22 318.137 55.75C319.367 57.25 319.982 59.575 319.982 62.725V76H313.187V62.95C313.187 61.48 312.947 60.415 312.467 59.755C312.017 59.065 311.237 58.72 310.127 58.72C308.837 58.72 307.832 59.17 307.112 60.07C306.392 60.97 306.032 62.245 306.032 63.895V76H299.237V62.95C299.237 61.48 298.997 60.415 298.517 59.755C298.037 59.065 297.257 58.72 296.177 58.72C294.887 58.72 293.882 59.17 293.162 60.07C292.442 60.97 292.082 62.245 292.082 63.895V76H285.287Z" fill="white"/>
<rect x="14" y="13" width="144" height="100" fill="white"/>
<path d="M46.46 75.405C43.43 75.405 40.805 74.745 38.585 73.425C36.365 72.075 34.64 70.185 33.41 67.755C32.21 65.295 31.61 62.415 31.61 59.115C31.61 55.785 32.21 52.905 33.41 50.475C34.64 48.045 36.365 46.17 38.585 44.85C40.805 43.53 43.43 42.87 46.46 42.87C49.46 42.87 52.07 43.53 54.29 44.85C56.54 46.17 58.265 48.045 59.465 50.475C60.695 52.905 61.31 55.77 61.31 59.07C61.31 62.4 60.695 65.295 59.465 67.755C58.265 70.185 56.54 72.075 54.29 73.425C52.07 74.745 49.46 75.405 46.46 75.405ZM46.46 71.355C49.61 71.355 52.055 70.29 53.795 68.16C55.565 66 56.45 62.985 56.45 59.115C56.45 55.245 55.58 52.245 53.84 50.115C52.1 47.985 49.64 46.92 46.46 46.92C43.31 46.92 40.85 47.985 39.08 50.115C37.34 52.245 36.47 55.245 36.47 59.115C36.47 62.985 37.34 66 39.08 68.16C40.85 70.29 43.31 71.355 46.46 71.355ZM67.0876 83.1V53.04H71.5426V56.775C72.1726 55.515 73.1326 54.51 74.4226 53.76C75.7126 53.01 77.1976 52.635 78.8776 52.635C80.8276 52.635 82.5226 53.1 83.9626 54.03C85.4326 54.96 86.5576 56.28 87.3376 57.99C88.1476 59.67 88.5526 61.68 88.5526 64.02C88.5526 66.36 88.1476 68.385 87.3376 70.095C86.5576 71.805 85.4326 73.125 83.9626 74.055C82.5226 74.955 80.8276 75.405 78.8776 75.405C77.2576 75.405 75.8026 75.06 74.5126 74.37C73.2526 73.65 72.2926 72.675 71.6326 71.445V83.1H67.0876ZM77.7526 71.895C79.6426 71.895 81.1426 71.22 82.2526 69.87C83.3926 68.52 83.9626 66.57 83.9626 64.02C83.9626 61.47 83.3926 59.535 82.2526 58.215C81.1426 56.865 79.6426 56.19 77.7526 56.19C75.8626 56.19 74.3476 56.865 73.2076 58.215C72.0976 59.535 71.5426 61.47 71.5426 64.02C71.5426 66.57 72.0976 68.52 73.2076 69.87C74.3476 71.22 75.8626 71.895 77.7526 71.895ZM103.979 75.405C100.379 75.405 97.5445 74.4 95.4745 72.39C93.4045 70.35 92.3695 67.575 92.3695 64.065C92.3695 61.815 92.8195 59.835 93.7195 58.125C94.6495 56.385 95.9245 55.035 97.5445 54.075C99.1645 53.115 101.024 52.635 103.124 52.635C106.154 52.635 108.539 53.61 110.279 55.56C112.019 57.48 112.889 60.135 112.889 63.525V65.055H96.7795C97.1095 69.615 99.5245 71.895 104.024 71.895C105.284 71.895 106.514 71.7 107.714 71.31C108.944 70.92 110.099 70.275 111.179 69.375L112.529 72.525C111.539 73.425 110.264 74.13 108.704 74.64C107.144 75.15 105.569 75.405 103.979 75.405ZM103.304 55.83C101.414 55.83 99.9145 56.415 98.8045 57.585C97.6945 58.755 97.0195 60.315 96.7795 62.265H109.064C108.974 60.225 108.434 58.65 107.444 57.54C106.454 56.4 105.074 55.83 103.304 55.83ZM117.844 75V53.04H122.254V56.685C123.004 55.365 124.024 54.36 125.314 53.67C126.634 52.98 128.104 52.635 129.724 52.635C134.914 52.635 137.509 55.575 137.509 61.455V75H132.964V61.725C132.964 59.835 132.589 58.455 131.839 57.585C131.119 56.715 129.979 56.28 128.419 56.28C126.589 56.28 125.119 56.865 124.009 58.035C122.929 59.175 122.389 60.69 122.389 62.58V75H117.844Z" fill="#764ABC"/>
</svg>
